M48
;Layer_Color=9474304
;FILE_FORMAT=4:4
METRIC,LZ
;TYPE=PLATED
T01F00S00C0.3000
T03F00S00C1.0000
T04F00S00C1.2000
T05F00S00C2.8000
%
T01
X000075Y000075
Y0005
X00012Y000615
X0002625Y0006175
X00021Y00071
X00037731Y00090652
X00044731
X00051731
X00058731
X00065677Y00091525
X00072082Y00094348
X00079082
X00092853Y00094477
X00094598Y00101256
X000945Y0012525
Y0013425
X00077652Y00132455
X00078098Y00139441
X00077652Y00124096
X00078098Y00117111
X00077341Y00110152
X00070341
X0006425Y0011425
X0005753Y00114348
X0005053
X0004353
X0003653
X00036Y0014125
X000445
X000665Y001305
X00106Y00115
X0013375Y001205
X0013425Y001315
X00134Y001425
X00136Y00072
X0011123Y000655
Y000435
X00097Y0002225
X0008625Y00012
X001225Y0001175
X0009473Y00072
X0008027
X00086Y0008148
X0007Y000505
X0006275Y0004175
X00145Y0005127
Y0007227
Y0009327
X0015477Y001045
X00166Y0011427
X0017577Y001255
X00166Y0013673
X00187
X00208
X0022723Y001355
X0021923Y001255
X0024023
X00237228Y00115
X00229Y0011427
X00208
Y0009327
X00196Y00096
X00187Y0009327
Y0011427
X0019677Y001255
X00196Y00071
X00187Y0007227
X00166
Y0005127
X00187
X00208
Y0007227
X00229
Y0005127
X0025
Y0007227
X0024023Y000835
Y001045
X00229Y0009327
X002615Y0009875
X0026075Y001095
X0028377Y000875
X0029Y00075
X003195Y000775
X0031925Y000975
X0031725Y0011375
Y0012625
X00283Y00142
X00296Y00046
X0031375Y000375
X003155Y0005475
X0033075Y000575
X003615Y0005375
X0034975Y000375
X003675Y000275
X003395Y0001925
X0033275Y00015
X004375Y000075
X00446Y00021
X00471
X0046Y000075
X004825
X00505
X00496Y00021
X00471Y00046
Y00071
X0047025Y00087
X00446Y00096
X00408Y0009725
X004105Y0006925
X0038Y000885
X0037975Y0010125
X0038Y0011375
X0038025Y001265
X0040325Y00127
X0039575Y001375
X004205Y0012277
X00432Y00125
X004775Y0014
X00485
X0050777Y001155
X0052527
X00515Y0007823
X00521Y00071
X00535Y000075
X00166Y0009327
X00546Y00096
X00571
X00596
X005825Y0012
X00546Y00121
X0055Y001325
X0054
X00545Y0014
X00621Y00121
X006425Y001275
Y000925
Y00075
Y000575
Y000375
Y000175
X00635Y000075
X00615
X005975
X00596Y00021
X00621
Y00046
Y00071
X00571
X00546Y00021
X005575Y000075
X0055Y001475
X0054
X00546Y00196
X00571
X00596
X00621
Y00221
X006425Y002175
Y002
Y00235
Y002725
X00555Y00265
X0054
X00571Y00221
X00596
X00621Y00146
X006425Y00145
X004775Y001475
Y00155
X0047Y0017698
X004275Y0018175
X00421Y00221
X00433Y0023527
X0044Y00251
X004295Y0025825
X0042Y0026525
X0040025Y0025
X0038Y00251
X00371Y00246
X0032675Y0024175
X00296Y00246
X00271
X00264Y0023075
X002525
X002415
X002335
X0021925Y0022525
X0020825Y00233
X0019707Y0022637
X001975Y00203
X001865Y0020275
X001755Y00203
X001645Y0020325
X00145Y0017873
X0015575Y001675
X00166Y0015773
X00187
X00208
X0021923Y001465
X00237552Y00155307
X002595Y00157
X0026125Y0016625
Y0017375
X0026075Y00189
X0024023Y001885
X0024Y002515
X00246Y00246
X0022Y0025075
X002095Y00258
X002Y00266
X00155Y002635
Y0024175
X0017331Y0024511
X0029173Y0017625
X00292Y001635
X00330122Y00157628
X003245Y001825
X0038075Y001835
X0038077Y0016375
X0038325Y0015325
X0034875Y0014325
X00521Y00221
X005025Y00265
X004875
X001305Y002675
X001145Y0026725
X001215Y0023725
X0010875Y00225
X00109616Y00183402
X00102618Y00183264
X00095809Y00181638
X00089817Y0017802
X00084966Y00172973
X00081322Y00166996
X00079044Y00160378
X00078105Y00153441
X00078098Y00146441
X00093902Y00149185
X00094237Y00156177
X00096975Y00162619
X00102292Y00167172
X00109279Y00167598
X00134Y001645
X0013549Y00170958
X00135598Y00177957
X0013477Y001865
X00134Y001535
X0007125Y001715
X00068Y00186
X0006825Y0020625
Y0021375
X00068Y00234
X0007973Y0024025
X00076Y00249
X000895Y0019125
X0005825Y001475
T03
X004298Y00055
X004552
X004969Y000684
X005223Y000176
X005731
X005477Y000684
X005985
X005477Y002116
X005731Y002624
X005223
X004715
X004969Y002116
X004552Y001625
X004298
X003802Y00225
X003548
X003202
X002948
T04
X00601Y001225
Y001575
T05
X00035Y00025
X00615Y00255
M30
