G04*
G04 #@! TF.GenerationSoftware,Altium Limited,Altium Designer,22.5.1 (42)*
G04*
G04 Layer_Color=8421504*
%FSLAX44Y44*%
%MOMM*%
G71*
G04*
G04 #@! TF.SameCoordinates,D327534F-E779-4237-818F-575770AB304D*
G04*
G04*
G04 #@! TF.FilePolarity,Positive*
G04*
G01*
G75*
%ADD10C,0.2000*%
%ADD13R,0.5500X1.2000*%
%ADD14R,2.0000X1.0000*%
%ADD15R,1.0000X2.0000*%
%ADD16R,0.5500X1.0000*%
%ADD17R,0.5000X0.6500*%
%ADD18R,0.6500X0.5000*%
D10*
X-110000Y168250D02*
X110000D01*
Y-118000D02*
Y168250D01*
X-110000Y-118000D02*
X110000D01*
X-110000D02*
Y168250D01*
D13*
X-89500Y-97500D02*
D03*
X-75500D02*
D03*
X85500Y-67500D02*
D03*
X99500D02*
D03*
X85500Y-87500D02*
D03*
X99500D02*
D03*
D14*
X65000Y98750D02*
D03*
Y83750D02*
D03*
X-65000Y98750D02*
D03*
Y83750D02*
D03*
Y68750D02*
D03*
Y53750D02*
D03*
Y38750D02*
D03*
Y23750D02*
D03*
Y8750D02*
D03*
Y-6250D02*
D03*
Y-21250D02*
D03*
Y-36250D02*
D03*
Y-51250D02*
D03*
Y-66250D02*
D03*
Y-81250D02*
D03*
X65000D02*
D03*
Y-66250D02*
D03*
Y-51250D02*
D03*
Y-36250D02*
D03*
Y-21250D02*
D03*
Y-6250D02*
D03*
Y8750D02*
D03*
Y23750D02*
D03*
Y38750D02*
D03*
Y53750D02*
D03*
Y68750D02*
D03*
D15*
X-52500Y-98750D02*
D03*
X-37500D02*
D03*
X-22500D02*
D03*
X-7500D02*
D03*
X7500D02*
D03*
X22500D02*
D03*
X37500D02*
D03*
X52500D02*
D03*
D16*
X85500Y-107500D02*
D03*
X99500D02*
D03*
D17*
X-88000Y87500D02*
D03*
X-97000D02*
D03*
X-88000Y70000D02*
D03*
X-97000D02*
D03*
D18*
X82500Y-5500D02*
D03*
Y-14500D02*
D03*
X-82500Y-77000D02*
D03*
Y-68000D02*
D03*
M02*
