G04*
G04 #@! TF.GenerationSoftware,Altium Limited,Altium Designer,22.5.1 (42)*
G04*
G04 Layer_Color=16777215*
%FSLAX44Y44*%
%MOMM*%
G71*
G04*
G04 #@! TF.SameCoordinates,D327534F-E779-4237-818F-575770AB304D*
G04*
G04*
G04 #@! TF.FilePolarity,Positive*
G04*
G01*
G75*
%ADD10C,0.2000*%
%ADD11C,0.3000*%
%ADD12C,0.1500*%
D10*
X-80000Y-101500D02*
Y-93500D01*
X-85000D02*
X-80000D01*
X-85000Y-101500D02*
Y-93500D01*
Y-101500D02*
X-80000D01*
X-110000Y105250D02*
X110000Y105250D01*
X-65000Y-98750D02*
X-57750D01*
X-65000D02*
Y-86500D01*
X57750Y-98750D02*
X65000D01*
Y-86500D01*
Y105250D02*
Y168250D01*
X-65000D02*
X65000D01*
X-65000Y105250D02*
Y168250D01*
X90000Y-103500D02*
X95000D01*
Y-111500D02*
Y-103500D01*
X90000Y-111500D02*
X95000D01*
X90000D02*
Y-103500D01*
Y-63500D02*
X95000D01*
Y-71500D02*
Y-63500D01*
X90000Y-71500D02*
X95000D01*
X90000D02*
Y-63500D01*
Y-83500D02*
X95000D01*
Y-91500D02*
Y-83500D01*
X90000Y-91500D02*
X95000D01*
X90000D02*
Y-83500D01*
X-110000Y168250D02*
X110000D01*
Y-118000D02*
Y168250D01*
X-110000Y-118000D02*
X110000D01*
X-110000D02*
Y168250D01*
D11*
X-92500Y86000D02*
Y89000D01*
Y68500D02*
Y71500D01*
X81000Y-10000D02*
X84000D01*
X-84000Y-72500D02*
X-81000D01*
D12*
X83750Y-95502D02*
Y-101500D01*
Y-99501D01*
X87749Y-95502D01*
X84750Y-98501D01*
X87749Y-101500D01*
X-83500Y-106251D02*
X-84499Y-105251D01*
X-86499D01*
X-87498Y-106251D01*
Y-110249D01*
X-86499Y-111249D01*
X-84499D01*
X-83500Y-110249D01*
X-77502Y-111249D02*
X-81500D01*
X-77502Y-107250D01*
Y-106251D01*
X-78501Y-105251D01*
X-80501D01*
X-81500Y-106251D01*
X83501Y90499D02*
Y85501D01*
X84501Y84501D01*
X86500D01*
X87500Y85501D01*
Y90499D01*
X89499Y84501D02*
X91499D01*
X90499D01*
Y90499D01*
X89499Y89499D01*
X66751Y-109001D02*
Y-114999D01*
X69750D01*
X70750Y-113999D01*
Y-110001D01*
X69750Y-109001D01*
X66751D01*
X72749Y-114999D02*
X74749D01*
X73749D01*
Y-109001D01*
X72749Y-110001D01*
X87002Y-80499D02*
Y-74501D01*
X90001D01*
X91000Y-75501D01*
Y-77500D01*
X90001Y-78500D01*
X87002D01*
X89001D02*
X91000Y-80499D01*
X96998Y-74501D02*
X93000D01*
Y-77500D01*
X94999Y-76500D01*
X95999D01*
X96998Y-77500D01*
Y-79499D01*
X95999Y-80499D01*
X93999D01*
X93000Y-79499D01*
X78752Y-59249D02*
Y-53251D01*
X81751D01*
X82750Y-54251D01*
Y-56250D01*
X81751Y-57250D01*
X78752D01*
X80751D02*
X82750Y-59249D01*
X87749D02*
Y-53251D01*
X84750Y-56250D01*
X88748D01*
X85499Y-28248D02*
X79501D01*
Y-25249D01*
X80501Y-24250D01*
X82500D01*
X83500Y-25249D01*
Y-28248D01*
Y-26249D02*
X85499Y-24250D01*
X80501Y-22250D02*
X79501Y-21251D01*
Y-19251D01*
X80501Y-18252D01*
X81500D01*
X82500Y-19251D01*
Y-20251D01*
Y-19251D01*
X83500Y-18252D01*
X84499D01*
X85499Y-19251D01*
Y-21251D01*
X84499Y-22250D01*
X-97498Y74501D02*
Y80499D01*
X-94499D01*
X-93500Y79499D01*
Y77500D01*
X-94499Y76500D01*
X-97498D01*
X-95499D02*
X-93500Y74501D01*
X-87502D02*
X-91500D01*
X-87502Y78500D01*
Y79499D01*
X-88501Y80499D01*
X-90501D01*
X-91500Y79499D01*
X-96499Y92001D02*
Y97999D01*
X-93500D01*
X-92500Y96999D01*
Y95000D01*
X-93500Y94000D01*
X-96499D01*
X-94499D02*
X-92500Y92001D01*
X-90501D02*
X-88501D01*
X-89501D01*
Y97999D01*
X-90501Y96999D01*
X-91250Y-59001D02*
X-92250Y-58001D01*
X-94249D01*
X-95249Y-59001D01*
Y-62999D01*
X-94249Y-63999D01*
X-92250D01*
X-91250Y-62999D01*
X-89251Y-63999D02*
X-87251D01*
X-88251D01*
Y-58001D01*
X-89251Y-59001D01*
M02*
