G04*
G04 #@! TF.GenerationSoftware,Altium Limited,Altium Designer,21.9.2 (33)*
G04*
G04 Layer_Physical_Order=1*
G04 Layer_Color=1265191*
%FSLAX44Y44*%
%MOMM*%
G71*
G04*
G04 #@! TF.SameCoordinates,5C5C66F8-9FC8-4E62-95D0-8360453F7E55*
G04*
G04*
G04 #@! TF.FilePolarity,Positive*
G04*
G01*
G75*
%ADD10C,0.2000*%
%ADD11C,0.2500*%
%ADD13C,0.3000*%
%ADD15C,0.1500*%
%ADD16R,0.5000X0.6500*%
%ADD17R,0.6500X0.5000*%
%ADD18R,0.6000X0.6000*%
%ADD19R,1.2000X0.5500*%
%ADD20R,0.7000X0.8000*%
%ADD21R,2.9200X1.3500*%
%ADD22R,0.5500X1.2000*%
%ADD23R,0.8000X0.3000*%
%ADD24R,1.0000X0.5500*%
%ADD25R,1.1000X1.7000*%
%ADD26R,0.6500X0.3500*%
%ADD27R,1.5000X0.8000*%
%ADD28R,0.8000X1.5000*%
%ADD29R,1.1000X1.1000*%
%ADD30R,2.2000X1.6000*%
%ADD31R,1.8000X0.7000*%
%ADD32R,0.5500X1.0000*%
%ADD33R,0.8000X1.0000*%
%ADD34R,0.9000X1.5000*%
%ADD35R,0.3500X0.8500*%
%ADD36R,1.0500X1.0000*%
%ADD37R,2.2000X1.0500*%
%ADD38O,1.6000X1.7000*%
%ADD39R,1.6000X1.7000*%
%ADD40C,1.1000*%
%ADD41C,1.6000*%
%ADD42R,1.6000X1.6000*%
%ADD43R,1.8000X1.8000*%
%ADD44C,1.8000*%
%ADD45O,0.9000X1.8000*%
%ADD46O,2.0000X0.9000*%
%ADD47C,5.0000*%
%ADD48C,0.4000*%
%ADD49R,1.2700X0.6350*%
%ADD50C,0.5000*%
%ADD51C,0.1200*%
%ADD52C,0.6000*%
G36*
X172486Y276244D02*
X172441Y275881D01*
X172310Y275059D01*
X171500D01*
X170329Y274826D01*
X169337Y274163D01*
X169337Y274163D01*
X160492Y265318D01*
X158994Y265616D01*
X158815Y266049D01*
X158500Y266364D01*
Y274750D01*
X150770D01*
X150500Y274750D01*
X149500D01*
X149230Y274750D01*
X147000D01*
Y270000D01*
Y265250D01*
X149230D01*
X149500Y265250D01*
X149719Y265063D01*
X150500Y263980D01*
Y262605D01*
X149929Y261750D01*
X145250D01*
Y258059D01*
X141250D01*
Y262500D01*
X133894D01*
X133507Y262500D01*
X133172Y263366D01*
X133154Y263558D01*
X133134Y263770D01*
X134315Y264951D01*
X134749Y266000D01*
X132000D01*
Y262904D01*
X132750Y262187D01*
X132750Y261593D01*
X132750Y261593D01*
X132750Y261543D01*
Y247500D01*
X141250D01*
Y251941D01*
X145250D01*
Y250250D01*
X148099D01*
X148625Y248980D01*
X146698Y247052D01*
X146145Y246225D01*
X145951Y245250D01*
Y239750D01*
X145250D01*
Y228559D01*
X144260D01*
X143285Y228365D01*
X142458Y227812D01*
X140698Y226052D01*
X140145Y225226D01*
X139951Y224250D01*
X139201Y223500D01*
X137000Y223500D01*
X135730Y223500D01*
X126000D01*
Y205500D01*
X135730D01*
X137000Y205500D01*
X138270Y205500D01*
X146730D01*
X148000Y205500D01*
Y205500D01*
X148000D01*
Y205500D01*
X159418D01*
X160124Y204444D01*
X160000Y204145D01*
Y202355D01*
X160685Y200701D01*
X161951Y199435D01*
X163605Y198750D01*
X165395D01*
X167049Y199435D01*
X168315Y200701D01*
X169000Y202355D01*
Y204145D01*
X169775Y205205D01*
X170329D01*
X171078Y204083D01*
X171000Y203895D01*
Y202105D01*
X171685Y200451D01*
X172951Y199185D01*
X174605Y198500D01*
X176395D01*
X178049Y199185D01*
X179315Y200451D01*
X180000Y202105D01*
Y203895D01*
X179940Y204039D01*
X180700Y205176D01*
X181529D01*
X182211Y204155D01*
X182000Y203645D01*
Y201855D01*
X182685Y200201D01*
X183951Y198935D01*
X185605Y198250D01*
X187395D01*
X189049Y198935D01*
X190315Y200201D01*
X191000Y201855D01*
Y203645D01*
X190789Y204155D01*
X191471Y205176D01*
X192300D01*
X192752Y204500D01*
X201810D01*
X202016Y204809D01*
X203000Y205500D01*
X203000D01*
X203000Y205500D01*
X212730D01*
X214000Y205500D01*
Y205500D01*
X214000D01*
Y205500D01*
X223730D01*
X225000Y205500D01*
X226270Y205500D01*
X245730D01*
X247000Y205500D01*
X248270Y205500D01*
X256730D01*
X258000Y205500D01*
X259270Y205500D01*
X269000D01*
Y223500D01*
X268832D01*
X268126Y224556D01*
X268250Y224855D01*
Y226645D01*
X267565Y228299D01*
X266299Y229565D01*
X264645Y230250D01*
X262855D01*
X261201Y229565D01*
X259935Y228299D01*
X259250Y226645D01*
Y224855D01*
X259374Y224556D01*
X258668Y223500D01*
X257332D01*
X256626Y224556D01*
X256750Y224855D01*
Y226645D01*
X256065Y228299D01*
X254799Y229565D01*
X253145Y230250D01*
X251355D01*
X249701Y229565D01*
X248435Y228299D01*
X247750Y226645D01*
Y224855D01*
X247139Y224613D01*
X246250Y225661D01*
Y226645D01*
X245565Y228299D01*
X244299Y229565D01*
X242645Y230250D01*
X240855D01*
X239201Y229565D01*
X237935Y228299D01*
X237250Y226645D01*
Y224855D01*
X237314Y224700D01*
X236616Y223655D01*
X235503D01*
X234758Y224770D01*
X235000Y225355D01*
Y227145D01*
X234315Y228799D01*
X233049Y230065D01*
X231395Y230750D01*
X229605D01*
X227951Y230065D01*
X226685Y228799D01*
X226000Y227145D01*
Y225355D01*
X226242Y224770D01*
X225681Y223930D01*
X224430Y223874D01*
X223750Y224586D01*
Y226145D01*
X223065Y227799D01*
X221799Y229065D01*
X220145Y229750D01*
X219625Y231020D01*
X222556Y233951D01*
X282244D01*
X286327Y229869D01*
X285544Y227980D01*
X285218Y225500D01*
Y224500D01*
X285544Y222020D01*
X286502Y219709D01*
X288025Y217725D01*
X290009Y216202D01*
X292320Y215245D01*
X294800Y214918D01*
X297280Y215245D01*
X298242Y215643D01*
X298962Y214566D01*
X280927Y196532D01*
X280375Y195705D01*
X280181Y194730D01*
Y192000D01*
X273500D01*
Y186500D01*
X270500D01*
Y192000D01*
X264114D01*
X263299Y192815D01*
X262250Y193249D01*
Y189000D01*
Y184419D01*
X263000Y183918D01*
Y182270D01*
X263000Y181000D01*
X263000D01*
Y181000D01*
X263000D01*
Y178821D01*
X262145Y178250D01*
X260355D01*
X258701Y177565D01*
X257435Y176299D01*
X256750Y174645D01*
Y174500D01*
X251500D01*
Y167500D01*
Y160500D01*
X257000D01*
Y162340D01*
X258270Y162866D01*
X258701Y162435D01*
X260355Y161750D01*
X262145D01*
X262708Y161374D01*
Y161097D01*
X261493Y159909D01*
X260721D01*
X259067Y159223D01*
X257801Y157958D01*
X257116Y156304D01*
Y154722D01*
X257094Y154490D01*
X256161Y153500D01*
X251500D01*
Y148000D01*
X257000D01*
Y151864D01*
X258270Y152390D01*
X259067Y151594D01*
X260546Y150981D01*
X260911Y150616D01*
X260911Y150616D01*
X262234Y149732D01*
X263000Y149580D01*
X263000Y148000D01*
X263000D01*
Y148000D01*
X263000D01*
Y144000D01*
X272000D01*
Y141000D01*
X263000D01*
Y138270D01*
X263000Y137000D01*
X263000D01*
Y137000D01*
X263000D01*
Y127270D01*
X263000Y126000D01*
X263000D01*
Y126000D01*
X263000D01*
Y114813D01*
X261730Y113965D01*
X261645Y114000D01*
X259855D01*
X258201Y113315D01*
X256935Y112049D01*
X256708Y111500D01*
X251500D01*
Y104500D01*
Y97500D01*
X257000D01*
X257575Y96468D01*
X257685Y96201D01*
X258951Y94935D01*
X260605Y94250D01*
X262395D01*
X262608Y94108D01*
X263000Y93000D01*
Y93000D01*
X263000Y93000D01*
Y89000D01*
X272000D01*
Y86000D01*
X263000D01*
Y83270D01*
X263000Y82000D01*
X263000D01*
Y82000D01*
X263000D01*
Y72270D01*
X263000Y71000D01*
X263000D01*
Y71000D01*
X263000D01*
Y61270D01*
X263000Y60000D01*
X263000Y58730D01*
Y50270D01*
X263000Y49000D01*
X263000Y47730D01*
Y38000D01*
X281000D01*
Y47730D01*
X281000Y49000D01*
X281000Y50270D01*
Y58730D01*
X281000Y60000D01*
X281000Y61270D01*
Y65015D01*
X282173Y65501D01*
X283441Y64233D01*
Y45500D01*
X283441Y45500D01*
X283674Y44330D01*
X284337Y43337D01*
X290474Y37200D01*
X289849Y36029D01*
X289750Y36049D01*
X257000D01*
Y40000D01*
X243000D01*
Y36049D01*
X236000D01*
Y40000D01*
X222000D01*
Y36049D01*
X215000D01*
Y40000D01*
X201000D01*
Y36049D01*
X194000D01*
Y40000D01*
X180000D01*
Y34500D01*
X180000Y34500D01*
X180000D01*
X179237Y33592D01*
X173698Y28052D01*
X173145Y27225D01*
X172951Y26250D01*
Y25398D01*
X172053Y24500D01*
X170000Y24500D01*
X168730Y24500D01*
X149270D01*
X148000Y24500D01*
X146730Y24500D01*
X138270D01*
X137000Y24500D01*
X135730Y24500D01*
X126000D01*
Y16273D01*
X124730Y15697D01*
X123395Y16250D01*
X121605D01*
X119951Y15565D01*
X118685Y14299D01*
X118000Y12645D01*
Y10855D01*
X118685Y9201D01*
X119951Y7935D01*
X121605Y7250D01*
X123395D01*
X124730Y7803D01*
X126000Y7227D01*
Y6500D01*
X135730D01*
X137000Y6500D01*
X138270Y6500D01*
X146730D01*
X148000Y6500D01*
X149270Y6500D01*
X168730D01*
X170000Y6500D01*
X171270Y6500D01*
X179730D01*
X181000Y6500D01*
Y6500D01*
X181000D01*
Y6500D01*
X190730D01*
X192000Y6500D01*
X193270Y6500D01*
X201730D01*
X203000Y6500D01*
X204270Y6500D01*
X212730D01*
X214000Y6500D01*
X215270Y6500D01*
X223730D01*
X225000Y6500D01*
X226270Y6500D01*
X245730D01*
X247000Y6500D01*
X248270Y6500D01*
X256730D01*
X258000Y6500D01*
Y6500D01*
X258000D01*
Y6500D01*
X269000D01*
Y12951D01*
X286944D01*
X296125Y3770D01*
X295599Y2500D01*
X107985D01*
X107499Y3673D01*
X108163Y4337D01*
X108163Y4337D01*
X108826Y5329D01*
X109059Y6500D01*
X109059Y6500D01*
Y34000D01*
X108826Y35171D01*
X108163Y36163D01*
X99596Y44730D01*
X99648Y46000D01*
X102500D01*
Y64000D01*
X90500D01*
Y46000D01*
X92238D01*
X92393Y45770D01*
X91717Y44500D01*
X82000D01*
Y34706D01*
X80827Y34220D01*
X70773Y44273D01*
X70090Y44730D01*
X70475Y46000D01*
X70895D01*
X71886Y46410D01*
X72500Y46000D01*
Y46000D01*
X84500D01*
Y64000D01*
X72500D01*
Y55478D01*
X71444Y54773D01*
X70895Y55000D01*
X69105D01*
X67451Y54315D01*
X66185Y53049D01*
X65500Y51395D01*
Y49605D01*
X66185Y47951D01*
X67451Y46685D01*
X67684Y46589D01*
X67431Y45319D01*
X65545D01*
X65299Y45565D01*
X63645Y46250D01*
X61855D01*
X60201Y45565D01*
X58935Y44299D01*
X58250Y42645D01*
Y40855D01*
X58935Y39201D01*
X60201Y37935D01*
X61855Y37250D01*
X63645D01*
X65299Y37935D01*
X65545Y38181D01*
X66772D01*
X87210Y17743D01*
X86657Y16500D01*
X85355D01*
X84770Y16258D01*
X83500Y17106D01*
Y18500D01*
X72500D01*
Y5500D01*
X83500D01*
X84030Y4922D01*
X84087Y4837D01*
X85251Y3673D01*
X84765Y2500D01*
X51171D01*
X50778Y3708D01*
X52264Y4787D01*
X55213Y7736D01*
X57665Y11111D01*
X59559Y14828D01*
X60848Y18795D01*
X61500Y22914D01*
Y27086D01*
X60848Y31205D01*
X59559Y35173D01*
X57665Y38889D01*
X55213Y42264D01*
X52264Y45213D01*
X48889Y47665D01*
X45173Y49559D01*
X41205Y50848D01*
X37086Y51500D01*
X32914D01*
X28795Y50848D01*
X24827Y49559D01*
X21111Y47665D01*
X17736Y45213D01*
X14787Y42264D01*
X12335Y38889D01*
X10441Y35173D01*
X9153Y31205D01*
X8500Y27086D01*
Y22914D01*
X9153Y18795D01*
X10441Y14828D01*
X12335Y11111D01*
X14787Y7736D01*
X17736Y4787D01*
X19222Y3708D01*
X18829Y2500D01*
X2500D01*
Y67150D01*
X-28400D01*
Y77750D01*
X31624D01*
Y90750D01*
X68000D01*
Y95190D01*
X77500D01*
Y93250D01*
X94500D01*
Y108452D01*
X95750Y108500D01*
X95770Y108500D01*
X104250D01*
Y109929D01*
X105105Y110500D01*
X106895D01*
X108549Y111185D01*
X109815Y112451D01*
X110500Y114105D01*
Y115895D01*
X109815Y117549D01*
X108549Y118815D01*
X106895Y119500D01*
X105105D01*
X104250Y120071D01*
Y121500D01*
X95750D01*
Y112310D01*
X94480Y111664D01*
X93787Y112170D01*
X93750Y112217D01*
Y116500D01*
X94250D01*
Y125500D01*
Y140500D01*
X93500D01*
Y150000D01*
X93060D01*
Y152729D01*
X93048Y152824D01*
X93391Y156311D01*
X94436Y159756D01*
X96133Y162930D01*
X98356Y165639D01*
X98432Y165697D01*
X98742Y166007D01*
X98753Y166021D01*
X100460Y167331D01*
X102464Y168161D01*
X104597Y168442D01*
X104614Y168440D01*
X110500D01*
Y166500D01*
X128815D01*
X129149Y166000D01*
X134000D01*
Y164500D01*
X135500D01*
Y160251D01*
X136549Y160685D01*
X136730Y160866D01*
X138000Y160500D01*
Y160500D01*
X138000Y160500D01*
X143500D01*
Y167500D01*
X146500D01*
Y160500D01*
X152000D01*
Y163227D01*
X153173Y163713D01*
X153201Y163685D01*
X154250Y163251D01*
Y167500D01*
Y171749D01*
X153201Y171315D01*
X153173Y171287D01*
X152000Y171773D01*
Y174500D01*
X148930D01*
X148404Y175770D01*
X148815Y176181D01*
X149249Y177230D01*
X145000D01*
Y180230D01*
X149249D01*
X149249Y180230D01*
X150098Y181500D01*
X152000D01*
Y187000D01*
X145000D01*
Y188500D01*
X143500D01*
Y195500D01*
X138000D01*
Y191294D01*
X136730Y190559D01*
X136270Y190749D01*
Y186500D01*
X134770D01*
Y185000D01*
X129919D01*
X129585Y184500D01*
X110500D01*
Y182560D01*
X104614D01*
Y182608D01*
X100230Y182176D01*
X96014Y180898D01*
X92129Y178821D01*
X89346Y176537D01*
X88724Y176026D01*
D01*
X88422Y175713D01*
X88419Y175710D01*
X87897Y175099D01*
X85107Y171832D01*
X82442Y167484D01*
X80491Y162772D01*
X79300Y157813D01*
X78900Y152729D01*
X78940D01*
Y150000D01*
X78500D01*
Y140500D01*
X77750D01*
Y125500D01*
Y116500D01*
X78250D01*
Y111250D01*
X77500D01*
Y109310D01*
X68000D01*
Y114250D01*
X31624D01*
Y127250D01*
X-28400D01*
Y137850D01*
X2500D01*
Y155376D01*
X7135D01*
X7528Y154106D01*
X6348Y152341D01*
X5882Y150000D01*
X6348Y147659D01*
X7674Y145674D01*
X9659Y144348D01*
X12000Y143883D01*
X23000D01*
X25341Y144348D01*
X27326Y145674D01*
X28652Y147659D01*
X29118Y150000D01*
X28992Y150630D01*
X30039Y151876D01*
X41597D01*
X41895Y152000D01*
X42218D01*
X43321Y152457D01*
X43549Y152685D01*
X43847Y152809D01*
X44691Y153653D01*
X44815Y153951D01*
X45043Y154179D01*
X45500Y155282D01*
Y155605D01*
X45624Y155903D01*
Y159058D01*
X46894Y159183D01*
X46948Y158909D01*
X48274Y156924D01*
X50259Y155598D01*
X52600Y155133D01*
X63600D01*
X65768Y155564D01*
X66259Y155330D01*
X66951Y154746D01*
Y150806D01*
X66194Y150049D01*
X62065D01*
X62065Y150049D01*
X60799Y151315D01*
X59145Y152000D01*
X57355D01*
X55701Y151315D01*
X54435Y150049D01*
X53750Y148395D01*
Y146605D01*
X54435Y144951D01*
X55701Y143685D01*
X57355Y143000D01*
X59145D01*
X60799Y143685D01*
X62065Y144951D01*
X62065Y144951D01*
X67250D01*
X68225Y145145D01*
X69052Y145698D01*
X71302Y147948D01*
X71855Y148774D01*
X72049Y149750D01*
Y153944D01*
X72890Y154785D01*
X73443Y155612D01*
X73636Y156588D01*
Y169032D01*
X80302Y175698D01*
X80855Y176525D01*
X81049Y177500D01*
Y191750D01*
X80855Y192725D01*
X80302Y193552D01*
X78151Y195704D01*
X78530Y197121D01*
X79187Y197297D01*
X81011Y198350D01*
X82501Y199839D01*
X82514Y199862D01*
X83789Y200714D01*
X86287Y203213D01*
X87525Y205065D01*
X87960Y207250D01*
Y216250D01*
X87906Y216518D01*
X88712Y217500D01*
X92250D01*
Y220096D01*
X92855Y220500D01*
X94645D01*
X96299Y221185D01*
X96480Y221366D01*
X97750Y220840D01*
Y217500D01*
X100500D01*
Y225000D01*
X103500D01*
Y217500D01*
X106250D01*
Y220022D01*
X107250Y220690D01*
Y225000D01*
Y229310D01*
X106250Y229978D01*
Y232230D01*
X106250Y232500D01*
X106902Y233500D01*
X107500D01*
Y238750D01*
X95000D01*
Y241750D01*
X107500D01*
Y244999D01*
X108002D01*
Y248500D01*
X117000D01*
Y251941D01*
X118750D01*
Y247500D01*
X127250D01*
Y262500D01*
X118750D01*
Y258059D01*
X117000D01*
Y261500D01*
X115443D01*
X115395Y262750D01*
X117049Y263435D01*
X118315Y264701D01*
X118749Y265750D01*
X110251D01*
X110685Y264701D01*
X111951Y263435D01*
X113605Y262750D01*
X113557Y261500D01*
X108002D01*
Y265000D01*
X107500D01*
Y268250D01*
X95000D01*
X82500D01*
Y265000D01*
X82002D01*
Y245554D01*
X81230Y244929D01*
Y240250D01*
X78230D01*
Y244499D01*
X77181Y244065D01*
X75915Y242799D01*
X75770Y242450D01*
X74500Y242702D01*
Y244145D01*
X73815Y245799D01*
X72549Y247065D01*
X71500Y247499D01*
Y243250D01*
X68500D01*
Y247499D01*
X67451Y247065D01*
X66185Y245799D01*
X65647Y244500D01*
X63500D01*
Y241500D01*
X60500D01*
Y244500D01*
X58823D01*
X58225Y245620D01*
X58752Y246409D01*
X59217Y248750D01*
Y252632D01*
X63599D01*
X65940Y253097D01*
X67925Y254423D01*
X69251Y256408D01*
X69717Y258749D01*
X69251Y261090D01*
X67925Y263075D01*
X65940Y264401D01*
X63599Y264867D01*
X52599D01*
X50258Y264401D01*
X48274Y263075D01*
X46947Y261090D01*
X46894Y260819D01*
X45624Y260944D01*
Y264097D01*
X45500Y264395D01*
Y264718D01*
X45043Y265821D01*
X44815Y266049D01*
X44691Y266347D01*
X43847Y267191D01*
X43549Y267315D01*
X43321Y267543D01*
X42218Y268000D01*
X41895D01*
X41597Y268124D01*
X30039D01*
X28992Y269370D01*
X29118Y270000D01*
X28652Y272341D01*
X27326Y274326D01*
X25341Y275652D01*
X23000Y276118D01*
X12000D01*
X9659Y275652D01*
X7674Y274326D01*
X6348Y272341D01*
X5882Y270000D01*
X6348Y267659D01*
X7528Y265894D01*
X7135Y264624D01*
X2500D01*
Y277500D01*
X81848D01*
X82500Y276500D01*
X82500Y276230D01*
Y271250D01*
X95000D01*
X107500D01*
Y276230D01*
X107500Y276500D01*
X108152Y277500D01*
X172331D01*
X172486Y276244D01*
D02*
G37*
G36*
X253500Y276250D02*
X253500Y276230D01*
Y267750D01*
X266500D01*
Y268941D01*
X272500D01*
Y267750D01*
X279428D01*
X279756Y267209D01*
X279904Y266480D01*
X277837Y264413D01*
X277174Y263421D01*
X276941Y262250D01*
X276941Y262250D01*
X272500D01*
Y253750D01*
X287500D01*
Y261441D01*
X293500D01*
Y253750D01*
X297451D01*
Y251750D01*
X297474Y251635D01*
X297340Y251373D01*
X296417Y250500D01*
X295105D01*
X293451Y249815D01*
X292185Y248549D01*
X291751Y247500D01*
X296000D01*
Y244500D01*
X291751D01*
X292033Y243819D01*
X291428Y242549D01*
X275572D01*
X274967Y243819D01*
X275249Y244500D01*
X266751D01*
X267033Y243819D01*
X266428Y242549D01*
X262549D01*
Y253750D01*
X266500D01*
Y262250D01*
X253500D01*
Y253750D01*
X257451D01*
Y242549D01*
X250572D01*
X249967Y243819D01*
X250249Y244500D01*
X246000D01*
Y247500D01*
X250249D01*
X249815Y248549D01*
X248549Y249815D01*
X246895Y250500D01*
X245673D01*
X245076Y250553D01*
X244500Y251624D01*
Y252395D01*
X244376Y252694D01*
X245082Y253750D01*
X247500D01*
Y262250D01*
X232500D01*
Y253750D01*
X234918D01*
X235624Y252694D01*
X235500Y252395D01*
Y250605D01*
X236185Y248951D01*
X237451Y247685D01*
X239105Y247000D01*
X240327D01*
X240924Y246947D01*
X241500Y245876D01*
Y245105D01*
X242033Y243819D01*
X241428Y242549D01*
X207687D01*
X206500Y242750D01*
Y251250D01*
X194326D01*
X193096Y252480D01*
X193622Y253750D01*
X207500D01*
X207500Y253750D01*
X208605Y253500D01*
X208666Y253500D01*
X210395D01*
X211230Y253846D01*
X212500Y253750D01*
X212500Y253750D01*
X212500Y253750D01*
X215349D01*
X215846Y252480D01*
X215500Y251645D01*
Y249855D01*
X216185Y248201D01*
X217451Y246935D01*
X219105Y246250D01*
X220895D01*
X222549Y246935D01*
X223815Y248201D01*
X224500Y249855D01*
Y251645D01*
X224154Y252480D01*
X224651Y253750D01*
X227500D01*
Y262250D01*
X212500D01*
X212500Y262250D01*
Y262250D01*
X211230Y262154D01*
X210395Y262500D01*
X208666D01*
X208605Y262500D01*
X207500Y262250D01*
X207500Y262250D01*
X204273D01*
X203787Y263423D01*
X203815Y263451D01*
X204500Y265105D01*
Y266895D01*
X205071Y267750D01*
X207500D01*
Y268941D01*
X212500D01*
Y267750D01*
X227500D01*
Y268941D01*
X232500D01*
Y267750D01*
X247500D01*
Y276230D01*
X247500Y276250D01*
X247548Y277500D01*
X253452D01*
X253500Y276250D01*
D02*
G37*
G36*
X192500D02*
X192500Y276230D01*
Y267750D01*
X194929D01*
X195500Y266895D01*
Y265105D01*
X196185Y263451D01*
X196213Y263423D01*
X195727Y262250D01*
X192500D01*
Y254872D01*
X191230Y254346D01*
X187500Y258076D01*
Y262250D01*
X172500D01*
Y253750D01*
X174230D01*
X175500Y253750D01*
Y250217D01*
X174444Y249511D01*
X174205Y249610D01*
X172415D01*
X170761Y248925D01*
X169495Y247659D01*
X168503Y248326D01*
X167277Y249552D01*
X166451Y250105D01*
X165475Y250299D01*
X164750D01*
Y260924D01*
X171847Y268021D01*
X172500Y267750D01*
Y267750D01*
X187500D01*
Y276250D01*
X187500D01*
X187548Y277500D01*
X192452D01*
X192500Y276250D01*
D02*
G37*
G36*
X333500Y253750D02*
X337451D01*
Y248450D01*
X336181Y247924D01*
X335052Y249052D01*
X334226Y249605D01*
X333250Y249799D01*
X305556D01*
X302875Y252480D01*
X303335Y253750D01*
X306500D01*
Y261441D01*
X312500D01*
Y253750D01*
X327500D01*
Y261441D01*
X333500D01*
Y253750D01*
D02*
G37*
G36*
X352500D02*
X356941D01*
Y243017D01*
X352637Y238713D01*
X351974Y237721D01*
X351741Y236550D01*
X351741Y236550D01*
Y234516D01*
X350009Y233798D01*
X348025Y232276D01*
X347569Y231682D01*
X346299Y232113D01*
Y244000D01*
X346105Y244975D01*
X345552Y245802D01*
X342549Y248806D01*
Y253750D01*
X346500D01*
Y261441D01*
X352500D01*
Y253750D01*
D02*
G37*
G36*
X647500Y2500D02*
X409651D01*
X409125Y3770D01*
X444802Y39448D01*
X445355Y40275D01*
X445549Y41250D01*
Y49656D01*
X446819Y49909D01*
X446902Y49709D01*
X448425Y47724D01*
X450409Y46202D01*
X452720Y45244D01*
X455200Y44918D01*
X457680Y45244D01*
X459991Y46202D01*
X461976Y47724D01*
X463498Y49709D01*
X464455Y52020D01*
X464782Y54500D01*
Y55500D01*
X464455Y57980D01*
X463498Y60291D01*
X461976Y62275D01*
X459991Y63798D01*
X457680Y64755D01*
X455200Y65082D01*
X452720Y64755D01*
X450409Y63798D01*
X448425Y62275D01*
X446902Y60291D01*
X446819Y60091D01*
X445549Y60344D01*
Y71250D01*
X445355Y72225D01*
X444802Y73052D01*
X435552Y82302D01*
X434725Y82855D01*
X433750Y83049D01*
X409255D01*
X401799Y90506D01*
Y121397D01*
X402355Y122500D01*
X404145D01*
X405799Y123185D01*
X407065Y124451D01*
X407750Y126105D01*
Y127895D01*
X407065Y129549D01*
X405799Y130815D01*
X404145Y131500D01*
X402355D01*
X400701Y130815D01*
X399569Y129683D01*
X398941Y129776D01*
X398299Y130072D01*
Y133685D01*
X398299Y133685D01*
X399565Y134951D01*
X400250Y136605D01*
Y138395D01*
X399565Y140049D01*
X398299Y141315D01*
X396645Y142000D01*
X394855D01*
X393201Y141315D01*
X391935Y140049D01*
X391250Y138395D01*
Y136605D01*
X391935Y134951D01*
X393201Y133685D01*
X393201Y133685D01*
Y88000D01*
X393395Y87024D01*
X393948Y86198D01*
X404948Y75198D01*
X405775Y74645D01*
X406750Y74451D01*
X407979D01*
X408231Y73181D01*
X407951Y73065D01*
X406685Y71799D01*
X406000Y70145D01*
Y69651D01*
X404730Y69125D01*
X402269Y71585D01*
X401442Y72138D01*
X400467Y72332D01*
X384034D01*
X384034Y72332D01*
X382768Y73598D01*
X381115Y74283D01*
X379324D01*
X379056Y74172D01*
X378000Y74878D01*
Y81250D01*
X357000D01*
Y78799D01*
X355000D01*
X354025Y78605D01*
X353198Y78052D01*
X349698Y74552D01*
X349319Y73986D01*
X348049Y74229D01*
Y76000D01*
X347855Y76975D01*
X347302Y77802D01*
X343299Y81806D01*
Y141332D01*
X344569Y141585D01*
X344935Y140701D01*
X346201Y139435D01*
X347855Y138750D01*
X349645D01*
X349645Y138750D01*
X351448Y136948D01*
X352275Y136395D01*
X353250Y136201D01*
X357000D01*
Y133750D01*
X378000D01*
Y143750D01*
X357000D01*
Y141299D01*
X354306D01*
X353250Y142355D01*
X353250Y142355D01*
Y144145D01*
X352565Y145799D01*
X351299Y147065D01*
X349645Y147750D01*
X347855D01*
X346201Y147065D01*
X344935Y145799D01*
X344569Y144915D01*
X343299Y145168D01*
Y171944D01*
X356802Y185448D01*
X357355Y186275D01*
X357549Y187250D01*
Y208000D01*
X357355Y208976D01*
X356802Y209802D01*
X352690Y213915D01*
X353283Y215118D01*
X354800Y214918D01*
X357280Y215245D01*
X359591Y216202D01*
X361576Y217725D01*
X363098Y219709D01*
X364055Y222020D01*
X364382Y224500D01*
Y225500D01*
X364055Y227980D01*
X363098Y230291D01*
X361576Y232276D01*
X359591Y233798D01*
X358466Y234264D01*
X358265Y235689D01*
X362163Y239587D01*
X362163Y239587D01*
X362826Y240579D01*
X363059Y241750D01*
Y253750D01*
X367500D01*
Y261441D01*
X373500D01*
Y253750D01*
X375099D01*
X375742Y252480D01*
X375500Y251895D01*
Y250105D01*
X375911Y249112D01*
X374815Y248549D01*
X374434Y248930D01*
X373549Y249815D01*
X372500Y250249D01*
Y247500D01*
X375249D01*
X375089Y247888D01*
X376185Y248451D01*
X376566Y248070D01*
X377451Y247185D01*
X379105Y246500D01*
X380895D01*
X382549Y247185D01*
X383815Y248451D01*
X384500Y250105D01*
Y251895D01*
X384258Y252480D01*
X384901Y253750D01*
X386500D01*
Y261441D01*
X392500D01*
Y253750D01*
X395977D01*
X396463Y252577D01*
X396435Y252549D01*
X395750Y250895D01*
Y249105D01*
X396435Y247451D01*
X397701Y246185D01*
X399355Y245500D01*
X401145D01*
X402799Y246185D01*
X404065Y247451D01*
X404750Y249105D01*
Y250895D01*
X404065Y252549D01*
X404037Y252577D01*
X404523Y253750D01*
X407500D01*
Y262250D01*
X403059D01*
Y262500D01*
X402826Y263671D01*
X402163Y264663D01*
X400346Y266480D01*
X400494Y267210D01*
X400822Y267750D01*
X407500D01*
Y276230D01*
X407500Y276250D01*
X407548Y277500D01*
X413452D01*
X413500Y276250D01*
X413500Y276230D01*
Y267750D01*
X415022D01*
X415727Y266694D01*
X415500Y266145D01*
Y264355D01*
X415846Y263520D01*
X414997Y262250D01*
X413500D01*
Y253750D01*
X426500D01*
Y254047D01*
X427889D01*
X428605Y253750D01*
X430395D01*
X431230Y254096D01*
X432500Y253750D01*
Y253750D01*
X432500Y253750D01*
X434894D01*
X435742Y252480D01*
X435500Y251895D01*
Y250105D01*
X436185Y248451D01*
X437451Y247185D01*
X439105Y246500D01*
X440895D01*
X442549Y247185D01*
X443815Y248451D01*
X444500Y250105D01*
Y251895D01*
X444258Y252480D01*
X445106Y253750D01*
X447500D01*
Y262250D01*
X432500D01*
X432500Y262250D01*
X431284Y262382D01*
X430395Y262750D01*
X428605D01*
X427715Y262382D01*
X426500Y262250D01*
X426500Y262250D01*
X426500Y262250D01*
X425003D01*
X424154Y263520D01*
X424500Y264355D01*
Y266145D01*
X424273Y266694D01*
X424978Y267750D01*
X426500D01*
Y268941D01*
X432500D01*
Y267750D01*
X447500D01*
Y276230D01*
X447500Y276250D01*
X447548Y277500D01*
X598829D01*
X599222Y276292D01*
X597736Y275213D01*
X594787Y272264D01*
X592335Y268889D01*
X590442Y265173D01*
X589152Y261205D01*
X588500Y257086D01*
Y252914D01*
X589152Y248795D01*
X590442Y244827D01*
X592335Y241111D01*
X594787Y237736D01*
X597736Y234787D01*
X601111Y232335D01*
X604827Y230441D01*
X608795Y229153D01*
X612914Y228500D01*
X617086D01*
X621205Y229153D01*
X625173Y230441D01*
X628889Y232335D01*
X632264Y234787D01*
X635213Y237736D01*
X637665Y241111D01*
X639558Y244827D01*
X640847Y248795D01*
X641500Y252914D01*
Y257086D01*
X640847Y261205D01*
X639558Y265173D01*
X637665Y268889D01*
X635213Y272264D01*
X632264Y275213D01*
X630778Y276292D01*
X631171Y277500D01*
X647500D01*
Y2500D01*
D02*
G37*
G36*
X302698Y245448D02*
X303524Y244895D01*
X304500Y244701D01*
X321727D01*
X322575Y243431D01*
X322250Y242645D01*
Y240855D01*
X322935Y239201D01*
X324201Y237935D01*
X325855Y237250D01*
X327645D01*
X327645Y237250D01*
X328625Y236270D01*
X328099Y235000D01*
X321700D01*
Y225000D01*
X318700D01*
Y235000D01*
X310700D01*
Y235000D01*
X309682Y235608D01*
X309552Y235802D01*
X303552Y241802D01*
X302726Y242355D01*
X301750Y242549D01*
X300572D01*
X299967Y243819D01*
X300500Y245105D01*
Y245849D01*
X301770Y246375D01*
X302698Y245448D01*
D02*
G37*
G36*
X193500Y237250D02*
Y234500D01*
X200000D01*
Y231500D01*
X193500D01*
Y229164D01*
X193255Y228919D01*
X192821Y227870D01*
X197070D01*
Y224870D01*
X192821D01*
X192862Y224770D01*
X192013Y223500D01*
X190730Y223500D01*
X182270D01*
X181000Y223500D01*
X179730Y223500D01*
X171651D01*
X171125Y224770D01*
X172605Y226250D01*
X178000D01*
Y235250D01*
X177701D01*
X177175Y236520D01*
X178106Y237451D01*
X192313D01*
X193500Y237250D01*
D02*
G37*
G36*
X320500Y208250D02*
Y189250D01*
X345500D01*
Y206236D01*
X346673Y206722D01*
X348201Y205194D01*
Y190056D01*
X335448Y177302D01*
X335419Y177260D01*
X334071Y177528D01*
X333890Y178439D01*
X333006Y179762D01*
X333006Y179762D01*
X328737Y184031D01*
X328315Y185049D01*
X327049Y186315D01*
X325395Y187000D01*
X323605D01*
X321951Y186315D01*
X320685Y185049D01*
X320000Y183395D01*
Y181605D01*
X320685Y179951D01*
X321951Y178685D01*
X322969Y178263D01*
X326044Y175189D01*
Y159541D01*
X325886Y159159D01*
X322055Y155328D01*
X315500D01*
Y156250D01*
X294500D01*
Y149123D01*
X293230Y148597D01*
X288779Y153048D01*
Y158698D01*
X290049Y159438D01*
X290500Y159251D01*
Y163500D01*
Y167749D01*
X290049Y167563D01*
X288779Y168302D01*
Y171227D01*
X290049Y172076D01*
X290230Y172001D01*
Y176250D01*
Y180499D01*
X290049Y180425D01*
X288779Y181273D01*
Y190924D01*
X307056Y209201D01*
X319730D01*
X320500Y208250D01*
D02*
G37*
G36*
X334701Y154047D02*
Y94806D01*
X331448Y91552D01*
X330895Y90725D01*
X330701Y89750D01*
Y61315D01*
X330701Y61315D01*
X329435Y60049D01*
X328750Y58395D01*
Y56605D01*
X329435Y54951D01*
X330701Y53685D01*
X332355Y53000D01*
X334145D01*
X335799Y53685D01*
X337065Y54951D01*
X337750Y56605D01*
Y58395D01*
X337065Y60049D01*
X335799Y61315D01*
X335799Y61315D01*
Y88694D01*
X337028Y89923D01*
X338201Y89437D01*
Y80750D01*
X338395Y79774D01*
X338948Y78948D01*
X342951Y74944D01*
Y58000D01*
X343145Y57024D01*
X343698Y56198D01*
X347201Y52694D01*
Y42080D01*
X346770Y41776D01*
X345500Y42435D01*
Y50750D01*
X320500D01*
Y31750D01*
X319413Y31309D01*
X305017D01*
X296096Y40230D01*
X296622Y41500D01*
X296895D01*
X298549Y42185D01*
X299815Y43451D01*
X300249Y44500D01*
X296000D01*
Y46000D01*
X294500D01*
Y50249D01*
X293451Y49815D01*
X292185Y48549D01*
X291544Y47001D01*
X290817Y46692D01*
X290269Y46529D01*
X289559Y47084D01*
Y65500D01*
X289559Y65500D01*
X289326Y66670D01*
X288663Y67663D01*
X288663Y67663D01*
X286417Y69909D01*
X286502Y70338D01*
X286709Y70522D01*
X287927Y70988D01*
X289105Y70500D01*
X290895D01*
X292549Y71185D01*
X293230Y71866D01*
X294500Y71340D01*
Y71250D01*
X311895D01*
X313222Y69923D01*
X312736Y68750D01*
X294500D01*
Y58750D01*
X302451D01*
Y46250D01*
X302645Y45275D01*
X303198Y44448D01*
X309250Y38395D01*
X309250Y38395D01*
Y36605D01*
X309935Y34951D01*
X311201Y33685D01*
X312855Y33000D01*
X314645D01*
X316299Y33685D01*
X317565Y34951D01*
X318250Y36605D01*
Y38395D01*
X317565Y40049D01*
X316299Y41315D01*
X314645Y42000D01*
X312855D01*
X312855Y42000D01*
X307549Y47306D01*
Y58750D01*
X314513D01*
X314750Y58395D01*
Y56605D01*
X315435Y54951D01*
X316701Y53685D01*
X318355Y53000D01*
X320145D01*
X321799Y53685D01*
X323065Y54951D01*
X323750Y56605D01*
Y58395D01*
X323065Y60049D01*
X321799Y61315D01*
X321799Y61315D01*
Y67500D01*
X321605Y68475D01*
X321052Y69302D01*
X318625Y71730D01*
X319151Y73000D01*
X320395D01*
X322049Y73685D01*
X323315Y74951D01*
X324000Y76605D01*
Y78395D01*
X323315Y80049D01*
X322049Y81315D01*
X322049Y81315D01*
Y86500D01*
X321855Y87476D01*
X321302Y88302D01*
X319052Y90552D01*
X318225Y91105D01*
X317250Y91299D01*
X316398D01*
X315500Y92197D01*
X315500Y92753D01*
Y92768D01*
D01*
X315500Y93090D01*
X316701Y93685D01*
X318355Y93000D01*
X320145D01*
X321799Y93685D01*
X323065Y94951D01*
X323750Y96605D01*
Y98395D01*
X323065Y100049D01*
X321799Y101315D01*
X320145Y102000D01*
X318355D01*
X318355Y102000D01*
X317302Y103052D01*
X316476Y103605D01*
X315500Y103799D01*
Y106250D01*
X294500D01*
Y96250D01*
X314897D01*
X315435Y94951D01*
X314840Y93750D01*
X314519Y93750D01*
X314519Y93750D01*
X314503Y93750D01*
X294500D01*
X294500Y93750D01*
Y93750D01*
X293401Y94202D01*
X291049Y96554D01*
Y136437D01*
X292319Y136814D01*
X292946Y136395D01*
X293922Y136201D01*
X294500D01*
Y133750D01*
X315500D01*
Y143750D01*
X294549D01*
Y145218D01*
X294549Y146222D01*
X294572Y146250D01*
X315500Y146250D01*
Y147172D01*
X323744D01*
X323744Y147172D01*
X325305Y147482D01*
X326628Y148366D01*
X331653Y153392D01*
X332671Y153813D01*
X333431Y154573D01*
X334701Y154047D01*
D02*
G37*
G36*
X407826Y58819D02*
Y50750D01*
X383000D01*
Y31750D01*
X397840D01*
X398366Y30480D01*
X398185Y30299D01*
X397500Y28645D01*
Y26855D01*
X397977Y25704D01*
X397293Y24434D01*
X372457D01*
X371627Y25704D01*
X372000Y26605D01*
Y28395D01*
X371315Y30049D01*
X370049Y31315D01*
X370049Y31315D01*
Y58750D01*
X378000D01*
Y64689D01*
X379056Y65394D01*
X379324Y65283D01*
X381115D01*
X382768Y65968D01*
X384034Y67234D01*
X384034Y67234D01*
X399411D01*
X407826Y58819D01*
D02*
G37*
G36*
X440451Y70194D02*
Y65287D01*
X439300Y65000D01*
Y65000D01*
X420924D01*
Y71625D01*
X420730Y72600D01*
X420177Y73427D01*
X416827Y76778D01*
X417313Y77951D01*
X432694D01*
X440451Y70194D01*
D02*
G37*
G36*
X364951Y31315D02*
X364951Y31315D01*
X363685Y30049D01*
X363000Y28395D01*
Y26605D01*
X363373Y25704D01*
X362543Y24434D01*
X355142D01*
X349163Y30413D01*
X348171Y31076D01*
X347000Y31309D01*
X347000Y31309D01*
X346587D01*
X345500Y31750D01*
Y33590D01*
X346770Y34116D01*
X347201Y33685D01*
X348855Y33000D01*
X350645D01*
X352299Y33685D01*
X353565Y34951D01*
X354250Y36605D01*
Y38395D01*
X353565Y40049D01*
X352299Y41315D01*
X352299Y41315D01*
Y52328D01*
X353569Y52999D01*
X354000Y52704D01*
Y51605D01*
X354685Y49951D01*
X355951Y48685D01*
X357605Y48000D01*
X359395D01*
X361049Y48685D01*
X362315Y49951D01*
X363000Y51605D01*
Y53395D01*
X362315Y55049D01*
X361049Y56315D01*
X359395Y57000D01*
X358301D01*
X357947Y57480D01*
X358588Y58750D01*
X364951D01*
Y31315D01*
D02*
G37*
G36*
X439300Y45000D02*
X440451Y44713D01*
Y42306D01*
X422194Y24049D01*
X420924Y24575D01*
Y45000D01*
X439300D01*
Y45000D01*
D02*
G37*
G36*
X351712Y19212D02*
X351712Y19212D01*
X352705Y18549D01*
X353875Y18316D01*
X353875Y18316D01*
X407751D01*
X408277Y17046D01*
X402030Y10799D01*
X336709D01*
X336183Y12069D01*
X336565Y12451D01*
X337250Y14105D01*
Y14168D01*
X338306Y14874D01*
X338605Y14750D01*
X340395D01*
X342049Y15435D01*
X343315Y16701D01*
X344000Y18355D01*
Y20145D01*
X343315Y21799D01*
X342049Y23065D01*
X340395Y23750D01*
X338856D01*
X338651Y23921D01*
X339113Y25191D01*
X345733D01*
X351712Y19212D01*
D02*
G37*
%LPC*%
G36*
X144000Y274750D02*
X141500D01*
Y271500D01*
X144000D01*
Y274750D01*
D02*
G37*
G36*
X132000Y271749D02*
Y269000D01*
X134749D01*
X134315Y270049D01*
X133049Y271315D01*
X132000Y271749D01*
D02*
G37*
G36*
X129000D02*
X127951Y271315D01*
X126685Y270049D01*
X126251Y269000D01*
X129000D01*
Y271749D01*
D02*
G37*
G36*
X116000Y271499D02*
Y268750D01*
X118749D01*
X118315Y269799D01*
X117049Y271065D01*
X116000Y271499D01*
D02*
G37*
G36*
X113000D02*
X111951Y271065D01*
X110685Y269799D01*
X110251Y268750D01*
X113000D01*
Y271499D01*
D02*
G37*
G36*
X144000Y268500D02*
X141500D01*
Y265250D01*
X144000D01*
Y268500D01*
D02*
G37*
G36*
X129000Y266000D02*
X126251D01*
X126685Y264951D01*
X127951Y263685D01*
X129000Y263251D01*
Y266000D01*
D02*
G37*
G36*
X123000Y241499D02*
Y238750D01*
X125749D01*
X125315Y239799D01*
X124049Y241065D01*
X123000Y241499D01*
D02*
G37*
G36*
X120000D02*
X118951Y241065D01*
X117685Y239799D01*
X117251Y238750D01*
X120000D01*
Y241499D01*
D02*
G37*
G36*
X125749Y235750D02*
X123000D01*
Y233001D01*
X124049Y233435D01*
X125315Y234701D01*
X125749Y235750D01*
D02*
G37*
G36*
X120000D02*
X117251D01*
X117685Y234701D01*
X118951Y233435D01*
X120000Y233001D01*
Y235750D01*
D02*
G37*
G36*
X110250Y229249D02*
Y226500D01*
X112999D01*
X112565Y227549D01*
X111299Y228815D01*
X110250Y229249D01*
D02*
G37*
G36*
X112999Y223500D02*
X110250D01*
Y220751D01*
X111299Y221185D01*
X112565Y222451D01*
X112999Y223500D01*
D02*
G37*
G36*
X201749Y201500D02*
X199000D01*
Y198751D01*
X200049Y199185D01*
X201315Y200451D01*
X201749Y201500D01*
D02*
G37*
G36*
X196000D02*
X193251D01*
X193685Y200451D01*
X194951Y199185D01*
X196000Y198751D01*
Y201500D01*
D02*
G37*
G36*
X122500Y200249D02*
Y197500D01*
X125249D01*
X124815Y198549D01*
X123549Y199815D01*
X122500Y200249D01*
D02*
G37*
G36*
X119500D02*
X118451Y199815D01*
X117185Y198549D01*
X116751Y197500D01*
X119500D01*
Y200249D01*
D02*
G37*
G36*
X91000Y195499D02*
Y192750D01*
X93749D01*
X93315Y193799D01*
X92049Y195065D01*
X91000Y195499D01*
D02*
G37*
G36*
X88000D02*
X86951Y195065D01*
X85685Y193799D01*
X85251Y192750D01*
X88000D01*
Y195499D01*
D02*
G37*
G36*
X248500Y195500D02*
X243000D01*
Y193598D01*
X241730Y192749D01*
X241730Y192749D01*
Y188500D01*
Y184251D01*
X241730Y184251D01*
X243000Y183402D01*
Y181500D01*
X248500D01*
Y188500D01*
Y195500D01*
D02*
G37*
G36*
X125249Y194500D02*
X122500D01*
Y191751D01*
X123549Y192185D01*
X124815Y193451D01*
X125249Y194500D01*
D02*
G37*
G36*
X119500D02*
X116751D01*
X117185Y193451D01*
X118451Y192185D01*
X119500Y191751D01*
Y194500D01*
D02*
G37*
G36*
X227500Y195500D02*
X222000D01*
Y190000D01*
X227500D01*
Y195500D01*
D02*
G37*
G36*
X215000D02*
X209500D01*
Y190000D01*
X215000D01*
Y195500D01*
D02*
G37*
G36*
X206500D02*
X201000D01*
Y190000D01*
X206500D01*
Y195500D01*
D02*
G37*
G36*
X194000D02*
X188500D01*
Y190000D01*
X194000D01*
Y195500D01*
D02*
G37*
G36*
X185500D02*
X180000D01*
Y190000D01*
X185500D01*
Y195500D01*
D02*
G37*
G36*
X173000D02*
X167500D01*
Y190000D01*
X173000D01*
Y195500D01*
D02*
G37*
G36*
X164500D02*
X159000D01*
Y190000D01*
X164500D01*
Y195500D01*
D02*
G37*
G36*
X152000D02*
X146500D01*
Y190000D01*
X152000D01*
Y195500D01*
D02*
G37*
G36*
X133270Y190749D02*
X132221Y190315D01*
X130955Y189049D01*
X130521Y188000D01*
X133270D01*
Y190749D01*
D02*
G37*
G36*
X93749Y189750D02*
X91000D01*
Y187001D01*
X92049Y187435D01*
X93315Y188701D01*
X93749Y189750D01*
D02*
G37*
G36*
X88000D02*
X85251D01*
X85685Y188701D01*
X86951Y187435D01*
X88000Y187001D01*
Y189750D01*
D02*
G37*
G36*
X257000Y195500D02*
X251500D01*
Y188500D01*
Y181500D01*
X257000D01*
Y184727D01*
X258173Y185213D01*
X258201Y185185D01*
X259250Y184751D01*
Y189000D01*
Y193249D01*
X258201Y192815D01*
X258173Y192787D01*
X257000Y193273D01*
Y195500D01*
D02*
G37*
G36*
X236000D02*
X230500D01*
Y188500D01*
Y181500D01*
X236000D01*
Y184570D01*
X237270Y185096D01*
X237681Y184685D01*
X238730Y184251D01*
Y188500D01*
Y192749D01*
X237681Y192315D01*
X237270Y191904D01*
X236000Y192430D01*
Y195500D01*
D02*
G37*
G36*
X227500Y187000D02*
X222000D01*
Y181500D01*
X227500D01*
Y187000D01*
D02*
G37*
G36*
X215000D02*
X201000D01*
Y181500D01*
X202902D01*
X203751Y180230D01*
X203751Y180230D01*
X212250D01*
X212249Y180230D01*
X213098Y181500D01*
X215000D01*
Y187000D01*
D02*
G37*
G36*
X194000D02*
X180000D01*
Y181500D01*
X181902D01*
X182751Y180230D01*
X182750Y180230D01*
X191249D01*
X191249Y180230D01*
X192098Y181500D01*
X194000D01*
Y187000D01*
D02*
G37*
G36*
X173000D02*
X159000D01*
Y181500D01*
X160902D01*
X161751Y180230D01*
X161751Y180230D01*
X170250D01*
X170249Y180230D01*
X171098Y181500D01*
X173000D01*
Y187000D01*
D02*
G37*
G36*
X170250Y177230D02*
X161751D01*
X162185Y176181D01*
X162596Y175770D01*
X162070Y174500D01*
X159000D01*
Y172273D01*
X157730Y171551D01*
X157250Y171749D01*
Y167500D01*
Y163251D01*
X157730Y163449D01*
X159000Y162727D01*
Y160500D01*
X160902D01*
X161751Y159230D01*
X161751Y159230D01*
X170250D01*
X170250Y159230D01*
X171098Y160500D01*
X173000D01*
Y166000D01*
X166000D01*
Y169000D01*
X173000D01*
Y174500D01*
X169930D01*
X169405Y175770D01*
X169815Y176181D01*
X170250Y177230D01*
D02*
G37*
G36*
X248500Y174500D02*
X243000D01*
Y169000D01*
X248500D01*
Y174500D01*
D02*
G37*
G36*
X236000D02*
X230500D01*
Y169000D01*
X236000D01*
Y174500D01*
D02*
G37*
G36*
X227500D02*
X222000D01*
Y169000D01*
X227500D01*
Y174500D01*
D02*
G37*
G36*
X212250Y177230D02*
X203751D01*
X204185Y176181D01*
X204596Y175770D01*
X204070Y174500D01*
X201000D01*
Y169000D01*
X215000D01*
Y174500D01*
X211930D01*
X211404Y175770D01*
X211815Y176181D01*
X212250Y177230D01*
D02*
G37*
G36*
X191249D02*
X182750D01*
X183185Y176181D01*
X183596Y175770D01*
X183069Y174500D01*
X180000D01*
Y169000D01*
X194000D01*
Y174500D01*
X190930D01*
X190404Y175770D01*
X190815Y176181D01*
X191249Y177230D01*
D02*
G37*
G36*
X248500Y166000D02*
X243000D01*
Y160500D01*
X248500D01*
Y166000D01*
D02*
G37*
G36*
X236000D02*
X230500D01*
Y160500D01*
X236000D01*
Y166000D01*
D02*
G37*
G36*
X227500D02*
X222000D01*
Y160500D01*
X227500D01*
Y166000D01*
D02*
G37*
G36*
X132500Y163000D02*
X129751D01*
X130185Y161951D01*
X131451Y160685D01*
X132500Y160251D01*
Y163000D01*
D02*
G37*
G36*
X215000Y166000D02*
X201000D01*
Y160500D01*
X202902D01*
X203751Y159230D01*
X203751Y159230D01*
X212250D01*
X212250Y159230D01*
X213098Y160500D01*
X215000D01*
Y166000D01*
D02*
G37*
G36*
X194000D02*
X180000D01*
Y160500D01*
X181902D01*
X182750Y159230D01*
X182750Y159230D01*
X191249D01*
X191249Y159230D01*
X192098Y160500D01*
X194000D01*
Y166000D01*
D02*
G37*
G36*
X248500Y153500D02*
X243000D01*
Y148000D01*
X248500D01*
Y153500D01*
D02*
G37*
G36*
X236000D02*
X230500D01*
Y148000D01*
X236000D01*
Y153500D01*
D02*
G37*
G36*
X191249Y156230D02*
X182750D01*
X183185Y155181D01*
X183596Y154770D01*
X183070Y153500D01*
X180000D01*
Y148000D01*
X194000D01*
Y153500D01*
X190930D01*
X190404Y154770D01*
X190815Y155181D01*
X191249Y156230D01*
D02*
G37*
G36*
X170250D02*
X161751D01*
X162185Y155181D01*
X162596Y154770D01*
X162070Y153500D01*
X159000D01*
Y148000D01*
X173000D01*
Y153500D01*
X169930D01*
X169404Y154770D01*
X169815Y155181D01*
X170250Y156230D01*
D02*
G37*
G36*
X152000Y153500D02*
X146500D01*
Y148000D01*
X152000D01*
Y153500D01*
D02*
G37*
G36*
X43000Y145499D02*
X41951Y145065D01*
X41042Y144156D01*
X40250Y143926D01*
X39458Y144156D01*
X38549Y145065D01*
X37500Y145499D01*
Y141250D01*
Y137850D01*
X38964D01*
X39458Y138344D01*
X40250Y138574D01*
X41042Y138344D01*
X41536Y137850D01*
X43000D01*
Y141250D01*
Y145499D01*
D02*
G37*
G36*
X46000D02*
Y142750D01*
X48749D01*
X48315Y143799D01*
X47049Y145065D01*
X46000Y145499D01*
D02*
G37*
G36*
X34500D02*
X33451Y145065D01*
X32185Y143799D01*
X31751Y142750D01*
X34500D01*
Y145499D01*
D02*
G37*
G36*
X257000Y145000D02*
X251500D01*
Y139500D01*
X257000D01*
Y145000D01*
D02*
G37*
G36*
X248500D02*
X243000D01*
Y139500D01*
X248500D01*
Y145000D01*
D02*
G37*
G36*
X152000D02*
X146500D01*
Y139500D01*
X152000D01*
Y145000D01*
D02*
G37*
G36*
X132000Y159000D02*
X114000D01*
Y149270D01*
X114000Y148000D01*
X114000D01*
Y148000D01*
X114000D01*
Y138270D01*
X114000Y137000D01*
X114000Y135730D01*
Y127270D01*
X114000Y126000D01*
X114000D01*
Y126000D01*
X114000D01*
Y115000D01*
Y105270D01*
X114000Y104000D01*
X114000Y102730D01*
Y94270D01*
X114000Y93000D01*
X114000Y91730D01*
Y83270D01*
X114000Y82000D01*
X114000Y80730D01*
Y72270D01*
X114000Y71000D01*
D01*
Y71000D01*
X113198Y70062D01*
X112730Y69749D01*
X112730Y69749D01*
Y65500D01*
Y61251D01*
X112730Y61251D01*
X114000Y60402D01*
X114000Y58730D01*
X114000Y48598D01*
X112730Y47749D01*
X112730Y47750D01*
Y43500D01*
Y39251D01*
X112730Y39251D01*
X114000Y38402D01*
Y38000D01*
X121500D01*
Y43500D01*
X123000D01*
Y45000D01*
X132000D01*
Y47730D01*
X132000Y49000D01*
X132000Y50270D01*
Y58730D01*
X132000Y60000D01*
X132000Y61270D01*
Y64000D01*
X123000D01*
Y67000D01*
X132000D01*
Y67840D01*
X133270Y68366D01*
X133451Y68185D01*
X134500Y67751D01*
Y72000D01*
Y76249D01*
X133451Y75815D01*
X133270Y75634D01*
X132000Y76160D01*
X132000Y82000D01*
X132000Y83270D01*
Y91730D01*
X132000Y93000D01*
X132000Y94270D01*
Y102730D01*
X132000Y104000D01*
X132000Y105270D01*
Y115429D01*
X132855Y116000D01*
X134645D01*
X136299Y116685D01*
X137565Y117951D01*
X137607Y118052D01*
X138000Y118500D01*
X143500D01*
Y125500D01*
Y132500D01*
X138707D01*
X138065Y134049D01*
X136799Y135315D01*
X135145Y136000D01*
X133711D01*
X132723Y136781D01*
X132576Y136963D01*
X133105Y138000D01*
X134895D01*
X136549Y138685D01*
X136916Y139052D01*
X138000Y139500D01*
X138000Y139500D01*
Y139500D01*
X138000Y139500D01*
X143500D01*
Y146500D01*
Y153500D01*
X138500D01*
Y154395D01*
X137815Y156049D01*
X136549Y157315D01*
X134895Y158000D01*
X133105D01*
X133056Y157980D01*
X132000Y158685D01*
Y159000D01*
D02*
G37*
G36*
X194000Y145000D02*
X180000D01*
Y139500D01*
X181902D01*
X182751Y138230D01*
X182750Y138230D01*
X191249D01*
X191249Y138230D01*
X192098Y139500D01*
X194000D01*
Y145000D01*
D02*
G37*
G36*
X173000D02*
X159000D01*
Y139500D01*
X160902D01*
X161751Y138230D01*
X161751Y138230D01*
X170250D01*
X170250Y138230D01*
X171098Y139500D01*
X173000D01*
Y145000D01*
D02*
G37*
G36*
X48749Y139750D02*
X46000D01*
Y137850D01*
X47464D01*
X48315Y138701D01*
X48749Y139750D01*
D02*
G37*
G36*
X34500D02*
X31751D01*
X32185Y138701D01*
X33036Y137850D01*
X34500D01*
Y139750D01*
D02*
G37*
G36*
X68000Y134749D02*
Y132000D01*
X70749D01*
X70315Y133049D01*
X69049Y134315D01*
X68000Y134749D01*
D02*
G37*
G36*
X65000D02*
X63951Y134315D01*
X63000Y133364D01*
Y132000D01*
X65000D01*
Y134749D01*
D02*
G37*
G36*
X248500Y132500D02*
X243000D01*
Y130598D01*
X241730Y129749D01*
X241730Y129749D01*
Y125500D01*
Y121250D01*
X241730Y121251D01*
X243000Y120402D01*
Y118500D01*
X248500D01*
Y125500D01*
Y132500D01*
D02*
G37*
G36*
X212250Y156230D02*
X203751D01*
X204185Y155181D01*
X204596Y154770D01*
X204070Y153500D01*
X201000D01*
Y148000D01*
X208000D01*
Y145000D01*
X201000D01*
Y139500D01*
X202902D01*
X203751Y138230D01*
X203751Y138230D01*
X208000D01*
Y135230D01*
X203751D01*
X204185Y134181D01*
X204596Y133770D01*
X204070Y132500D01*
X201000D01*
Y129430D01*
X199730Y128904D01*
X199319Y129315D01*
X198270Y129749D01*
Y125500D01*
Y121250D01*
X199319Y121685D01*
X199730Y122096D01*
X201000Y121570D01*
Y118500D01*
X204070D01*
X204596Y117230D01*
X204185Y116819D01*
X203751Y115770D01*
X212250D01*
X211815Y116819D01*
X211404Y117230D01*
X211930Y118500D01*
X215000D01*
Y121570D01*
X216270Y122096D01*
X216681Y121685D01*
X217730Y121250D01*
Y125500D01*
X220730D01*
Y121250D01*
X220730Y121250D01*
X222000Y120402D01*
Y118500D01*
X225070D01*
X225596Y117230D01*
X225185Y116819D01*
X224750Y115770D01*
X229000D01*
Y112770D01*
X224750D01*
Y112770D01*
X223902Y111500D01*
X222000D01*
Y106000D01*
X229000D01*
Y103000D01*
X222000D01*
Y97500D01*
X225070D01*
X225595Y96230D01*
X225185Y95819D01*
X224750Y94770D01*
X233249D01*
X232815Y95819D01*
X232404Y96230D01*
X232930Y97500D01*
X236000D01*
Y100570D01*
X237270Y101096D01*
X237681Y100685D01*
X238730Y100251D01*
Y104500D01*
Y108750D01*
X237681Y108315D01*
X237270Y107905D01*
X236000Y108431D01*
Y110277D01*
X236333Y110499D01*
X238123D01*
X239777Y111185D01*
X241043Y112451D01*
X241478Y113499D01*
X237228D01*
Y116500D01*
X241478D01*
X241043Y117549D01*
X239777Y118814D01*
X238123Y119500D01*
X236333D01*
X236000Y119722D01*
Y121569D01*
X237270Y122096D01*
X237681Y121685D01*
X238730Y121250D01*
Y125500D01*
Y129749D01*
X237681Y129315D01*
X237270Y128904D01*
X236000Y129430D01*
Y132500D01*
X232233D01*
X231384Y133770D01*
X231479Y134000D01*
X227230D01*
Y137000D01*
X231479D01*
X231045Y138049D01*
X230864Y138230D01*
X231390Y139500D01*
X236000D01*
Y145000D01*
X229000D01*
Y146500D01*
X227500D01*
Y153500D01*
X222000D01*
Y151598D01*
X220730Y150750D01*
X220730Y150750D01*
Y146500D01*
X217730D01*
Y150750D01*
X216681Y150315D01*
X216270Y149904D01*
X215000Y150430D01*
Y153500D01*
X211930D01*
X211404Y154770D01*
X211815Y155181D01*
X212250Y156230D01*
D02*
G37*
G36*
X191249Y135230D02*
X182750D01*
X183185Y134181D01*
X183596Y133770D01*
X183070Y132500D01*
X180000D01*
Y129430D01*
X178730Y128904D01*
X178319Y129315D01*
X177270Y129749D01*
Y125500D01*
Y121250D01*
X178319Y121685D01*
X178730Y122096D01*
X180000Y121570D01*
Y118500D01*
X183070D01*
X183596Y117230D01*
X183185Y116819D01*
X182750Y115770D01*
X191249D01*
X190815Y116819D01*
X190404Y117230D01*
X190930Y118500D01*
X194000D01*
Y120402D01*
X195270Y121250D01*
X195270Y121250D01*
Y125500D01*
Y129749D01*
X195270Y129749D01*
X194000Y130598D01*
Y132500D01*
X190930D01*
X190404Y133770D01*
X190815Y134181D01*
X191249Y135230D01*
D02*
G37*
G36*
X257000Y132500D02*
X251500D01*
Y127000D01*
X257000D01*
Y132500D01*
D02*
G37*
G36*
X152000D02*
X146500D01*
Y127000D01*
X152000D01*
Y132500D01*
D02*
G37*
G36*
X70749Y129000D02*
X68000D01*
Y126251D01*
X69049Y126685D01*
X70315Y127951D01*
X70749Y129000D01*
D02*
G37*
G36*
X65000D02*
X63000D01*
Y127636D01*
X63951Y126685D01*
X65000Y126251D01*
Y129000D01*
D02*
G37*
G36*
X170250Y135230D02*
X161751D01*
X162185Y134181D01*
X162596Y133770D01*
X162070Y132500D01*
X159000D01*
Y127000D01*
X166000D01*
Y124000D01*
X159000D01*
Y118500D01*
X162070D01*
X162596Y117230D01*
X162185Y116819D01*
X161751Y115770D01*
X170250D01*
X169815Y116819D01*
X169404Y117230D01*
X169930Y118500D01*
X173000D01*
Y120402D01*
X174270Y121250D01*
D01*
Y125500D01*
Y129749D01*
D01*
X173000Y130598D01*
Y132500D01*
X169930D01*
X169404Y133770D01*
X169815Y134181D01*
X170250Y135230D01*
D02*
G37*
G36*
X257000Y124000D02*
X251500D01*
Y118500D01*
X257000D01*
Y124000D01*
D02*
G37*
G36*
X152000D02*
X146500D01*
Y118500D01*
X152000D01*
Y124000D01*
D02*
G37*
G36*
X248500Y111500D02*
X243000D01*
Y109598D01*
X241730Y108749D01*
X241730Y108750D01*
Y104500D01*
Y100251D01*
X241730Y100251D01*
X243000Y99402D01*
Y97500D01*
X248500D01*
Y104500D01*
Y111500D01*
D02*
G37*
G36*
X170250Y112770D02*
X161751D01*
Y112770D01*
X160902Y111500D01*
X159000D01*
Y108431D01*
X157730Y107904D01*
X157319Y108315D01*
X156270Y108750D01*
Y104500D01*
Y100251D01*
X157319Y100685D01*
X157730Y101096D01*
X159000Y100570D01*
Y97500D01*
X162070D01*
X162596Y96230D01*
X162185Y95819D01*
X161751Y94770D01*
X170250D01*
X169815Y95819D01*
X169404Y96230D01*
X169930Y97500D01*
X173000D01*
Y103000D01*
X166000D01*
Y106000D01*
X173000D01*
Y111500D01*
X171098D01*
X170250Y112770D01*
Y112770D01*
D02*
G37*
G36*
X212250D02*
X203751D01*
Y112770D01*
X202902Y111500D01*
X201000D01*
Y106000D01*
X215000D01*
Y111500D01*
X213098D01*
X212250Y112770D01*
Y112770D01*
D02*
G37*
G36*
X191249D02*
X182750D01*
Y112770D01*
X181902Y111500D01*
X180000D01*
Y106000D01*
X194000D01*
Y111500D01*
X192098D01*
X191249Y112770D01*
Y112770D01*
D02*
G37*
G36*
X143500Y111500D02*
X138000D01*
Y106000D01*
X143500D01*
Y111500D01*
D02*
G37*
G36*
X152000D02*
X146500D01*
Y104500D01*
X145000D01*
Y103000D01*
X138000D01*
Y97500D01*
X141070D01*
X141596Y96230D01*
X141185Y95819D01*
X140751Y94770D01*
X149249D01*
X148815Y95819D01*
X148404Y96230D01*
X148930Y97500D01*
X152000D01*
Y99402D01*
X153270Y100251D01*
X153270Y100251D01*
Y104500D01*
Y108750D01*
X153270Y108750D01*
X152000Y109598D01*
Y111500D01*
D02*
G37*
G36*
X215000Y103000D02*
X201000D01*
Y99007D01*
X200134Y98672D01*
X199730Y98634D01*
X198549Y99815D01*
X197500Y100249D01*
Y97500D01*
X204070D01*
X204596Y96230D01*
X204185Y95819D01*
X203751Y94770D01*
X212250D01*
X211815Y95819D01*
X211404Y96230D01*
X211930Y97500D01*
X215000D01*
Y103000D01*
D02*
G37*
G36*
X200249Y94500D02*
X197500D01*
Y91751D01*
X198549Y92185D01*
X199815Y93451D01*
X200249Y94500D01*
D02*
G37*
G36*
X194000Y103000D02*
X180000D01*
Y97500D01*
X183070D01*
X183596Y96230D01*
X183185Y95819D01*
X182750Y94770D01*
X187000D01*
Y91770D01*
X182750D01*
X182751Y91770D01*
X181902Y90500D01*
X180000D01*
Y85000D01*
X194000D01*
Y90500D01*
X192579D01*
X191779Y91638D01*
X191885Y91955D01*
X193300Y92336D01*
X193451Y92185D01*
X194500Y91751D01*
Y96000D01*
Y100851D01*
X194000Y101185D01*
Y103000D01*
D02*
G37*
G36*
X248500Y90500D02*
X243000D01*
Y88598D01*
X241730Y87749D01*
X241730Y87749D01*
Y83500D01*
Y79250D01*
X241730Y79251D01*
X243000Y78402D01*
Y76500D01*
X246070D01*
X246596Y75230D01*
X246185Y74819D01*
X245751Y73770D01*
X254249D01*
X253815Y74819D01*
X253404Y75230D01*
X253930Y76500D01*
X257000D01*
Y82000D01*
X250000D01*
Y83500D01*
X248500D01*
Y90500D01*
D02*
G37*
G36*
X257000D02*
X251500D01*
Y85000D01*
X257000D01*
Y90500D01*
D02*
G37*
G36*
X212250Y91770D02*
X203751D01*
X203751Y91770D01*
X202902Y90500D01*
X201000D01*
Y85000D01*
X215000D01*
Y90500D01*
X213098D01*
X212249Y91770D01*
X212250Y91770D01*
D02*
G37*
G36*
X170250D02*
X161751D01*
X161751Y91770D01*
X160902Y90500D01*
X159000D01*
Y85000D01*
X173000D01*
Y90500D01*
X171098D01*
X170250Y91770D01*
X170250Y91770D01*
D02*
G37*
G36*
X149249D02*
X140751D01*
X140751Y91770D01*
X139902Y90500D01*
X138000D01*
Y85000D01*
X152000D01*
Y90500D01*
X150098D01*
X149249Y91770D01*
X149249Y91770D01*
D02*
G37*
G36*
X87500Y85729D02*
Y82980D01*
X90249D01*
X89815Y84029D01*
X88549Y85295D01*
X87500Y85729D01*
D02*
G37*
G36*
X84500D02*
X83451Y85295D01*
X82185Y84029D01*
X81750Y82980D01*
X84500D01*
Y85729D01*
D02*
G37*
G36*
X233249Y91770D02*
X224750D01*
X224750Y91770D01*
X223902Y90500D01*
X222000D01*
Y85000D01*
X229000D01*
Y82000D01*
X222000D01*
Y76500D01*
X225070D01*
X225596Y75230D01*
X225185Y74819D01*
X224750Y73770D01*
X233249D01*
X232815Y74819D01*
X232404Y75230D01*
X232930Y76500D01*
X236000D01*
Y79570D01*
X237270Y80096D01*
X237681Y79685D01*
X238730Y79250D01*
Y83500D01*
Y87749D01*
X237681Y87315D01*
X237270Y86904D01*
X236000Y87430D01*
Y90500D01*
X234098D01*
X233249Y91770D01*
X233249Y91770D01*
D02*
G37*
G36*
X90249Y79980D02*
X87500D01*
Y77230D01*
X88549Y77665D01*
X89815Y78931D01*
X90249Y79980D01*
D02*
G37*
G36*
X84500D02*
X81750D01*
X82185Y78931D01*
X83451Y77665D01*
X84500Y77230D01*
Y79980D01*
D02*
G37*
G36*
X215000Y82000D02*
X201000D01*
Y76500D01*
X204070D01*
X204596Y75230D01*
X204185Y74819D01*
X203751Y73770D01*
X212250D01*
X211815Y74819D01*
X211404Y75230D01*
X211930Y76500D01*
X215000D01*
Y82000D01*
D02*
G37*
G36*
X173000D02*
X159000D01*
Y76500D01*
X162070D01*
X162596Y75230D01*
X162185Y74819D01*
X161751Y73770D01*
X170250D01*
X169815Y74819D01*
X169404Y75230D01*
X169930Y76500D01*
X173000D01*
Y82000D01*
D02*
G37*
G36*
X96230Y76249D02*
Y73500D01*
X98979D01*
X98545Y74549D01*
X97279Y75815D01*
X96230Y76249D01*
D02*
G37*
G36*
X93230D02*
X92181Y75815D01*
X90915Y74549D01*
X90480Y73500D01*
X93230D01*
Y76249D01*
D02*
G37*
G36*
X81770D02*
Y73500D01*
X84520D01*
X84085Y74549D01*
X82819Y75815D01*
X81770Y76249D01*
D02*
G37*
G36*
X78770D02*
X77721Y75815D01*
X76455Y74549D01*
X76021Y73500D01*
X78770D01*
Y76249D01*
D02*
G37*
G36*
X197500Y75249D02*
Y72500D01*
X200249D01*
X199815Y73549D01*
X198549Y74815D01*
X197500Y75249D01*
D02*
G37*
G36*
X212250Y70770D02*
X203751D01*
X203751Y70770D01*
X202902Y69500D01*
X201624D01*
X201624Y69500D01*
X197500D01*
Y66751D01*
X198549Y67185D01*
X199730Y68366D01*
X200134Y68328D01*
X201000Y67993D01*
Y64000D01*
X215000D01*
Y69500D01*
X213098D01*
X212250Y70770D01*
X212250Y70770D01*
D02*
G37*
G36*
X98979Y70500D02*
X96230D01*
Y67750D01*
X97279Y68185D01*
X98545Y69451D01*
X98979Y70500D01*
D02*
G37*
G36*
X93230D02*
X90480D01*
X90915Y69451D01*
X92181Y68185D01*
X93230Y67750D01*
Y70500D01*
D02*
G37*
G36*
X84520D02*
X81770D01*
Y67750D01*
X82819Y68185D01*
X84085Y69451D01*
X84520Y70500D01*
D02*
G37*
G36*
X78770D02*
X76021D01*
X76455Y69451D01*
X77721Y68185D01*
X78770Y67750D01*
Y70500D01*
D02*
G37*
G36*
X109730Y69749D02*
X108681Y69315D01*
X107415Y68049D01*
X106980Y67000D01*
X109730D01*
Y69749D01*
D02*
G37*
G36*
X23464Y67150D02*
X22500D01*
Y66751D01*
X23464Y67150D01*
D02*
G37*
G36*
X19500D02*
X18536D01*
X19500Y66751D01*
Y67150D01*
D02*
G37*
G36*
X254249Y70770D02*
X245751D01*
X245751Y70770D01*
X244902Y69500D01*
X243000D01*
Y64000D01*
X257000D01*
Y69500D01*
X255098D01*
X254249Y70770D01*
X254249Y70770D01*
D02*
G37*
G36*
X233249D02*
X224750D01*
X224750Y70770D01*
X223902Y69500D01*
X222000D01*
Y64000D01*
X236000D01*
Y69500D01*
X234098D01*
X233249Y70770D01*
X233249Y70770D01*
D02*
G37*
G36*
X194000Y82000D02*
X180000D01*
Y76500D01*
X183070D01*
X183596Y75230D01*
X183185Y74819D01*
X182750Y73770D01*
X187000D01*
Y70770D01*
X182750D01*
X182750Y70770D01*
X181902Y69500D01*
X180000D01*
Y64000D01*
X194000D01*
Y65815D01*
X194500Y66149D01*
Y71000D01*
Y75249D01*
X193451Y74815D01*
X192560Y73924D01*
X191240Y74052D01*
X191102Y74125D01*
X190815Y74819D01*
X190404Y75230D01*
X190930Y76500D01*
X194000D01*
Y82000D01*
D02*
G37*
G36*
X170250Y70770D02*
X161751D01*
X161751Y70770D01*
X160902Y69500D01*
X159000D01*
Y64000D01*
X173000D01*
Y69500D01*
X171098D01*
X170250Y70770D01*
X170250Y70770D01*
D02*
G37*
G36*
X152000Y82000D02*
X138000D01*
Y77417D01*
X137500Y77002D01*
Y72000D01*
Y67149D01*
X138000Y66815D01*
Y64000D01*
X152000D01*
Y69500D01*
X150098D01*
X149249Y70770D01*
X149249Y70770D01*
X145000D01*
Y73770D01*
X149249D01*
X148815Y74819D01*
X148404Y75230D01*
X148930Y76500D01*
X152000D01*
Y82000D01*
D02*
G37*
G36*
X27750Y65999D02*
Y63250D01*
X30499D01*
X30065Y64299D01*
X28799Y65565D01*
X27750Y65999D01*
D02*
G37*
G36*
X24750D02*
X23701Y65565D01*
X22435Y64299D01*
X22001Y63250D01*
X24750D01*
Y65999D01*
D02*
G37*
G36*
X13500Y65749D02*
Y63000D01*
X16249D01*
X15815Y64049D01*
X14549Y65315D01*
X13500Y65749D01*
D02*
G37*
G36*
X10500D02*
X9451Y65315D01*
X8185Y64049D01*
X7751Y63000D01*
X10500D01*
Y65749D01*
D02*
G37*
G36*
X109730Y64000D02*
X106980D01*
X107415Y62951D01*
X108681Y61685D01*
X109730Y61251D01*
Y64000D01*
D02*
G37*
G36*
X30499Y60250D02*
X27750D01*
Y57501D01*
X28799Y57935D01*
X30065Y59201D01*
X30499Y60250D01*
D02*
G37*
G36*
X24750D02*
X22001D01*
X22435Y59201D01*
X23701Y57935D01*
X24750Y57501D01*
Y60250D01*
D02*
G37*
G36*
X16249Y60000D02*
X13500D01*
Y57251D01*
X14549Y57685D01*
X15815Y58951D01*
X16249Y60000D01*
D02*
G37*
G36*
X10500D02*
X7751D01*
X8185Y58951D01*
X9451Y57685D01*
X10500Y57251D01*
Y60000D01*
D02*
G37*
G36*
X257000Y61000D02*
X243000D01*
Y55500D01*
X246070D01*
X246596Y54230D01*
X246185Y53819D01*
X245751Y52770D01*
X254249D01*
X253815Y53819D01*
X253404Y54230D01*
X253930Y55500D01*
X257000D01*
Y61000D01*
D02*
G37*
G36*
X236000D02*
X222000D01*
Y55500D01*
X225069D01*
X225595Y54230D01*
X225185Y53819D01*
X224750Y52770D01*
X233249D01*
X232815Y53819D01*
X232404Y54230D01*
X232930Y55500D01*
X236000D01*
Y61000D01*
D02*
G37*
G36*
X215000D02*
X201000D01*
Y55500D01*
X204070D01*
X204596Y54230D01*
X204185Y53819D01*
X203751Y52770D01*
X212250D01*
X211815Y53819D01*
X211404Y54230D01*
X211931Y55500D01*
X215000D01*
Y61000D01*
D02*
G37*
G36*
X194000D02*
X180000D01*
Y55500D01*
X183069D01*
X183596Y54230D01*
X183185Y53819D01*
X182750Y52770D01*
X191249D01*
X190815Y53819D01*
X190404Y54230D01*
X190930Y55500D01*
X194000D01*
Y61000D01*
D02*
G37*
G36*
X173000D02*
X159000D01*
Y55500D01*
X162070D01*
X162596Y54230D01*
X162185Y53819D01*
X161751Y52770D01*
X170250D01*
X169815Y53819D01*
X169405Y54230D01*
X169931Y55500D01*
X173000D01*
Y61000D01*
D02*
G37*
G36*
X152000D02*
X138000D01*
Y55500D01*
X141070D01*
X141596Y54230D01*
X141185Y53819D01*
X140751Y52770D01*
X149249D01*
X148815Y53819D01*
X148404Y54230D01*
X148930Y55500D01*
X152000D01*
Y61000D01*
D02*
G37*
G36*
X109730Y47750D02*
X108681Y47315D01*
X107415Y46049D01*
X106980Y45000D01*
X109730D01*
Y47750D01*
D02*
G37*
G36*
X254249Y49770D02*
X245751D01*
X245751Y49770D01*
X244902Y48500D01*
X243000D01*
Y43000D01*
X257000D01*
Y48500D01*
X255098D01*
X254249Y49770D01*
X254249Y49770D01*
D02*
G37*
G36*
X233249D02*
X224750D01*
X224750Y49770D01*
X223902Y48500D01*
X222000D01*
Y43000D01*
X236000D01*
Y48500D01*
X234098D01*
X233249Y49770D01*
X233249Y49770D01*
D02*
G37*
G36*
X212250D02*
X203751D01*
X203751Y49770D01*
X202902Y48500D01*
X201000D01*
Y43000D01*
X215000D01*
Y48500D01*
X213098D01*
X212249Y49770D01*
X212250Y49770D01*
D02*
G37*
G36*
X191249D02*
X182750D01*
X182751Y49770D01*
X181902Y48500D01*
X180000D01*
Y43000D01*
X194000D01*
Y48500D01*
X192098D01*
X191249Y49770D01*
X191249Y49770D01*
D02*
G37*
G36*
X170250D02*
X161751D01*
X161751Y49770D01*
X160902Y48500D01*
X159000D01*
Y43000D01*
X173000D01*
Y48500D01*
X171098D01*
X170249Y49770D01*
X170250Y49770D01*
D02*
G37*
G36*
X149249D02*
X140751D01*
X140751Y49770D01*
X139902Y48500D01*
X138000D01*
Y43000D01*
X152000D01*
Y48500D01*
X150098D01*
X149249Y49770D01*
X149249Y49770D01*
D02*
G37*
G36*
X109730Y42000D02*
X106980D01*
X107415Y40951D01*
X108681Y39685D01*
X109730Y39251D01*
Y42000D01*
D02*
G37*
G36*
X132000Y42000D02*
X124500D01*
Y38000D01*
X132000D01*
Y42000D01*
D02*
G37*
G36*
X173000Y40000D02*
X167500D01*
Y34500D01*
X173000D01*
Y40000D01*
D02*
G37*
G36*
X164500D02*
X159000D01*
Y34500D01*
X164500D01*
Y40000D01*
D02*
G37*
G36*
X152000D02*
X146500D01*
Y34500D01*
X152000D01*
Y40000D01*
D02*
G37*
G36*
X143500D02*
X138000D01*
Y34500D01*
X143500D01*
Y40000D01*
D02*
G37*
G36*
X272500Y250249D02*
Y247500D01*
X275249D01*
X274815Y248549D01*
X273549Y249815D01*
X272500Y250249D01*
D02*
G37*
G36*
X269500D02*
X268451Y249815D01*
X267185Y248549D01*
X266751Y247500D01*
X269500D01*
Y250249D01*
D02*
G37*
G36*
X523551Y271900D02*
X521049D01*
X518633Y271253D01*
X516467Y270002D01*
X514698Y268233D01*
X513447Y266067D01*
X512800Y263651D01*
Y261149D01*
X513447Y258733D01*
X514698Y256567D01*
X516467Y254798D01*
X518633Y253547D01*
X521049Y252900D01*
X523551D01*
X525967Y253547D01*
X528133Y254798D01*
X529902Y256567D01*
X531153Y258733D01*
X531800Y261149D01*
Y263651D01*
X531153Y266067D01*
X529902Y268233D01*
X528133Y270002D01*
X525967Y271253D01*
X523551Y271900D01*
D02*
G37*
G36*
X369500Y250249D02*
X368451Y249815D01*
X367185Y248549D01*
X366751Y247500D01*
X369500D01*
Y250249D01*
D02*
G37*
G36*
X375249Y244500D02*
X372500D01*
Y241751D01*
X373549Y242185D01*
X374815Y243451D01*
X375249Y244500D01*
D02*
G37*
G36*
X369500D02*
X366751D01*
X367185Y243451D01*
X368451Y242185D01*
X369500Y241751D01*
Y244500D01*
D02*
G37*
G36*
X434500Y239520D02*
Y236770D01*
X437249D01*
X436815Y237819D01*
X435549Y239085D01*
X434500Y239520D01*
D02*
G37*
G36*
X431500D02*
X430451Y239085D01*
X429185Y237819D01*
X428751Y236770D01*
X431500D01*
Y239520D01*
D02*
G37*
G36*
X437249Y233770D02*
X434500D01*
Y231021D01*
X435549Y231455D01*
X436815Y232721D01*
X437249Y233770D01*
D02*
G37*
G36*
X431500D02*
X428751D01*
X429185Y232721D01*
X430451Y231455D01*
X431500Y231021D01*
Y233770D01*
D02*
G37*
G36*
X574022Y244000D02*
X572178D01*
X570398Y243523D01*
X568802Y242601D01*
X567499Y241298D01*
X566577Y239702D01*
X566100Y237922D01*
Y236078D01*
X566577Y234298D01*
X567499Y232702D01*
X568802Y231399D01*
X570398Y230477D01*
X572178Y230000D01*
X574022D01*
X575802Y230477D01*
X577398Y231399D01*
X578701Y232702D01*
X579623Y234298D01*
X580100Y236078D01*
Y237922D01*
X579623Y239702D01*
X578701Y241298D01*
X577398Y242601D01*
X575802Y243523D01*
X574022Y244000D01*
D02*
G37*
G36*
X548622D02*
X546778D01*
X544998Y243523D01*
X543402Y242601D01*
X542099Y241298D01*
X541177Y239702D01*
X540700Y237922D01*
Y236078D01*
X541177Y234298D01*
X542099Y232702D01*
X543402Y231399D01*
X544998Y230477D01*
X546778Y230000D01*
X548622D01*
X550402Y230477D01*
X551998Y231399D01*
X553301Y232702D01*
X554223Y234298D01*
X554700Y236078D01*
Y237922D01*
X554223Y239702D01*
X553301Y241298D01*
X551998Y242601D01*
X550402Y243523D01*
X548622Y244000D01*
D02*
G37*
G36*
X523222D02*
X521378D01*
X519598Y243523D01*
X518002Y242601D01*
X516699Y241298D01*
X515777Y239702D01*
X515300Y237922D01*
Y236078D01*
X515777Y234298D01*
X516699Y232702D01*
X518002Y231399D01*
X519598Y230477D01*
X521378Y230000D01*
X523222D01*
X525002Y230477D01*
X526598Y231399D01*
X527901Y232702D01*
X528823Y234298D01*
X529300Y236078D01*
Y237922D01*
X528823Y239702D01*
X527901Y241298D01*
X526598Y242601D01*
X525002Y243523D01*
X523222Y244000D01*
D02*
G37*
G36*
X497822D02*
X495978D01*
X494198Y243523D01*
X492602Y242601D01*
X491299Y241298D01*
X490377Y239702D01*
X489900Y237922D01*
Y236078D01*
X490377Y234298D01*
X491299Y232702D01*
X492602Y231399D01*
X494198Y230477D01*
X495978Y230000D01*
X497822D01*
X499602Y230477D01*
X501198Y231399D01*
X502501Y232702D01*
X503423Y234298D01*
X503900Y236078D01*
Y237922D01*
X503423Y239702D01*
X502501Y241298D01*
X501198Y242601D01*
X499602Y243523D01*
X497822Y244000D01*
D02*
G37*
G36*
X472422D02*
X470578D01*
X468798Y243523D01*
X467202Y242601D01*
X465899Y241298D01*
X464977Y239702D01*
X464500Y237922D01*
Y236078D01*
X464977Y234298D01*
X465899Y232702D01*
X467202Y231399D01*
X468798Y230477D01*
X470578Y230000D01*
X472422D01*
X474202Y230477D01*
X475798Y231399D01*
X477101Y232702D01*
X478023Y234298D01*
X478500Y236078D01*
Y237922D01*
X478023Y239702D01*
X477101Y241298D01*
X475798Y242601D01*
X474202Y243523D01*
X472422Y244000D01*
D02*
G37*
G36*
X389700Y235000D02*
X381700D01*
Y226500D01*
X389700D01*
Y235000D01*
D02*
G37*
G36*
X378700D02*
X370700D01*
Y226500D01*
X378700D01*
Y235000D01*
D02*
G37*
G36*
X622500Y225249D02*
Y222500D01*
X625249D01*
X624815Y223549D01*
X623549Y224815D01*
X622500Y225249D01*
D02*
G37*
G36*
X619500D02*
X618451Y224815D01*
X617185Y223549D01*
X616751Y222500D01*
X619500D01*
Y225249D01*
D02*
G37*
G36*
X597500D02*
Y222500D01*
X600249D01*
X599815Y223549D01*
X598549Y224815D01*
X597500Y225249D01*
D02*
G37*
G36*
X594500D02*
X593451Y224815D01*
X592185Y223549D01*
X591751Y222500D01*
X594500D01*
Y225249D01*
D02*
G37*
G36*
X572500D02*
Y222500D01*
X575249D01*
X574815Y223549D01*
X573549Y224815D01*
X572500Y225249D01*
D02*
G37*
G36*
X569500D02*
X568451Y224815D01*
X567185Y223549D01*
X566751Y222500D01*
X569500D01*
Y225249D01*
D02*
G37*
G36*
X522500D02*
Y222500D01*
X525249D01*
X524815Y223549D01*
X523549Y224815D01*
X522500Y225249D01*
D02*
G37*
G36*
X519500D02*
X518451Y224815D01*
X517185Y223549D01*
X516751Y222500D01*
X519500D01*
Y225249D01*
D02*
G37*
G36*
X422500D02*
Y222500D01*
X425249D01*
X424815Y223549D01*
X423549Y224815D01*
X422500Y225249D01*
D02*
G37*
G36*
X419500D02*
X418451Y224815D01*
X417185Y223549D01*
X416751Y222500D01*
X419500D01*
Y225249D01*
D02*
G37*
G36*
X625249Y219500D02*
X622500D01*
Y216751D01*
X623549Y217185D01*
X624815Y218451D01*
X625249Y219500D01*
D02*
G37*
G36*
X619500D02*
X616751D01*
X617185Y218451D01*
X618451Y217185D01*
X619500Y216751D01*
Y219500D01*
D02*
G37*
G36*
X600249D02*
X597500D01*
Y216751D01*
X598549Y217185D01*
X599815Y218451D01*
X600249Y219500D01*
D02*
G37*
G36*
X594500D02*
X591751D01*
X592185Y218451D01*
X593451Y217185D01*
X594500Y216751D01*
Y219500D01*
D02*
G37*
G36*
X575249D02*
X572500D01*
Y216751D01*
X573549Y217185D01*
X574815Y218451D01*
X575249Y219500D01*
D02*
G37*
G36*
X569500D02*
X566751D01*
X567185Y218451D01*
X568451Y217185D01*
X569500Y216751D01*
Y219500D01*
D02*
G37*
G36*
X525249D02*
X522500D01*
Y216751D01*
X523549Y217185D01*
X524815Y218451D01*
X525249Y219500D01*
D02*
G37*
G36*
X519500D02*
X516751D01*
X517185Y218451D01*
X518451Y217185D01*
X519500Y216751D01*
Y219500D01*
D02*
G37*
G36*
X425249D02*
X422500D01*
Y216751D01*
X423549Y217185D01*
X424815Y218451D01*
X425249Y219500D01*
D02*
G37*
G36*
X419500D02*
X416751D01*
X417185Y218451D01*
X418451Y217185D01*
X419500Y216751D01*
Y219500D01*
D02*
G37*
G36*
X389700Y223500D02*
X381700D01*
Y215000D01*
X389700D01*
Y223500D01*
D02*
G37*
G36*
X378700D02*
X370700D01*
Y215000D01*
X378700D01*
Y223500D01*
D02*
G37*
G36*
X548951Y221100D02*
X546449D01*
X544033Y220453D01*
X541867Y219202D01*
X540098Y217433D01*
X538847Y215267D01*
X538200Y212851D01*
Y210349D01*
X538847Y207933D01*
X540098Y205767D01*
X541867Y203998D01*
X544033Y202747D01*
X546449Y202100D01*
X548951D01*
X551367Y202747D01*
X553533Y203998D01*
X555302Y205767D01*
X556553Y207933D01*
X557200Y210349D01*
Y212851D01*
X556553Y215267D01*
X555302Y217433D01*
X553533Y219202D01*
X551367Y220453D01*
X548951Y221100D01*
D02*
G37*
G36*
X622500Y200249D02*
Y197500D01*
X625249D01*
X624815Y198549D01*
X623549Y199815D01*
X622500Y200249D01*
D02*
G37*
G36*
X619500D02*
X618451Y199815D01*
X617185Y198549D01*
X616751Y197500D01*
X619500D01*
Y200249D01*
D02*
G37*
G36*
X597500D02*
Y197500D01*
X600249D01*
X599815Y198549D01*
X598549Y199815D01*
X597500Y200249D01*
D02*
G37*
G36*
X594500D02*
X593451Y199815D01*
X592185Y198549D01*
X591751Y197500D01*
X594500D01*
Y200249D01*
D02*
G37*
G36*
X572500D02*
Y197500D01*
X575249D01*
X574815Y198549D01*
X573549Y199815D01*
X572500Y200249D01*
D02*
G37*
G36*
X569500D02*
X568451Y199815D01*
X567185Y198549D01*
X566751Y197500D01*
X569500D01*
Y200249D01*
D02*
G37*
G36*
X547500D02*
Y197500D01*
X550249D01*
X549815Y198549D01*
X548549Y199815D01*
X547500Y200249D01*
D02*
G37*
G36*
X544500D02*
X543451Y199815D01*
X542185Y198549D01*
X541751Y197500D01*
X544500D01*
Y200249D01*
D02*
G37*
G36*
X625249Y194500D02*
X622500D01*
Y191751D01*
X623549Y192185D01*
X624815Y193451D01*
X625249Y194500D01*
D02*
G37*
G36*
X619500D02*
X616751D01*
X617185Y193451D01*
X618451Y192185D01*
X619500Y191751D01*
Y194500D01*
D02*
G37*
G36*
X600249D02*
X597500D01*
Y191751D01*
X598549Y192185D01*
X599815Y193451D01*
X600249Y194500D01*
D02*
G37*
G36*
X594500D02*
X591751D01*
X592185Y193451D01*
X593451Y192185D01*
X594500Y191751D01*
Y194500D01*
D02*
G37*
G36*
X575249D02*
X572500D01*
Y191751D01*
X573549Y192185D01*
X574815Y193451D01*
X575249Y194500D01*
D02*
G37*
G36*
X569500D02*
X566751D01*
X567185Y193451D01*
X568451Y192185D01*
X569500Y191751D01*
Y194500D01*
D02*
G37*
G36*
X550249D02*
X547500D01*
Y191751D01*
X548549Y192185D01*
X549815Y193451D01*
X550249Y194500D01*
D02*
G37*
G36*
X544500D02*
X541751D01*
X542185Y193451D01*
X543451Y192185D01*
X544500Y191751D01*
Y194500D01*
D02*
G37*
G36*
X408000Y208250D02*
X383000D01*
Y189250D01*
X408000D01*
Y208250D01*
D02*
G37*
G36*
X382250Y187749D02*
Y185000D01*
X384999D01*
X384565Y186049D01*
X383299Y187315D01*
X382250Y187749D01*
D02*
G37*
G36*
X379250D02*
X378201Y187315D01*
X376935Y186049D01*
X376501Y185000D01*
X379250D01*
Y187749D01*
D02*
G37*
G36*
X384999Y182000D02*
X382250D01*
Y179251D01*
X383299Y179685D01*
X384565Y180951D01*
X384999Y182000D01*
D02*
G37*
G36*
X379250D02*
X376169D01*
X375668Y181250D01*
X369000D01*
Y177750D01*
X378000D01*
Y178394D01*
X379250Y179229D01*
Y182000D01*
D02*
G37*
G36*
X366000Y181250D02*
X357000D01*
Y177750D01*
X366000D01*
Y181250D01*
D02*
G37*
G36*
X622500Y175249D02*
Y172500D01*
X625249D01*
X624815Y173549D01*
X623549Y174815D01*
X622500Y175249D01*
D02*
G37*
G36*
X619500D02*
X618451Y174815D01*
X617185Y173549D01*
X616751Y172500D01*
X619500D01*
Y175249D01*
D02*
G37*
G36*
X378000Y174750D02*
X369000D01*
Y171250D01*
X378000D01*
Y174750D01*
D02*
G37*
G36*
X366000D02*
X357000D01*
Y171250D01*
X366000D01*
Y174750D01*
D02*
G37*
G36*
X625249Y169500D02*
X622500D01*
Y166751D01*
X623549Y167185D01*
X624815Y168451D01*
X625249Y169500D01*
D02*
G37*
G36*
X619500D02*
X616751D01*
X617185Y168451D01*
X618451Y167185D01*
X619500Y166751D01*
Y169500D01*
D02*
G37*
G36*
X382270Y168000D02*
Y165250D01*
X385020D01*
X384585Y166299D01*
X383319Y167565D01*
X382270Y168000D01*
D02*
G37*
G36*
X366000Y168750D02*
X357000D01*
Y165250D01*
X366000D01*
Y168750D01*
D02*
G37*
G36*
X385020Y162250D02*
X382270D01*
Y159501D01*
X383319Y159935D01*
X384585Y161201D01*
X385020Y162250D01*
D02*
G37*
G36*
X378000Y168750D02*
Y168750D01*
X369000D01*
Y163750D01*
Y158750D01*
X378000D01*
Y158750D01*
X379270Y159501D01*
X379270Y159501D01*
Y163750D01*
Y168000D01*
X379270Y167999D01*
X378000Y168750D01*
D02*
G37*
G36*
X366000Y162250D02*
X357000D01*
Y158750D01*
X366000D01*
Y162250D01*
D02*
G37*
G36*
X384145Y157750D02*
X382355D01*
X380701Y157065D01*
X379435Y155799D01*
X379240Y155328D01*
X378000D01*
Y156250D01*
X357000D01*
Y146250D01*
X378000D01*
Y147172D01*
X380979D01*
X380979Y147172D01*
X382540Y147482D01*
X383863Y148366D01*
X384319Y148822D01*
X385799Y149435D01*
X387065Y150701D01*
X387750Y152355D01*
Y154145D01*
X387065Y155799D01*
X385799Y157065D01*
X384145Y157750D01*
D02*
G37*
G36*
X622500Y150249D02*
Y147500D01*
X625249D01*
X624815Y148549D01*
X623549Y149815D01*
X622500Y150249D01*
D02*
G37*
G36*
X619500D02*
X618451Y149815D01*
X617185Y148549D01*
X616751Y147500D01*
X619500D01*
Y150249D01*
D02*
G37*
G36*
X625249Y144500D02*
X622500D01*
Y141751D01*
X623549Y142185D01*
X624815Y143451D01*
X625249Y144500D01*
D02*
G37*
G36*
X619500D02*
X616751D01*
X617185Y143451D01*
X618451Y142185D01*
X619500Y141751D01*
Y144500D01*
D02*
G37*
G36*
X419000Y127020D02*
X417951Y126585D01*
X416685Y125319D01*
X416251Y124270D01*
X419000D01*
Y127020D01*
D02*
G37*
G36*
X432895Y129500D02*
X431105D01*
X429451Y128815D01*
X428185Y127549D01*
X427500Y125895D01*
Y124105D01*
X427500Y124105D01*
X426270Y122875D01*
X425000Y123401D01*
Y123666D01*
X424315Y125319D01*
X423049Y126585D01*
X422000Y127020D01*
Y122770D01*
Y118521D01*
X423049Y118955D01*
X423431Y119337D01*
X424701Y118811D01*
Y104056D01*
X420444Y99799D01*
X411815D01*
X411815Y99799D01*
X410549Y101065D01*
X408895Y101750D01*
X407105D01*
X405451Y101065D01*
X404185Y99799D01*
X403500Y98145D01*
Y96355D01*
X404185Y94701D01*
X405451Y93435D01*
X407105Y92750D01*
X408895D01*
X410549Y93435D01*
X411815Y94701D01*
X411815Y94701D01*
X421500D01*
X422476Y94895D01*
X423302Y95448D01*
X429052Y101198D01*
X429605Y102024D01*
X429799Y103000D01*
Y119194D01*
X431105Y120500D01*
X431105Y120500D01*
X432895D01*
X434549Y121185D01*
X435815Y122451D01*
X436500Y124105D01*
Y125895D01*
X435815Y127549D01*
X434549Y128815D01*
X432895Y129500D01*
D02*
G37*
G36*
X622500Y125249D02*
Y122500D01*
X625249D01*
X624815Y123549D01*
X623549Y124815D01*
X622500Y125249D01*
D02*
G37*
G36*
X619500D02*
X618451Y124815D01*
X617185Y123549D01*
X616751Y122500D01*
X619500D01*
Y125249D01*
D02*
G37*
G36*
X488000Y203624D02*
X432000D01*
X430852Y203148D01*
X415852Y188148D01*
X415376Y187000D01*
Y147000D01*
X415852Y145852D01*
X420852Y140852D01*
X422000Y140376D01*
X468000D01*
X468106Y140421D01*
X469376Y139572D01*
Y124000D01*
X469852Y122852D01*
X471000Y122376D01*
X508000D01*
X509148Y122852D01*
X509624Y124000D01*
Y137220D01*
X509883Y137486D01*
X510894Y138072D01*
X511500Y137951D01*
X512500D01*
Y136250D01*
X517451D01*
Y133750D01*
X512500D01*
Y125250D01*
X527500D01*
Y133750D01*
X522549D01*
Y136250D01*
X527500D01*
Y137451D01*
X534750D01*
Y136750D01*
X544250D01*
Y141980D01*
Y143250D01*
X544250D01*
X544250Y143250D01*
Y143250D01*
X544250Y143250D01*
Y149750D01*
X544000D01*
Y150073D01*
Y155677D01*
Y156000D01*
X544134D01*
X544291Y156379D01*
X544500Y156588D01*
X544500Y156911D01*
X544624Y157209D01*
Y159376D01*
X555376D01*
Y157209D01*
X555500Y156911D01*
X555500Y156588D01*
X555709Y156379D01*
X555866Y156000D01*
X556000D01*
Y149750D01*
X555750D01*
Y144520D01*
X555750Y143270D01*
Y143250D01*
D01*
D01*
X555750D01*
Y143250D01*
Y143250D01*
X555750Y143250D01*
X555750Y143250D01*
Y141500D01*
X560500D01*
Y138500D01*
X555750D01*
Y138009D01*
X555750Y136750D01*
X555750Y136750D01*
X555750D01*
Y136750D01*
X555750Y136750D01*
Y130250D01*
X556000D01*
Y129927D01*
Y129672D01*
X556475Y128525D01*
X558148Y126852D01*
X559296Y126376D01*
X568902D01*
X569155Y125106D01*
X568451Y124815D01*
X568366Y124730D01*
X567185Y123549D01*
X566751Y122500D01*
X575249D01*
X574815Y123549D01*
X573549Y124815D01*
X571895Y125500D01*
X570579D01*
X570327Y126770D01*
X570524Y126852D01*
X571000Y128000D01*
Y135677D01*
Y136000D01*
X613000D01*
X614148Y136475D01*
X614624Y137624D01*
Y184000D01*
X614148Y185148D01*
X613000Y185624D01*
X506673D01*
X489148Y203148D01*
X488000Y203624D01*
D02*
G37*
G36*
X547500Y125249D02*
Y122500D01*
X550249D01*
X549815Y123549D01*
X548549Y124815D01*
X547500Y125249D01*
D02*
G37*
G36*
X544500D02*
X543451Y124815D01*
X542185Y123549D01*
X541751Y122500D01*
X544500D01*
Y125249D01*
D02*
G37*
G36*
X378000Y131250D02*
Y131250D01*
X357000D01*
Y121250D01*
X378000D01*
Y121418D01*
X379056Y122124D01*
X379355Y122000D01*
X381145D01*
X382799Y122685D01*
X384065Y123951D01*
X384750Y125605D01*
Y127395D01*
X384065Y129049D01*
X382799Y130315D01*
X381145Y131000D01*
X379355D01*
X378750Y130749D01*
X378000Y131250D01*
D02*
G37*
G36*
X419000Y121270D02*
X416251D01*
X416685Y120221D01*
X417951Y118955D01*
X419000Y118521D01*
Y121270D01*
D02*
G37*
G36*
X625249Y119500D02*
X622500D01*
Y116751D01*
X623549Y117185D01*
X624815Y118451D01*
X625249Y119500D01*
D02*
G37*
G36*
X619500D02*
X616751D01*
X617185Y118451D01*
X618451Y117185D01*
X619500Y116751D01*
Y119500D01*
D02*
G37*
G36*
X575249D02*
X572500D01*
Y116751D01*
X573549Y117185D01*
X574815Y118451D01*
X575249Y119500D01*
D02*
G37*
G36*
X569500D02*
X566751D01*
X567185Y118451D01*
X568451Y117185D01*
X569500Y116751D01*
Y119500D01*
D02*
G37*
G36*
X550249D02*
X547500D01*
Y116751D01*
X548549Y117185D01*
X549815Y118451D01*
X550249Y119500D01*
D02*
G37*
G36*
X544500D02*
X541751D01*
X542185Y118451D01*
X543451Y117185D01*
X544500Y116751D01*
Y119500D01*
D02*
G37*
G36*
X378000Y118750D02*
Y118750D01*
X357000D01*
Y108750D01*
X378000D01*
Y108750D01*
X378885Y109341D01*
X379105Y109250D01*
X380895D01*
X382549Y109935D01*
X383815Y111201D01*
X384500Y112855D01*
Y114645D01*
X383815Y116299D01*
X382549Y117565D01*
X380895Y118250D01*
X379105D01*
X378885Y118159D01*
X378000Y118750D01*
D02*
G37*
G36*
X622500Y100249D02*
Y97500D01*
X625249D01*
X624815Y98549D01*
X623549Y99815D01*
X622500Y100249D01*
D02*
G37*
G36*
X619500D02*
X618451Y99815D01*
X617185Y98549D01*
X616751Y97500D01*
X619500D01*
Y100249D01*
D02*
G37*
G36*
X597500D02*
Y97500D01*
X600249D01*
X599815Y98549D01*
X598549Y99815D01*
X597500Y100249D01*
D02*
G37*
G36*
X594500D02*
X593451Y99815D01*
X592185Y98549D01*
X591751Y97500D01*
X594500D01*
Y100249D01*
D02*
G37*
G36*
X572500D02*
Y97500D01*
X575249D01*
X574815Y98549D01*
X573549Y99815D01*
X572500Y100249D01*
D02*
G37*
G36*
X569500D02*
X568451Y99815D01*
X567185Y98549D01*
X566751Y97500D01*
X569500D01*
Y100249D01*
D02*
G37*
G36*
X547500D02*
Y97500D01*
X550249D01*
X549815Y98549D01*
X548549Y99815D01*
X547500Y100249D01*
D02*
G37*
G36*
X544500D02*
X543451Y99815D01*
X542185Y98549D01*
X541751Y97500D01*
X544500D01*
Y100249D01*
D02*
G37*
G36*
X447500D02*
Y97500D01*
X450249D01*
X449815Y98549D01*
X448549Y99815D01*
X447500Y100249D01*
D02*
G37*
G36*
X444500D02*
X443451Y99815D01*
X442185Y98549D01*
X441751Y97500D01*
X444500D01*
Y100249D01*
D02*
G37*
G36*
X378000Y106250D02*
Y106250D01*
X357000D01*
Y96250D01*
X378000D01*
Y96250D01*
X378789Y96777D01*
X378855Y96750D01*
X380645D01*
X382299Y97435D01*
X383565Y98701D01*
X384250Y100355D01*
Y102145D01*
X383565Y103799D01*
X382299Y105065D01*
X380645Y105750D01*
X378855D01*
X378789Y105723D01*
X378000Y106250D01*
D02*
G37*
G36*
X600249Y94500D02*
X597500D01*
Y91751D01*
X598549Y92185D01*
X599815Y93451D01*
X600249Y94500D01*
D02*
G37*
G36*
X594500D02*
X591751D01*
X592185Y93451D01*
X593451Y92185D01*
X594500Y91751D01*
Y94500D01*
D02*
G37*
G36*
X575249D02*
X572500D01*
Y91751D01*
X573549Y92185D01*
X574815Y93451D01*
X575249Y94500D01*
D02*
G37*
G36*
X569500D02*
X566751D01*
X567185Y93451D01*
X568451Y92185D01*
X569500Y91751D01*
Y94500D01*
D02*
G37*
G36*
X550249D02*
X547500D01*
Y91751D01*
X548549Y92185D01*
X549815Y93451D01*
X550249Y94500D01*
D02*
G37*
G36*
X544500D02*
X541751D01*
X542185Y93451D01*
X543451Y92185D01*
X544500Y91751D01*
Y94500D01*
D02*
G37*
G36*
X450249D02*
X447500D01*
Y91751D01*
X448549Y92185D01*
X449815Y93451D01*
X450249Y94500D01*
D02*
G37*
G36*
X444500D02*
X441751D01*
X442185Y93451D01*
X443451Y92185D01*
X444500Y91751D01*
Y94500D01*
D02*
G37*
G36*
X625249D02*
X622500D01*
Y91751D01*
X623549Y92185D01*
X624815Y93451D01*
X625249Y94500D01*
D02*
G37*
G36*
X619500D02*
X616751D01*
X617185Y93451D01*
X618451Y92185D01*
X619500Y91751D01*
Y94500D01*
D02*
G37*
G36*
X378000Y93750D02*
X357000D01*
Y83750D01*
X378000D01*
Y83750D01*
X378654Y84187D01*
X379105Y84000D01*
X380895D01*
X382549Y84685D01*
X383815Y85951D01*
X384500Y87605D01*
Y89395D01*
X383815Y91049D01*
X382549Y92315D01*
X380895Y93000D01*
X379105D01*
X379056Y92980D01*
X378000Y93685D01*
Y93750D01*
D02*
G37*
G36*
X487500Y119750D02*
X472500D01*
Y111250D01*
X476941D01*
Y98017D01*
X470424Y91500D01*
X469355D01*
X467701Y90815D01*
X466435Y89549D01*
X465750Y87895D01*
Y86105D01*
X466435Y84451D01*
X467701Y83185D01*
X469355Y82500D01*
X471145D01*
X472799Y83185D01*
X474065Y84451D01*
X474750Y86105D01*
Y87174D01*
X482163Y94587D01*
X482163Y94587D01*
X482826Y95580D01*
X483059Y96750D01*
Y111250D01*
X487500D01*
Y119750D01*
D02*
G37*
G36*
X516500Y82479D02*
Y79730D01*
X519250D01*
X518815Y80779D01*
X517549Y82045D01*
X516500Y82479D01*
D02*
G37*
G36*
X513500D02*
X512451Y82045D01*
X511185Y80779D01*
X510751Y79730D01*
X513500D01*
Y82479D01*
D02*
G37*
G36*
Y76730D02*
X510751D01*
X511185Y75681D01*
X512451Y74415D01*
X513500Y73980D01*
Y76730D01*
D02*
G37*
G36*
X622500Y75249D02*
Y72500D01*
X625249D01*
X624815Y73549D01*
X623549Y74815D01*
X622500Y75249D01*
D02*
G37*
G36*
X619500D02*
X618451Y74815D01*
X617185Y73549D01*
X616751Y72500D01*
X619500D01*
Y75249D01*
D02*
G37*
G36*
X572500D02*
Y72500D01*
X575249D01*
X574815Y73549D01*
X573549Y74815D01*
X572500Y75249D01*
D02*
G37*
G36*
X569500D02*
X568451Y74815D01*
X567185Y73549D01*
X566751Y72500D01*
X569500D01*
Y75249D01*
D02*
G37*
G36*
X522500D02*
Y72500D01*
X525249D01*
X524815Y73549D01*
X523549Y74815D01*
X522500Y75249D01*
D02*
G37*
G36*
X519250Y76730D02*
X516500D01*
Y73114D01*
X516855Y72753D01*
X516751Y72500D01*
X519500D01*
Y76116D01*
X519145Y76477D01*
X519250Y76730D01*
D02*
G37*
G36*
X472500Y75249D02*
Y72500D01*
X475249D01*
X474815Y73549D01*
X473549Y74815D01*
X472500Y75249D01*
D02*
G37*
G36*
X469500D02*
X468451Y74815D01*
X467185Y73549D01*
X466751Y72500D01*
X469500D01*
Y75249D01*
D02*
G37*
G36*
X625249Y69500D02*
X622500D01*
Y66751D01*
X623549Y67185D01*
X624815Y68451D01*
X625249Y69500D01*
D02*
G37*
G36*
X619500D02*
X616751D01*
X617185Y68451D01*
X618451Y67185D01*
X619500Y66751D01*
Y69500D01*
D02*
G37*
G36*
X575249D02*
X572500D01*
Y66751D01*
X573549Y67185D01*
X574815Y68451D01*
X575249Y69500D01*
D02*
G37*
G36*
X569500D02*
X566751D01*
X567185Y68451D01*
X568451Y67185D01*
X569500Y66751D01*
Y69500D01*
D02*
G37*
G36*
X525249D02*
X522500D01*
Y66751D01*
X523549Y67185D01*
X524815Y68451D01*
X525249Y69500D01*
D02*
G37*
G36*
X519500D02*
X516751D01*
X517185Y68451D01*
X518451Y67185D01*
X519500Y66751D01*
Y69500D01*
D02*
G37*
G36*
X475249D02*
X472500D01*
Y66751D01*
X473549Y67185D01*
X474815Y68451D01*
X475249Y69500D01*
D02*
G37*
G36*
X469500D02*
X466751D01*
X467185Y68451D01*
X468451Y67185D01*
X469500Y66751D01*
Y69500D01*
D02*
G37*
G36*
X622500Y50249D02*
Y47500D01*
X625249D01*
X624815Y48549D01*
X623549Y49815D01*
X622500Y50249D01*
D02*
G37*
G36*
X619500D02*
X618451Y49815D01*
X617185Y48549D01*
X616751Y47500D01*
X619500D01*
Y50249D01*
D02*
G37*
G36*
X472500D02*
Y47500D01*
X475249D01*
X474815Y48549D01*
X473549Y49815D01*
X472500Y50249D01*
D02*
G37*
G36*
X469500D02*
X468451Y49815D01*
X467185Y48549D01*
X466751Y47500D01*
X469500D01*
Y50249D01*
D02*
G37*
G36*
X625249Y44500D02*
X622500D01*
Y41751D01*
X623549Y42185D01*
X624815Y43451D01*
X625249Y44500D01*
D02*
G37*
G36*
X619500D02*
X616751D01*
X617185Y43451D01*
X618451Y42185D01*
X619500Y41751D01*
Y44500D01*
D02*
G37*
G36*
X475249D02*
X472500D01*
Y41751D01*
X473549Y42185D01*
X474815Y43451D01*
X475249Y44500D01*
D02*
G37*
G36*
X469500D02*
X466751D01*
X467185Y43451D01*
X468451Y42185D01*
X469500Y41751D01*
Y44500D01*
D02*
G37*
G36*
X599422Y50000D02*
X597578D01*
X595798Y49523D01*
X594202Y48601D01*
X592899Y47298D01*
X591977Y45702D01*
X591500Y43922D01*
Y42078D01*
X591977Y40298D01*
X592899Y38702D01*
X594202Y37399D01*
X595798Y36477D01*
X597578Y36000D01*
X599422D01*
X601202Y36477D01*
X602798Y37399D01*
X604101Y38702D01*
X605023Y40298D01*
X605500Y42078D01*
Y43922D01*
X605023Y45702D01*
X604101Y47298D01*
X602798Y48601D01*
X601202Y49523D01*
X599422Y50000D01*
D02*
G37*
G36*
X574022D02*
X572178D01*
X570398Y49523D01*
X568802Y48601D01*
X567499Y47298D01*
X566577Y45702D01*
X566100Y43922D01*
Y42078D01*
X566577Y40298D01*
X567499Y38702D01*
X568802Y37399D01*
X570398Y36477D01*
X572178Y36000D01*
X574022D01*
X575802Y36477D01*
X577398Y37399D01*
X578701Y38702D01*
X579623Y40298D01*
X580100Y42078D01*
Y43922D01*
X579623Y45702D01*
X578701Y47298D01*
X577398Y48601D01*
X575802Y49523D01*
X574022Y50000D01*
D02*
G37*
G36*
X548622D02*
X546778D01*
X544998Y49523D01*
X543402Y48601D01*
X542099Y47298D01*
X541177Y45702D01*
X540700Y43922D01*
Y42078D01*
X541177Y40298D01*
X542099Y38702D01*
X543402Y37399D01*
X544998Y36477D01*
X546778Y36000D01*
X548622D01*
X550402Y36477D01*
X551998Y37399D01*
X553301Y38702D01*
X554223Y40298D01*
X554700Y42078D01*
Y43922D01*
X554223Y45702D01*
X553301Y47298D01*
X551998Y48601D01*
X550402Y49523D01*
X548622Y50000D01*
D02*
G37*
G36*
X523222D02*
X521378D01*
X519598Y49523D01*
X518002Y48601D01*
X516699Y47298D01*
X515777Y45702D01*
X515300Y43922D01*
Y42078D01*
X515777Y40298D01*
X516699Y38702D01*
X518002Y37399D01*
X519598Y36477D01*
X521378Y36000D01*
X523222D01*
X525002Y36477D01*
X526598Y37399D01*
X527901Y38702D01*
X528823Y40298D01*
X529300Y42078D01*
Y43922D01*
X528823Y45702D01*
X527901Y47298D01*
X526598Y48601D01*
X525002Y49523D01*
X523222Y50000D01*
D02*
G37*
G36*
X497822D02*
X495978D01*
X494198Y49523D01*
X492602Y48601D01*
X491299Y47298D01*
X490377Y45702D01*
X489900Y43922D01*
Y42078D01*
X490377Y40298D01*
X491299Y38702D01*
X492602Y37399D01*
X494198Y36477D01*
X495978Y36000D01*
X497822D01*
X499602Y36477D01*
X501198Y37399D01*
X502501Y38702D01*
X503423Y40298D01*
X503900Y42078D01*
Y43922D01*
X503423Y45702D01*
X502501Y47298D01*
X501198Y48601D01*
X499602Y49523D01*
X497822Y50000D01*
D02*
G37*
G36*
X622500Y25249D02*
Y22500D01*
X625249D01*
X624815Y23549D01*
X623549Y24815D01*
X622500Y25249D01*
D02*
G37*
G36*
X619500D02*
X618451Y24815D01*
X617185Y23549D01*
X616751Y22500D01*
X619500D01*
Y25249D01*
D02*
G37*
G36*
X597500D02*
Y22500D01*
X600249D01*
X599815Y23549D01*
X598549Y24815D01*
X597500Y25249D01*
D02*
G37*
G36*
X594500D02*
X593451Y24815D01*
X592185Y23549D01*
X591751Y22500D01*
X594500D01*
Y25249D01*
D02*
G37*
G36*
X547500D02*
Y22500D01*
X550249D01*
X549815Y23549D01*
X548549Y24815D01*
X547500Y25249D01*
D02*
G37*
G36*
X544500D02*
X543451Y24815D01*
X542185Y23549D01*
X541751Y22500D01*
X544500D01*
Y25249D01*
D02*
G37*
G36*
X497500D02*
Y22500D01*
X500249D01*
X499815Y23549D01*
X498549Y24815D01*
X497500Y25249D01*
D02*
G37*
G36*
X494500D02*
X493451Y24815D01*
X492185Y23549D01*
X491751Y22500D01*
X494500D01*
Y25249D01*
D02*
G37*
G36*
X472500D02*
Y22500D01*
X475249D01*
X474815Y23549D01*
X473549Y24815D01*
X472500Y25249D01*
D02*
G37*
G36*
X469500D02*
X468451Y24815D01*
X467185Y23549D01*
X466751Y22500D01*
X469500D01*
Y25249D01*
D02*
G37*
G36*
X447500D02*
Y22500D01*
X450249D01*
X449815Y23549D01*
X448549Y24815D01*
X447500Y25249D01*
D02*
G37*
G36*
X444500D02*
X443451Y24815D01*
X442185Y23549D01*
X441751Y22500D01*
X444500D01*
Y25249D01*
D02*
G37*
G36*
X625249Y19500D02*
X622500D01*
Y16751D01*
X623549Y17185D01*
X624815Y18451D01*
X625249Y19500D01*
D02*
G37*
G36*
X619500D02*
X616751D01*
X617185Y18451D01*
X618451Y17185D01*
X619500Y16751D01*
Y19500D01*
D02*
G37*
G36*
X600249D02*
X597500D01*
Y16751D01*
X598549Y17185D01*
X599815Y18451D01*
X600249Y19500D01*
D02*
G37*
G36*
X594500D02*
X591751D01*
X592185Y18451D01*
X593451Y17185D01*
X594500Y16751D01*
Y19500D01*
D02*
G37*
G36*
X550249D02*
X547500D01*
Y16751D01*
X548549Y17185D01*
X549815Y18451D01*
X550249Y19500D01*
D02*
G37*
G36*
X544500D02*
X541751D01*
X542185Y18451D01*
X543451Y17185D01*
X544500Y16751D01*
Y19500D01*
D02*
G37*
G36*
X500249D02*
X497500D01*
Y16751D01*
X498549Y17185D01*
X499815Y18451D01*
X500249Y19500D01*
D02*
G37*
G36*
X494500D02*
X491751D01*
X492185Y18451D01*
X493451Y17185D01*
X494500Y16751D01*
Y19500D01*
D02*
G37*
G36*
X475249D02*
X472500D01*
Y16751D01*
X473549Y17185D01*
X474815Y18451D01*
X475249Y19500D01*
D02*
G37*
G36*
X469500D02*
X466751D01*
X467185Y18451D01*
X468451Y17185D01*
X469500Y16751D01*
Y19500D01*
D02*
G37*
G36*
X450249D02*
X447500D01*
Y16751D01*
X448549Y17185D01*
X449815Y18451D01*
X450249Y19500D01*
D02*
G37*
G36*
X444500D02*
X441751D01*
X442185Y18451D01*
X443451Y17185D01*
X444500Y16751D01*
Y19500D01*
D02*
G37*
G36*
X574351Y27100D02*
X571849D01*
X569433Y26453D01*
X567267Y25202D01*
X565498Y23433D01*
X564247Y21267D01*
X563600Y18851D01*
Y16349D01*
X564247Y13933D01*
X565498Y11767D01*
X567267Y9998D01*
X569433Y8747D01*
X571849Y8100D01*
X574351D01*
X576767Y8747D01*
X578933Y9998D01*
X580702Y11767D01*
X581953Y13933D01*
X582600Y16349D01*
Y18851D01*
X581953Y21267D01*
X580702Y23433D01*
X578933Y25202D01*
X576767Y26453D01*
X574351Y27100D01*
D02*
G37*
%LPD*%
G36*
X543000Y157209D02*
X542852Y157148D01*
X542376Y156000D01*
Y149750D01*
X542626Y149146D01*
Y144000D01*
X527500D01*
Y144750D01*
X512500D01*
Y144750D01*
X511230Y144375D01*
X510802Y144802D01*
X509976Y145355D01*
X509000Y145549D01*
X504750D01*
Y147000D01*
X495250D01*
Y139000D01*
X504750D01*
Y140451D01*
X507944D01*
X508000Y140395D01*
Y124000D01*
X471000D01*
Y160000D01*
X543000D01*
Y157209D01*
D02*
G37*
G36*
X506000Y184000D02*
X613000D01*
Y137624D01*
X571000D01*
X570098Y137250D01*
X570000D01*
Y137209D01*
X569852Y137148D01*
X569376Y136000D01*
Y128000D01*
X559296D01*
X557624Y129672D01*
Y130250D01*
X557374Y130854D01*
Y136750D01*
X558547Y136750D01*
X565250D01*
Y143250D01*
X558644D01*
X557374Y144520D01*
Y149146D01*
X557624Y149750D01*
Y156000D01*
X557148Y157148D01*
X557000Y157209D01*
Y161000D01*
X544209D01*
X544148Y161148D01*
X543000Y161624D01*
X471000D01*
X469852Y161148D01*
X469791Y161000D01*
X468000D01*
Y142000D01*
X422000D01*
X417000Y147000D01*
Y187000D01*
X432000Y202000D01*
X488000D01*
X506000Y184000D01*
D02*
G37*
%LPC*%
G36*
X428395Y186250D02*
X426605D01*
X424951Y185565D01*
X423685Y184299D01*
X423000Y182645D01*
Y180855D01*
X423685Y179201D01*
X424951Y177935D01*
X426605Y177250D01*
X428395D01*
X430049Y177935D01*
X431315Y179201D01*
X432000Y180855D01*
Y182645D01*
X431315Y184299D01*
X430049Y185565D01*
X428395Y186250D01*
D02*
G37*
G36*
X470895Y181480D02*
X469105D01*
X467451Y180795D01*
X466185Y179529D01*
X465500Y177875D01*
Y176084D01*
X466185Y174431D01*
X467451Y173165D01*
X469105Y172480D01*
X470895D01*
X472549Y173165D01*
X473815Y174431D01*
X474500Y176084D01*
Y177875D01*
X473815Y179529D01*
X472549Y180795D01*
X470895Y181480D01*
D02*
G37*
G36*
X464700Y172500D02*
X445700D01*
Y152500D01*
X464700D01*
Y172500D01*
D02*
G37*
G36*
X191000Y235250D02*
X188000D01*
Y232250D01*
X191000D01*
Y235250D01*
D02*
G37*
G36*
X185000D02*
X182000D01*
Y232250D01*
X185000D01*
Y235250D01*
D02*
G37*
G36*
X191000Y229250D02*
X188000D01*
Y226250D01*
X191000D01*
Y229250D01*
D02*
G37*
G36*
X185000D02*
X182000D01*
Y226250D01*
X185000D01*
Y229250D01*
D02*
G37*
G36*
X294500Y181250D02*
X293230Y180499D01*
X293230Y180499D01*
Y176250D01*
Y172001D01*
X293230Y172001D01*
X294500Y171250D01*
Y171250D01*
X303500D01*
Y176250D01*
Y181250D01*
X294500D01*
Y181250D01*
D02*
G37*
G36*
X315500Y181250D02*
X306500D01*
Y177750D01*
X315500D01*
Y181250D01*
D02*
G37*
G36*
Y174750D02*
X306500D01*
Y171250D01*
X315500D01*
Y174750D01*
D02*
G37*
G36*
Y168750D02*
X306500D01*
Y165250D01*
X315500D01*
Y168750D01*
D02*
G37*
G36*
Y162250D02*
X306500D01*
Y158750D01*
X315500D01*
Y162250D01*
D02*
G37*
G36*
X303500Y168750D02*
X294500D01*
Y168478D01*
X293500Y167810D01*
Y163500D01*
Y159251D01*
X293655Y159315D01*
X294500Y158750D01*
Y158750D01*
X303500D01*
Y163750D01*
Y168750D01*
D02*
G37*
G36*
X315500Y131250D02*
Y131250D01*
X294500D01*
Y121250D01*
X315500D01*
Y121250D01*
X316289Y121777D01*
X316355Y121750D01*
X318145D01*
X319799Y122435D01*
X321065Y123701D01*
X321750Y125355D01*
Y127145D01*
X321065Y128799D01*
X319799Y130065D01*
X318145Y130750D01*
X316355D01*
X316289Y130723D01*
X315500Y131250D01*
D02*
G37*
G36*
Y118750D02*
Y118750D01*
X294500D01*
Y108750D01*
X315500D01*
Y108750D01*
X316289Y109277D01*
X316355Y109250D01*
X318145D01*
X319799Y109935D01*
X321065Y111201D01*
X321750Y112855D01*
Y114645D01*
X321065Y116299D01*
X319799Y117565D01*
X318145Y118250D01*
X316355D01*
X316289Y118223D01*
X315500Y118750D01*
D02*
G37*
G36*
X297500Y50249D02*
Y47500D01*
X300249D01*
X299815Y48549D01*
X298549Y49815D01*
X297500Y50249D01*
D02*
G37*
%LPD*%
D10*
X173500Y236450D02*
X177050Y240000D01*
X173500Y230750D02*
Y236450D01*
X142500Y224250D02*
X144260Y226010D01*
X168760D01*
X173500Y230750D01*
X177050Y240000D02*
X260000D01*
X174075Y245875D02*
X176625D01*
X180000Y249250D01*
X173310Y245110D02*
X174075Y245875D01*
X161500Y247750D02*
X165475D01*
X168115Y245110D01*
X173310D01*
X151000Y247750D02*
X161500D01*
X161500Y234000D02*
Y247750D01*
X161500Y247750D02*
X161500Y247750D01*
X57500Y212500D02*
X62000D01*
X62125Y212375D01*
X76125D01*
X73191Y207500D02*
X75939Y204751D01*
X76099D01*
X76125Y212375D02*
X76250Y212250D01*
X62000Y207500D02*
X73191D01*
X62375Y217875D02*
X69875D01*
X70250Y218250D01*
X62000Y217500D02*
X62375Y217875D01*
X88000Y225000D02*
X93750D01*
X71088Y156588D02*
Y170088D01*
X69500Y155000D02*
X71088Y156588D01*
X69500Y149750D02*
Y155000D01*
X58250Y147500D02*
X67250D01*
X69500Y149750D01*
X71088Y170088D02*
X78500Y177500D01*
X72250Y198000D02*
X78500Y191750D01*
Y177500D02*
Y191750D01*
X53000Y206000D02*
X55500Y208500D01*
X50500Y206000D02*
X53000D01*
X50000Y205500D02*
X50500Y206000D01*
X55500Y210500D02*
X57500Y212500D01*
X55500Y208500D02*
Y210500D01*
X270250Y173750D02*
X272000Y175500D01*
X261250Y166250D02*
X270250D01*
X261250Y173750D02*
X270250D01*
Y166250D02*
X272000Y164500D01*
X60500Y198000D02*
X72250D01*
X337250Y175500D02*
X350750Y189000D01*
X333250Y57500D02*
Y89750D01*
X337250Y93750D02*
Y175500D01*
X333250Y89750D02*
X337250Y93750D01*
X340750Y173000D02*
X355000Y187250D01*
X340750Y80750D02*
Y173000D01*
Y80750D02*
X345500Y76000D01*
X348750Y143250D02*
X353250Y138750D01*
X367500D01*
X260000Y240000D02*
X301750D01*
X260000Y240000D02*
Y258000D01*
X260000Y240000D02*
X260000Y240000D01*
X123000Y120500D02*
X133750D01*
X123000Y142500D02*
X134000D01*
X123000Y153500D02*
X134000D01*
X427250Y103000D02*
Y120250D01*
X432000Y125000D01*
X421500Y97250D02*
X427250Y103000D01*
X408000Y97250D02*
X421500D01*
X399250Y123000D02*
X403250Y127000D01*
X399250Y89450D02*
Y123000D01*
Y89450D02*
X408200Y80500D01*
X433750D01*
X443000Y71250D01*
Y41250D02*
Y71250D01*
X406500Y4750D02*
X443000Y41250D01*
X418375Y23539D02*
Y71625D01*
X395750Y88000D02*
X406750Y77000D01*
X413000D01*
X418375Y71625D01*
X395750Y88000D02*
Y137500D01*
X403086Y8250D02*
X418375Y23539D01*
X302500Y8250D02*
X403086D01*
X282750Y74750D02*
Y77000D01*
X367500Y27500D02*
Y63750D01*
X400467Y69783D02*
X410375Y59875D01*
Y30875D02*
Y59875D01*
X402000Y27750D02*
X407250D01*
X410375Y30875D01*
X520000Y129500D02*
Y140500D01*
X500000Y143000D02*
X509000D01*
X500000Y143000D02*
X500000Y143000D01*
X509000D02*
X511500Y140500D01*
X520000D01*
X520500Y140000D01*
X539500D01*
X380219Y69783D02*
X400467D01*
X351500Y59500D02*
X358500Y52500D01*
X351500Y59500D02*
Y72750D01*
X355000Y76250D02*
X367500D01*
X351500Y72750D02*
X355000Y76250D01*
X367500D02*
X367500Y76250D01*
X367500Y88750D02*
X367750Y88500D01*
X380000D01*
X367500Y101250D02*
X379750D01*
X367500Y113750D02*
X380000D01*
X367750Y126500D02*
X380250D01*
X367500Y126250D02*
X367750Y126500D01*
X286230Y151992D02*
X292000Y146222D01*
Y140672D02*
Y146222D01*
X286230Y151992D02*
Y191980D01*
X282730Y150542D02*
Y194730D01*
Y150542D02*
X288500Y144772D01*
Y95498D02*
Y144772D01*
X284500Y26250D02*
X302500Y8250D01*
X298750Y4750D02*
X406500D01*
X288000Y15500D02*
X298750Y4750D01*
X263500Y15500D02*
X288000D01*
X300250Y17250D02*
X329578D01*
X331828Y15000D02*
X332750D01*
X329578Y17250D02*
X331828Y15000D01*
X301500Y21750D02*
X336343D01*
X338843Y19250D02*
X339500D01*
X336343Y21750D02*
X338843Y19250D01*
X345500Y58000D02*
X349750Y53750D01*
Y37500D02*
Y53750D01*
X345500Y58000D02*
Y76000D01*
X355000Y187250D02*
Y208000D01*
X350750Y189000D02*
Y206250D01*
X339250Y217750D02*
X350750Y206250D01*
X343750Y219250D02*
Y244000D01*
Y219250D02*
X355000Y208000D01*
X340000Y247750D02*
X343750Y244000D01*
X340000Y247750D02*
Y258000D01*
X339250Y217750D02*
Y241250D01*
X304500Y247250D02*
X333250D01*
X339250Y241250D01*
X300000Y251750D02*
X304500Y247250D01*
X300000Y251750D02*
Y258000D01*
X306000Y211750D02*
X328250D01*
X333250Y216750D01*
X326750Y241750D02*
X333250Y235250D01*
Y216750D02*
Y235250D01*
X293500Y78500D02*
Y90498D01*
X290000Y75000D02*
X293500Y78500D01*
X289500Y83750D02*
Y89548D01*
X282750Y77000D02*
X289500Y83750D01*
X289750Y33500D02*
X301500Y21750D01*
X182750Y33500D02*
X289750D01*
X287750Y29750D02*
X300250Y17250D01*
X192250Y29750D02*
X287750D01*
X288500Y95498D02*
X293500Y90498D01*
X283000Y96048D02*
X289500Y89548D01*
X420000Y265250D02*
Y272000D01*
X292000Y140672D02*
X293922Y138750D01*
X305000D01*
X281250Y131500D02*
X283000Y129750D01*
Y96048D02*
Y129750D01*
X286230Y191980D02*
X306000Y211750D01*
X282730Y194730D02*
X307750Y219750D01*
Y234000D01*
X301750Y240000D02*
X307750Y234000D01*
X240000Y251500D02*
Y258000D01*
X263750Y214750D02*
Y225750D01*
X263500Y214500D02*
X263750Y214750D01*
X252250Y214750D02*
X252500Y214500D01*
X252250Y214750D02*
Y225750D01*
X241500Y214500D02*
X241750Y214750D01*
Y225750D01*
X230500Y214500D02*
X230500Y214500D01*
X230500Y214500D02*
Y226250D01*
X252500Y25000D02*
X253750Y26250D01*
X284500D01*
X252500Y15500D02*
Y25000D01*
X186500Y24000D02*
X192250Y29750D01*
X175500Y26250D02*
X182750Y33500D01*
X186500Y15500D02*
Y24000D01*
X175500Y15500D02*
Y26250D01*
X272000Y131500D02*
X281250D01*
X221500Y236500D02*
X283300D01*
X294800Y225000D02*
Y225000D01*
X283300Y236500D02*
X294800Y225000D01*
X208500Y223500D02*
X221500Y236500D01*
X208500Y214500D02*
Y223500D01*
X219250Y214750D02*
Y225250D01*
Y214750D02*
X219500Y214500D01*
X186500Y202750D02*
Y214500D01*
X175500Y203000D02*
Y214500D01*
X148500Y234000D02*
Y245250D01*
X151000Y247750D01*
X142500Y214500D02*
Y224250D01*
X87588Y225412D02*
X88000Y225000D01*
X164500Y203250D02*
Y214500D01*
X305000Y46250D02*
X313750Y37500D01*
X305000Y46250D02*
Y63750D01*
X310500Y76250D02*
X319250Y67500D01*
X305000Y76250D02*
X310500D01*
X319250Y57500D02*
Y67500D01*
X319500Y77500D02*
Y86500D01*
X305000Y88750D02*
X317250D01*
X319500Y86500D01*
X305000Y101250D02*
X315500D01*
X319250Y97500D01*
X305000Y113750D02*
X317250D01*
X305000Y126250D02*
X317250D01*
X23234Y262975D02*
G03*
X27344Y264678I0J5812D01*
G01*
X28985Y266319D02*
G03*
X29050Y266475I-156J156D01*
G01*
X43121Y265597D02*
G03*
X41000Y266475I-2121J-2121D01*
G01*
X44000Y263475D02*
G03*
X43121Y265597I-3000J0D01*
G01*
X43543Y154801D02*
G03*
X44000Y155903I-1103J1103D01*
G01*
X41000Y153500D02*
G03*
X43121Y154379I0J3000D01*
G01*
X29050Y153500D02*
G03*
X28985Y153656I-221J0D01*
G01*
X27344Y155298D02*
G03*
X23234Y157000I-4110J-4110D01*
G01*
X0Y262975D02*
Y280000D01*
X44000Y263475D02*
X44000Y155903D01*
X0Y262975D02*
X23234D01*
X27344Y264678D02*
X28985Y266319D01*
X29050Y266475D02*
X41000D01*
X43121Y265597D02*
Y265597D01*
Y154379D02*
X43543Y154801D01*
X29050Y153500D02*
X41000D01*
X27344Y155298D02*
X28985Y153656D01*
X0Y157000D02*
X23234D01*
X0Y127250D02*
Y156975D01*
Y127250D02*
X30000D01*
Y77750D02*
Y127250D01*
X0Y77750D02*
X30000D01*
X0Y0D02*
Y77750D01*
Y280000D02*
X650000D01*
Y0D02*
Y280000D01*
X0Y0D02*
X650000D01*
D11*
X50000Y195500D02*
X55250D01*
X57250Y193500D01*
D13*
X70438Y228750D02*
X71250D01*
X68188Y226500D02*
X70438Y228750D01*
X62000Y226500D02*
X68188D01*
X57500D02*
X62000D01*
X56250Y178500D02*
X71250D01*
X100000Y115000D02*
X106000D01*
X78500Y53500D02*
Y55000D01*
X75500Y50500D02*
X78500Y53500D01*
X70000Y50500D02*
X75500D01*
X87500Y37000D02*
Y38000D01*
Y37000D02*
X97000Y27500D01*
Y22250D02*
Y27500D01*
X86250Y7000D02*
X89750Y3500D01*
X86250Y7000D02*
Y12000D01*
X89750Y3500D02*
X103000D01*
X106000Y6500D01*
Y34000D01*
X96500Y43500D02*
X106000Y34000D01*
X96500Y43500D02*
Y55000D01*
X78000Y12000D02*
X86250D01*
X480000Y96750D02*
Y115500D01*
X470250Y87000D02*
X480000Y96750D01*
X410500Y69250D02*
X414375Y65375D01*
Y26625D02*
Y65375D01*
X409125Y21375D02*
X414375Y26625D01*
X282750Y69250D02*
X286500Y65500D01*
X282750Y69250D02*
Y74750D01*
X286500Y45500D02*
Y65500D01*
Y45500D02*
X303750Y28250D01*
X347000D01*
X353875Y21375D02*
X409125D01*
X347000Y28250D02*
X353875Y21375D01*
X440000Y251000D02*
Y258000D01*
X420000Y272000D02*
X440000D01*
X380000D02*
X400000D01*
X354800Y225000D02*
Y236550D01*
X360000Y241750D01*
Y258000D01*
X320250Y264500D02*
X360000D01*
X282250D02*
X320250D01*
X320000Y258000D02*
Y264250D01*
X320250Y264500D01*
X360000D02*
X398000D01*
X360000Y258000D02*
Y264500D01*
X400000Y258000D02*
Y262500D01*
X398000Y264500D02*
X400000Y262500D01*
X280000Y262250D02*
X282250Y264500D01*
X280000Y258000D02*
Y262250D01*
X340000Y272000D02*
X360000D01*
X300000D02*
X320000D01*
X260000D02*
X280000D01*
X220000D02*
X240000D01*
X200000D02*
X220000D01*
X200000Y266000D02*
Y272000D01*
X154750Y263750D02*
Y269750D01*
X155000Y256000D02*
Y263500D01*
X154500Y270000D02*
X154750Y269750D01*
Y263750D02*
X155000Y263500D01*
X180000Y258000D02*
X183250D01*
X193500Y247750D01*
X199250D01*
X200000Y247000D01*
X137000Y255000D02*
X148250D01*
X148500Y255250D01*
Y256000D01*
X110250Y255000D02*
X123000D01*
X161500Y262000D02*
X171500Y272000D01*
X180000D01*
X161500Y256000D02*
Y262000D01*
X57250Y193500D02*
X62000D01*
X70438Y190750D02*
X71250D01*
X62000Y193500D02*
X67688D01*
X70438Y190750D01*
X55500Y224500D02*
X57500Y226500D01*
X50000Y224500D02*
X55500D01*
X546000Y133500D02*
X550000Y137500D01*
Y140000D01*
X539500Y133500D02*
X546000D01*
X550000Y140000D02*
X560500D01*
X123000Y131500D02*
X134250D01*
X54250Y180500D02*
X56250Y178500D01*
X50000Y180500D02*
X54250D01*
Y239500D02*
X56250Y241500D01*
X62000D01*
X67438D01*
X69188Y243250D01*
X70000D01*
X50000Y239500D02*
X54250D01*
D15*
X57750Y198000D02*
X60500D01*
X55250Y200500D02*
X57750Y198000D01*
X50000Y200500D02*
X55250D01*
D16*
X86000Y141750D02*
D03*
X95000D02*
D03*
X145500Y270000D02*
D03*
X154500D02*
D03*
D17*
X86000Y124000D02*
D03*
Y133000D02*
D03*
X500000Y143000D02*
D03*
Y152000D02*
D03*
D18*
X173500Y230750D02*
D03*
X186500D02*
D03*
X180000Y249250D02*
D03*
D19*
X240000Y258000D02*
D03*
Y272000D02*
D03*
X200000D02*
D03*
Y258000D02*
D03*
X220000Y272000D02*
D03*
Y258000D02*
D03*
X520000Y115500D02*
D03*
Y129500D02*
D03*
Y140500D02*
D03*
Y154500D02*
D03*
X400000Y258000D02*
D03*
Y272000D02*
D03*
X280000Y258000D02*
D03*
Y272000D02*
D03*
X320000Y258000D02*
D03*
Y272000D02*
D03*
X360000Y258000D02*
D03*
Y272000D02*
D03*
X480000Y129500D02*
D03*
Y115500D02*
D03*
X500000D02*
D03*
Y129500D02*
D03*
X577500Y147000D02*
D03*
Y133000D02*
D03*
X440000Y272000D02*
D03*
Y258000D02*
D03*
X180000D02*
D03*
Y272000D02*
D03*
D20*
X86000Y89750D02*
D03*
Y102250D02*
D03*
D21*
X48400Y102500D02*
D03*
D22*
X102000Y225000D02*
D03*
X88000D02*
D03*
X123000Y255000D02*
D03*
X137000D02*
D03*
D23*
X62000Y241500D02*
D03*
Y236500D02*
D03*
Y231500D02*
D03*
Y226500D02*
D03*
Y217500D02*
D03*
Y212500D02*
D03*
Y207500D02*
D03*
Y202500D02*
D03*
Y193500D02*
D03*
Y188500D02*
D03*
Y183500D02*
D03*
Y178500D02*
D03*
X50000Y180500D02*
D03*
Y185500D02*
D03*
Y190500D02*
D03*
Y195500D02*
D03*
Y200500D02*
D03*
Y205500D02*
D03*
Y214500D02*
D03*
Y219500D02*
D03*
Y224500D02*
D03*
Y229500D02*
D03*
Y234500D02*
D03*
Y239500D02*
D03*
D24*
X380000Y272000D02*
D03*
Y258000D02*
D03*
X260000D02*
D03*
Y272000D02*
D03*
X300000Y258000D02*
D03*
Y272000D02*
D03*
X340000Y258000D02*
D03*
Y272000D02*
D03*
X420000D02*
D03*
Y258000D02*
D03*
X200000Y247000D02*
D03*
Y233000D02*
D03*
D25*
X550000Y140000D02*
D03*
D26*
X560500Y146500D02*
D03*
Y140000D02*
D03*
Y133500D02*
D03*
X539500D02*
D03*
Y140000D02*
D03*
Y146500D02*
D03*
D27*
X123000Y186500D02*
D03*
Y175500D02*
D03*
Y164500D02*
D03*
Y153500D02*
D03*
Y142500D02*
D03*
Y131500D02*
D03*
Y120500D02*
D03*
Y109500D02*
D03*
Y98500D02*
D03*
Y87500D02*
D03*
Y76500D02*
D03*
Y65500D02*
D03*
Y54500D02*
D03*
Y43500D02*
D03*
X272000D02*
D03*
Y54500D02*
D03*
Y65500D02*
D03*
Y76500D02*
D03*
Y87500D02*
D03*
Y98500D02*
D03*
Y109500D02*
D03*
Y120500D02*
D03*
Y131500D02*
D03*
Y142500D02*
D03*
Y153500D02*
D03*
Y164500D02*
D03*
Y175500D02*
D03*
Y186500D02*
D03*
D28*
X131500Y15500D02*
D03*
X142500D02*
D03*
X153500D02*
D03*
X164500D02*
D03*
X175500D02*
D03*
X186500D02*
D03*
X197500D02*
D03*
X208500D02*
D03*
X219500D02*
D03*
X230500D02*
D03*
X241500D02*
D03*
X252500D02*
D03*
X263500D02*
D03*
Y214500D02*
D03*
X252500D02*
D03*
X241500D02*
D03*
X230500D02*
D03*
X219500D02*
D03*
X208500D02*
D03*
X197500D02*
D03*
X186500D02*
D03*
X175500D02*
D03*
X164500D02*
D03*
X153500D02*
D03*
X142500D02*
D03*
X131500D02*
D03*
D29*
X145000Y188500D02*
D03*
X166000D02*
D03*
X187000D02*
D03*
X208000D02*
D03*
X229000D02*
D03*
X250000D02*
D03*
Y167500D02*
D03*
X229000D02*
D03*
X208000D02*
D03*
X187000D02*
D03*
X166000D02*
D03*
X145000D02*
D03*
Y146500D02*
D03*
X166000D02*
D03*
X187000D02*
D03*
X208000D02*
D03*
X229000D02*
D03*
X250000D02*
D03*
Y125500D02*
D03*
X229000D02*
D03*
X208000D02*
D03*
X187000D02*
D03*
X166000D02*
D03*
X145000D02*
D03*
Y104500D02*
D03*
X166000D02*
D03*
X187000D02*
D03*
X208000D02*
D03*
X229000D02*
D03*
X250000D02*
D03*
Y83500D02*
D03*
X229000D02*
D03*
X208000D02*
D03*
X187000D02*
D03*
X166000D02*
D03*
X145000D02*
D03*
Y62500D02*
D03*
X166000D02*
D03*
X187000D02*
D03*
X208000D02*
D03*
X229000D02*
D03*
X250000D02*
D03*
Y41500D02*
D03*
X229000D02*
D03*
X208000D02*
D03*
X187000D02*
D03*
X166000D02*
D03*
X145000D02*
D03*
D30*
X395500Y41250D02*
D03*
Y198750D02*
D03*
X333000Y41250D02*
D03*
Y198750D02*
D03*
D31*
X367500Y63750D02*
D03*
Y76250D02*
D03*
Y88750D02*
D03*
Y101250D02*
D03*
Y113750D02*
D03*
Y126250D02*
D03*
Y138750D02*
D03*
Y151250D02*
D03*
Y163750D02*
D03*
Y176250D02*
D03*
X305000Y63750D02*
D03*
Y76250D02*
D03*
Y88750D02*
D03*
Y101250D02*
D03*
Y113750D02*
D03*
Y126250D02*
D03*
Y138750D02*
D03*
Y151250D02*
D03*
Y163750D02*
D03*
Y176250D02*
D03*
D32*
X86000Y115000D02*
D03*
X100000D02*
D03*
D33*
X87500Y38000D02*
D03*
X97000Y12000D02*
D03*
X78000D02*
D03*
D34*
X78500Y55000D02*
D03*
X96500D02*
D03*
D35*
X161500Y256000D02*
D03*
X155000D02*
D03*
X148500D02*
D03*
X161500Y234000D02*
D03*
X155000D02*
D03*
X148500D02*
D03*
D36*
X110250Y255000D02*
D03*
D37*
X95000Y240250D02*
D03*
Y269750D02*
D03*
D38*
X354800Y225000D02*
D03*
X294800D02*
D03*
X455200Y55000D02*
D03*
X429800Y162500D02*
D03*
D39*
X380200Y225000D02*
D03*
X320200D02*
D03*
X429800Y55000D02*
D03*
X455200Y162500D02*
D03*
D40*
X471500Y237000D02*
D03*
X573100D02*
D03*
X547700D02*
D03*
X522300D02*
D03*
X496900D02*
D03*
Y43000D02*
D03*
X598500D02*
D03*
X573100D02*
D03*
X547700D02*
D03*
X522300D02*
D03*
D41*
X471500Y262400D02*
D03*
X522300D02*
D03*
X496900Y211600D02*
D03*
X547700D02*
D03*
X496900Y68400D02*
D03*
X547700D02*
D03*
X522300Y17600D02*
D03*
X573100D02*
D03*
D42*
Y262400D02*
D03*
X598500Y68400D02*
D03*
D43*
X601000Y122500D02*
D03*
D44*
Y157500D02*
D03*
D45*
X53100Y253250D02*
D03*
X53100Y166750D02*
D03*
D46*
X58099Y258749D02*
D03*
X17500Y270000D02*
D03*
Y150000D02*
D03*
X58100Y161250D02*
D03*
D47*
X35000Y25000D02*
D03*
X615000Y255000D02*
D03*
D48*
X104614Y175500D02*
G03*
X93750Y171000I0J-15364D01*
G01*
X93440Y170690D02*
G03*
X86000Y152729I17960J-17960D01*
G01*
X48400Y102500D02*
G03*
X49004Y102250I604J604D01*
G01*
X86000Y141750D02*
Y152729D01*
X93440Y170690D02*
X93750Y171000D01*
X62750Y41750D02*
X68250D01*
X97000Y13000D01*
Y12000D02*
Y13000D01*
X86000Y115000D02*
X86000Y115000D01*
Y124000D01*
Y133000D02*
Y141750D01*
X104614Y175500D02*
X123000D01*
X49004Y102250D02*
X86000D01*
X86000Y102250D02*
X86000Y102250D01*
X86000Y102250D02*
Y115000D01*
D49*
X48400Y74500D02*
D03*
Y130500D02*
D03*
D50*
X206696Y233000D02*
X207344Y232351D01*
X208859D02*
X209050Y232160D01*
X207344Y232351D02*
X208859D01*
X200000Y233000D02*
X206696D01*
X186500Y230750D02*
X190880Y226370D01*
X197070D01*
X102000Y225000D02*
X108750D01*
X44691Y131175D02*
X45366Y130500D01*
X44691Y131175D02*
Y141059D01*
X45366Y130500D02*
X48400D01*
X44500Y141250D02*
X44691Y141059D01*
X200000Y258000D02*
X209500D01*
X420000D02*
X420125Y258125D01*
X429375D01*
X429500Y258250D01*
X36000Y140979D02*
Y141250D01*
X36250Y132750D02*
Y140729D01*
X36000Y140979D02*
X36250Y140729D01*
X48400Y130500D02*
X66500D01*
X220000Y250750D02*
Y258000D01*
X271875Y98625D02*
X272000Y98500D01*
X261500Y98750D02*
X261625Y98625D01*
X271875D01*
X260750Y109500D02*
X272000D01*
X373000Y176250D02*
X380059Y183309D01*
X380559D01*
X367500Y176250D02*
X373000D01*
X380559Y183309D02*
X380750Y183500D01*
X305000Y151250D02*
X323744D01*
X330122Y157628D02*
Y176878D01*
X324500Y182500D02*
X330122Y176878D01*
X323744Y151250D02*
X330122Y157628D01*
X145000Y167500D02*
X155750D01*
X380979Y151250D02*
X382979Y153250D01*
X383250D01*
X367500Y151250D02*
X380979D01*
X577500Y126500D02*
Y133000D01*
X380000Y251000D02*
Y258000D01*
X260750Y189000D02*
X261021D01*
X263521Y186500D02*
X272000D01*
X261021Y189000D02*
X263521Y186500D01*
X263795Y153500D02*
X272000D01*
X261886Y155409D02*
X263795Y153500D01*
X261616Y155409D02*
X261886D01*
X282729Y142000D02*
X283000D01*
X272000Y142500D02*
X282229D01*
X282729Y142000D01*
X229000Y188500D02*
X240230D01*
X114229Y267250D02*
X114500D01*
X111729Y269750D02*
X114229Y267250D01*
X95000Y269750D02*
X111729D01*
X130771Y267500D02*
X133271Y270000D01*
X130500Y267500D02*
X130771D01*
X133271Y270000D02*
X145500D01*
X550000Y127750D02*
Y137500D01*
X229000Y167500D02*
Y188500D01*
X250000Y146500D02*
Y167500D01*
X229000D02*
X250000D01*
X208000Y136730D02*
X208000Y136730D01*
X208000Y125500D02*
X208000Y125500D01*
Y136730D01*
X145000Y125500D02*
X166000D01*
X145000Y146500D02*
X166000D01*
X26250Y70750D02*
X26500Y71000D01*
X26250Y61750D02*
Y70750D01*
X11750Y72500D02*
X12000Y72250D01*
Y61500D02*
Y72250D01*
X197500Y203000D02*
Y214500D01*
X155000Y234000D02*
Y241750D01*
X304875Y163625D02*
X305000Y163750D01*
X292125Y163625D02*
X304875D01*
X292000Y163500D02*
X292125Y163625D01*
X123000Y164500D02*
X134000D01*
X79730Y240250D02*
X82304D01*
X82304Y240250D01*
X95000D01*
X378196Y163750D02*
X380770D01*
X378196Y163750D02*
X378196Y163750D01*
X367500Y163750D02*
X378196D01*
X527696Y115500D02*
X530270D01*
X527696Y115500D02*
X527696Y115500D01*
X520000Y115500D02*
X527696D01*
X507696Y115500D02*
X510270D01*
X507696Y115500D02*
X507696Y115500D01*
X500000Y115500D02*
X507696D01*
X86000Y81480D02*
Y84054D01*
X86000Y84054D01*
Y89750D01*
X550000Y150196D02*
Y152770D01*
Y150196D02*
X550000Y150196D01*
Y140000D02*
Y150196D01*
X291730Y176250D02*
X294304D01*
X294304Y176250D01*
X305000D01*
X123000Y186500D02*
X134770D01*
X111230Y65500D02*
X123000D01*
X111230Y43500D02*
X113804D01*
X113804Y43500D01*
X123000D01*
X281196Y87500D02*
X283770D01*
X281196Y87500D02*
X281196Y87500D01*
X272000Y87500D02*
X281196D01*
X145000Y178730D02*
Y181304D01*
X145000Y181304D01*
Y188500D01*
X166000Y178730D02*
Y181304D01*
X166000Y181304D02*
X166000Y181304D01*
X166000Y181304D02*
Y188500D01*
X187000Y178730D02*
Y181304D01*
X187000Y181304D01*
Y188500D01*
X208000Y178730D02*
Y181304D01*
X208000Y181304D02*
X208000Y181304D01*
X208000Y181304D02*
Y188500D01*
X240230D02*
X250000D01*
X208000Y157730D02*
Y160304D01*
X208000Y160304D02*
X208000Y160304D01*
X208000Y160304D02*
Y167500D01*
X187000Y157730D02*
Y160304D01*
X187000Y160304D01*
Y167500D01*
X166000Y157730D02*
Y160304D01*
X166000Y160304D02*
X166000Y160304D01*
X166000Y160304D02*
Y167500D01*
X166000Y136730D02*
Y139304D01*
X166000Y139304D02*
X166000Y139304D01*
X166000Y139304D02*
Y146500D01*
X187000Y136730D02*
Y139304D01*
X187000Y139304D01*
Y146500D01*
X208000Y136730D02*
Y139304D01*
X208000Y139304D02*
X208000Y139304D01*
X208000Y139304D02*
Y146500D01*
X219230Y146500D02*
X221804D01*
X221804Y146500D01*
X229000D01*
X240230Y125500D02*
X242804D01*
X242804Y125500D01*
X250000D01*
X219230Y125500D02*
X221804D01*
X221804Y125500D01*
X229000D01*
X194196Y125500D02*
X196770D01*
X194196Y125500D02*
X194196Y125500D01*
X187000Y125500D02*
X194196D01*
X173196Y125500D02*
X175770D01*
X173196Y125500D02*
X173196Y125500D01*
X166000Y125500D02*
X173196D01*
X152196Y104500D02*
X154770D01*
X152196Y104500D02*
X152196Y104500D01*
X145000Y104500D02*
X152196D01*
X166000Y111696D02*
Y114270D01*
X166000Y111696D02*
X166000Y111696D01*
X166000Y104500D02*
Y111696D01*
X187000Y111696D02*
Y114270D01*
Y111696D02*
X187000Y111696D01*
Y104500D02*
Y111696D01*
X208000Y111696D02*
Y114270D01*
X208000Y111696D02*
X208000Y111696D01*
X208000Y104500D02*
Y111696D01*
X229000Y111696D02*
Y114270D01*
Y111696D02*
X229000Y111696D01*
Y104500D02*
Y111696D01*
X240230Y104500D02*
X242804D01*
X242804Y104500D01*
X250000D01*
X240230Y83500D02*
X242804D01*
X242804Y83500D01*
X250000D01*
X229000Y90696D02*
Y93270D01*
Y90696D02*
X229000Y90696D01*
Y83500D02*
Y90696D01*
X208000Y90696D02*
Y93270D01*
X208000Y90696D02*
X208000Y90696D01*
X208000Y83500D02*
Y90696D01*
X187000Y90696D02*
Y93270D01*
Y90696D02*
X187000Y90696D01*
Y83500D02*
Y90696D01*
X166000Y90696D02*
Y93270D01*
X166000Y90696D02*
X166000Y90696D01*
X166000Y83500D02*
Y90696D01*
X145000Y90696D02*
Y93270D01*
Y90696D02*
X145000Y90696D01*
Y83500D02*
Y90696D01*
X145000Y69696D02*
Y72270D01*
Y69696D02*
X145000Y69696D01*
Y62500D02*
Y69696D01*
X166000Y69696D02*
Y72270D01*
X166000Y69696D02*
X166000Y69696D01*
X166000Y62500D02*
Y69696D01*
X187000Y69696D02*
Y72270D01*
Y69696D02*
X187000Y69696D01*
Y62500D02*
Y69696D01*
X208000Y69696D02*
Y72270D01*
X208000Y69696D02*
X208000Y69696D01*
X208000Y62500D02*
Y69696D01*
X229000Y69696D02*
Y72270D01*
Y69696D02*
X229000Y69696D01*
Y62500D02*
Y69696D01*
X250000Y62500D02*
Y72270D01*
Y41500D02*
Y51270D01*
X229000Y48696D02*
Y51270D01*
Y48696D02*
X229000Y48696D01*
Y41500D02*
Y48696D01*
X208000Y48696D02*
Y51270D01*
X208000Y48696D02*
X208000Y48696D01*
X208000Y41500D02*
Y48696D01*
X187000Y48696D02*
Y51270D01*
Y48696D02*
X187000Y48696D01*
Y41500D02*
Y48696D01*
X166000Y48696D02*
Y51270D01*
X166000Y48696D02*
X166000Y48696D01*
X166000Y41500D02*
Y48696D01*
X145000Y48696D02*
Y51270D01*
Y48696D02*
X145000Y48696D01*
Y41500D02*
Y48696D01*
D51*
X55900Y219900D02*
X57950Y221950D01*
X66230D02*
X67460Y223180D01*
X57950Y221950D02*
X66230D01*
X67460Y223180D02*
X75320D01*
X55900Y215203D02*
Y219900D01*
X75320Y223180D02*
X82250Y216250D01*
X76099Y204751D02*
X79752D01*
X82250Y207250D01*
Y216250D01*
X55197Y214500D02*
X55900Y215203D01*
X50000Y214500D02*
X55197D01*
D52*
X173310Y245110D02*
D03*
X209050Y232160D02*
D03*
X197070Y226370D02*
D03*
X76250Y212250D02*
D03*
X76099Y204751D02*
D03*
X70250Y218250D02*
D03*
X93750Y225000D02*
D03*
X62750Y41750D02*
D03*
X97500Y97500D02*
D03*
Y105250D02*
D03*
Y128000D02*
D03*
Y135000D02*
D03*
X96750Y148500D02*
D03*
X96500Y155250D02*
D03*
X99000Y161500D02*
D03*
X104750Y165250D02*
D03*
X111750Y163500D02*
D03*
X104500Y185750D02*
D03*
X89500Y191250D02*
D03*
X108750Y225000D02*
D03*
X121500Y237250D02*
D03*
X44500Y141250D02*
D03*
X58250Y147500D02*
D03*
X261250Y173750D02*
D03*
Y166250D02*
D03*
X209500Y258000D02*
D03*
X429500Y258250D02*
D03*
X621000Y221000D02*
D03*
Y196000D02*
D03*
Y171000D02*
D03*
Y146000D02*
D03*
Y121000D02*
D03*
Y96000D02*
D03*
Y71000D02*
D03*
Y46000D02*
D03*
Y21000D02*
D03*
X596000Y221000D02*
D03*
Y196000D02*
D03*
Y96000D02*
D03*
Y21000D02*
D03*
X571000Y221000D02*
D03*
Y196000D02*
D03*
Y121000D02*
D03*
Y96000D02*
D03*
Y71000D02*
D03*
X546000Y196000D02*
D03*
Y121000D02*
D03*
Y96000D02*
D03*
Y21000D02*
D03*
X521000Y221000D02*
D03*
Y71000D02*
D03*
X496000Y21000D02*
D03*
X471000Y71000D02*
D03*
Y46000D02*
D03*
Y21000D02*
D03*
X446000Y96000D02*
D03*
Y21000D02*
D03*
X421000Y221000D02*
D03*
X371000Y246000D02*
D03*
X296000D02*
D03*
Y46000D02*
D03*
X271000Y246000D02*
D03*
X246000D02*
D03*
X196000Y96000D02*
D03*
Y71000D02*
D03*
X121000Y196000D02*
D03*
X21000Y71000D02*
D03*
X111750Y185750D02*
D03*
X97500Y184750D02*
D03*
X91250Y182000D02*
D03*
X86367Y178202D02*
D03*
X81936Y172782D02*
D03*
X78651Y166601D02*
D03*
X76588Y159912D02*
D03*
X75850Y152951D02*
D03*
X75500Y146000D02*
D03*
X74500Y139000D02*
D03*
Y131750D02*
D03*
Y125000D02*
D03*
Y118000D02*
D03*
X71020Y112358D02*
D03*
X65627Y116821D02*
D03*
X58645Y117319D02*
D03*
X51645D02*
D03*
X44645D02*
D03*
X37645D02*
D03*
X40962Y87681D02*
D03*
X47962D02*
D03*
X54962D02*
D03*
X61962D02*
D03*
X68750Y87500D02*
D03*
X74750Y92000D02*
D03*
X93750Y90250D02*
D03*
X36000Y141250D02*
D03*
X66500Y130500D02*
D03*
X71250Y178500D02*
D03*
X106000Y115000D02*
D03*
X480000Y137500D02*
D03*
X490000D02*
D03*
Y145000D02*
D03*
Y152500D02*
D03*
X220000Y250750D02*
D03*
X261500Y98750D02*
D03*
X260750Y109500D02*
D03*
X122500Y11750D02*
D03*
X380750Y183500D02*
D03*
X324500Y182500D02*
D03*
X330122Y157628D02*
D03*
X348750Y143250D02*
D03*
X70000Y50500D02*
D03*
X97000Y22250D02*
D03*
X86250Y12000D02*
D03*
X133750Y120500D02*
D03*
X134000Y142500D02*
D03*
X155750Y167500D02*
D03*
X134000Y153500D02*
D03*
X432000Y125000D02*
D03*
X408000Y97250D02*
D03*
X403250Y127000D02*
D03*
X470250Y87000D02*
D03*
X410500Y69250D02*
D03*
X367500Y27500D02*
D03*
X402000Y27750D02*
D03*
X395750Y137500D02*
D03*
X383250Y153250D02*
D03*
X136000Y72000D02*
D03*
X440000Y251000D02*
D03*
X577500Y126500D02*
D03*
X380219Y69783D02*
D03*
X358500Y52500D02*
D03*
X380000Y88500D02*
D03*
X379750Y101250D02*
D03*
X380000Y113750D02*
D03*
X380250Y126500D02*
D03*
X332750Y15000D02*
D03*
X333250Y57500D02*
D03*
X339500Y19250D02*
D03*
X349750Y37500D02*
D03*
X326750Y241750D02*
D03*
X290000Y75000D02*
D03*
X420000Y265250D02*
D03*
X380000Y251000D02*
D03*
X400250Y250000D02*
D03*
X260750Y189000D02*
D03*
X240000Y251500D02*
D03*
X263750Y225750D02*
D03*
X252250D02*
D03*
X241750D02*
D03*
X230500Y226250D02*
D03*
X261616Y155409D02*
D03*
X219250Y225250D02*
D03*
X186500Y202750D02*
D03*
X175500Y203000D02*
D03*
X200000Y266000D02*
D03*
X155000Y263500D02*
D03*
X114500Y267250D02*
D03*
X130500Y267500D02*
D03*
X71250Y190750D02*
D03*
Y228750D02*
D03*
X164500Y203250D02*
D03*
X313750Y37500D02*
D03*
X319250Y57500D02*
D03*
X319500Y77500D02*
D03*
X319250Y97500D02*
D03*
X317250Y113750D02*
D03*
Y126250D02*
D03*
X550000Y127750D02*
D03*
X427500Y181750D02*
D03*
X283000Y142000D02*
D03*
X134250Y131500D02*
D03*
X26250Y61750D02*
D03*
X12000Y61500D02*
D03*
X197500Y203000D02*
D03*
X155000Y241750D02*
D03*
X292000Y163500D02*
D03*
X134000Y164500D02*
D03*
X70000Y243250D02*
D03*
X420500Y122770D02*
D03*
X237228Y115000D02*
D03*
X227230Y135500D02*
D03*
X515000Y78230D02*
D03*
X80270Y72000D02*
D03*
X94730D02*
D03*
X470000Y176980D02*
D03*
X433000Y235270D02*
D03*
X79730Y240250D02*
D03*
X380770Y163750D02*
D03*
X530270Y115500D02*
D03*
X510270D02*
D03*
X86000Y81480D02*
D03*
X550000Y152770D02*
D03*
X291730Y176250D02*
D03*
X134770Y186500D02*
D03*
X111230Y65500D02*
D03*
Y43500D02*
D03*
X283770Y87500D02*
D03*
X145000Y178730D02*
D03*
X166000D02*
D03*
X187000D02*
D03*
X208000D02*
D03*
X240230Y188500D02*
D03*
X208000Y157730D02*
D03*
X187000D02*
D03*
X166000D02*
D03*
Y136730D02*
D03*
X187000D02*
D03*
X208000D02*
D03*
X219230Y146500D02*
D03*
X240230Y125500D02*
D03*
X219230D02*
D03*
X196770D02*
D03*
X175770D02*
D03*
X154770Y104500D02*
D03*
X166000Y114270D02*
D03*
X187000D02*
D03*
X208000D02*
D03*
X229000D02*
D03*
X240230Y104500D02*
D03*
Y83500D02*
D03*
X229000Y93270D02*
D03*
X208000D02*
D03*
X187000D02*
D03*
X166000D02*
D03*
X145000D02*
D03*
Y72270D02*
D03*
X166000D02*
D03*
X187000D02*
D03*
X208000D02*
D03*
X229000D02*
D03*
X250000D02*
D03*
Y51270D02*
D03*
X229000D02*
D03*
X208000D02*
D03*
X187000D02*
D03*
X166000D02*
D03*
X145000D02*
D03*
M02*
