G04*
G04 #@! TF.GenerationSoftware,Altium Limited,Altium Designer,21.9.2 (33)*
G04*
G04 Layer_Color=128*
%FSLAX44Y44*%
%MOMM*%
G71*
G04*
G04 #@! TF.SameCoordinates,5C5C66F8-9FC8-4E62-95D0-8360453F7E55*
G04*
G04*
G04 #@! TF.FilePolarity,Positive*
G04*
G01*
G75*
%ADD10C,0.2000*%
%ADD16R,0.5000X0.6500*%
%ADD17R,0.6500X0.5000*%
%ADD19R,1.2000X0.5500*%
%ADD20R,0.7000X0.8000*%
%ADD22R,0.5500X1.2000*%
%ADD33R,0.8000X1.0000*%
%ADD53R,0.8000X0.7000*%
%ADD54R,0.8000X0.9000*%
%ADD55R,0.9000X0.8000*%
%ADD57R,0.6500X0.9500*%
%ADD58R,1.0000X2.5000*%
D10*
X23234Y262975D02*
G03*
X27344Y264678I0J5812D01*
G01*
X28985Y266319D02*
G03*
X29050Y266475I-156J156D01*
G01*
X43121Y265597D02*
G03*
X41000Y266475I-2121J-2121D01*
G01*
X44000Y263475D02*
G03*
X43121Y265597I-3000J0D01*
G01*
X43543Y154801D02*
G03*
X44000Y155903I-1103J1103D01*
G01*
X41000Y153500D02*
G03*
X43121Y154379I0J3000D01*
G01*
X29050Y153500D02*
G03*
X28985Y153656I-221J0D01*
G01*
X27344Y155298D02*
G03*
X23234Y157000I-4110J-4110D01*
G01*
X0Y262975D02*
Y280000D01*
X44000Y263475D02*
X44000Y155903D01*
X0Y262975D02*
X23234D01*
X27344Y264678D02*
X28985Y266319D01*
X29050Y266475D02*
X41000D01*
X43121Y265597D02*
Y265597D01*
Y154379D02*
X43543Y154801D01*
X29050Y153500D02*
X41000D01*
X27344Y155298D02*
X28985Y153656D01*
X0Y157000D02*
X23234D01*
X0Y127250D02*
Y156975D01*
Y127250D02*
X30000D01*
Y77750D02*
Y127250D01*
X0Y77750D02*
X30000D01*
X0Y0D02*
Y77750D01*
Y280000D02*
X650000D01*
Y0D02*
Y280000D01*
X0Y0D02*
X650000D01*
D16*
X254500Y175500D02*
D03*
X245500D02*
D03*
X254500Y164500D02*
D03*
X245500D02*
D03*
X432000Y95000D02*
D03*
X423000D02*
D03*
D17*
X252500Y110500D02*
D03*
Y119500D02*
D03*
X515000Y188000D02*
D03*
Y197000D02*
D03*
X527500Y188000D02*
D03*
Y197000D02*
D03*
X122500Y40500D02*
D03*
Y49500D02*
D03*
D19*
X255000Y149500D02*
D03*
Y135500D02*
D03*
X123000Y58500D02*
D03*
Y72500D02*
D03*
X70000Y58000D02*
D03*
Y72000D02*
D03*
X427500Y202000D02*
D03*
Y188000D02*
D03*
X252500Y99500D02*
D03*
Y85500D02*
D03*
X410000Y188000D02*
D03*
Y202000D02*
D03*
X122500Y18000D02*
D03*
Y32000D02*
D03*
X237500Y149500D02*
D03*
Y135500D02*
D03*
X105000Y58000D02*
D03*
Y72000D02*
D03*
X445000Y202000D02*
D03*
Y188000D02*
D03*
D20*
X82500Y216250D02*
D03*
Y228750D02*
D03*
Y203750D02*
D03*
Y191250D02*
D03*
D22*
X129500Y237500D02*
D03*
X115500D02*
D03*
X402000Y57500D02*
D03*
X388000D02*
D03*
X402000Y37500D02*
D03*
X388000D02*
D03*
X374500Y17500D02*
D03*
X360500D02*
D03*
X374500Y37500D02*
D03*
X360500D02*
D03*
X434500Y112500D02*
D03*
X420500D02*
D03*
X50500Y147500D02*
D03*
X64500D02*
D03*
X57000Y62500D02*
D03*
X43000D02*
D03*
X325500Y137500D02*
D03*
X339500D02*
D03*
X325500Y117500D02*
D03*
X339500D02*
D03*
X325500Y97500D02*
D03*
X339500D02*
D03*
X325500Y77500D02*
D03*
X339500D02*
D03*
X325500Y57500D02*
D03*
X339500D02*
D03*
X325500Y37500D02*
D03*
X339500D02*
D03*
X402000Y137500D02*
D03*
X388000D02*
D03*
X402000Y117500D02*
D03*
X388000D02*
D03*
X402000Y97500D02*
D03*
X388000D02*
D03*
X402000Y77500D02*
D03*
X388000D02*
D03*
X447000Y225000D02*
D03*
X433000D02*
D03*
D33*
X450500Y113000D02*
D03*
X469500D02*
D03*
X460000Y87000D02*
D03*
X97000Y12000D02*
D03*
X78000D02*
D03*
X87500Y38000D02*
D03*
D53*
X116250Y225000D02*
D03*
X128750D02*
D03*
D54*
X390000Y184500D02*
D03*
Y205500D02*
D03*
D55*
X322000Y157500D02*
D03*
X343000D02*
D03*
D57*
X479500Y186000D02*
D03*
X470000D02*
D03*
X460500D02*
D03*
X479500Y209000D02*
D03*
X460500D02*
D03*
D58*
X500000Y95000D02*
D03*
X515000D02*
D03*
M02*
