G04*
G04 #@! TF.GenerationSoftware,Altium Limited,Altium Designer,21.9.2 (33)*
G04*
G04 Layer_Color=8421504*
%FSLAX44Y44*%
%MOMM*%
G71*
G04*
G04 #@! TF.SameCoordinates,5C5C66F8-9FC8-4E62-95D0-8360453F7E55*
G04*
G04*
G04 #@! TF.FilePolarity,Positive*
G04*
G01*
G75*
%ADD10C,0.2000*%
%ADD16R,0.5000X0.6500*%
%ADD17R,0.6500X0.5000*%
%ADD18R,0.6000X0.6000*%
%ADD19R,1.2000X0.5500*%
%ADD20R,0.7000X0.8000*%
%ADD21R,2.9200X1.3500*%
%ADD22R,0.5500X1.2000*%
%ADD23R,0.8000X0.3000*%
%ADD24R,1.0000X0.5500*%
%ADD25R,1.1000X1.7000*%
%ADD26R,0.6500X0.3500*%
%ADD27R,1.5000X0.8000*%
%ADD28R,0.8000X1.5000*%
%ADD29R,1.1000X1.1000*%
%ADD30R,2.2000X1.6000*%
%ADD31R,1.8000X0.7000*%
%ADD32R,0.5500X1.0000*%
%ADD33R,0.8000X1.0000*%
%ADD34R,0.9000X1.5000*%
%ADD35R,0.3500X0.8500*%
%ADD36R,1.0500X1.0000*%
%ADD37R,2.2000X1.0500*%
G36*
X63000Y137850D02*
Y123350D01*
X33800D01*
Y127250D01*
X-28400D01*
Y137850D01*
X63000D01*
D02*
G37*
G36*
X33800Y77750D02*
Y81650D01*
X63000D01*
Y67150D01*
X-28400D01*
Y77750D01*
X33800D01*
D02*
G37*
D10*
X23234Y262975D02*
G03*
X27344Y264678I0J5812D01*
G01*
X28985Y266319D02*
G03*
X29050Y266475I-156J156D01*
G01*
X43121Y265597D02*
G03*
X41000Y266475I-2121J-2121D01*
G01*
X44000Y263475D02*
G03*
X43121Y265597I-3000J0D01*
G01*
X43543Y154801D02*
G03*
X44000Y155903I-1103J1103D01*
G01*
X41000Y153500D02*
G03*
X43121Y154379I0J3000D01*
G01*
X29050Y153500D02*
G03*
X28985Y153656I-221J0D01*
G01*
X27344Y155298D02*
G03*
X23234Y157000I-4110J-4110D01*
G01*
X0Y262975D02*
Y280000D01*
X44000Y263475D02*
X44000Y155903D01*
X0Y262975D02*
X23234D01*
X27344Y264678D02*
X28985Y266319D01*
X29050Y266475D02*
X41000D01*
X43121Y265597D02*
Y265597D01*
Y154379D02*
X43543Y154801D01*
X29050Y153500D02*
X41000D01*
X27344Y155298D02*
X28985Y153656D01*
X0Y157000D02*
X23234D01*
X0Y127250D02*
Y156975D01*
Y127250D02*
X30000D01*
Y77750D02*
Y127250D01*
X0Y77750D02*
X30000D01*
X0Y0D02*
Y77750D01*
Y280000D02*
X650000D01*
Y0D02*
Y280000D01*
X0Y0D02*
X650000D01*
D16*
X86000Y141750D02*
D03*
X95000D02*
D03*
X145500Y270000D02*
D03*
X154500D02*
D03*
D17*
X86000Y124000D02*
D03*
Y133000D02*
D03*
X500000Y143000D02*
D03*
Y152000D02*
D03*
D18*
X173500Y230750D02*
D03*
X186500D02*
D03*
X180000Y249250D02*
D03*
D19*
X240000Y258000D02*
D03*
Y272000D02*
D03*
X200000D02*
D03*
Y258000D02*
D03*
X220000Y272000D02*
D03*
Y258000D02*
D03*
X520000Y115500D02*
D03*
Y129500D02*
D03*
Y140500D02*
D03*
Y154500D02*
D03*
X400000Y258000D02*
D03*
Y272000D02*
D03*
X280000Y258000D02*
D03*
Y272000D02*
D03*
X320000Y258000D02*
D03*
Y272000D02*
D03*
X360000Y258000D02*
D03*
Y272000D02*
D03*
X480000Y129500D02*
D03*
Y115500D02*
D03*
X500000D02*
D03*
Y129500D02*
D03*
X577500Y147000D02*
D03*
Y133000D02*
D03*
X440000Y272000D02*
D03*
Y258000D02*
D03*
X180000D02*
D03*
Y272000D02*
D03*
D20*
X86000Y89750D02*
D03*
Y102250D02*
D03*
D21*
X48400Y102500D02*
D03*
D22*
X102000Y225000D02*
D03*
X88000D02*
D03*
X123000Y255000D02*
D03*
X137000D02*
D03*
D23*
X62000Y241500D02*
D03*
Y236500D02*
D03*
Y231500D02*
D03*
Y226500D02*
D03*
Y217500D02*
D03*
Y212500D02*
D03*
Y207500D02*
D03*
Y202500D02*
D03*
Y193500D02*
D03*
Y188500D02*
D03*
Y183500D02*
D03*
Y178500D02*
D03*
X50000Y180500D02*
D03*
Y185500D02*
D03*
Y190500D02*
D03*
Y195500D02*
D03*
Y200500D02*
D03*
Y205500D02*
D03*
Y214500D02*
D03*
Y219500D02*
D03*
Y224500D02*
D03*
Y229500D02*
D03*
Y234500D02*
D03*
Y239500D02*
D03*
D24*
X380000Y272000D02*
D03*
Y258000D02*
D03*
X260000D02*
D03*
Y272000D02*
D03*
X300000Y258000D02*
D03*
Y272000D02*
D03*
X340000Y258000D02*
D03*
Y272000D02*
D03*
X420000D02*
D03*
Y258000D02*
D03*
X200000Y247000D02*
D03*
Y233000D02*
D03*
D25*
X550000Y140000D02*
D03*
D26*
X560500Y146500D02*
D03*
Y140000D02*
D03*
Y133500D02*
D03*
X539500D02*
D03*
Y140000D02*
D03*
Y146500D02*
D03*
D27*
X123000Y186500D02*
D03*
Y175500D02*
D03*
Y164500D02*
D03*
Y153500D02*
D03*
Y142500D02*
D03*
Y131500D02*
D03*
Y120500D02*
D03*
Y109500D02*
D03*
Y98500D02*
D03*
Y87500D02*
D03*
Y76500D02*
D03*
Y65500D02*
D03*
Y54500D02*
D03*
Y43500D02*
D03*
X272000D02*
D03*
Y54500D02*
D03*
Y65500D02*
D03*
Y76500D02*
D03*
Y87500D02*
D03*
Y98500D02*
D03*
Y109500D02*
D03*
Y120500D02*
D03*
Y131500D02*
D03*
Y142500D02*
D03*
Y153500D02*
D03*
Y164500D02*
D03*
Y175500D02*
D03*
Y186500D02*
D03*
D28*
X131500Y15500D02*
D03*
X142500D02*
D03*
X153500D02*
D03*
X164500D02*
D03*
X175500D02*
D03*
X186500D02*
D03*
X197500D02*
D03*
X208500D02*
D03*
X219500D02*
D03*
X230500D02*
D03*
X241500D02*
D03*
X252500D02*
D03*
X263500D02*
D03*
Y214500D02*
D03*
X252500D02*
D03*
X241500D02*
D03*
X230500D02*
D03*
X219500D02*
D03*
X208500D02*
D03*
X197500D02*
D03*
X186500D02*
D03*
X175500D02*
D03*
X164500D02*
D03*
X153500D02*
D03*
X142500D02*
D03*
X131500D02*
D03*
D29*
X145000Y188500D02*
D03*
X166000D02*
D03*
X187000D02*
D03*
X208000D02*
D03*
X229000D02*
D03*
X250000D02*
D03*
Y167500D02*
D03*
X229000D02*
D03*
X208000D02*
D03*
X187000D02*
D03*
X166000D02*
D03*
X145000D02*
D03*
Y146500D02*
D03*
X166000D02*
D03*
X187000D02*
D03*
X208000D02*
D03*
X229000D02*
D03*
X250000D02*
D03*
Y125500D02*
D03*
X229000D02*
D03*
X208000D02*
D03*
X187000D02*
D03*
X166000D02*
D03*
X145000D02*
D03*
Y104500D02*
D03*
X166000D02*
D03*
X187000D02*
D03*
X208000D02*
D03*
X229000D02*
D03*
X250000D02*
D03*
Y83500D02*
D03*
X229000D02*
D03*
X208000D02*
D03*
X187000D02*
D03*
X166000D02*
D03*
X145000D02*
D03*
Y62500D02*
D03*
X166000D02*
D03*
X187000D02*
D03*
X208000D02*
D03*
X229000D02*
D03*
X250000D02*
D03*
Y41500D02*
D03*
X229000D02*
D03*
X208000D02*
D03*
X187000D02*
D03*
X166000D02*
D03*
X145000D02*
D03*
D30*
X395500Y41250D02*
D03*
Y198750D02*
D03*
X333000Y41250D02*
D03*
Y198750D02*
D03*
D31*
X367500Y63750D02*
D03*
Y76250D02*
D03*
Y88750D02*
D03*
Y101250D02*
D03*
Y113750D02*
D03*
Y126250D02*
D03*
Y138750D02*
D03*
Y151250D02*
D03*
Y163750D02*
D03*
Y176250D02*
D03*
X305000Y63750D02*
D03*
Y76250D02*
D03*
Y88750D02*
D03*
Y101250D02*
D03*
Y113750D02*
D03*
Y126250D02*
D03*
Y138750D02*
D03*
Y151250D02*
D03*
Y163750D02*
D03*
Y176250D02*
D03*
D32*
X86000Y115000D02*
D03*
X100000D02*
D03*
D33*
X87500Y38000D02*
D03*
X97000Y12000D02*
D03*
X78000D02*
D03*
D34*
X78500Y55000D02*
D03*
X96500D02*
D03*
D35*
X161500Y256000D02*
D03*
X155000D02*
D03*
X148500D02*
D03*
X161500Y234000D02*
D03*
X155000D02*
D03*
X148500D02*
D03*
D36*
X110250Y255000D02*
D03*
D37*
X95000Y240250D02*
D03*
Y269750D02*
D03*
M02*
