G04*
G04 #@! TF.GenerationSoftware,Altium Limited,Altium Designer,21.9.2 (33)*
G04*
G04 Layer_Color=16777215*
%FSLAX44Y44*%
%MOMM*%
G71*
G04*
G04 #@! TF.SameCoordinates,5C5C66F8-9FC8-4E62-95D0-8360453F7E55*
G04*
G04*
G04 #@! TF.FilePolarity,Positive*
G04*
G01*
G75*
%ADD10C,0.2000*%
%ADD11C,0.2500*%
%ADD12C,0.2540*%
%ADD13C,0.3000*%
%ADD14C,0.1000*%
%ADD15C,0.1500*%
D10*
X46001Y250165D02*
G03*
X46295Y249458I998J0D01*
G01*
X48706Y247043D02*
G03*
X49415Y246749I709J706D01*
G01*
X49001Y251250D02*
G03*
X49999Y250249I1000J-1D01*
G01*
X52999D02*
G03*
X54000Y251250I0J1001D01*
G01*
X56001Y246751D02*
G03*
X56999Y247750I0J998D01*
G01*
X49415Y173249D02*
G03*
X48708Y172955I0J-998D01*
G01*
X46293Y170544D02*
G03*
X45999Y169835I706J-709D01*
G01*
X49999Y169751D02*
G03*
X49001Y168750I1J-1000D01*
G01*
X54000D02*
G03*
X52999Y169751I-1001J0D01*
G01*
X56999Y172250D02*
G03*
X56001Y173249I-998J0D01*
G01*
X169990Y234750D02*
X190310D01*
X169990D02*
Y245250D01*
X190310D01*
Y234750D02*
Y245250D01*
X650251Y29999D02*
Y249999D01*
X427001Y29999D02*
X645251D01*
X427001D02*
Y249999D01*
X650251D01*
X713251D01*
Y29999D02*
Y249999D01*
X645251Y29999D02*
X713251D01*
X446251Y74999D02*
X458501D01*
X446251D02*
Y82249D01*
Y204999D02*
X458501D01*
X446251Y197749D02*
Y204999D01*
X650251Y74999D02*
X713251D01*
Y204999D01*
X650251D02*
X713251D01*
X611202Y30300D02*
Y55700D01*
X585751Y224300D02*
Y249999D01*
X484200Y55700D02*
X611202D01*
X458800Y224300D02*
X585751D01*
X484200Y29999D02*
Y55700D01*
X458800Y224300D02*
Y249999D01*
X236000Y267500D02*
X244000D01*
X236000Y262500D02*
Y267500D01*
Y262500D02*
X244000D01*
Y267500D01*
X196000Y262500D02*
X204000D01*
Y267500D01*
X196000D02*
X204000D01*
X196000Y262500D02*
Y267500D01*
X216000Y262500D02*
X224000D01*
Y267500D01*
X216000D02*
X224000D01*
X216000Y262500D02*
Y267500D01*
X83000Y94750D02*
Y96000D01*
Y97250D01*
X89000Y94750D02*
Y96000D01*
Y97250D01*
X-24900Y63650D02*
X66500D01*
Y141350D01*
X-24900D02*
X66500D01*
X92500Y221000D02*
Y229000D01*
Y221000D02*
X97500D01*
Y229000D01*
X92500D02*
X97500D01*
X516000Y125000D02*
X524000D01*
X516000Y120000D02*
Y125000D01*
Y120000D02*
X524000D01*
Y125000D01*
X516000Y150000D02*
X524000D01*
X516000Y145000D02*
Y150000D01*
Y145000D02*
X524000D01*
Y150000D01*
X396000Y267500D02*
X404000D01*
X396000Y262500D02*
Y267500D01*
Y262500D02*
X404000D01*
Y267500D01*
X276000D02*
X284000D01*
X276000Y262500D02*
Y267500D01*
Y262500D02*
X284000D01*
Y267500D01*
X316000D02*
X324000D01*
X316000Y262500D02*
Y267500D01*
Y262500D02*
X324000D01*
Y267500D01*
X356000D02*
X364000D01*
X356000Y262500D02*
Y267500D01*
Y262500D02*
X364000D01*
Y267500D01*
X476000Y120000D02*
X484000D01*
Y125000D01*
X476000D02*
X484000D01*
X476000Y120000D02*
Y125000D01*
X2001Y281501D02*
Y286500D01*
Y274501D02*
Y279499D01*
X11000Y271001D02*
X24000D01*
X2001Y267500D02*
Y272499D01*
X11000Y268001D02*
X24000D01*
X2001Y266500D02*
X6999D01*
X11000Y261501D02*
Y271001D01*
X24000Y261501D02*
Y271001D01*
X30721Y264501D02*
X41000D01*
X29773Y263815D02*
X30721Y264501D01*
X2001Y261501D02*
Y266500D01*
X6999Y261501D02*
Y266500D01*
X-10295Y263498D02*
X-7654Y263861D01*
X-10801Y261999D02*
X-10295Y263498D01*
X-19330Y243000D02*
X-15993Y261999D01*
X-10801D01*
Y158001D02*
Y261999D01*
X-7654Y263861D02*
X-6000Y261501D01*
Y243000D02*
X2001D01*
Y261501D01*
X6999D01*
X-6000D02*
X27919D01*
X2001Y253500D02*
X27388D01*
X11000Y261501D02*
X24000D01*
X27919D02*
X29773Y263815D01*
X27388Y253500D02*
X30721Y264501D01*
X41000Y155499D02*
Y264501D01*
Y255151D02*
X45501D01*
X43499Y247000D02*
X45501D01*
Y255151D01*
X46001Y250165D02*
Y261750D01*
X46293Y249456D02*
X48706Y247043D01*
X49001Y251250D02*
Y261750D01*
X49499Y251250D02*
Y257501D01*
X49999Y250249D02*
X52999D01*
X49499Y251250D02*
X53499D01*
X41000Y261750D02*
X59999D01*
X49499Y257501D02*
X53499D01*
X56999Y247750D02*
Y261750D01*
X59999Y257750D02*
X64101D01*
X59999D02*
Y259751D01*
X54000Y251250D02*
Y261750D01*
X54899Y245001D02*
Y246751D01*
X53499Y251250D02*
Y257501D01*
X59999Y259751D02*
X64101D01*
X49415Y246751D02*
X56001D01*
X64101Y257750D02*
Y259751D01*
X54449Y178550D02*
Y245001D01*
X54899D01*
X59999Y235499D02*
Y237501D01*
Y225499D02*
Y227501D01*
Y240500D02*
Y242499D01*
Y230500D02*
Y232499D01*
Y216500D02*
Y218499D01*
Y211501D02*
Y213500D01*
Y160249D02*
Y162251D01*
X64101Y160249D02*
Y162251D01*
X59999Y160249D02*
X64101D01*
X59999Y162251D02*
X64101D01*
X13891Y158499D02*
Y261501D01*
X-10801Y158001D02*
Y261999D01*
X-10295Y156503D02*
Y263498D01*
X-7654Y156139D02*
Y263861D01*
X-6000Y158499D02*
Y261501D01*
X-19330Y243000D02*
X-19323Y177000D01*
X-6000Y158499D02*
Y261501D01*
X43499Y173000D02*
Y247000D01*
X41000Y158250D02*
Y261750D01*
X-6000Y177000D02*
X2001D01*
X43499Y173000D02*
X45501D01*
X46293Y170544D02*
X48706Y172957D01*
X-19323Y177000D02*
X-15993Y158001D01*
X-10801D01*
X-10295Y156503D01*
X-7654Y156139D01*
X-6000Y158499D01*
X2001D02*
Y177000D01*
Y140500D02*
Y145499D01*
Y153500D02*
Y158499D01*
Y147501D02*
Y152500D01*
Y133500D02*
Y138499D01*
Y158499D02*
X6999D01*
X2001Y153500D02*
X6999D01*
Y158499D01*
X-6000D02*
X27919D01*
X11000Y148999D02*
Y158499D01*
X2001Y166500D02*
X27388D01*
X11000Y158499D02*
X24000D01*
X11000Y151999D02*
X24000D01*
X11000Y148999D02*
X24000D01*
Y158499D01*
X27919D02*
X29773Y156185D01*
X27388Y166500D02*
X30721Y155499D01*
X29773Y156185D02*
X30721Y155499D01*
X41000D01*
Y164849D02*
X45501D01*
Y173000D01*
X46001Y158250D02*
Y169835D01*
X49001Y158250D02*
Y168750D01*
X49499Y162500D02*
Y168750D01*
X59999Y201501D02*
Y203500D01*
Y206500D02*
Y208499D01*
Y158250D02*
Y261750D01*
Y192499D02*
Y194501D01*
Y187501D02*
Y189500D01*
Y182499D02*
Y184501D01*
X41000Y158250D02*
X59999D01*
X49999Y169751D02*
X52999D01*
X49499Y168750D02*
X53499D01*
X49499Y162500D02*
X53499D01*
X49415Y173249D02*
X56001D01*
X53499Y162500D02*
Y168750D01*
X54000Y158250D02*
Y168750D01*
X54449Y178550D02*
X55501D01*
Y173249D02*
Y178550D01*
X56999Y158250D02*
Y172250D01*
X59999Y177501D02*
Y179500D01*
X384000Y262500D02*
Y267500D01*
X376000Y262500D02*
X384000D01*
X376000D02*
Y267500D01*
X384000D01*
X496000Y125000D02*
X504000D01*
X496000Y120000D02*
Y125000D01*
Y120000D02*
X504000D01*
Y125000D01*
X573500Y142500D02*
X581500D01*
X573500Y137500D02*
Y142500D01*
Y137500D02*
X581500D01*
Y142500D01*
X256000Y267500D02*
X264000D01*
X256000Y262500D02*
Y267500D01*
Y262500D02*
X264000D01*
Y267500D01*
X296000D02*
X304000D01*
X296000Y262500D02*
Y267500D01*
Y262500D02*
X304000D01*
Y267500D01*
X336000D02*
X344000D01*
X336000Y262500D02*
Y267500D01*
Y262500D02*
X344000D01*
Y267500D01*
X424000Y262500D02*
Y267500D01*
X416000Y262500D02*
X424000D01*
X416000D02*
Y267500D01*
X424000D01*
X436000Y262500D02*
X444000D01*
Y267500D01*
X436000D02*
X444000D01*
X436000Y262500D02*
Y267500D01*
X539500Y130000D02*
X560500D01*
X539500Y150000D02*
X560500D01*
X112500Y5000D02*
Y225000D01*
Y5000D02*
X282500D01*
Y225000D01*
X112500D02*
X282500D01*
X196000Y237500D02*
X204000D01*
Y242500D01*
X196000D02*
X204000D01*
X196000Y237500D02*
Y242500D01*
X412828Y49247D02*
Y190749D01*
X408830Y54248D02*
Y185748D01*
X385330Y58998D02*
Y180998D01*
X378830Y58998D02*
Y180998D01*
X408830Y190749D02*
X412828D01*
X378830Y49248D02*
Y58998D01*
Y180998D02*
Y190749D01*
Y49248D02*
X393080D01*
X408830Y49247D02*
X412828D01*
X378830Y58998D02*
X385330D01*
Y54248D02*
Y58998D01*
Y54248D02*
X393080D01*
Y49248D02*
Y54248D01*
X403500D02*
X408830D01*
X403500Y49247D02*
Y54248D01*
Y49247D02*
X408830D01*
X403500Y185748D02*
X408830D01*
X403500D02*
Y190749D01*
X408830D01*
X393080Y54248D02*
X403500D01*
X393080Y49247D02*
Y49248D01*
Y49247D02*
X403500D01*
X378830Y180998D02*
X385330D01*
Y185748D01*
X403500D01*
X378830Y190749D02*
X403500D01*
X393080Y185748D02*
Y190749D01*
X350328Y49247D02*
Y190749D01*
X346330Y54248D02*
Y185748D01*
X322830Y58998D02*
Y180998D01*
X316330Y58998D02*
Y180998D01*
X346330Y190749D02*
X350328D01*
X316330Y49248D02*
Y58998D01*
Y180998D02*
Y190749D01*
Y49248D02*
X330580D01*
X346330Y49247D02*
X350328D01*
X316330Y58998D02*
X322830D01*
Y54248D02*
Y58998D01*
Y54248D02*
X330580D01*
Y49248D02*
Y54248D01*
X341000D02*
X346330D01*
X341000Y49247D02*
Y54248D01*
Y49247D02*
X346330D01*
X341000Y185748D02*
X346330D01*
X341000D02*
Y190749D01*
X346330D01*
X330580Y54248D02*
X341000D01*
X330580Y49247D02*
Y49248D01*
Y49247D02*
X341000D01*
X316330Y180998D02*
X322830D01*
Y185748D01*
X341000D01*
X316330Y190749D02*
X341000D01*
X330580Y185748D02*
Y190749D01*
X95500Y111000D02*
Y119000D01*
X90500D02*
X95500D01*
X90500Y111000D02*
Y119000D01*
Y111000D02*
X95500D01*
X90500Y48500D02*
Y61500D01*
X84500D02*
X90500D01*
X84500Y48500D02*
Y61500D01*
Y48500D02*
X90500D01*
X144690Y250250D02*
X165010D01*
Y239750D02*
Y250250D01*
X144690Y239750D02*
X165010D01*
X144690D02*
Y243500D01*
X146250D01*
Y246500D01*
X144690D02*
X146250D01*
X144690D02*
Y250250D01*
X108002Y244999D02*
Y248998D01*
Y265000D02*
Y268000D01*
X107000D02*
X108002D01*
Y261000D02*
Y265000D01*
Y242000D02*
Y244999D01*
X107000Y242000D02*
X108002D01*
X82002D02*
Y244999D01*
Y242000D02*
X83000D01*
X82002Y244999D02*
Y268000D01*
X83000D01*
X176000Y267500D02*
X184000D01*
X176000Y262500D02*
Y267500D01*
Y262500D02*
X184000D01*
Y267500D01*
X132500Y251000D02*
Y259000D01*
X127500D02*
X132500D01*
X127500Y251000D02*
Y259000D01*
Y251000D02*
X132500D01*
X105750Y179750D02*
X109082D01*
X107416D01*
Y189747D01*
X105750Y188081D01*
X365500Y56750D02*
Y54084D01*
Y55417D01*
X373497D01*
X372164Y56750D01*
X303000D02*
Y54084D01*
Y55417D01*
X310997D01*
X309664Y56750D01*
X23234Y262975D02*
G03*
X27344Y264678I0J5812D01*
G01*
X28985Y266319D02*
G03*
X29050Y266475I-156J156D01*
G01*
X43121Y265597D02*
G03*
X41000Y266475I-2121J-2121D01*
G01*
X44000Y263475D02*
G03*
X43121Y265597I-3000J0D01*
G01*
X43543Y154801D02*
G03*
X44000Y155903I-1103J1103D01*
G01*
X41000Y153500D02*
G03*
X43121Y154379I0J3000D01*
G01*
X29050Y153500D02*
G03*
X28985Y153656I-221J0D01*
G01*
X27344Y155298D02*
G03*
X23234Y157000I-4110J-4110D01*
G01*
X0Y262975D02*
Y280000D01*
X44000Y263475D02*
X44000Y155903D01*
X0Y262975D02*
X23234D01*
X27344Y264678D02*
X28985Y266319D01*
X29050Y266475D02*
X41000D01*
X43121Y265597D02*
Y265597D01*
Y154379D02*
X43543Y154801D01*
X29050Y153500D02*
X41000D01*
X27344Y155298D02*
X28985Y153656D01*
X0Y157000D02*
X23234D01*
X0Y127250D02*
Y156975D01*
Y127250D02*
X30000D01*
Y77750D02*
Y127250D01*
X0Y77750D02*
X30000D01*
X0Y0D02*
Y77750D01*
Y280000D02*
X650000D01*
Y0D02*
Y280000D01*
X0Y0D02*
X650000D01*
D11*
X537500Y153250D02*
G03*
X537500Y153250I-1250J0D01*
G01*
D12*
X103500Y255000D02*
G03*
X103500Y255000I-8500J0D01*
G01*
X72000Y16000D02*
Y34000D01*
X82100D01*
X92900D02*
X103000D01*
Y16000D02*
Y34000D01*
X84000Y16000D02*
X91100D01*
D13*
X90500Y140250D02*
Y143250D01*
X84500Y128500D02*
X87500D01*
X150000Y268500D02*
Y271500D01*
X498500Y147500D02*
X501500D01*
D14*
X80799Y150999D02*
Y146001D01*
X84131D01*
X89129Y150166D02*
X88296Y150999D01*
X86630D01*
X85797Y150166D01*
Y146834D01*
X86630Y146001D01*
X88296D01*
X89129Y146834D01*
X90795Y146001D02*
X92461D01*
X91628D01*
Y150999D01*
X90795Y150166D01*
X90594Y125464D02*
X89761Y124631D01*
Y122965D01*
X90594Y122132D01*
X93926D01*
X94759Y122965D01*
Y124631D01*
X93926Y125464D01*
X94759Y127130D02*
Y128797D01*
Y127963D01*
X89761D01*
X90594Y127130D01*
X94759Y134628D02*
Y131296D01*
X91427Y134628D01*
X90594D01*
X89761Y133795D01*
Y132129D01*
X90594Y131296D01*
X187367Y248084D02*
Y251416D01*
X186534Y252249D01*
X184868D01*
X184035Y251416D01*
Y248084D01*
X184868Y247251D01*
X186534D01*
X185701Y248917D02*
X187367Y247251D01*
X186534D02*
X187367Y248084D01*
X189033Y251416D02*
X189866Y252249D01*
X191532D01*
X192365Y251416D01*
Y250583D01*
X191532Y249750D01*
X190699D01*
X191532D01*
X192365Y248917D01*
Y248084D01*
X191532Y247251D01*
X189866D01*
X189033Y248084D01*
X553335Y127499D02*
Y123334D01*
X554168Y122501D01*
X555834D01*
X556667Y123334D01*
Y127499D01*
X561665Y122501D02*
X558333D01*
X561665Y125833D01*
Y126666D01*
X560832Y127499D01*
X559166D01*
X558333Y126666D01*
X417418Y230751D02*
Y235749D01*
X419084Y234083D01*
X420750Y235749D01*
Y230751D01*
X422416D02*
X424082D01*
X423249D01*
Y235749D01*
X422416Y234916D01*
X451999Y258335D02*
X447001D01*
Y260835D01*
X447834Y261668D01*
X449500D01*
X450333Y260835D01*
Y258335D01*
Y260002D02*
X451999Y261668D01*
Y265833D02*
X447001D01*
X449500Y263334D01*
Y266666D01*
X451999Y271665D02*
Y268332D01*
X448667Y271665D01*
X447834D01*
X447001Y270831D01*
Y269165D01*
X447834Y268332D01*
X409001Y260835D02*
X413999D01*
Y263334D01*
X413166Y264167D01*
X409834D01*
X409001Y263334D01*
Y260835D01*
X413166Y265833D02*
X413999Y266666D01*
Y268332D01*
X413166Y269165D01*
X409834D01*
X409001Y268332D01*
Y266666D01*
X409834Y265833D01*
X410667D01*
X411500Y266666D01*
Y269165D01*
X328751Y260835D02*
X333749D01*
Y263334D01*
X332916Y264167D01*
X329584D01*
X328751Y263334D01*
Y260835D01*
X333749Y269165D02*
Y265833D01*
X330417Y269165D01*
X329584D01*
X328751Y268332D01*
Y266666D01*
X329584Y265833D01*
X248751Y261085D02*
X253749D01*
Y263584D01*
X252916Y264417D01*
X249584D01*
X248751Y263584D01*
Y261085D01*
X249584Y266083D02*
X248751Y266916D01*
Y268582D01*
X249584Y269415D01*
X250417D01*
X251250Y268582D01*
Y267749D01*
Y268582D01*
X252083Y269415D01*
X252916D01*
X253749Y268582D01*
Y266916D01*
X252916Y266083D01*
X288501Y261335D02*
X293499D01*
Y263834D01*
X292666Y264667D01*
X289334D01*
X288501Y263834D01*
Y261335D01*
X293499Y268832D02*
X288501D01*
X291000Y266333D01*
Y269665D01*
X206585Y242499D02*
Y237501D01*
X209084D01*
X209917Y238334D01*
Y241666D01*
X209084Y242499D01*
X206585D01*
X214915D02*
X213249Y241666D01*
X211583Y240000D01*
Y238334D01*
X212416Y237501D01*
X214082D01*
X214915Y238334D01*
Y239167D01*
X214082Y240000D01*
X211583D01*
X367250Y187499D02*
X365584D01*
X366417D01*
Y183334D01*
X365584Y182501D01*
X364751D01*
X363918Y183334D01*
X368916Y182501D02*
X370582D01*
X369749D01*
Y187499D01*
X368916Y186666D01*
X303417Y186749D02*
X301751D01*
X302584D01*
Y182584D01*
X301751Y181751D01*
X300918D01*
X300085Y182584D01*
X308415Y181751D02*
X305083D01*
X308415Y185083D01*
Y185916D01*
X307582Y186749D01*
X305916D01*
X305083Y185916D01*
X101445Y108849D02*
Y103851D01*
X104777D01*
X106443Y108016D02*
X107276Y108849D01*
X108942D01*
X109775Y108016D01*
Y107183D01*
X108942Y106350D01*
X108109D01*
X108942D01*
X109775Y105517D01*
Y104684D01*
X108942Y103851D01*
X107276D01*
X106443Y104684D01*
X75667Y38084D02*
Y41416D01*
X74834Y42249D01*
X73168D01*
X72335Y41416D01*
Y38084D01*
X73168Y37251D01*
X74834D01*
X74001Y38917D02*
X75667Y37251D01*
X74834D02*
X75667Y38084D01*
X80665Y37251D02*
X77333D01*
X80665Y40583D01*
Y41416D01*
X79832Y42249D01*
X78166D01*
X77333Y41416D01*
X80336Y64001D02*
Y68999D01*
X82835D01*
X83668Y68166D01*
Y66500D01*
X82835Y65667D01*
X80336D01*
X82002D02*
X83668Y64001D01*
X88666D02*
X85334D01*
X88666Y67333D01*
Y68166D01*
X87833Y68999D01*
X86167D01*
X85334Y68166D01*
X90332D02*
X91165Y68999D01*
X92831D01*
X93665Y68166D01*
Y67333D01*
X92831Y66500D01*
X91998D01*
X92831D01*
X93665Y65667D01*
Y64834D01*
X92831Y64001D01*
X91165D01*
X90332Y64834D01*
X136585Y236999D02*
Y232834D01*
X137418Y232001D01*
X139084D01*
X139917Y232834D01*
Y236999D01*
X144082Y232001D02*
Y236999D01*
X141583Y234500D01*
X144915D01*
X110585Y248499D02*
Y247666D01*
X112251Y246000D01*
X113917Y247666D01*
Y248499D01*
X112251Y246000D02*
Y243501D01*
X118915D02*
X115583D01*
X118915Y246833D01*
Y247666D01*
X118082Y248499D01*
X116416D01*
X115583Y247666D01*
X173079Y252505D02*
X168081D01*
Y255005D01*
X168914Y255838D01*
X170580D01*
X171413Y255005D01*
Y252505D01*
Y254172D02*
X173079Y255838D01*
X168914Y257504D02*
X168081Y258337D01*
Y260003D01*
X168914Y260836D01*
X169747D01*
X170580Y260003D01*
Y259170D01*
Y260003D01*
X171413Y260836D01*
X172246D01*
X173079Y260003D01*
Y258337D01*
X172246Y257504D01*
X168914Y262502D02*
X168081Y263335D01*
Y265001D01*
X168914Y265835D01*
X172246D01*
X173079Y265001D01*
Y263335D01*
X172246Y262502D01*
X168914D01*
X122836Y243001D02*
Y247999D01*
X125335D01*
X126168Y247166D01*
Y245500D01*
X125335Y244667D01*
X122836D01*
X124502D02*
X126168Y243001D01*
X131166D02*
X127834D01*
X131166Y246333D01*
Y247166D01*
X130333Y247999D01*
X128667D01*
X127834Y247166D01*
X132832Y243834D02*
X133665Y243001D01*
X135331D01*
X136165Y243834D01*
Y247166D01*
X135331Y247999D01*
X133665D01*
X132832Y247166D01*
Y246333D01*
X133665Y245500D01*
X136165D01*
X232999Y258335D02*
X228001D01*
Y260835D01*
X228834Y261668D01*
X230500D01*
X231333Y260835D01*
Y258335D01*
Y260002D02*
X232999Y261668D01*
Y266666D02*
Y263334D01*
X229667Y266666D01*
X228834D01*
X228001Y265833D01*
Y264167D01*
X228834Y263334D01*
Y268332D02*
X228001Y269165D01*
Y270831D01*
X228834Y271665D01*
X229667D01*
X230500Y270831D01*
X231333Y271665D01*
X232166D01*
X232999Y270831D01*
Y269165D01*
X232166Y268332D01*
X231333D01*
X230500Y269165D01*
X229667Y268332D01*
X228834D01*
X230500Y269165D02*
Y270831D01*
X192999Y258836D02*
X188001D01*
Y261335D01*
X188834Y262168D01*
X190500D01*
X191333Y261335D01*
Y258836D01*
Y260502D02*
X192999Y262168D01*
Y267166D02*
Y263834D01*
X189667Y267166D01*
X188834D01*
X188001Y266333D01*
Y264667D01*
X188834Y263834D01*
X188001Y268832D02*
Y272164D01*
X188834D01*
X192166Y268832D01*
X192999D01*
X212749Y261336D02*
X207751D01*
Y263835D01*
X208584Y264668D01*
X210250D01*
X211083Y263835D01*
Y261336D01*
Y263002D02*
X212749Y264668D01*
Y269666D02*
Y266334D01*
X209417Y269666D01*
X208584D01*
X207751Y268833D01*
Y267167D01*
X208584Y266334D01*
X207751Y274664D02*
X208584Y272998D01*
X210250Y271332D01*
X211916D01*
X212749Y272165D01*
Y273831D01*
X211916Y274664D01*
X211083D01*
X210250Y273831D01*
Y271332D01*
X161667Y271916D02*
X160834Y272749D01*
X159168D01*
X158335Y271916D01*
Y268584D01*
X159168Y267751D01*
X160834D01*
X161667Y268584D01*
X163333Y267751D02*
X165000D01*
X164167D01*
Y272749D01*
X163333Y271916D01*
X167499Y267751D02*
X169165D01*
X168332D01*
Y272749D01*
X167499Y271916D01*
X73668Y99999D02*
X77000D01*
Y99166D01*
X73668Y95834D01*
Y95001D01*
X77000D01*
X78666D02*
X80332D01*
X79499D01*
Y99999D01*
X78666Y99166D01*
X69418Y82749D02*
Y81916D01*
X71084Y80250D01*
X72750Y81916D01*
Y82749D01*
X71084Y80250D02*
Y77751D01*
X74416D02*
X76082D01*
X75249D01*
Y82749D01*
X74416Y81916D01*
X70835Y228501D02*
Y233499D01*
X73335D01*
X74168Y232666D01*
Y231000D01*
X73335Y230167D01*
X70835D01*
X72502D02*
X74168Y228501D01*
X75834Y232666D02*
X76667Y233499D01*
X78333D01*
X79166Y232666D01*
Y231833D01*
X78333Y231000D01*
X77500D01*
X78333D01*
X79166Y230167D01*
Y229334D01*
X78333Y228501D01*
X76667D01*
X75834Y229334D01*
X80832D02*
X81665Y228501D01*
X83331D01*
X84164Y229334D01*
Y232666D01*
X83331Y233499D01*
X81665D01*
X80832Y232666D01*
Y231833D01*
X81665Y231000D01*
X84164D01*
X513084Y106180D02*
Y111178D01*
X515583D01*
X516416Y110345D01*
Y108679D01*
X515583Y107846D01*
X513084D01*
X514750D02*
X516416Y106180D01*
X521415D02*
X518082D01*
X521415Y109512D01*
Y110345D01*
X520582Y111178D01*
X518915D01*
X518082Y110345D01*
X526413Y106180D02*
X523081D01*
X526413Y109512D01*
Y110345D01*
X525580Y111178D01*
X523914D01*
X523081Y110345D01*
X514419Y158751D02*
Y163749D01*
X516918D01*
X517751Y162916D01*
Y161250D01*
X516918Y160417D01*
X514419D01*
X516085D02*
X517751Y158751D01*
X522749D02*
X519417D01*
X522749Y162083D01*
Y162916D01*
X521916Y163749D01*
X520250D01*
X519417Y162916D01*
X524415Y158751D02*
X526081D01*
X525248D01*
Y163749D01*
X524415Y162916D01*
X393249Y259252D02*
X388251D01*
Y261751D01*
X389084Y262584D01*
X390750D01*
X391583Y261751D01*
Y259252D01*
Y260918D02*
X393249Y262584D01*
Y264250D02*
Y265917D01*
Y265084D01*
X388251D01*
X389084Y264250D01*
Y268416D02*
X388251Y269249D01*
Y270915D01*
X389084Y271748D01*
X389917D01*
X390750Y270915D01*
X391583Y271748D01*
X392416D01*
X393249Y270915D01*
Y269249D01*
X392416Y268416D01*
X391583D01*
X390750Y269249D01*
X389917Y268416D01*
X389084D01*
X390750Y269249D02*
Y270915D01*
X272999Y253752D02*
X268001D01*
Y256251D01*
X268834Y257084D01*
X270500D01*
X271333Y256251D01*
Y253752D01*
Y255418D02*
X272999Y257084D01*
Y258750D02*
Y260417D01*
Y259583D01*
X268001D01*
X268834Y258750D01*
X268001Y266248D02*
X268834Y264582D01*
X270500Y262916D01*
X272166D01*
X272999Y263749D01*
Y265415D01*
X272166Y266248D01*
X271333D01*
X270500Y265415D01*
Y262916D01*
X312999Y254252D02*
X308001D01*
Y256751D01*
X308834Y257584D01*
X310500D01*
X311333Y256751D01*
Y254252D01*
Y255918D02*
X312999Y257584D01*
Y259250D02*
Y260917D01*
Y260084D01*
X308001D01*
X308834Y259250D01*
X312999Y265915D02*
X308001D01*
X310500Y263416D01*
Y266748D01*
X352999Y255002D02*
X348001D01*
Y257501D01*
X348834Y258334D01*
X350500D01*
X351333Y257501D01*
Y255002D01*
Y256668D02*
X352999Y258334D01*
Y260000D02*
Y261667D01*
Y260833D01*
X348001D01*
X348834Y260000D01*
X352999Y267498D02*
Y264166D01*
X349667Y267498D01*
X348834D01*
X348001Y266665D01*
Y264999D01*
X348834Y264166D01*
X476508Y106180D02*
Y111178D01*
X479007D01*
X479840Y110345D01*
Y108679D01*
X479007Y107846D01*
X476508D01*
X478174D02*
X479840Y106180D01*
X481506D02*
X483172D01*
X482339D01*
Y111178D01*
X481506Y110345D01*
X50167Y270749D02*
X48501D01*
X49334D01*
Y266584D01*
X48501Y265751D01*
X47668D01*
X46835Y266584D01*
X51833D02*
X52666Y265751D01*
X54332D01*
X55165Y266584D01*
Y269916D01*
X54332Y270749D01*
X52666D01*
X51833Y269916D01*
Y269083D01*
X52666Y268250D01*
X55165D01*
X369001Y257585D02*
X373999D01*
Y260084D01*
X373166Y260917D01*
X369834D01*
X369001Y260084D01*
Y257585D01*
Y265915D02*
Y262583D01*
X371500D01*
X370667Y264249D01*
Y265082D01*
X371500Y265915D01*
X373166D01*
X373999Y265082D01*
Y263416D01*
X373166Y262583D01*
X498890Y110345D02*
X498057Y111178D01*
X496391D01*
X495558Y110345D01*
Y107013D01*
X496391Y106180D01*
X498057D01*
X498890Y107013D01*
X500556Y111178D02*
X503889D01*
Y110345D01*
X500556Y107013D01*
Y106180D01*
X576167Y155166D02*
X575334Y155999D01*
X573668D01*
X572835Y155166D01*
Y151834D01*
X573668Y151001D01*
X575334D01*
X576167Y151834D01*
X581165Y155999D02*
X579499Y155166D01*
X577833Y153500D01*
Y151834D01*
X578666Y151001D01*
X580332D01*
X581165Y151834D01*
Y152667D01*
X580332Y153500D01*
X577833D01*
X499167Y138416D02*
X498334Y139249D01*
X496668D01*
X495835Y138416D01*
Y135084D01*
X496668Y134251D01*
X498334D01*
X499167Y135084D01*
X503332Y134251D02*
Y139249D01*
X500833Y136750D01*
X504165D01*
D15*
X370000Y274998D02*
Y269000D01*
Y270999D01*
X373999Y274998D01*
X371000Y271999D01*
X373999Y269000D01*
X266250Y274998D02*
Y269000D01*
Y270999D01*
X270249Y274998D01*
X267250Y271999D01*
X270249Y269000D01*
X306250Y274998D02*
Y269000D01*
Y270999D01*
X310249Y274998D01*
X307250Y271999D01*
X310249Y269000D01*
X346250Y275248D02*
Y269250D01*
Y271249D01*
X350249Y275248D01*
X347250Y272249D01*
X350249Y269250D01*
X426250Y274998D02*
Y269000D01*
Y270999D01*
X430249Y274998D01*
X427250Y271999D01*
X430249Y269000D01*
X213420Y235538D02*
Y229540D01*
Y231539D01*
X217419Y235538D01*
X214420Y232539D01*
X217419Y229540D01*
X285501Y203499D02*
Y198501D01*
X286501Y197501D01*
X288500D01*
X289500Y198501D01*
Y203499D01*
X291499Y197501D02*
X293499D01*
X292499D01*
Y203499D01*
X291499Y202499D01*
M02*
