M48
;Layer_Color=9474304
;FILE_FORMAT=4:4
METRIC,LZ
;TYPE=PLATED
T1F00S00C0.3000
T3F00S00C1.0000
T4F00S00C1.2000
T5F00S00C2.8000
%
T01
X00012Y000615
X0002625Y0006175
X00021Y00071
X00040962Y00087681
X00047962
X00054962
X00061962
X0006875Y000875
X0007475Y00092
X0009375Y0009025
X000975Y000975
Y0010525
X00106Y00115
X000975Y00128
Y00135
X000745Y0013175
Y00125
Y00118
X0007102Y00112358
X00065627Y00116821
X00058645Y00117319
X00051645
X00044645
X00037645
X00036Y0014125
X000445
X000745Y00139
X000665Y001305
X00086Y0008148
X0008027Y00072
X0009473
X0011123Y000655
Y000435
X00097Y0002225
X0008625Y00012
X001225Y0001175
X00136Y00072
X0013375Y001205
X0013425Y001315
X00134Y001425
X0007Y000505
X0006275Y0004175
X00145Y0005127
Y0007227
Y0009327
X0015477Y001045
X00166Y0011427
X0017577Y001255
X00166Y0013673
X00187
X00208
X0022723Y001355
X0021923Y001255
X0024023
X00237228Y00115
X00229Y0011427
X00208
Y0009327
X00196Y00096
X00187Y0009327
Y0011427
X0019677Y001255
X00196Y00071
X00187Y0007227
X00166
Y0005127
X00187
X00208
Y0007227
X00229
Y0005127
X0025
Y0007227
X0024023Y000835
Y001045
X00229Y0009327
X002615Y0009875
X0026075Y001095
X0028377Y000875
X0029Y00075
X003195Y000775
X0031925Y000575
X0033325
X003585Y000525
X0034975Y000375
X003675Y000275
X00402Y0002775
X004105Y0006925
X00408Y0009725
X0037975Y0010125
X0038Y0011375
X0038025Y001265
X0040325Y00127
X0039575Y001375
X004205Y0012277
X00432Y00125
X00446Y00096
X0047025Y00087
X00471Y00071
Y00046
Y00021
X00496
X00446
X003395Y0001925
X0033275Y00015
X0031375Y000375
X00296Y00046
X0031925Y000975
X0031725Y0011375
Y0012625
X00283Y00142
X0038Y000885
X00380219Y00069783
X00521Y00071
X00515Y0007823
X0051027Y001155
X0053027
X0049Y001375
X0048
X00166Y0009327
X00546Y00096
X00571
X00596
X00621
Y00121
X005775Y001265
X00571Y00121
X00546
X0055Y0012775
X00571Y00071
X00621
Y00046
Y00021
X00596
X00546
X0055Y0015277
X00546Y00196
X00571
X00596
X00621
Y00221
X00596
X00571
X00621Y00171
Y00146
X0049Y00145
Y001525
X0047Y0017698
X004275Y0018175
X00421Y00221
X00433Y0023527
X0044Y00251
X004295Y0025825
X0042Y0026525
X0040025Y0025
X0038Y00251
X00371Y00246
X0032675Y0024175
X00296Y00246
X00271
X00246
X0024Y002515
X0022Y0025075
X002095Y00258
X002Y00266
X0019707Y0022637
X0020905Y0023216
X0021925Y0022525
X002305Y0022625
X0024175Y0022575
X0025225
X0026375
X0026075Y00189
X0026125Y0017375
Y0016625
X00261616Y00155409
X00292Y001635
X0029173Y0017625
X003245Y001825
X00330122Y00157628
X0034875Y0014325
X0038325Y0015325
X0038077Y0016375
X0038075Y001835
X0024023Y001885
X00208Y0017873
Y0015773
X00187
Y0017873
X00166
Y0015773
X0015575Y001675
X00145Y0017873
X001645Y0020325
X001755Y00203
X001865Y0020275
X001975Y00203
X0017331Y0024511
X00155Y0024175
Y002635
X0021923Y001465
X00521Y00221
X001215Y0023725
X0010875Y00225
X0009375
X0007125Y0022875
X0007025Y0021825
X0007625Y0021225
X00076099Y00204751
X0007125Y0019075
Y001785
X00086367Y00178202
X0009125Y00182
X000975Y0018475
X001045Y0018575
X0011175
X00121Y00196
X0013477Y001865
X00134Y001645
Y001535
X0011175Y001635
X0010475Y0016525
X00099Y001615
X000965Y0015525
X0009675Y001485
X000755Y00146
X0007585Y00152951
X00076588Y00159912
X00078651Y00166601
X00081936Y00172782
X000895Y0019125
X0007973Y0024025
X0007Y0024325
X001145Y0026725
X001305Y002675
X0005825Y001475
T03
X004298Y00055
X004552
X004969Y000684
X005223Y000176
X005731
X005477Y000684
X005985
X005477Y002116
X005731Y002624
X005223
X004715
X004969Y002116
X004552Y001625
X004298
X003802Y00225
X003548
X003202
X002948
T04
X00601Y001225
Y001575
T05
X00035Y00025
X00615Y00255
M30
