G04*
G04 #@! TF.GenerationSoftware,Altium Limited,Altium Designer,21.9.2 (33)*
G04*
G04 Layer_Physical_Order=4*
G04 Layer_Color=255*
%FSLAX44Y44*%
%MOMM*%
G71*
G04*
G04 #@! TF.SameCoordinates,5C5C66F8-9FC8-4E62-95D0-8360453F7E55*
G04*
G04*
G04 #@! TF.FilePolarity,Positive*
G04*
G01*
G75*
%ADD10C,0.2000*%
%ADD13C,0.3000*%
%ADD16R,0.5000X0.6500*%
%ADD17R,0.6500X0.5000*%
%ADD19R,1.2000X0.5500*%
%ADD20R,0.7000X0.8000*%
%ADD22R,0.5500X1.2000*%
%ADD33R,0.8000X1.0000*%
%ADD38O,1.6000X1.7000*%
%ADD39R,1.6000X1.7000*%
%ADD40C,1.1000*%
%ADD41C,1.6000*%
%ADD42R,1.6000X1.6000*%
%ADD43R,1.8000X1.8000*%
%ADD44C,1.8000*%
%ADD45O,0.9000X1.8000*%
%ADD46O,2.0000X0.9000*%
%ADD47C,5.0000*%
%ADD48C,0.4000*%
%ADD50C,0.5000*%
%ADD52C,0.6000*%
%ADD53R,0.8000X0.7000*%
%ADD54R,0.8000X0.9000*%
%ADD55R,0.9000X0.8000*%
%ADD56C,1.2000*%
%ADD57R,0.6500X0.9500*%
%ADD58R,1.0000X2.5000*%
G36*
X321212Y276230D02*
X311561Y266578D01*
X227000D01*
X227000Y266578D01*
X225439Y266268D01*
X224116Y265384D01*
X224116Y265384D01*
X220811Y262078D01*
X211413D01*
X210395Y262500D01*
X208605D01*
X207587Y262078D01*
X204238D01*
X203712Y263348D01*
X203815Y263451D01*
X204500Y265105D01*
Y266895D01*
X203815Y268549D01*
X202549Y269815D01*
X200895Y270500D01*
X199105D01*
X197451Y269815D01*
X196695Y269059D01*
X158258D01*
X158257Y269059D01*
X157087Y268826D01*
X156095Y268163D01*
X155921Y267989D01*
X155895Y268000D01*
X154105D01*
X152451Y267315D01*
X151185Y266049D01*
X150500Y264395D01*
Y262605D01*
X151185Y260951D01*
X152451Y259685D01*
X154039Y259027D01*
X154169Y258711D01*
X154384Y257730D01*
X153866Y257384D01*
X153866Y257384D01*
X138061Y241578D01*
X133750D01*
Y245000D01*
X125250D01*
Y241523D01*
X124077Y241037D01*
X124049Y241065D01*
X123000Y241499D01*
Y237250D01*
Y233001D01*
X123902Y233374D01*
X125172Y232898D01*
Y230000D01*
X123250D01*
Y220000D01*
X134250D01*
Y230000D01*
X133750Y230000D01*
Y233422D01*
X139750D01*
X139750Y233422D01*
X141311Y233732D01*
X142634Y234616D01*
X149327Y241309D01*
X150549Y240736D01*
X151185Y239201D01*
X152451Y237935D01*
X153500Y237501D01*
Y241750D01*
X155000D01*
Y243250D01*
X159249D01*
X158815Y244299D01*
X157549Y245565D01*
X156014Y246201D01*
X155441Y247423D01*
X158439Y250422D01*
X171056D01*
X171308Y249152D01*
X170761Y248925D01*
X169495Y247659D01*
X168810Y246005D01*
Y244215D01*
X169495Y242561D01*
X170761Y241295D01*
X172415Y240610D01*
X174205D01*
X175859Y241295D01*
X177015Y242451D01*
X233500D01*
X234475Y242645D01*
X235302Y243198D01*
X239105Y247000D01*
X239105Y247000D01*
X240327D01*
X240924Y246947D01*
X241500Y245876D01*
Y245105D01*
X242185Y243451D01*
X243451Y242185D01*
X244500Y241751D01*
Y246000D01*
X246000D01*
Y247500D01*
X250249D01*
X249815Y248549D01*
X248549Y249815D01*
X246895Y250500D01*
X245673D01*
X245076Y250553D01*
X244500Y251624D01*
Y252395D01*
X243815Y254049D01*
X242549Y255315D01*
X240895Y256000D01*
X239105D01*
X237451Y255315D01*
X236185Y254049D01*
X235500Y252395D01*
Y250605D01*
X235500Y250605D01*
X232444Y247549D01*
X224822D01*
X224071Y248819D01*
X224500Y249855D01*
Y251645D01*
X223972Y252920D01*
X223962Y252997D01*
X224017Y253686D01*
X224431Y254479D01*
X225384Y255116D01*
X228689Y258422D01*
X313250D01*
X313250Y258422D01*
X314811Y258732D01*
X316134Y259616D01*
X326939Y270422D01*
X417408D01*
X417660Y269152D01*
X417451Y269065D01*
X416185Y267799D01*
X416185Y267799D01*
X336500D01*
X335525Y267605D01*
X334698Y267052D01*
X324948Y257302D01*
X324395Y256475D01*
X324201Y255500D01*
Y245565D01*
X324201Y245565D01*
X322935Y244299D01*
X322250Y242645D01*
Y240855D01*
X322935Y239201D01*
X324201Y237935D01*
X325855Y237250D01*
X327645D01*
X329299Y237935D01*
X330565Y239201D01*
X331250Y240855D01*
Y242645D01*
X330565Y244299D01*
X329299Y245565D01*
X329299Y245565D01*
Y254444D01*
X337556Y262701D01*
X416185D01*
X416185Y262701D01*
X417451Y261435D01*
X419105Y260750D01*
X420895D01*
X422549Y261435D01*
X423815Y262701D01*
X424152Y263514D01*
X425422Y263261D01*
Y260163D01*
X425000Y259145D01*
Y257355D01*
X425422Y256337D01*
Y251689D01*
X407116Y233384D01*
X406232Y232061D01*
X405922Y230500D01*
X405922Y230500D01*
Y217624D01*
X403000D01*
X401852Y217148D01*
X401376Y216000D01*
Y202394D01*
X398561Y199578D01*
X395500D01*
Y210982D01*
X397634Y213116D01*
X397634Y213116D01*
X398518Y214439D01*
X398828Y216000D01*
Y231311D01*
X403134Y235616D01*
X403134Y235616D01*
X404018Y236939D01*
X404328Y238500D01*
X404328Y238500D01*
Y248087D01*
X404750Y249105D01*
Y250895D01*
X404065Y252549D01*
X402799Y253815D01*
X401145Y254500D01*
X399355D01*
X397701Y253815D01*
X396435Y252549D01*
X395750Y250895D01*
Y249105D01*
X396172Y248087D01*
Y240189D01*
X391866Y235884D01*
X390982Y234561D01*
X390970Y234500D01*
X389700Y234625D01*
Y235000D01*
X381700D01*
Y225000D01*
Y215000D01*
X386301D01*
X386846Y213730D01*
X386232Y212811D01*
X385971Y211500D01*
X384500D01*
Y199578D01*
X337500D01*
X337500Y199578D01*
X335939Y199268D01*
X334616Y198384D01*
X322969Y186737D01*
X321951Y186315D01*
X320685Y185049D01*
X320000Y183395D01*
Y181651D01*
X319870Y181530D01*
X318891Y180964D01*
X272302Y227552D01*
X271476Y228105D01*
X270500Y228299D01*
X267565D01*
X267565Y228299D01*
X266299Y229565D01*
X264645Y230250D01*
X262855D01*
X261201Y229565D01*
X259935Y228299D01*
X259250Y226645D01*
Y224855D01*
X259748Y223653D01*
X258671Y222934D01*
X256750Y224855D01*
X256750Y224855D01*
Y226645D01*
X256065Y228299D01*
X254799Y229565D01*
X253145Y230250D01*
X251355D01*
X249701Y229565D01*
X248435Y228299D01*
X247750Y226645D01*
Y226333D01*
X246480Y225586D01*
X246284Y225695D01*
X246250Y225756D01*
Y226645D01*
X245565Y228299D01*
X244299Y229565D01*
X242645Y230250D01*
X240855D01*
X239201Y229565D01*
X237935Y228299D01*
X237250Y226645D01*
Y224901D01*
X237120Y224780D01*
X236141Y224214D01*
X235000Y225355D01*
X235000Y225355D01*
Y227145D01*
X234315Y228799D01*
X233049Y230065D01*
X231395Y230750D01*
X229605D01*
X227951Y230065D01*
X226685Y228799D01*
X226000Y227145D01*
Y225355D01*
X226685Y223701D01*
X227951Y222435D01*
X229605Y221750D01*
X231395D01*
X231395Y221750D01*
X243423Y209722D01*
X242937Y208549D01*
X225815D01*
X225329Y209722D01*
X225501Y209895D01*
X226489Y211605D01*
X227000Y213513D01*
Y215487D01*
X226489Y217395D01*
X225501Y219105D01*
X224105Y220501D01*
X223190Y221030D01*
X222962Y222598D01*
X223065Y222701D01*
X223750Y224355D01*
Y226145D01*
X223065Y227799D01*
X221799Y229065D01*
X220145Y229750D01*
X218355D01*
X216701Y229065D01*
X215435Y227799D01*
X214750Y226145D01*
Y224355D01*
X215435Y222701D01*
X215702Y222434D01*
X215493Y220847D01*
X214895Y220501D01*
X213498Y219105D01*
X212511Y217395D01*
X212000Y215487D01*
Y215243D01*
X210827Y214757D01*
X206532Y219052D01*
X205705Y219605D01*
X204729Y219799D01*
X178500D01*
X177525Y219605D01*
X176698Y219052D01*
X165395Y207750D01*
X165395Y207750D01*
X163605D01*
X161951Y207065D01*
X160685Y205799D01*
X160000Y204145D01*
Y202355D01*
X160297Y201638D01*
X159611Y200610D01*
X158284Y200525D01*
X142483Y216326D01*
X140498Y217652D01*
X138157Y218118D01*
X91000D01*
Y220032D01*
X91569Y220145D01*
X92389Y220693D01*
X92855Y220500D01*
X94645D01*
X96299Y221185D01*
X97565Y222451D01*
X98250Y224105D01*
Y225895D01*
X97565Y227549D01*
X96299Y228815D01*
X94645Y229500D01*
X92855D01*
X91201Y228815D01*
X89935Y227549D01*
X89250Y225895D01*
Y225250D01*
X87500D01*
Y227250D01*
X82500D01*
X77500D01*
Y225250D01*
X75773D01*
X75197Y226520D01*
X75750Y227855D01*
Y229645D01*
X75065Y231299D01*
X73799Y232565D01*
X72145Y233250D01*
X70355D01*
X68701Y232565D01*
X67435Y231299D01*
X66750Y229645D01*
Y227855D01*
X67435Y226201D01*
X68701Y224935D01*
X69741Y224504D01*
X70282Y223157D01*
X70272Y223014D01*
X70096Y222750D01*
X69355D01*
X67701Y222065D01*
X66435Y220799D01*
X65750Y219145D01*
Y217355D01*
X66435Y215701D01*
X67701Y214435D01*
X68468Y214117D01*
X68250Y213303D01*
Y211197D01*
X68795Y209162D01*
X69102Y208631D01*
X68644Y207839D01*
X68099Y205805D01*
Y203698D01*
X68644Y201664D01*
X69698Y199839D01*
X71187Y198350D01*
X73011Y197297D01*
X73955Y197044D01*
X73985Y195846D01*
X72730Y195008D01*
X72145Y195250D01*
X70355D01*
X68701Y194565D01*
X67435Y193299D01*
X66750Y191645D01*
Y189855D01*
X67435Y188201D01*
X68701Y186935D01*
X70355Y186250D01*
X72145D01*
X73799Y186935D01*
X75065Y188201D01*
X75750Y189855D01*
Y191645D01*
X75065Y193299D01*
X74884Y193480D01*
X75410Y194750D01*
X77500D01*
Y192750D01*
X82500D01*
Y191250D01*
X84000D01*
Y185750D01*
X87500D01*
Y186065D01*
X88000Y186399D01*
Y191250D01*
X89500D01*
Y192750D01*
X93749D01*
X93315Y193799D01*
X92049Y195065D01*
X91000Y195499D01*
Y201882D01*
X133966D01*
X149924Y185924D01*
X151909Y184598D01*
X154250Y184132D01*
X163966D01*
X164219Y182862D01*
X163451Y182544D01*
X162185Y181279D01*
X161751Y180230D01*
X166000D01*
Y178730D01*
X167500D01*
Y174480D01*
X168113Y174734D01*
X169382Y174089D01*
Y173093D01*
X169848Y170752D01*
X171174Y168767D01*
X176267Y163674D01*
X178252Y162348D01*
X180593Y161882D01*
X182992D01*
X183519Y160613D01*
X183185Y160279D01*
X182750Y159230D01*
X191249D01*
X190815Y160279D01*
X190481Y160613D01*
X191007Y161882D01*
X203993D01*
X204519Y160613D01*
X204185Y160279D01*
X203751Y159230D01*
X212250D01*
X211815Y160279D01*
X211481Y160613D01*
X212008Y161882D01*
X213667D01*
X214000Y161448D01*
Y158552D01*
X214750Y155754D01*
X216198Y153246D01*
X217440Y152004D01*
X217142Y150506D01*
X216681Y150315D01*
X215415Y149049D01*
X214981Y148000D01*
X223772D01*
X224440Y149000D01*
X226448D01*
X228730Y149611D01*
X230000Y148849D01*
Y145250D01*
X245000D01*
Y145422D01*
X247500D01*
Y145250D01*
X262500D01*
Y147482D01*
X263431Y148413D01*
X264701Y147887D01*
Y117500D01*
X264895Y116524D01*
X265448Y115698D01*
X295198Y85948D01*
X296025Y85395D01*
X297000Y85201D01*
X320063D01*
X321250Y85000D01*
X321250Y82916D01*
X320217Y82000D01*
X318605D01*
X316951Y81315D01*
X315685Y80049D01*
X315000Y78395D01*
Y76605D01*
X315685Y74951D01*
X316951Y73685D01*
X318605Y73000D01*
X320395D01*
X321250Y72429D01*
Y70049D01*
X298556D01*
X294500Y74105D01*
X294500Y74105D01*
Y75895D01*
X293815Y77549D01*
X292549Y78815D01*
X290895Y79500D01*
X289105D01*
X287451Y78815D01*
X286185Y77549D01*
X285500Y75895D01*
Y74105D01*
X286185Y72451D01*
X287451Y71185D01*
X289105Y70500D01*
X290895D01*
X290895Y70500D01*
X295698Y65698D01*
X296525Y65145D01*
X297500Y64951D01*
X321250D01*
Y62685D01*
X320194Y61980D01*
X320145Y62000D01*
X318355D01*
X316701Y61315D01*
X315435Y60049D01*
X314750Y58395D01*
Y56605D01*
X315435Y54951D01*
X316701Y53685D01*
X318355Y53000D01*
X320145D01*
X320194Y53020D01*
X321250Y52315D01*
Y50000D01*
X329750D01*
Y52977D01*
X331020Y53553D01*
X332355Y53000D01*
X334145D01*
X334194Y53020D01*
X335250Y52315D01*
Y50799D01*
X334000D01*
X333024Y50605D01*
X332198Y50052D01*
X330948Y48802D01*
X330395Y47976D01*
X330201Y47000D01*
Y46083D01*
X329750Y45000D01*
X328931Y45000D01*
X321250D01*
Y40049D01*
X317565D01*
X317565Y40049D01*
X316299Y41315D01*
X314645Y42000D01*
X312855D01*
X311201Y41315D01*
X309935Y40049D01*
X309250Y38395D01*
Y36605D01*
X309935Y34951D01*
X311201Y33685D01*
X312855Y33000D01*
X314645D01*
X316299Y33685D01*
X317565Y34951D01*
X317565Y34951D01*
X321250D01*
Y30000D01*
X329750Y30000D01*
X330201Y28917D01*
Y18815D01*
X330201Y18815D01*
X328935Y17549D01*
X328250Y15895D01*
Y14105D01*
X328935Y12451D01*
X330201Y11185D01*
X331855Y10500D01*
X333645D01*
X335299Y11185D01*
X336565Y12451D01*
X337250Y14105D01*
Y14168D01*
X338306Y14874D01*
X338605Y14750D01*
X340395D01*
X342049Y15435D01*
X343315Y16701D01*
X344000Y18355D01*
Y20145D01*
X343315Y21799D01*
X342049Y23065D01*
X342049Y23065D01*
Y30000D01*
X343750D01*
Y34951D01*
X345935D01*
X345935Y34951D01*
X347201Y33685D01*
X348855Y33000D01*
X350645D01*
X352299Y33685D01*
X353565Y34951D01*
X354250Y36605D01*
Y38395D01*
X353565Y40049D01*
X352299Y41315D01*
X350645Y42000D01*
X348855D01*
X347201Y41315D01*
X345935Y40049D01*
X345935Y40049D01*
X343750D01*
Y45000D01*
X339922D01*
X339537Y46270D01*
X339802Y46448D01*
X341302Y47948D01*
X341855Y48775D01*
X342049Y49750D01*
Y50000D01*
X343750D01*
Y65000D01*
X339901D01*
X339375Y66270D01*
X341302Y68198D01*
X341855Y69025D01*
X342049Y70000D01*
X343750D01*
Y85000D01*
X340581D01*
X340125Y86270D01*
X341302Y87448D01*
X341855Y88275D01*
X342049Y89250D01*
Y90000D01*
X343750D01*
Y105000D01*
X340831D01*
X340375Y106270D01*
X341302Y107198D01*
X341855Y108025D01*
X342049Y109000D01*
Y110000D01*
X343750D01*
Y125000D01*
X335250D01*
Y110299D01*
X329750D01*
Y125000D01*
X327264D01*
X326778Y126173D01*
X327302Y126698D01*
X327855Y127524D01*
X328049Y128500D01*
Y130000D01*
X329750D01*
Y137204D01*
X330712Y137600D01*
X331020Y137625D01*
X332948Y135698D01*
X333775Y135145D01*
X334750Y134951D01*
X335250D01*
Y130000D01*
X343750D01*
Y140243D01*
X344617Y140578D01*
X345020Y140616D01*
X346201Y139435D01*
X347855Y138750D01*
X349645D01*
X351299Y139435D01*
X351931Y140067D01*
X353201Y139541D01*
Y76000D01*
X353395Y75024D01*
X353948Y74198D01*
X365664Y62481D01*
X366492Y61928D01*
X367467Y61734D01*
X381801D01*
X382729Y60560D01*
X382546Y60049D01*
X369500D01*
X368525Y59855D01*
X367698Y59302D01*
X363544Y55149D01*
X362234Y55130D01*
X361049Y56315D01*
X359395Y57000D01*
X357605D01*
X355951Y56315D01*
X354685Y55049D01*
X354000Y53395D01*
Y51605D01*
X354685Y49951D01*
X355951Y48685D01*
X357605Y48000D01*
X359395D01*
X361049Y48685D01*
X362315Y49951D01*
X362315Y49951D01*
X364500D01*
X365476Y50145D01*
X366302Y50698D01*
X370556Y54951D01*
X371951D01*
Y45000D01*
X370250D01*
Y32606D01*
X368980Y31758D01*
X368395Y32000D01*
X366605D01*
X366020Y31758D01*
X364750Y32606D01*
Y45000D01*
X356250D01*
Y30000D01*
X357951D01*
Y25000D01*
X356250D01*
Y10000D01*
X357951D01*
Y9500D01*
X358145Y8525D01*
X358698Y7698D01*
X361948Y4448D01*
X362775Y3895D01*
X363403Y3770D01*
X363278Y2500D01*
X108735D01*
X108249Y3673D01*
X110663Y6087D01*
X110663Y6087D01*
X111326Y7079D01*
X111559Y8250D01*
Y28483D01*
X112017Y28941D01*
X115000D01*
Y27750D01*
X130000D01*
Y36250D01*
X128417D01*
X127250Y36500D01*
Y44230D01*
X127250Y44500D01*
Y45500D01*
X127250Y45770D01*
Y53500D01*
X128209Y54250D01*
X130500D01*
Y55441D01*
X134250D01*
X134250Y55441D01*
X135421Y55674D01*
X136413Y56337D01*
X140017Y59941D01*
X149500D01*
X149500Y59941D01*
X150670Y60174D01*
X151663Y60837D01*
X154413Y63587D01*
X154413Y63587D01*
X155076Y64579D01*
X155309Y65750D01*
X155309Y65750D01*
Y76750D01*
X155076Y77921D01*
X154413Y78913D01*
X154413Y78913D01*
X150413Y82913D01*
X149420Y83576D01*
X148250Y83809D01*
X148250Y83809D01*
X141517D01*
X110500Y114826D01*
Y115895D01*
X109815Y117549D01*
X108549Y118815D01*
X106895Y119500D01*
X105105D01*
X103451Y118815D01*
X102185Y117549D01*
X101500Y115895D01*
Y114105D01*
X102185Y112451D01*
X103451Y111185D01*
X105105Y110500D01*
X106174D01*
X138087Y78587D01*
X139080Y77924D01*
X140250Y77691D01*
X140250Y77691D01*
X143010D01*
X143263Y76421D01*
X142451Y76085D01*
X141185Y74819D01*
X141131Y74689D01*
X140311Y74602D01*
X139733Y74631D01*
X138549Y75815D01*
X137500Y76249D01*
Y72000D01*
X134500D01*
Y76249D01*
X133451Y75815D01*
X132185Y74549D01*
X131770Y73547D01*
X130500Y73800D01*
Y76750D01*
X124500D01*
Y72500D01*
X123000D01*
Y71000D01*
X115500D01*
Y69390D01*
X114230Y68864D01*
X113779Y69315D01*
X112500Y69845D01*
Y70500D01*
X106500D01*
Y67223D01*
X106649Y67000D01*
X111230D01*
Y64000D01*
X106980D01*
X107179Y63520D01*
X106456Y62250D01*
X97500D01*
Y61059D01*
X89500D01*
X88329Y60826D01*
X87337Y60163D01*
X75337Y48163D01*
X75180Y47927D01*
X74054Y48529D01*
X74500Y49605D01*
Y51395D01*
X74051Y52480D01*
X74773Y53750D01*
X77500D01*
Y62250D01*
X62500D01*
Y62250D01*
X61250Y62298D01*
Y67702D01*
X62500Y67750D01*
X62520Y67750D01*
X68500D01*
Y70500D01*
X62500D01*
Y70048D01*
X61250Y70000D01*
X61230Y70000D01*
X52750D01*
Y55774D01*
X52500Y55569D01*
X47978D01*
X47250Y56297D01*
Y70000D01*
X38750D01*
Y55000D01*
X39531D01*
X39703Y54134D01*
X40477Y52977D01*
X41342Y52112D01*
X40735Y50922D01*
X37086Y51500D01*
X32914D01*
X28795Y50848D01*
X24827Y49559D01*
X21111Y47665D01*
X17736Y45213D01*
X14787Y42264D01*
X12335Y38889D01*
X10441Y35173D01*
X9153Y31205D01*
X8500Y27086D01*
Y22914D01*
X9153Y18795D01*
X10441Y14828D01*
X12335Y11111D01*
X14787Y7736D01*
X17736Y4787D01*
X19222Y3708D01*
X18829Y2500D01*
X2500D01*
Y76126D01*
X18298D01*
X18551Y74856D01*
X18451Y74815D01*
X17185Y73549D01*
X16751Y72500D01*
X25249D01*
X24815Y73549D01*
X23549Y74815D01*
X23449Y74856D01*
X23702Y76126D01*
X30000D01*
X31148Y76602D01*
X31624Y77750D01*
Y127250D01*
X31148Y128398D01*
X30000Y128874D01*
X2500D01*
Y155376D01*
X7135D01*
X7528Y154106D01*
X6348Y152341D01*
X5882Y150000D01*
X6348Y147659D01*
X7674Y145674D01*
X9659Y144348D01*
X12000Y143883D01*
X23000D01*
X25341Y144348D01*
X27326Y145674D01*
X28652Y147659D01*
X29118Y150000D01*
X28992Y150630D01*
X30039Y151876D01*
X41597D01*
X41895Y152000D01*
X42218D01*
X43321Y152457D01*
X43549Y152685D01*
X43847Y152809D01*
X44691Y153653D01*
X44815Y153951D01*
X44980Y154116D01*
X45298Y154094D01*
X46250Y153774D01*
Y149000D01*
X50500D01*
Y147500D01*
X52000D01*
Y140000D01*
X54750D01*
Y142977D01*
X56020Y143553D01*
X57355Y143000D01*
X59145D01*
X59194Y143020D01*
X60250Y142315D01*
Y140000D01*
X68750D01*
Y155000D01*
X67332D01*
X66947Y156270D01*
X67926Y156924D01*
X69252Y158909D01*
X69718Y161250D01*
X69252Y163591D01*
X67926Y165576D01*
X65941Y166902D01*
X63600Y167368D01*
X59218D01*
Y171250D01*
X58752Y173591D01*
X57426Y175576D01*
X55441Y176902D01*
X53100Y177367D01*
X50759Y176902D01*
X48774Y175576D01*
X47448Y173591D01*
X46982Y171250D01*
Y164584D01*
X46894Y164497D01*
X45624Y165029D01*
Y254966D01*
X46894Y255499D01*
X46982Y255412D01*
Y248750D01*
X47448Y246409D01*
X48774Y244424D01*
X50759Y243098D01*
X53100Y242632D01*
X55441Y243098D01*
X57426Y244424D01*
X58752Y246409D01*
X59217Y248750D01*
Y252632D01*
X63599D01*
X65940Y253097D01*
X67925Y254423D01*
X69251Y256408D01*
X69717Y258749D01*
X69251Y261090D01*
X67925Y263075D01*
X65940Y264401D01*
X63599Y264867D01*
X52599D01*
X50258Y264401D01*
X48274Y263075D01*
X46947Y261090D01*
X46894Y260819D01*
X45624Y260944D01*
Y264097D01*
X45500Y264395D01*
Y264718D01*
X45043Y265821D01*
X44815Y266049D01*
X44691Y266347D01*
X43847Y267191D01*
X43549Y267315D01*
X43321Y267543D01*
X42218Y268000D01*
X41895D01*
X41597Y268124D01*
X30039D01*
X28992Y269370D01*
X29118Y270000D01*
X28652Y272341D01*
X27326Y274326D01*
X25341Y275652D01*
X23000Y276118D01*
X12000D01*
X9659Y275652D01*
X7674Y274326D01*
X6348Y272341D01*
X5882Y270000D01*
X6348Y267659D01*
X7528Y265894D01*
X7135Y264624D01*
X2500D01*
Y277500D01*
X320686D01*
X321212Y276230D01*
D02*
G37*
G36*
X215917Y252652D02*
X215500Y251645D01*
Y249855D01*
X215929Y248819D01*
X215178Y247549D01*
X177171D01*
X177125Y247659D01*
X175859Y248925D01*
X175312Y249152D01*
X175564Y250422D01*
X178990D01*
X178990Y250422D01*
X180550Y250732D01*
X181873Y251616D01*
X184179Y253922D01*
X207587D01*
X208605Y253500D01*
X210395D01*
X211413Y253922D01*
X215148D01*
X215917Y252652D01*
D02*
G37*
G36*
X647500Y2500D02*
X414972D01*
X414847Y3770D01*
X415476Y3895D01*
X416302Y4448D01*
X431602Y19748D01*
X432155Y20575D01*
X432349Y21550D01*
Y45000D01*
X439300D01*
Y65000D01*
X420300D01*
Y45000D01*
X427251D01*
Y22606D01*
X413444Y8799D01*
X378917D01*
X378750Y10000D01*
X378750D01*
Y14951D01*
X379750D01*
X380726Y15145D01*
X381552Y15698D01*
X389802Y23948D01*
X390355Y24774D01*
X390549Y25750D01*
Y30000D01*
X392250D01*
Y45000D01*
X383750D01*
Y30000D01*
X385451D01*
Y26806D01*
X379923Y21278D01*
X378750Y21764D01*
Y25000D01*
X377049D01*
Y25250D01*
X376855Y26225D01*
X376302Y27052D01*
X374625Y28730D01*
X375151Y30000D01*
X378750D01*
Y45000D01*
X377049D01*
Y54951D01*
X383750D01*
Y50000D01*
X392250D01*
Y63451D01*
X397750D01*
Y50000D01*
X406250D01*
Y65000D01*
X404450D01*
X404355Y65475D01*
X403802Y66302D01*
X402302Y67802D01*
X401475Y68355D01*
X400500Y68549D01*
X386091D01*
X385118Y69819D01*
X385167Y70000D01*
X392250D01*
Y85000D01*
X390549D01*
Y85250D01*
X390355Y86226D01*
X389802Y87052D01*
X388028Y88827D01*
X388514Y90000D01*
X392250D01*
Y104951D01*
X397750D01*
Y90000D01*
X406250D01*
Y92179D01*
X407105Y92750D01*
X408895D01*
X410549Y93435D01*
X410931Y93817D01*
X412201Y93291D01*
Y82806D01*
X409444Y80049D01*
X406250D01*
Y85000D01*
X397750D01*
Y70000D01*
X406000Y70000D01*
X406000Y69582D01*
Y68355D01*
X406685Y66701D01*
X407951Y65435D01*
X409605Y64750D01*
X411395D01*
X413049Y65435D01*
X414315Y66701D01*
X415000Y68355D01*
Y69424D01*
X425163Y79587D01*
X425163Y79587D01*
X425826Y80580D01*
X426059Y81750D01*
Y89352D01*
X426957Y90250D01*
X428000D01*
X428270Y90250D01*
X436000D01*
Y99750D01*
X436000D01*
X435596Y101020D01*
X436663Y102087D01*
X436663Y102087D01*
X437326Y103079D01*
X437559Y104250D01*
Y105000D01*
X438750D01*
Y108922D01*
X445000D01*
Y106500D01*
X456000D01*
Y108922D01*
X464000D01*
Y106500D01*
X475000D01*
Y108922D01*
X479311D01*
X480922Y107311D01*
Y98750D01*
X480922Y98750D01*
X481232Y97189D01*
X482116Y95866D01*
X485866Y92116D01*
X485866Y92116D01*
X487189Y91232D01*
X488750Y90922D01*
X488750Y90922D01*
X493500D01*
Y81000D01*
X506500D01*
Y109000D01*
X493500D01*
Y99078D01*
X490439D01*
X489078Y100439D01*
Y109000D01*
X488768Y110561D01*
X487884Y111884D01*
X487884Y111884D01*
X483884Y115884D01*
X482561Y116768D01*
X481000Y117078D01*
X481000Y117078D01*
X475000D01*
Y119500D01*
X464000D01*
Y117078D01*
X456000D01*
Y119500D01*
X445000D01*
Y117078D01*
X438750D01*
Y120000D01*
X435007D01*
X434672Y120866D01*
X434634Y121270D01*
X435815Y122451D01*
X435815Y122451D01*
X452000D01*
X452976Y122645D01*
X453802Y123198D01*
X484327Y153722D01*
X484639Y153635D01*
X485500Y153099D01*
Y151605D01*
X486185Y149951D01*
X487386Y148750D01*
X486185Y147549D01*
X485500Y145895D01*
Y144105D01*
X486185Y142451D01*
X487386Y141250D01*
X486185Y140049D01*
X485673Y138813D01*
X484327D01*
X483815Y140049D01*
X482549Y141315D01*
X480895Y142000D01*
X479105D01*
X477451Y141315D01*
X476185Y140049D01*
X475500Y138395D01*
Y136605D01*
X476185Y134951D01*
X477451Y133685D01*
X479105Y133000D01*
X480895D01*
X482549Y133685D01*
X483815Y134951D01*
X484327Y136187D01*
X485673D01*
X486185Y134951D01*
X487451Y133685D01*
X489105Y133000D01*
X490895D01*
X492549Y133685D01*
X493815Y134951D01*
X494500Y136605D01*
Y138395D01*
X493815Y140049D01*
X492614Y141250D01*
X493815Y142451D01*
X494500Y144105D01*
Y145895D01*
X493815Y147549D01*
X492614Y148750D01*
X493815Y149951D01*
X494500Y151605D01*
Y153395D01*
X493815Y155049D01*
X492549Y156315D01*
X490895Y157000D01*
X489401D01*
X488865Y157861D01*
X488778Y158173D01*
X501806Y171201D01*
X522750D01*
X523725Y171395D01*
X524552Y171948D01*
X529302Y176698D01*
X529855Y177525D01*
X530049Y178500D01*
Y184000D01*
X532250D01*
Y191730D01*
X532250Y192000D01*
Y193000D01*
X532250Y193270D01*
Y201000D01*
X530559D01*
Y205233D01*
X533867Y208541D01*
X538685D01*
X538847Y207933D01*
X540098Y205767D01*
X541867Y203998D01*
X544033Y202747D01*
X546449Y202100D01*
X548951D01*
X551367Y202747D01*
X553533Y203998D01*
X555302Y205767D01*
X556553Y207933D01*
X557200Y210349D01*
Y212851D01*
X556553Y215267D01*
X555302Y217433D01*
X553533Y219202D01*
X551367Y220453D01*
X548951Y221100D01*
X546449D01*
X544033Y220453D01*
X541867Y219202D01*
X540098Y217433D01*
X538847Y215267D01*
X538685Y214659D01*
X532600D01*
X531429Y214426D01*
X530437Y213763D01*
X525337Y208663D01*
X524674Y207670D01*
X524441Y206500D01*
X524441Y206500D01*
Y201000D01*
X522750D01*
Y193270D01*
X522750Y193000D01*
Y192000D01*
X522750Y191730D01*
Y184000D01*
X524951D01*
Y179556D01*
X521694Y176299D01*
X515313D01*
X514827Y177472D01*
X516802Y179448D01*
X517355Y180275D01*
X517549Y181250D01*
Y184000D01*
X519750D01*
Y191730D01*
X519750Y192000D01*
Y193000D01*
X519750Y193270D01*
Y201000D01*
X518059D01*
Y215973D01*
X519329Y216821D01*
X519500Y216751D01*
Y221000D01*
Y225249D01*
X518451Y224815D01*
X517185Y223549D01*
X516713Y222409D01*
X515327Y221999D01*
X513059Y224267D01*
Y248833D01*
X518088Y253862D01*
X518633Y253547D01*
X521049Y252900D01*
X523551D01*
X525967Y253547D01*
X528133Y254798D01*
X529902Y256567D01*
X531153Y258733D01*
X531800Y261149D01*
Y263651D01*
X531153Y266067D01*
X529902Y268233D01*
X528133Y270002D01*
X525967Y271253D01*
X523551Y271900D01*
X521049D01*
X518633Y271253D01*
X516467Y270002D01*
X514698Y268233D01*
X513447Y266067D01*
X512800Y263651D01*
Y261149D01*
X513447Y258733D01*
X513762Y258188D01*
X507837Y252263D01*
X507174Y251271D01*
X506941Y250100D01*
X506941Y250100D01*
Y223000D01*
X506941Y223000D01*
X507174Y221829D01*
X507837Y220837D01*
X511941Y216733D01*
Y201000D01*
X510250D01*
Y193270D01*
X510250Y193000D01*
Y192000D01*
X510250Y191730D01*
Y184000D01*
X512451D01*
Y182306D01*
X510194Y180049D01*
X498250D01*
X497275Y179855D01*
X496448Y179302D01*
X453944Y136799D01*
X417299D01*
Y138967D01*
X417453Y139378D01*
X418410Y140172D01*
X449750D01*
X449750Y140172D01*
X451311Y140482D01*
X452634Y141366D01*
X458084Y146816D01*
X458084Y146816D01*
X458968Y148139D01*
X459278Y149700D01*
X459278Y149700D01*
Y152500D01*
X464700D01*
Y171376D01*
X465000D01*
X466148Y171852D01*
X466388Y172432D01*
X466638Y172604D01*
X467700Y172986D01*
X467887Y172984D01*
X468500Y172730D01*
Y176980D01*
X470000D01*
Y178480D01*
X474249D01*
X474249Y178480D01*
X475098Y179750D01*
X484250D01*
Y192250D01*
X484250Y192250D01*
X484250D01*
X484685Y193360D01*
X487913Y196587D01*
X487913Y196587D01*
X488576Y197579D01*
X488809Y198750D01*
X488809Y198750D01*
Y235244D01*
X490079Y235411D01*
X490377Y234298D01*
X491299Y232702D01*
X492602Y231399D01*
X494198Y230477D01*
X495978Y230000D01*
X497822D01*
X499602Y230477D01*
X501198Y231399D01*
X502501Y232702D01*
X503423Y234298D01*
X503900Y236078D01*
Y237922D01*
X503423Y239702D01*
X502501Y241298D01*
X501198Y242601D01*
X499602Y243523D01*
X497822Y244000D01*
X495978D01*
X494198Y243523D01*
X492602Y242601D01*
X491299Y241298D01*
X490377Y239702D01*
X490079Y238589D01*
X488809Y238756D01*
Y241250D01*
X488576Y242421D01*
X487913Y243413D01*
X487913Y243413D01*
X478163Y253163D01*
X477170Y253826D01*
X476000Y254059D01*
X476000Y254059D01*
X443305D01*
X442549Y254815D01*
X440895Y255500D01*
X439105D01*
X437451Y254815D01*
X436185Y253549D01*
X435500Y251895D01*
Y250105D01*
X436185Y248451D01*
X437451Y247185D01*
X439105Y246500D01*
X440895D01*
X442549Y247185D01*
X443305Y247941D01*
X474733D01*
X482691Y239983D01*
Y220387D01*
X482368Y220159D01*
X481421Y219904D01*
X474163Y227163D01*
X473171Y227826D01*
X472000Y228059D01*
X472000Y228059D01*
X451250D01*
Y232500D01*
X442750D01*
Y217624D01*
X437250D01*
Y223500D01*
X433000D01*
X428750D01*
Y217624D01*
X425647D01*
X424998Y218894D01*
X425249Y219500D01*
X416751D01*
X417002Y218894D01*
X416353Y217624D01*
X414078D01*
Y228811D01*
X432384Y247116D01*
X432384Y247116D01*
X433268Y248439D01*
X433578Y250000D01*
X433578Y250000D01*
Y256337D01*
X434000Y257355D01*
Y259145D01*
X433578Y260163D01*
Y269500D01*
X433268Y271061D01*
X432384Y272384D01*
X432384Y272384D01*
X428538Y276230D01*
X429064Y277500D01*
X598829D01*
X599222Y276292D01*
X597736Y275213D01*
X594787Y272264D01*
X592335Y268889D01*
X590442Y265173D01*
X589152Y261205D01*
X588500Y257086D01*
Y252914D01*
X589152Y248795D01*
X590442Y244827D01*
X592335Y241111D01*
X594787Y237736D01*
X597736Y234787D01*
X601111Y232335D01*
X604827Y230441D01*
X608795Y229153D01*
X612914Y228500D01*
X617086D01*
X621205Y229153D01*
X625173Y230441D01*
X628889Y232335D01*
X632264Y234787D01*
X635213Y237736D01*
X637665Y241111D01*
X639558Y244827D01*
X640847Y248795D01*
X641500Y252914D01*
Y257086D01*
X640847Y261205D01*
X639558Y265173D01*
X637665Y268889D01*
X635213Y272264D01*
X632264Y275213D01*
X630778Y276292D01*
X631171Y277500D01*
X647500D01*
Y2500D01*
D02*
G37*
G36*
X211277Y197198D02*
X212104Y196645D01*
X213080Y196451D01*
X261045D01*
X263311Y194184D01*
X262592Y193108D01*
X262250Y193249D01*
Y189000D01*
Y184751D01*
X263299Y185185D01*
X263431Y185317D01*
X264701Y184791D01*
Y178322D01*
X263431Y177717D01*
X262145Y178250D01*
X260355D01*
X259770Y178008D01*
X258500Y178856D01*
Y180250D01*
X253000D01*
Y183750D01*
X243587D01*
X243114Y185020D01*
X244044Y185951D01*
X244479Y187000D01*
X235980D01*
X236415Y185951D01*
X237537Y184828D01*
X237836Y184133D01*
X238000Y183547D01*
X238000Y183178D01*
Y178118D01*
X236333D01*
X236000Y178552D01*
Y181448D01*
X235250Y184246D01*
X233802Y186754D01*
X231754Y188802D01*
X229246Y190250D01*
X226448Y191000D01*
X223552D01*
X220754Y190250D01*
X218246Y188802D01*
X216198Y186754D01*
X214750Y184246D01*
X214000Y181448D01*
Y179437D01*
X212841Y178285D01*
X212500Y178297D01*
Y179625D01*
X211815Y181279D01*
X210549Y182544D01*
X209500Y182979D01*
Y178730D01*
X206500D01*
Y182979D01*
X205451Y182544D01*
X204185Y181279D01*
X203500Y179625D01*
Y178118D01*
X191500D01*
Y179625D01*
X190815Y181279D01*
X189549Y182544D01*
X187895Y183230D01*
X186105D01*
X185618Y183555D01*
Y187000D01*
X185152Y189341D01*
X183826Y191326D01*
X177385Y197767D01*
X177632Y199013D01*
X178049Y199185D01*
X179315Y200451D01*
X180000Y202105D01*
Y203895D01*
X180000Y203895D01*
X181245Y205140D01*
X182321Y204420D01*
X182000Y203645D01*
Y201855D01*
X182685Y200201D01*
X183951Y198935D01*
X185605Y198250D01*
X187395D01*
X189049Y198935D01*
X190315Y200201D01*
X191000Y201855D01*
Y203645D01*
X191000Y203645D01*
X191891Y204536D01*
X191953Y204500D01*
X201749D01*
X201446Y205233D01*
X202522Y205953D01*
X211277Y197198D01*
D02*
G37*
G36*
X466000Y196000D02*
X403000D01*
Y197000D01*
Y216000D01*
X466000D01*
Y196000D01*
D02*
G37*
G36*
X476154Y216520D02*
X475748Y215250D01*
X474750D01*
Y202750D01*
X482691D01*
Y200017D01*
X477337Y194663D01*
X476674Y193671D01*
X476441Y192500D01*
X475197Y192250D01*
X471500D01*
Y186000D01*
X468500D01*
Y192250D01*
X466624D01*
Y193000D01*
X466148Y194148D01*
X467117Y194839D01*
X467148Y194852D01*
X467624Y196000D01*
Y216000D01*
X467148Y217148D01*
X466000Y217624D01*
X451250D01*
Y221941D01*
X470733D01*
X476154Y216520D01*
D02*
G37*
G36*
X433050Y193305D02*
X432590Y192250D01*
X429000D01*
Y188000D01*
X427500D01*
Y186500D01*
X420000D01*
Y183750D01*
X422315D01*
X422649Y183250D01*
X427500D01*
Y180250D01*
X423251D01*
X423398Y179894D01*
X422603Y178624D01*
X417000D01*
X415852Y178148D01*
X415376Y177000D01*
Y154051D01*
X414203Y153565D01*
X391884Y175884D01*
X390561Y176768D01*
X389000Y177078D01*
X389000Y177078D01*
X380715D01*
X380162Y177793D01*
X380740Y179000D01*
X381645D01*
X383299Y179685D01*
X383327Y179713D01*
X384500Y179227D01*
Y178500D01*
X395500D01*
Y181441D01*
X397500D01*
X397500Y181441D01*
X398671Y181674D01*
X399663Y182337D01*
X401230Y183904D01*
X402500Y183750D01*
Y183750D01*
X417500D01*
Y192250D01*
X404564D01*
X404038Y193520D01*
X404894Y194376D01*
X432342D01*
X433050Y193305D01*
D02*
G37*
G36*
X465000Y173000D02*
X445000D01*
Y150000D01*
X417768D01*
X417000Y150768D01*
Y177000D01*
X435000D01*
Y183750D01*
Y192250D01*
Y193000D01*
X465000D01*
Y173000D01*
D02*
G37*
G36*
X364172Y183500D02*
X364172Y183500D01*
X364482Y181939D01*
X365366Y180616D01*
X375866Y170116D01*
X375866Y170116D01*
X377189Y169232D01*
X378363Y168999D01*
X378493Y167678D01*
X378221Y167565D01*
X376955Y166299D01*
X376521Y165250D01*
X385020D01*
X384585Y166299D01*
X383319Y167565D01*
X383111Y167652D01*
X383363Y168922D01*
X387311D01*
X406010Y150222D01*
X405524Y149049D01*
X387209D01*
X386683Y150319D01*
X387065Y150701D01*
X387750Y152355D01*
Y154145D01*
X387065Y155799D01*
X385799Y157065D01*
X384145Y157750D01*
X382355D01*
X380701Y157065D01*
X379435Y155799D01*
X378750Y154145D01*
Y152355D01*
X379435Y150701D01*
X379817Y150319D01*
X379291Y149049D01*
X371556D01*
X369249Y151356D01*
Y161450D01*
X369055Y162425D01*
X368502Y163252D01*
X355452Y176302D01*
X354625Y176855D01*
X353649Y177049D01*
X326418D01*
X326165Y178319D01*
X327049Y178685D01*
X328315Y179951D01*
X328736Y180969D01*
X339189Y191422D01*
X364172D01*
Y183500D01*
D02*
G37*
G36*
X310548Y167198D02*
X310700Y167096D01*
X315598Y162198D01*
X316000Y161929D01*
Y152000D01*
X319626D01*
X319794Y151519D01*
X319838Y150730D01*
X319198Y150302D01*
X305444Y136549D01*
X284918D01*
X284665Y137819D01*
X285549Y138185D01*
X286815Y139451D01*
X287249Y140500D01*
X278751D01*
X278821Y140330D01*
X277744Y139610D01*
X276799Y140556D01*
Y196750D01*
X276605Y197725D01*
X276052Y198552D01*
X268077Y206528D01*
X268563Y207701D01*
X270045D01*
X310548Y167198D01*
D02*
G37*
G36*
X321250Y143349D02*
Y130410D01*
X320062Y129802D01*
X319799Y130065D01*
X318145Y130750D01*
X316355D01*
X314701Y130065D01*
X313435Y128799D01*
X312750Y127145D01*
Y125355D01*
X313435Y123701D01*
X314701Y122435D01*
X316355Y121750D01*
X318145D01*
X319799Y122435D01*
X319980Y122616D01*
X321250Y122090D01*
Y120049D01*
X321000D01*
X320025Y119855D01*
X319198Y119302D01*
X318145Y118250D01*
X318145Y118250D01*
X316355D01*
X314701Y117565D01*
X313435Y116299D01*
X312750Y114645D01*
Y112855D01*
X313283Y111569D01*
X312678Y110299D01*
X283556D01*
X273299Y120556D01*
Y135187D01*
X274472Y135673D01*
X277948Y132198D01*
X278775Y131645D01*
X279750Y131451D01*
X306500D01*
X307475Y131645D01*
X308302Y132198D01*
X319980Y143875D01*
X321250Y143349D01*
D02*
G37*
G36*
X368698Y144698D02*
X369525Y144145D01*
X370500Y143951D01*
X383750D01*
Y131160D01*
X383436Y130881D01*
X382480Y130447D01*
X381145Y131000D01*
X379355D01*
X377701Y130315D01*
X376435Y129049D01*
X375750Y127395D01*
Y125605D01*
X376435Y123951D01*
X377701Y122685D01*
X379355Y122000D01*
X381145D01*
X382480Y122553D01*
X383750Y121977D01*
Y120049D01*
X382775Y119855D01*
X381948Y119302D01*
X380895Y118250D01*
X380895Y118250D01*
X379105D01*
X377451Y117565D01*
X376185Y116299D01*
X375500Y114645D01*
Y112855D01*
X376136Y111319D01*
X375678Y110049D01*
X367556D01*
X365299Y112306D01*
Y146437D01*
X366472Y146923D01*
X368698Y144698D01*
D02*
G37*
G36*
X453826Y130431D02*
X450944Y127549D01*
X435815D01*
X435815Y127549D01*
X434549Y128815D01*
X432895Y129500D01*
X431105D01*
X429451Y128815D01*
X428185Y127549D01*
X427500Y125895D01*
Y124105D01*
X428185Y122451D01*
X429451Y121185D01*
X429748Y121062D01*
X430250Y120000D01*
X430250Y119480D01*
Y105000D01*
X430250Y105000D01*
X429831Y103904D01*
X429174Y102921D01*
X428941Y101750D01*
X428941Y101750D01*
Y100648D01*
X428043Y99750D01*
X427000D01*
X426730Y99750D01*
X419000D01*
Y90250D01*
X419941D01*
Y83017D01*
X418525Y81601D01*
X418405Y81615D01*
X417299Y82171D01*
Y105000D01*
X419000D01*
Y112500D01*
X420500D01*
Y114000D01*
X424750D01*
Y120000D01*
X424750Y120000D01*
X424750D01*
X424749Y121270D01*
X424749Y121270D01*
X420500D01*
Y122770D01*
X419000D01*
Y127020D01*
X418569Y126841D01*
X417299Y127593D01*
Y131701D01*
X453300D01*
X453826Y130431D01*
D02*
G37*
G36*
X321250Y105000D02*
Y102685D01*
X320194Y101980D01*
X320145Y102000D01*
X318355D01*
X316701Y101315D01*
X315435Y100049D01*
X314750Y98395D01*
Y96605D01*
X315435Y94951D01*
X316701Y93685D01*
X318355Y93000D01*
X320145D01*
X320194Y93020D01*
X321250Y92315D01*
Y90299D01*
X298056D01*
X284327Y104028D01*
X284813Y105201D01*
X320063D01*
X321250Y105000D01*
D02*
G37*
G36*
X412201Y138194D02*
Y134250D01*
Y101209D01*
X410931Y100683D01*
X410549Y101065D01*
X408895Y101750D01*
X407105D01*
X406250Y102321D01*
Y105000D01*
X404549D01*
X404355Y105976D01*
X403802Y106802D01*
X401875Y108730D01*
X402401Y110000D01*
X406250D01*
Y123636D01*
X407065Y124451D01*
X407750Y126105D01*
Y127895D01*
X407065Y129549D01*
X406250Y130364D01*
Y142349D01*
X407520Y142875D01*
X412201Y138194D01*
D02*
G37*
G36*
X364698Y105698D02*
X365525Y105145D01*
X366500Y104951D01*
X375428D01*
X375886Y103681D01*
X375250Y102145D01*
Y100355D01*
X375935Y98701D01*
X377201Y97435D01*
X378855Y96750D01*
X380645D01*
X380645Y96750D01*
X381698Y95698D01*
X382525Y95145D01*
X383500Y94951D01*
X383750D01*
Y92773D01*
X382577Y92287D01*
X382549Y92315D01*
X380895Y93000D01*
X379105D01*
X377451Y92315D01*
X376185Y91049D01*
X375500Y89395D01*
Y87605D01*
X376185Y85951D01*
X377451Y84685D01*
X379105Y84000D01*
X380895D01*
X382549Y84685D01*
X383750Y84090D01*
Y74276D01*
X382480Y73717D01*
X381115Y74283D01*
X379324D01*
X379146Y74209D01*
X370802Y82552D01*
X369975Y83105D01*
X369000Y83299D01*
X364306D01*
X361799Y85806D01*
Y106937D01*
X362972Y107423D01*
X364698Y105698D01*
D02*
G37*
G36*
X117750Y45543D02*
Y44500D01*
X117750Y44230D01*
Y36500D01*
X116584Y36250D01*
X115000D01*
Y35059D01*
X110750D01*
X109579Y34826D01*
X108587Y34163D01*
X108587Y34163D01*
X106337Y31913D01*
X105674Y30921D01*
X105441Y29750D01*
X105441Y29750D01*
Y9517D01*
X103673Y7749D01*
X102500Y8235D01*
Y18500D01*
X101410D01*
X100815Y19701D01*
X101500Y21355D01*
Y23145D01*
X100815Y24799D01*
X99549Y26065D01*
X97895Y26750D01*
X96105D01*
X94451Y26065D01*
X93695Y25309D01*
X87017D01*
X82096Y30230D01*
X82622Y31500D01*
X93000D01*
Y34941D01*
X97750D01*
X97750Y34941D01*
X98920Y35174D01*
X99913Y35837D01*
X103413Y39337D01*
X103413Y39337D01*
X104076Y40329D01*
X104309Y41500D01*
X104309Y41500D01*
Y43733D01*
X105627Y45051D01*
X105712Y45000D01*
X115479D01*
X115366Y45272D01*
X115694Y45877D01*
X115780Y45963D01*
X117329Y45964D01*
X117750Y45543D01*
D02*
G37*
G36*
X97500Y53750D02*
X103928D01*
X104256Y53210D01*
X104404Y52480D01*
X99087Y47163D01*
X98424Y46171D01*
X98191Y45000D01*
X98191Y45000D01*
Y42767D01*
X96483Y41059D01*
X93000D01*
Y44500D01*
X82122D01*
X81310Y45484D01*
X90767Y54941D01*
X97500D01*
Y53750D01*
D02*
G37*
G36*
X58250Y41203D02*
Y40855D01*
X58935Y39201D01*
X60201Y37935D01*
X61855Y37250D01*
X63645D01*
X65299Y37935D01*
X65671Y38307D01*
X66941Y37781D01*
Y26017D01*
X64837Y23913D01*
X64174Y22920D01*
X63941Y21750D01*
X63941Y21750D01*
Y9758D01*
X63941Y9757D01*
X64174Y8587D01*
X64837Y7595D01*
X68758Y3673D01*
X68272Y2500D01*
X51171D01*
X50778Y3708D01*
X52264Y4787D01*
X55213Y7736D01*
X57665Y11111D01*
X59559Y14828D01*
X60848Y18795D01*
X61500Y22914D01*
Y27086D01*
X60848Y31205D01*
X59559Y35173D01*
X57665Y38889D01*
X55213Y42264D01*
X52264Y45213D01*
X50002Y46856D01*
X50363Y48164D01*
X51184Y48269D01*
X58250Y41203D01*
D02*
G37*
%LPC*%
G36*
X132000Y271749D02*
Y269000D01*
X134749D01*
X134315Y270049D01*
X133049Y271315D01*
X132000Y271749D01*
D02*
G37*
G36*
X129000D02*
X127951Y271315D01*
X126685Y270049D01*
X126251Y269000D01*
X129000D01*
Y271749D01*
D02*
G37*
G36*
X116000Y271499D02*
Y268750D01*
X118749D01*
X118315Y269799D01*
X117049Y271065D01*
X116000Y271499D01*
D02*
G37*
G36*
X113000D02*
X111951Y271065D01*
X110685Y269799D01*
X110251Y268750D01*
X113000D01*
Y271499D01*
D02*
G37*
G36*
X134749Y266000D02*
X132000D01*
Y263251D01*
X133049Y263685D01*
X134315Y264951D01*
X134749Y266000D01*
D02*
G37*
G36*
X129000D02*
X126251D01*
X126685Y264951D01*
X127951Y263685D01*
X129000Y263251D01*
Y266000D01*
D02*
G37*
G36*
X118749Y265750D02*
X116000D01*
Y263001D01*
X117049Y263435D01*
X118315Y264701D01*
X118749Y265750D01*
D02*
G37*
G36*
X113000D02*
X110251D01*
X110685Y264701D01*
X111951Y263435D01*
X113000Y263001D01*
Y265750D01*
D02*
G37*
G36*
X380895Y255500D02*
X379105D01*
X377451Y254815D01*
X376185Y253549D01*
X375500Y251895D01*
Y250105D01*
X375911Y249112D01*
X374815Y248549D01*
X374434Y248930D01*
X373549Y249815D01*
X372500Y250249D01*
Y247500D01*
X375249D01*
X375089Y247888D01*
X376185Y248451D01*
X376566Y248070D01*
X377451Y247185D01*
X379105Y246500D01*
X380895D01*
X382549Y247185D01*
X383815Y248451D01*
X384500Y250105D01*
Y251895D01*
X383815Y253549D01*
X382549Y254815D01*
X380895Y255500D01*
D02*
G37*
G36*
X369500Y250249D02*
X368451Y249815D01*
X367185Y248549D01*
X366751Y247500D01*
X369500D01*
Y250249D01*
D02*
G37*
G36*
X297500D02*
Y247500D01*
X300249D01*
X299815Y248549D01*
X298549Y249815D01*
X297500Y250249D01*
D02*
G37*
G36*
X294500D02*
X293451Y249815D01*
X292185Y248549D01*
X291751Y247500D01*
X294500D01*
Y250249D01*
D02*
G37*
G36*
X272500D02*
Y247500D01*
X275249D01*
X274815Y248549D01*
X273549Y249815D01*
X272500Y250249D01*
D02*
G37*
G36*
X269500D02*
X268451Y249815D01*
X267185Y248549D01*
X266751Y247500D01*
X269500D01*
Y250249D01*
D02*
G37*
G36*
X68500Y247499D02*
X67451Y247065D01*
X66185Y245799D01*
X65751Y244750D01*
X68500D01*
Y247499D01*
D02*
G37*
G36*
X375249Y244500D02*
X372500D01*
Y241751D01*
X373549Y242185D01*
X374815Y243451D01*
X375249Y244500D01*
D02*
G37*
G36*
X369500D02*
X366751D01*
X367185Y243451D01*
X368451Y242185D01*
X369500Y241751D01*
Y244500D01*
D02*
G37*
G36*
X300249D02*
X297500D01*
Y241751D01*
X298549Y242185D01*
X299815Y243451D01*
X300249Y244500D01*
D02*
G37*
G36*
X294500D02*
X291751D01*
X292185Y243451D01*
X293451Y242185D01*
X294500Y241751D01*
Y244500D01*
D02*
G37*
G36*
X275249D02*
X272500D01*
Y241751D01*
X273549Y242185D01*
X274815Y243451D01*
X275249Y244500D01*
D02*
G37*
G36*
X269500D02*
X266751D01*
X267185Y243451D01*
X268451Y242185D01*
X269500Y241751D01*
Y244500D01*
D02*
G37*
G36*
X250249D02*
X247500D01*
Y241751D01*
X248549Y242185D01*
X249815Y243451D01*
X250249Y244500D01*
D02*
G37*
G36*
X108002Y265000D02*
X82002D01*
Y245554D01*
X81230Y244929D01*
Y241750D01*
X83979D01*
X83545Y242799D01*
X82614Y243729D01*
X83089Y244999D01*
X108002D01*
Y265000D01*
D02*
G37*
G36*
X68500Y241750D02*
X65751D01*
X66185Y240701D01*
X67451Y239435D01*
X68500Y239001D01*
Y241750D01*
D02*
G37*
G36*
X114000Y245000D02*
X111250D01*
Y239000D01*
X114000D01*
Y245000D01*
D02*
G37*
G36*
X159249Y240250D02*
X156500D01*
Y237501D01*
X157549Y237935D01*
X158815Y239201D01*
X159249Y240250D01*
D02*
G37*
G36*
X83979Y238750D02*
X81230D01*
Y236000D01*
X82279Y236435D01*
X83545Y237701D01*
X83979Y238750D01*
D02*
G37*
G36*
X71500Y247499D02*
Y243250D01*
Y239001D01*
X72549Y239435D01*
X73815Y240701D01*
X73960Y241050D01*
X75230Y240798D01*
Y239355D01*
X75915Y237701D01*
X77181Y236435D01*
X78230Y236000D01*
Y240250D01*
Y244499D01*
X77181Y244065D01*
X75915Y242799D01*
X75770Y242450D01*
X74500Y242702D01*
Y244145D01*
X73815Y245799D01*
X72549Y247065D01*
X71500Y247499D01*
D02*
G37*
G36*
X210550Y236409D02*
Y233660D01*
X213299D01*
X212865Y234709D01*
X211599Y235975D01*
X210550Y236409D01*
D02*
G37*
G36*
X207550D02*
X206501Y235975D01*
X205235Y234709D01*
X204801Y233660D01*
X207550D01*
Y236409D01*
D02*
G37*
G36*
X87500Y234250D02*
X84000D01*
Y230250D01*
X87500D01*
Y234250D01*
D02*
G37*
G36*
X81000D02*
X77500D01*
Y230250D01*
X81000D01*
Y234250D01*
D02*
G37*
G36*
X213299Y230660D02*
X210550D01*
Y227911D01*
X211599Y228345D01*
X212865Y229611D01*
X213299Y230660D01*
D02*
G37*
G36*
X207550D02*
X204801D01*
X205235Y229611D01*
X206501Y228345D01*
X207550Y227911D01*
Y230660D01*
D02*
G37*
G36*
X198570Y230619D02*
Y227870D01*
X201319D01*
X200885Y228919D01*
X199619Y230185D01*
X198570Y230619D01*
D02*
G37*
G36*
X195570D02*
X194521Y230185D01*
X193255Y228919D01*
X192821Y227870D01*
X195570D01*
Y230619D01*
D02*
G37*
G36*
X107250Y229249D02*
X106201Y228815D01*
X104935Y227549D01*
X104501Y226500D01*
X107250D01*
Y229249D01*
D02*
G37*
G36*
X378700Y235000D02*
X370700D01*
Y226500D01*
X378700D01*
Y235000D01*
D02*
G37*
G36*
X329700D02*
X321700D01*
Y226500D01*
X329700D01*
Y235000D01*
D02*
G37*
G36*
X318700D02*
X310700D01*
Y226500D01*
X318700D01*
Y235000D01*
D02*
G37*
G36*
X201319Y224870D02*
X198570D01*
Y222121D01*
X199619Y222555D01*
X200885Y223821D01*
X201319Y224870D01*
D02*
G37*
G36*
X195570D02*
X192821D01*
X193255Y223821D01*
X194521Y222555D01*
X195570Y222121D01*
Y224870D01*
D02*
G37*
G36*
X107250Y223500D02*
X104501D01*
X104935Y222451D01*
X106201Y221185D01*
X107250Y220751D01*
Y223500D01*
D02*
G37*
G36*
X121750D02*
X117750D01*
Y220000D01*
X121750D01*
Y223500D01*
D02*
G37*
G36*
X119750Y245000D02*
X117000D01*
Y237500D01*
X115500D01*
Y236000D01*
X111250D01*
Y231063D01*
X110750Y230000D01*
X110250Y229666D01*
Y225000D01*
Y220334D01*
X110750Y220000D01*
Y220000D01*
X114750D01*
Y225000D01*
X116250D01*
Y226500D01*
X121750D01*
Y230000D01*
X121020D01*
X119750Y230000D01*
X119750Y231834D01*
X120000Y232056D01*
Y237250D01*
Y242154D01*
X119750Y242321D01*
Y245000D01*
D02*
G37*
G36*
X378700Y223500D02*
X370700D01*
Y215000D01*
X378700D01*
Y223500D01*
D02*
G37*
G36*
X329700Y223500D02*
X321700D01*
Y215000D01*
X329700D01*
Y223500D01*
D02*
G37*
G36*
X318700D02*
X310700D01*
Y215000D01*
X318700D01*
Y223500D01*
D02*
G37*
G36*
X354800Y235082D02*
X352320Y234755D01*
X350009Y233798D01*
X348025Y232276D01*
X346502Y230291D01*
X345545Y227980D01*
X345218Y225500D01*
Y224500D01*
X345545Y222020D01*
X346502Y219709D01*
X348025Y217725D01*
X350009Y216202D01*
X352320Y215245D01*
X354800Y214918D01*
X357280Y215245D01*
X359591Y216202D01*
X361576Y217725D01*
X363098Y219709D01*
X364055Y222020D01*
X364382Y224500D01*
Y225500D01*
X364055Y227980D01*
X363098Y230291D01*
X361576Y232276D01*
X359591Y233798D01*
X357280Y234755D01*
X354800Y235082D01*
D02*
G37*
G36*
X294800D02*
X292320Y234755D01*
X290009Y233798D01*
X288025Y232276D01*
X286502Y230291D01*
X285544Y227980D01*
X285218Y225500D01*
Y224500D01*
X285544Y222020D01*
X286502Y219709D01*
X288025Y217725D01*
X290009Y216202D01*
X292320Y215245D01*
X294800Y214918D01*
X297280Y215245D01*
X299591Y216202D01*
X301575Y217725D01*
X303098Y219709D01*
X304055Y222020D01*
X304382Y224500D01*
Y225500D01*
X304055Y227980D01*
X303098Y230291D01*
X301575Y232276D01*
X299591Y233798D01*
X297280Y234755D01*
X294800Y235082D01*
D02*
G37*
G36*
X122500Y200249D02*
Y197500D01*
X125249D01*
X124815Y198549D01*
X123549Y199815D01*
X122500Y200249D01*
D02*
G37*
G36*
X119500D02*
X118451Y199815D01*
X117185Y198549D01*
X116751Y197500D01*
X119500D01*
Y200249D01*
D02*
G37*
G36*
X125249Y194500D02*
X122500D01*
Y191751D01*
X123549Y192185D01*
X124815Y193451D01*
X125249Y194500D01*
D02*
G37*
G36*
X119500D02*
X116751D01*
X117185Y193451D01*
X118451Y192185D01*
X119500Y191751D01*
Y194500D01*
D02*
G37*
G36*
X136270Y190749D02*
Y188000D01*
X139020D01*
X138585Y189049D01*
X137319Y190315D01*
X136270Y190749D01*
D02*
G37*
G36*
X133270D02*
X132221Y190315D01*
X130955Y189049D01*
X130521Y188000D01*
X133270D01*
Y190749D01*
D02*
G37*
G36*
X93749Y189750D02*
X91000D01*
Y187001D01*
X92049Y187435D01*
X93315Y188701D01*
X93749Y189750D01*
D02*
G37*
G36*
X81000D02*
X77500D01*
Y185750D01*
X81000D01*
Y189750D01*
D02*
G37*
G36*
X139020Y185000D02*
X136270D01*
Y182251D01*
X137319Y182685D01*
X138585Y183951D01*
X139020Y185000D01*
D02*
G37*
G36*
X133270D02*
X130521D01*
X130955Y183951D01*
X132221Y182685D01*
X133270Y182251D01*
Y185000D01*
D02*
G37*
G36*
X146500Y182979D02*
Y180230D01*
X149249D01*
X148815Y181279D01*
X147549Y182544D01*
X146500Y182979D01*
D02*
G37*
G36*
X143500D02*
X142451Y182544D01*
X141185Y181279D01*
X140751Y180230D01*
X143500D01*
Y182979D01*
D02*
G37*
G36*
X72750Y182749D02*
Y180000D01*
X75499D01*
X75065Y181049D01*
X73799Y182315D01*
X72750Y182749D01*
D02*
G37*
G36*
X69750D02*
X68701Y182315D01*
X67435Y181049D01*
X67001Y180000D01*
X69750D01*
Y182749D01*
D02*
G37*
G36*
X164500Y177230D02*
X161751D01*
X162185Y176181D01*
X163451Y174915D01*
X164500Y174480D01*
Y177230D01*
D02*
G37*
G36*
X149249D02*
X146500D01*
Y174480D01*
X147549Y174915D01*
X148815Y176181D01*
X149249Y177230D01*
D02*
G37*
G36*
X143500D02*
X140751D01*
X141185Y176181D01*
X142451Y174915D01*
X143500Y174480D01*
Y177230D01*
D02*
G37*
G36*
X75499Y177000D02*
X72750D01*
Y174251D01*
X73799Y174685D01*
X75065Y175951D01*
X75499Y177000D01*
D02*
G37*
G36*
X69750D02*
X67001D01*
X67435Y175951D01*
X68701Y174685D01*
X69750Y174251D01*
Y177000D01*
D02*
G37*
G36*
X157250Y171749D02*
Y169000D01*
X159999D01*
X159565Y170049D01*
X158299Y171315D01*
X157250Y171749D01*
D02*
G37*
G36*
X145987Y172500D02*
X144013D01*
X142105Y171989D01*
X140395Y171001D01*
X138998Y169605D01*
X138287Y168373D01*
X136844Y168020D01*
X136549Y168315D01*
X135500Y168749D01*
Y164500D01*
Y158953D01*
X135536Y158891D01*
X134645Y158000D01*
X133105D01*
X131451Y157315D01*
X130185Y156049D01*
X129500Y154395D01*
Y152605D01*
X130185Y150951D01*
X131451Y149685D01*
X133105Y149000D01*
X134895D01*
X136549Y149685D01*
X136935Y150071D01*
X138011Y149395D01*
X137628Y147967D01*
X136918D01*
X135942Y147773D01*
X135115Y147220D01*
X134895Y147000D01*
X134895Y147000D01*
X133105D01*
X131451Y146315D01*
X130185Y145049D01*
X129500Y143395D01*
Y141605D01*
X130185Y139951D01*
X131451Y138685D01*
X133105Y138000D01*
X134895D01*
X136549Y138685D01*
X137815Y139951D01*
X138205Y140892D01*
X139673Y141220D01*
X140395Y140499D01*
X142105Y139511D01*
X144013Y139000D01*
X145987D01*
X147895Y139511D01*
X149605Y140499D01*
X151002Y141895D01*
X151989Y143605D01*
X152500Y145513D01*
Y147487D01*
X151989Y149395D01*
X151002Y151105D01*
X149605Y152501D01*
X147895Y153489D01*
X145987Y154000D01*
X144013D01*
X142105Y153489D01*
X140395Y152501D01*
X139434Y151540D01*
X138357Y152260D01*
X138500Y152605D01*
Y154395D01*
X138427Y154572D01*
X141953Y158099D01*
X142105Y158011D01*
X144013Y157500D01*
X145987D01*
X147895Y158011D01*
X149605Y158998D01*
X151002Y160395D01*
X151989Y162105D01*
X152199Y162891D01*
X152415Y163062D01*
X153674Y163489D01*
X154250Y163251D01*
Y167500D01*
Y171749D01*
X153201Y171315D01*
X152110Y170224D01*
X151796Y170049D01*
X150560Y170047D01*
X149605Y171001D01*
X147895Y171989D01*
X145987Y172500D01*
D02*
G37*
G36*
X132500Y168749D02*
X131451Y168315D01*
X130185Y167049D01*
X129751Y166000D01*
X132500D01*
Y168749D01*
D02*
G37*
G36*
X159999Y166000D02*
X157250D01*
Y163251D01*
X158299Y163685D01*
X159565Y164951D01*
X159999Y166000D01*
D02*
G37*
G36*
X132500Y163000D02*
X129751D01*
X130185Y161951D01*
X131451Y160685D01*
X132500Y160251D01*
Y163000D01*
D02*
G37*
G36*
X167500Y161979D02*
Y159230D01*
X170250D01*
X169815Y160279D01*
X168549Y161545D01*
X167500Y161979D01*
D02*
G37*
G36*
X164500D02*
X163451Y161545D01*
X162185Y160279D01*
X161751Y159230D01*
X164500D01*
Y161979D01*
D02*
G37*
G36*
X212250Y156230D02*
X209500D01*
Y153481D01*
X210549Y153915D01*
X211815Y155181D01*
X212250Y156230D01*
D02*
G37*
G36*
X206500D02*
X203751D01*
X204185Y155181D01*
X205451Y153915D01*
X206500Y153481D01*
Y156230D01*
D02*
G37*
G36*
X191249D02*
X188500D01*
Y153481D01*
X189549Y153915D01*
X190815Y155181D01*
X191249Y156230D01*
D02*
G37*
G36*
X185500D02*
X182750D01*
X183185Y155181D01*
X184451Y153915D01*
X185500Y153481D01*
Y156230D01*
D02*
G37*
G36*
X170250D02*
X167500D01*
Y153481D01*
X168549Y153915D01*
X169815Y155181D01*
X170250Y156230D01*
D02*
G37*
G36*
X164500D02*
X161751D01*
X162185Y155181D01*
X163451Y153915D01*
X164500Y153481D01*
Y156230D01*
D02*
G37*
G36*
X43000Y145499D02*
X41951Y145065D01*
X41042Y144156D01*
X40250Y143926D01*
X39458Y144156D01*
X38549Y145065D01*
X37500Y145499D01*
Y141250D01*
Y137001D01*
X38549Y137435D01*
X39458Y138344D01*
X40250Y138574D01*
X41042Y138344D01*
X41951Y137435D01*
X43000Y137001D01*
Y141250D01*
Y145499D01*
D02*
G37*
G36*
X34500D02*
X33451Y145065D01*
X32185Y143799D01*
X31751Y142750D01*
X34500D01*
Y145499D01*
D02*
G37*
G36*
X223479Y145000D02*
X220730D01*
Y142251D01*
X221779Y142685D01*
X223045Y143951D01*
X223479Y145000D01*
D02*
G37*
G36*
X217730D02*
X214981D01*
X215415Y143951D01*
X216681Y142685D01*
X217730Y142251D01*
Y145000D01*
D02*
G37*
G36*
X230000Y139750D02*
Y139750D01*
X228730Y139749D01*
X228730Y139749D01*
Y135500D01*
Y131250D01*
X228730Y131250D01*
X230000Y131250D01*
X230000Y131250D01*
X230000Y131250D01*
X236000D01*
Y135500D01*
Y139750D01*
X230000D01*
X230000Y139750D01*
D02*
G37*
G36*
X209500Y140979D02*
Y138230D01*
X212250D01*
X211815Y139279D01*
X210549Y140545D01*
X209500Y140979D01*
D02*
G37*
G36*
X206500D02*
X205451Y140545D01*
X204185Y139279D01*
X203751Y138230D01*
X206500D01*
Y140979D01*
D02*
G37*
G36*
X188500D02*
Y138230D01*
X191249D01*
X190815Y139279D01*
X189549Y140545D01*
X188500Y140979D01*
D02*
G37*
G36*
X185500D02*
X184451Y140545D01*
X183185Y139279D01*
X182750Y138230D01*
X185500D01*
Y140979D01*
D02*
G37*
G36*
X167500D02*
Y138230D01*
X170250D01*
X169815Y139279D01*
X168549Y140545D01*
X167500Y140979D01*
D02*
G37*
G36*
X164500D02*
X163451Y140545D01*
X162185Y139279D01*
X161751Y138230D01*
X164500D01*
Y140979D01*
D02*
G37*
G36*
X49000Y146000D02*
X46000D01*
Y141250D01*
Y137001D01*
X47049Y137435D01*
X48315Y138701D01*
X48853Y140000D01*
X49000D01*
Y146000D01*
D02*
G37*
G36*
X34500Y139750D02*
X31751D01*
X32185Y138701D01*
X33451Y137435D01*
X34500Y137001D01*
Y139750D01*
D02*
G37*
G36*
X262500Y139750D02*
X256500D01*
Y137000D01*
X262500D01*
Y139750D01*
D02*
G37*
G36*
X245000D02*
X239000D01*
Y137000D01*
X245000D01*
Y139750D01*
D02*
G37*
G36*
X253500D02*
X247500D01*
Y137000D01*
X253500D01*
Y139750D01*
D02*
G37*
G36*
X225730Y139749D02*
X224681Y139315D01*
X223415Y138049D01*
X222980Y137000D01*
X225730D01*
Y139749D01*
D02*
G37*
G36*
X212250Y135230D02*
X209500D01*
Y132480D01*
X210549Y132915D01*
X211815Y134181D01*
X212250Y135230D01*
D02*
G37*
G36*
X206500D02*
X203751D01*
X204185Y134181D01*
X205451Y132915D01*
X206500Y132480D01*
Y135230D01*
D02*
G37*
G36*
X191249D02*
X188500D01*
Y132480D01*
X189549Y132915D01*
X190815Y134181D01*
X191249Y135230D01*
D02*
G37*
G36*
X185500D02*
X182750D01*
X183185Y134181D01*
X184451Y132915D01*
X185500Y132480D01*
Y135230D01*
D02*
G37*
G36*
X170250D02*
X167500D01*
Y132480D01*
X168549Y132915D01*
X169815Y134181D01*
X170250Y135230D01*
D02*
G37*
G36*
X164500D02*
X161751D01*
X162185Y134181D01*
X163451Y132915D01*
X164500Y132480D01*
Y135230D01*
D02*
G37*
G36*
X68000Y134749D02*
Y132000D01*
X70749D01*
X70315Y133049D01*
X69049Y134315D01*
X68000Y134749D01*
D02*
G37*
G36*
X65000D02*
X63951Y134315D01*
X62685Y133049D01*
X62251Y132000D01*
X65000D01*
Y134749D01*
D02*
G37*
G36*
X225730Y134000D02*
X222980D01*
X223415Y132951D01*
X224681Y131685D01*
X225730Y131250D01*
Y134000D01*
D02*
G37*
G36*
X262500Y134000D02*
X256500D01*
Y131250D01*
X262500D01*
Y134000D01*
D02*
G37*
G36*
X253500D02*
X247500D01*
Y131250D01*
X253500D01*
Y134000D01*
D02*
G37*
G36*
X245000D02*
X239000D01*
Y131250D01*
X239287D01*
X239335Y130000D01*
X237681Y129315D01*
X236415Y128049D01*
X235980Y127000D01*
X244479D01*
X244044Y128049D01*
X242779Y129315D01*
X241125Y130000D01*
X241173Y131250D01*
X245000D01*
Y134000D01*
D02*
G37*
G36*
X220730Y129749D02*
Y127000D01*
X223479D01*
X223045Y128049D01*
X221779Y129315D01*
X220730Y129749D01*
D02*
G37*
G36*
X217730D02*
X216681Y129315D01*
X215415Y128049D01*
X214981Y127000D01*
X217730D01*
Y129749D01*
D02*
G37*
G36*
X198270D02*
Y127000D01*
X201020D01*
X200585Y128049D01*
X199319Y129315D01*
X198270Y129749D01*
D02*
G37*
G36*
X195270D02*
X194221Y129315D01*
X192955Y128049D01*
X192521Y127000D01*
X195270D01*
Y129749D01*
D02*
G37*
G36*
X177270D02*
Y127000D01*
X180019D01*
X179585Y128049D01*
X178319Y129315D01*
X177270Y129749D01*
D02*
G37*
G36*
X174270D02*
X173221Y129315D01*
X171955Y128049D01*
X171521Y127000D01*
X174270D01*
Y129749D01*
D02*
G37*
G36*
X70749Y129000D02*
X68000D01*
Y126251D01*
X69049Y126685D01*
X70315Y127951D01*
X70749Y129000D01*
D02*
G37*
G36*
X65000D02*
X62251D01*
X62685Y127951D01*
X63951Y126685D01*
X65000Y126251D01*
Y129000D01*
D02*
G37*
G36*
X135145Y136000D02*
X133355D01*
X131701Y135315D01*
X130435Y134049D01*
X129750Y132395D01*
Y130605D01*
X130435Y128951D01*
X131701Y127685D01*
X133355Y127000D01*
X135145D01*
X135209Y127027D01*
X135337Y126899D01*
X135337Y126899D01*
X136329Y126236D01*
X137500Y126003D01*
X137636D01*
X137955Y124815D01*
X137632Y123610D01*
X137632Y123610D01*
X137632D01*
X137277Y123337D01*
X137240Y123374D01*
X136299Y124315D01*
X134645Y125000D01*
X132855D01*
X131201Y124315D01*
X129935Y123049D01*
X129250Y121395D01*
Y119605D01*
X129935Y117951D01*
X131201Y116685D01*
X132855Y116000D01*
X134645D01*
X134910Y116110D01*
X138053Y112967D01*
X138011Y112895D01*
X137500Y110987D01*
Y109013D01*
X138011Y107105D01*
X138998Y105395D01*
X140395Y103998D01*
X142105Y103011D01*
X144013Y102500D01*
X145987D01*
X147895Y103011D01*
X149000Y103649D01*
X149262Y103640D01*
X150378Y103200D01*
X150483Y103092D01*
X150955Y101951D01*
X152221Y100685D01*
X153270Y100251D01*
Y104500D01*
Y109272D01*
X152500Y109805D01*
Y110987D01*
X151989Y112895D01*
X151002Y114605D01*
X149605Y116002D01*
X147895Y116989D01*
X145987Y117500D01*
X144013D01*
X142105Y116989D01*
X141557Y116673D01*
X138250Y119980D01*
Y121395D01*
X137881Y122285D01*
X137874Y122302D01*
X138319Y122537D01*
X138319D01*
X138320Y122537D01*
X139545Y122348D01*
X140395Y121498D01*
X142105Y120511D01*
X144013Y120000D01*
X145987D01*
X147895Y120511D01*
X149605Y121498D01*
X151002Y122895D01*
X151989Y124605D01*
X152500Y126513D01*
Y128487D01*
X151989Y130395D01*
X151002Y132105D01*
X149605Y133502D01*
X147895Y134489D01*
X145987Y135000D01*
X144013D01*
X142105Y134489D01*
X140395Y133502D01*
X139880Y132986D01*
X138382Y133284D01*
X138065Y134049D01*
X136799Y135315D01*
X135145Y136000D01*
D02*
G37*
G36*
X244479Y124000D02*
X241730D01*
Y121250D01*
X242779Y121685D01*
X244044Y122951D01*
X244479Y124000D01*
D02*
G37*
G36*
X238730D02*
X235980D01*
X236415Y122951D01*
X237681Y121685D01*
X238730Y121250D01*
Y124000D01*
D02*
G37*
G36*
X223479D02*
X220730D01*
Y121250D01*
X221779Y121685D01*
X223045Y122951D01*
X223479Y124000D01*
D02*
G37*
G36*
X217730D02*
X214981D01*
X215415Y122951D01*
X216681Y121685D01*
X217730Y121250D01*
Y124000D01*
D02*
G37*
G36*
X201020D02*
X198270D01*
Y121250D01*
X199319Y121685D01*
X200585Y122951D01*
X201020Y124000D01*
D02*
G37*
G36*
X195270D02*
X192521D01*
X192955Y122951D01*
X194221Y121685D01*
X195270Y121250D01*
Y124000D01*
D02*
G37*
G36*
X180019D02*
X177270D01*
Y121250D01*
X178319Y121685D01*
X179585Y122951D01*
X180019Y124000D01*
D02*
G37*
G36*
X174270D02*
X171521D01*
X171955Y122951D01*
X173221Y121685D01*
X174270Y121250D01*
Y124000D01*
D02*
G37*
G36*
X257250Y123500D02*
X254000D01*
Y121000D01*
X257250D01*
Y123500D01*
D02*
G37*
G36*
X251000D02*
X247750D01*
Y121000D01*
X251000D01*
Y123500D01*
D02*
G37*
G36*
X235728Y119249D02*
X234679Y118814D01*
X233414Y117549D01*
X232052Y117581D01*
X231549Y118085D01*
X230500Y118519D01*
Y114270D01*
Y110021D01*
X231549Y110455D01*
X232815Y111721D01*
X234176Y111688D01*
X234679Y111185D01*
X235728Y110750D01*
Y115000D01*
Y119249D01*
D02*
G37*
G36*
X238728D02*
Y116500D01*
X241478D01*
X241043Y117549D01*
X239777Y118814D01*
X238728Y119249D01*
D02*
G37*
G36*
X227500Y118519D02*
X226451Y118085D01*
X225185Y116819D01*
X224750Y115770D01*
X227500D01*
Y118519D01*
D02*
G37*
G36*
X209500D02*
Y115770D01*
X212250D01*
X211815Y116819D01*
X210549Y118085D01*
X209500Y118519D01*
D02*
G37*
G36*
X206500D02*
X205451Y118085D01*
X204185Y116819D01*
X203751Y115770D01*
X206500D01*
Y118519D01*
D02*
G37*
G36*
X188500D02*
Y115770D01*
X191249D01*
X190815Y116819D01*
X189549Y118085D01*
X188500Y118519D01*
D02*
G37*
G36*
X185500D02*
X184451Y118085D01*
X183185Y116819D01*
X182750Y115770D01*
X185500D01*
Y118519D01*
D02*
G37*
G36*
X167500D02*
Y115770D01*
X170250D01*
X169815Y116819D01*
X168549Y118085D01*
X167500Y118519D01*
D02*
G37*
G36*
X164500D02*
X163451Y118085D01*
X162185Y116819D01*
X161751Y115770D01*
X164500D01*
Y118519D01*
D02*
G37*
G36*
X241478Y113499D02*
X238728D01*
Y110750D01*
X239777Y111185D01*
X241043Y112451D01*
X241478Y113499D01*
D02*
G37*
G36*
X227500Y112770D02*
X224750D01*
X225185Y111721D01*
X226451Y110455D01*
X227500Y110021D01*
Y112770D01*
D02*
G37*
G36*
X212250D02*
X209500D01*
Y110021D01*
X210549Y110455D01*
X211815Y111721D01*
X212250Y112770D01*
D02*
G37*
G36*
X206500D02*
X203751D01*
X204185Y111721D01*
X205451Y110455D01*
X206500Y110021D01*
Y112770D01*
D02*
G37*
G36*
X191249D02*
X188500D01*
Y110021D01*
X189549Y110455D01*
X190815Y111721D01*
X191249Y112770D01*
D02*
G37*
G36*
X185500D02*
X182750D01*
X183185Y111721D01*
X184451Y110455D01*
X185500Y110021D01*
Y112770D01*
D02*
G37*
G36*
X170250D02*
X167500D01*
Y110021D01*
X168549Y110455D01*
X169815Y111721D01*
X170250Y112770D01*
D02*
G37*
G36*
X164500D02*
X161751D01*
X162185Y111721D01*
X163451Y110455D01*
X164500Y110021D01*
Y112770D01*
D02*
G37*
G36*
X238730Y108750D02*
X237681Y108315D01*
X236415Y107049D01*
X235980Y106000D01*
X238730D01*
Y108750D01*
D02*
G37*
G36*
X156270D02*
Y106000D01*
X159020D01*
X158585Y107049D01*
X157319Y108315D01*
X156270Y108750D01*
D02*
G37*
G36*
X257250Y118000D02*
X252500D01*
X247750D01*
Y115770D01*
X247750Y115500D01*
Y114500D01*
X247750Y114230D01*
Y106500D01*
X248422D01*
Y103750D01*
X246000D01*
X245000Y103750D01*
X244730Y104908D01*
Y105395D01*
X244044Y107049D01*
X242779Y108315D01*
X241730Y108750D01*
Y104500D01*
Y100251D01*
X242779Y100685D01*
X243730Y101637D01*
X245000Y101192D01*
Y95250D01*
X258636D01*
X258951Y94935D01*
X260605Y94250D01*
X262395D01*
X264049Y94935D01*
X265315Y96201D01*
X266000Y97855D01*
Y99645D01*
X265315Y101299D01*
X264049Y102565D01*
X262395Y103250D01*
X262067D01*
X262040Y103268D01*
X261702Y103335D01*
X260468Y103597D01*
X260406Y103760D01*
X261106Y105000D01*
X261645D01*
X263299Y105685D01*
X264565Y106951D01*
X265250Y108605D01*
Y110395D01*
X264565Y112049D01*
X263299Y113315D01*
X261645Y114000D01*
X259855D01*
X258520Y113447D01*
X257250Y114023D01*
X257250Y114500D01*
Y115500D01*
X257250Y115770D01*
Y118000D01*
D02*
G37*
G36*
X238730Y103000D02*
X235980D01*
X236415Y101951D01*
X237681Y100685D01*
X238730Y100251D01*
Y103000D01*
D02*
G37*
G36*
X159020D02*
X156270D01*
Y100251D01*
X157319Y100685D01*
X158585Y101951D01*
X159020Y103000D01*
D02*
G37*
G36*
X197500Y100249D02*
Y97500D01*
X200249D01*
X199815Y98549D01*
X198549Y99815D01*
X197500Y100249D01*
D02*
G37*
G36*
X194500D02*
X193451Y99815D01*
X192185Y98549D01*
X191500Y96895D01*
X190230Y96404D01*
X189549Y97085D01*
X188500Y97520D01*
Y93270D01*
Y89021D01*
X189549Y89455D01*
X190815Y90721D01*
X191500Y92375D01*
X192770Y92866D01*
X193451Y92185D01*
X194500Y91751D01*
Y96000D01*
Y100249D01*
D02*
G37*
G36*
X230500Y97520D02*
Y94770D01*
X233249D01*
X232815Y95819D01*
X231549Y97085D01*
X230500Y97520D01*
D02*
G37*
G36*
X227500D02*
X226451Y97085D01*
X225185Y95819D01*
X224750Y94770D01*
X227500D01*
Y97520D01*
D02*
G37*
G36*
X209500D02*
Y94770D01*
X212250D01*
X211815Y95819D01*
X210549Y97085D01*
X209500Y97520D01*
D02*
G37*
G36*
X206500D02*
X205451Y97085D01*
X204185Y95819D01*
X203751Y94770D01*
X206500D01*
Y97520D01*
D02*
G37*
G36*
X185500D02*
X184451Y97085D01*
X183185Y95819D01*
X182750Y94770D01*
X185500D01*
Y97520D01*
D02*
G37*
G36*
X167500D02*
Y94770D01*
X170250D01*
X169815Y95819D01*
X168549Y97085D01*
X167500Y97520D01*
D02*
G37*
G36*
X164500D02*
X163451Y97085D01*
X162185Y95819D01*
X161751Y94770D01*
X164500D01*
Y97520D01*
D02*
G37*
G36*
X146500D02*
Y94770D01*
X149249D01*
X148815Y95819D01*
X147549Y97085D01*
X146500Y97520D01*
D02*
G37*
G36*
X143500D02*
X142451Y97085D01*
X141185Y95819D01*
X140751Y94770D01*
X143500D01*
Y97520D01*
D02*
G37*
G36*
X200249Y94500D02*
X197500D01*
Y91751D01*
X198549Y92185D01*
X199815Y93451D01*
X200249Y94500D01*
D02*
G37*
G36*
X233249Y91770D02*
X230500D01*
Y89021D01*
X231549Y89455D01*
X232815Y90721D01*
X233249Y91770D01*
D02*
G37*
G36*
X227500D02*
X224750D01*
X225185Y90721D01*
X226451Y89455D01*
X227500Y89021D01*
Y91770D01*
D02*
G37*
G36*
X212250D02*
X209500D01*
Y89021D01*
X210549Y89455D01*
X211815Y90721D01*
X212250Y91770D01*
D02*
G37*
G36*
X206500D02*
X203751D01*
X204185Y90721D01*
X205451Y89455D01*
X206500Y89021D01*
Y91770D01*
D02*
G37*
G36*
X185500D02*
X182750D01*
X183185Y90721D01*
X184451Y89455D01*
X185500Y89021D01*
Y91770D01*
D02*
G37*
G36*
X170250D02*
X167500D01*
Y89021D01*
X168549Y89455D01*
X169815Y90721D01*
X170250Y91770D01*
D02*
G37*
G36*
X164500D02*
X161751D01*
X162185Y90721D01*
X163451Y89455D01*
X164500Y89021D01*
Y91770D01*
D02*
G37*
G36*
X149249D02*
X146500D01*
Y89021D01*
X147549Y89455D01*
X148815Y90721D01*
X149249Y91770D01*
D02*
G37*
G36*
X143500D02*
X140751D01*
X141185Y90721D01*
X142451Y89455D01*
X143500Y89021D01*
Y91770D01*
D02*
G37*
G36*
X285270Y91749D02*
Y89000D01*
X288020D01*
X287585Y90049D01*
X286319Y91315D01*
X285270Y91749D01*
D02*
G37*
G36*
X282270D02*
X281221Y91315D01*
X279955Y90049D01*
X279521Y89000D01*
X282270D01*
Y91749D01*
D02*
G37*
G36*
X260000Y89750D02*
X254000D01*
Y87000D01*
X260000D01*
Y89750D01*
D02*
G37*
G36*
X251000D02*
X245000D01*
Y86808D01*
X243730Y86363D01*
X242779Y87315D01*
X241730Y87749D01*
Y83500D01*
Y79250D01*
X242779Y79685D01*
X243910Y80816D01*
X244637Y81106D01*
X245191Y81250D01*
X245543Y81250D01*
X251000D01*
Y85500D01*
Y89750D01*
D02*
G37*
G36*
X238730Y87749D02*
X237681Y87315D01*
X236415Y86049D01*
X235980Y85000D01*
X238730D01*
Y87749D01*
D02*
G37*
G36*
X288020Y86000D02*
X285270D01*
Y83251D01*
X286319Y83685D01*
X287585Y84951D01*
X288020Y86000D01*
D02*
G37*
G36*
X282270D02*
X279521D01*
X279955Y84951D01*
X281221Y83685D01*
X282270Y83251D01*
Y86000D01*
D02*
G37*
G36*
X87500Y85729D02*
Y82980D01*
X90249D01*
X89815Y84029D01*
X88549Y85295D01*
X87500Y85729D01*
D02*
G37*
G36*
X84500D02*
X83451Y85295D01*
X82185Y84029D01*
X81750Y82980D01*
X84500D01*
Y85729D01*
D02*
G37*
G36*
X260000Y84000D02*
X254000D01*
Y81250D01*
X260000D01*
Y84000D01*
D02*
G37*
G36*
X238730Y82000D02*
X235980D01*
X236415Y80951D01*
X237681Y79685D01*
X238730Y79250D01*
Y82000D01*
D02*
G37*
G36*
X90249Y79980D02*
X87500D01*
Y77230D01*
X88549Y77665D01*
X89815Y78931D01*
X90249Y79980D01*
D02*
G37*
G36*
X84500D02*
X81750D01*
X82185Y78931D01*
X83451Y77665D01*
X84500Y77230D01*
Y79980D01*
D02*
G37*
G36*
X97500Y76250D02*
Y76250D01*
X96230Y76249D01*
X96230Y76249D01*
Y72000D01*
Y67750D01*
X96230Y67751D01*
X97500Y67750D01*
X97500Y67750D01*
X97500Y67750D01*
X103500D01*
Y72000D01*
Y76250D01*
X97500D01*
X97500Y76250D01*
D02*
G37*
G36*
X121500Y76750D02*
X115500D01*
Y74000D01*
X121500D01*
Y76750D01*
D02*
G37*
G36*
X251500Y76519D02*
Y73770D01*
X254249D01*
X253815Y74819D01*
X252549Y76085D01*
X251500Y76519D01*
D02*
G37*
G36*
X248500D02*
X247451Y76085D01*
X246185Y74819D01*
X245751Y73770D01*
X248500D01*
Y76519D01*
D02*
G37*
G36*
X230500D02*
Y73770D01*
X233249D01*
X232815Y74819D01*
X231549Y76085D01*
X230500Y76519D01*
D02*
G37*
G36*
X227500D02*
X226451Y76085D01*
X225185Y74819D01*
X224750Y73770D01*
X227500D01*
Y76519D01*
D02*
G37*
G36*
X209500D02*
Y73770D01*
X212250D01*
X211815Y74819D01*
X210549Y76085D01*
X209500Y76519D01*
D02*
G37*
G36*
X206500D02*
X205451Y76085D01*
X204185Y74819D01*
X203751Y73770D01*
X206500D01*
Y76519D01*
D02*
G37*
G36*
X185500D02*
X184451Y76085D01*
X183185Y74819D01*
X182750Y73770D01*
X185500D01*
Y76519D01*
D02*
G37*
G36*
X167500D02*
Y73770D01*
X170250D01*
X169815Y74819D01*
X168549Y76085D01*
X167500Y76519D01*
D02*
G37*
G36*
X164500D02*
X163451Y76085D01*
X162185Y74819D01*
X161751Y73770D01*
X164500D01*
Y76519D01*
D02*
G37*
G36*
X112500Y76250D02*
X106500D01*
Y73500D01*
X112500D01*
Y76250D01*
D02*
G37*
G36*
X68500D02*
X62500D01*
Y73500D01*
X68500D01*
Y76250D01*
D02*
G37*
G36*
X93230Y76249D02*
X92181Y75815D01*
X90915Y74549D01*
X90480Y73500D01*
X93230D01*
Y76249D01*
D02*
G37*
G36*
X81770D02*
Y73500D01*
X84520D01*
X84085Y74549D01*
X82819Y75815D01*
X81770Y76249D01*
D02*
G37*
G36*
X197500Y75249D02*
Y72500D01*
X200249D01*
X199815Y73549D01*
X198549Y74815D01*
X197500Y75249D01*
D02*
G37*
G36*
X254249Y70770D02*
X251500D01*
Y68021D01*
X252549Y68455D01*
X253815Y69721D01*
X254249Y70770D01*
D02*
G37*
G36*
X248500D02*
X245751D01*
X246185Y69721D01*
X247451Y68455D01*
X248500Y68021D01*
Y70770D01*
D02*
G37*
G36*
X233249D02*
X230500D01*
Y68021D01*
X231549Y68455D01*
X232815Y69721D01*
X233249Y70770D01*
D02*
G37*
G36*
X227500D02*
X224750D01*
X225185Y69721D01*
X226451Y68455D01*
X227500Y68021D01*
Y70770D01*
D02*
G37*
G36*
X212250D02*
X209500D01*
Y68021D01*
X210549Y68455D01*
X211815Y69721D01*
X212250Y70770D01*
D02*
G37*
G36*
X206500D02*
X203751D01*
X204185Y69721D01*
X205451Y68455D01*
X206500Y68021D01*
Y70770D01*
D02*
G37*
G36*
X185500D02*
X182750D01*
X183185Y69721D01*
X184451Y68455D01*
X185500Y68021D01*
Y70770D01*
D02*
G37*
G36*
X170250D02*
X167500D01*
Y68021D01*
X168549Y68455D01*
X169815Y69721D01*
X170250Y70770D01*
D02*
G37*
G36*
X164500D02*
X161751D01*
X162185Y69721D01*
X163451Y68455D01*
X164500Y68021D01*
Y70770D01*
D02*
G37*
G36*
X93230Y70500D02*
X90480D01*
X90915Y69451D01*
X92181Y68185D01*
X93230Y67750D01*
Y70500D01*
D02*
G37*
G36*
X84520D02*
X81770D01*
Y67750D01*
X82819Y68185D01*
X84085Y69451D01*
X84520Y70500D01*
D02*
G37*
G36*
X77500Y76250D02*
X77500Y76250D01*
X71500D01*
Y72000D01*
Y67750D01*
X77500D01*
X77500Y67750D01*
Y67750D01*
X78770Y67751D01*
X78770Y67750D01*
Y72000D01*
Y76249D01*
X78770Y76249D01*
X77500Y76250D01*
X77500Y76250D01*
D02*
G37*
G36*
X200249Y69500D02*
X197500D01*
Y66751D01*
X198549Y67185D01*
X199815Y68451D01*
X200249Y69500D01*
D02*
G37*
G36*
X188500Y76519D02*
Y72270D01*
Y68021D01*
X189549Y68455D01*
X190440Y69346D01*
X191760Y69218D01*
X191898Y69145D01*
X192185Y68451D01*
X193451Y67185D01*
X194500Y66751D01*
Y71000D01*
Y75249D01*
X193451Y74815D01*
X192560Y73924D01*
X191240Y74052D01*
X191102Y74125D01*
X190815Y74819D01*
X189549Y76085D01*
X188500Y76519D01*
D02*
G37*
G36*
X25249Y69500D02*
X22500D01*
Y66751D01*
X23549Y67185D01*
X24815Y68451D01*
X25249Y69500D01*
D02*
G37*
G36*
X19500D02*
X16751D01*
X17185Y68451D01*
X18451Y67185D01*
X19500Y66751D01*
Y69500D01*
D02*
G37*
G36*
X27750Y65999D02*
Y63250D01*
X30499D01*
X30065Y64299D01*
X28799Y65565D01*
X27750Y65999D01*
D02*
G37*
G36*
X24750D02*
X23701Y65565D01*
X22435Y64299D01*
X22001Y63250D01*
X24750D01*
Y65999D01*
D02*
G37*
G36*
X13500Y65749D02*
Y63000D01*
X16249D01*
X15815Y64049D01*
X14549Y65315D01*
X13500Y65749D01*
D02*
G37*
G36*
X10500D02*
X9451Y65315D01*
X8185Y64049D01*
X7751Y63000D01*
X10500D01*
Y65749D01*
D02*
G37*
G36*
X30499Y60250D02*
X27750D01*
Y57501D01*
X28799Y57935D01*
X30065Y59201D01*
X30499Y60250D01*
D02*
G37*
G36*
X24750D02*
X22001D01*
X22435Y59201D01*
X23701Y57935D01*
X24750Y57501D01*
Y60250D01*
D02*
G37*
G36*
X16249Y60000D02*
X13500D01*
Y57251D01*
X14549Y57685D01*
X15815Y58951D01*
X16249Y60000D01*
D02*
G37*
G36*
X10500D02*
X7751D01*
X8185Y58951D01*
X9451Y57685D01*
X10500Y57251D01*
Y60000D01*
D02*
G37*
G36*
X251500Y55520D02*
Y52770D01*
X254249D01*
X253815Y53819D01*
X252549Y55085D01*
X251500Y55520D01*
D02*
G37*
G36*
X248500D02*
X247451Y55085D01*
X246185Y53819D01*
X245751Y52770D01*
X248500D01*
Y55520D01*
D02*
G37*
G36*
X230500D02*
Y52770D01*
X233249D01*
X232815Y53819D01*
X231549Y55085D01*
X230500Y55520D01*
D02*
G37*
G36*
X227500D02*
X226451Y55085D01*
X225185Y53819D01*
X224750Y52770D01*
X227500D01*
Y55520D01*
D02*
G37*
G36*
X209500D02*
Y52770D01*
X212250D01*
X211815Y53819D01*
X210549Y55085D01*
X209500Y55520D01*
D02*
G37*
G36*
X206500D02*
X205451Y55085D01*
X204185Y53819D01*
X203751Y52770D01*
X206500D01*
Y55520D01*
D02*
G37*
G36*
X188500D02*
Y52770D01*
X191249D01*
X190815Y53819D01*
X189549Y55085D01*
X188500Y55520D01*
D02*
G37*
G36*
X185500D02*
X184451Y55085D01*
X183185Y53819D01*
X182750Y52770D01*
X185500D01*
Y55520D01*
D02*
G37*
G36*
X167500D02*
Y52770D01*
X170250D01*
X169815Y53819D01*
X168549Y55085D01*
X167500Y55520D01*
D02*
G37*
G36*
X164500D02*
X163451Y55085D01*
X162185Y53819D01*
X161751Y52770D01*
X164500D01*
Y55520D01*
D02*
G37*
G36*
X146500D02*
Y52770D01*
X149249D01*
X148815Y53819D01*
X147549Y55085D01*
X146500Y55520D01*
D02*
G37*
G36*
X143500D02*
X142451Y55085D01*
X141185Y53819D01*
X140751Y52770D01*
X143500D01*
Y55520D01*
D02*
G37*
G36*
X297500Y50249D02*
Y47500D01*
X300249D01*
X299815Y48549D01*
X298549Y49815D01*
X297500Y50249D01*
D02*
G37*
G36*
X294500D02*
X293451Y49815D01*
X292185Y48549D01*
X291751Y47500D01*
X294500D01*
Y50249D01*
D02*
G37*
G36*
X254249Y49770D02*
X251500D01*
Y47021D01*
X252549Y47456D01*
X253815Y48721D01*
X254249Y49770D01*
D02*
G37*
G36*
X248500D02*
X245751D01*
X246185Y48721D01*
X247451Y47456D01*
X248500Y47021D01*
Y49770D01*
D02*
G37*
G36*
X233249D02*
X230500D01*
Y47021D01*
X231549Y47456D01*
X232815Y48721D01*
X233249Y49770D01*
D02*
G37*
G36*
X227500D02*
X224750D01*
X225185Y48721D01*
X226451Y47456D01*
X227500Y47021D01*
Y49770D01*
D02*
G37*
G36*
X212250D02*
X209500D01*
Y47021D01*
X210549Y47456D01*
X211815Y48721D01*
X212250Y49770D01*
D02*
G37*
G36*
X206500D02*
X203751D01*
X204185Y48721D01*
X205451Y47456D01*
X206500Y47021D01*
Y49770D01*
D02*
G37*
G36*
X191249D02*
X188500D01*
Y47021D01*
X189549Y47456D01*
X190815Y48721D01*
X191249Y49770D01*
D02*
G37*
G36*
X185500D02*
X182750D01*
X183185Y48721D01*
X184451Y47456D01*
X185500Y47021D01*
Y49770D01*
D02*
G37*
G36*
X170250D02*
X167500D01*
Y47021D01*
X168549Y47456D01*
X169815Y48721D01*
X170250Y49770D01*
D02*
G37*
G36*
X164500D02*
X161751D01*
X162185Y48721D01*
X163451Y47456D01*
X164500Y47021D01*
Y49770D01*
D02*
G37*
G36*
X149249D02*
X146500D01*
Y47021D01*
X147549Y47456D01*
X148815Y48721D01*
X149249Y49770D01*
D02*
G37*
G36*
X143500D02*
X140751D01*
X141185Y48721D01*
X142451Y47456D01*
X143500Y47021D01*
Y49770D01*
D02*
G37*
G36*
X300249Y44500D02*
X297500D01*
Y41751D01*
X298549Y42185D01*
X299815Y43451D01*
X300249Y44500D01*
D02*
G37*
G36*
X294500D02*
X291751D01*
X292185Y43451D01*
X293451Y42185D01*
X294500Y41751D01*
Y44500D01*
D02*
G37*
G36*
X130000Y22250D02*
X115000D01*
Y13750D01*
X117083D01*
X118000Y12645D01*
Y10855D01*
X118685Y9201D01*
X119951Y7935D01*
X121605Y7250D01*
X123395D01*
X125049Y7935D01*
X126315Y9201D01*
X127000Y10855D01*
Y12645D01*
X127917Y13750D01*
X130000D01*
Y22250D01*
D02*
G37*
G36*
X434500Y239520D02*
Y236770D01*
X437249D01*
X436815Y237819D01*
X435549Y239085D01*
X434500Y239520D01*
D02*
G37*
G36*
X431500D02*
X430451Y239085D01*
X429185Y237819D01*
X428751Y236770D01*
X431500D01*
Y239520D01*
D02*
G37*
G36*
X574022Y244000D02*
X572178D01*
X570398Y243523D01*
X568802Y242601D01*
X567499Y241298D01*
X566577Y239702D01*
X566100Y237922D01*
Y236078D01*
X566577Y234298D01*
X567499Y232702D01*
X568802Y231399D01*
X570398Y230477D01*
X572178Y230000D01*
X574022D01*
X575802Y230477D01*
X577398Y231399D01*
X578701Y232702D01*
X579623Y234298D01*
X580100Y236078D01*
Y237922D01*
X579623Y239702D01*
X578701Y241298D01*
X577398Y242601D01*
X575802Y243523D01*
X574022Y244000D01*
D02*
G37*
G36*
X548622D02*
X546778D01*
X544998Y243523D01*
X543402Y242601D01*
X542099Y241298D01*
X541177Y239702D01*
X540700Y237922D01*
Y236078D01*
X541177Y234298D01*
X542099Y232702D01*
X543402Y231399D01*
X544998Y230477D01*
X546778Y230000D01*
X548622D01*
X550402Y230477D01*
X551998Y231399D01*
X553301Y232702D01*
X554223Y234298D01*
X554700Y236078D01*
Y237922D01*
X554223Y239702D01*
X553301Y241298D01*
X551998Y242601D01*
X550402Y243523D01*
X548622Y244000D01*
D02*
G37*
G36*
X523222D02*
X521378D01*
X519598Y243523D01*
X518002Y242601D01*
X516699Y241298D01*
X515777Y239702D01*
X515300Y237922D01*
Y236078D01*
X515777Y234298D01*
X516699Y232702D01*
X518002Y231399D01*
X519598Y230477D01*
X521378Y230000D01*
X523222D01*
X525002Y230477D01*
X526598Y231399D01*
X527901Y232702D01*
X528823Y234298D01*
X529300Y236078D01*
Y237922D01*
X528823Y239702D01*
X527901Y241298D01*
X526598Y242601D01*
X525002Y243523D01*
X523222Y244000D01*
D02*
G37*
G36*
X472422D02*
X470578D01*
X468798Y243523D01*
X467202Y242601D01*
X465899Y241298D01*
X464977Y239702D01*
X464500Y237922D01*
Y236078D01*
X464977Y234298D01*
X465899Y232702D01*
X467202Y231399D01*
X468798Y230477D01*
X470578Y230000D01*
X472422D01*
X474202Y230477D01*
X475798Y231399D01*
X477101Y232702D01*
X478023Y234298D01*
X478500Y236078D01*
Y237922D01*
X478023Y239702D01*
X477101Y241298D01*
X475798Y242601D01*
X474202Y243523D01*
X472422Y244000D01*
D02*
G37*
G36*
X437249Y233770D02*
X428751D01*
Y233770D01*
X428750Y232500D01*
X428750Y232500D01*
X428750Y232500D01*
Y226500D01*
X433000D01*
X437250D01*
Y232500D01*
X437250Y232500D01*
X437250D01*
X437249Y233770D01*
Y233770D01*
D02*
G37*
G36*
X622500Y225249D02*
Y222500D01*
X625249D01*
X624815Y223549D01*
X623549Y224815D01*
X622500Y225249D01*
D02*
G37*
G36*
X619500D02*
X618451Y224815D01*
X617185Y223549D01*
X616751Y222500D01*
X619500D01*
Y225249D01*
D02*
G37*
G36*
X597500D02*
Y222500D01*
X600249D01*
X599815Y223549D01*
X598549Y224815D01*
X597500Y225249D01*
D02*
G37*
G36*
X594500D02*
X593451Y224815D01*
X592185Y223549D01*
X591751Y222500D01*
X594500D01*
Y225249D01*
D02*
G37*
G36*
X572500D02*
Y222500D01*
X575249D01*
X574815Y223549D01*
X573549Y224815D01*
X572500Y225249D01*
D02*
G37*
G36*
X569500D02*
X568451Y224815D01*
X567185Y223549D01*
X566751Y222500D01*
X569500D01*
Y225249D01*
D02*
G37*
G36*
X522500D02*
Y222500D01*
X525249D01*
X524815Y223549D01*
X523549Y224815D01*
X522500Y225249D01*
D02*
G37*
G36*
X422500D02*
Y222500D01*
X425249D01*
X424815Y223549D01*
X423549Y224815D01*
X422500Y225249D01*
D02*
G37*
G36*
X419500D02*
X418451Y224815D01*
X417185Y223549D01*
X416751Y222500D01*
X419500D01*
Y225249D01*
D02*
G37*
G36*
X625249Y219500D02*
X622500D01*
Y216751D01*
X623549Y217185D01*
X624815Y218451D01*
X625249Y219500D01*
D02*
G37*
G36*
X619500D02*
X616751D01*
X617185Y218451D01*
X618451Y217185D01*
X619500Y216751D01*
Y219500D01*
D02*
G37*
G36*
X600249D02*
X597500D01*
Y216751D01*
X598549Y217185D01*
X599815Y218451D01*
X600249Y219500D01*
D02*
G37*
G36*
X594500D02*
X591751D01*
X592185Y218451D01*
X593451Y217185D01*
X594500Y216751D01*
Y219500D01*
D02*
G37*
G36*
X575249D02*
X572500D01*
Y216751D01*
X573549Y217185D01*
X574815Y218451D01*
X575249Y219500D01*
D02*
G37*
G36*
X569500D02*
X566751D01*
X567185Y218451D01*
X568451Y217185D01*
X569500Y216751D01*
Y219500D01*
D02*
G37*
G36*
X525249D02*
X522500D01*
Y216751D01*
X523549Y217185D01*
X524815Y218451D01*
X525249Y219500D01*
D02*
G37*
G36*
X622500Y200249D02*
Y197500D01*
X625249D01*
X624815Y198549D01*
X623549Y199815D01*
X622500Y200249D01*
D02*
G37*
G36*
X619500D02*
X618451Y199815D01*
X617185Y198549D01*
X616751Y197500D01*
X619500D01*
Y200249D01*
D02*
G37*
G36*
X597500D02*
Y197500D01*
X600249D01*
X599815Y198549D01*
X598549Y199815D01*
X597500Y200249D01*
D02*
G37*
G36*
X594500D02*
X593451Y199815D01*
X592185Y198549D01*
X591751Y197500D01*
X594500D01*
Y200249D01*
D02*
G37*
G36*
X572500D02*
Y197500D01*
X575249D01*
X574815Y198549D01*
X573549Y199815D01*
X572500Y200249D01*
D02*
G37*
G36*
X569500D02*
X568451Y199815D01*
X567185Y198549D01*
X566751Y197500D01*
X569500D01*
Y200249D01*
D02*
G37*
G36*
X547500D02*
Y197500D01*
X550249D01*
X549815Y198549D01*
X548549Y199815D01*
X547500Y200249D01*
D02*
G37*
G36*
X544500D02*
X543451Y199815D01*
X542185Y198549D01*
X541751Y197500D01*
X544500D01*
Y200249D01*
D02*
G37*
G36*
X625249Y194500D02*
X622500D01*
Y191751D01*
X623549Y192185D01*
X624815Y193451D01*
X625249Y194500D01*
D02*
G37*
G36*
X619500D02*
X616751D01*
X617185Y193451D01*
X618451Y192185D01*
X619500Y191751D01*
Y194500D01*
D02*
G37*
G36*
X600249D02*
X597500D01*
Y191751D01*
X598549Y192185D01*
X599815Y193451D01*
X600249Y194500D01*
D02*
G37*
G36*
X594500D02*
X591751D01*
X592185Y193451D01*
X593451Y192185D01*
X594500Y191751D01*
Y194500D01*
D02*
G37*
G36*
X575249D02*
X572500D01*
Y191751D01*
X573549Y192185D01*
X574815Y193451D01*
X575249Y194500D01*
D02*
G37*
G36*
X569500D02*
X566751D01*
X567185Y193451D01*
X568451Y192185D01*
X569500Y191751D01*
Y194500D01*
D02*
G37*
G36*
X550249D02*
X547500D01*
Y191751D01*
X548549Y192185D01*
X549815Y193451D01*
X550249Y194500D01*
D02*
G37*
G36*
X544500D02*
X541751D01*
X542185Y193451D01*
X543451Y192185D01*
X544500Y191751D01*
Y194500D01*
D02*
G37*
G36*
X474249Y175480D02*
X471500D01*
Y172730D01*
X472549Y173165D01*
X473815Y174431D01*
X474249Y175480D01*
D02*
G37*
G36*
X622500Y175249D02*
Y172500D01*
X625249D01*
X624815Y173549D01*
X623549Y174815D01*
X622500Y175249D01*
D02*
G37*
G36*
X619500D02*
X618451Y174815D01*
X617185Y173549D01*
X616751Y172500D01*
X619500D01*
Y175249D01*
D02*
G37*
G36*
X625249Y169500D02*
X622500D01*
Y166751D01*
X623549Y167185D01*
X624815Y168451D01*
X625249Y169500D01*
D02*
G37*
G36*
X619500D02*
X616751D01*
X617185Y168451D01*
X618451Y167185D01*
X619500Y166751D01*
Y169500D01*
D02*
G37*
G36*
X622500Y150249D02*
Y147500D01*
X625249D01*
X624815Y148549D01*
X623549Y149815D01*
X622500Y150249D01*
D02*
G37*
G36*
X619500D02*
X618451Y149815D01*
X617185Y148549D01*
X616751Y147500D01*
X619500D01*
Y150249D01*
D02*
G37*
G36*
X602382Y168000D02*
X599618D01*
X596947Y167284D01*
X594553Y165902D01*
X592598Y163947D01*
X591216Y161553D01*
X590500Y158882D01*
Y156118D01*
X591216Y153447D01*
X592598Y151053D01*
X594553Y149098D01*
X596947Y147716D01*
X599618Y147000D01*
X602382D01*
X605053Y147716D01*
X607447Y149098D01*
X609402Y151053D01*
X610784Y153447D01*
X611500Y156118D01*
Y158882D01*
X610784Y161553D01*
X609402Y163947D01*
X607447Y165902D01*
X605053Y167284D01*
X602382Y168000D01*
D02*
G37*
G36*
X625249Y144500D02*
X622500D01*
Y141751D01*
X623549Y142185D01*
X624815Y143451D01*
X625249Y144500D01*
D02*
G37*
G36*
X619500D02*
X616751D01*
X617185Y143451D01*
X618451Y142185D01*
X619500Y141751D01*
Y144500D01*
D02*
G37*
G36*
X622500Y125249D02*
Y122500D01*
X625249D01*
X624815Y123549D01*
X623549Y124815D01*
X622500Y125249D01*
D02*
G37*
G36*
X619500D02*
X618451Y124815D01*
X617185Y123549D01*
X616751Y122500D01*
X619500D01*
Y125249D01*
D02*
G37*
G36*
X572500D02*
Y122500D01*
X575249D01*
X574815Y123549D01*
X573549Y124815D01*
X572500Y125249D01*
D02*
G37*
G36*
X569500D02*
X568451Y124815D01*
X567185Y123549D01*
X566751Y122500D01*
X569500D01*
Y125249D01*
D02*
G37*
G36*
X547500D02*
Y122500D01*
X550249D01*
X549815Y123549D01*
X548549Y124815D01*
X547500Y125249D01*
D02*
G37*
G36*
X544500D02*
X543451Y124815D01*
X542185Y123549D01*
X541751Y122500D01*
X544500D01*
Y125249D01*
D02*
G37*
G36*
X625249Y119500D02*
X622500D01*
Y116751D01*
X623549Y117185D01*
X624815Y118451D01*
X625249Y119500D01*
D02*
G37*
G36*
X619500D02*
X616751D01*
X617185Y118451D01*
X618451Y117185D01*
X619500Y116751D01*
Y119500D01*
D02*
G37*
G36*
X575249D02*
X572500D01*
Y116751D01*
X573549Y117185D01*
X574815Y118451D01*
X575249Y119500D01*
D02*
G37*
G36*
X569500D02*
X566751D01*
X567185Y118451D01*
X568451Y117185D01*
X569500Y116751D01*
Y119500D01*
D02*
G37*
G36*
X550249D02*
X547500D01*
Y116751D01*
X548549Y117185D01*
X549815Y118451D01*
X550249Y119500D01*
D02*
G37*
G36*
X544500D02*
X541751D01*
X542185Y118451D01*
X543451Y117185D01*
X544500Y116751D01*
Y119500D01*
D02*
G37*
G36*
X622500Y100249D02*
Y97500D01*
X625249D01*
X624815Y98549D01*
X623549Y99815D01*
X622500Y100249D01*
D02*
G37*
G36*
X619500D02*
X618451Y99815D01*
X617185Y98549D01*
X616751Y97500D01*
X619500D01*
Y100249D01*
D02*
G37*
G36*
X597500D02*
Y97500D01*
X600249D01*
X599815Y98549D01*
X598549Y99815D01*
X597500Y100249D01*
D02*
G37*
G36*
X594500D02*
X593451Y99815D01*
X592185Y98549D01*
X591751Y97500D01*
X594500D01*
Y100249D01*
D02*
G37*
G36*
X572500D02*
Y97500D01*
X575249D01*
X574815Y98549D01*
X573549Y99815D01*
X572500Y100249D01*
D02*
G37*
G36*
X569500D02*
X568451Y99815D01*
X567185Y98549D01*
X566751Y97500D01*
X569500D01*
Y100249D01*
D02*
G37*
G36*
X547500D02*
Y97500D01*
X550249D01*
X549815Y98549D01*
X548549Y99815D01*
X547500Y100249D01*
D02*
G37*
G36*
X544500D02*
X543451Y99815D01*
X542185Y98549D01*
X541751Y97500D01*
X544500D01*
Y100249D01*
D02*
G37*
G36*
X447500D02*
Y97500D01*
X450249D01*
X449815Y98549D01*
X448549Y99815D01*
X447500Y100249D01*
D02*
G37*
G36*
X444500D02*
X443451Y99815D01*
X442185Y98549D01*
X441751Y97500D01*
X444500D01*
Y100249D01*
D02*
G37*
G36*
X521500Y109000D02*
X516500D01*
Y96500D01*
X521500D01*
Y109000D01*
D02*
G37*
G36*
X513500D02*
X508500D01*
Y96500D01*
X513500D01*
Y109000D01*
D02*
G37*
G36*
X625249Y94500D02*
X622500D01*
Y91751D01*
X623549Y92185D01*
X624815Y93451D01*
X625249Y94500D01*
D02*
G37*
G36*
X619500D02*
X616751D01*
X617185Y93451D01*
X618451Y92185D01*
X619500Y91751D01*
Y94500D01*
D02*
G37*
G36*
X600249D02*
X597500D01*
Y91751D01*
X598549Y92185D01*
X599815Y93451D01*
X600249Y94500D01*
D02*
G37*
G36*
X594500D02*
X591751D01*
X592185Y93451D01*
X593451Y92185D01*
X594500Y91751D01*
Y94500D01*
D02*
G37*
G36*
X575249D02*
X572500D01*
Y91751D01*
X573549Y92185D01*
X574815Y93451D01*
X575249Y94500D01*
D02*
G37*
G36*
X569500D02*
X566751D01*
X567185Y93451D01*
X568451Y92185D01*
X569500Y91751D01*
Y94500D01*
D02*
G37*
G36*
X550249D02*
X547500D01*
Y91751D01*
X548549Y92185D01*
X549815Y93451D01*
X550249Y94500D01*
D02*
G37*
G36*
X544500D02*
X541751D01*
X542185Y93451D01*
X543451Y92185D01*
X544500Y91751D01*
Y94500D01*
D02*
G37*
G36*
X450249D02*
X447500D01*
Y91751D01*
X448549Y92185D01*
X449815Y93451D01*
X450249Y94500D01*
D02*
G37*
G36*
X444500D02*
X441751D01*
X442185Y93451D01*
X443451Y92185D01*
X444500Y91751D01*
Y94500D01*
D02*
G37*
G36*
X465500Y93500D02*
X454500D01*
Y80500D01*
X465500D01*
Y83941D01*
X466945D01*
X467701Y83185D01*
X469355Y82500D01*
X471145D01*
X472799Y83185D01*
X474065Y84451D01*
X474750Y86105D01*
Y87895D01*
X474065Y89549D01*
X472799Y90815D01*
X471145Y91500D01*
X469355D01*
X467701Y90815D01*
X466945Y90059D01*
X465500D01*
Y93500D01*
D02*
G37*
G36*
X521500Y93500D02*
X515000D01*
X508500D01*
Y81000D01*
X509902D01*
X510751Y79730D01*
D01*
X519250D01*
D01*
X520098Y81000D01*
X521500D01*
Y93500D01*
D02*
G37*
G36*
X513500Y76730D02*
X510751D01*
X511185Y75681D01*
X512451Y74415D01*
X513500Y73980D01*
Y76730D01*
D02*
G37*
G36*
X622500Y75249D02*
Y72500D01*
X625249D01*
X624815Y73549D01*
X623549Y74815D01*
X622500Y75249D01*
D02*
G37*
G36*
X619500D02*
X618451Y74815D01*
X617185Y73549D01*
X616751Y72500D01*
X619500D01*
Y75249D01*
D02*
G37*
G36*
X572500D02*
Y72500D01*
X575249D01*
X574815Y73549D01*
X573549Y74815D01*
X572500Y75249D01*
D02*
G37*
G36*
X569500D02*
X568451Y74815D01*
X567185Y73549D01*
X566751Y72500D01*
X569500D01*
Y75249D01*
D02*
G37*
G36*
X522500D02*
Y72500D01*
X525249D01*
X524815Y73549D01*
X523549Y74815D01*
X522500Y75249D01*
D02*
G37*
G36*
X519250Y76730D02*
X516500D01*
Y73114D01*
X516855Y72753D01*
X516751Y72500D01*
X519500D01*
Y76116D01*
X519145Y76477D01*
X519250Y76730D01*
D02*
G37*
G36*
X472500Y75249D02*
Y72500D01*
X475249D01*
X474815Y73549D01*
X473549Y74815D01*
X472500Y75249D01*
D02*
G37*
G36*
X469500D02*
X468451Y74815D01*
X467185Y73549D01*
X466751Y72500D01*
X469500D01*
Y75249D01*
D02*
G37*
G36*
X625249Y69500D02*
X622500D01*
Y66751D01*
X623549Y67185D01*
X624815Y68451D01*
X625249Y69500D01*
D02*
G37*
G36*
X619500D02*
X616751D01*
X617185Y68451D01*
X618451Y67185D01*
X619500Y66751D01*
Y69500D01*
D02*
G37*
G36*
X575249D02*
X572500D01*
Y66751D01*
X573549Y67185D01*
X574815Y68451D01*
X575249Y69500D01*
D02*
G37*
G36*
X569500D02*
X566751D01*
X567185Y68451D01*
X568451Y67185D01*
X569500Y66751D01*
Y69500D01*
D02*
G37*
G36*
X525249D02*
X522500D01*
Y66751D01*
X523549Y67185D01*
X524815Y68451D01*
X525249Y69500D01*
D02*
G37*
G36*
X519500D02*
X516751D01*
X517185Y68451D01*
X518451Y67185D01*
X519500Y66751D01*
Y69500D01*
D02*
G37*
G36*
X475249D02*
X472500D01*
Y66751D01*
X473549Y67185D01*
X474815Y68451D01*
X475249Y69500D01*
D02*
G37*
G36*
X469500D02*
X466751D01*
X467185Y68451D01*
X468451Y67185D01*
X469500Y66751D01*
Y69500D01*
D02*
G37*
G36*
X622500Y50249D02*
Y47500D01*
X625249D01*
X624815Y48549D01*
X623549Y49815D01*
X622500Y50249D01*
D02*
G37*
G36*
X619500D02*
X618451Y49815D01*
X617185Y48549D01*
X616751Y47500D01*
X619500D01*
Y50249D01*
D02*
G37*
G36*
X472500D02*
Y47500D01*
X475249D01*
X474815Y48549D01*
X473549Y49815D01*
X472500Y50249D01*
D02*
G37*
G36*
X469500D02*
X468451Y49815D01*
X467185Y48549D01*
X466751Y47500D01*
X469500D01*
Y50249D01*
D02*
G37*
G36*
X455200Y65082D02*
X452720Y64755D01*
X450409Y63798D01*
X448425Y62275D01*
X446902Y60291D01*
X445945Y57980D01*
X445618Y55500D01*
Y54500D01*
X445945Y52020D01*
X446902Y49709D01*
X448425Y47724D01*
X450409Y46202D01*
X452720Y45244D01*
X455200Y44918D01*
X457680Y45244D01*
X459991Y46202D01*
X461976Y47724D01*
X463498Y49709D01*
X464455Y52020D01*
X464782Y54500D01*
Y55500D01*
X464455Y57980D01*
X463498Y60291D01*
X461976Y62275D01*
X459991Y63798D01*
X457680Y64755D01*
X455200Y65082D01*
D02*
G37*
G36*
X625249Y44500D02*
X622500D01*
Y41751D01*
X623549Y42185D01*
X624815Y43451D01*
X625249Y44500D01*
D02*
G37*
G36*
X619500D02*
X616751D01*
X617185Y43451D01*
X618451Y42185D01*
X619500Y41751D01*
Y44500D01*
D02*
G37*
G36*
X475249D02*
X472500D01*
Y41751D01*
X473549Y42185D01*
X474815Y43451D01*
X475249Y44500D01*
D02*
G37*
G36*
X469500D02*
X466751D01*
X467185Y43451D01*
X468451Y42185D01*
X469500Y41751D01*
Y44500D01*
D02*
G37*
G36*
X599422Y50000D02*
X597578D01*
X595798Y49523D01*
X594202Y48601D01*
X592899Y47298D01*
X591977Y45702D01*
X591500Y43922D01*
Y42078D01*
X591977Y40298D01*
X592899Y38702D01*
X594202Y37399D01*
X595798Y36477D01*
X597578Y36000D01*
X599422D01*
X601202Y36477D01*
X602798Y37399D01*
X604101Y38702D01*
X605023Y40298D01*
X605500Y42078D01*
Y43922D01*
X605023Y45702D01*
X604101Y47298D01*
X602798Y48601D01*
X601202Y49523D01*
X599422Y50000D01*
D02*
G37*
G36*
X574022D02*
X572178D01*
X570398Y49523D01*
X568802Y48601D01*
X567499Y47298D01*
X566577Y45702D01*
X566100Y43922D01*
Y42078D01*
X566577Y40298D01*
X567499Y38702D01*
X568802Y37399D01*
X570398Y36477D01*
X572178Y36000D01*
X574022D01*
X575802Y36477D01*
X577398Y37399D01*
X578701Y38702D01*
X579623Y40298D01*
X580100Y42078D01*
Y43922D01*
X579623Y45702D01*
X578701Y47298D01*
X577398Y48601D01*
X575802Y49523D01*
X574022Y50000D01*
D02*
G37*
G36*
X548622D02*
X546778D01*
X544998Y49523D01*
X543402Y48601D01*
X542099Y47298D01*
X541177Y45702D01*
X540700Y43922D01*
Y42078D01*
X541177Y40298D01*
X542099Y38702D01*
X543402Y37399D01*
X544998Y36477D01*
X546778Y36000D01*
X548622D01*
X550402Y36477D01*
X551998Y37399D01*
X553301Y38702D01*
X554223Y40298D01*
X554700Y42078D01*
Y43922D01*
X554223Y45702D01*
X553301Y47298D01*
X551998Y48601D01*
X550402Y49523D01*
X548622Y50000D01*
D02*
G37*
G36*
X523222D02*
X521378D01*
X519598Y49523D01*
X518002Y48601D01*
X516699Y47298D01*
X515777Y45702D01*
X515300Y43922D01*
Y42078D01*
X515777Y40298D01*
X516699Y38702D01*
X518002Y37399D01*
X519598Y36477D01*
X521378Y36000D01*
X523222D01*
X525002Y36477D01*
X526598Y37399D01*
X527901Y38702D01*
X528823Y40298D01*
X529300Y42078D01*
Y43922D01*
X528823Y45702D01*
X527901Y47298D01*
X526598Y48601D01*
X525002Y49523D01*
X523222Y50000D01*
D02*
G37*
G36*
X497822D02*
X495978D01*
X494198Y49523D01*
X492602Y48601D01*
X491299Y47298D01*
X490377Y45702D01*
X489900Y43922D01*
Y42078D01*
X490377Y40298D01*
X491299Y38702D01*
X492602Y37399D01*
X494198Y36477D01*
X495978Y36000D01*
X497822D01*
X499602Y36477D01*
X501198Y37399D01*
X502501Y38702D01*
X503423Y40298D01*
X503900Y42078D01*
Y43922D01*
X503423Y45702D01*
X502501Y47298D01*
X501198Y48601D01*
X499602Y49523D01*
X497822Y50000D01*
D02*
G37*
G36*
X406250Y45000D02*
X397750D01*
Y30000D01*
X397750D01*
X397942Y29713D01*
X397500Y28645D01*
Y26855D01*
X398185Y25201D01*
X399451Y23935D01*
X401105Y23250D01*
X402895D01*
X404549Y23935D01*
X405815Y25201D01*
X406500Y26855D01*
Y28645D01*
X406058Y29713D01*
X406250Y30000D01*
X406250D01*
Y45000D01*
D02*
G37*
G36*
X622500Y25249D02*
Y22500D01*
X625249D01*
X624815Y23549D01*
X623549Y24815D01*
X622500Y25249D01*
D02*
G37*
G36*
X619500D02*
X618451Y24815D01*
X617185Y23549D01*
X616751Y22500D01*
X619500D01*
Y25249D01*
D02*
G37*
G36*
X597500D02*
Y22500D01*
X600249D01*
X599815Y23549D01*
X598549Y24815D01*
X597500Y25249D01*
D02*
G37*
G36*
X594500D02*
X593451Y24815D01*
X592185Y23549D01*
X591751Y22500D01*
X594500D01*
Y25249D01*
D02*
G37*
G36*
X547500D02*
Y22500D01*
X550249D01*
X549815Y23549D01*
X548549Y24815D01*
X547500Y25249D01*
D02*
G37*
G36*
X544500D02*
X543451Y24815D01*
X542185Y23549D01*
X541751Y22500D01*
X544500D01*
Y25249D01*
D02*
G37*
G36*
X497500D02*
Y22500D01*
X500249D01*
X499815Y23549D01*
X498549Y24815D01*
X497500Y25249D01*
D02*
G37*
G36*
X494500D02*
X493451Y24815D01*
X492185Y23549D01*
X491751Y22500D01*
X494500D01*
Y25249D01*
D02*
G37*
G36*
X472500D02*
Y22500D01*
X475249D01*
X474815Y23549D01*
X473549Y24815D01*
X472500Y25249D01*
D02*
G37*
G36*
X469500D02*
X468451Y24815D01*
X467185Y23549D01*
X466751Y22500D01*
X469500D01*
Y25249D01*
D02*
G37*
G36*
X447500D02*
Y22500D01*
X450249D01*
X449815Y23549D01*
X448549Y24815D01*
X447500Y25249D01*
D02*
G37*
G36*
X444500D02*
X443451Y24815D01*
X442185Y23549D01*
X441751Y22500D01*
X444500D01*
Y25249D01*
D02*
G37*
G36*
X625249Y19500D02*
X622500D01*
Y16751D01*
X623549Y17185D01*
X624815Y18451D01*
X625249Y19500D01*
D02*
G37*
G36*
X619500D02*
X616751D01*
X617185Y18451D01*
X618451Y17185D01*
X619500Y16751D01*
Y19500D01*
D02*
G37*
G36*
X600249D02*
X597500D01*
Y16751D01*
X598549Y17185D01*
X599815Y18451D01*
X600249Y19500D01*
D02*
G37*
G36*
X594500D02*
X591751D01*
X592185Y18451D01*
X593451Y17185D01*
X594500Y16751D01*
Y19500D01*
D02*
G37*
G36*
X550249D02*
X547500D01*
Y16751D01*
X548549Y17185D01*
X549815Y18451D01*
X550249Y19500D01*
D02*
G37*
G36*
X544500D02*
X541751D01*
X542185Y18451D01*
X543451Y17185D01*
X544500Y16751D01*
Y19500D01*
D02*
G37*
G36*
X500249D02*
X497500D01*
Y16751D01*
X498549Y17185D01*
X499815Y18451D01*
X500249Y19500D01*
D02*
G37*
G36*
X494500D02*
X491751D01*
X492185Y18451D01*
X493451Y17185D01*
X494500Y16751D01*
Y19500D01*
D02*
G37*
G36*
X475249D02*
X472500D01*
Y16751D01*
X473549Y17185D01*
X474815Y18451D01*
X475249Y19500D01*
D02*
G37*
G36*
X469500D02*
X466751D01*
X467185Y18451D01*
X468451Y17185D01*
X469500Y16751D01*
Y19500D01*
D02*
G37*
G36*
X450249D02*
X447500D01*
Y16751D01*
X448549Y17185D01*
X449815Y18451D01*
X450249Y19500D01*
D02*
G37*
G36*
X444500D02*
X441751D01*
X442185Y18451D01*
X443451Y17185D01*
X444500Y16751D01*
Y19500D01*
D02*
G37*
G36*
X574351Y27100D02*
X571849D01*
X569433Y26453D01*
X567267Y25202D01*
X565498Y23433D01*
X564247Y21267D01*
X563600Y18851D01*
Y16349D01*
X564247Y13933D01*
X565498Y11767D01*
X567267Y9998D01*
X569433Y8747D01*
X571849Y8100D01*
X574351D01*
X576767Y8747D01*
X578933Y9998D01*
X580702Y11767D01*
X581953Y13933D01*
X582600Y16349D01*
Y18851D01*
X581953Y21267D01*
X580702Y23433D01*
X578933Y25202D01*
X576767Y26453D01*
X574351Y27100D01*
D02*
G37*
G36*
X201749Y201500D02*
X199000D01*
Y198751D01*
X200049Y199185D01*
X201315Y200451D01*
X201749Y201500D01*
D02*
G37*
G36*
X196000D02*
X193251D01*
X193685Y200451D01*
X194951Y199185D01*
X196000Y198751D01*
Y201500D01*
D02*
G37*
G36*
X259250Y193249D02*
X258201Y192815D01*
X256935Y191549D01*
X256501Y190500D01*
X259250D01*
Y193249D01*
D02*
G37*
G36*
X241730Y192749D02*
Y190000D01*
X244479D01*
X244044Y191049D01*
X242779Y192315D01*
X241730Y192749D01*
D02*
G37*
G36*
X238730D02*
X237681Y192315D01*
X236415Y191049D01*
X235980Y190000D01*
X238730D01*
Y192749D01*
D02*
G37*
G36*
X259250Y187500D02*
X256501D01*
X256935Y186451D01*
X258201Y185185D01*
X259250Y184751D01*
Y187500D01*
D02*
G37*
G36*
X426000Y192250D02*
X420000D01*
Y189500D01*
X426000D01*
Y192250D01*
D02*
G37*
G36*
X385020Y162250D02*
X382270D01*
Y159501D01*
X383319Y159935D01*
X384585Y161201D01*
X385020Y162250D01*
D02*
G37*
G36*
X379270D02*
X376521D01*
X376955Y161201D01*
X378221Y159935D01*
X379270Y159501D01*
Y162250D01*
D02*
G37*
G36*
X293230Y180499D02*
Y177750D01*
X295979D01*
X295545Y178799D01*
X294279Y180065D01*
X293230Y180499D01*
D02*
G37*
G36*
X290230D02*
X289181Y180065D01*
X287915Y178799D01*
X287480Y177750D01*
X290230D01*
Y180499D01*
D02*
G37*
G36*
X295979Y174750D02*
X293230D01*
Y172001D01*
X294279Y172435D01*
X295545Y173701D01*
X295979Y174750D01*
D02*
G37*
G36*
X290230D02*
X287480D01*
X287915Y173701D01*
X289181Y172435D01*
X290230Y172001D01*
Y174750D01*
D02*
G37*
G36*
X293500Y167749D02*
Y165000D01*
X296249D01*
X295815Y166049D01*
X294549Y167315D01*
X293500Y167749D01*
D02*
G37*
G36*
X290500D02*
X289451Y167315D01*
X288185Y166049D01*
X287751Y165000D01*
X290500D01*
Y167749D01*
D02*
G37*
G36*
X296249Y162000D02*
X293500D01*
Y159251D01*
X294549Y159685D01*
X295815Y160951D01*
X296249Y162000D01*
D02*
G37*
G36*
X290500D02*
X287751D01*
X288185Y160951D01*
X289451Y159685D01*
X290500Y159251D01*
Y162000D01*
D02*
G37*
G36*
X284500Y146249D02*
Y143500D01*
X287249D01*
X286815Y144549D01*
X285549Y145815D01*
X284500Y146249D01*
D02*
G37*
G36*
X281500D02*
X280451Y145815D01*
X279185Y144549D01*
X278751Y143500D01*
X281500D01*
Y146249D01*
D02*
G37*
G36*
X422000Y127020D02*
Y124270D01*
X424749D01*
X424315Y125319D01*
X423049Y126585D01*
X422000Y127020D01*
D02*
G37*
G36*
X424750Y111000D02*
X422000D01*
Y105000D01*
X424750D01*
Y111000D01*
D02*
G37*
G36*
X115479Y42000D02*
X112730D01*
Y39251D01*
X113779Y39685D01*
X115045Y40951D01*
X115479Y42000D01*
D02*
G37*
G36*
X109730D02*
X106980D01*
X107415Y40951D01*
X108681Y39685D01*
X109730Y39251D01*
Y42000D01*
D02*
G37*
%LPD*%
D10*
X173420Y245000D02*
X233500D01*
X173310Y245110D02*
X173420Y245000D01*
X82500Y215750D02*
X86250Y212000D01*
X82500Y215750D02*
Y216250D01*
X80000Y213250D02*
X82500Y215750D01*
X79500Y213250D02*
X80000D01*
X77015Y213015D02*
X79265D01*
X76099Y204751D02*
X81498D01*
X76250Y212250D02*
X77015Y213015D01*
X79265D02*
X79500Y213250D01*
X81498Y204751D02*
X82500Y203750D01*
X86250Y212000D02*
X138157D01*
X74500Y222500D02*
X90593D01*
X70250Y218250D02*
X74500Y222500D01*
X90593D02*
X93093Y225000D01*
X93750D01*
X224750Y168000D02*
X242828D01*
X180593D02*
X224750D01*
Y160250D02*
X225000Y160000D01*
X224750Y160250D02*
Y168000D01*
X225000Y172000D02*
X242828D01*
X182250D02*
X225000D01*
Y180000D01*
X58250Y147500D02*
X64500D01*
X175500Y173093D02*
X180593Y168000D01*
X242828D02*
X244000Y166828D01*
X170593Y190250D02*
X175500Y185343D01*
Y173093D02*
Y185343D01*
X244000Y166000D02*
X245500Y164500D01*
X244000Y166000D02*
Y166828D01*
X82500Y204250D02*
X86250Y208000D01*
X136500D01*
X154250Y190250D01*
X170593D01*
X82500Y203750D02*
Y204250D01*
X244000Y174000D02*
X245500Y175500D01*
X172250Y194250D02*
X179500Y187000D01*
Y174750D02*
Y187000D01*
X244000Y173172D02*
Y174000D01*
X242828Y172000D02*
X244000Y173172D01*
X179500Y174750D02*
X182250Y172000D01*
X138157Y212000D02*
X155907Y194250D01*
X172250D01*
X254500Y164500D02*
Y164750D01*
X256000Y166250D01*
X261250D01*
X254500Y175250D02*
Y175500D01*
Y175250D02*
X256000Y173750D01*
X261250D01*
X500750D02*
X522750D01*
X432000Y125000D02*
X452000D01*
X500750Y173750D01*
X414750Y81750D02*
Y134250D01*
X455000D01*
X414750D02*
Y139250D01*
X366700Y150300D02*
X370500Y146500D01*
X407500D01*
X414750Y139250D01*
X455000Y134250D02*
X498250Y177500D01*
X342750Y149250D02*
X348750Y143250D01*
X342750Y149250D02*
Y157250D01*
X343000Y157500D01*
X134125Y120500D02*
X144625Y110000D01*
X145000D01*
X133750Y120500D02*
X134125D01*
X143918Y145418D02*
X145000Y146500D01*
X136918Y145418D02*
X143918D01*
X134000Y142500D02*
X136918Y145418D01*
X134000Y153750D02*
X145000Y164750D01*
X134000Y153500D02*
Y153750D01*
X145000Y164750D02*
Y165000D01*
X498250Y177500D02*
X511250D01*
X515000Y181250D01*
Y188000D01*
X522750Y173750D02*
X527500Y178500D01*
Y188000D01*
X402000Y97500D02*
X402250Y97250D01*
X408000D01*
X402000Y77500D02*
X410500D01*
X414750Y81750D01*
X402625Y118125D02*
Y126375D01*
X402000Y117500D02*
X402625Y118125D01*
Y126375D02*
X403250Y127000D01*
X367500Y27500D02*
X372250D01*
X374500Y25250D01*
Y17500D02*
Y25250D01*
X423000Y95000D02*
X423000Y95000D01*
X402000Y27750D02*
Y37500D01*
X395750Y137500D02*
X402000D01*
X402000Y137500D01*
X366700Y150300D02*
Y161450D01*
X414500Y6250D02*
X429800Y21550D01*
Y55000D01*
X384215Y66000D02*
X400500D01*
X382497Y64283D02*
X384215Y66000D01*
X367467Y64283D02*
X382497D01*
X355750Y76000D02*
X367467Y64283D01*
X359250Y84750D02*
X363250Y80750D01*
X402000Y57500D02*
Y64500D01*
X400500Y66000D02*
X402000Y64500D01*
X363250Y80750D02*
X369000D01*
X379967Y69783D01*
X380219D01*
X353649Y174500D02*
X366700Y161450D01*
X362750Y111250D02*
Y160450D01*
X355750Y76000D02*
Y157250D01*
X350750Y167500D02*
X359250Y159000D01*
Y84750D02*
Y159000D01*
X352200Y171000D02*
X362750Y160450D01*
X349000Y164000D02*
X355750Y157250D01*
X402000Y97500D02*
Y105000D01*
X366500Y107500D02*
X399500D01*
X402000Y105000D01*
X362750Y111250D02*
X366500Y107500D01*
X317401Y164000D02*
X349000D01*
X318851Y167500D02*
X350750D01*
X374500Y57500D02*
X388000D01*
X369500D02*
X374500D01*
X374500Y57500D01*
Y37500D02*
Y57500D01*
X358500Y52500D02*
X364500D01*
X369500Y57500D01*
X363750Y6250D02*
X414500D01*
X360500Y9500D02*
Y17500D01*
Y9500D02*
X363750Y6250D01*
X360500Y17500D02*
Y37500D01*
X379750Y17500D02*
X388000Y25750D01*
Y37500D01*
X374500Y17500D02*
X379750D01*
X388000Y77500D02*
Y85250D01*
X384750Y88500D02*
X388000Y85250D01*
X380000Y88500D02*
X384750D01*
X383500Y97500D02*
X388000D01*
X379750Y101250D02*
X383500Y97500D01*
X380000Y113750D02*
X383750Y117500D01*
X388000D01*
X386000Y126500D02*
X388000Y128500D01*
Y137500D01*
X380250Y126500D02*
X386000D01*
X332750Y15000D02*
Y47000D01*
X334000Y48250D01*
X338000D01*
X339500Y49750D01*
Y57500D01*
X339500Y57500D02*
X339500Y57500D01*
X333250Y57500D02*
X339500D01*
X339500Y19250D02*
Y37500D01*
X349750D02*
X350000D01*
X339500D02*
X349750D01*
X336500Y265250D02*
X420000D01*
X326750Y241750D02*
Y255500D01*
X336500Y265250D01*
X297500Y67500D02*
X337000D01*
X290000Y75000D02*
X297500Y67500D01*
X339500Y70000D02*
Y77500D01*
X337000Y67500D02*
X339500Y70000D01*
X270500Y225750D02*
X321750Y174500D01*
X263750Y225750D02*
X270500D01*
X273500Y217750D02*
X315250Y176000D01*
X272050Y214250D02*
X313800Y172500D01*
X271101Y210250D02*
X312351Y169000D01*
X246500Y210250D02*
X271101D01*
X260250Y217750D02*
X273500D01*
X312351Y169000D02*
X312401D01*
X313800Y172500D02*
X313851D01*
X253250Y214250D02*
X272050D01*
X315250Y176000D02*
X315300D01*
X321750Y174500D02*
X353649D01*
X312401Y169000D02*
X317401Y164000D01*
X320300Y171000D02*
X352200D01*
X313851Y172500D02*
X318851Y167500D01*
X315300Y176000D02*
X320300Y171000D01*
X321000Y148500D02*
X330250D01*
X332750Y146000D01*
Y139500D02*
Y146000D01*
Y139500D02*
X334750Y137500D01*
X339500D01*
X233500Y245000D02*
X240000Y251500D01*
X270750Y119500D02*
Y195300D01*
X215979Y206000D02*
X265000D01*
X274250Y139500D02*
Y196750D01*
X213080Y199000D02*
X262101D01*
X263550Y202500D02*
X270750Y195300D01*
X262101Y199000D02*
X267250Y193850D01*
Y117500D02*
Y193850D01*
X265000Y206000D02*
X274250Y196750D01*
X214529Y202500D02*
X263550D01*
X252250Y225750D02*
X260250Y217750D01*
X241750Y225750D02*
X253250Y214250D01*
X230500Y226250D02*
X246500Y210250D01*
X270750Y119500D02*
X282500Y107750D01*
X274250Y139500D02*
X279750Y134000D01*
X267250Y117500D02*
X297000Y87750D01*
X306500Y134000D02*
X321000Y148500D01*
X279750Y134000D02*
X306500D01*
X282500Y107750D02*
X338250D01*
X339500Y109000D01*
Y117500D01*
X297000Y87750D02*
X338000D01*
X204729Y217250D02*
X215979Y206000D01*
X338000Y87750D02*
X339500Y89250D01*
Y97500D01*
X219375Y214625D02*
X219500Y214500D01*
X219250Y225250D02*
X219375Y225125D01*
Y214625D02*
Y225125D01*
X197750Y210250D02*
X198000Y210000D01*
X202080D01*
X213080Y199000D01*
X186500Y202750D02*
X194000Y210250D01*
X197750D01*
X203279Y213750D02*
X214529Y202500D01*
X186250Y213750D02*
X203279D01*
X175500Y203000D02*
X186250Y213750D01*
X164500Y203250D02*
X178500Y217250D01*
X204729D01*
X313750Y37500D02*
X325500D01*
X325500Y57500D02*
X325500Y57500D01*
X319250Y57500D02*
X325500D01*
X319500Y77500D02*
X325500D01*
X325500Y97500D02*
X325500Y97500D01*
X319250Y97500D02*
X325500D01*
X317250Y113750D02*
X321000Y117500D01*
X325500D01*
X323250Y126250D02*
X325500Y128500D01*
Y137500D01*
X317250Y126250D02*
X323250D01*
X23234Y262975D02*
G03*
X27344Y264678I0J5812D01*
G01*
X28985Y266319D02*
G03*
X29050Y266475I-156J156D01*
G01*
X43121Y265597D02*
G03*
X41000Y266475I-2121J-2121D01*
G01*
X44000Y263475D02*
G03*
X43121Y265597I-3000J0D01*
G01*
X43543Y154801D02*
G03*
X44000Y155903I-1103J1103D01*
G01*
X41000Y153500D02*
G03*
X43121Y154379I0J3000D01*
G01*
X29050Y153500D02*
G03*
X28985Y153656I-221J0D01*
G01*
X27344Y155298D02*
G03*
X23234Y157000I-4110J-4110D01*
G01*
X0Y262975D02*
Y280000D01*
X44000Y263475D02*
X44000Y155903D01*
X0Y262975D02*
X23234D01*
X27344Y264678D02*
X28985Y266319D01*
X29050Y266475D02*
X41000D01*
X43121Y265597D02*
Y265597D01*
Y154379D02*
X43543Y154801D01*
X29050Y153500D02*
X41000D01*
X27344Y155298D02*
X28985Y153656D01*
X0Y157000D02*
X23234D01*
X0Y127250D02*
Y156975D01*
Y127250D02*
X30000D01*
Y77750D02*
Y127250D01*
X0Y77750D02*
X30000D01*
X0Y0D02*
Y77750D01*
Y280000D02*
X650000D01*
Y0D02*
Y280000D01*
X0Y0D02*
X650000D01*
D13*
X134250Y58500D02*
X138750Y63000D01*
X122500Y58000D02*
X123000Y58500D01*
X134250D01*
X138750Y63000D02*
X149500D01*
X152250Y65750D01*
Y76750D01*
X140250Y80750D02*
X148250D01*
X152250Y76750D01*
X106000Y115000D02*
X140250Y80750D01*
X58250Y58000D02*
X70000D01*
X57000Y59250D02*
Y62500D01*
Y59250D02*
X58250Y58000D01*
X70000Y50500D02*
Y58000D01*
Y24750D02*
Y50500D01*
X67000Y21750D02*
X70000Y24750D01*
X67000Y9757D02*
Y21750D01*
Y9757D02*
X73257Y3500D01*
X103750D01*
X108500Y8250D02*
Y29750D01*
X103750Y3500D02*
X108500Y8250D01*
X110750Y32000D02*
X122500D01*
X108500Y29750D02*
X110750Y32000D01*
X122500D02*
Y40500D01*
Y49500D02*
Y58000D01*
X116000Y49500D02*
X122500D01*
X106750Y50500D02*
X115000D01*
X116000Y49500D01*
X101250Y41500D02*
Y45000D01*
X106750Y50500D01*
X97750Y38000D02*
X101250Y41500D01*
X87500Y38000D02*
X97750D01*
X77500Y30500D02*
X85750Y22250D01*
X97000D01*
X77500Y30500D02*
Y46000D01*
X89500Y58000D02*
X105000D01*
X77500Y46000D02*
X89500Y58000D01*
X97000Y12000D02*
Y22250D01*
X78000Y12000D02*
X86250D01*
X401000Y188000D02*
X410000D01*
X397500Y184500D02*
X401000Y188000D01*
X390000Y184500D02*
X397500D01*
X460000Y87000D02*
X470250D01*
X410500Y69250D02*
X423000Y81750D01*
Y95000D01*
X432000Y95000D02*
Y101750D01*
X434500Y104250D01*
Y112500D01*
X485750Y198750D02*
Y241250D01*
X479500Y192500D02*
X485750Y198750D01*
X440000Y251000D02*
X476000D01*
X485750Y241250D01*
X479500Y186000D02*
Y192500D01*
X527500Y197000D02*
Y206500D01*
X532600Y211600D01*
X547700D01*
X510000Y223000D02*
X515000Y218000D01*
Y197000D02*
Y218000D01*
X510000Y223000D02*
Y250100D01*
X522300Y262400D01*
X472000Y225000D02*
X479500Y217500D01*
Y209000D02*
Y217500D01*
X447000Y225000D02*
X472000D01*
X155000Y263500D02*
X155757D01*
X158257Y266000D01*
X200000D01*
X134250Y131500D02*
X135062D01*
X137500Y129062D02*
X143438D01*
X135062Y131500D02*
X137500Y129062D01*
X143438D02*
X145000Y127500D01*
D16*
X254500Y175500D02*
D03*
X245500D02*
D03*
X254500Y164500D02*
D03*
X245500D02*
D03*
X432000Y95000D02*
D03*
X423000D02*
D03*
D17*
X252500Y110500D02*
D03*
Y119500D02*
D03*
X515000Y188000D02*
D03*
Y197000D02*
D03*
X527500Y188000D02*
D03*
Y197000D02*
D03*
X122500Y40500D02*
D03*
Y49500D02*
D03*
D19*
X255000Y149500D02*
D03*
Y135500D02*
D03*
X123000Y58500D02*
D03*
Y72500D02*
D03*
X70000Y58000D02*
D03*
Y72000D02*
D03*
X427500Y202000D02*
D03*
Y188000D02*
D03*
X252500Y99500D02*
D03*
Y85500D02*
D03*
X410000Y188000D02*
D03*
Y202000D02*
D03*
X122500Y18000D02*
D03*
Y32000D02*
D03*
X237500Y149500D02*
D03*
Y135500D02*
D03*
X105000Y58000D02*
D03*
Y72000D02*
D03*
X445000Y202000D02*
D03*
Y188000D02*
D03*
D20*
X82500Y216250D02*
D03*
Y228750D02*
D03*
Y203750D02*
D03*
Y191250D02*
D03*
D22*
X129500Y237500D02*
D03*
X115500D02*
D03*
X402000Y57500D02*
D03*
X388000D02*
D03*
X402000Y37500D02*
D03*
X388000D02*
D03*
X374500Y17500D02*
D03*
X360500D02*
D03*
X374500Y37500D02*
D03*
X360500D02*
D03*
X434500Y112500D02*
D03*
X420500D02*
D03*
X50500Y147500D02*
D03*
X64500D02*
D03*
X57000Y62500D02*
D03*
X43000D02*
D03*
X325500Y137500D02*
D03*
X339500D02*
D03*
X325500Y117500D02*
D03*
X339500D02*
D03*
X325500Y97500D02*
D03*
X339500D02*
D03*
X325500Y77500D02*
D03*
X339500D02*
D03*
X325500Y57500D02*
D03*
X339500D02*
D03*
X325500Y37500D02*
D03*
X339500D02*
D03*
X402000Y137500D02*
D03*
X388000D02*
D03*
X402000Y117500D02*
D03*
X388000D02*
D03*
X402000Y97500D02*
D03*
X388000D02*
D03*
X402000Y77500D02*
D03*
X388000D02*
D03*
X447000Y225000D02*
D03*
X433000D02*
D03*
D33*
X450500Y113000D02*
D03*
X469500D02*
D03*
X460000Y87000D02*
D03*
X97000Y12000D02*
D03*
X78000D02*
D03*
X87500Y38000D02*
D03*
D38*
X354800Y225000D02*
D03*
X294800D02*
D03*
X455200Y55000D02*
D03*
X429800Y162500D02*
D03*
D39*
X380200Y225000D02*
D03*
X320200D02*
D03*
X429800Y55000D02*
D03*
X455200Y162500D02*
D03*
D40*
X471500Y237000D02*
D03*
X573100D02*
D03*
X547700D02*
D03*
X522300D02*
D03*
X496900D02*
D03*
Y43000D02*
D03*
X598500D02*
D03*
X573100D02*
D03*
X547700D02*
D03*
X522300D02*
D03*
D41*
X471500Y262400D02*
D03*
X522300D02*
D03*
X496900Y211600D02*
D03*
X547700D02*
D03*
X496900Y68400D02*
D03*
X547700D02*
D03*
X522300Y17600D02*
D03*
X573100D02*
D03*
D42*
Y262400D02*
D03*
X598500Y68400D02*
D03*
D43*
X601000Y122500D02*
D03*
D44*
Y157500D02*
D03*
D45*
X53100Y253250D02*
D03*
X53100Y166750D02*
D03*
D46*
X58099Y258749D02*
D03*
X17500Y270000D02*
D03*
Y150000D02*
D03*
X58100Y161250D02*
D03*
D47*
X35000Y25000D02*
D03*
X615000Y255000D02*
D03*
D48*
X52500Y52000D02*
X62750Y41750D01*
X46500Y52000D02*
X52500D01*
X43000Y55500D02*
X46500Y52000D01*
X43000Y55500D02*
Y62500D01*
D50*
X139750Y237500D02*
X156750Y254500D01*
X178990D01*
X182490Y258000D01*
X82500Y191250D02*
X89500D01*
X79730Y239979D02*
Y240250D01*
X82500Y228750D02*
Y237209D01*
X79730Y239979D02*
X82500Y237209D01*
X108750Y225000D02*
X116250D01*
X115500Y237500D02*
X115625Y237375D01*
X121375D01*
X121500Y237250D01*
X129250Y225500D02*
Y237250D01*
X128750Y225000D02*
X129250Y225500D01*
Y237250D02*
X129500Y237500D01*
X139750D01*
X50500Y145250D02*
Y147500D01*
Y144250D02*
Y145250D01*
X47691Y141441D02*
X50500Y144250D01*
X44500Y141250D02*
X44691Y141441D01*
X47691D01*
X50250Y145000D02*
X50500Y145250D01*
X115500Y237500D02*
Y240521D01*
X115750Y240771D01*
X182490Y258000D02*
X209500D01*
X222500D01*
X227000Y262500D01*
X313250D02*
X325250Y274500D01*
X227000Y262500D02*
X313250D01*
X410000Y202000D02*
Y230500D01*
X325250Y274500D02*
X424500D01*
X410000Y230500D02*
X429500Y250000D01*
Y258250D01*
X424500Y274500D02*
X429500Y269500D01*
Y258250D02*
Y269500D01*
X252500Y99500D02*
X260479D01*
X261229Y98750D01*
X261500D01*
X252500Y99500D02*
Y110500D01*
X122500Y11750D02*
Y18000D01*
X368250Y183500D02*
Y195500D01*
X449750Y144250D02*
X455200Y149700D01*
Y162500D01*
X417750Y144250D02*
X449750D01*
X389000Y173000D02*
X417750Y144250D01*
X378750Y173000D02*
X389000D01*
X368250Y183500D02*
X378750Y173000D01*
X368250Y195500D02*
X400250D01*
X337500D02*
X368250D01*
X324500Y182500D02*
X337500Y195500D01*
X406750Y202000D02*
X410000D01*
X400250Y195500D02*
X406750Y202000D01*
X322000Y157500D02*
X322064Y157564D01*
X330058D02*
X330122Y157628D01*
X322064Y157564D02*
X330058D01*
X240230Y83500D02*
X240500D01*
X242500Y85500D02*
X252500D01*
X240500Y83500D02*
X242500Y85500D01*
X434500Y112750D02*
X434750Y113000D01*
X450500D01*
X434500Y112500D02*
Y112750D01*
X450500Y113000D02*
X469500D01*
X481000D01*
X485000Y109000D01*
Y98750D02*
Y109000D01*
Y98750D02*
X488750Y95000D01*
X500000D01*
X123000Y72500D02*
X135229D01*
X135729Y72000D02*
X136000D01*
X135229Y72500D02*
X135729Y72000D01*
X394750Y216000D02*
Y233000D01*
X400250Y238500D01*
Y250000D01*
X237500Y149500D02*
X255000D01*
X255250Y149750D02*
X259000D01*
X255000Y149500D02*
X255250Y149750D01*
X261616Y152366D02*
Y155409D01*
X259000Y149750D02*
X261616Y152366D01*
X237500Y135500D02*
X255000D01*
X390000Y211250D02*
X394750Y216000D01*
X390000Y205500D02*
Y211250D01*
X427500Y181750D02*
Y188000D01*
X420500Y120196D02*
Y122770D01*
X420500Y120196D02*
X420500Y120196D01*
X420500Y112500D02*
Y120196D01*
X237228Y115000D02*
X241428D01*
X245929Y119500D01*
X252500D01*
X227230Y135500D02*
X229804D01*
X229804Y135500D01*
X237500D01*
X515000Y78230D02*
Y80804D01*
X515000Y80804D02*
X515000Y80804D01*
X515000Y80804D02*
Y95000D01*
X77696Y72000D02*
X80270D01*
X77696Y72000D02*
X77696Y72000D01*
X70000Y72000D02*
X77696D01*
X94730Y72000D02*
X97304D01*
X97304Y72000D01*
X105000D01*
X470000Y176980D02*
Y179554D01*
X470000Y179554D02*
X470000Y179554D01*
X470000Y179554D02*
Y186000D01*
X433000Y232696D02*
Y235270D01*
X433000Y232696D02*
X433000Y232696D01*
X433000Y225000D02*
Y232696D01*
D52*
X173310Y245110D02*
D03*
X209050Y232160D02*
D03*
X197070Y226370D02*
D03*
X76250Y212250D02*
D03*
X76099Y204751D02*
D03*
X70250Y218250D02*
D03*
X93750Y225000D02*
D03*
X62750Y41750D02*
D03*
X97500Y97500D02*
D03*
Y105250D02*
D03*
Y128000D02*
D03*
Y135000D02*
D03*
X96750Y148500D02*
D03*
X96500Y155250D02*
D03*
X99000Y161500D02*
D03*
X104750Y165250D02*
D03*
X111750Y163500D02*
D03*
X104500Y185750D02*
D03*
X89500Y191250D02*
D03*
X108750Y225000D02*
D03*
X121500Y237250D02*
D03*
X44500Y141250D02*
D03*
X58250Y147500D02*
D03*
X261250Y173750D02*
D03*
Y166250D02*
D03*
X209500Y258000D02*
D03*
X429500Y258250D02*
D03*
X621000Y221000D02*
D03*
Y196000D02*
D03*
Y171000D02*
D03*
Y146000D02*
D03*
Y121000D02*
D03*
Y96000D02*
D03*
Y71000D02*
D03*
Y46000D02*
D03*
Y21000D02*
D03*
X596000Y221000D02*
D03*
Y196000D02*
D03*
Y96000D02*
D03*
Y21000D02*
D03*
X571000Y221000D02*
D03*
Y196000D02*
D03*
Y121000D02*
D03*
Y96000D02*
D03*
Y71000D02*
D03*
X546000Y196000D02*
D03*
Y121000D02*
D03*
Y96000D02*
D03*
Y21000D02*
D03*
X521000Y221000D02*
D03*
Y71000D02*
D03*
X496000Y21000D02*
D03*
X471000Y71000D02*
D03*
Y46000D02*
D03*
Y21000D02*
D03*
X446000Y96000D02*
D03*
Y21000D02*
D03*
X421000Y221000D02*
D03*
X371000Y246000D02*
D03*
X296000D02*
D03*
Y46000D02*
D03*
X271000Y246000D02*
D03*
X246000D02*
D03*
X196000Y96000D02*
D03*
Y71000D02*
D03*
X121000Y196000D02*
D03*
X21000Y71000D02*
D03*
X111750Y185750D02*
D03*
X97500Y184750D02*
D03*
X91250Y182000D02*
D03*
X86367Y178202D02*
D03*
X81936Y172782D02*
D03*
X78651Y166601D02*
D03*
X76588Y159912D02*
D03*
X75850Y152951D02*
D03*
X75500Y146000D02*
D03*
X74500Y139000D02*
D03*
Y131750D02*
D03*
Y125000D02*
D03*
Y118000D02*
D03*
X71020Y112358D02*
D03*
X65627Y116821D02*
D03*
X58645Y117319D02*
D03*
X51645D02*
D03*
X44645D02*
D03*
X37645D02*
D03*
X40962Y87681D02*
D03*
X47962D02*
D03*
X54962D02*
D03*
X61962D02*
D03*
X68750Y87500D02*
D03*
X74750Y92000D02*
D03*
X93750Y90250D02*
D03*
X36000Y141250D02*
D03*
X66500Y130500D02*
D03*
X71250Y178500D02*
D03*
X106000Y115000D02*
D03*
X480000Y137500D02*
D03*
X490000D02*
D03*
Y145000D02*
D03*
Y152500D02*
D03*
X220000Y250750D02*
D03*
X261500Y98750D02*
D03*
X260750Y109500D02*
D03*
X122500Y11750D02*
D03*
X380750Y183500D02*
D03*
X324500Y182500D02*
D03*
X330122Y157628D02*
D03*
X348750Y143250D02*
D03*
X70000Y50500D02*
D03*
X97000Y22250D02*
D03*
X86250Y12000D02*
D03*
X133750Y120500D02*
D03*
X134000Y142500D02*
D03*
X155750Y167500D02*
D03*
X134000Y153500D02*
D03*
X432000Y125000D02*
D03*
X408000Y97250D02*
D03*
X403250Y127000D02*
D03*
X470250Y87000D02*
D03*
X410500Y69250D02*
D03*
X367500Y27500D02*
D03*
X402000Y27750D02*
D03*
X395750Y137500D02*
D03*
X383250Y153250D02*
D03*
X136000Y72000D02*
D03*
X440000Y251000D02*
D03*
X577500Y126500D02*
D03*
X380219Y69783D02*
D03*
X358500Y52500D02*
D03*
X380000Y88500D02*
D03*
X379750Y101250D02*
D03*
X380000Y113750D02*
D03*
X380250Y126500D02*
D03*
X332750Y15000D02*
D03*
X333250Y57500D02*
D03*
X339500Y19250D02*
D03*
X349750Y37500D02*
D03*
X326750Y241750D02*
D03*
X290000Y75000D02*
D03*
X420000Y265250D02*
D03*
X380000Y251000D02*
D03*
X400250Y250000D02*
D03*
X260750Y189000D02*
D03*
X240000Y251500D02*
D03*
X263750Y225750D02*
D03*
X252250D02*
D03*
X241750D02*
D03*
X230500Y226250D02*
D03*
X261616Y155409D02*
D03*
X219250Y225250D02*
D03*
X186500Y202750D02*
D03*
X175500Y203000D02*
D03*
X200000Y266000D02*
D03*
X155000Y263500D02*
D03*
X114500Y267250D02*
D03*
X130500Y267500D02*
D03*
X71250Y190750D02*
D03*
Y228750D02*
D03*
X164500Y203250D02*
D03*
X313750Y37500D02*
D03*
X319250Y57500D02*
D03*
X319500Y77500D02*
D03*
X319250Y97500D02*
D03*
X317250Y113750D02*
D03*
Y126250D02*
D03*
X550000Y127750D02*
D03*
X427500Y181750D02*
D03*
X283000Y142000D02*
D03*
X134250Y131500D02*
D03*
X26250Y61750D02*
D03*
X12000Y61500D02*
D03*
X197500Y203000D02*
D03*
X155000Y241750D02*
D03*
X292000Y163500D02*
D03*
X134000Y164500D02*
D03*
X70000Y243250D02*
D03*
X420500Y122770D02*
D03*
X237228Y115000D02*
D03*
X227230Y135500D02*
D03*
X515000Y78230D02*
D03*
X80270Y72000D02*
D03*
X94730D02*
D03*
X470000Y176980D02*
D03*
X433000Y235270D02*
D03*
X79730Y240250D02*
D03*
X380770Y163750D02*
D03*
X530270Y115500D02*
D03*
X510270D02*
D03*
X86000Y81480D02*
D03*
X550000Y152770D02*
D03*
X291730Y176250D02*
D03*
X134770Y186500D02*
D03*
X111230Y65500D02*
D03*
Y43500D02*
D03*
X283770Y87500D02*
D03*
X145000Y178730D02*
D03*
X166000D02*
D03*
X187000D02*
D03*
X208000D02*
D03*
X240230Y188500D02*
D03*
X208000Y157730D02*
D03*
X187000D02*
D03*
X166000D02*
D03*
Y136730D02*
D03*
X187000D02*
D03*
X208000D02*
D03*
X219230Y146500D02*
D03*
X240230Y125500D02*
D03*
X219230D02*
D03*
X196770D02*
D03*
X175770D02*
D03*
X154770Y104500D02*
D03*
X166000Y114270D02*
D03*
X187000D02*
D03*
X208000D02*
D03*
X229000D02*
D03*
X240230Y104500D02*
D03*
Y83500D02*
D03*
X229000Y93270D02*
D03*
X208000D02*
D03*
X187000D02*
D03*
X166000D02*
D03*
X145000D02*
D03*
Y72270D02*
D03*
X166000D02*
D03*
X187000D02*
D03*
X208000D02*
D03*
X229000D02*
D03*
X250000D02*
D03*
Y51270D02*
D03*
X229000D02*
D03*
X208000D02*
D03*
X187000D02*
D03*
X166000D02*
D03*
X145000D02*
D03*
D53*
X116250Y225000D02*
D03*
X128750D02*
D03*
D54*
X390000Y184500D02*
D03*
Y205500D02*
D03*
D55*
X322000Y157500D02*
D03*
X343000D02*
D03*
D56*
X145000Y110000D02*
D03*
Y127500D02*
D03*
X145000Y146500D02*
D03*
X145000Y165000D02*
D03*
X219500Y214500D02*
D03*
X225000Y160000D02*
D03*
Y180000D02*
D03*
D57*
X479500Y186000D02*
D03*
X470000D02*
D03*
X460500D02*
D03*
X479500Y209000D02*
D03*
X460500D02*
D03*
D58*
X500000Y95000D02*
D03*
X515000D02*
D03*
M02*
