G04*
G04 #@! TF.GenerationSoftware,Altium Limited,Altium Designer,21.9.2 (33)*
G04*
G04 Layer_Color=2752767*
%FSLAX44Y44*%
%MOMM*%
G71*
G04*
G04 #@! TF.SameCoordinates,5C5C66F8-9FC8-4E62-95D0-8360453F7E55*
G04*
G04*
G04 #@! TF.FilePolarity,Positive*
G04*
G01*
G75*
%ADD10C,0.2000*%
%ADD12C,0.2540*%
%ADD62C,0.0508*%
%ADD63C,0.3810*%
%ADD64C,0.4064*%
%ADD65C,0.3556*%
D10*
X23234Y262975D02*
G03*
X27344Y264678I0J5812D01*
G01*
X28985Y266319D02*
G03*
X29050Y266475I-156J156D01*
G01*
X43121Y265597D02*
G03*
X41000Y266475I-2121J-2121D01*
G01*
X44000Y263475D02*
G03*
X43121Y265597I-3000J0D01*
G01*
X43543Y154801D02*
G03*
X44000Y155903I-1103J1103D01*
G01*
X41000Y153500D02*
G03*
X43121Y154379I0J3000D01*
G01*
X29050Y153500D02*
G03*
X28985Y153656I-221J0D01*
G01*
X27344Y155298D02*
G03*
X23234Y157000I-4110J-4110D01*
G01*
X0Y262975D02*
Y280000D01*
X44000Y263475D02*
X44000Y155903D01*
X0Y262975D02*
X23234D01*
X27344Y264678D02*
X28985Y266319D01*
X29050Y266475D02*
X41000D01*
X43121Y265597D02*
Y265597D01*
Y154379D02*
X43543Y154801D01*
X29050Y153500D02*
X41000D01*
X27344Y155298D02*
X28985Y153656D01*
X0Y157000D02*
X23234D01*
X0Y127250D02*
Y156975D01*
Y127250D02*
X30000D01*
Y77750D02*
Y127250D01*
X0Y77750D02*
X30000D01*
X0Y0D02*
Y77750D01*
Y280000D02*
X650000D01*
Y0D02*
Y280000D01*
X0Y0D02*
X650000D01*
D12*
X14578Y639587D02*
G03*
X14578Y639587I-8467J0D01*
G01*
X-2355Y677687D02*
X6111Y669220D01*
X14578Y677687D01*
X6111Y686153D02*
X14578Y677687D01*
X-2355D02*
X6111Y686153D01*
Y593020D02*
X14578Y609953D01*
X-2355D02*
X14578D01*
X-2355D02*
X6111Y593020D01*
X1878Y559153D02*
X6111Y554920D01*
X-2355Y559153D02*
X1878D01*
X-2355D02*
X1878Y563387D01*
X-2355Y567620D02*
X1878Y563387D01*
X-2355Y567620D02*
X1878D01*
X6111Y571853D01*
X10345Y567620D01*
X14578D01*
X10345Y563387D02*
X14578Y567620D01*
X10345Y563387D02*
X14578Y559153D01*
X10345D02*
X14578D01*
X6111Y554920D02*
X10345Y559153D01*
X-2355Y516820D02*
X14578D01*
Y533753D01*
X-2355D02*
X14578D01*
X-2355Y516820D02*
Y533753D01*
Y478720D02*
Y482953D01*
X1878Y487187D01*
X-2355Y491420D02*
X1878Y487187D01*
X-2355Y491420D02*
Y495653D01*
X1878D01*
X6111Y491420D01*
X10345Y495653D01*
X14578D01*
Y491420D02*
Y495653D01*
X10345Y487187D02*
X14578Y491420D01*
X10345Y487187D02*
X14578Y482953D01*
Y478720D02*
Y482953D01*
X10345Y478720D02*
X14578D01*
X6111Y482953D02*
X10345Y478720D01*
X1878D02*
X6111Y482953D01*
X-2355Y478720D02*
X1878D01*
X-2355Y444853D02*
X1878D01*
X-2355D02*
Y453320D01*
X1878D01*
Y457553D01*
X10345D01*
Y453320D02*
Y457553D01*
Y453320D02*
X14578D01*
Y444853D02*
Y453320D01*
X10345Y444853D02*
X14578D01*
X10345Y440620D02*
Y444853D01*
X1878Y440620D02*
X10345D01*
X1878D02*
Y444853D01*
X-2355Y402520D02*
X6111Y406753D01*
X14578Y402520D01*
X10345Y410987D02*
X14578Y402520D01*
X10345Y410987D02*
X14578Y419453D01*
X6111Y415220D02*
X14578Y419453D01*
X-2355D02*
X6111Y415220D01*
X-2355Y419453D02*
X1878Y410987D01*
X-2355Y402520D02*
X1878Y410987D01*
X895602Y676837D02*
X905758D01*
X895602Y631120D02*
X900680D01*
X898141D01*
Y646355D01*
X895602Y643816D01*
X910837Y628581D02*
X913376Y631120D01*
Y633659D01*
X910837D01*
Y631120D01*
X913376D01*
X910837Y628581D01*
X908298Y626042D01*
X931150Y631120D02*
Y646355D01*
X923533Y638737D01*
X933689D01*
X938768Y643816D02*
X941307Y646355D01*
X946385D01*
X948924Y643816D01*
Y633659D01*
X946385Y631120D01*
X941307D01*
X938768Y633659D01*
Y643816D01*
X954003D02*
X956542Y646355D01*
X961620D01*
X964159Y643816D01*
Y633659D01*
X961620Y631120D01*
X956542D01*
X954003Y633659D01*
Y643816D01*
X969238Y631120D02*
Y641277D01*
X971777D01*
X974316Y638737D01*
Y631120D01*
Y638737D01*
X976855Y641277D01*
X979395Y638737D01*
Y631120D01*
X984473D02*
Y641277D01*
X987012D01*
X989551Y638737D01*
Y631120D01*
Y638737D01*
X992090Y641277D01*
X994630Y638737D01*
Y631120D01*
X1020021D02*
X1014943Y636198D01*
Y641277D01*
X1020021Y646355D01*
X1037796D02*
X1027639D01*
Y638737D01*
X1032717Y641277D01*
X1035256D01*
X1037796Y638737D01*
Y633659D01*
X1035256Y631120D01*
X1030178D01*
X1027639Y633659D01*
X1053031Y646355D02*
X1042874D01*
Y638737D01*
X1047952Y641277D01*
X1050491D01*
X1053031Y638737D01*
Y633659D01*
X1050491Y631120D01*
X1045413D01*
X1042874Y633659D01*
X1060648Y628581D02*
X1063187Y631120D01*
Y633659D01*
X1060648D01*
Y631120D01*
X1063187D01*
X1060648Y628581D01*
X1058109Y626042D01*
X1073344Y631120D02*
X1078422D01*
X1075883D01*
Y646355D01*
X1073344Y643816D01*
X1096197Y631120D02*
X1086040D01*
X1096197Y641277D01*
Y643816D01*
X1093658Y646355D01*
X1088579D01*
X1086040Y643816D01*
X1101275Y631120D02*
Y641277D01*
X1103814D01*
X1106353Y638737D01*
Y631120D01*
Y638737D01*
X1108893Y641277D01*
X1111432Y638737D01*
Y631120D01*
X1116510D02*
X1121589D01*
X1119049D01*
Y641277D01*
X1116510D01*
X1129206Y631120D02*
X1134284D01*
X1131745D01*
Y646355D01*
X1129206D01*
X1141902Y631120D02*
X1146980Y636198D01*
Y641277D01*
X1141902Y646355D01*
X895602Y593020D02*
X900680D01*
X898141D01*
Y608255D01*
X895602Y605716D01*
X910837Y590481D02*
X913376Y593020D01*
Y595559D01*
X910837D01*
Y593020D01*
X913376D01*
X910837Y590481D01*
X908298Y587942D01*
X933689Y608255D02*
X923533D01*
Y600638D01*
X928611Y603177D01*
X931150D01*
X933689Y600638D01*
Y595559D01*
X931150Y593020D01*
X926072D01*
X923533Y595559D01*
X938768Y605716D02*
X941307Y608255D01*
X946385D01*
X948924Y605716D01*
Y595559D01*
X946385Y593020D01*
X941307D01*
X938768Y595559D01*
Y605716D01*
X954003D02*
X956542Y608255D01*
X961620D01*
X964159Y605716D01*
Y595559D01*
X961620Y593020D01*
X956542D01*
X954003Y595559D01*
Y605716D01*
X969238Y593020D02*
Y603177D01*
X971777D01*
X974316Y600638D01*
Y593020D01*
Y600638D01*
X976855Y603177D01*
X979395Y600638D01*
Y593020D01*
X984473D02*
Y603177D01*
X987012D01*
X989551Y600638D01*
Y593020D01*
Y600638D01*
X992090Y603177D01*
X994630Y600638D01*
Y593020D01*
X1020021D02*
X1014943Y598098D01*
Y603177D01*
X1020021Y608255D01*
X1037796D02*
X1027639D01*
Y600638D01*
X1032717Y603177D01*
X1035256D01*
X1037796Y600638D01*
Y595559D01*
X1035256Y593020D01*
X1030178D01*
X1027639Y595559D01*
X1042874D02*
X1045413Y593020D01*
X1050491D01*
X1053031Y595559D01*
Y605716D01*
X1050491Y608255D01*
X1045413D01*
X1042874Y605716D01*
Y603177D01*
X1045413Y600638D01*
X1053031D01*
X1060648Y590481D02*
X1063187Y593020D01*
Y595559D01*
X1060648D01*
Y593020D01*
X1063187D01*
X1060648Y590481D01*
X1058109Y587942D01*
X1073344Y605716D02*
X1075883Y608255D01*
X1080962D01*
X1083501Y605716D01*
Y595559D01*
X1080962Y593020D01*
X1075883D01*
X1073344Y595559D01*
Y605716D01*
X1098736Y608255D02*
X1093658Y605716D01*
X1088579Y600638D01*
Y595559D01*
X1091118Y593020D01*
X1096197D01*
X1098736Y595559D01*
Y598098D01*
X1096197Y600638D01*
X1088579D01*
X1103814Y593020D02*
Y603177D01*
X1106353D01*
X1108893Y600638D01*
Y593020D01*
Y600638D01*
X1111432Y603177D01*
X1113971Y600638D01*
Y593020D01*
X1119049D02*
X1124128D01*
X1121589D01*
Y603177D01*
X1119049D01*
X1131745Y593020D02*
X1136824D01*
X1134284D01*
Y608255D01*
X1131745D01*
X1144441Y593020D02*
X1149519Y598098D01*
Y603177D01*
X1144441Y608255D01*
X895602Y554920D02*
X900680D01*
X898141D01*
Y570155D01*
X895602Y567616D01*
X910837Y552381D02*
X913376Y554920D01*
Y557459D01*
X910837D01*
Y554920D01*
X913376D01*
X910837Y552381D01*
X908298Y549842D01*
X933689Y570155D02*
X928611Y567616D01*
X923533Y562537D01*
Y557459D01*
X926072Y554920D01*
X931150D01*
X933689Y557459D01*
Y559998D01*
X931150Y562537D01*
X923533D01*
X938768Y567616D02*
X941307Y570155D01*
X946385D01*
X948924Y567616D01*
Y557459D01*
X946385Y554920D01*
X941307D01*
X938768Y557459D01*
Y567616D01*
X954003D02*
X956542Y570155D01*
X961620D01*
X964159Y567616D01*
Y557459D01*
X961620Y554920D01*
X956542D01*
X954003Y557459D01*
Y567616D01*
X969238Y554920D02*
Y565077D01*
X971777D01*
X974316Y562537D01*
Y554920D01*
Y562537D01*
X976855Y565077D01*
X979395Y562537D01*
Y554920D01*
X984473D02*
Y565077D01*
X987012D01*
X989551Y562537D01*
Y554920D01*
Y562537D01*
X992090Y565077D01*
X994630Y562537D01*
Y554920D01*
X1020021D02*
X1014943Y559998D01*
Y565077D01*
X1020021Y570155D01*
X1037796D02*
X1032717Y567616D01*
X1027639Y562537D01*
Y557459D01*
X1030178Y554920D01*
X1035256D01*
X1037796Y557459D01*
Y559998D01*
X1035256Y562537D01*
X1027639D01*
X1053031Y554920D02*
X1042874D01*
X1053031Y565077D01*
Y567616D01*
X1050491Y570155D01*
X1045413D01*
X1042874Y567616D01*
X1060648Y552381D02*
X1063187Y554920D01*
Y557459D01*
X1060648D01*
Y554920D01*
X1063187D01*
X1060648Y552381D01*
X1058109Y549842D01*
X1073344Y557459D02*
X1075883Y554920D01*
X1080962D01*
X1083501Y557459D01*
Y567616D01*
X1080962Y570155D01*
X1075883D01*
X1073344Y567616D01*
Y565077D01*
X1075883Y562537D01*
X1083501D01*
X1088579Y557459D02*
X1091118Y554920D01*
X1096197D01*
X1098736Y557459D01*
Y567616D01*
X1096197Y570155D01*
X1091118D01*
X1088579Y567616D01*
Y565077D01*
X1091118Y562537D01*
X1098736D01*
X1103814Y554920D02*
Y565077D01*
X1106353D01*
X1108893Y562537D01*
Y554920D01*
Y562537D01*
X1111432Y565077D01*
X1113971Y562537D01*
Y554920D01*
X1119049D02*
X1124128D01*
X1121589D01*
Y565077D01*
X1119049D01*
X1131745Y554920D02*
X1136824D01*
X1134284D01*
Y570155D01*
X1131745D01*
X1144441Y554920D02*
X1149519Y559998D01*
Y565077D01*
X1144441Y570155D01*
X895602Y524437D02*
X905758D01*
X895602Y486338D02*
X905758D01*
X895602Y448237D02*
X905758D01*
X895602Y410137D02*
X905758D01*
X709216Y669220D02*
Y684455D01*
X716833D01*
X719373Y681916D01*
Y676837D01*
X716833Y674298D01*
X709216D01*
X714294D02*
X719373Y669220D01*
X726990D02*
X732068D01*
X734608Y671759D01*
Y676837D01*
X732068Y679377D01*
X726990D01*
X724451Y676837D01*
Y671759D01*
X726990Y669220D01*
X739686Y679377D02*
Y671759D01*
X742225Y669220D01*
X749843D01*
Y679377D01*
X754921Y669220D02*
Y679377D01*
X762539D01*
X765078Y676837D01*
Y669220D01*
X780313Y684455D02*
Y669220D01*
X772695D01*
X770156Y671759D01*
Y676837D01*
X772695Y679377D01*
X780313D01*
X719373Y643816D02*
X716833Y646355D01*
X711755D01*
X709216Y643816D01*
Y641277D01*
X711755Y638737D01*
X716833D01*
X719373Y636198D01*
Y633659D01*
X716833Y631120D01*
X711755D01*
X709216Y633659D01*
X724451Y631120D02*
X729529D01*
X726990D01*
Y646355D01*
X724451D01*
X739686Y631120D02*
X744764D01*
X747304Y633659D01*
Y638737D01*
X744764Y641277D01*
X739686D01*
X737147Y638737D01*
Y633659D01*
X739686Y631120D01*
X754921Y643816D02*
Y641277D01*
X752382D01*
X757460D01*
X754921D01*
Y633659D01*
X757460Y631120D01*
X719373Y605716D02*
X716833Y608255D01*
X711755D01*
X709216Y605716D01*
Y603177D01*
X711755Y600638D01*
X716833D01*
X719373Y598098D01*
Y595559D01*
X716833Y593020D01*
X711755D01*
X709216Y595559D01*
X724451Y593020D02*
X729529D01*
X726990D01*
Y608255D01*
X724451D01*
X739686Y593020D02*
X744764D01*
X747304Y595559D01*
Y600638D01*
X744764Y603177D01*
X739686D01*
X737147Y600638D01*
Y595559D01*
X739686Y593020D01*
X754921Y605716D02*
Y603177D01*
X752382D01*
X757460D01*
X754921D01*
Y595559D01*
X757460Y593020D01*
X719373Y567616D02*
X716833Y570155D01*
X711755D01*
X709216Y567616D01*
Y565077D01*
X711755Y562537D01*
X716833D01*
X719373Y559998D01*
Y557459D01*
X716833Y554920D01*
X711755D01*
X709216Y557459D01*
X724451Y554920D02*
X729529D01*
X726990D01*
Y570155D01*
X724451D01*
X739686Y554920D02*
X744764D01*
X747304Y557459D01*
Y562537D01*
X744764Y565077D01*
X739686D01*
X737147Y562537D01*
Y557459D01*
X739686Y554920D01*
X754921Y567616D02*
Y565077D01*
X752382D01*
X757460D01*
X754921D01*
Y557459D01*
X757460Y554920D01*
X709216Y516820D02*
Y532055D01*
X716833D01*
X719373Y529516D01*
Y524437D01*
X716833Y521898D01*
X709216D01*
X714294D02*
X719373Y516820D01*
X726990D02*
X732068D01*
X734608Y519359D01*
Y524437D01*
X732068Y526977D01*
X726990D01*
X724451Y524437D01*
Y519359D01*
X726990Y516820D01*
X739686Y526977D02*
Y519359D01*
X742225Y516820D01*
X749843D01*
Y526977D01*
X754921Y516820D02*
Y526977D01*
X762539D01*
X765078Y524437D01*
Y516820D01*
X780313Y532055D02*
Y516820D01*
X772695D01*
X770156Y519359D01*
Y524437D01*
X772695Y526977D01*
X780313D01*
X709216Y478720D02*
Y493955D01*
X716833D01*
X719373Y491416D01*
Y486338D01*
X716833Y483798D01*
X709216D01*
X714294D02*
X719373Y478720D01*
X726990D02*
X732068D01*
X734608Y481259D01*
Y486338D01*
X732068Y488877D01*
X726990D01*
X724451Y486338D01*
Y481259D01*
X726990Y478720D01*
X739686Y488877D02*
Y481259D01*
X742225Y478720D01*
X749843D01*
Y488877D01*
X754921Y478720D02*
Y488877D01*
X762539D01*
X765078Y486338D01*
Y478720D01*
X780313Y493955D02*
Y478720D01*
X772695D01*
X770156Y481259D01*
Y486338D01*
X772695Y488877D01*
X780313D01*
X709216Y440620D02*
Y455855D01*
X716833D01*
X719373Y453316D01*
Y448237D01*
X716833Y445698D01*
X709216D01*
X714294D02*
X719373Y440620D01*
X726990D02*
X732068D01*
X734608Y443159D01*
Y448237D01*
X732068Y450777D01*
X726990D01*
X724451Y448237D01*
Y443159D01*
X726990Y440620D01*
X739686Y450777D02*
Y443159D01*
X742225Y440620D01*
X749843D01*
Y450777D01*
X754921Y440620D02*
Y450777D01*
X762539D01*
X765078Y448237D01*
Y440620D01*
X780313Y455855D02*
Y440620D01*
X772695D01*
X770156Y443159D01*
Y448237D01*
X772695Y450777D01*
X780313D01*
X709216Y402520D02*
Y417755D01*
X716833D01*
X719373Y415216D01*
Y410137D01*
X716833Y407598D01*
X709216D01*
X714294D02*
X719373Y402520D01*
X726990D02*
X732068D01*
X734608Y405059D01*
Y410137D01*
X732068Y412677D01*
X726990D01*
X724451Y410137D01*
Y405059D01*
X726990Y402520D01*
X739686Y412677D02*
Y405059D01*
X742225Y402520D01*
X749843D01*
Y412677D01*
X754921Y402520D02*
Y412677D01*
X762539D01*
X765078Y410137D01*
Y402520D01*
X780313Y417755D02*
Y402520D01*
X772695D01*
X770156Y405059D01*
Y410137D01*
X772695Y412677D01*
X780313D01*
X580723Y669220D02*
Y684455D01*
X588341D01*
X590880Y681916D01*
Y676837D01*
X588341Y674298D01*
X580723D01*
X595959Y684455D02*
X606115D01*
X601037D01*
Y669220D01*
X611194Y684455D02*
Y669220D01*
Y676837D01*
X621350D01*
Y684455D01*
Y669220D01*
X580723Y631120D02*
Y646355D01*
X588341D01*
X590880Y643816D01*
Y638737D01*
X588341Y636198D01*
X580723D01*
X595959Y646355D02*
X606115D01*
X601037D01*
Y631120D01*
X611194Y646355D02*
Y631120D01*
Y638737D01*
X621350D01*
Y646355D01*
Y631120D01*
X580723Y593020D02*
Y608255D01*
X588341D01*
X590880Y605716D01*
Y600638D01*
X588341Y598098D01*
X580723D01*
X595959Y608255D02*
X606115D01*
X601037D01*
Y593020D01*
X611194Y608255D02*
Y593020D01*
Y600638D01*
X621350D01*
Y608255D01*
Y593020D01*
X580723Y554920D02*
Y570155D01*
X588341D01*
X590880Y567616D01*
Y562537D01*
X588341Y559998D01*
X580723D01*
X595959Y570155D02*
X606115D01*
X601037D01*
Y554920D01*
X611194Y570155D02*
Y554920D01*
Y562537D01*
X621350D01*
Y570155D01*
Y554920D01*
X580723Y516820D02*
Y532055D01*
X588341D01*
X590880Y529516D01*
Y524437D01*
X588341Y521898D01*
X580723D01*
X595959Y532055D02*
X606115D01*
X601037D01*
Y516820D01*
X611194Y532055D02*
Y516820D01*
Y524437D01*
X621350D01*
Y532055D01*
Y516820D01*
X580723Y478720D02*
Y493955D01*
X590880Y478720D01*
Y493955D01*
X595959Y478720D02*
Y493955D01*
X603576D01*
X606115Y491416D01*
Y486338D01*
X603576Y483798D01*
X595959D01*
X611194Y493955D02*
X621350D01*
X616272D01*
Y478720D01*
X626429Y493955D02*
Y478720D01*
Y486338D01*
X636585D01*
Y493955D01*
Y478720D01*
X580723Y440620D02*
Y455855D01*
X588341D01*
X590880Y453316D01*
Y448237D01*
X588341Y445698D01*
X580723D01*
X595959Y455855D02*
X606115D01*
X601037D01*
Y440620D01*
X611194Y455855D02*
Y440620D01*
Y448237D01*
X621350D01*
Y455855D01*
Y440620D01*
X580723Y402520D02*
Y417755D01*
X588341D01*
X590880Y415216D01*
Y410137D01*
X588341Y407598D01*
X580723D01*
X595959Y417755D02*
X606115D01*
X601037D01*
Y402520D01*
X611194Y417755D02*
Y402520D01*
Y410137D01*
X621350D01*
Y417755D01*
Y402520D01*
X286170Y681916D02*
X288709Y684455D01*
X293787D01*
X296327Y681916D01*
Y671759D01*
X293787Y669220D01*
X288709D01*
X286170Y671759D01*
Y681916D01*
X303944Y666681D02*
X306483Y669220D01*
Y671759D01*
X303944D01*
Y669220D01*
X306483D01*
X303944Y666681D01*
X301405Y664142D01*
X316640Y681916D02*
X319179Y684455D01*
X324257D01*
X326797Y681916D01*
Y679377D01*
X324257Y676837D01*
X321718D01*
X324257D01*
X326797Y674298D01*
Y671759D01*
X324257Y669220D01*
X319179D01*
X316640Y671759D01*
X331875Y681916D02*
X334414Y684455D01*
X339492D01*
X342032Y681916D01*
Y671759D01*
X339492Y669220D01*
X334414D01*
X331875Y671759D01*
Y681916D01*
X347110D02*
X349649Y684455D01*
X354728D01*
X357267Y681916D01*
Y671759D01*
X354728Y669220D01*
X349649D01*
X347110Y671759D01*
Y681916D01*
X362345Y669220D02*
Y679377D01*
X364884D01*
X367423Y676837D01*
Y669220D01*
Y676837D01*
X369963Y679377D01*
X372502Y676837D01*
Y669220D01*
X377580D02*
Y679377D01*
X380119D01*
X382659Y676837D01*
Y669220D01*
Y676837D01*
X385198Y679377D01*
X387737Y676837D01*
Y669220D01*
X413129D02*
X408050Y674298D01*
Y679377D01*
X413129Y684455D01*
X420746Y669220D02*
X425825D01*
X423285D01*
Y684455D01*
X420746Y681916D01*
X433442Y669220D02*
X438520D01*
X435981D01*
Y684455D01*
X433442Y681916D01*
X448677Y666681D02*
X451216Y669220D01*
Y671759D01*
X448677D01*
Y669220D01*
X451216D01*
X448677Y666681D01*
X446138Y664142D01*
X461373Y681916D02*
X463912Y684455D01*
X468991D01*
X471530Y681916D01*
Y679377D01*
X468991Y676837D01*
X471530Y674298D01*
Y671759D01*
X468991Y669220D01*
X463912D01*
X461373Y671759D01*
Y674298D01*
X463912Y676837D01*
X461373Y679377D01*
Y681916D01*
X463912Y676837D02*
X468991D01*
X476608Y669220D02*
X481687D01*
X479147D01*
Y684455D01*
X476608Y681916D01*
X489304Y669220D02*
Y679377D01*
X491843D01*
X494382Y676837D01*
Y669220D01*
Y676837D01*
X496922Y679377D01*
X499461Y676837D01*
Y669220D01*
X504539D02*
X509617D01*
X507078D01*
Y679377D01*
X504539D01*
X517235Y669220D02*
X522313D01*
X519774D01*
Y684455D01*
X517235D01*
X529931Y669220D02*
X535009Y674298D01*
Y679377D01*
X529931Y684455D01*
X286170Y643816D02*
X288709Y646355D01*
X293787D01*
X296327Y643816D01*
Y633659D01*
X293787Y631120D01*
X288709D01*
X286170Y633659D01*
Y643816D01*
X303944Y628581D02*
X306483Y631120D01*
Y633659D01*
X303944D01*
Y631120D01*
X306483D01*
X303944Y628581D01*
X301405Y626042D01*
X326797Y646355D02*
X316640D01*
Y638737D01*
X321718Y641277D01*
X324257D01*
X326797Y638737D01*
Y633659D01*
X324257Y631120D01*
X319179D01*
X316640Y633659D01*
X331875Y643816D02*
X334414Y646355D01*
X339492D01*
X342032Y643816D01*
Y633659D01*
X339492Y631120D01*
X334414D01*
X331875Y633659D01*
Y643816D01*
X347110D02*
X349649Y646355D01*
X354728D01*
X357267Y643816D01*
Y633659D01*
X354728Y631120D01*
X349649D01*
X347110Y633659D01*
Y643816D01*
X362345Y631120D02*
Y641277D01*
X364884D01*
X367423Y638737D01*
Y631120D01*
Y638737D01*
X369963Y641277D01*
X372502Y638737D01*
Y631120D01*
X377580D02*
Y641277D01*
X380119D01*
X382659Y638737D01*
Y631120D01*
Y638737D01*
X385198Y641277D01*
X387737Y638737D01*
Y631120D01*
X413129D02*
X408050Y636198D01*
Y641277D01*
X413129Y646355D01*
X420746Y631120D02*
X425825D01*
X423285D01*
Y646355D01*
X420746Y643816D01*
X433442Y633659D02*
X435981Y631120D01*
X441060D01*
X443599Y633659D01*
Y643816D01*
X441060Y646355D01*
X435981D01*
X433442Y643816D01*
Y641277D01*
X435981Y638737D01*
X443599D01*
X451216Y628581D02*
X453755Y631120D01*
Y633659D01*
X451216D01*
Y631120D01*
X453755D01*
X451216Y628581D01*
X448677Y626042D01*
X474069Y646355D02*
X468991Y643816D01*
X463912Y638737D01*
Y633659D01*
X466451Y631120D01*
X471530D01*
X474069Y633659D01*
Y636198D01*
X471530Y638737D01*
X463912D01*
X479147Y633659D02*
X481687Y631120D01*
X486765D01*
X489304Y633659D01*
Y643816D01*
X486765Y646355D01*
X481687D01*
X479147Y643816D01*
Y641277D01*
X481687Y638737D01*
X489304D01*
X494382Y631120D02*
Y641277D01*
X496922D01*
X499461Y638737D01*
Y631120D01*
Y638737D01*
X502000Y641277D01*
X504539Y638737D01*
Y631120D01*
X509617D02*
X514696D01*
X512157D01*
Y641277D01*
X509617D01*
X522313Y631120D02*
X527392D01*
X524852D01*
Y646355D01*
X522313D01*
X535009Y631120D02*
X540088Y636198D01*
Y641277D01*
X535009Y646355D01*
X286170Y605716D02*
X288709Y608255D01*
X293787D01*
X296327Y605716D01*
Y595559D01*
X293787Y593020D01*
X288709D01*
X286170Y595559D01*
Y605716D01*
X303944Y590481D02*
X306483Y593020D01*
Y595559D01*
X303944D01*
Y593020D01*
X306483D01*
X303944Y590481D01*
X301405Y587942D01*
X326797Y608255D02*
X316640D01*
Y600638D01*
X321718Y603177D01*
X324257D01*
X326797Y600638D01*
Y595559D01*
X324257Y593020D01*
X319179D01*
X316640Y595559D01*
X331875Y605716D02*
X334414Y608255D01*
X339492D01*
X342032Y605716D01*
Y595559D01*
X339492Y593020D01*
X334414D01*
X331875Y595559D01*
Y605716D01*
X347110D02*
X349649Y608255D01*
X354728D01*
X357267Y605716D01*
Y595559D01*
X354728Y593020D01*
X349649D01*
X347110Y595559D01*
Y605716D01*
X362345Y593020D02*
Y603177D01*
X364884D01*
X367423Y600638D01*
Y593020D01*
Y600638D01*
X369963Y603177D01*
X372502Y600638D01*
Y593020D01*
X377580D02*
Y603177D01*
X380119D01*
X382659Y600638D01*
Y593020D01*
Y600638D01*
X385198Y603177D01*
X387737Y600638D01*
Y593020D01*
X413129D02*
X408050Y598098D01*
Y603177D01*
X413129Y608255D01*
X420746Y593020D02*
X425825D01*
X423285D01*
Y608255D01*
X420746Y605716D01*
X433442Y595559D02*
X435981Y593020D01*
X441060D01*
X443599Y595559D01*
Y605716D01*
X441060Y608255D01*
X435981D01*
X433442Y605716D01*
Y603177D01*
X435981Y600638D01*
X443599D01*
X451216Y590481D02*
X453755Y593020D01*
Y595559D01*
X451216D01*
Y593020D01*
X453755D01*
X451216Y590481D01*
X448677Y587942D01*
X474069Y608255D02*
X468991Y605716D01*
X463912Y600638D01*
Y595559D01*
X466451Y593020D01*
X471530D01*
X474069Y595559D01*
Y598098D01*
X471530Y600638D01*
X463912D01*
X479147Y595559D02*
X481687Y593020D01*
X486765D01*
X489304Y595559D01*
Y605716D01*
X486765Y608255D01*
X481687D01*
X479147Y605716D01*
Y603177D01*
X481687Y600638D01*
X489304D01*
X494382Y593020D02*
Y603177D01*
X496922D01*
X499461Y600638D01*
Y593020D01*
Y600638D01*
X502000Y603177D01*
X504539Y600638D01*
Y593020D01*
X509617D02*
X514696D01*
X512157D01*
Y603177D01*
X509617D01*
X522313Y593020D02*
X527392D01*
X524852D01*
Y608255D01*
X522313D01*
X535009Y593020D02*
X540088Y598098D01*
Y603177D01*
X535009Y608255D01*
X286170Y567616D02*
X288709Y570155D01*
X293787D01*
X296327Y567616D01*
Y557459D01*
X293787Y554920D01*
X288709D01*
X286170Y557459D01*
Y567616D01*
X303944Y552381D02*
X306483Y554920D01*
Y557459D01*
X303944D01*
Y554920D01*
X306483D01*
X303944Y552381D01*
X301405Y549842D01*
X326797Y570155D02*
X316640D01*
Y562537D01*
X321718Y565077D01*
X324257D01*
X326797Y562537D01*
Y557459D01*
X324257Y554920D01*
X319179D01*
X316640Y557459D01*
X331875Y567616D02*
X334414Y570155D01*
X339492D01*
X342032Y567616D01*
Y557459D01*
X339492Y554920D01*
X334414D01*
X331875Y557459D01*
Y567616D01*
X347110D02*
X349649Y570155D01*
X354728D01*
X357267Y567616D01*
Y557459D01*
X354728Y554920D01*
X349649D01*
X347110Y557459D01*
Y567616D01*
X362345Y554920D02*
Y565077D01*
X364884D01*
X367423Y562537D01*
Y554920D01*
Y562537D01*
X369963Y565077D01*
X372502Y562537D01*
Y554920D01*
X377580D02*
Y565077D01*
X380119D01*
X382659Y562537D01*
Y554920D01*
Y562537D01*
X385198Y565077D01*
X387737Y562537D01*
Y554920D01*
X413129D02*
X408050Y559998D01*
Y565077D01*
X413129Y570155D01*
X420746Y554920D02*
X425825D01*
X423285D01*
Y570155D01*
X420746Y567616D01*
X433442Y557459D02*
X435981Y554920D01*
X441060D01*
X443599Y557459D01*
Y567616D01*
X441060Y570155D01*
X435981D01*
X433442Y567616D01*
Y565077D01*
X435981Y562537D01*
X443599D01*
X451216Y552381D02*
X453755Y554920D01*
Y557459D01*
X451216D01*
Y554920D01*
X453755D01*
X451216Y552381D01*
X448677Y549842D01*
X474069Y570155D02*
X468991Y567616D01*
X463912Y562537D01*
Y557459D01*
X466451Y554920D01*
X471530D01*
X474069Y557459D01*
Y559998D01*
X471530Y562537D01*
X463912D01*
X479147Y557459D02*
X481687Y554920D01*
X486765D01*
X489304Y557459D01*
Y567616D01*
X486765Y570155D01*
X481687D01*
X479147Y567616D01*
Y565077D01*
X481687Y562537D01*
X489304D01*
X494382Y554920D02*
Y565077D01*
X496922D01*
X499461Y562537D01*
Y554920D01*
Y562537D01*
X502000Y565077D01*
X504539Y562537D01*
Y554920D01*
X509617D02*
X514696D01*
X512157D01*
Y565077D01*
X509617D01*
X522313Y554920D02*
X527392D01*
X524852D01*
Y570155D01*
X522313D01*
X535009Y554920D02*
X540088Y559998D01*
Y565077D01*
X535009Y570155D01*
X286170Y516820D02*
X291248D01*
X288709D01*
Y532055D01*
X286170Y529516D01*
X301405Y514281D02*
X303944Y516820D01*
Y519359D01*
X301405D01*
Y516820D01*
X303944D01*
X301405Y514281D01*
X298866Y511742D01*
X314101Y529516D02*
X316640Y532055D01*
X321718D01*
X324257Y529516D01*
Y519359D01*
X321718Y516820D01*
X316640D01*
X314101Y519359D01*
Y529516D01*
X329336D02*
X331875Y532055D01*
X336953D01*
X339492Y529516D01*
Y519359D01*
X336953Y516820D01*
X331875D01*
X329336Y519359D01*
Y529516D01*
X344571D02*
X347110Y532055D01*
X352188D01*
X354728Y529516D01*
Y519359D01*
X352188Y516820D01*
X347110D01*
X344571Y519359D01*
Y529516D01*
X359806Y516820D02*
Y526977D01*
X362345D01*
X364884Y524437D01*
Y516820D01*
Y524437D01*
X367423Y526977D01*
X369963Y524437D01*
Y516820D01*
X375041D02*
Y526977D01*
X377580D01*
X380119Y524437D01*
Y516820D01*
Y524437D01*
X382659Y526977D01*
X385198Y524437D01*
Y516820D01*
X410589D02*
X405511Y521898D01*
Y526977D01*
X410589Y532055D01*
X418207Y529516D02*
X420746Y532055D01*
X425825D01*
X428364Y529516D01*
Y526977D01*
X425825Y524437D01*
X423285D01*
X425825D01*
X428364Y521898D01*
Y519359D01*
X425825Y516820D01*
X420746D01*
X418207Y519359D01*
X433442D02*
X435981Y516820D01*
X441060D01*
X443599Y519359D01*
Y529516D01*
X441060Y532055D01*
X435981D01*
X433442Y529516D01*
Y526977D01*
X435981Y524437D01*
X443599D01*
X451216Y514281D02*
X453755Y516820D01*
Y519359D01*
X451216D01*
Y516820D01*
X453755D01*
X451216Y514281D01*
X448677Y511742D01*
X463912Y529516D02*
X466451Y532055D01*
X471530D01*
X474069Y529516D01*
Y526977D01*
X471530Y524437D01*
X468991D01*
X471530D01*
X474069Y521898D01*
Y519359D01*
X471530Y516820D01*
X466451D01*
X463912Y519359D01*
X479147Y532055D02*
X489304D01*
Y529516D01*
X479147Y519359D01*
Y516820D01*
X494382D02*
Y526977D01*
X496922D01*
X499461Y524437D01*
Y516820D01*
Y524437D01*
X502000Y526977D01*
X504539Y524437D01*
Y516820D01*
X509617D02*
X514696D01*
X512157D01*
Y526977D01*
X509617D01*
X522313Y516820D02*
X527392D01*
X524852D01*
Y532055D01*
X522313D01*
X535009Y516820D02*
X540088Y521898D01*
Y526977D01*
X535009Y532055D01*
X286170Y478720D02*
X291248D01*
X288709D01*
Y493955D01*
X286170Y491416D01*
X301405Y476181D02*
X303944Y478720D01*
Y481259D01*
X301405D01*
Y478720D01*
X303944D01*
X301405Y476181D01*
X298866Y473642D01*
X314101Y478720D02*
X319179D01*
X316640D01*
Y493955D01*
X314101Y491416D01*
X326797D02*
X329336Y493955D01*
X334414D01*
X336953Y491416D01*
Y481259D01*
X334414Y478720D01*
X329336D01*
X326797Y481259D01*
Y491416D01*
X342032D02*
X344571Y493955D01*
X349649D01*
X352188Y491416D01*
Y481259D01*
X349649Y478720D01*
X344571D01*
X342032Y481259D01*
Y491416D01*
X357267Y478720D02*
Y488877D01*
X359806D01*
X362345Y486338D01*
Y478720D01*
Y486338D01*
X364884Y488877D01*
X367423Y486338D01*
Y478720D01*
X372502D02*
Y488877D01*
X375041D01*
X377580Y486338D01*
Y478720D01*
Y486338D01*
X380119Y488877D01*
X382659Y486338D01*
Y478720D01*
X408050D02*
X402972Y483798D01*
Y488877D01*
X408050Y493955D01*
X423285Y478720D02*
Y493955D01*
X415668Y486338D01*
X425825D01*
X430903Y491416D02*
X433442Y493955D01*
X438520D01*
X441060Y491416D01*
Y488877D01*
X438520Y486338D01*
X435981D01*
X438520D01*
X441060Y483798D01*
Y481259D01*
X438520Y478720D01*
X433442D01*
X430903Y481259D01*
X448677Y476181D02*
X451216Y478720D01*
Y481259D01*
X448677D01*
Y478720D01*
X451216D01*
X448677Y476181D01*
X446138Y473642D01*
X461373Y491416D02*
X463912Y493955D01*
X468991D01*
X471530Y491416D01*
Y488877D01*
X468991Y486338D01*
X466451D01*
X468991D01*
X471530Y483798D01*
Y481259D01*
X468991Y478720D01*
X463912D01*
X461373Y481259D01*
X476608Y478720D02*
X481687D01*
X479147D01*
Y493955D01*
X476608Y491416D01*
X489304Y478720D02*
Y488877D01*
X491843D01*
X494382Y486338D01*
Y478720D01*
Y486338D01*
X496922Y488877D01*
X499461Y486338D01*
Y478720D01*
X504539D02*
X509617D01*
X507078D01*
Y488877D01*
X504539D01*
X517235Y478720D02*
X522313D01*
X519774D01*
Y493955D01*
X517235D01*
X529931Y478720D02*
X535009Y483798D01*
Y488877D01*
X529931Y493955D01*
X286170Y440620D02*
X291248D01*
X288709D01*
Y455855D01*
X286170Y453316D01*
X301405Y438081D02*
X303944Y440620D01*
Y443159D01*
X301405D01*
Y440620D01*
X303944D01*
X301405Y438081D01*
X298866Y435542D01*
X324257Y440620D02*
X314101D01*
X324257Y450777D01*
Y453316D01*
X321718Y455855D01*
X316640D01*
X314101Y453316D01*
X329336D02*
X331875Y455855D01*
X336953D01*
X339492Y453316D01*
Y443159D01*
X336953Y440620D01*
X331875D01*
X329336Y443159D01*
Y453316D01*
X344571D02*
X347110Y455855D01*
X352188D01*
X354728Y453316D01*
Y443159D01*
X352188Y440620D01*
X347110D01*
X344571Y443159D01*
Y453316D01*
X359806Y440620D02*
Y450777D01*
X362345D01*
X364884Y448237D01*
Y440620D01*
Y448237D01*
X367423Y450777D01*
X369963Y448237D01*
Y440620D01*
X375041D02*
Y450777D01*
X377580D01*
X380119Y448237D01*
Y440620D01*
Y448237D01*
X382659Y450777D01*
X385198Y448237D01*
Y440620D01*
X410589D02*
X405511Y445698D01*
Y450777D01*
X410589Y455855D01*
X425825Y440620D02*
Y455855D01*
X418207Y448237D01*
X428364D01*
X433442Y455855D02*
X443599D01*
Y453316D01*
X433442Y443159D01*
Y440620D01*
X451216Y438081D02*
X453755Y440620D01*
Y443159D01*
X451216D01*
Y440620D01*
X453755D01*
X451216Y438081D01*
X448677Y435542D01*
X474069Y440620D02*
X463912D01*
X474069Y450777D01*
Y453316D01*
X471530Y455855D01*
X466451D01*
X463912Y453316D01*
X486765Y440620D02*
Y455855D01*
X479147Y448237D01*
X489304D01*
X494382Y440620D02*
Y450777D01*
X496922D01*
X499461Y448237D01*
Y440620D01*
Y448237D01*
X502000Y450777D01*
X504539Y448237D01*
Y440620D01*
X509617D02*
X514696D01*
X512157D01*
Y450777D01*
X509617D01*
X522313Y440620D02*
X527392D01*
X524852D01*
Y455855D01*
X522313D01*
X535009Y440620D02*
X540088Y445698D01*
Y450777D01*
X535009Y455855D01*
X296327Y402520D02*
X286170D01*
X296327Y412677D01*
Y415216D01*
X293787Y417755D01*
X288709D01*
X286170Y415216D01*
X303944Y399981D02*
X306483Y402520D01*
Y405059D01*
X303944D01*
Y402520D01*
X306483D01*
X303944Y399981D01*
X301405Y397442D01*
X316640Y415216D02*
X319179Y417755D01*
X324257D01*
X326797Y415216D01*
Y412677D01*
X324257Y410137D01*
X326797Y407598D01*
Y405059D01*
X324257Y402520D01*
X319179D01*
X316640Y405059D01*
Y407598D01*
X319179Y410137D01*
X316640Y412677D01*
Y415216D01*
X319179Y410137D02*
X324257D01*
X331875Y415216D02*
X334414Y417755D01*
X339492D01*
X342032Y415216D01*
Y405059D01*
X339492Y402520D01*
X334414D01*
X331875Y405059D01*
Y415216D01*
X347110D02*
X349649Y417755D01*
X354728D01*
X357267Y415216D01*
Y405059D01*
X354728Y402520D01*
X349649D01*
X347110Y405059D01*
Y415216D01*
X362345Y402520D02*
Y412677D01*
X364884D01*
X367423Y410137D01*
Y402520D01*
Y410137D01*
X369963Y412677D01*
X372502Y410137D01*
Y402520D01*
X377580D02*
Y412677D01*
X380119D01*
X382659Y410137D01*
Y402520D01*
Y410137D01*
X385198Y412677D01*
X387737Y410137D01*
Y402520D01*
X413129D02*
X408050Y407598D01*
Y412677D01*
X413129Y417755D01*
X420746Y402520D02*
X425825D01*
X423285D01*
Y417755D01*
X420746Y415216D01*
X433442Y402520D02*
X438520D01*
X435981D01*
Y417755D01*
X433442Y415216D01*
X446138D02*
X448677Y417755D01*
X453755D01*
X456295Y415216D01*
Y405059D01*
X453755Y402520D01*
X448677D01*
X446138Y405059D01*
Y415216D01*
X463912Y399981D02*
X466451Y402520D01*
Y405059D01*
X463912D01*
Y402520D01*
X466451D01*
X463912Y399981D01*
X461373Y397442D01*
X486765Y402520D02*
X476608D01*
X486765Y412677D01*
Y415216D01*
X484226Y417755D01*
X479147D01*
X476608Y415216D01*
X499461Y402520D02*
Y417755D01*
X491843Y410137D01*
X502000D01*
X507078Y402520D02*
Y412677D01*
X509617D01*
X512157Y410137D01*
Y402520D01*
Y410137D01*
X514696Y412677D01*
X517235Y410137D01*
Y402520D01*
X522313D02*
X527392D01*
X524852D01*
Y412677D01*
X522313D01*
X535009Y402520D02*
X540088D01*
X537548D01*
Y417755D01*
X535009D01*
X547705Y402520D02*
X552784Y407598D01*
Y412677D01*
X547705Y417755D01*
X143967Y364420D02*
X133810D01*
X143967Y374577D01*
Y377116D01*
X141427Y379655D01*
X136349D01*
X133810Y377116D01*
X149045Y379655D02*
X159202D01*
Y377116D01*
X149045Y366959D01*
Y364420D01*
X171898D02*
Y379655D01*
X164280Y372038D01*
X174437D01*
X194750Y379655D02*
X204907D01*
X199829D01*
Y364420D01*
X212525D02*
X217603D01*
X220142Y366959D01*
Y372038D01*
X217603Y374577D01*
X212525D01*
X209985Y372038D01*
Y366959D01*
X212525Y364420D01*
X227760Y377116D02*
Y374577D01*
X225220D01*
X230299D01*
X227760D01*
Y366959D01*
X230299Y364420D01*
X240455Y374577D02*
X245534D01*
X248073Y372038D01*
Y364420D01*
X240455D01*
X237916Y366959D01*
X240455Y369498D01*
X248073D01*
X253151Y364420D02*
X258230D01*
X255691D01*
Y379655D01*
X253151D01*
X143967Y669220D02*
X133810D01*
X143967Y679377D01*
Y681916D01*
X141427Y684455D01*
X136349D01*
X133810Y681916D01*
X149045D02*
X151584Y684455D01*
X156663D01*
X159202Y681916D01*
Y679377D01*
X156663Y676837D01*
X154123D01*
X156663D01*
X159202Y674298D01*
Y671759D01*
X156663Y669220D01*
X151584D01*
X149045Y671759D01*
X174437Y684455D02*
X169359Y681916D01*
X164280Y676837D01*
Y671759D01*
X166819Y669220D01*
X171898D01*
X174437Y671759D01*
Y674298D01*
X171898Y676837D01*
X164280D01*
X143967Y631120D02*
X133810D01*
X143967Y641277D01*
Y643816D01*
X141427Y646355D01*
X136349D01*
X133810Y643816D01*
X143967Y593020D02*
X133810D01*
X143967Y603177D01*
Y605716D01*
X141427Y608255D01*
X136349D01*
X133810Y605716D01*
X143967Y554920D02*
X133810D01*
X143967Y565077D01*
Y567616D01*
X141427Y570155D01*
X136349D01*
X133810Y567616D01*
Y516820D02*
X138888D01*
X136349D01*
Y532055D01*
X133810Y529516D01*
X146506D02*
X149045Y532055D01*
X154123D01*
X156663Y529516D01*
Y526977D01*
X154123Y524437D01*
X156663Y521898D01*
Y519359D01*
X154123Y516820D01*
X149045D01*
X146506Y519359D01*
Y521898D01*
X149045Y524437D01*
X146506Y526977D01*
Y529516D01*
X149045Y524437D02*
X154123D01*
X133810Y478720D02*
X138888D01*
X136349D01*
Y493955D01*
X133810Y491416D01*
X146506D02*
X149045Y493955D01*
X154123D01*
X156663Y491416D01*
Y481259D01*
X154123Y478720D01*
X149045D01*
X146506Y481259D01*
Y491416D01*
X143967Y440620D02*
X133810D01*
X143967Y450777D01*
Y453316D01*
X141427Y455855D01*
X136349D01*
X133810Y453316D01*
X143967Y402520D02*
X133810D01*
X143967Y412677D01*
Y415216D01*
X141427Y417755D01*
X136349D01*
X133810Y415216D01*
X458827Y307281D02*
X468983D01*
X458827Y312360D02*
X468983D01*
X489297Y302203D02*
Y317438D01*
X496914D01*
X499454Y314899D01*
Y309821D01*
X496914Y307281D01*
X489297D01*
X494375D02*
X499454Y302203D01*
X507071D02*
X512150D01*
X514689Y304742D01*
Y309821D01*
X512150Y312360D01*
X507071D01*
X504532Y309821D01*
Y304742D01*
X507071Y302203D01*
X519767Y312360D02*
Y304742D01*
X522306Y302203D01*
X529924D01*
Y312360D01*
X537541Y314899D02*
Y312360D01*
X535002D01*
X540080D01*
X537541D01*
Y304742D01*
X540080Y302203D01*
X555316D02*
X550237D01*
X547698Y304742D01*
Y309821D01*
X550237Y312360D01*
X555316D01*
X557855Y309821D01*
Y307281D01*
X547698D01*
X573090Y317438D02*
Y302203D01*
X565472D01*
X562933Y304742D01*
Y309821D01*
X565472Y312360D01*
X573090D01*
X593403Y302203D02*
Y317438D01*
X601021D01*
X603560Y314899D01*
Y309821D01*
X601021Y307281D01*
X593403D01*
X611177Y312360D02*
X616256D01*
X618795Y309821D01*
Y302203D01*
X611177D01*
X608638Y304742D01*
X611177Y307281D01*
X618795D01*
X626413Y314899D02*
Y312360D01*
X623873D01*
X628952D01*
X626413D01*
Y304742D01*
X628952Y302203D01*
X636569Y317438D02*
Y302203D01*
Y309821D01*
X639109Y312360D01*
X644187D01*
X646726Y309821D01*
Y302203D01*
X667039Y317438D02*
Y302203D01*
X677196D01*
X689892D02*
X684814D01*
X682274Y304742D01*
Y309821D01*
X684814Y312360D01*
X689892D01*
X692431Y309821D01*
Y307281D01*
X682274D01*
X697510Y302203D02*
Y312360D01*
X705127D01*
X707666Y309821D01*
Y302203D01*
X717823Y297125D02*
X720362D01*
X722901Y299664D01*
Y312360D01*
X715284D01*
X712745Y309821D01*
Y304742D01*
X715284Y302203D01*
X722901D01*
X730519Y314899D02*
Y312360D01*
X727980D01*
X733058D01*
X730519D01*
Y304742D01*
X733058Y302203D01*
X740676Y317438D02*
Y302203D01*
Y309821D01*
X743215Y312360D01*
X748293D01*
X750832Y309821D01*
Y302203D01*
X771146Y309821D02*
X781302D01*
X776224Y314899D02*
Y304742D01*
X801616Y317438D02*
X811773D01*
X806694D01*
Y302203D01*
X819390D02*
X824469D01*
X827008Y304742D01*
Y309821D01*
X824469Y312360D01*
X819390D01*
X816851Y309821D01*
Y304742D01*
X819390Y302203D01*
X834625D02*
X839704D01*
X842243Y304742D01*
Y309821D01*
X839704Y312360D01*
X834625D01*
X832086Y309821D01*
Y304742D01*
X834625Y302203D01*
X847321D02*
X852400D01*
X849860D01*
Y317438D01*
X847321D01*
X885409Y314899D02*
X882870Y317438D01*
X877791D01*
X875252Y314899D01*
Y312360D01*
X877791Y309821D01*
X882870D01*
X885409Y307281D01*
Y304742D01*
X882870Y302203D01*
X877791D01*
X875252Y304742D01*
X890487Y302203D02*
X895565D01*
X893026D01*
Y312360D01*
X890487D01*
X903183D02*
X913340D01*
X903183Y302203D01*
X913340D01*
X926036D02*
X920957D01*
X918418Y304742D01*
Y309821D01*
X920957Y312360D01*
X926036D01*
X928575Y309821D01*
Y307281D01*
X918418D01*
X948888D02*
X959045D01*
X948888Y312360D02*
X959045D01*
X989515Y314899D02*
X986976Y317438D01*
X981898D01*
X979358Y314899D01*
Y312360D01*
X981898Y309821D01*
X986976D01*
X989515Y307281D01*
Y304742D01*
X986976Y302203D01*
X981898D01*
X979358Y304742D01*
X994594Y302203D02*
X999672D01*
X997133D01*
Y317438D01*
X994594D01*
X1009829Y302203D02*
X1014907D01*
X1017446Y304742D01*
Y309821D01*
X1014907Y312360D01*
X1009829D01*
X1007289Y309821D01*
Y304742D01*
X1009829Y302203D01*
X1025064Y314899D02*
Y312360D01*
X1022524D01*
X1027603D01*
X1025064D01*
Y304742D01*
X1027603Y302203D01*
X1050455D02*
X1055534D01*
X1052995D01*
Y317438D01*
X1050455D01*
X1070769Y302203D02*
X1065691D01*
X1063151Y304742D01*
Y309821D01*
X1065691Y312360D01*
X1070769D01*
X1073308Y309821D01*
Y307281D01*
X1063151D01*
X1078386Y302203D02*
Y312360D01*
X1086004D01*
X1088543Y309821D01*
Y302203D01*
X1098700Y297125D02*
X1101239D01*
X1103778Y299664D01*
Y312360D01*
X1096161D01*
X1093621Y309821D01*
Y304742D01*
X1096161Y302203D01*
X1103778D01*
X1111396Y314899D02*
Y312360D01*
X1108857D01*
X1113935D01*
X1111396D01*
Y304742D01*
X1113935Y302203D01*
X1121552Y317438D02*
Y302203D01*
Y309821D01*
X1124092Y312360D01*
X1129170D01*
X1131709Y309821D01*
Y302203D01*
X1154562Y312360D02*
X1159640D01*
X1162179Y309821D01*
Y302203D01*
X1154562D01*
X1152022Y304742D01*
X1154562Y307281D01*
X1162179D01*
X1167258Y302203D02*
X1174875D01*
X1177414Y304742D01*
X1174875Y307281D01*
X1169797D01*
X1167258Y309821D01*
X1169797Y312360D01*
X1177414D01*
X1207885Y317438D02*
Y302203D01*
X1200267D01*
X1197728Y304742D01*
Y309821D01*
X1200267Y312360D01*
X1207885D01*
X1220580Y302203D02*
X1215502D01*
X1212963Y304742D01*
Y309821D01*
X1215502Y312360D01*
X1220580D01*
X1223120Y309821D01*
Y307281D01*
X1212963D01*
X1230737Y302203D02*
Y314899D01*
Y309821D01*
X1228198D01*
X1233276D01*
X1230737D01*
Y314899D01*
X1233276Y317438D01*
X1240894Y302203D02*
X1245972D01*
X1243433D01*
Y312360D01*
X1240894D01*
X1253590Y302203D02*
Y312360D01*
X1261207D01*
X1263746Y309821D01*
Y302203D01*
X1276442D02*
X1271364D01*
X1268825Y304742D01*
Y309821D01*
X1271364Y312360D01*
X1276442D01*
X1278981Y309821D01*
Y307281D01*
X1268825D01*
X1294216Y317438D02*
Y302203D01*
X1286599D01*
X1284060Y304742D01*
Y309821D01*
X1286599Y312360D01*
X1294216D01*
X1314530Y302203D02*
X1319608D01*
X1317069D01*
Y312360D01*
X1314530D01*
X1327226Y302203D02*
Y312360D01*
X1334843D01*
X1337383Y309821D01*
Y302203D01*
X1360235Y314899D02*
Y312360D01*
X1357696D01*
X1362774D01*
X1360235D01*
Y304742D01*
X1362774Y302203D01*
X1370392Y317438D02*
Y302203D01*
Y309821D01*
X1372931Y312360D01*
X1378009D01*
X1380549Y309821D01*
Y302203D01*
X1393244D02*
X1388166D01*
X1385627Y304742D01*
Y309821D01*
X1388166Y312360D01*
X1393244D01*
X1395784Y309821D01*
Y307281D01*
X1385627D01*
X1416097Y302203D02*
Y317438D01*
X1423715D01*
X1426254Y314899D01*
Y309821D01*
X1423715Y307281D01*
X1416097D01*
X1441489Y314899D02*
X1438950Y317438D01*
X1433871D01*
X1431332Y314899D01*
Y304742D01*
X1433871Y302203D01*
X1438950D01*
X1441489Y304742D01*
X1446567Y317438D02*
Y302203D01*
X1454185D01*
X1456724Y304742D01*
Y307281D01*
X1454185Y309821D01*
X1446567D01*
X1454185D01*
X1456724Y312360D01*
Y314899D01*
X1454185Y317438D01*
X1446567D01*
X1477037Y302203D02*
X1482116D01*
X1479577D01*
Y317438D01*
X1477037D01*
X1492272Y312360D02*
X1497351D01*
X1499890Y309821D01*
Y302203D01*
X1492272D01*
X1489733Y304742D01*
X1492272Y307281D01*
X1499890D01*
X1504968Y312360D02*
Y304742D01*
X1507507Y302203D01*
X1515125D01*
Y299664D01*
X1512586Y297125D01*
X1510047D01*
X1515125Y302203D02*
Y312360D01*
X1522743Y302203D02*
X1527821D01*
X1530360Y304742D01*
Y309821D01*
X1527821Y312360D01*
X1522743D01*
X1520203Y309821D01*
Y304742D01*
X1522743Y302203D01*
X1535439Y312360D02*
Y304742D01*
X1537978Y302203D01*
X1545595D01*
Y312360D01*
X1553213Y314899D02*
Y312360D01*
X1550674D01*
X1555752D01*
X1553213D01*
Y304742D01*
X1555752Y302203D01*
X547698Y332675D02*
X557855D01*
X547698Y337753D02*
X557855D01*
X588325Y340293D02*
X585786Y342832D01*
X580707D01*
X578168Y340293D01*
Y330136D01*
X580707Y327597D01*
X585786D01*
X588325Y330136D01*
X595942Y337753D02*
X601021D01*
X603560Y335214D01*
Y327597D01*
X595942D01*
X593403Y330136D01*
X595942Y332675D01*
X603560D01*
X608638Y327597D02*
X613717D01*
X611177D01*
Y342832D01*
X608638D01*
X631491Y337753D02*
X623873D01*
X621334Y335214D01*
Y330136D01*
X623873Y327597D01*
X631491D01*
X636569Y337753D02*
Y330136D01*
X639109Y327597D01*
X646726D01*
Y337753D01*
X651804Y327597D02*
X656883D01*
X654344D01*
Y342832D01*
X651804D01*
X667039Y337753D02*
X672118D01*
X674657Y335214D01*
Y327597D01*
X667039D01*
X664500Y330136D01*
X667039Y332675D01*
X674657D01*
X682274Y340293D02*
Y337753D01*
X679735D01*
X684814D01*
X682274D01*
Y330136D01*
X684814Y327597D01*
X700049D02*
X694970D01*
X692431Y330136D01*
Y335214D01*
X694970Y337753D01*
X700049D01*
X702588Y335214D01*
Y332675D01*
X692431D01*
X717823Y342832D02*
Y327597D01*
X710206D01*
X707666Y330136D01*
Y335214D01*
X710206Y337753D01*
X717823D01*
X740676Y327597D02*
Y340293D01*
Y335214D01*
X738136D01*
X743215D01*
X740676D01*
Y340293D01*
X743215Y342832D01*
X750832Y337753D02*
Y327597D01*
Y332675D01*
X753372Y335214D01*
X755911Y337753D01*
X758450D01*
X768607Y327597D02*
X773685D01*
X776224Y330136D01*
Y335214D01*
X773685Y337753D01*
X768607D01*
X766067Y335214D01*
Y330136D01*
X768607Y327597D01*
X781302D02*
Y337753D01*
X783842D01*
X786381Y335214D01*
Y327597D01*
Y335214D01*
X788920Y337753D01*
X791459Y335214D01*
Y327597D01*
X814312Y340293D02*
Y337753D01*
X811773D01*
X816851D01*
X814312D01*
Y330136D01*
X816851Y327597D01*
X827008D02*
X832086D01*
X834625Y330136D01*
Y335214D01*
X832086Y337753D01*
X827008D01*
X824469Y335214D01*
Y330136D01*
X827008Y327597D01*
X842243D02*
X847321D01*
X849860Y330136D01*
Y335214D01*
X847321Y337753D01*
X842243D01*
X839704Y335214D01*
Y330136D01*
X842243Y327597D01*
X854939D02*
X860017D01*
X857478D01*
Y342832D01*
X854939D01*
X882870Y327597D02*
X890487D01*
X893026Y330136D01*
X890487Y332675D01*
X885409D01*
X882870Y335214D01*
X885409Y337753D01*
X893026D01*
X900644Y340293D02*
Y337753D01*
X898105D01*
X903183D01*
X900644D01*
Y330136D01*
X903183Y327597D01*
X913340Y337753D02*
X918418D01*
X920957Y335214D01*
Y327597D01*
X913340D01*
X910801Y330136D01*
X913340Y332675D01*
X920957D01*
X926036Y337753D02*
Y327597D01*
Y332675D01*
X928575Y335214D01*
X931114Y337753D01*
X933653D01*
X943810Y340293D02*
Y337753D01*
X941271D01*
X946349D01*
X943810D01*
Y330136D01*
X946349Y327597D01*
X979358Y337753D02*
X971741D01*
X969202Y335214D01*
Y330136D01*
X971741Y327597D01*
X979358D01*
X992054D02*
X986976D01*
X984437Y330136D01*
Y335214D01*
X986976Y337753D01*
X992054D01*
X994594Y335214D01*
Y332675D01*
X984437D01*
X999672Y327597D02*
Y337753D01*
X1007289D01*
X1009828Y335214D01*
Y327597D01*
X1017446Y340293D02*
Y337753D01*
X1014907D01*
X1019985D01*
X1017446D01*
Y330136D01*
X1019985Y327597D01*
X1027603Y337753D02*
Y327597D01*
Y332675D01*
X1030142Y335214D01*
X1032681Y337753D01*
X1035220D01*
X1050455Y327597D02*
X1045377D01*
X1042838Y330136D01*
Y335214D01*
X1045377Y337753D01*
X1050455D01*
X1052995Y335214D01*
Y332675D01*
X1042838D01*
X1073308Y322518D02*
Y337753D01*
X1080926D01*
X1083465Y335214D01*
Y330136D01*
X1080926Y327597D01*
X1073308D01*
X1091082D02*
X1096161D01*
X1098700Y330136D01*
Y335214D01*
X1096161Y337753D01*
X1091082D01*
X1088543Y335214D01*
Y330136D01*
X1091082Y327597D01*
X1103778D02*
X1111396D01*
X1113935Y330136D01*
X1111396Y332675D01*
X1106317D01*
X1103778Y335214D01*
X1106317Y337753D01*
X1113935D01*
X1119013Y327597D02*
X1124092D01*
X1121552D01*
Y337753D01*
X1119013D01*
X1134248Y340293D02*
Y337753D01*
X1131709D01*
X1136787D01*
X1134248D01*
Y330136D01*
X1136787Y327597D01*
X1144405D02*
X1149483D01*
X1146944D01*
Y337753D01*
X1144405D01*
X1159640Y327597D02*
X1164718D01*
X1167258Y330136D01*
Y335214D01*
X1164718Y337753D01*
X1159640D01*
X1157101Y335214D01*
Y330136D01*
X1159640Y327597D01*
X1172336D02*
Y337753D01*
X1179954D01*
X1182493Y335214D01*
Y327597D01*
X1205345Y340293D02*
Y337753D01*
X1202806D01*
X1207884D01*
X1205345D01*
Y330136D01*
X1207884Y327597D01*
X1218041D02*
X1223120D01*
X1225659Y330136D01*
Y335214D01*
X1223120Y337753D01*
X1218041D01*
X1215502Y335214D01*
Y330136D01*
X1218041Y327597D01*
X1248511Y340293D02*
Y337753D01*
X1245972D01*
X1251050D01*
X1248511D01*
Y330136D01*
X1251050Y327597D01*
X1261207D02*
X1266285D01*
X1268825Y330136D01*
Y335214D01*
X1266285Y337753D01*
X1261207D01*
X1258668Y335214D01*
Y330136D01*
X1261207Y327597D01*
X1276442D02*
X1281521D01*
X1284060Y330136D01*
Y335214D01*
X1281521Y337753D01*
X1276442D01*
X1273903Y335214D01*
Y330136D01*
X1276442Y327597D01*
X1289138D02*
X1294216D01*
X1291677D01*
Y342832D01*
X1289138D01*
X1324687Y327597D02*
X1319608D01*
X1317069Y330136D01*
Y335214D01*
X1319608Y337753D01*
X1324687D01*
X1327226Y335214D01*
Y332675D01*
X1317069D01*
X1332304Y327597D02*
Y337753D01*
X1339922D01*
X1342461Y335214D01*
Y327597D01*
X1357696Y342832D02*
Y327597D01*
X1350078D01*
X1347539Y330136D01*
Y335214D01*
X1350078Y337753D01*
X1357696D01*
X1388166D02*
X1380549D01*
X1378009Y335214D01*
Y330136D01*
X1380549Y327597D01*
X1388166D01*
X1400862D02*
X1395784D01*
X1393244Y330136D01*
Y335214D01*
X1395784Y337753D01*
X1400862D01*
X1403401Y335214D01*
Y332675D01*
X1393244D01*
X1408479Y327597D02*
Y337753D01*
X1416097D01*
X1418636Y335214D01*
Y327597D01*
X1426254Y340293D02*
Y337753D01*
X1423715D01*
X1428793D01*
X1426254D01*
Y330136D01*
X1428793Y327597D01*
X1436411Y337753D02*
Y327597D01*
Y332675D01*
X1438950Y335214D01*
X1441489Y337753D01*
X1444028D01*
X1459263Y327597D02*
X1454185D01*
X1451646Y330136D01*
Y335214D01*
X1454185Y337753D01*
X1459263D01*
X1461802Y335214D01*
Y332675D01*
X1451646D01*
X1482116Y322518D02*
Y337753D01*
X1489733D01*
X1492272Y335214D01*
Y330136D01*
X1489733Y327597D01*
X1482116D01*
X1499890D02*
X1504968D01*
X1507507Y330136D01*
Y335214D01*
X1504968Y337753D01*
X1499890D01*
X1497351Y335214D01*
Y330136D01*
X1499890Y327597D01*
X1512586D02*
X1520203D01*
X1522743Y330136D01*
X1520203Y332675D01*
X1515125D01*
X1512586Y335214D01*
X1515125Y337753D01*
X1522743D01*
X1527821Y327597D02*
X1532899D01*
X1530360D01*
Y337753D01*
X1527821D01*
X1543056Y340293D02*
Y337753D01*
X1540517D01*
X1545595D01*
X1543056D01*
Y330136D01*
X1545595Y327597D01*
X1553213D02*
X1558291D01*
X1555752D01*
Y337753D01*
X1553213D01*
X1568448Y327597D02*
X1573526D01*
X1576065Y330136D01*
Y335214D01*
X1573526Y337753D01*
X1568448D01*
X1565909Y335214D01*
Y330136D01*
X1568448Y327597D01*
X1581144D02*
Y337753D01*
X1588761D01*
X1591300Y335214D01*
Y327597D01*
X1596379D02*
Y330136D01*
X1598918D01*
Y327597D01*
X1596379D01*
D62*
X55640Y166750D02*
G03*
X55640Y166750I-2540J0D01*
G01*
X55640Y253250D02*
G03*
X55640Y253250I-2540J0D01*
G01*
X142460Y51270D02*
X145000Y48730D01*
X147540Y51270D01*
X145000Y53810D02*
X147540Y51270D01*
X142460D02*
X145000Y53810D01*
X163460Y51270D02*
X166000Y48730D01*
X168540Y51270D01*
X166000Y53810D02*
X168540Y51270D01*
X163460D02*
X166000Y53810D01*
X184460Y51270D02*
X187000Y48730D01*
X189540Y51270D01*
X187000Y53810D02*
X189540Y51270D01*
X184460D02*
X187000Y53810D01*
X205460Y51270D02*
X208000Y48730D01*
X210540Y51270D01*
X208000Y53810D02*
X210540Y51270D01*
X205460D02*
X208000Y53810D01*
X226460Y51270D02*
X229000Y48730D01*
X231540Y51270D01*
X229000Y53810D02*
X231540Y51270D01*
X226460D02*
X229000Y53810D01*
X247460Y51270D02*
X250000Y48730D01*
X252540Y51270D01*
X250000Y53810D02*
X252540Y51270D01*
X247460D02*
X250000Y53810D01*
X247460Y72270D02*
X250000Y69730D01*
X252540Y72270D01*
X250000Y74810D02*
X252540Y72270D01*
X247460D02*
X250000Y74810D01*
X226460Y72270D02*
X229000Y69730D01*
X231540Y72270D01*
X229000Y74810D02*
X231540Y72270D01*
X226460D02*
X229000Y74810D01*
X205460Y72270D02*
X208000Y69730D01*
X210540Y72270D01*
X208000Y74810D02*
X210540Y72270D01*
X205460D02*
X208000Y74810D01*
X184460Y72270D02*
X187000Y69730D01*
X189540Y72270D01*
X187000Y74810D02*
X189540Y72270D01*
X184460D02*
X187000Y74810D01*
X163460Y72270D02*
X166000Y69730D01*
X168540Y72270D01*
X166000Y74810D02*
X168540Y72270D01*
X163460D02*
X166000Y74810D01*
X142460Y72270D02*
X145000Y69730D01*
X147540Y72270D01*
X145000Y74810D02*
X147540Y72270D01*
X142460D02*
X145000Y74810D01*
X142460Y93270D02*
X145000Y90730D01*
X147540Y93270D01*
X145000Y95810D02*
X147540Y93270D01*
X142460D02*
X145000Y95810D01*
X163460Y93270D02*
X166000Y90730D01*
X168540Y93270D01*
X166000Y95810D02*
X168540Y93270D01*
X163460D02*
X166000Y95810D01*
X184460Y93270D02*
X187000Y90730D01*
X189540Y93270D01*
X187000Y95810D02*
X189540Y93270D01*
X184460D02*
X187000Y95810D01*
X205460Y93270D02*
X208000Y90730D01*
X210540Y93270D01*
X208000Y95810D02*
X210540Y93270D01*
X205460D02*
X208000Y95810D01*
X226460Y93270D02*
X229000Y90730D01*
X231540Y93270D01*
X229000Y95810D02*
X231540Y93270D01*
X226460D02*
X229000Y95810D01*
X237690Y83500D02*
X240230Y80960D01*
X242770Y83500D01*
X240230Y86040D02*
X242770Y83500D01*
X237690D02*
X240230Y86040D01*
X237690Y104500D02*
X240230Y101960D01*
X242770Y104500D01*
X240230Y107040D02*
X242770Y104500D01*
X237690D02*
X240230Y107040D01*
X226460Y114270D02*
X229000Y111730D01*
X231540Y114270D01*
X229000Y116810D02*
X231540Y114270D01*
X226460D02*
X229000Y116810D01*
X205460Y114270D02*
X208000Y111730D01*
X210540Y114270D01*
X208000Y116810D02*
X210540Y114270D01*
X205460D02*
X208000Y116810D01*
X184460Y114270D02*
X187000Y111730D01*
X189540Y114270D01*
X187000Y116810D02*
X189540Y114270D01*
X184460D02*
X187000Y116810D01*
X163460Y114270D02*
X166000Y111730D01*
X168540Y114270D01*
X166000Y116810D02*
X168540Y114270D01*
X163460D02*
X166000Y116810D01*
X152230Y104500D02*
X154770Y101960D01*
X157310Y104500D01*
X154770Y107040D02*
X157310Y104500D01*
X152230D02*
X154770Y107040D01*
X173230Y125500D02*
X175770Y122960D01*
X178310Y125500D01*
X175770Y128040D02*
X178310Y125500D01*
X173230D02*
X175770Y128040D01*
X194230Y125500D02*
X196770Y122960D01*
X199310Y125500D01*
X196770Y128040D02*
X199310Y125500D01*
X194230D02*
X196770Y128040D01*
X216690Y125500D02*
X219230Y122960D01*
X221770Y125500D01*
X219230Y128040D02*
X221770Y125500D01*
X216690D02*
X219230Y128040D01*
X237690Y125500D02*
X240230Y122960D01*
X242770Y125500D01*
X240230Y128040D02*
X242770Y125500D01*
X237690D02*
X240230Y128040D01*
X216690Y146500D02*
X219230Y143960D01*
X221770Y146500D01*
X219230Y149040D02*
X221770Y146500D01*
X216690D02*
X219230Y149040D01*
X205460Y136730D02*
X208000Y134190D01*
X210540Y136730D01*
X208000Y139270D02*
X210540Y136730D01*
X205460D02*
X208000Y139270D01*
X184460Y136730D02*
X187000Y134190D01*
X189540Y136730D01*
X187000Y139270D02*
X189540Y136730D01*
X184460D02*
X187000Y139270D01*
X163460Y136730D02*
X166000Y134190D01*
X168540Y136730D01*
X166000Y139270D02*
X168540Y136730D01*
X163460D02*
X166000Y139270D01*
X163460Y157730D02*
X166000Y155190D01*
X168540Y157730D01*
X166000Y160270D02*
X168540Y157730D01*
X163460D02*
X166000Y160270D01*
X184460Y157730D02*
X187000Y155190D01*
X189540Y157730D01*
X187000Y160270D02*
X189540Y157730D01*
X184460D02*
X187000Y160270D01*
X205460Y157730D02*
X208000Y155190D01*
X210540Y157730D01*
X208000Y160270D02*
X210540Y157730D01*
X205460D02*
X208000Y160270D01*
X237690Y188500D02*
X240230Y185960D01*
X242770Y188500D01*
X240230Y191040D02*
X242770Y188500D01*
X237690D02*
X240230Y191040D01*
X205460Y178730D02*
X208000Y176190D01*
X210540Y178730D01*
X208000Y181270D02*
X210540Y178730D01*
X205460D02*
X208000Y181270D01*
X184460Y178730D02*
X187000Y176190D01*
X189540Y178730D01*
X187000Y181270D02*
X189540Y178730D01*
X184460D02*
X187000Y181270D01*
X163460Y178730D02*
X166000Y176190D01*
X168540Y178730D01*
X166000Y181270D02*
X168540Y178730D01*
X163460D02*
X166000Y181270D01*
X142460Y178730D02*
X145000Y176190D01*
X147540Y178730D01*
X145000Y181270D02*
X147540Y178730D01*
X142460D02*
X145000Y181270D01*
X281230Y87500D02*
X283770Y84960D01*
X286310Y87500D01*
X283770Y90040D02*
X286310Y87500D01*
X281230D02*
X283770Y90040D01*
X108690Y43500D02*
X111230Y40960D01*
X113770Y43500D01*
X111230Y46040D02*
X113770Y43500D01*
X108690D02*
X111230Y46040D01*
X108690Y65500D02*
X111230Y62960D01*
X113770Y65500D01*
X111230Y68040D02*
X113770Y65500D01*
X108690D02*
X111230Y68040D01*
X132230Y186500D02*
X134770Y183960D01*
X137310Y186500D01*
X134770Y189040D02*
X137310Y186500D01*
X132230D02*
X134770Y189040D01*
X289190Y176250D02*
X291730Y173710D01*
X294270Y176250D01*
X291730Y178790D02*
X294270Y176250D01*
X289190D02*
X291730Y178790D01*
X547460Y152770D02*
X550000Y150230D01*
X552540Y152770D01*
X550000Y155310D02*
X552540Y152770D01*
X547460D02*
X550000Y155310D01*
X83460Y81480D02*
X86000Y78940D01*
X88540Y81480D01*
X86000Y84020D02*
X88540Y81480D01*
X83460D02*
X86000Y84020D01*
X507730Y115500D02*
X510270Y112960D01*
X512810Y115500D01*
X510270Y118040D02*
X512810Y115500D01*
X507730D02*
X510270Y118040D01*
X527730Y115500D02*
X530270Y112960D01*
X532810Y115500D01*
X530270Y118040D02*
X532810Y115500D01*
X527730D02*
X530270Y118040D01*
X378230Y163750D02*
X380770Y161210D01*
X383310Y163750D01*
X380770Y166290D02*
X383310Y163750D01*
X378230D02*
X380770Y166290D01*
X77190Y240250D02*
X79730Y237710D01*
X82270Y240250D01*
X79730Y242790D02*
X82270Y240250D01*
X77190D02*
X79730Y242790D01*
X430460Y235270D02*
X433000Y232730D01*
X435540Y235270D01*
X433000Y237810D02*
X435540Y235270D01*
X430460D02*
X433000Y237810D01*
X467460Y176980D02*
X470000Y174440D01*
X472540Y176980D01*
X470000Y179520D02*
X472540Y176980D01*
X467460D02*
X470000Y179520D01*
X92190Y72000D02*
X94730Y69460D01*
X97270Y72000D01*
X94730Y74540D02*
X97270Y72000D01*
X92190D02*
X94730Y74540D01*
X77730Y72000D02*
X80270Y69460D01*
X82810Y72000D01*
X80270Y74540D02*
X82810Y72000D01*
X77730D02*
X80270Y74540D01*
X512460Y78230D02*
X515000Y75690D01*
X517540Y78230D01*
X515000Y80770D02*
X517540Y78230D01*
X512460D02*
X515000Y80770D01*
X224690Y135500D02*
X227230Y132960D01*
X229770Y135500D01*
X227230Y138040D02*
X229770Y135500D01*
X224690D02*
X227230Y138040D01*
X234688Y115000D02*
X237228Y112459D01*
X239768Y115000D01*
X237228Y117540D02*
X239768Y115000D01*
X234688D02*
X237228Y117540D01*
X417960Y122770D02*
X420500Y120230D01*
X423040Y122770D01*
X420500Y125310D02*
X423040Y122770D01*
X417960D02*
X420500Y125310D01*
X67460Y243250D02*
X70000Y240710D01*
X72540Y243250D01*
X70000Y245790D02*
X72540Y243250D01*
X67460D02*
X70000Y245790D01*
X131460Y164500D02*
X134000Y161960D01*
X136540Y164500D01*
X134000Y167040D02*
X136540Y164500D01*
X131460D02*
X134000Y167040D01*
X289460Y163500D02*
X292000Y160960D01*
X294540Y163500D01*
X292000Y166040D02*
X294540Y163500D01*
X289460D02*
X292000Y166040D01*
X152460Y241750D02*
X155000Y239210D01*
X157540Y241750D01*
X155000Y244290D02*
X157540Y241750D01*
X152460D02*
X155000Y244290D01*
X194960Y203000D02*
X197500Y200460D01*
X200040Y203000D01*
X197500Y205540D02*
X200040Y203000D01*
X194960D02*
X197500Y205540D01*
X9460Y61500D02*
X12000Y58960D01*
X14540Y61500D01*
X12000Y64040D02*
X14540Y61500D01*
X9460D02*
X12000Y64040D01*
X23710Y61750D02*
X26250Y59210D01*
X28790Y61750D01*
X26250Y64290D02*
X28790Y61750D01*
X23710D02*
X26250Y64290D01*
X131710Y131500D02*
X134250Y128960D01*
X136790Y131500D01*
X134250Y134040D02*
X136790Y131500D01*
X131710D02*
X134250Y134040D01*
X280460Y142000D02*
X283000Y139460D01*
X285540Y142000D01*
X283000Y144540D02*
X285540Y142000D01*
X280460D02*
X283000Y144540D01*
X424960Y181750D02*
X427500Y179210D01*
X430040Y181750D01*
X427500Y184290D02*
X430040Y181750D01*
X424960D02*
X427500Y184290D01*
X547460Y127750D02*
X550000Y125210D01*
X552540Y127750D01*
X550000Y130290D02*
X552540Y127750D01*
X547460D02*
X550000Y130290D01*
X314710Y126250D02*
X317250Y123710D01*
X319790Y126250D01*
X317250Y128790D02*
X319790Y126250D01*
X314710D02*
X317250Y128790D01*
X314710Y113750D02*
X317250Y111210D01*
X319790Y113750D01*
X317250Y116290D02*
X319790Y113750D01*
X314710D02*
X317250Y116290D01*
X316710Y97500D02*
X319250Y94960D01*
X321790Y97500D01*
X319250Y100040D02*
X321790Y97500D01*
X316710D02*
X319250Y100040D01*
X316960Y77500D02*
X319500Y74960D01*
X322040Y77500D01*
X319500Y80040D02*
X322040Y77500D01*
X316960D02*
X319500Y80040D01*
X316710Y57500D02*
X319250Y54960D01*
X321790Y57500D01*
X319250Y60040D02*
X321790Y57500D01*
X316710D02*
X319250Y60040D01*
X311210Y37500D02*
X313750Y34960D01*
X316290Y37500D01*
X313750Y40040D02*
X316290Y37500D01*
X311210D02*
X313750Y40040D01*
X161960Y203250D02*
X164500Y200710D01*
X167040Y203250D01*
X164500Y205790D02*
X167040Y203250D01*
X161960D02*
X164500Y205790D01*
X68710Y228750D02*
X71250Y226210D01*
X73790Y228750D01*
X71250Y231290D02*
X73790Y228750D01*
X68710D02*
X71250Y231290D01*
X68710Y190750D02*
X71250Y188210D01*
X73790Y190750D01*
X71250Y193290D02*
X73790Y190750D01*
X68710D02*
X71250Y193290D01*
X127960Y267500D02*
X130500Y264960D01*
X133040Y267500D01*
X130500Y270040D02*
X133040Y267500D01*
X127960D02*
X130500Y270040D01*
X111960Y267250D02*
X114500Y264710D01*
X117040Y267250D01*
X114500Y269790D02*
X117040Y267250D01*
X111960D02*
X114500Y269790D01*
X152460Y263500D02*
X155000Y260960D01*
X157540Y263500D01*
X155000Y266040D02*
X157540Y263500D01*
X152460D02*
X155000Y266040D01*
X197460Y266000D02*
X200000Y263460D01*
X202540Y266000D01*
X200000Y268540D02*
X202540Y266000D01*
X197460D02*
X200000Y268540D01*
X172960Y203000D02*
X175500Y200460D01*
X178040Y203000D01*
X175500Y205540D02*
X178040Y203000D01*
X172960D02*
X175500Y205540D01*
X183960Y202750D02*
X186500Y200210D01*
X189040Y202750D01*
X186500Y205290D02*
X189040Y202750D01*
X183960D02*
X186500Y205290D01*
X216710Y225250D02*
X219250Y222710D01*
X221790Y225250D01*
X219250Y227790D02*
X221790Y225250D01*
X216710D02*
X219250Y227790D01*
X259076Y155409D02*
X261616Y152869D01*
X264156Y155409D01*
X261616Y157949D02*
X264156Y155409D01*
X259076D02*
X261616Y157949D01*
X227960Y226250D02*
X230500Y223710D01*
X233040Y226250D01*
X230500Y228790D02*
X233040Y226250D01*
X227960D02*
X230500Y228790D01*
X239210Y225750D02*
X241750Y223210D01*
X244290Y225750D01*
X241750Y228290D02*
X244290Y225750D01*
X239210D02*
X241750Y228290D01*
X249710Y225750D02*
X252250Y223210D01*
X254790Y225750D01*
X252250Y228290D02*
X254790Y225750D01*
X249710D02*
X252250Y228290D01*
X261210Y225750D02*
X263750Y223210D01*
X266290Y225750D01*
X263750Y228290D02*
X266290Y225750D01*
X261210D02*
X263750Y228290D01*
X237460Y251500D02*
X240000Y248960D01*
X242540Y251500D01*
X240000Y254040D02*
X242540Y251500D01*
X237460D02*
X240000Y254040D01*
X258210Y189000D02*
X260750Y186460D01*
X263290Y189000D01*
X260750Y191540D02*
X263290Y189000D01*
X258210D02*
X260750Y191540D01*
X397710Y250000D02*
X400250Y247460D01*
X402790Y250000D01*
X400250Y252540D02*
X402790Y250000D01*
X397710D02*
X400250Y252540D01*
X377460Y251000D02*
X380000Y248460D01*
X382540Y251000D01*
X380000Y253540D02*
X382540Y251000D01*
X377460D02*
X380000Y253540D01*
X417460Y265250D02*
X420000Y262710D01*
X422540Y265250D01*
X420000Y267790D02*
X422540Y265250D01*
X417460D02*
X420000Y267790D01*
X287460Y75000D02*
X290000Y72460D01*
X292540Y75000D01*
X290000Y77540D02*
X292540Y75000D01*
X287460D02*
X290000Y77540D01*
X324210Y241750D02*
X326750Y239210D01*
X329290Y241750D01*
X326750Y244290D02*
X329290Y241750D01*
X324210D02*
X326750Y244290D01*
X347210Y37500D02*
X349750Y34960D01*
X352290Y37500D01*
X349750Y40040D02*
X352290Y37500D01*
X347210D02*
X349750Y40040D01*
X336960Y19250D02*
X339500Y16710D01*
X342040Y19250D01*
X339500Y21790D02*
X342040Y19250D01*
X336960D02*
X339500Y21790D01*
X330710Y57500D02*
X333250Y54960D01*
X335790Y57500D01*
X333250Y60040D02*
X335790Y57500D01*
X330710D02*
X333250Y60040D01*
X330210Y15000D02*
X332750Y12460D01*
X335290Y15000D01*
X332750Y17540D02*
X335290Y15000D01*
X330210D02*
X332750Y17540D01*
X377710Y126500D02*
X380250Y123960D01*
X382790Y126500D01*
X380250Y129040D02*
X382790Y126500D01*
X377710D02*
X380250Y129040D01*
X377460Y113750D02*
X380000Y111210D01*
X382540Y113750D01*
X380000Y116290D02*
X382540Y113750D01*
X377460D02*
X380000Y116290D01*
X377210Y101250D02*
X379750Y98710D01*
X382290Y101250D01*
X379750Y103790D02*
X382290Y101250D01*
X377210D02*
X379750Y103790D01*
X377460Y88500D02*
X380000Y85960D01*
X382540Y88500D01*
X380000Y91040D02*
X382540Y88500D01*
X377460D02*
X380000Y91040D01*
X355960Y52500D02*
X358500Y49960D01*
X361040Y52500D01*
X358500Y55040D02*
X361040Y52500D01*
X355960D02*
X358500Y55040D01*
X377679Y69783D02*
X380219Y67243D01*
X382759Y69783D01*
X380219Y72323D02*
X382759Y69783D01*
X377679D02*
X380219Y72323D01*
X574960Y126500D02*
X577500Y123960D01*
X580040Y126500D01*
X577500Y129040D02*
X580040Y126500D01*
X574960D02*
X577500Y129040D01*
X437460Y251000D02*
X440000Y248460D01*
X442540Y251000D01*
X440000Y253540D02*
X442540Y251000D01*
X437460D02*
X440000Y253540D01*
X133460Y72000D02*
X136000Y69460D01*
X138540Y72000D01*
X136000Y74540D02*
X138540Y72000D01*
X133460D02*
X136000Y74540D01*
X380710Y153250D02*
X383250Y150710D01*
X385790Y153250D01*
X383250Y155790D02*
X385790Y153250D01*
X380710D02*
X383250Y155790D01*
X393210Y137500D02*
X395750Y134960D01*
X398290Y137500D01*
X395750Y140040D02*
X398290Y137500D01*
X393210D02*
X395750Y140040D01*
X399460Y27750D02*
X402000Y25210D01*
X404540Y27750D01*
X402000Y30290D02*
X404540Y27750D01*
X399460D02*
X402000Y30290D01*
X364960Y27500D02*
X367500Y24960D01*
X370040Y27500D01*
X367500Y30040D02*
X370040Y27500D01*
X364960D02*
X367500Y30040D01*
X407960Y69250D02*
X410500Y66710D01*
X413040Y69250D01*
X410500Y71790D02*
X413040Y69250D01*
X407960D02*
X410500Y71790D01*
X467710Y87000D02*
X470250Y84460D01*
X472790Y87000D01*
X470250Y89540D02*
X472790Y87000D01*
X467710D02*
X470250Y89540D01*
X400710Y127000D02*
X403250Y124460D01*
X405790Y127000D01*
X403250Y129540D02*
X405790Y127000D01*
X400710D02*
X403250Y129540D01*
X405460Y97250D02*
X408000Y94710D01*
X410540Y97250D01*
X408000Y99790D02*
X410540Y97250D01*
X405460D02*
X408000Y99790D01*
X429460Y125000D02*
X432000Y122460D01*
X434540Y125000D01*
X432000Y127540D02*
X434540Y125000D01*
X429460D02*
X432000Y127540D01*
X131460Y153500D02*
X134000Y150960D01*
X136540Y153500D01*
X134000Y156040D02*
X136540Y153500D01*
X131460D02*
X134000Y156040D01*
X153210Y167500D02*
X155750Y164960D01*
X158290Y167500D01*
X155750Y170040D02*
X158290Y167500D01*
X153210D02*
X155750Y170040D01*
X131460Y142500D02*
X134000Y139960D01*
X136540Y142500D01*
X134000Y145040D02*
X136540Y142500D01*
X131460D02*
X134000Y145040D01*
X131210Y120500D02*
X133750Y117960D01*
X136290Y120500D01*
X133750Y123040D02*
X136290Y120500D01*
X131210D02*
X133750Y123040D01*
X83710Y12000D02*
X86250Y9460D01*
X88790Y12000D01*
X86250Y14540D02*
X88790Y12000D01*
X83710D02*
X86250Y14540D01*
X94460Y22250D02*
X97000Y19710D01*
X99540Y22250D01*
X97000Y24790D02*
X99540Y22250D01*
X94460D02*
X97000Y24790D01*
X67460Y50500D02*
X70000Y47960D01*
X72540Y50500D01*
X70000Y53040D02*
X72540Y50500D01*
X67460D02*
X70000Y53040D01*
X346210Y143250D02*
X348750Y140710D01*
X351290Y143250D01*
X348750Y145790D02*
X351290Y143250D01*
X346210D02*
X348750Y145790D01*
X327582Y157628D02*
X330122Y155088D01*
X332662Y157628D01*
X330122Y160168D02*
X332662Y157628D01*
X327582D02*
X330122Y160168D01*
X321960Y182500D02*
X324500Y179960D01*
X327040Y182500D01*
X324500Y185040D02*
X327040Y182500D01*
X321960D02*
X324500Y185040D01*
X378210Y183500D02*
X380750Y180960D01*
X383290Y183500D01*
X380750Y186040D02*
X383290Y183500D01*
X378210D02*
X380750Y186040D01*
X119960Y11750D02*
X122500Y9210D01*
X125040Y11750D01*
X122500Y14290D02*
X125040Y11750D01*
X119960D02*
X122500Y14290D01*
X258210Y109500D02*
X260750Y106960D01*
X263290Y109500D01*
X260750Y112040D02*
X263290Y109500D01*
X258210D02*
X260750Y112040D01*
X258960Y98750D02*
X261500Y96210D01*
X264040Y98750D01*
X261500Y101290D02*
X264040Y98750D01*
X258960D02*
X261500Y101290D01*
X217460Y250750D02*
X220000Y248210D01*
X222540Y250750D01*
X220000Y253290D02*
X222540Y250750D01*
X217460D02*
X220000Y253290D01*
X487460Y152500D02*
X490000Y149960D01*
X492540Y152500D01*
X490000Y155040D02*
X492540Y152500D01*
X487460D02*
X490000Y155040D01*
X487460Y145000D02*
X490000Y142460D01*
X492540Y145000D01*
X490000Y147540D02*
X492540Y145000D01*
X487460D02*
X490000Y147540D01*
X487460Y137500D02*
X490000Y134960D01*
X492540Y137500D01*
X490000Y140040D02*
X492540Y137500D01*
X487460D02*
X490000Y140040D01*
X477460Y137500D02*
X480000Y134960D01*
X482540Y137500D01*
X480000Y140040D02*
X482540Y137500D01*
X477460D02*
X480000Y140040D01*
X103460Y115000D02*
X106000Y112460D01*
X108540Y115000D01*
X106000Y117540D02*
X108540Y115000D01*
X103460D02*
X106000Y117540D01*
X68710Y178500D02*
X71250Y175960D01*
X73790Y178500D01*
X71250Y181040D02*
X73790Y178500D01*
X68710D02*
X71250Y181040D01*
X63960Y130500D02*
X66500Y127960D01*
X69040Y130500D01*
X66500Y133040D02*
X69040Y130500D01*
X63960D02*
X66500Y133040D01*
X33460Y141250D02*
X36000Y138710D01*
X38540Y141250D01*
X36000Y143790D02*
X38540Y141250D01*
X33460D02*
X36000Y143790D01*
X91210Y90250D02*
X93750Y87710D01*
X96290Y90250D01*
X93750Y92790D02*
X96290Y90250D01*
X91210D02*
X93750Y92790D01*
X72210Y92000D02*
X74750Y89460D01*
X77290Y92000D01*
X74750Y94540D02*
X77290Y92000D01*
X72210D02*
X74750Y94540D01*
X66210Y87500D02*
X68750Y84960D01*
X71290Y87500D01*
X68750Y90040D02*
X71290Y87500D01*
X66210D02*
X68750Y90040D01*
X59422Y87681D02*
X61962Y85141D01*
X64502Y87681D01*
X61962Y90221D02*
X64502Y87681D01*
X59422D02*
X61962Y90221D01*
X52422Y87681D02*
X54962Y85141D01*
X57502Y87681D01*
X54962Y90221D02*
X57502Y87681D01*
X52422D02*
X54962Y90221D01*
X45422Y87681D02*
X47962Y85141D01*
X50502Y87681D01*
X47962Y90221D02*
X50502Y87681D01*
X45422D02*
X47962Y90221D01*
X38422Y87681D02*
X40962Y85141D01*
X43502Y87681D01*
X40962Y90221D02*
X43502Y87681D01*
X38422D02*
X40962Y90221D01*
X35105Y117319D02*
X37645Y114779D01*
X40185Y117319D01*
X37645Y119859D02*
X40185Y117319D01*
X35105D02*
X37645Y119859D01*
X42105Y117319D02*
X44645Y114779D01*
X47185Y117319D01*
X44645Y119859D02*
X47185Y117319D01*
X42105D02*
X44645Y119859D01*
X49105Y117319D02*
X51645Y114779D01*
X54185Y117319D01*
X51645Y119859D02*
X54185Y117319D01*
X49105D02*
X51645Y119859D01*
X56105Y117319D02*
X58645Y114779D01*
X61185Y117319D01*
X58645Y119859D02*
X61185Y117319D01*
X56105D02*
X58645Y119859D01*
X63087Y116821D02*
X65627Y114281D01*
X68167Y116821D01*
X65627Y119361D02*
X68167Y116821D01*
X63087D02*
X65627Y119361D01*
X68480Y112358D02*
X71020Y109818D01*
X73560Y112358D01*
X71020Y114898D02*
X73560Y112358D01*
X68480D02*
X71020Y114898D01*
X71960Y118000D02*
X74500Y115460D01*
X77040Y118000D01*
X74500Y120540D02*
X77040Y118000D01*
X71960D02*
X74500Y120540D01*
X71960Y125000D02*
X74500Y122460D01*
X77040Y125000D01*
X74500Y127540D02*
X77040Y125000D01*
X71960D02*
X74500Y127540D01*
X71960Y131750D02*
X74500Y129210D01*
X77040Y131750D01*
X74500Y134290D02*
X77040Y131750D01*
X71960D02*
X74500Y134290D01*
X71960Y139000D02*
X74500Y136460D01*
X77040Y139000D01*
X74500Y141540D02*
X77040Y139000D01*
X71960D02*
X74500Y141540D01*
X72960Y146000D02*
X75500Y143460D01*
X78040Y146000D01*
X75500Y148540D02*
X78040Y146000D01*
X72960D02*
X75500Y148540D01*
X73310Y152951D02*
X75850Y150411D01*
X78390Y152951D01*
X75850Y155491D02*
X78390Y152951D01*
X73310D02*
X75850Y155491D01*
X74048Y159912D02*
X76588Y157372D01*
X79128Y159912D01*
X76588Y162452D02*
X79128Y159912D01*
X74048D02*
X76588Y162452D01*
X76111Y166601D02*
X78651Y164061D01*
X81191Y166601D01*
X78651Y169141D02*
X81191Y166601D01*
X76111D02*
X78651Y169141D01*
X79396Y172782D02*
X81936Y170242D01*
X84476Y172782D01*
X81936Y175322D02*
X84476Y172782D01*
X79396D02*
X81936Y175322D01*
X83827Y178202D02*
X86367Y175662D01*
X88907Y178202D01*
X86367Y180742D02*
X88907Y178202D01*
X83827D02*
X86367Y180742D01*
X88710Y182000D02*
X91250Y179460D01*
X93790Y182000D01*
X91250Y184540D02*
X93790Y182000D01*
X88710D02*
X91250Y184540D01*
X94960Y184750D02*
X97500Y182210D01*
X100040Y184750D01*
X97500Y187290D02*
X100040Y184750D01*
X94960D02*
X97500Y187290D01*
X109210Y185750D02*
X111750Y183210D01*
X114290Y185750D01*
X111750Y188290D02*
X114290Y185750D01*
X109210D02*
X111750Y188290D01*
X18460Y71000D02*
X21000Y68460D01*
X23540Y71000D01*
X21000Y73540D02*
X23540Y71000D01*
X18460D02*
X21000Y73540D01*
X118460Y196000D02*
X121000Y193460D01*
X123540Y196000D01*
X121000Y198540D02*
X123540Y196000D01*
X118460D02*
X121000Y198540D01*
X193460Y71000D02*
X196000Y68460D01*
X198540Y71000D01*
X196000Y73540D02*
X198540Y71000D01*
X193460D02*
X196000Y73540D01*
X193460Y96000D02*
X196000Y93460D01*
X198540Y96000D01*
X196000Y98540D02*
X198540Y96000D01*
X193460D02*
X196000Y98540D01*
X243460Y246000D02*
X246000Y243460D01*
X248540Y246000D01*
X246000Y248540D02*
X248540Y246000D01*
X243460D02*
X246000Y248540D01*
X268460Y246000D02*
X271000Y243460D01*
X273540Y246000D01*
X271000Y248540D02*
X273540Y246000D01*
X268460D02*
X271000Y248540D01*
X293460Y46000D02*
X296000Y43460D01*
X298540Y46000D01*
X296000Y48540D02*
X298540Y46000D01*
X293460D02*
X296000Y48540D01*
X293460Y246000D02*
X296000Y243460D01*
X298540Y246000D01*
X296000Y248540D02*
X298540Y246000D01*
X293460D02*
X296000Y248540D01*
X368460Y246000D02*
X371000Y243460D01*
X373540Y246000D01*
X371000Y248540D02*
X373540Y246000D01*
X368460D02*
X371000Y248540D01*
X418460Y221000D02*
X421000Y218460D01*
X423540Y221000D01*
X421000Y223540D02*
X423540Y221000D01*
X418460D02*
X421000Y223540D01*
X443460Y21000D02*
X446000Y18460D01*
X448540Y21000D01*
X446000Y23540D02*
X448540Y21000D01*
X443460D02*
X446000Y23540D01*
X443460Y96000D02*
X446000Y93460D01*
X448540Y96000D01*
X446000Y98540D02*
X448540Y96000D01*
X443460D02*
X446000Y98540D01*
X468460Y21000D02*
X471000Y18460D01*
X473540Y21000D01*
X471000Y23540D02*
X473540Y21000D01*
X468460D02*
X471000Y23540D01*
X468460Y46000D02*
X471000Y43460D01*
X473540Y46000D01*
X471000Y48540D02*
X473540Y46000D01*
X468460D02*
X471000Y48540D01*
X468460Y71000D02*
X471000Y68460D01*
X473540Y71000D01*
X471000Y73540D02*
X473540Y71000D01*
X468460D02*
X471000Y73540D01*
X493460Y21000D02*
X496000Y18460D01*
X498540Y21000D01*
X496000Y23540D02*
X498540Y21000D01*
X493460D02*
X496000Y23540D01*
X518460Y71000D02*
X521000Y68460D01*
X523540Y71000D01*
X521000Y73540D02*
X523540Y71000D01*
X518460D02*
X521000Y73540D01*
X518460Y221000D02*
X521000Y218460D01*
X523540Y221000D01*
X521000Y223540D02*
X523540Y221000D01*
X518460D02*
X521000Y223540D01*
X543460Y21000D02*
X546000Y18460D01*
X548540Y21000D01*
X546000Y23540D02*
X548540Y21000D01*
X543460D02*
X546000Y23540D01*
X543460Y96000D02*
X546000Y93460D01*
X548540Y96000D01*
X546000Y98540D02*
X548540Y96000D01*
X543460D02*
X546000Y98540D01*
X543460Y121000D02*
X546000Y118460D01*
X548540Y121000D01*
X546000Y123540D02*
X548540Y121000D01*
X543460D02*
X546000Y123540D01*
X543460Y196000D02*
X546000Y193460D01*
X548540Y196000D01*
X546000Y198540D02*
X548540Y196000D01*
X543460D02*
X546000Y198540D01*
X568460Y71000D02*
X571000Y68460D01*
X573540Y71000D01*
X571000Y73540D02*
X573540Y71000D01*
X568460D02*
X571000Y73540D01*
X568460Y96000D02*
X571000Y93460D01*
X573540Y96000D01*
X571000Y98540D02*
X573540Y96000D01*
X568460D02*
X571000Y98540D01*
X568460Y121000D02*
X571000Y118460D01*
X573540Y121000D01*
X571000Y123540D02*
X573540Y121000D01*
X568460D02*
X571000Y123540D01*
X568460Y196000D02*
X571000Y193460D01*
X573540Y196000D01*
X571000Y198540D02*
X573540Y196000D01*
X568460D02*
X571000Y198540D01*
X568460Y221000D02*
X571000Y218460D01*
X573540Y221000D01*
X571000Y223540D02*
X573540Y221000D01*
X568460D02*
X571000Y223540D01*
X593460Y21000D02*
X596000Y18460D01*
X598540Y21000D01*
X596000Y23540D02*
X598540Y21000D01*
X593460D02*
X596000Y23540D01*
X593460Y96000D02*
X596000Y93460D01*
X598540Y96000D01*
X596000Y98540D02*
X598540Y96000D01*
X593460D02*
X596000Y98540D01*
X593460Y196000D02*
X596000Y193460D01*
X598540Y196000D01*
X596000Y198540D02*
X598540Y196000D01*
X593460D02*
X596000Y198540D01*
X593460Y221000D02*
X596000Y218460D01*
X598540Y221000D01*
X596000Y223540D02*
X598540Y221000D01*
X593460D02*
X596000Y223540D01*
X618460Y21000D02*
X621000Y18460D01*
X623540Y21000D01*
X621000Y23540D02*
X623540Y21000D01*
X618460D02*
X621000Y23540D01*
X618460Y46000D02*
X621000Y43460D01*
X623540Y46000D01*
X621000Y48540D02*
X623540Y46000D01*
X618460D02*
X621000Y48540D01*
X618460Y71000D02*
X621000Y68460D01*
X623540Y71000D01*
X621000Y73540D02*
X623540Y71000D01*
X618460D02*
X621000Y73540D01*
X618460Y96000D02*
X621000Y93460D01*
X623540Y96000D01*
X621000Y98540D02*
X623540Y96000D01*
X618460D02*
X621000Y98540D01*
X618460Y121000D02*
X621000Y118460D01*
X623540Y121000D01*
X621000Y123540D02*
X623540Y121000D01*
X618460D02*
X621000Y123540D01*
X618460Y146000D02*
X621000Y143460D01*
X623540Y146000D01*
X621000Y148540D02*
X623540Y146000D01*
X618460D02*
X621000Y148540D01*
X618460Y171000D02*
X621000Y168460D01*
X623540Y171000D01*
X621000Y173540D02*
X623540Y171000D01*
X618460D02*
X621000Y173540D01*
X618460Y196000D02*
X621000Y193460D01*
X623540Y196000D01*
X621000Y198540D02*
X623540Y196000D01*
X618460D02*
X621000Y198540D01*
X618460Y221000D02*
X621000Y218460D01*
X623540Y221000D01*
X621000Y223540D02*
X623540Y221000D01*
X618460D02*
X621000Y223540D01*
X426960Y258250D02*
X429500Y255710D01*
X432040Y258250D01*
X429500Y260790D02*
X432040Y258250D01*
X426960D02*
X429500Y260790D01*
X206960Y258000D02*
X209500Y255460D01*
X212040Y258000D01*
X209500Y260540D02*
X212040Y258000D01*
X206960D02*
X209500Y260540D01*
X258710Y166250D02*
X261250Y163710D01*
X263790Y166250D01*
X261250Y168790D02*
X263790Y166250D01*
X258710D02*
X261250Y168790D01*
X258710Y173750D02*
X261250Y171210D01*
X263790Y173750D01*
X261250Y176290D02*
X263790Y173750D01*
X258710D02*
X261250Y176290D01*
X55710Y147500D02*
X58250Y144960D01*
X60790Y147500D01*
X58250Y150040D02*
X60790Y147500D01*
X55710D02*
X58250Y150040D01*
X41960Y141250D02*
X44500Y138710D01*
X47040Y141250D01*
X44500Y143790D02*
X47040Y141250D01*
X41960D02*
X44500Y143790D01*
X118960Y237250D02*
X121500Y234710D01*
X124040Y237250D01*
X121500Y239790D02*
X124040Y237250D01*
X118960D02*
X121500Y239790D01*
X106210Y225000D02*
X108750Y222460D01*
X111290Y225000D01*
X108750Y227540D02*
X111290Y225000D01*
X106210D02*
X108750Y227540D01*
X86960Y191250D02*
X89500Y188710D01*
X92040Y191250D01*
X89500Y193790D02*
X92040Y191250D01*
X86960D02*
X89500Y193790D01*
X101960Y185750D02*
X104500Y183210D01*
X107040Y185750D01*
X104500Y188290D02*
X107040Y185750D01*
X101960D02*
X104500Y188290D01*
X109210Y163500D02*
X111750Y160960D01*
X114290Y163500D01*
X111750Y166040D02*
X114290Y163500D01*
X109210D02*
X111750Y166040D01*
X102210Y165250D02*
X104750Y162710D01*
X107290Y165250D01*
X104750Y167790D02*
X107290Y165250D01*
X102210D02*
X104750Y167790D01*
X96460Y161500D02*
X99000Y158960D01*
X101540Y161500D01*
X99000Y164040D02*
X101540Y161500D01*
X96460D02*
X99000Y164040D01*
X93960Y155250D02*
X96500Y152710D01*
X99040Y155250D01*
X96500Y157790D02*
X99040Y155250D01*
X93960D02*
X96500Y157790D01*
X94210Y148500D02*
X96750Y145960D01*
X99290Y148500D01*
X96750Y151040D02*
X99290Y148500D01*
X94210D02*
X96750Y151040D01*
X94960Y135000D02*
X97500Y132460D01*
X100040Y135000D01*
X97500Y137540D02*
X100040Y135000D01*
X94960D02*
X97500Y137540D01*
X94960Y128000D02*
X97500Y125460D01*
X100040Y128000D01*
X97500Y130540D02*
X100040Y128000D01*
X94960D02*
X97500Y130540D01*
X94960Y105250D02*
X97500Y102710D01*
X100040Y105250D01*
X97500Y107790D02*
X100040Y105250D01*
X94960D02*
X97500Y107790D01*
X94960Y97500D02*
X97500Y94960D01*
X100040Y97500D01*
X97500Y100040D02*
X100040Y97500D01*
X94960D02*
X97500Y100040D01*
X60210Y41750D02*
X62750Y39210D01*
X65290Y41750D01*
X62750Y44290D02*
X65290Y41750D01*
X60210D02*
X62750Y44290D01*
X91210Y225000D02*
X93750Y222460D01*
X96290Y225000D01*
X93750Y227540D02*
X96290Y225000D01*
X91210D02*
X93750Y227540D01*
X67710Y218250D02*
X70250Y215710D01*
X72790Y218250D01*
X70250Y220790D02*
X72790Y218250D01*
X67710D02*
X70250Y220790D01*
X73559Y204751D02*
X76099Y202211D01*
X78639Y204751D01*
X76099Y207292D02*
X78639Y204751D01*
X73559D02*
X76099Y207292D01*
X73710Y212250D02*
X76250Y209710D01*
X78790Y212250D01*
X76250Y214790D02*
X78790Y212250D01*
X73710D02*
X76250Y214790D01*
X194530Y226370D02*
X197070Y223830D01*
X199610Y226370D01*
X197070Y228910D02*
X199610Y226370D01*
X194530D02*
X197070Y228910D01*
X206510Y232160D02*
X209050Y229620D01*
X211590Y232160D01*
X209050Y234700D02*
X211590Y232160D01*
X206510D02*
X209050Y234700D01*
X170770Y245110D02*
X173310Y242570D01*
X175850Y245110D01*
X173310Y247650D02*
X175850Y245110D01*
X170770D02*
X173310Y247650D01*
X612460Y252460D02*
X615000Y253730D01*
X617540Y252460D01*
X616270Y255000D02*
X617540Y252460D01*
X616270Y255000D02*
X617540Y257540D01*
X615000Y256270D02*
X617540Y257540D01*
X612460D02*
X615000Y256270D01*
X612460Y257540D02*
X613730Y255000D01*
X612460Y252460D02*
X613730Y255000D01*
X32460Y22460D02*
X35000Y23730D01*
X37540Y22460D01*
X36270Y25000D02*
X37540Y22460D01*
X36270Y25000D02*
X37540Y27540D01*
X35000Y26270D02*
X37540Y27540D01*
X32460D02*
X35000Y26270D01*
X32460Y27540D02*
X33730Y25000D01*
X32460Y22460D02*
X33730Y25000D01*
X58100Y158710D02*
X60640Y163790D01*
X55560D02*
X60640D01*
X55560D02*
X58100Y158710D01*
X16230Y148730D02*
X17500Y147460D01*
X14960Y148730D02*
X16230D01*
X14960D02*
X16230Y150000D01*
X14960Y151270D02*
X16230Y150000D01*
X14960Y151270D02*
X16230D01*
X17500Y152540D01*
X18770Y151270D01*
X20040D01*
X18770Y150000D02*
X20040Y151270D01*
X18770Y150000D02*
X20040Y148730D01*
X18770D02*
X20040D01*
X17500Y147460D02*
X18770Y148730D01*
X16230Y268730D02*
X17500Y267460D01*
X14960Y268730D02*
X16230D01*
X14960D02*
X16230Y270000D01*
X14960Y271270D02*
X16230Y270000D01*
X14960Y271270D02*
X16230D01*
X17500Y272540D01*
X18770Y271270D01*
X20040D01*
X18770Y270000D02*
X20040Y271270D01*
X18770Y270000D02*
X20040Y268730D01*
X18770D02*
X20040D01*
X17500Y267460D02*
X18770Y268730D01*
X58099Y256209D02*
X60639Y261289D01*
X55559D02*
X60639D01*
X55559D02*
X58099Y256209D01*
X570560Y15060D02*
X575640D01*
Y20140D01*
X570560D02*
X575640D01*
X570560Y15060D02*
Y20140D01*
X595960Y65860D02*
X601040D01*
Y70940D01*
X595960D02*
X601040D01*
X595960Y65860D02*
Y70940D01*
X519760Y40460D02*
Y41730D01*
X521030Y43000D01*
X519760Y44270D02*
X521030Y43000D01*
X519760Y44270D02*
Y45540D01*
X521030D01*
X522300Y44270D01*
X523570Y45540D01*
X524840D01*
Y44270D02*
Y45540D01*
X523570Y43000D02*
X524840Y44270D01*
X523570Y43000D02*
X524840Y41730D01*
Y40460D02*
Y41730D01*
X523570Y40460D02*
X524840D01*
X522300Y41730D02*
X523570Y40460D01*
X521030D02*
X522300Y41730D01*
X519760Y40460D02*
X521030D01*
X545160D02*
Y41730D01*
X546430Y43000D01*
X545160Y44270D02*
X546430Y43000D01*
X545160Y44270D02*
Y45540D01*
X546430D01*
X547700Y44270D01*
X548970Y45540D01*
X550240D01*
Y44270D02*
Y45540D01*
X548970Y43000D02*
X550240Y44270D01*
X548970Y43000D02*
X550240Y41730D01*
Y40460D02*
Y41730D01*
X548970Y40460D02*
X550240D01*
X547700Y41730D02*
X548970Y40460D01*
X546430D02*
X547700Y41730D01*
X545160Y40460D02*
X546430D01*
X570560D02*
Y41730D01*
X571830Y43000D01*
X570560Y44270D02*
X571830Y43000D01*
X570560Y44270D02*
Y45540D01*
X571830D01*
X573100Y44270D01*
X574370Y45540D01*
X575640D01*
Y44270D02*
Y45540D01*
X574370Y43000D02*
X575640Y44270D01*
X574370Y43000D02*
X575640Y41730D01*
Y40460D02*
Y41730D01*
X574370Y40460D02*
X575640D01*
X573100Y41730D02*
X574370Y40460D01*
X571830D02*
X573100Y41730D01*
X570560Y40460D02*
X571830D01*
X595960D02*
Y41730D01*
X597230Y43000D01*
X595960Y44270D02*
X597230Y43000D01*
X595960Y44270D02*
Y45540D01*
X597230D01*
X598500Y44270D01*
X599770Y45540D01*
X601040D01*
Y44270D02*
Y45540D01*
X599770Y43000D02*
X601040Y44270D01*
X599770Y43000D02*
X601040Y41730D01*
Y40460D02*
Y41730D01*
X599770Y40460D02*
X601040D01*
X598500Y41730D02*
X599770Y40460D01*
X597230D02*
X598500Y41730D01*
X595960Y40460D02*
X597230D01*
X519760Y15060D02*
X524840D01*
Y20140D01*
X519760D02*
X524840D01*
X519760Y15060D02*
Y20140D01*
X545160Y65860D02*
X550240D01*
Y70940D01*
X545160D02*
X550240D01*
X545160Y65860D02*
Y70940D01*
X494360Y65860D02*
X499440D01*
Y70940D01*
X494360D02*
X499440D01*
X494360Y65860D02*
Y70940D01*
Y40460D02*
Y41730D01*
X495630Y43000D01*
X494360Y44270D02*
X495630Y43000D01*
X494360Y44270D02*
Y45540D01*
X495630D01*
X496900Y44270D01*
X498170Y45540D01*
X499440D01*
Y44270D02*
Y45540D01*
X498170Y43000D02*
X499440Y44270D01*
X498170Y43000D02*
X499440Y41730D01*
Y40460D02*
Y41730D01*
X498170Y40460D02*
X499440D01*
X496900Y41730D02*
X498170Y40460D01*
X495630D02*
X496900Y41730D01*
X494360Y40460D02*
X495630D01*
X452660Y159960D02*
X457740D01*
Y165040D01*
X452660D02*
X457740D01*
X452660Y159960D02*
Y165040D01*
X427260Y159960D02*
X432340D01*
Y165040D01*
X427260D02*
X432340D01*
X427260Y159960D02*
Y165040D01*
X598460Y156230D02*
X599730D01*
X598460D02*
Y158770D01*
X599730D01*
Y160040D01*
X602270D01*
Y158770D02*
Y160040D01*
Y158770D02*
X603540D01*
Y156230D02*
Y158770D01*
X602270Y156230D02*
X603540D01*
X602270Y154960D02*
Y156230D01*
X599730Y154960D02*
X602270D01*
X599730D02*
Y156230D01*
X598460Y121230D02*
X599730D01*
X598460D02*
Y123770D01*
X599730D01*
Y125040D01*
X602270D01*
Y123770D02*
Y125040D01*
Y123770D02*
X603540D01*
Y121230D02*
Y123770D01*
X602270Y121230D02*
X603540D01*
X602270Y119960D02*
Y121230D01*
X599730Y119960D02*
X602270D01*
X599730D02*
Y121230D01*
X545160Y209060D02*
X550240D01*
Y214140D01*
X545160D02*
X550240D01*
X545160Y209060D02*
Y214140D01*
X570560Y259860D02*
X575640D01*
Y264940D01*
X570560D02*
X575640D01*
X570560Y259860D02*
Y264940D01*
X494360Y234460D02*
Y235730D01*
X495630Y237000D01*
X494360Y238270D02*
X495630Y237000D01*
X494360Y238270D02*
Y239540D01*
X495630D01*
X496900Y238270D01*
X498170Y239540D01*
X499440D01*
Y238270D02*
Y239540D01*
X498170Y237000D02*
X499440Y238270D01*
X498170Y237000D02*
X499440Y235730D01*
Y234460D02*
Y235730D01*
X498170Y234460D02*
X499440D01*
X496900Y235730D02*
X498170Y234460D01*
X495630D02*
X496900Y235730D01*
X494360Y234460D02*
X495630D01*
X519760D02*
Y235730D01*
X521030Y237000D01*
X519760Y238270D02*
X521030Y237000D01*
X519760Y238270D02*
Y239540D01*
X521030D01*
X522300Y238270D01*
X523570Y239540D01*
X524840D01*
Y238270D02*
Y239540D01*
X523570Y237000D02*
X524840Y238270D01*
X523570Y237000D02*
X524840Y235730D01*
Y234460D02*
Y235730D01*
X523570Y234460D02*
X524840D01*
X522300Y235730D02*
X523570Y234460D01*
X521030D02*
X522300Y235730D01*
X519760Y234460D02*
X521030D01*
X545160D02*
Y235730D01*
X546430Y237000D01*
X545160Y238270D02*
X546430Y237000D01*
X545160Y238270D02*
Y239540D01*
X546430D01*
X547700Y238270D01*
X548970Y239540D01*
X550240D01*
Y238270D02*
Y239540D01*
X548970Y237000D02*
X550240Y238270D01*
X548970Y237000D02*
X550240Y235730D01*
Y234460D02*
Y235730D01*
X548970Y234460D02*
X550240D01*
X547700Y235730D02*
X548970Y234460D01*
X546430D02*
X547700Y235730D01*
X545160Y234460D02*
X546430D01*
X570560D02*
Y235730D01*
X571830Y237000D01*
X570560Y238270D02*
X571830Y237000D01*
X570560Y238270D02*
Y239540D01*
X571830D01*
X573100Y238270D01*
X574370Y239540D01*
X575640D01*
Y238270D02*
Y239540D01*
X574370Y237000D02*
X575640Y238270D01*
X574370Y237000D02*
X575640Y235730D01*
Y234460D02*
Y235730D01*
X574370Y234460D02*
X575640D01*
X573100Y235730D02*
X574370Y234460D01*
X571830D02*
X573100Y235730D01*
X570560Y234460D02*
X571830D01*
X494360Y209060D02*
X499440D01*
Y214140D01*
X494360D02*
X499440D01*
X494360Y209060D02*
Y214140D01*
X519760Y259860D02*
X524840D01*
Y264940D01*
X519760D02*
X524840D01*
X519760Y259860D02*
Y264940D01*
X468960Y259860D02*
X474040D01*
Y264940D01*
X468960D02*
X474040D01*
X468960Y259860D02*
Y264940D01*
Y234460D02*
Y235730D01*
X470230Y237000D01*
X468960Y238270D02*
X470230Y237000D01*
X468960Y238270D02*
Y239540D01*
X470230D01*
X471500Y238270D01*
X472770Y239540D01*
X474040D01*
Y238270D02*
Y239540D01*
X472770Y237000D02*
X474040Y238270D01*
X472770Y237000D02*
X474040Y235730D01*
Y234460D02*
Y235730D01*
X472770Y234460D02*
X474040D01*
X471500Y235730D02*
X472770Y234460D01*
X470230D02*
X471500Y235730D01*
X468960Y234460D02*
X470230D01*
X427260Y52460D02*
X432340D01*
Y57540D01*
X427260D02*
X432340D01*
X427260Y52460D02*
Y57540D01*
X452660Y52460D02*
X457740D01*
Y57540D01*
X452660D02*
X457740D01*
X452660Y52460D02*
Y57540D01*
X317660Y222460D02*
X322740D01*
Y227540D01*
X317660D02*
X322740D01*
X317660Y222460D02*
Y227540D01*
X292260Y222460D02*
X297340D01*
Y227540D01*
X292260D02*
X297340D01*
X292260Y222460D02*
Y227540D01*
X377660Y222460D02*
X382740D01*
Y227540D01*
X377660D02*
X382740D01*
X377660Y222460D02*
Y227540D01*
X352260Y222460D02*
X357340D01*
Y227540D01*
X352260D02*
X357340D01*
X352260Y222460D02*
Y227540D01*
D63*
X-17542Y695890D02*
X1177459D01*
X-17542Y391090D02*
X1177459D01*
X-17542Y352990D02*
X1177459D01*
Y733990D01*
X-17542D02*
X1177459D01*
X-17542Y352990D02*
Y733990D01*
X884172Y352990D02*
Y733990D01*
X697786Y352990D02*
Y733990D01*
X569294Y352990D02*
Y733990D01*
X274740Y352990D02*
Y733990D01*
X122380Y352990D02*
Y733990D01*
D64*
X895602Y725602D02*
Y707320D01*
Y716461D01*
X907790D01*
Y725602D01*
Y707320D01*
X916931D02*
X923025D01*
X926072Y710367D01*
Y716461D01*
X923025Y719508D01*
X916931D01*
X913884Y716461D01*
Y710367D01*
X916931Y707320D01*
X932166D02*
X938260D01*
X935213D01*
Y725602D01*
X932166D01*
X956542Y707320D02*
X950448D01*
X947401Y710367D01*
Y716461D01*
X950448Y719508D01*
X956542D01*
X959589Y716461D01*
Y713414D01*
X947401D01*
X983965Y725602D02*
Y707320D01*
X996153D01*
X1011388D02*
X1005294D01*
X1002247Y710367D01*
Y716461D01*
X1005294Y719508D01*
X1011388D01*
X1014435Y716461D01*
Y713414D01*
X1002247D01*
X1020529Y707320D02*
Y719508D01*
X1029670D01*
X1032717Y716461D01*
Y707320D01*
X1044905Y701226D02*
X1047952D01*
X1050999Y704273D01*
Y719508D01*
X1041858D01*
X1038811Y716461D01*
Y710367D01*
X1041858Y707320D01*
X1050999D01*
X1060140Y722555D02*
Y719508D01*
X1057093D01*
X1063187D01*
X1060140D01*
Y710367D01*
X1063187Y707320D01*
X1072328Y725602D02*
Y707320D01*
Y716461D01*
X1075375Y719508D01*
X1081469D01*
X1084517Y716461D01*
Y707320D01*
X709216Y725602D02*
Y707320D01*
Y716461D01*
X721404D01*
Y725602D01*
Y707320D01*
X730545D02*
X736639D01*
X739686Y710367D01*
Y716461D01*
X736639Y719508D01*
X730545D01*
X727498Y716461D01*
Y710367D01*
X730545Y707320D01*
X745780D02*
X751874D01*
X748827D01*
Y725602D01*
X745780D01*
X770156Y707320D02*
X764062D01*
X761015Y710367D01*
Y716461D01*
X764062Y719508D01*
X770156D01*
X773203Y716461D01*
Y713414D01*
X761015D01*
X797579Y725602D02*
X809767D01*
X803673D01*
Y707320D01*
X815861Y719508D02*
Y710367D01*
X818908Y707320D01*
X828049D01*
Y704273D01*
X825002Y701226D01*
X821955D01*
X828049Y707320D02*
Y719508D01*
X834144Y701226D02*
Y719508D01*
X843285D01*
X846331Y716461D01*
Y710367D01*
X843285Y707320D01*
X834144D01*
X861567D02*
X855473D01*
X852426Y710367D01*
Y716461D01*
X855473Y719508D01*
X861567D01*
X864614Y716461D01*
Y713414D01*
X852426D01*
X580723Y707320D02*
Y725602D01*
X589865D01*
X592911Y722555D01*
Y716461D01*
X589865Y713414D01*
X580723D01*
X599006Y707320D02*
X605100D01*
X602052D01*
Y725602D01*
X599006D01*
X617288Y719508D02*
X623382D01*
X626429Y716461D01*
Y707320D01*
X617288D01*
X614241Y710367D01*
X617288Y713414D01*
X626429D01*
X635570Y722555D02*
Y719508D01*
X632523D01*
X638617D01*
X635570D01*
Y710367D01*
X638617Y707320D01*
X656899D02*
X650805D01*
X647758Y710367D01*
Y716461D01*
X650805Y719508D01*
X656899D01*
X659946Y716461D01*
Y713414D01*
X647758D01*
X678228Y725602D02*
Y707320D01*
X669087D01*
X666040Y710367D01*
Y716461D01*
X669087Y719508D01*
X678228D01*
X286170Y725602D02*
Y707320D01*
Y716461D01*
X298358D01*
Y725602D01*
Y707320D01*
X307499D02*
X313593D01*
X316640Y710367D01*
Y716461D01*
X313593Y719508D01*
X307499D01*
X304452Y716461D01*
Y710367D01*
X307499Y707320D01*
X322734D02*
X328828D01*
X325781D01*
Y725602D01*
X322734D01*
X347110Y707320D02*
X341016D01*
X337969Y710367D01*
Y716461D01*
X341016Y719508D01*
X347110D01*
X350157Y716461D01*
Y713414D01*
X337969D01*
X386721Y722555D02*
X383674Y725602D01*
X377580D01*
X374533Y722555D01*
Y719508D01*
X377580Y716461D01*
X383674D01*
X386721Y713414D01*
Y710367D01*
X383674Y707320D01*
X377580D01*
X374533Y710367D01*
X392815Y707320D02*
X398909D01*
X395862D01*
Y719508D01*
X392815D01*
X408050D02*
X420238D01*
X408050Y707320D01*
X420238D01*
X435473D02*
X429379D01*
X426332Y710367D01*
Y716461D01*
X429379Y719508D01*
X435473D01*
X438520Y716461D01*
Y713414D01*
X426332D01*
X145998Y722555D02*
X142951Y725602D01*
X136857D01*
X133810Y722555D01*
Y710367D01*
X136857Y707320D01*
X142951D01*
X145998Y710367D01*
X155139Y707320D02*
X161233D01*
X164280Y710367D01*
Y716461D01*
X161233Y719508D01*
X155139D01*
X152092Y716461D01*
Y710367D01*
X155139Y707320D01*
X170374Y719508D02*
Y710367D01*
X173421Y707320D01*
X182562D01*
Y719508D01*
X188656Y707320D02*
Y719508D01*
X197797D01*
X200844Y716461D01*
Y707320D01*
X209985Y722555D02*
Y719508D01*
X206938D01*
X213032D01*
X209985D01*
Y710367D01*
X213032Y707320D01*
X17506Y722555D02*
X14459Y725602D01*
X8365D01*
X5318Y722555D01*
Y719508D01*
X8365Y716461D01*
X14459D01*
X17506Y713414D01*
Y710367D01*
X14459Y707320D01*
X8365D01*
X5318Y710367D01*
X23600Y719508D02*
Y710367D01*
X26647Y707320D01*
X35788D01*
Y704273D01*
X32741Y701226D01*
X29694D01*
X35788Y707320D02*
Y719508D01*
X41882Y707320D02*
Y719508D01*
X44929D01*
X47976Y716461D01*
Y707320D01*
Y716461D01*
X51023Y719508D01*
X54070Y716461D01*
Y707320D01*
X60164Y725602D02*
Y707320D01*
X69305D01*
X72352Y710367D01*
Y713414D01*
Y716461D01*
X69305Y719508D01*
X60164D01*
X81493Y707320D02*
X87587D01*
X90634Y710367D01*
Y716461D01*
X87587Y719508D01*
X81493D01*
X78446Y716461D01*
Y710367D01*
X81493Y707320D01*
X96728D02*
X102822D01*
X99775D01*
Y725602D01*
X96728D01*
D65*
X267621Y317438D02*
Y302203D01*
Y309821D01*
X277777D01*
Y317438D01*
Y302203D01*
X285395D02*
X290473D01*
X293013Y304742D01*
Y309821D01*
X290473Y312360D01*
X285395D01*
X282856Y309821D01*
Y304742D01*
X285395Y302203D01*
X298091D02*
X303169D01*
X300630D01*
Y317438D01*
X298091D01*
X318404Y302203D02*
X313326D01*
X310787Y304742D01*
Y309821D01*
X313326Y312360D01*
X318404D01*
X320943Y309821D01*
Y307281D01*
X310787D01*
X341257Y317438D02*
Y302203D01*
X351414D01*
X364109D02*
X359031D01*
X356492Y304742D01*
Y309821D01*
X359031Y312360D01*
X364109D01*
X366649Y309821D01*
Y307281D01*
X356492D01*
X371727Y302203D02*
Y312360D01*
X379344D01*
X381884Y309821D01*
Y302203D01*
X392040Y297125D02*
X394580D01*
X397119Y299664D01*
Y312360D01*
X389501D01*
X386962Y309821D01*
Y304742D01*
X389501Y302203D01*
X397119D01*
X404736Y314899D02*
Y312360D01*
X402197D01*
X407276D01*
X404736D01*
Y304742D01*
X407276Y302203D01*
X414893Y317438D02*
Y302203D01*
Y309821D01*
X417432Y312360D01*
X422511D01*
X425050Y309821D01*
Y302203D01*
X267621Y327597D02*
Y342832D01*
X275238D01*
X277777Y340293D01*
Y335214D01*
X275238Y332675D01*
X267621D01*
X272699D02*
X277777Y327597D01*
X285395D02*
X290473D01*
X293013Y330136D01*
Y335214D01*
X290473Y337753D01*
X285395D01*
X282856Y335214D01*
Y330136D01*
X285395Y327597D01*
X298091Y337753D02*
Y330136D01*
X300630Y327597D01*
X308248D01*
Y337753D01*
X315865Y340293D02*
Y337753D01*
X313326D01*
X318404D01*
X315865D01*
Y330136D01*
X318404Y327597D01*
X333639D02*
X328561D01*
X326022Y330136D01*
Y335214D01*
X328561Y337753D01*
X333639D01*
X336179Y335214D01*
Y332675D01*
X326022D01*
X351414Y342832D02*
Y327597D01*
X343796D01*
X341257Y330136D01*
Y335214D01*
X343796Y337753D01*
X351414D01*
X371727Y327597D02*
Y342832D01*
X379344D01*
X381884Y340293D01*
Y335214D01*
X379344Y332675D01*
X371727D01*
X389501Y337753D02*
X394580D01*
X397119Y335214D01*
Y327597D01*
X389501D01*
X386962Y330136D01*
X389501Y332675D01*
X397119D01*
X404736Y340293D02*
Y337753D01*
X402197D01*
X407276D01*
X404736D01*
Y330136D01*
X407276Y327597D01*
X414893Y342832D02*
Y327597D01*
Y335214D01*
X417432Y337753D01*
X422511D01*
X425050Y335214D01*
Y327597D01*
X445363Y342832D02*
Y327597D01*
X455520D01*
X468216D02*
X463137D01*
X460598Y330136D01*
Y335214D01*
X463137Y337753D01*
X468216D01*
X470755Y335214D01*
Y332675D01*
X460598D01*
X475833Y327597D02*
Y337753D01*
X483451D01*
X485990Y335214D01*
Y327597D01*
X496147Y322518D02*
X498686D01*
X501225Y325057D01*
Y337753D01*
X493608D01*
X491068Y335214D01*
Y330136D01*
X493608Y327597D01*
X501225D01*
X508843Y340293D02*
Y337753D01*
X506303D01*
X511382D01*
X508843D01*
Y330136D01*
X511382Y327597D01*
X518999Y342832D02*
Y327597D01*
Y335214D01*
X521539Y337753D01*
X526617D01*
X529156Y335214D01*
Y327597D01*
X15474Y340293D02*
X12935Y342832D01*
X7857D01*
X5318Y340293D01*
Y337753D01*
X7857Y335214D01*
X12935D01*
X15474Y332675D01*
Y330136D01*
X12935Y327597D01*
X7857D01*
X5318Y330136D01*
X20553Y327597D02*
X25631D01*
X23092D01*
Y342832D01*
X20553D01*
X35788Y327597D02*
X40866D01*
X43405Y330136D01*
Y335214D01*
X40866Y337753D01*
X35788D01*
X33249Y335214D01*
Y330136D01*
X35788Y327597D01*
X51023Y340293D02*
Y337753D01*
X48484D01*
X53562D01*
X51023D01*
Y330136D01*
X53562Y327597D01*
X86571Y342832D02*
Y327597D01*
X78954D01*
X76415Y330136D01*
Y335214D01*
X78954Y337753D01*
X86571D01*
X99267Y327597D02*
X94189D01*
X91650Y330136D01*
Y335214D01*
X94189Y337753D01*
X99267D01*
X101806Y335214D01*
Y332675D01*
X91650D01*
X109424Y327597D02*
Y340293D01*
Y335214D01*
X106885D01*
X111963D01*
X109424D01*
Y340293D01*
X111963Y342832D01*
X119581Y327597D02*
X124659D01*
X122120D01*
Y337753D01*
X119581D01*
X132276Y327597D02*
Y337753D01*
X139894D01*
X142433Y335214D01*
Y327597D01*
X147512D02*
X152590D01*
X150051D01*
Y337753D01*
X147512D01*
X162747Y340293D02*
Y337753D01*
X160207D01*
X165286D01*
X162747D01*
Y330136D01*
X165286Y327597D01*
X172903D02*
X177982D01*
X175443D01*
Y337753D01*
X172903D01*
X188138Y327597D02*
X193217D01*
X195756Y330136D01*
Y335214D01*
X193217Y337753D01*
X188138D01*
X185599Y335214D01*
Y330136D01*
X188138Y327597D01*
X200834D02*
Y337753D01*
X208452D01*
X210991Y335214D01*
Y327597D01*
X216069D02*
X223687D01*
X226226Y330136D01*
X223687Y332675D01*
X218608D01*
X216069Y335214D01*
X218608Y337753D01*
X226226D01*
X246539D02*
X249079D01*
Y335214D01*
X246539D01*
Y337753D01*
Y330136D02*
X249079D01*
Y327597D01*
X246539D01*
Y330136D01*
M02*
