G75*
%MOIN*%
%OFA0B0*%
%FSLAX24Y24*%
%IPPOS*%
%LPD*%
%AMOC8*
5,1,8,0,0,1.08239X$1,22.5*
%
%ADD10C,0.0000*%
%ADD11C,0.0060*%
%ADD12C,0.0040*%
%ADD13C,0.0080*%
%ADD14C,0.0050*%
%ADD15C,0.0020*%
D10*
X008890Y021289D02*
X008892Y021336D01*
X008898Y021382D01*
X008908Y021428D01*
X008921Y021473D01*
X008939Y021516D01*
X008960Y021558D01*
X008984Y021598D01*
X009012Y021635D01*
X009043Y021670D01*
X009077Y021703D01*
X009113Y021732D01*
X009152Y021758D01*
X009193Y021781D01*
X009236Y021800D01*
X009280Y021816D01*
X009325Y021828D01*
X009371Y021836D01*
X009418Y021840D01*
X009464Y021840D01*
X009511Y021836D01*
X009557Y021828D01*
X009602Y021816D01*
X009646Y021800D01*
X009689Y021781D01*
X009730Y021758D01*
X009769Y021732D01*
X009805Y021703D01*
X009839Y021670D01*
X009870Y021635D01*
X009898Y021598D01*
X009922Y021558D01*
X009943Y021516D01*
X009961Y021473D01*
X009974Y021428D01*
X009984Y021382D01*
X009990Y021336D01*
X009992Y021289D01*
X009990Y021242D01*
X009984Y021196D01*
X009974Y021150D01*
X009961Y021105D01*
X009943Y021062D01*
X009922Y021020D01*
X009898Y020980D01*
X009870Y020943D01*
X009839Y020908D01*
X009805Y020875D01*
X009769Y020846D01*
X009730Y020820D01*
X009689Y020797D01*
X009646Y020778D01*
X009602Y020762D01*
X009557Y020750D01*
X009511Y020742D01*
X009464Y020738D01*
X009418Y020738D01*
X009371Y020742D01*
X009325Y020750D01*
X009280Y020762D01*
X009236Y020778D01*
X009193Y020797D01*
X009152Y020820D01*
X009113Y020846D01*
X009077Y020875D01*
X009043Y020908D01*
X009012Y020943D01*
X008984Y020980D01*
X008960Y021020D01*
X008939Y021062D01*
X008921Y021105D01*
X008908Y021150D01*
X008898Y021196D01*
X008892Y021242D01*
X008890Y021289D01*
X022236Y023257D02*
X022236Y027982D01*
X034638Y008445D02*
X035015Y008623D01*
X035389Y008810D01*
X035758Y009005D01*
X036124Y009208D01*
X036484Y009419D01*
X036840Y009638D01*
X037191Y009864D01*
X037191Y037029D01*
X037189Y037055D01*
X037184Y037080D01*
X037176Y037104D01*
X037165Y037128D01*
X037150Y037149D01*
X037133Y037168D01*
X037114Y037185D01*
X037093Y037200D01*
X037069Y037211D01*
X037045Y037219D01*
X037020Y037224D01*
X036994Y037226D01*
X024507Y037226D01*
X025734Y034667D02*
X025736Y034714D01*
X025742Y034760D01*
X025752Y034806D01*
X025765Y034851D01*
X025783Y034894D01*
X025804Y034936D01*
X025828Y034976D01*
X025856Y035013D01*
X025887Y035048D01*
X025921Y035081D01*
X025957Y035110D01*
X025996Y035136D01*
X026037Y035159D01*
X026080Y035178D01*
X026124Y035194D01*
X026169Y035206D01*
X026215Y035214D01*
X026262Y035218D01*
X026308Y035218D01*
X026355Y035214D01*
X026401Y035206D01*
X026446Y035194D01*
X026490Y035178D01*
X026533Y035159D01*
X026574Y035136D01*
X026613Y035110D01*
X026649Y035081D01*
X026683Y035048D01*
X026714Y035013D01*
X026742Y034976D01*
X026766Y034936D01*
X026787Y034894D01*
X026805Y034851D01*
X026818Y034806D01*
X026828Y034760D01*
X026834Y034714D01*
X026836Y034667D01*
X026834Y034620D01*
X026828Y034574D01*
X026818Y034528D01*
X026805Y034483D01*
X026787Y034440D01*
X026766Y034398D01*
X026742Y034358D01*
X026714Y034321D01*
X026683Y034286D01*
X026649Y034253D01*
X026613Y034224D01*
X026574Y034198D01*
X026533Y034175D01*
X026490Y034156D01*
X026446Y034140D01*
X026401Y034128D01*
X026355Y034120D01*
X026308Y034116D01*
X026262Y034116D01*
X026215Y034120D01*
X026169Y034128D01*
X026124Y034140D01*
X026080Y034156D01*
X026037Y034175D01*
X025996Y034198D01*
X025957Y034224D01*
X025921Y034253D01*
X025887Y034286D01*
X025856Y034321D01*
X025828Y034358D01*
X025804Y034398D01*
X025783Y034440D01*
X025765Y034483D01*
X025752Y034528D01*
X025742Y034574D01*
X025736Y034620D01*
X025734Y034667D01*
X025736Y034714D01*
X025742Y034760D01*
X025752Y034806D01*
X025765Y034851D01*
X025783Y034894D01*
X025804Y034936D01*
X025828Y034976D01*
X025856Y035013D01*
X025887Y035048D01*
X025921Y035081D01*
X025957Y035110D01*
X025996Y035136D01*
X026037Y035159D01*
X026080Y035178D01*
X026124Y035194D01*
X026169Y035206D01*
X026215Y035214D01*
X026262Y035218D01*
X026308Y035218D01*
X026355Y035214D01*
X026401Y035206D01*
X026446Y035194D01*
X026490Y035178D01*
X026533Y035159D01*
X026574Y035136D01*
X026613Y035110D01*
X026649Y035081D01*
X026683Y035048D01*
X026714Y035013D01*
X026742Y034976D01*
X026766Y034936D01*
X026787Y034894D01*
X026805Y034851D01*
X026818Y034806D01*
X026828Y034760D01*
X026834Y034714D01*
X026836Y034667D01*
X026834Y034620D01*
X026828Y034574D01*
X026818Y034528D01*
X026805Y034483D01*
X026787Y034440D01*
X026766Y034398D01*
X026742Y034358D01*
X026714Y034321D01*
X026683Y034286D01*
X026649Y034253D01*
X026613Y034224D01*
X026574Y034198D01*
X026533Y034175D01*
X026490Y034156D01*
X026446Y034140D01*
X026401Y034128D01*
X026355Y034120D01*
X026308Y034116D01*
X026262Y034116D01*
X026215Y034120D01*
X026169Y034128D01*
X026124Y034140D01*
X026080Y034156D01*
X026037Y034175D01*
X025996Y034198D01*
X025957Y034224D01*
X025921Y034253D01*
X025887Y034286D01*
X025856Y034321D01*
X025828Y034358D01*
X025804Y034398D01*
X025783Y034440D01*
X025765Y034483D01*
X025752Y034528D01*
X025742Y034574D01*
X025736Y034620D01*
X025734Y034667D01*
X026212Y032706D02*
X026214Y032753D01*
X026220Y032799D01*
X026230Y032845D01*
X026243Y032890D01*
X026261Y032933D01*
X026282Y032975D01*
X026306Y033015D01*
X026334Y033052D01*
X026365Y033087D01*
X026399Y033120D01*
X026435Y033149D01*
X026474Y033175D01*
X026515Y033198D01*
X026558Y033217D01*
X026602Y033233D01*
X026647Y033245D01*
X026693Y033253D01*
X026740Y033257D01*
X026786Y033257D01*
X026833Y033253D01*
X026879Y033245D01*
X026924Y033233D01*
X026968Y033217D01*
X027011Y033198D01*
X027052Y033175D01*
X027091Y033149D01*
X027127Y033120D01*
X027161Y033087D01*
X027192Y033052D01*
X027220Y033015D01*
X027244Y032975D01*
X027265Y032933D01*
X027283Y032890D01*
X027296Y032845D01*
X027306Y032799D01*
X027312Y032753D01*
X027314Y032706D01*
X027312Y032659D01*
X027306Y032613D01*
X027296Y032567D01*
X027283Y032522D01*
X027265Y032479D01*
X027244Y032437D01*
X027220Y032397D01*
X027192Y032360D01*
X027161Y032325D01*
X027127Y032292D01*
X027091Y032263D01*
X027052Y032237D01*
X027011Y032214D01*
X026968Y032195D01*
X026924Y032179D01*
X026879Y032167D01*
X026833Y032159D01*
X026786Y032155D01*
X026740Y032155D01*
X026693Y032159D01*
X026647Y032167D01*
X026602Y032179D01*
X026558Y032195D01*
X026515Y032214D01*
X026474Y032237D01*
X026435Y032263D01*
X026399Y032292D01*
X026365Y032325D01*
X026334Y032360D01*
X026306Y032397D01*
X026282Y032437D01*
X026261Y032479D01*
X026243Y032522D01*
X026230Y032567D01*
X026220Y032613D01*
X026214Y032659D01*
X026212Y032706D01*
X022235Y027982D02*
X022303Y028108D01*
X022374Y028231D01*
X022448Y028352D01*
X022526Y028471D01*
X022607Y028588D01*
X022691Y028703D01*
X022779Y028815D01*
X022869Y028925D01*
X022963Y029032D01*
X023059Y029136D01*
X023159Y029238D01*
X023261Y029337D01*
X023366Y029433D01*
X023474Y029527D01*
X023584Y029617D01*
X023696Y029704D01*
X023811Y029787D01*
X023928Y029868D01*
X024048Y029945D01*
X024169Y030019D01*
X024293Y030090D01*
X024418Y030157D01*
X024546Y030221D01*
X024675Y030281D01*
X024805Y030337D01*
X024938Y030390D01*
X025071Y030439D01*
X025206Y030484D01*
X025342Y030525D01*
X025479Y030563D01*
X025618Y030597D01*
X025757Y030627D01*
X025896Y030653D01*
X026037Y030675D01*
X026178Y030693D01*
X026320Y030708D01*
X026462Y030718D01*
X026604Y030725D01*
X026746Y030727D01*
X026888Y030725D01*
X027030Y030720D01*
X027172Y030711D01*
X027314Y030697D01*
X027455Y030680D01*
X027596Y030659D01*
X027736Y030633D01*
X027875Y030604D01*
X028014Y030571D01*
X028151Y030535D01*
X028287Y030494D01*
X028423Y030450D01*
X028557Y030402D01*
X028689Y030350D01*
X028820Y030294D01*
X028950Y030235D01*
X029077Y030173D01*
X029203Y030106D01*
X029327Y030037D01*
X029449Y029963D01*
X029569Y029887D01*
X029687Y029807D01*
X029802Y029724D01*
X029916Y029638D01*
X030026Y029548D01*
X030134Y029456D01*
X030240Y029361D01*
X030343Y029262D01*
X030443Y029161D01*
X030540Y029057D01*
X030634Y028951D01*
X030726Y028842D01*
X030814Y028730D01*
X030899Y028616D01*
X030981Y028499D01*
X031059Y028381D01*
X031135Y028260D01*
X031207Y028137D01*
X031275Y028013D01*
X031340Y027886D01*
X031401Y027758D01*
X031459Y027627D01*
X031513Y027496D01*
X031563Y027363D01*
X031610Y027228D01*
X031653Y027093D01*
X031692Y026956D01*
X031727Y026818D01*
X031759Y026679D01*
X031786Y026540D01*
X031810Y026400D01*
X031830Y026259D01*
X031846Y026117D01*
X031858Y025975D01*
X031866Y025833D01*
X031870Y025691D01*
X031870Y025549D01*
X031866Y025407D01*
X031858Y025265D01*
X031846Y025123D01*
X031830Y024981D01*
X031810Y024840D01*
X031786Y024700D01*
X031759Y024561D01*
X031727Y024422D01*
X031692Y024284D01*
X031653Y024147D01*
X031610Y024012D01*
X031563Y023877D01*
X031513Y023744D01*
X031459Y023613D01*
X031401Y023482D01*
X031340Y023354D01*
X031275Y023227D01*
X031207Y023103D01*
X031135Y022980D01*
X031059Y022859D01*
X030981Y022741D01*
X030899Y022624D01*
X030814Y022510D01*
X030726Y022398D01*
X030634Y022289D01*
X030540Y022183D01*
X030443Y022079D01*
X030343Y021978D01*
X030240Y021879D01*
X030134Y021784D01*
X030026Y021692D01*
X029916Y021602D01*
X029802Y021516D01*
X029687Y021433D01*
X029569Y021353D01*
X029449Y021277D01*
X029327Y021203D01*
X029203Y021134D01*
X029077Y021067D01*
X028950Y021005D01*
X028820Y020946D01*
X028689Y020890D01*
X028557Y020838D01*
X028423Y020790D01*
X028287Y020746D01*
X028151Y020705D01*
X028014Y020669D01*
X027875Y020636D01*
X027736Y020607D01*
X027596Y020581D01*
X027455Y020560D01*
X027314Y020543D01*
X027172Y020529D01*
X027030Y020520D01*
X026888Y020515D01*
X026746Y020513D01*
X026604Y020515D01*
X026462Y020522D01*
X026320Y020532D01*
X026178Y020547D01*
X026037Y020565D01*
X025896Y020587D01*
X025757Y020613D01*
X025618Y020643D01*
X025479Y020677D01*
X025342Y020715D01*
X025206Y020756D01*
X025071Y020801D01*
X024938Y020850D01*
X024805Y020903D01*
X024675Y020959D01*
X024546Y021019D01*
X024418Y021083D01*
X024293Y021150D01*
X024169Y021221D01*
X024048Y021295D01*
X023928Y021372D01*
X023811Y021453D01*
X023696Y021536D01*
X023584Y021623D01*
X023474Y021713D01*
X023366Y021807D01*
X023261Y021903D01*
X023159Y022002D01*
X023059Y022104D01*
X022963Y022208D01*
X022869Y022315D01*
X022779Y022425D01*
X022691Y022537D01*
X022607Y022652D01*
X022526Y022769D01*
X022448Y022888D01*
X022374Y023009D01*
X022303Y023132D01*
X022235Y023258D01*
X015098Y040482D02*
X014738Y040192D01*
X014386Y039894D01*
X014041Y039588D01*
X013704Y039273D01*
X013374Y038950D01*
X013053Y038619D01*
X012739Y038281D01*
X012434Y037934D01*
X012138Y037581D01*
X011850Y037220D01*
X011571Y036853D01*
X011302Y036478D01*
X011041Y036098D01*
X010790Y035711D01*
X010548Y035318D01*
X010316Y034919D01*
X010094Y034514D01*
X009882Y034105D01*
X009680Y033690D01*
X009488Y033270D01*
X009306Y032846D01*
X009135Y032418D01*
X008974Y031985D01*
X008824Y031549D01*
X008684Y031109D01*
X008556Y030666D01*
X008438Y030220D01*
X008331Y029771D01*
X008235Y029320D01*
X008150Y028866D01*
X008076Y028411D01*
X008014Y027954D01*
X007962Y027495D01*
X007922Y027036D01*
X007893Y026575D01*
X007875Y026114D01*
X007869Y025653D01*
X007874Y025192D01*
X007890Y024730D01*
X007917Y024270D01*
X007956Y023810D01*
X008006Y023351D01*
X008067Y022894D01*
X008139Y022438D01*
X008222Y021985D01*
X008316Y021533D01*
X008421Y021084D01*
X008538Y020637D01*
X008665Y020194D01*
X008803Y019753D01*
X008951Y019317D01*
X009110Y018883D01*
X009280Y018454D01*
X009460Y018030D01*
X009651Y017609D01*
X009851Y017194D01*
X010062Y016784D01*
X010283Y016378D01*
X010513Y015979D01*
X010754Y015585D01*
X011003Y015197D01*
X011263Y014815D01*
X011531Y014440D01*
X011809Y014071D01*
X012095Y013710D01*
X012390Y013355D01*
X012694Y013008D01*
X013006Y012668D01*
X013326Y012336D01*
X013655Y012012D01*
X013991Y011696D01*
X014335Y011388D01*
X014686Y011089D01*
X015044Y010798D01*
X015410Y010517D01*
X015782Y010244D01*
X016161Y009980D01*
X016546Y009726D01*
X016937Y009481D01*
X017334Y009246D01*
X017736Y009021D01*
X018144Y008805D01*
X018557Y008600D01*
X018975Y008405D01*
X019398Y008220D01*
X019825Y008045D01*
X020256Y007881D01*
X020691Y007727D01*
X021130Y007584D01*
X021572Y007452D01*
X022017Y007331D01*
X022465Y007220D01*
X022916Y007121D01*
X023369Y007032D01*
X023823Y006955D01*
X024280Y006889D01*
X024738Y006834D01*
X025197Y006790D01*
X025658Y006757D01*
X026119Y006736D01*
X026580Y006726D01*
X027041Y006727D01*
X027502Y006739D01*
X027963Y006763D01*
X028423Y006798D01*
X028882Y006844D01*
X029340Y006902D01*
X029796Y006970D01*
X030251Y007050D01*
X030703Y007140D01*
X031153Y007242D01*
X031601Y007355D01*
X032045Y007478D01*
X032487Y007613D01*
X032925Y007758D01*
X033359Y007914D01*
X033789Y008080D01*
X034215Y008257D01*
X034637Y008444D01*
X034789Y011832D02*
X034791Y011879D01*
X034797Y011925D01*
X034807Y011971D01*
X034820Y012016D01*
X034838Y012059D01*
X034859Y012101D01*
X034883Y012141D01*
X034911Y012178D01*
X034942Y012213D01*
X034976Y012246D01*
X035012Y012275D01*
X035051Y012301D01*
X035092Y012324D01*
X035135Y012343D01*
X035179Y012359D01*
X035224Y012371D01*
X035270Y012379D01*
X035317Y012383D01*
X035363Y012383D01*
X035410Y012379D01*
X035456Y012371D01*
X035501Y012359D01*
X035545Y012343D01*
X035588Y012324D01*
X035629Y012301D01*
X035668Y012275D01*
X035704Y012246D01*
X035738Y012213D01*
X035769Y012178D01*
X035797Y012141D01*
X035821Y012101D01*
X035842Y012059D01*
X035860Y012016D01*
X035873Y011971D01*
X035883Y011925D01*
X035889Y011879D01*
X035891Y011832D01*
X035889Y011785D01*
X035883Y011739D01*
X035873Y011693D01*
X035860Y011648D01*
X035842Y011605D01*
X035821Y011563D01*
X035797Y011523D01*
X035769Y011486D01*
X035738Y011451D01*
X035704Y011418D01*
X035668Y011389D01*
X035629Y011363D01*
X035588Y011340D01*
X035545Y011321D01*
X035501Y011305D01*
X035456Y011293D01*
X035410Y011285D01*
X035363Y011281D01*
X035317Y011281D01*
X035270Y011285D01*
X035224Y011293D01*
X035179Y011305D01*
X035135Y011321D01*
X035092Y011340D01*
X035051Y011363D01*
X035012Y011389D01*
X034976Y011418D01*
X034942Y011451D01*
X034911Y011486D01*
X034883Y011523D01*
X034859Y011563D01*
X034838Y011605D01*
X034820Y011648D01*
X034807Y011693D01*
X034797Y011739D01*
X034791Y011785D01*
X034789Y011832D01*
X026212Y007905D02*
X026214Y007952D01*
X026220Y007998D01*
X026230Y008044D01*
X026243Y008089D01*
X026261Y008132D01*
X026282Y008174D01*
X026306Y008214D01*
X026334Y008251D01*
X026365Y008286D01*
X026399Y008319D01*
X026435Y008348D01*
X026474Y008374D01*
X026515Y008397D01*
X026558Y008416D01*
X026602Y008432D01*
X026647Y008444D01*
X026693Y008452D01*
X026740Y008456D01*
X026786Y008456D01*
X026833Y008452D01*
X026879Y008444D01*
X026924Y008432D01*
X026968Y008416D01*
X027011Y008397D01*
X027052Y008374D01*
X027091Y008348D01*
X027127Y008319D01*
X027161Y008286D01*
X027192Y008251D01*
X027220Y008214D01*
X027244Y008174D01*
X027265Y008132D01*
X027283Y008089D01*
X027296Y008044D01*
X027306Y007998D01*
X027312Y007952D01*
X027314Y007905D01*
X027312Y007858D01*
X027306Y007812D01*
X027296Y007766D01*
X027283Y007721D01*
X027265Y007678D01*
X027244Y007636D01*
X027220Y007596D01*
X027192Y007559D01*
X027161Y007524D01*
X027127Y007491D01*
X027091Y007462D01*
X027052Y007436D01*
X027011Y007413D01*
X026968Y007394D01*
X026924Y007378D01*
X026879Y007366D01*
X026833Y007358D01*
X026786Y007354D01*
X026740Y007354D01*
X026693Y007358D01*
X026647Y007366D01*
X026602Y007378D01*
X026558Y007394D01*
X026515Y007413D01*
X026474Y007436D01*
X026435Y007462D01*
X026399Y007491D01*
X026365Y007524D01*
X026334Y007559D01*
X026306Y007596D01*
X026282Y007636D01*
X026261Y007678D01*
X026243Y007721D01*
X026230Y007766D01*
X026220Y007812D01*
X026214Y007858D01*
X026212Y007905D01*
X025734Y011832D02*
X025736Y011879D01*
X025742Y011925D01*
X025752Y011971D01*
X025765Y012016D01*
X025783Y012059D01*
X025804Y012101D01*
X025828Y012141D01*
X025856Y012178D01*
X025887Y012213D01*
X025921Y012246D01*
X025957Y012275D01*
X025996Y012301D01*
X026037Y012324D01*
X026080Y012343D01*
X026124Y012359D01*
X026169Y012371D01*
X026215Y012379D01*
X026262Y012383D01*
X026308Y012383D01*
X026355Y012379D01*
X026401Y012371D01*
X026446Y012359D01*
X026490Y012343D01*
X026533Y012324D01*
X026574Y012301D01*
X026613Y012275D01*
X026649Y012246D01*
X026683Y012213D01*
X026714Y012178D01*
X026742Y012141D01*
X026766Y012101D01*
X026787Y012059D01*
X026805Y012016D01*
X026818Y011971D01*
X026828Y011925D01*
X026834Y011879D01*
X026836Y011832D01*
X026834Y011785D01*
X026828Y011739D01*
X026818Y011693D01*
X026805Y011648D01*
X026787Y011605D01*
X026766Y011563D01*
X026742Y011523D01*
X026714Y011486D01*
X026683Y011451D01*
X026649Y011418D01*
X026613Y011389D01*
X026574Y011363D01*
X026533Y011340D01*
X026490Y011321D01*
X026446Y011305D01*
X026401Y011293D01*
X026355Y011285D01*
X026308Y011281D01*
X026262Y011281D01*
X026215Y011285D01*
X026169Y011293D01*
X026124Y011305D01*
X026080Y011321D01*
X026037Y011340D01*
X025996Y011363D01*
X025957Y011389D01*
X025921Y011418D01*
X025887Y011451D01*
X025856Y011486D01*
X025828Y011523D01*
X025804Y011563D01*
X025783Y011605D01*
X025765Y011648D01*
X025752Y011693D01*
X025742Y011739D01*
X025736Y011785D01*
X025734Y011832D01*
X034789Y034667D02*
X034791Y034714D01*
X034797Y034760D01*
X034807Y034806D01*
X034820Y034851D01*
X034838Y034894D01*
X034859Y034936D01*
X034883Y034976D01*
X034911Y035013D01*
X034942Y035048D01*
X034976Y035081D01*
X035012Y035110D01*
X035051Y035136D01*
X035092Y035159D01*
X035135Y035178D01*
X035179Y035194D01*
X035224Y035206D01*
X035270Y035214D01*
X035317Y035218D01*
X035363Y035218D01*
X035410Y035214D01*
X035456Y035206D01*
X035501Y035194D01*
X035545Y035178D01*
X035588Y035159D01*
X035629Y035136D01*
X035668Y035110D01*
X035704Y035081D01*
X035738Y035048D01*
X035769Y035013D01*
X035797Y034976D01*
X035821Y034936D01*
X035842Y034894D01*
X035860Y034851D01*
X035873Y034806D01*
X035883Y034760D01*
X035889Y034714D01*
X035891Y034667D01*
X035889Y034620D01*
X035883Y034574D01*
X035873Y034528D01*
X035860Y034483D01*
X035842Y034440D01*
X035821Y034398D01*
X035797Y034358D01*
X035769Y034321D01*
X035738Y034286D01*
X035704Y034253D01*
X035668Y034224D01*
X035629Y034198D01*
X035588Y034175D01*
X035545Y034156D01*
X035501Y034140D01*
X035456Y034128D01*
X035410Y034120D01*
X035363Y034116D01*
X035317Y034116D01*
X035270Y034120D01*
X035224Y034128D01*
X035179Y034140D01*
X035135Y034156D01*
X035092Y034175D01*
X035051Y034198D01*
X035012Y034224D01*
X034976Y034253D01*
X034942Y034286D01*
X034911Y034321D01*
X034883Y034358D01*
X034859Y034398D01*
X034838Y034440D01*
X034820Y034483D01*
X034807Y034528D01*
X034797Y034574D01*
X034791Y034620D01*
X034789Y034667D01*
X024507Y037226D02*
X024396Y037228D01*
X024285Y037234D01*
X024174Y037243D01*
X024064Y037256D01*
X023954Y037273D01*
X023845Y037294D01*
X023736Y037319D01*
X023629Y037347D01*
X023522Y037379D01*
X023417Y037414D01*
X023313Y037453D01*
X023210Y037496D01*
X023109Y037542D01*
X023009Y037591D01*
X022911Y037644D01*
X022815Y037700D01*
X022721Y037759D01*
X022629Y037822D01*
X022540Y037888D01*
X022452Y037956D01*
X022367Y038028D01*
X022285Y038102D01*
X022205Y038180D01*
X022127Y038260D01*
X022053Y038342D01*
X021981Y038427D01*
X021913Y038515D01*
X021847Y038604D01*
X021784Y038696D01*
X021725Y038790D01*
X021669Y038886D01*
X021616Y038984D01*
X021567Y039084D01*
X021521Y039185D01*
X021478Y039288D01*
X021439Y039392D01*
X021404Y039497D01*
X021372Y039604D01*
X021344Y039711D01*
X021319Y039820D01*
X021298Y039929D01*
X021281Y040039D01*
X021268Y040149D01*
X021259Y040260D01*
X021253Y040371D01*
X021251Y040482D01*
X021252Y040482D02*
X015098Y040482D01*
D11*
X013369Y033422D02*
X013369Y033102D01*
X013149Y033102D01*
X012469Y033102D02*
X012249Y033102D01*
X012249Y033422D01*
X011835Y033422D02*
X011835Y033102D01*
X011615Y033102D01*
X010935Y033102D02*
X010715Y033102D01*
X010715Y033422D01*
X010715Y029932D02*
X010715Y029612D01*
X010935Y029612D01*
X011615Y029612D02*
X011835Y029612D01*
X011835Y029932D01*
X030573Y020163D02*
X030573Y018183D01*
X032371Y018183D01*
X032371Y020163D01*
X030573Y020163D01*
X030812Y019813D02*
X030814Y019839D01*
X030820Y019865D01*
X030829Y019889D01*
X030842Y019912D01*
X030858Y019933D01*
X030877Y019951D01*
X030898Y019967D01*
X030922Y019979D01*
X030946Y019987D01*
X030972Y019992D01*
X030999Y019993D01*
X031025Y019990D01*
X031050Y019983D01*
X031074Y019973D01*
X031097Y019959D01*
X031117Y019943D01*
X031134Y019923D01*
X031149Y019901D01*
X031160Y019877D01*
X031168Y019852D01*
X031172Y019826D01*
X031172Y019800D01*
X031168Y019774D01*
X031160Y019749D01*
X031149Y019725D01*
X031134Y019703D01*
X031117Y019683D01*
X031097Y019667D01*
X031074Y019653D01*
X031050Y019643D01*
X031025Y019636D01*
X030999Y019633D01*
X030972Y019634D01*
X030946Y019639D01*
X030922Y019647D01*
X030898Y019659D01*
X030877Y019675D01*
X030858Y019693D01*
X030842Y019714D01*
X030829Y019737D01*
X030820Y019761D01*
X030814Y019787D01*
X030812Y019813D01*
X034110Y017174D02*
X034537Y017174D01*
X034537Y017067D01*
X034110Y016640D01*
X034110Y016534D01*
X034537Y016534D01*
X034755Y016534D02*
X034968Y016747D01*
X035182Y016534D01*
X035182Y017174D01*
X035399Y017174D02*
X035399Y016854D01*
X035613Y016961D01*
X035720Y016961D01*
X035826Y016854D01*
X035826Y016640D01*
X035720Y016534D01*
X035506Y016534D01*
X035399Y016640D01*
X035399Y017174D02*
X035826Y017174D01*
X034755Y017174D02*
X034755Y016534D01*
X029128Y010307D02*
X029130Y010411D01*
X029136Y010515D01*
X029146Y010619D01*
X029160Y010722D01*
X029178Y010824D01*
X029199Y010926D01*
X029225Y011027D01*
X029255Y011127D01*
X029288Y011226D01*
X029325Y011323D01*
X029366Y011419D01*
X029410Y011513D01*
X029458Y011605D01*
X029510Y011696D01*
X029565Y011784D01*
X029623Y011871D01*
X029684Y011955D01*
X029749Y012036D01*
X029817Y012115D01*
X029888Y012192D01*
X029961Y012265D01*
X030038Y012336D01*
X030117Y012404D01*
X030198Y012469D01*
X030282Y012530D01*
X030369Y012588D01*
X030457Y012643D01*
X030548Y012695D01*
X030640Y012743D01*
X030734Y012787D01*
X030830Y012828D01*
X030927Y012865D01*
X031026Y012898D01*
X031126Y012928D01*
X031227Y012954D01*
X031329Y012975D01*
X031431Y012993D01*
X031534Y013007D01*
X031638Y013017D01*
X031742Y013023D01*
X031846Y013025D01*
X031950Y013023D01*
X032054Y013017D01*
X032158Y013007D01*
X032261Y012993D01*
X032363Y012975D01*
X032465Y012954D01*
X032566Y012928D01*
X032666Y012898D01*
X032765Y012865D01*
X032862Y012828D01*
X032958Y012787D01*
X033052Y012743D01*
X033144Y012695D01*
X033235Y012643D01*
X033323Y012588D01*
X033410Y012530D01*
X033494Y012469D01*
X033575Y012404D01*
X033654Y012336D01*
X033731Y012265D01*
X033804Y012192D01*
X033875Y012115D01*
X033943Y012036D01*
X034008Y011955D01*
X034069Y011871D01*
X034127Y011784D01*
X034182Y011696D01*
X034234Y011605D01*
X034282Y011513D01*
X034326Y011419D01*
X034367Y011323D01*
X034404Y011226D01*
X034437Y011127D01*
X034467Y011027D01*
X034493Y010926D01*
X034514Y010824D01*
X034532Y010722D01*
X034546Y010619D01*
X034556Y010515D01*
X034562Y010411D01*
X034564Y010307D01*
X034562Y010203D01*
X034556Y010099D01*
X034546Y009995D01*
X034532Y009892D01*
X034514Y009790D01*
X034493Y009688D01*
X034467Y009587D01*
X034437Y009487D01*
X034404Y009388D01*
X034367Y009291D01*
X034326Y009195D01*
X034282Y009101D01*
X034234Y009009D01*
X034182Y008918D01*
X034127Y008830D01*
X034069Y008743D01*
X034008Y008659D01*
X033943Y008578D01*
X033875Y008499D01*
X033804Y008422D01*
X033731Y008349D01*
X033654Y008278D01*
X033575Y008210D01*
X033494Y008145D01*
X033410Y008084D01*
X033323Y008026D01*
X033235Y007971D01*
X033144Y007919D01*
X033052Y007871D01*
X032958Y007827D01*
X032862Y007786D01*
X032765Y007749D01*
X032666Y007716D01*
X032566Y007686D01*
X032465Y007660D01*
X032363Y007639D01*
X032261Y007621D01*
X032158Y007607D01*
X032054Y007597D01*
X031950Y007591D01*
X031846Y007589D01*
X031742Y007591D01*
X031638Y007597D01*
X031534Y007607D01*
X031431Y007621D01*
X031329Y007639D01*
X031227Y007660D01*
X031126Y007686D01*
X031026Y007716D01*
X030927Y007749D01*
X030830Y007786D01*
X030734Y007827D01*
X030640Y007871D01*
X030548Y007919D01*
X030457Y007971D01*
X030369Y008026D01*
X030282Y008084D01*
X030198Y008145D01*
X030117Y008210D01*
X030038Y008278D01*
X029961Y008349D01*
X029888Y008422D01*
X029817Y008499D01*
X029749Y008578D01*
X029684Y008659D01*
X029623Y008743D01*
X029565Y008830D01*
X029510Y008918D01*
X029458Y009009D01*
X029410Y009101D01*
X029366Y009195D01*
X029325Y009291D01*
X029288Y009388D01*
X029255Y009487D01*
X029225Y009587D01*
X029199Y009688D01*
X029178Y009790D01*
X029160Y009892D01*
X029146Y009995D01*
X029136Y010099D01*
X029130Y010203D01*
X029128Y010307D01*
X030346Y009307D02*
X030746Y009307D01*
X030246Y009307D02*
X030248Y009341D01*
X030254Y009375D01*
X030263Y009408D01*
X030277Y009439D01*
X030294Y009469D01*
X030314Y009497D01*
X030337Y009522D01*
X030363Y009545D01*
X030391Y009564D01*
X030421Y009580D01*
X030453Y009592D01*
X030486Y009601D01*
X030520Y009606D01*
X030555Y009607D01*
X030589Y009604D01*
X030622Y009597D01*
X030655Y009587D01*
X030686Y009572D01*
X030715Y009555D01*
X030742Y009534D01*
X030767Y009510D01*
X030789Y009483D01*
X030807Y009455D01*
X030822Y009424D01*
X030834Y009392D01*
X030842Y009358D01*
X030846Y009324D01*
X030846Y009290D01*
X030842Y009256D01*
X030834Y009222D01*
X030822Y009190D01*
X030807Y009159D01*
X030789Y009131D01*
X030767Y009104D01*
X030742Y009080D01*
X030715Y009059D01*
X030686Y009042D01*
X030655Y009027D01*
X030622Y009017D01*
X030589Y009010D01*
X030555Y009007D01*
X030520Y009008D01*
X030486Y009013D01*
X030453Y009022D01*
X030421Y009034D01*
X030391Y009050D01*
X030363Y009069D01*
X030337Y009092D01*
X030314Y009117D01*
X030294Y009145D01*
X030277Y009175D01*
X030263Y009206D01*
X030254Y009239D01*
X030248Y009273D01*
X030246Y009307D01*
X030546Y009107D02*
X030546Y009507D01*
X031346Y010307D02*
X031348Y010351D01*
X031354Y010395D01*
X031364Y010438D01*
X031377Y010480D01*
X031394Y010521D01*
X031415Y010560D01*
X031439Y010597D01*
X031466Y010632D01*
X031496Y010664D01*
X031529Y010694D01*
X031565Y010720D01*
X031602Y010744D01*
X031642Y010763D01*
X031683Y010780D01*
X031726Y010792D01*
X031769Y010801D01*
X031813Y010806D01*
X031857Y010807D01*
X031901Y010804D01*
X031945Y010797D01*
X031988Y010786D01*
X032030Y010772D01*
X032070Y010754D01*
X032109Y010732D01*
X032145Y010708D01*
X032179Y010680D01*
X032211Y010649D01*
X032240Y010615D01*
X032266Y010579D01*
X032288Y010541D01*
X032307Y010501D01*
X032322Y010459D01*
X032334Y010417D01*
X032342Y010373D01*
X032346Y010329D01*
X032346Y010285D01*
X032342Y010241D01*
X032334Y010197D01*
X032322Y010155D01*
X032307Y010113D01*
X032288Y010073D01*
X032266Y010035D01*
X032240Y009999D01*
X032211Y009965D01*
X032179Y009934D01*
X032145Y009906D01*
X032109Y009882D01*
X032070Y009860D01*
X032030Y009842D01*
X031988Y009828D01*
X031945Y009817D01*
X031901Y009810D01*
X031857Y009807D01*
X031813Y009808D01*
X031769Y009813D01*
X031726Y009822D01*
X031683Y009834D01*
X031642Y009851D01*
X031602Y009870D01*
X031565Y009894D01*
X031529Y009920D01*
X031496Y009950D01*
X031466Y009982D01*
X031439Y010017D01*
X031415Y010054D01*
X031394Y010093D01*
X031377Y010134D01*
X031364Y010176D01*
X031354Y010219D01*
X031348Y010263D01*
X031346Y010307D01*
X032104Y023453D02*
X032531Y023453D01*
X032749Y023453D02*
X032962Y023666D01*
X033176Y023453D01*
X033176Y024093D01*
X033394Y023773D02*
X033821Y023773D01*
X033714Y023453D02*
X033714Y024093D01*
X033394Y023773D01*
X032749Y024093D02*
X032749Y023453D01*
X032531Y023987D02*
X032104Y023560D01*
X032104Y023453D01*
X032531Y023987D02*
X032531Y024093D01*
X032104Y024093D01*
X032104Y025618D02*
X032531Y025618D01*
X032749Y025618D02*
X032962Y025832D01*
X033176Y025618D01*
X033176Y026259D01*
X033394Y026152D02*
X033500Y026259D01*
X033714Y026259D01*
X033821Y026152D01*
X033821Y026045D01*
X033714Y025938D01*
X033821Y025832D01*
X033821Y025725D01*
X033714Y025618D01*
X033500Y025618D01*
X033394Y025725D01*
X033607Y025938D02*
X033714Y025938D01*
X032749Y026259D02*
X032749Y025618D01*
X032531Y026152D02*
X032104Y025725D01*
X032104Y025618D01*
X032104Y026259D02*
X032531Y026259D01*
X032531Y026152D01*
X033089Y029358D02*
X033516Y029358D01*
X033733Y029358D02*
X033947Y029572D01*
X034160Y029358D01*
X034160Y029999D01*
X034378Y029892D02*
X034485Y029999D01*
X034698Y029999D01*
X034805Y029892D01*
X034805Y029785D01*
X034378Y029358D01*
X034805Y029358D01*
X033733Y029358D02*
X033733Y029999D01*
X033516Y029999D02*
X033516Y029892D01*
X033089Y029465D01*
X033089Y029358D01*
X033089Y029999D02*
X033516Y029999D01*
X033590Y033295D02*
X034017Y033295D01*
X033804Y033295D02*
X033804Y033936D01*
X033590Y033722D01*
X033373Y033936D02*
X033373Y033295D01*
X033159Y033509D01*
X032946Y033295D01*
X032946Y033936D01*
X032728Y033936D02*
X032728Y033829D01*
X032301Y033402D01*
X032301Y033295D01*
X032728Y033295D01*
X032728Y033936D02*
X032301Y033936D01*
D12*
X017665Y010605D02*
X017665Y010144D01*
X017665Y010298D02*
X017895Y010298D01*
X017972Y010375D01*
X017972Y010528D01*
X017895Y010605D01*
X017665Y010605D01*
X017819Y010298D02*
X017972Y010144D01*
X018126Y010221D02*
X018126Y010298D01*
X018202Y010375D01*
X018356Y010375D01*
X018433Y010298D01*
X018433Y010221D01*
X018356Y010144D01*
X018202Y010144D01*
X018126Y010221D01*
X018202Y010375D02*
X018126Y010451D01*
X018126Y010528D01*
X018202Y010605D01*
X018356Y010605D01*
X018433Y010528D01*
X018433Y010451D01*
X018356Y010375D01*
X019632Y010457D02*
X019632Y010918D01*
X019862Y010918D01*
X019939Y010841D01*
X019939Y010688D01*
X019862Y010611D01*
X019632Y010611D01*
X019785Y010611D02*
X019939Y010457D01*
X020092Y010534D02*
X020169Y010457D01*
X020322Y010457D01*
X020399Y010534D01*
X020399Y010841D01*
X020322Y010918D01*
X020169Y010918D01*
X020092Y010841D01*
X020092Y010764D01*
X020169Y010688D01*
X020399Y010688D01*
X021642Y010560D02*
X021642Y010253D01*
X021718Y010176D01*
X021872Y010176D01*
X021949Y010253D01*
X022102Y010406D02*
X022409Y010406D01*
X022332Y010176D02*
X022332Y010637D01*
X022102Y010406D01*
X021949Y010560D02*
X021872Y010637D01*
X021718Y010637D01*
X021642Y010560D01*
X022252Y011041D02*
X022482Y011041D01*
X022559Y011118D01*
X022559Y011425D01*
X022482Y011502D01*
X022252Y011502D01*
X022252Y011041D01*
X022712Y011118D02*
X022789Y011041D01*
X022942Y011041D01*
X023019Y011118D01*
X023019Y011195D01*
X022942Y011271D01*
X022866Y011271D01*
X022942Y011271D02*
X023019Y011348D01*
X023019Y011425D01*
X022942Y011502D01*
X022789Y011502D01*
X022712Y011425D01*
X022998Y012028D02*
X022998Y012489D01*
X023228Y012489D01*
X023305Y012412D01*
X023305Y012258D01*
X023228Y012182D01*
X022998Y012182D01*
X023151Y012182D02*
X023305Y012028D01*
X023458Y012028D02*
X023765Y012335D01*
X023765Y012412D01*
X023689Y012489D01*
X023535Y012489D01*
X023458Y012412D01*
X023458Y012028D02*
X023765Y012028D01*
X024423Y012032D02*
X024423Y012493D01*
X024653Y012493D01*
X024730Y012416D01*
X024730Y012262D01*
X024653Y012186D01*
X024423Y012186D01*
X024577Y012186D02*
X024730Y012032D01*
X024884Y012109D02*
X024960Y012032D01*
X025114Y012032D01*
X025190Y012109D01*
X025190Y012186D01*
X025114Y012262D01*
X025037Y012262D01*
X025114Y012262D02*
X025190Y012339D01*
X025190Y012416D01*
X025114Y012493D01*
X024960Y012493D01*
X024884Y012416D01*
X024960Y010957D02*
X024884Y010880D01*
X024960Y010957D02*
X025114Y010957D01*
X025190Y010880D01*
X025190Y010804D01*
X024884Y010497D01*
X025190Y010497D01*
X024730Y010574D02*
X024653Y010497D01*
X024500Y010497D01*
X024423Y010574D01*
X024423Y010880D01*
X024500Y010957D01*
X024653Y010957D01*
X024730Y010880D01*
X027774Y012053D02*
X027927Y012053D01*
X027850Y012053D02*
X027850Y012514D01*
X027774Y012514D02*
X027927Y012514D01*
X028081Y012437D02*
X028157Y012514D01*
X028311Y012514D01*
X028387Y012437D01*
X028541Y012360D02*
X028694Y012514D01*
X028694Y012053D01*
X028541Y012053D02*
X028848Y012053D01*
X028387Y012130D02*
X028311Y012053D01*
X028157Y012053D01*
X028081Y012130D01*
X028081Y012437D01*
X030162Y012416D02*
X030162Y011956D01*
X030162Y012109D02*
X030392Y012109D01*
X030469Y012186D01*
X030469Y012339D01*
X030392Y012416D01*
X030162Y012416D01*
X030316Y012109D02*
X030469Y011956D01*
X030622Y011956D02*
X030929Y012263D01*
X030929Y012339D01*
X030853Y012416D01*
X030699Y012416D01*
X030622Y012339D01*
X030622Y011956D02*
X030929Y011956D01*
X031083Y012033D02*
X031390Y012339D01*
X031390Y012033D01*
X031313Y011956D01*
X031160Y011956D01*
X031083Y012033D01*
X031083Y012339D01*
X031160Y012416D01*
X031313Y012416D01*
X031390Y012339D01*
X034197Y013161D02*
X034274Y013085D01*
X034427Y013085D01*
X034504Y013161D01*
X034504Y013468D01*
X034427Y013545D01*
X034274Y013545D01*
X034197Y013468D01*
X034197Y013161D01*
X034351Y013238D02*
X034504Y013085D01*
X034658Y013315D02*
X034965Y013315D01*
X034888Y013545D02*
X034658Y013315D01*
X034888Y013085D02*
X034888Y013545D01*
X033850Y015400D02*
X033926Y015477D01*
X033926Y015784D01*
X033850Y015861D01*
X033696Y015861D01*
X033620Y015784D01*
X033620Y015707D01*
X033696Y015631D01*
X033926Y015631D01*
X033850Y015400D02*
X033696Y015400D01*
X033620Y015477D01*
X033466Y015400D02*
X033159Y015400D01*
X033006Y015400D02*
X032852Y015554D01*
X032929Y015554D02*
X032699Y015554D01*
X032699Y015400D02*
X032699Y015861D01*
X032929Y015861D01*
X033006Y015784D01*
X033006Y015631D01*
X032929Y015554D01*
X033159Y015707D02*
X033313Y015861D01*
X033313Y015400D01*
X029816Y016682D02*
X029510Y016682D01*
X029663Y016682D02*
X029663Y017142D01*
X029510Y016989D01*
X029356Y017065D02*
X029279Y017142D01*
X029126Y017142D01*
X029049Y017065D01*
X029049Y016759D01*
X029126Y016682D01*
X029279Y016682D01*
X029356Y016759D01*
X028755Y018349D02*
X028602Y018349D01*
X028525Y018426D01*
X028525Y018579D02*
X028679Y018656D01*
X028755Y018656D01*
X028832Y018579D01*
X028832Y018426D01*
X028755Y018349D01*
X028525Y018579D02*
X028525Y018810D01*
X028832Y018810D01*
X028755Y019137D02*
X028755Y019597D01*
X028525Y019367D01*
X028832Y019367D01*
X028372Y019367D02*
X028295Y019290D01*
X028065Y019290D01*
X028218Y019290D02*
X028372Y019137D01*
X028372Y019367D02*
X028372Y019520D01*
X028295Y019597D01*
X028065Y019597D01*
X028065Y019137D01*
X028065Y018810D02*
X028295Y018810D01*
X028372Y018733D01*
X028372Y018579D01*
X028295Y018503D01*
X028065Y018503D01*
X028218Y018503D02*
X028372Y018349D01*
X028065Y018349D02*
X028065Y018810D01*
X026691Y017091D02*
X026691Y016631D01*
X026844Y016631D02*
X026537Y016631D01*
X026384Y016631D02*
X026230Y016784D01*
X026307Y016784D02*
X026077Y016784D01*
X026077Y016631D02*
X026077Y017091D01*
X026307Y017091D01*
X026384Y017014D01*
X026384Y016861D01*
X026307Y016784D01*
X026537Y016938D02*
X026691Y017091D01*
X023139Y018522D02*
X023139Y018982D01*
X022909Y018752D01*
X023216Y018752D01*
X022756Y018982D02*
X022602Y018982D01*
X022679Y018982D02*
X022679Y018598D01*
X022602Y018522D01*
X022525Y018522D01*
X022449Y018598D01*
X021797Y018904D02*
X021490Y018904D01*
X021797Y019211D01*
X021797Y019288D01*
X021720Y019365D01*
X021566Y019365D01*
X021490Y019288D01*
X021183Y019365D02*
X021183Y018904D01*
X021336Y018904D02*
X021029Y018904D01*
X020876Y018904D02*
X020722Y019058D01*
X020799Y019058D02*
X020569Y019058D01*
X020569Y018904D02*
X020569Y019365D01*
X020799Y019365D01*
X020876Y019288D01*
X020876Y019134D01*
X020799Y019058D01*
X021029Y019211D02*
X021183Y019365D01*
X020978Y019644D02*
X020671Y019644D01*
X020824Y019644D02*
X020824Y020105D01*
X020671Y019951D01*
X020517Y019644D02*
X020210Y019644D01*
X020057Y019644D02*
X019903Y019798D01*
X019980Y019798D02*
X019750Y019798D01*
X019750Y019644D02*
X019750Y020105D01*
X019980Y020105D01*
X020057Y020028D01*
X020057Y019875D01*
X019980Y019798D01*
X020210Y019951D02*
X020364Y020105D01*
X020364Y019644D01*
X019826Y020559D02*
X019519Y020559D01*
X019366Y020559D02*
X019212Y020712D01*
X019059Y020636D02*
X019059Y020943D01*
X019136Y021019D01*
X019289Y021019D01*
X019366Y020943D01*
X019366Y020636D01*
X019289Y020559D01*
X019136Y020559D01*
X019059Y020636D01*
X019519Y020866D02*
X019673Y021019D01*
X019673Y020559D01*
X018562Y021223D02*
X018255Y021223D01*
X019102Y022142D02*
X019179Y022065D01*
X019256Y022065D01*
X019332Y022142D01*
X019332Y022525D01*
X019256Y022525D02*
X019409Y022525D01*
X019563Y022449D02*
X019639Y022525D01*
X019793Y022525D01*
X019870Y022449D01*
X019870Y022372D01*
X019563Y022065D01*
X019870Y022065D01*
X017364Y020290D02*
X017364Y020213D01*
X017057Y019906D01*
X017057Y019829D01*
X016903Y019906D02*
X016827Y019829D01*
X016673Y019829D01*
X016596Y019906D01*
X016596Y020213D01*
X016673Y020290D01*
X016827Y020290D01*
X016903Y020213D01*
X017057Y020290D02*
X017364Y020290D01*
X016625Y021160D02*
X016318Y021160D01*
X016471Y021007D02*
X016471Y021314D01*
X016034Y018879D02*
X016034Y018418D01*
X016187Y018418D02*
X015880Y018418D01*
X015727Y018418D02*
X015420Y018418D01*
X015420Y018879D01*
X015880Y018725D02*
X016034Y018879D01*
X017364Y018656D02*
X017364Y018196D01*
X017364Y018349D02*
X017594Y018349D01*
X017671Y018426D01*
X017671Y018579D01*
X017594Y018656D01*
X017364Y018656D01*
X017518Y018349D02*
X017671Y018196D01*
X017824Y018196D02*
X018131Y018196D01*
X017978Y018196D02*
X017978Y018656D01*
X017824Y018503D01*
X018285Y018579D02*
X018362Y018656D01*
X018515Y018656D01*
X018592Y018579D01*
X018285Y018272D01*
X018362Y018196D01*
X018515Y018196D01*
X018592Y018272D01*
X018592Y018579D01*
X018285Y018579D02*
X018285Y018272D01*
X012964Y018142D02*
X012657Y018142D01*
X012810Y018142D02*
X012810Y018602D01*
X012657Y018449D01*
X012503Y018602D02*
X012197Y018602D01*
X012197Y018142D01*
X012043Y018142D02*
X011890Y018295D01*
X011966Y018295D02*
X011736Y018295D01*
X011736Y018142D02*
X011736Y018602D01*
X011966Y018602D01*
X012043Y018525D01*
X012043Y018372D01*
X011966Y018295D01*
X012197Y018372D02*
X012350Y018372D01*
X011917Y023971D02*
X011763Y023971D01*
X011686Y024048D01*
X011533Y023971D02*
X011226Y023971D01*
X011073Y023971D02*
X010919Y024125D01*
X010996Y024125D02*
X010766Y024125D01*
X010766Y023971D02*
X010766Y024432D01*
X010996Y024432D01*
X011073Y024355D01*
X011073Y024201D01*
X010996Y024125D01*
X011226Y024278D02*
X011380Y024432D01*
X011380Y023971D01*
X011686Y024355D02*
X011763Y024432D01*
X011917Y024432D01*
X011993Y024355D01*
X011993Y024278D01*
X011917Y024201D01*
X011993Y024125D01*
X011993Y024048D01*
X011917Y023971D01*
X011917Y024201D02*
X011840Y024201D01*
X012734Y027318D02*
X012734Y027778D01*
X012964Y027778D01*
X013041Y027701D01*
X013041Y027548D01*
X012964Y027471D01*
X012734Y027471D01*
X012888Y027471D02*
X013041Y027318D01*
X013195Y027318D02*
X013501Y027318D01*
X013348Y027318D02*
X013348Y027778D01*
X013195Y027625D01*
X013655Y027548D02*
X013962Y027548D01*
X013885Y027778D02*
X013655Y027548D01*
X013885Y027318D02*
X013885Y027778D01*
X012747Y028497D02*
X012671Y028420D01*
X012517Y028420D01*
X012440Y028497D01*
X012440Y028650D02*
X012594Y028727D01*
X012671Y028727D01*
X012747Y028650D01*
X012747Y028497D01*
X012440Y028650D02*
X012440Y028880D01*
X012747Y028880D01*
X012133Y028880D02*
X012133Y028420D01*
X011980Y028420D02*
X012287Y028420D01*
X011980Y028727D02*
X012133Y028880D01*
X011827Y028804D02*
X011827Y028650D01*
X011750Y028573D01*
X011520Y028573D01*
X011520Y028420D02*
X011520Y028880D01*
X011750Y028880D01*
X011827Y028804D01*
X011673Y028573D02*
X011827Y028420D01*
X010391Y029632D02*
X010315Y029555D01*
X010161Y029555D01*
X010084Y029632D01*
X009931Y029632D02*
X009854Y029555D01*
X009701Y029555D01*
X009624Y029632D01*
X009624Y029939D01*
X009701Y030015D01*
X009854Y030015D01*
X009931Y029939D01*
X009931Y029632D01*
X009931Y029555D02*
X009777Y029709D01*
X010084Y029939D02*
X010161Y030015D01*
X010315Y030015D01*
X010391Y029939D01*
X010391Y029862D01*
X010315Y029785D01*
X010391Y029709D01*
X010391Y029632D01*
X010315Y029785D02*
X010238Y029785D01*
X009805Y030748D02*
X009805Y031208D01*
X009574Y030978D01*
X009881Y030978D01*
X009421Y030825D02*
X009344Y030748D01*
X009114Y030748D01*
X009114Y031208D01*
X009344Y031208D01*
X009421Y031132D01*
X009421Y030825D01*
X009624Y033151D02*
X009777Y033151D01*
X009701Y033151D02*
X009701Y033612D01*
X009777Y033612D02*
X009624Y033612D01*
X009931Y033535D02*
X009931Y033228D01*
X010008Y033151D01*
X010161Y033151D01*
X010238Y033228D01*
X010391Y033228D02*
X010468Y033151D01*
X010621Y033151D01*
X010698Y033228D01*
X010698Y033305D01*
X010621Y033382D01*
X010545Y033382D01*
X010621Y033382D02*
X010698Y033458D01*
X010698Y033535D01*
X010621Y033612D01*
X010468Y033612D01*
X010391Y033535D01*
X010238Y033535D02*
X010161Y033612D01*
X010008Y033612D01*
X009931Y033535D01*
X011004Y034804D02*
X011157Y034804D01*
X011234Y034881D01*
X011387Y034881D02*
X011464Y034804D01*
X011618Y034804D01*
X011694Y034881D01*
X011694Y035188D01*
X011618Y035264D01*
X011464Y035264D01*
X011387Y035188D01*
X011387Y035111D01*
X011464Y035034D01*
X011694Y035034D01*
X011234Y035188D02*
X011157Y035264D01*
X011004Y035264D01*
X010927Y035188D01*
X010927Y034881D01*
X011004Y034804D01*
X013602Y033612D02*
X013602Y033151D01*
X013832Y033151D01*
X013909Y033228D01*
X013909Y033535D01*
X013832Y033612D01*
X013602Y033612D01*
X014063Y033535D02*
X014139Y033612D01*
X014293Y033612D01*
X014370Y033535D01*
X014370Y033458D01*
X014063Y033151D01*
X014370Y033151D01*
X014065Y032530D02*
X014141Y032453D01*
X013834Y032146D01*
X013911Y032069D01*
X014065Y032069D01*
X014141Y032146D01*
X014141Y032453D01*
X014065Y032530D02*
X013911Y032530D01*
X013834Y032453D01*
X013834Y032146D01*
X013681Y032069D02*
X013374Y032069D01*
X013528Y032069D02*
X013528Y032530D01*
X013374Y032376D01*
X013221Y032453D02*
X013144Y032530D01*
X012990Y032530D01*
X012914Y032453D01*
X012914Y032146D01*
X012990Y032069D01*
X013144Y032069D01*
X013221Y032146D01*
X012328Y032207D02*
X012252Y032131D01*
X012098Y032131D01*
X012021Y032207D01*
X012021Y032284D01*
X012098Y032361D01*
X012252Y032361D01*
X012328Y032284D01*
X012328Y032207D01*
X012252Y032361D02*
X012328Y032438D01*
X012328Y032514D01*
X012252Y032591D01*
X012098Y032591D01*
X012021Y032514D01*
X012021Y032438D01*
X012098Y032361D01*
X011868Y032514D02*
X011791Y032591D01*
X011638Y032591D01*
X011561Y032514D01*
X011561Y032207D01*
X011638Y032131D01*
X011791Y032131D01*
X011868Y032207D01*
X014378Y031974D02*
X014531Y031974D01*
X014455Y031974D02*
X014455Y031514D01*
X014531Y031514D02*
X014378Y031514D01*
X014685Y031590D02*
X014762Y031514D01*
X014915Y031514D01*
X014992Y031590D01*
X015145Y031744D02*
X015452Y031744D01*
X015375Y031974D02*
X015145Y031744D01*
X014992Y031897D02*
X014915Y031974D01*
X014762Y031974D01*
X014685Y031897D01*
X014685Y031590D01*
X015375Y031514D02*
X015375Y031974D01*
X016624Y032156D02*
X016624Y032617D01*
X016854Y032617D01*
X016931Y032540D01*
X016931Y032386D01*
X016854Y032310D01*
X016624Y032310D01*
X016777Y032310D02*
X016931Y032156D01*
X017084Y032156D02*
X017391Y032156D01*
X017238Y032156D02*
X017238Y032617D01*
X017084Y032463D01*
X017545Y032386D02*
X017775Y032386D01*
X017852Y032310D01*
X017852Y032233D01*
X017775Y032156D01*
X017621Y032156D01*
X017545Y032233D01*
X017545Y032386D01*
X017698Y032540D01*
X017852Y032617D01*
X019098Y033890D02*
X019252Y033890D01*
X019329Y033966D01*
X019482Y033890D02*
X019789Y033890D01*
X019635Y033890D02*
X019635Y034350D01*
X019482Y034197D01*
X019329Y034273D02*
X019252Y034350D01*
X019098Y034350D01*
X019022Y034273D01*
X019022Y033966D01*
X019098Y033890D01*
X019942Y034120D02*
X020249Y034120D01*
X020173Y034350D02*
X019942Y034120D01*
X020173Y033890D02*
X020173Y034350D01*
X020033Y035254D02*
X020110Y035331D01*
X020033Y035254D02*
X019880Y035254D01*
X019803Y035331D01*
X019803Y035638D01*
X019880Y035714D01*
X020033Y035714D01*
X020110Y035638D01*
X020263Y035714D02*
X020263Y035484D01*
X020417Y035561D01*
X020494Y035561D01*
X020570Y035484D01*
X020570Y035331D01*
X020494Y035254D01*
X020340Y035254D01*
X020263Y035331D01*
X020263Y035714D02*
X020570Y035714D01*
X019649Y035714D02*
X019496Y035714D01*
X019573Y035714D02*
X019573Y035254D01*
X019649Y035254D02*
X019496Y035254D01*
X021191Y036751D02*
X021191Y037211D01*
X021421Y037211D01*
X021498Y037134D01*
X021498Y036981D01*
X021421Y036904D01*
X021191Y036904D01*
X021344Y036904D02*
X021498Y036751D01*
X021651Y036751D02*
X021958Y036751D01*
X021805Y036751D02*
X021805Y037211D01*
X021651Y037058D01*
X022112Y037058D02*
X022188Y036981D01*
X022342Y036981D01*
X022419Y036904D01*
X022419Y036827D01*
X022342Y036751D01*
X022188Y036751D01*
X022112Y036827D01*
X022112Y036904D01*
X022188Y036981D01*
X022112Y037058D02*
X022112Y037134D01*
X022188Y037211D01*
X022342Y037211D01*
X022419Y037134D01*
X022419Y037058D01*
X022342Y036981D01*
X021413Y038030D02*
X021106Y037723D01*
X021106Y037646D01*
X020952Y037646D02*
X020645Y037646D01*
X020492Y037646D02*
X020338Y037800D01*
X020415Y037800D02*
X020185Y037800D01*
X020185Y037646D02*
X020185Y038107D01*
X020415Y038107D01*
X020492Y038030D01*
X020492Y037877D01*
X020415Y037800D01*
X020645Y037953D02*
X020799Y038107D01*
X020799Y037646D01*
X021106Y038107D02*
X021413Y038107D01*
X021413Y038030D01*
X019462Y039012D02*
X019385Y038935D01*
X019232Y038935D01*
X019155Y039012D01*
X019001Y038935D02*
X018695Y038935D01*
X018848Y038935D02*
X018848Y039395D01*
X018695Y039242D01*
X018541Y039319D02*
X018464Y039395D01*
X018311Y039395D01*
X018234Y039319D01*
X018234Y039012D01*
X018311Y038935D01*
X018464Y038935D01*
X018541Y039012D01*
X019155Y039319D02*
X019232Y039395D01*
X019385Y039395D01*
X019462Y039319D01*
X019462Y039242D01*
X019385Y039165D01*
X019462Y039088D01*
X019462Y039012D01*
X019385Y039165D02*
X019308Y039165D01*
X014358Y038393D02*
X014281Y038470D01*
X014128Y038470D01*
X014051Y038393D01*
X014358Y038393D02*
X014358Y038317D01*
X014051Y038010D01*
X014358Y038010D01*
X013897Y038010D02*
X013590Y038010D01*
X013590Y038470D01*
X022451Y032688D02*
X022451Y032381D01*
X022527Y032304D01*
X022681Y032304D01*
X022758Y032381D01*
X022911Y032304D02*
X023218Y032304D01*
X023065Y032304D02*
X023065Y032764D01*
X022911Y032611D01*
X022758Y032688D02*
X022681Y032764D01*
X022527Y032764D01*
X022451Y032688D01*
X023371Y032688D02*
X023448Y032764D01*
X023602Y032764D01*
X023678Y032688D01*
X023678Y032611D01*
X023371Y032304D01*
X023678Y032304D01*
X025008Y031580D02*
X025161Y031580D01*
X025085Y031580D02*
X025085Y031120D01*
X025161Y031120D02*
X025008Y031120D01*
X025315Y031197D02*
X025315Y031504D01*
X025391Y031580D01*
X025545Y031580D01*
X025622Y031504D01*
X025775Y031350D02*
X026005Y031350D01*
X026082Y031273D01*
X026082Y031197D01*
X026005Y031120D01*
X025852Y031120D01*
X025775Y031197D01*
X025775Y031350D01*
X025929Y031504D01*
X026082Y031580D01*
X025622Y031197D02*
X025545Y031120D01*
X025391Y031120D01*
X025315Y031197D01*
X021889Y027630D02*
X021582Y027630D01*
X019952Y027568D02*
X019645Y027568D01*
X019798Y027721D02*
X019798Y027414D01*
X019996Y025478D02*
X020150Y025478D01*
X020226Y025401D01*
X020226Y025325D01*
X020150Y025248D01*
X020226Y025171D01*
X020226Y025094D01*
X020150Y025018D01*
X019996Y025018D01*
X019919Y025094D01*
X019766Y025094D02*
X019766Y025248D01*
X019689Y025325D01*
X019459Y025325D01*
X019459Y025478D02*
X019459Y025018D01*
X019689Y025018D01*
X019766Y025094D01*
X020073Y025248D02*
X020150Y025248D01*
X019996Y025478D02*
X019919Y025401D01*
X019306Y025401D02*
X019229Y025478D01*
X019075Y025478D01*
X018999Y025401D01*
X019306Y025401D02*
X019306Y025325D01*
X018999Y025018D01*
X019306Y025018D01*
X018845Y024941D02*
X018538Y024941D01*
X018385Y025094D02*
X018308Y025018D01*
X018155Y025018D01*
X018078Y025094D01*
X017924Y025094D02*
X017924Y025018D01*
X017848Y025018D01*
X017848Y025094D01*
X017924Y025094D01*
X017694Y025325D02*
X017617Y025325D01*
X017464Y025171D01*
X017464Y025018D02*
X017464Y025325D01*
X017311Y025248D02*
X017311Y025171D01*
X017004Y025171D01*
X017004Y025094D02*
X017004Y025248D01*
X017080Y025325D01*
X017234Y025325D01*
X017311Y025248D01*
X017234Y025018D02*
X017080Y025018D01*
X017004Y025094D01*
X016850Y025325D02*
X016697Y025018D01*
X016543Y025325D01*
X018078Y025401D02*
X018155Y025478D01*
X018308Y025478D01*
X018385Y025401D01*
X018385Y025325D01*
X018308Y025248D01*
X018385Y025171D01*
X018385Y025094D01*
X018308Y025248D02*
X018231Y025248D01*
X015594Y029083D02*
X015287Y029083D01*
X015134Y029083D02*
X014827Y029083D01*
X014980Y029083D02*
X014980Y029543D01*
X014827Y029390D01*
X014673Y029467D02*
X014597Y029543D01*
X014443Y029543D01*
X014366Y029467D01*
X014366Y029160D01*
X014443Y029083D01*
X014597Y029083D01*
X014673Y029160D01*
X015287Y029390D02*
X015441Y029543D01*
X015441Y029083D01*
X018905Y029622D02*
X018982Y029545D01*
X019059Y029545D01*
X019136Y029622D01*
X019136Y030006D01*
X019212Y030006D02*
X019059Y030006D01*
X019366Y029852D02*
X019519Y030006D01*
X019519Y029545D01*
X019366Y029545D02*
X019673Y029545D01*
X030672Y020693D02*
X030792Y020693D01*
X030732Y020693D02*
X030732Y020333D01*
X030672Y020333D02*
X030792Y020333D01*
X030918Y020393D02*
X030978Y020333D01*
X031098Y020333D01*
X031158Y020393D01*
X031286Y020333D02*
X031526Y020573D01*
X031526Y020633D01*
X031466Y020693D01*
X031346Y020693D01*
X031286Y020633D01*
X031158Y020633D02*
X031098Y020693D01*
X030978Y020693D01*
X030918Y020633D01*
X030918Y020393D01*
X031286Y020333D02*
X031526Y020333D01*
X033435Y021302D02*
X033512Y021225D01*
X033665Y021225D01*
X033742Y021302D01*
X033895Y021302D02*
X033972Y021225D01*
X034126Y021225D01*
X034202Y021302D01*
X034202Y021379D01*
X034126Y021455D01*
X034049Y021455D01*
X034126Y021455D02*
X034202Y021532D01*
X034202Y021609D01*
X034126Y021686D01*
X033972Y021686D01*
X033895Y021609D01*
X033742Y021609D02*
X033665Y021686D01*
X033512Y021686D01*
X033435Y021609D01*
X033435Y021302D01*
X034191Y020225D02*
X034421Y020225D01*
X034498Y020148D01*
X034498Y019995D01*
X034421Y019918D01*
X034191Y019918D01*
X034344Y019918D02*
X034498Y019764D01*
X034651Y019841D02*
X034728Y019764D01*
X034881Y019764D01*
X034958Y019841D01*
X034958Y019918D01*
X034881Y019995D01*
X034651Y019995D01*
X034651Y019841D01*
X034651Y019995D02*
X034805Y020148D01*
X034958Y020225D01*
X034191Y020225D02*
X034191Y019764D01*
X034191Y019437D02*
X034421Y019437D01*
X034498Y019361D01*
X034498Y019207D01*
X034421Y019131D01*
X034191Y019131D01*
X034344Y019131D02*
X034498Y018977D01*
X034651Y018977D02*
X034651Y019054D01*
X034958Y019361D01*
X034958Y019437D01*
X034651Y019437D01*
X034191Y019437D02*
X034191Y018977D01*
X021360Y008813D02*
X021206Y008737D01*
X021053Y008583D01*
X021283Y008583D01*
X021360Y008507D01*
X021360Y008430D01*
X021283Y008353D01*
X021130Y008353D01*
X021053Y008430D01*
X021053Y008583D01*
X020899Y008430D02*
X020823Y008353D01*
X020669Y008353D01*
X020592Y008430D01*
X020592Y008737D01*
X020669Y008813D01*
X020823Y008813D01*
X020899Y008737D01*
X019982Y008662D02*
X019982Y008509D01*
X019905Y008432D01*
X019752Y008432D01*
X019675Y008509D01*
X019675Y008662D02*
X019828Y008739D01*
X019905Y008739D01*
X019982Y008662D01*
X019982Y008892D02*
X019675Y008892D01*
X019675Y008662D01*
X019521Y008509D02*
X019445Y008432D01*
X019291Y008432D01*
X019214Y008509D01*
X019214Y008815D01*
X019291Y008892D01*
X019445Y008892D01*
X019521Y008815D01*
D13*
X026572Y012819D02*
X028620Y012819D01*
X028620Y015811D01*
X026572Y015811D02*
X026572Y012819D01*
X015070Y019970D02*
X015070Y020836D01*
X014834Y021643D02*
X014834Y024754D01*
X012630Y024754D01*
X012630Y021643D01*
X013299Y021742D02*
X014165Y021742D01*
X012393Y020836D02*
X012393Y019970D01*
X013299Y019065D02*
X014165Y019065D01*
D14*
X015966Y020610D02*
X015966Y022874D01*
X018722Y022874D01*
X018880Y022874D01*
X018880Y020610D01*
X018722Y020610D01*
X015966Y020610D01*
X018413Y017591D02*
X018713Y017591D01*
X018563Y017591D02*
X018563Y017140D01*
X018874Y017140D02*
X018874Y017591D01*
X019099Y017591D01*
X019174Y017516D01*
X019174Y017366D01*
X019099Y017290D01*
X018874Y017290D01*
X019334Y017215D02*
X019409Y017140D01*
X019559Y017140D01*
X019634Y017215D01*
X019634Y017366D01*
X019559Y017441D01*
X019484Y017441D01*
X019334Y017366D01*
X019334Y017591D01*
X019634Y017591D01*
X014210Y015975D02*
X014210Y015900D01*
X013910Y015600D01*
X013910Y015525D01*
X013750Y015600D02*
X013675Y015525D01*
X013525Y015525D01*
X013450Y015600D01*
X013450Y015900D01*
X013525Y015975D01*
X013675Y015975D01*
X013750Y015900D01*
X013910Y015975D02*
X014210Y015975D01*
X013293Y015975D02*
X013143Y015975D01*
X013218Y015975D02*
X013218Y015525D01*
X013143Y015525D02*
X013293Y015525D01*
X019293Y027017D02*
X019293Y029281D01*
X022049Y029281D01*
X022206Y029281D01*
X022206Y027017D01*
X022049Y027017D01*
X019293Y027017D01*
X034340Y026250D02*
X035340Y026250D01*
X035340Y027250D01*
X036340Y027250D01*
X036340Y030250D01*
X035340Y030250D01*
X035340Y028250D01*
X034340Y028250D01*
X034340Y026250D01*
X035340Y027250D02*
X035340Y028250D01*
X035340Y030250D02*
X034340Y030250D01*
X034340Y033250D01*
X036340Y033250D01*
X036340Y030250D01*
X035340Y024250D02*
X034340Y024250D01*
X034340Y022250D01*
X035340Y022250D01*
X035340Y024250D01*
X035340Y016250D02*
X036340Y016250D01*
X036340Y014250D01*
X035340Y014250D01*
X035340Y016250D01*
X031057Y013792D02*
X030982Y013867D01*
X030831Y013867D01*
X030756Y013792D01*
X030596Y013792D02*
X030596Y013642D01*
X030521Y013567D01*
X030296Y013567D01*
X030296Y013417D02*
X030296Y013867D01*
X030521Y013867D01*
X030596Y013792D01*
X030756Y013417D02*
X031057Y013717D01*
X031057Y013792D01*
X031057Y013417D02*
X030756Y013417D01*
X030136Y013867D02*
X029836Y013867D01*
X029986Y013867D02*
X029986Y013417D01*
X030094Y007692D02*
X029794Y007692D01*
X029634Y007616D02*
X029559Y007692D01*
X029334Y007692D01*
X029334Y007241D01*
X029559Y007241D01*
X029634Y007316D01*
X029634Y007391D01*
X029559Y007466D01*
X029334Y007466D01*
X029559Y007466D02*
X029634Y007541D01*
X029634Y007616D01*
X029794Y007316D02*
X029794Y007241D01*
X030094Y007241D01*
X030254Y007241D02*
X030555Y007241D01*
X030404Y007241D02*
X030404Y007692D01*
X030254Y007541D01*
X030094Y007616D02*
X029794Y007316D01*
X030094Y007616D02*
X030094Y007692D01*
D15*
X030663Y018273D02*
X032281Y018273D01*
X032281Y020073D01*
X030663Y020073D01*
X030663Y018273D01*
M02*
