G75*
%MOIN*%
%OFA0B0*%
%FSLAX24Y24*%
%IPPOS*%
%LPD*%
%AMOC8*
5,1,8,0,0,1.08239X$1,22.5*
%
%ADD10C,0.0660*%
%ADD11C,0.0760*%
%ADD12C,0.1000*%
%ADD13C,0.0554*%
%ADD14C,0.0768*%
%ADD15R,0.0591X0.0177*%
%ADD16OC8,0.0594*%
%ADD17C,0.0594*%
%ADD18OC8,0.0515*%
%ADD19C,0.0515*%
%ADD20C,0.0118*%
%ADD21C,0.0160*%
%ADD22C,0.0157*%
%ADD23C,0.0500*%
%ADD24C,0.0295*%
%ADD25C,0.0354*%
%ADD26C,0.0394*%
%ADD27C,0.0400*%
%ADD28C,0.0315*%
%ADD29C,0.0560*%
%ADD30C,0.0197*%
D10*
X010515Y023651D03*
X011515Y023651D03*
X011515Y027588D03*
X010515Y027588D03*
X030566Y010307D03*
X033126Y010307D03*
X032998Y012795D03*
D11*
X017915Y021535D03*
X016931Y021535D03*
X020257Y027943D03*
X021242Y027943D03*
D12*
X014736Y021407D03*
X013732Y020403D03*
X014736Y019399D03*
X012728Y019399D03*
X012728Y021407D03*
D13*
X014824Y024517D03*
X014824Y026722D03*
D14*
X015691Y025620D03*
D15*
X014824Y025620D03*
X014824Y025876D03*
X014824Y026131D03*
X014824Y025364D03*
X014824Y025108D03*
D16*
X023787Y017954D03*
D17*
X023787Y016954D03*
X023787Y015954D03*
X023787Y014954D03*
X023787Y013954D03*
D18*
X034840Y032750D03*
D19*
X035840Y032750D03*
X035840Y031750D03*
X034840Y031750D03*
X034840Y030750D03*
X035840Y030750D03*
X035840Y029750D03*
X035840Y028750D03*
X035840Y027750D03*
X034840Y027750D03*
X034840Y026750D03*
X034840Y023750D03*
X034840Y022750D03*
X035840Y015750D03*
X035840Y014750D03*
D20*
X017056Y011979D02*
X013953Y011979D01*
X013883Y012039D02*
X012739Y013225D01*
X011703Y014506D01*
X010784Y015874D01*
X009989Y017317D01*
X009324Y018824D01*
X008820Y020306D01*
X008992Y020207D01*
X009288Y020128D01*
X009593Y020128D01*
X009889Y020207D01*
X010154Y020360D01*
X010370Y020576D01*
X010523Y020841D01*
X010637Y020841D01*
X010523Y020841D02*
X010602Y021136D01*
X010602Y021442D01*
X010523Y021737D01*
X010370Y022002D01*
X010154Y022218D01*
X009889Y022371D01*
X009593Y022450D01*
X009288Y022450D01*
X008992Y022371D01*
X008727Y022218D01*
X008511Y022002D01*
X008432Y021865D01*
X008403Y021985D01*
X008154Y023614D01*
X008050Y025258D01*
X008091Y026905D01*
X012152Y026905D01*
X012205Y026958D02*
X011925Y026679D01*
X011787Y026540D01*
X011787Y024088D01*
X011616Y024158D01*
X011414Y024158D01*
X011228Y024081D01*
X011085Y023938D01*
X011008Y023752D01*
X011008Y023550D01*
X011085Y023364D01*
X011228Y023221D01*
X011398Y023151D01*
X010776Y022529D01*
X010637Y022391D01*
X010637Y018398D01*
X010776Y018259D01*
X019321Y009714D01*
X019234Y009714D01*
X019232Y009720D01*
X019112Y009840D01*
X018955Y009905D01*
X018785Y009905D01*
X018628Y009840D01*
X018508Y009720D01*
X018443Y009563D01*
X018443Y009393D01*
X018508Y009236D01*
X018628Y009116D01*
X018785Y009051D01*
X018952Y009051D01*
X018952Y008966D01*
X019017Y008809D01*
X019138Y008689D01*
X019295Y008624D01*
X019464Y008624D01*
X019480Y008630D01*
X019912Y008220D01*
X019359Y008429D01*
X017876Y009147D01*
X016462Y009993D01*
X015128Y010959D01*
X013883Y012039D01*
X013829Y012095D02*
X016940Y012095D01*
X016823Y012212D02*
X013716Y012212D01*
X013604Y012329D02*
X016707Y012329D01*
X016590Y012445D02*
X013491Y012445D01*
X013379Y012562D02*
X016473Y012562D01*
X016357Y012679D02*
X013266Y012679D01*
X013154Y012795D02*
X016240Y012795D01*
X016123Y012912D02*
X013041Y012912D01*
X012928Y013028D02*
X016007Y013028D01*
X015890Y013145D02*
X012816Y013145D01*
X012709Y013262D02*
X015774Y013262D01*
X015657Y013378D02*
X012615Y013378D01*
X012521Y013495D02*
X015540Y013495D01*
X015424Y013611D02*
X012426Y013611D01*
X012332Y013728D02*
X015307Y013728D01*
X015191Y013845D02*
X012238Y013845D01*
X012144Y013961D02*
X015074Y013961D01*
X014957Y014078D02*
X012049Y014078D01*
X011955Y014194D02*
X014841Y014194D01*
X014724Y014311D02*
X011861Y014311D01*
X011767Y014428D02*
X014608Y014428D01*
X014491Y014544D02*
X011677Y014544D01*
X011599Y014661D02*
X014374Y014661D01*
X014258Y014778D02*
X011521Y014778D01*
X011442Y014894D02*
X014141Y014894D01*
X014024Y015011D02*
X011364Y015011D01*
X011286Y015127D02*
X013908Y015127D01*
X013791Y015244D02*
X011207Y015244D01*
X011129Y015361D02*
X013675Y015361D01*
X013558Y015477D02*
X011051Y015477D01*
X010972Y015594D02*
X013441Y015594D01*
X013325Y015710D02*
X010894Y015710D01*
X010815Y015827D02*
X013208Y015827D01*
X013092Y015944D02*
X010746Y015944D01*
X010681Y016060D02*
X012975Y016060D01*
X012858Y016177D02*
X010617Y016177D01*
X010553Y016293D02*
X012742Y016293D01*
X012625Y016410D02*
X010489Y016410D01*
X010424Y016527D02*
X012509Y016527D01*
X012392Y016643D02*
X010360Y016643D01*
X010296Y016760D02*
X012275Y016760D01*
X012159Y016877D02*
X010232Y016877D01*
X010167Y016993D02*
X012042Y016993D01*
X011925Y017110D02*
X010103Y017110D01*
X010039Y017226D02*
X011809Y017226D01*
X011692Y017343D02*
X009977Y017343D01*
X009926Y017460D02*
X011576Y017460D01*
X011459Y017576D02*
X009874Y017576D01*
X009823Y017693D02*
X011342Y017693D01*
X011226Y017809D02*
X009772Y017809D01*
X009720Y017926D02*
X011109Y017926D01*
X010993Y018043D02*
X009669Y018043D01*
X009617Y018159D02*
X010876Y018159D01*
X010759Y018276D02*
X009566Y018276D01*
X009514Y018392D02*
X010643Y018392D01*
X010637Y018509D02*
X009463Y018509D01*
X009411Y018626D02*
X010637Y018626D01*
X010637Y018742D02*
X009360Y018742D01*
X009312Y018859D02*
X010637Y018859D01*
X010637Y018976D02*
X009272Y018976D01*
X009233Y019092D02*
X010637Y019092D01*
X010637Y019209D02*
X009193Y019209D01*
X009154Y019325D02*
X010637Y019325D01*
X010637Y019442D02*
X009114Y019442D01*
X009074Y019559D02*
X010637Y019559D01*
X010637Y019675D02*
X009035Y019675D01*
X008995Y019792D02*
X010637Y019792D01*
X010637Y019908D02*
X008955Y019908D01*
X008916Y020025D02*
X010637Y020025D01*
X010637Y020142D02*
X009646Y020142D01*
X009978Y020258D02*
X010637Y020258D01*
X010637Y020375D02*
X010169Y020375D01*
X010286Y020491D02*
X010637Y020491D01*
X010637Y020608D02*
X010389Y020608D01*
X010456Y020725D02*
X010637Y020725D01*
X010637Y020958D02*
X010554Y020958D01*
X010585Y021075D02*
X010637Y021075D01*
X010637Y021191D02*
X010602Y021191D01*
X010602Y021308D02*
X010637Y021308D01*
X010637Y021424D02*
X010602Y021424D01*
X010575Y021541D02*
X010637Y021541D01*
X010637Y021658D02*
X010544Y021658D01*
X010502Y021774D02*
X010637Y021774D01*
X010637Y021891D02*
X010434Y021891D01*
X010365Y022007D02*
X010637Y022007D01*
X010637Y022124D02*
X010248Y022124D01*
X010115Y022241D02*
X010637Y022241D01*
X010637Y022357D02*
X009913Y022357D01*
X010720Y022474D02*
X008328Y022474D01*
X008311Y022590D02*
X010837Y022590D01*
X010954Y022707D02*
X008293Y022707D01*
X008275Y022824D02*
X011070Y022824D01*
X011187Y022940D02*
X008257Y022940D01*
X008239Y023057D02*
X011304Y023057D01*
X011343Y023173D02*
X010626Y023173D01*
X010630Y023174D02*
X010703Y023198D01*
X010772Y023233D01*
X010834Y023278D01*
X010888Y023333D01*
X010934Y023395D01*
X010969Y023463D01*
X010992Y023537D01*
X011004Y023613D01*
X011004Y023641D01*
X010525Y023641D01*
X010525Y023162D01*
X010554Y023162D01*
X010630Y023174D01*
X010525Y023173D02*
X010506Y023173D01*
X010506Y023162D02*
X010506Y023641D01*
X010525Y023641D01*
X010525Y023661D01*
X010506Y023661D01*
X010506Y024140D01*
X010477Y024140D01*
X010401Y024128D01*
X010328Y024104D01*
X010259Y024069D01*
X010197Y024024D01*
X010142Y023970D01*
X010097Y023908D01*
X010062Y023839D01*
X010038Y023766D01*
X010026Y023690D01*
X010026Y023661D01*
X010506Y023661D01*
X010506Y023641D01*
X010026Y023641D01*
X010026Y023613D01*
X010038Y023537D01*
X010062Y023463D01*
X010097Y023395D01*
X010142Y023333D01*
X010197Y023278D01*
X010259Y023233D01*
X010328Y023198D01*
X010401Y023174D01*
X010477Y023162D01*
X010506Y023162D01*
X010405Y023173D02*
X008222Y023173D01*
X008204Y023290D02*
X010185Y023290D01*
X010091Y023407D02*
X008186Y023407D01*
X008168Y023523D02*
X010043Y023523D01*
X010026Y023640D02*
X008153Y023640D01*
X008145Y023757D02*
X010037Y023757D01*
X010080Y023873D02*
X008138Y023873D01*
X008131Y023990D02*
X010162Y023990D01*
X010334Y024106D02*
X008123Y024106D01*
X008116Y024223D02*
X011787Y024223D01*
X011787Y024340D02*
X008108Y024340D01*
X008101Y024456D02*
X011787Y024456D01*
X011787Y024573D02*
X008094Y024573D01*
X008086Y024689D02*
X011787Y024689D01*
X011787Y024806D02*
X008079Y024806D01*
X008071Y024923D02*
X011787Y024923D01*
X011787Y025039D02*
X008064Y025039D01*
X008057Y025156D02*
X011787Y025156D01*
X011787Y025272D02*
X008051Y025272D01*
X008053Y025389D02*
X011787Y025389D01*
X011787Y025506D02*
X008056Y025506D01*
X008059Y025622D02*
X011787Y025622D01*
X011787Y025739D02*
X008062Y025739D01*
X008065Y025856D02*
X011787Y025856D01*
X011787Y025972D02*
X008068Y025972D01*
X008071Y026089D02*
X011787Y026089D01*
X011787Y026205D02*
X008074Y026205D01*
X008077Y026322D02*
X011787Y026322D01*
X011787Y026439D02*
X008079Y026439D01*
X008082Y026555D02*
X011802Y026555D01*
X011918Y026672D02*
X008085Y026672D01*
X008088Y026788D02*
X012035Y026788D01*
X012205Y026958D02*
X012202Y026964D01*
X012202Y027134D01*
X012267Y027291D01*
X012388Y027411D01*
X012545Y027476D01*
X012714Y027476D01*
X012871Y027411D01*
X012992Y027291D01*
X013057Y027134D01*
X013057Y026964D01*
X012992Y026807D01*
X012871Y026687D01*
X012714Y026622D01*
X012545Y026622D01*
X012539Y026624D01*
X012259Y026345D01*
X012259Y023678D01*
X012469Y023887D01*
X012664Y023887D01*
X012861Y023887D01*
X012864Y023893D01*
X012984Y024013D01*
X013141Y024078D01*
X013311Y024078D01*
X013468Y024013D01*
X013588Y023893D01*
X013653Y023736D01*
X013653Y023566D01*
X013588Y023409D01*
X013468Y023289D01*
X013311Y023224D01*
X013141Y023224D01*
X012984Y023289D01*
X012864Y023409D01*
X012861Y023415D01*
X012664Y023415D01*
X012050Y022801D01*
X015999Y022801D01*
X016137Y022662D01*
X016740Y022059D01*
X016820Y022092D01*
X017042Y022092D01*
X017246Y022007D01*
X017655Y022007D01*
X017632Y021996D02*
X017564Y021946D01*
X017504Y021886D01*
X017454Y021818D01*
X017433Y021777D01*
X017403Y021851D01*
X017246Y022007D01*
X017363Y021891D02*
X017508Y021891D01*
X017632Y021996D02*
X017708Y022035D01*
X017789Y022061D01*
X017866Y022073D01*
X017866Y021584D01*
X017964Y021584D01*
X018453Y021584D01*
X018441Y021661D01*
X018415Y021742D01*
X018376Y021818D01*
X018326Y021886D01*
X018266Y021946D01*
X018197Y021996D01*
X018122Y022035D01*
X018041Y022061D01*
X017964Y022073D01*
X017964Y021584D01*
X017964Y021486D01*
X017964Y020997D01*
X018041Y021009D01*
X018122Y021035D01*
X018197Y021074D01*
X018266Y021124D01*
X018326Y021184D01*
X018376Y021253D01*
X018415Y021328D01*
X018441Y021409D01*
X018453Y021486D01*
X017964Y021486D01*
X017866Y021486D01*
X017866Y020997D01*
X017789Y021009D01*
X017708Y021035D01*
X017632Y021074D01*
X017564Y021124D01*
X017504Y021184D01*
X017454Y021253D01*
X017433Y021293D01*
X017403Y021219D01*
X017246Y021063D01*
X017042Y020978D01*
X016820Y020978D01*
X016615Y021063D01*
X016458Y021219D01*
X016374Y021424D01*
X016374Y021646D01*
X016406Y021725D01*
X015803Y022328D01*
X011912Y022328D01*
X011582Y021998D01*
X011582Y018790D01*
X019755Y010618D01*
X019807Y010744D01*
X019927Y010864D01*
X020084Y010929D01*
X020254Y010929D01*
X020411Y010864D01*
X020517Y010757D01*
X021025Y010757D01*
X022471Y012203D01*
X022565Y012242D01*
X022573Y012242D01*
X022506Y012309D01*
X022441Y012466D01*
X022441Y012636D01*
X022506Y012793D01*
X022626Y012913D01*
X022631Y012915D01*
X022631Y013240D01*
X022177Y013695D01*
X022177Y018526D01*
X018815Y021887D01*
X018815Y021887D01*
X018677Y022026D01*
X018677Y024309D01*
X018571Y024265D01*
X018401Y024265D01*
X018244Y024330D01*
X018124Y024451D01*
X018059Y024608D01*
X018059Y024777D01*
X018124Y024934D01*
X018230Y025041D01*
X018230Y025137D01*
X018269Y025231D01*
X018401Y025363D01*
X018401Y026583D01*
X016407Y028576D01*
X014770Y028576D01*
X014676Y028615D01*
X014050Y029241D01*
X014050Y029241D01*
X013978Y029313D01*
X013939Y029407D01*
X013939Y032120D01*
X013557Y032502D01*
X013407Y032502D01*
X013250Y032567D01*
X013130Y032687D01*
X013065Y032844D01*
X013065Y033014D01*
X013130Y033171D01*
X013250Y033291D01*
X013407Y033356D01*
X013577Y033356D01*
X013734Y033291D01*
X013854Y033171D01*
X013919Y033014D01*
X013919Y032863D01*
X014339Y032443D01*
X014411Y032371D01*
X014450Y032277D01*
X014450Y029564D01*
X014926Y029088D01*
X016448Y029088D01*
X016448Y029883D01*
X017594Y031029D01*
X017594Y033033D01*
X017486Y032988D01*
X017316Y032988D01*
X017159Y033053D01*
X017039Y033173D01*
X016974Y033330D01*
X016974Y033500D01*
X017039Y033657D01*
X017159Y033777D01*
X017316Y033842D01*
X017486Y033842D01*
X017492Y033840D01*
X019571Y035919D01*
X019889Y035919D01*
X019891Y035925D01*
X020012Y036045D01*
X020169Y036110D01*
X020339Y036110D01*
X020496Y036045D01*
X020616Y035925D01*
X020681Y035768D01*
X020681Y035598D01*
X020616Y035441D01*
X020496Y035321D01*
X020339Y035256D01*
X020242Y035256D01*
X020242Y035159D01*
X020177Y035002D01*
X020057Y034882D01*
X019900Y034817D01*
X019730Y034817D01*
X019724Y034819D01*
X019635Y034730D01*
X019361Y034730D01*
X018067Y033435D01*
X025850Y033435D01*
X025834Y033419D02*
X025681Y033155D01*
X025602Y032859D01*
X025602Y032553D01*
X025681Y032258D01*
X025834Y031993D01*
X026050Y031777D01*
X026315Y031624D01*
X026610Y031545D01*
X026916Y031545D01*
X027212Y031624D01*
X027477Y031777D01*
X027693Y031993D01*
X027846Y032258D01*
X027925Y032553D01*
X027925Y032859D01*
X027846Y033155D01*
X027693Y033419D01*
X027477Y033636D01*
X027212Y033789D01*
X027084Y033823D01*
X027214Y033954D01*
X027367Y034219D01*
X027446Y034514D01*
X027446Y034820D01*
X027367Y035115D01*
X027214Y035380D01*
X026998Y035596D01*
X026733Y035749D01*
X026438Y035828D01*
X026132Y035828D01*
X025837Y035749D01*
X025572Y035596D01*
X025356Y035380D01*
X025203Y035115D01*
X025124Y034820D01*
X025124Y034514D01*
X025203Y034219D01*
X025356Y033954D01*
X025572Y033738D01*
X025837Y033585D01*
X025965Y033550D01*
X025834Y033419D01*
X025776Y033319D02*
X018067Y033319D01*
X018067Y033435D02*
X018067Y030833D01*
X017928Y030694D01*
X017248Y030014D01*
X017354Y029970D01*
X017474Y029850D01*
X017539Y029693D01*
X017539Y029523D01*
X017474Y029366D01*
X017354Y029246D01*
X017348Y029243D01*
X017348Y029029D01*
X019385Y026991D01*
X019385Y022320D01*
X022747Y018958D01*
X022885Y018820D01*
X022885Y017319D01*
X023037Y017381D01*
X023207Y017381D01*
X023364Y017316D01*
X023421Y017259D01*
X023518Y017356D01*
X023693Y017428D01*
X023881Y017428D01*
X024056Y017356D01*
X024189Y017223D01*
X024261Y017049D01*
X024261Y016860D01*
X024189Y016686D01*
X024056Y016552D01*
X023881Y016480D01*
X023693Y016480D01*
X023518Y016552D01*
X023421Y016650D01*
X023364Y016592D01*
X023207Y016527D01*
X023037Y016527D01*
X022885Y016590D01*
X022885Y013989D01*
X023472Y013403D01*
X023478Y013405D01*
X023648Y013405D01*
X023805Y013340D01*
X023925Y013220D01*
X023990Y013063D01*
X023990Y012893D01*
X023925Y012736D01*
X023805Y012616D01*
X023648Y012551D01*
X023478Y012551D01*
X023321Y012616D01*
X023291Y012646D01*
X023295Y012636D01*
X023295Y012466D01*
X023230Y012309D01*
X023163Y012242D01*
X023468Y012242D01*
X024390Y013163D01*
X024484Y013202D01*
X027555Y013202D01*
X033446Y019094D01*
X033446Y023974D01*
X033485Y024068D01*
X034584Y025167D01*
X034584Y025401D01*
X034478Y025508D01*
X034413Y025665D01*
X034413Y025835D01*
X034478Y025992D01*
X034598Y026112D01*
X034755Y026177D01*
X034925Y026177D01*
X035082Y026112D01*
X035202Y025992D01*
X035267Y025835D01*
X035267Y025665D01*
X035202Y025508D01*
X035096Y025401D01*
X035096Y025010D01*
X035057Y024916D01*
X034985Y024844D01*
X034985Y024844D01*
X033958Y023817D01*
X033958Y023153D01*
X034071Y023265D01*
X034169Y023363D01*
X034169Y024027D01*
X035267Y025125D01*
X035267Y025988D01*
X034937Y026319D01*
X034927Y026315D01*
X034754Y026315D01*
X034594Y026381D01*
X034472Y026503D01*
X034406Y026663D01*
X034406Y026836D01*
X034472Y026996D01*
X034594Y027118D01*
X034754Y027184D01*
X034927Y027184D01*
X035039Y027138D01*
X035038Y027138D01*
X035039Y027138D02*
X035039Y027217D01*
X034937Y027319D01*
X034927Y027315D01*
X034754Y027315D01*
X034594Y027381D01*
X034472Y027503D01*
X034406Y027663D01*
X034406Y027836D01*
X034472Y027996D01*
X034594Y028118D01*
X034754Y028184D01*
X034927Y028184D01*
X035086Y028118D01*
X035209Y027996D01*
X035275Y027836D01*
X035275Y027663D01*
X035271Y027653D01*
X035373Y027551D01*
X035373Y027551D01*
X035511Y027412D01*
X035511Y026747D01*
X035604Y026655D01*
X035604Y027377D01*
X035594Y027381D01*
X035472Y027503D01*
X035406Y027663D01*
X035406Y027836D01*
X035472Y027996D01*
X035594Y028118D01*
X035754Y028184D01*
X035927Y028184D01*
X036039Y028138D01*
X036039Y028217D01*
X035937Y028319D01*
X035927Y028315D01*
X035754Y028315D01*
X035594Y028381D01*
X035472Y028503D01*
X035406Y028663D01*
X035406Y028836D01*
X035472Y028996D01*
X035594Y029118D01*
X035754Y029184D01*
X035927Y029184D01*
X036039Y029138D01*
X036039Y029217D01*
X035937Y029319D01*
X035927Y029315D01*
X035754Y029315D01*
X035594Y029381D01*
X035472Y029503D01*
X035406Y029663D01*
X035406Y029836D01*
X035472Y029996D01*
X035594Y030118D01*
X035754Y030184D01*
X035927Y030184D01*
X036086Y030118D01*
X036209Y029996D01*
X036275Y029836D01*
X036275Y029663D01*
X036271Y029653D01*
X036373Y029551D01*
X036373Y029551D01*
X036511Y029412D01*
X036511Y028747D01*
X036609Y028649D01*
X036748Y028511D01*
X036748Y027374D01*
X036549Y027175D01*
X036549Y026714D01*
X036685Y026578D01*
X036685Y024536D01*
X036220Y024071D01*
X036220Y022175D01*
X036021Y021977D01*
X036021Y016475D01*
X035715Y016168D01*
X035754Y016184D01*
X035927Y016184D01*
X036086Y016118D01*
X036209Y015996D01*
X036275Y015836D01*
X036275Y015663D01*
X036209Y015503D01*
X036086Y015381D01*
X035927Y015315D01*
X035754Y015315D01*
X035594Y015381D01*
X035472Y015503D01*
X035468Y015513D01*
X035395Y015513D01*
X033565Y013683D01*
X033565Y013128D01*
X033565Y013030D01*
X033565Y013030D01*
X033565Y013030D01*
X033496Y012961D01*
X033483Y012948D01*
X033505Y012896D01*
X033505Y012694D01*
X033428Y012508D01*
X033285Y012365D01*
X033099Y012288D01*
X032897Y012288D01*
X032710Y012365D01*
X032568Y012508D01*
X032496Y012680D01*
X030630Y010814D01*
X030667Y010814D01*
X030853Y010737D01*
X030996Y010594D01*
X031073Y010408D01*
X031073Y010206D01*
X030996Y010019D01*
X030853Y009877D01*
X030667Y009800D01*
X030465Y009800D01*
X030279Y009877D01*
X030136Y010019D01*
X030059Y010206D01*
X030059Y010243D01*
X029629Y009813D01*
X027861Y009813D01*
X027344Y009295D01*
X025962Y009295D01*
X024635Y007968D01*
X020575Y007968D01*
X020900Y007845D01*
X022486Y007398D01*
X024105Y007092D01*
X025744Y006930D01*
X026136Y006926D01*
X026050Y006976D01*
X025834Y007192D01*
X025681Y007457D01*
X025602Y007752D01*
X025602Y008058D01*
X025681Y008353D01*
X025834Y008618D01*
X026050Y008834D01*
X026315Y008987D01*
X026610Y009067D01*
X026916Y009067D01*
X027212Y008987D01*
X027477Y008834D01*
X027693Y008618D01*
X027846Y008353D01*
X027925Y008058D01*
X027925Y007752D01*
X027846Y007457D01*
X027693Y007192D01*
X027477Y006976D01*
X027369Y006913D01*
X027392Y006913D01*
X029035Y007041D01*
X030660Y007313D01*
X032255Y007726D01*
X033807Y008279D01*
X034564Y008606D01*
X035216Y008920D01*
X036481Y009624D01*
X037013Y009961D01*
X037013Y037029D01*
X037013Y037034D01*
X037008Y037043D01*
X036999Y037048D01*
X036994Y037049D01*
X024169Y037049D01*
X023506Y037181D01*
X023506Y037181D01*
X022881Y037440D01*
X022881Y037440D01*
X022319Y037815D01*
X022319Y037815D01*
X021841Y038293D01*
X021465Y038856D01*
X021206Y039481D01*
X021074Y040144D01*
X021074Y040305D01*
X015161Y040305D01*
X014571Y039820D01*
X014571Y039820D01*
X013369Y038692D01*
X012271Y037464D01*
X011286Y036143D01*
X010420Y034741D01*
X009681Y033268D01*
X009075Y031736D01*
X008605Y030157D01*
X008276Y028543D01*
X008091Y026905D01*
X008104Y027022D02*
X012202Y027022D01*
X012204Y027138D02*
X011754Y027138D01*
X011803Y027158D02*
X011945Y027301D01*
X012023Y027487D01*
X012023Y027689D01*
X011945Y027875D01*
X011803Y028018D01*
X011616Y028095D01*
X011414Y028095D01*
X011228Y028018D01*
X011085Y027875D01*
X011008Y027689D01*
X011008Y027487D01*
X011085Y027301D01*
X011228Y027158D01*
X011414Y027081D01*
X011616Y027081D01*
X011803Y027158D01*
X011899Y027255D02*
X012253Y027255D01*
X012348Y027371D02*
X011975Y027371D01*
X012023Y027488D02*
X017496Y027488D01*
X017612Y027371D02*
X012911Y027371D01*
X013007Y027255D02*
X017729Y027255D01*
X017846Y027138D02*
X015007Y027138D01*
X015082Y027107D02*
X014915Y027176D01*
X014734Y027176D01*
X014567Y027107D01*
X014439Y026979D01*
X014370Y026812D01*
X014370Y026632D01*
X014439Y026465D01*
X014507Y026397D01*
X014456Y026397D01*
X014446Y026387D01*
X014442Y026387D01*
X014379Y026451D01*
X014240Y026509D01*
X014090Y026509D01*
X014087Y026507D01*
X014075Y026519D01*
X013907Y026589D01*
X013726Y026589D01*
X013558Y026519D01*
X013544Y026506D01*
X013526Y026506D01*
X013513Y026519D01*
X013344Y026589D01*
X013163Y026589D01*
X012995Y026519D01*
X012866Y026390D01*
X012796Y026222D01*
X012796Y026041D01*
X012866Y025873D01*
X012995Y025744D01*
X013163Y025674D01*
X013344Y025674D01*
X013513Y025744D01*
X013526Y025757D01*
X013544Y025757D01*
X013558Y025744D01*
X013726Y025674D01*
X013907Y025674D01*
X014075Y025744D01*
X014084Y025752D01*
X014240Y025752D01*
X014352Y025799D01*
X014352Y025202D01*
X014370Y025184D01*
X014370Y025108D01*
X014446Y025108D01*
X014446Y025108D01*
X014370Y025108D01*
X014370Y024998D01*
X014381Y024958D01*
X014402Y024922D01*
X014431Y024892D01*
X014468Y024871D01*
X014508Y024860D01*
X014525Y024860D01*
X014439Y024775D01*
X014370Y024608D01*
X014370Y024427D01*
X014439Y024260D01*
X014567Y024132D01*
X014734Y024063D01*
X014915Y024063D01*
X015082Y024132D01*
X015210Y024260D01*
X015279Y024427D01*
X015279Y024608D01*
X015210Y024775D01*
X015124Y024860D01*
X015141Y024860D01*
X015181Y024871D01*
X015217Y024892D01*
X015247Y024922D01*
X015268Y024958D01*
X015279Y024998D01*
X015279Y025108D01*
X015279Y025184D01*
X015297Y025202D01*
X015297Y025220D01*
X015373Y025144D01*
X015579Y025059D01*
X015802Y025059D01*
X016008Y025144D01*
X016166Y025302D01*
X016252Y025508D01*
X016252Y025731D01*
X016166Y025937D01*
X016008Y026095D01*
X015802Y026181D01*
X015579Y026181D01*
X015373Y026095D01*
X015297Y026019D01*
X015297Y026293D01*
X015193Y026397D01*
X015142Y026397D01*
X015210Y026465D01*
X015279Y026632D01*
X015279Y026812D01*
X015210Y026979D01*
X015082Y027107D01*
X015167Y027022D02*
X017962Y027022D01*
X018079Y026905D02*
X015240Y026905D01*
X015279Y026788D02*
X018195Y026788D01*
X018312Y026672D02*
X015279Y026672D01*
X015247Y026555D02*
X018401Y026555D01*
X018401Y026439D02*
X015183Y026439D01*
X015268Y026322D02*
X018401Y026322D01*
X018401Y026205D02*
X015297Y026205D01*
X015297Y026089D02*
X015366Y026089D01*
X016015Y026089D02*
X018401Y026089D01*
X018401Y025972D02*
X016131Y025972D01*
X016200Y025856D02*
X018401Y025856D01*
X018401Y025739D02*
X016248Y025739D01*
X016252Y025622D02*
X018401Y025622D01*
X018401Y025506D02*
X016251Y025506D01*
X016202Y025389D02*
X018401Y025389D01*
X018310Y025272D02*
X016137Y025272D01*
X016020Y025156D02*
X018238Y025156D01*
X018228Y025039D02*
X015279Y025039D01*
X015279Y025108D02*
X015203Y025108D01*
X015279Y025108D01*
X015279Y025156D02*
X015361Y025156D01*
X015203Y025108D02*
X015203Y025108D01*
X015248Y024923D02*
X018119Y024923D01*
X018070Y024806D02*
X015178Y024806D01*
X015245Y024689D02*
X018059Y024689D01*
X018073Y024573D02*
X015279Y024573D01*
X015279Y024456D02*
X018121Y024456D01*
X018235Y024340D02*
X015243Y024340D01*
X015173Y024223D02*
X018677Y024223D01*
X018677Y024106D02*
X015020Y024106D01*
X014629Y024106D02*
X012259Y024106D01*
X012259Y023990D02*
X012960Y023990D01*
X013226Y023651D02*
X012567Y023651D01*
X011110Y022194D01*
X011110Y018594D01*
X020279Y009425D01*
X020279Y009200D01*
X020567Y008913D01*
X024242Y008913D01*
X025569Y010240D01*
X026950Y010240D01*
X027328Y010618D01*
X027328Y011159D01*
X027756Y011163D02*
X029976Y011163D01*
X030093Y011279D02*
X029568Y011279D01*
X029525Y011236D02*
X029645Y011356D01*
X029648Y011362D01*
X030007Y011362D01*
X030145Y011500D01*
X030198Y011553D01*
X030366Y011553D01*
X029335Y010521D01*
X028141Y010521D01*
X028185Y010627D01*
X028185Y010797D01*
X028120Y010954D01*
X027999Y011074D01*
X027842Y011139D01*
X027756Y011139D01*
X027756Y011244D01*
X027690Y011401D01*
X027570Y011521D01*
X027421Y011583D01*
X027446Y011679D01*
X027446Y011985D01*
X027367Y012281D01*
X027214Y012545D01*
X027069Y012691D01*
X027712Y012691D01*
X027806Y012730D01*
X033847Y018771D01*
X033919Y018843D01*
X033958Y018937D01*
X033958Y022349D01*
X034131Y022175D01*
X034131Y017259D01*
X031717Y014844D01*
X031638Y014844D01*
X031635Y014850D01*
X031515Y014970D01*
X031358Y015035D01*
X031188Y015035D01*
X031031Y014970D01*
X030911Y014850D01*
X030846Y014693D01*
X030846Y014523D01*
X030911Y014366D01*
X031031Y014246D01*
X031188Y014181D01*
X031293Y014181D01*
X031293Y014181D01*
X031188Y014181D01*
X031031Y014116D01*
X030911Y013996D01*
X030846Y013839D01*
X030846Y013669D01*
X030911Y013512D01*
X031031Y013391D01*
X031188Y013326D01*
X031358Y013326D01*
X031515Y013391D01*
X031635Y013512D01*
X031638Y013517D01*
X031662Y013517D01*
X030406Y012261D01*
X030096Y012261D01*
X030094Y012267D01*
X029974Y012387D01*
X029817Y012452D01*
X029647Y012452D01*
X029490Y012387D01*
X029370Y012267D01*
X029305Y012110D01*
X029305Y012025D01*
X029198Y012025D01*
X029041Y011960D01*
X028921Y011840D01*
X028856Y011683D01*
X028856Y011513D01*
X028921Y011356D01*
X029041Y011236D01*
X029198Y011171D01*
X029368Y011171D01*
X029525Y011236D01*
X029743Y010929D02*
X028130Y010929D01*
X028178Y010813D02*
X029626Y010813D01*
X029510Y010696D02*
X028185Y010696D01*
X028165Y010580D02*
X029393Y010580D01*
X029433Y010285D02*
X032856Y013708D01*
X032856Y013978D01*
X035549Y016671D01*
X035549Y022173D01*
X035748Y022372D01*
X035748Y024267D01*
X036212Y024732D01*
X036212Y026381D01*
X036076Y026517D01*
X036076Y027372D01*
X036275Y027570D01*
X036275Y028283D01*
X036275Y028315D01*
X035840Y028750D01*
X035406Y028771D02*
X033195Y028771D01*
X033079Y028654D02*
X035409Y028654D01*
X035458Y028538D02*
X032962Y028538D01*
X032872Y028447D02*
X034744Y030319D01*
X034754Y030315D01*
X034927Y030315D01*
X035086Y030381D01*
X035209Y030503D01*
X035275Y030663D01*
X035275Y030836D01*
X035209Y030996D01*
X035086Y031118D01*
X034927Y031184D01*
X034754Y031184D01*
X034641Y031138D01*
X034641Y031217D01*
X034744Y031319D01*
X034754Y031315D01*
X034927Y031315D01*
X035086Y031381D01*
X035209Y031503D01*
X035275Y031663D01*
X035275Y031836D01*
X035209Y031996D01*
X035086Y032118D01*
X034927Y032184D01*
X034754Y032184D01*
X034594Y032118D01*
X034472Y031996D01*
X034406Y031836D01*
X034406Y031663D01*
X034410Y031653D01*
X034307Y031551D01*
X034169Y031412D01*
X034167Y031410D01*
X034167Y031215D01*
X034169Y031213D01*
X034169Y030747D01*
X032301Y028880D01*
X032163Y028741D01*
X032163Y022966D01*
X031760Y022562D01*
X031754Y022565D01*
X031584Y022565D01*
X031427Y022500D01*
X031307Y022379D01*
X031242Y022222D01*
X031242Y022052D01*
X031307Y021895D01*
X031368Y021834D01*
X031295Y021761D01*
X031230Y021604D01*
X031230Y021434D01*
X031295Y021277D01*
X031415Y021157D01*
X031572Y021092D01*
X031742Y021092D01*
X031899Y021157D01*
X032019Y021277D01*
X032084Y021434D01*
X032084Y021604D01*
X032082Y021610D01*
X032194Y021722D01*
X032332Y021860D01*
X032332Y022132D01*
X032733Y022533D01*
X032872Y022671D01*
X032872Y028447D01*
X032872Y028421D02*
X035554Y028421D01*
X035547Y028071D02*
X035133Y028071D01*
X035226Y027955D02*
X035455Y027955D01*
X035406Y027838D02*
X035274Y027838D01*
X035275Y027721D02*
X035406Y027721D01*
X035430Y027605D02*
X035319Y027605D01*
X035436Y027488D02*
X035487Y027488D01*
X035511Y027371D02*
X035604Y027371D01*
X035604Y027255D02*
X035511Y027255D01*
X035511Y027138D02*
X035604Y027138D01*
X035604Y027022D02*
X035511Y027022D01*
X035511Y026905D02*
X035604Y026905D01*
X035604Y026788D02*
X035511Y026788D01*
X035587Y026672D02*
X035604Y026672D01*
X035275Y026649D02*
X035740Y026185D01*
X035740Y024929D01*
X035275Y024464D01*
X035275Y022569D01*
X035076Y022370D01*
X035076Y016868D01*
X032383Y014175D01*
X032383Y013905D01*
X030504Y012025D01*
X029732Y012025D01*
X030032Y012329D02*
X030473Y012329D01*
X030590Y012445D02*
X029834Y012445D01*
X029630Y012445D02*
X027272Y012445D01*
X027340Y012329D02*
X029431Y012329D01*
X029347Y012212D02*
X027386Y012212D01*
X027417Y012095D02*
X029305Y012095D01*
X029086Y011979D02*
X027446Y011979D01*
X027446Y011862D02*
X028943Y011862D01*
X028882Y011746D02*
X027446Y011746D01*
X027433Y011629D02*
X028856Y011629D01*
X028856Y011512D02*
X027579Y011512D01*
X027693Y011396D02*
X028904Y011396D01*
X028998Y011279D02*
X027741Y011279D01*
X028028Y011046D02*
X029860Y011046D01*
X030041Y011396D02*
X030209Y011396D01*
X030158Y011512D02*
X030326Y011512D01*
X030100Y011789D02*
X029909Y011598D01*
X029283Y011598D01*
X030100Y011789D02*
X030602Y011789D01*
X032620Y013807D01*
X032620Y014076D01*
X035313Y016769D01*
X035313Y022271D01*
X035511Y022470D01*
X035511Y024366D01*
X035976Y024830D01*
X035976Y026283D01*
X035840Y026419D01*
X035840Y027750D01*
X036039Y028188D02*
X032872Y028188D01*
X032872Y028304D02*
X035951Y028304D01*
X036275Y028649D02*
X036511Y028413D01*
X036511Y027472D01*
X036313Y027273D01*
X036313Y026616D01*
X036448Y026480D01*
X036448Y024633D01*
X035984Y024169D01*
X035984Y022273D01*
X035785Y022074D01*
X035785Y016572D01*
X033092Y013880D01*
X033092Y013610D01*
X029531Y010049D01*
X027763Y010049D01*
X027246Y009531D01*
X025864Y009531D01*
X024537Y008204D01*
X020271Y008204D01*
X019380Y009051D01*
X019807Y009004D02*
X019807Y009228D01*
X019557Y009478D01*
X018870Y009478D01*
X019016Y009880D02*
X019155Y009880D01*
X019188Y009763D02*
X019272Y009763D01*
X019039Y009997D02*
X016457Y009997D01*
X016296Y010113D02*
X018922Y010113D01*
X018805Y010230D02*
X016135Y010230D01*
X015974Y010346D02*
X018689Y010346D01*
X018572Y010463D02*
X015813Y010463D01*
X015652Y010580D02*
X018456Y010580D01*
X018339Y010696D02*
X015491Y010696D01*
X015330Y010813D02*
X018222Y010813D01*
X018106Y010929D02*
X015169Y010929D01*
X015028Y011046D02*
X017989Y011046D01*
X017873Y011163D02*
X014893Y011163D01*
X014759Y011279D02*
X017756Y011279D01*
X017639Y011396D02*
X014625Y011396D01*
X014490Y011512D02*
X017523Y011512D01*
X017406Y011629D02*
X014356Y011629D01*
X014222Y011746D02*
X017290Y011746D01*
X017173Y011862D02*
X014087Y011862D01*
X016528Y013845D02*
X022177Y013845D01*
X022177Y013961D02*
X016411Y013961D01*
X016295Y014078D02*
X022177Y014078D01*
X022177Y014194D02*
X016178Y014194D01*
X016062Y014311D02*
X022177Y014311D01*
X022177Y014428D02*
X015945Y014428D01*
X015828Y014544D02*
X022177Y014544D01*
X022177Y014661D02*
X015712Y014661D01*
X015595Y014778D02*
X022177Y014778D01*
X022177Y014894D02*
X015478Y014894D01*
X015362Y015011D02*
X022177Y015011D01*
X022177Y015127D02*
X015245Y015127D01*
X015129Y015244D02*
X022177Y015244D01*
X022177Y015361D02*
X015012Y015361D01*
X014895Y015477D02*
X022177Y015477D01*
X022177Y015594D02*
X014779Y015594D01*
X014662Y015710D02*
X022177Y015710D01*
X022177Y015827D02*
X014546Y015827D01*
X014429Y015944D02*
X022177Y015944D01*
X022177Y016060D02*
X014312Y016060D01*
X014196Y016177D02*
X022177Y016177D01*
X022177Y016293D02*
X014079Y016293D01*
X013963Y016410D02*
X022177Y016410D01*
X022177Y016527D02*
X013846Y016527D01*
X013729Y016643D02*
X022177Y016643D01*
X022177Y016760D02*
X013613Y016760D01*
X013496Y016877D02*
X022177Y016877D01*
X022177Y016993D02*
X013380Y016993D01*
X013263Y017110D02*
X022177Y017110D01*
X022177Y017226D02*
X013146Y017226D01*
X013030Y017343D02*
X022177Y017343D01*
X022177Y017460D02*
X012913Y017460D01*
X012796Y017576D02*
X022177Y017576D01*
X022177Y017693D02*
X018673Y017693D01*
X018710Y017708D02*
X018830Y017829D01*
X018895Y017986D01*
X018895Y018155D01*
X018830Y018312D01*
X018710Y018433D01*
X018553Y018498D01*
X018383Y018498D01*
X018226Y018433D01*
X018106Y018312D01*
X018041Y018155D01*
X018041Y017986D01*
X018106Y017829D01*
X018226Y017708D01*
X018383Y017643D01*
X018553Y017643D01*
X018710Y017708D01*
X018811Y017809D02*
X022177Y017809D01*
X022177Y017926D02*
X018871Y017926D01*
X018895Y018043D02*
X022177Y018043D01*
X022177Y018159D02*
X018894Y018159D01*
X018845Y018276D02*
X022177Y018276D01*
X022177Y018392D02*
X018750Y018392D01*
X018186Y018392D02*
X011980Y018392D01*
X012097Y018276D02*
X018091Y018276D01*
X018043Y018159D02*
X012213Y018159D01*
X012330Y018043D02*
X018041Y018043D01*
X018066Y017926D02*
X012447Y017926D01*
X012563Y017809D02*
X018125Y017809D01*
X018264Y017693D02*
X012680Y017693D01*
X011864Y018509D02*
X022177Y018509D01*
X022077Y018626D02*
X011747Y018626D01*
X011630Y018742D02*
X012669Y018742D01*
X012669Y019340D01*
X012787Y019340D01*
X012787Y018742D01*
X012857Y018751D01*
X012940Y018774D01*
X013020Y018807D01*
X013095Y018850D01*
X013163Y018903D01*
X013225Y018964D01*
X013277Y019032D01*
X013320Y019107D01*
X013353Y019187D01*
X013376Y019270D01*
X013385Y019340D01*
X012787Y019340D01*
X012787Y019458D01*
X013385Y019458D01*
X013376Y019528D01*
X013353Y019612D01*
X013320Y019691D01*
X013277Y019766D01*
X013225Y019835D01*
X013163Y019896D01*
X013095Y019948D01*
X013020Y019992D01*
X012940Y020025D01*
X012857Y020047D01*
X012787Y020056D01*
X012787Y019458D01*
X012669Y019458D01*
X012669Y019340D01*
X012071Y019340D01*
X012080Y019270D01*
X012103Y019187D01*
X012136Y019107D01*
X012179Y019032D01*
X012231Y018964D01*
X012293Y018903D01*
X012361Y018850D01*
X012436Y018807D01*
X012516Y018774D01*
X012599Y018751D01*
X012669Y018742D01*
X012787Y018742D01*
X014677Y018742D01*
X014677Y019340D01*
X014795Y019340D01*
X014795Y019458D01*
X015393Y019458D01*
X015384Y019528D01*
X015361Y019612D01*
X015328Y019691D01*
X015285Y019766D01*
X015232Y019835D01*
X015171Y019896D01*
X015103Y019948D01*
X015028Y019992D01*
X014948Y020025D01*
X014865Y020047D01*
X014795Y020056D01*
X014795Y019458D01*
X014677Y019458D01*
X014677Y019340D01*
X014079Y019340D01*
X014088Y019270D01*
X014110Y019187D01*
X014143Y019107D01*
X014187Y019032D01*
X014239Y018964D01*
X014300Y018903D01*
X014369Y018850D01*
X014444Y018807D01*
X014523Y018774D01*
X014607Y018751D01*
X014677Y018742D01*
X014795Y018742D01*
X021960Y018742D01*
X021844Y018859D02*
X015114Y018859D01*
X015103Y018850D02*
X015171Y018903D01*
X015232Y018964D01*
X015285Y019032D01*
X015328Y019107D01*
X015361Y019187D01*
X015384Y019270D01*
X015393Y019340D01*
X014795Y019340D01*
X014795Y018742D01*
X014865Y018751D01*
X014948Y018774D01*
X015028Y018807D01*
X015103Y018850D01*
X015241Y018976D02*
X021727Y018976D01*
X021610Y019092D02*
X015319Y019092D01*
X015367Y019209D02*
X021494Y019209D01*
X021377Y019325D02*
X015391Y019325D01*
X015375Y019559D02*
X021144Y019559D01*
X021027Y019675D02*
X015335Y019675D01*
X015265Y019792D02*
X020911Y019792D01*
X020794Y019908D02*
X015155Y019908D01*
X014947Y020025D02*
X020678Y020025D01*
X020561Y020142D02*
X014357Y020142D01*
X014405Y020258D02*
X020444Y020258D01*
X020328Y020375D02*
X014409Y020375D01*
X014409Y020268D02*
X014306Y020020D01*
X014115Y019829D01*
X013867Y019726D01*
X013597Y019726D01*
X013348Y019829D01*
X013158Y020020D01*
X013055Y020268D01*
X013055Y020538D01*
X013158Y020787D01*
X013348Y020977D01*
X013597Y021080D01*
X013867Y021080D01*
X014115Y020977D01*
X014306Y020787D01*
X014409Y020538D01*
X014409Y020268D01*
X014409Y020491D02*
X020211Y020491D01*
X020094Y020608D02*
X014380Y020608D01*
X014332Y020725D02*
X019978Y020725D01*
X019861Y020841D02*
X015074Y020841D01*
X015103Y020858D02*
X015171Y020910D01*
X015232Y020972D01*
X015285Y021040D01*
X015328Y021115D01*
X015361Y021195D01*
X015384Y021278D01*
X015393Y021348D01*
X014795Y021348D01*
X014795Y021466D01*
X015393Y021466D01*
X015384Y021536D01*
X015361Y021619D01*
X015328Y021699D01*
X015285Y021774D01*
X015232Y021843D01*
X015171Y021904D01*
X015103Y021956D01*
X015028Y021999D01*
X014948Y022032D01*
X014865Y022055D01*
X014795Y022064D01*
X014795Y021466D01*
X014677Y021466D01*
X014677Y022064D01*
X014607Y022055D01*
X014523Y022032D01*
X014444Y021999D01*
X014369Y021956D01*
X014300Y021904D01*
X014239Y021843D01*
X014187Y021774D01*
X013277Y021774D01*
X013225Y021843D01*
X013163Y021904D01*
X013095Y021956D01*
X013020Y021999D01*
X012940Y022032D01*
X012857Y022055D01*
X012787Y022064D01*
X012787Y021466D01*
X013385Y021466D01*
X013376Y021536D01*
X013353Y021619D01*
X013320Y021699D01*
X013277Y021774D01*
X013338Y021658D02*
X014126Y021658D01*
X014110Y021619D02*
X014143Y021699D01*
X014187Y021774D01*
X014287Y021891D02*
X013176Y021891D01*
X013001Y022007D02*
X014463Y022007D01*
X014677Y022007D02*
X014795Y022007D01*
X014795Y021891D02*
X014677Y021891D01*
X014677Y021774D02*
X014795Y021774D01*
X014795Y021658D02*
X014677Y021658D01*
X014677Y021541D02*
X014795Y021541D01*
X014795Y021424D02*
X016374Y021424D01*
X016374Y021541D02*
X015382Y021541D01*
X015345Y021658D02*
X016378Y021658D01*
X016358Y021774D02*
X015285Y021774D01*
X015184Y021891D02*
X016241Y021891D01*
X016124Y022007D02*
X015009Y022007D01*
X014677Y021466D02*
X014677Y021348D01*
X014795Y021348D01*
X014795Y020750D01*
X014865Y020759D01*
X014948Y020782D01*
X015028Y020815D01*
X015103Y020858D01*
X015219Y020958D02*
X019745Y020958D01*
X019628Y021075D02*
X018198Y021075D01*
X018331Y021191D02*
X019511Y021191D01*
X019395Y021308D02*
X018404Y021308D01*
X018443Y021424D02*
X019278Y021424D01*
X019162Y021541D02*
X017964Y021541D01*
X017964Y021658D02*
X017866Y021658D01*
X017866Y021774D02*
X017964Y021774D01*
X017964Y021891D02*
X017866Y021891D01*
X017866Y022007D02*
X017964Y022007D01*
X018175Y022007D02*
X018695Y022007D01*
X018677Y022124D02*
X016676Y022124D01*
X016559Y022241D02*
X018677Y022241D01*
X018677Y022357D02*
X016443Y022357D01*
X016326Y022474D02*
X018677Y022474D01*
X018677Y022590D02*
X016209Y022590D01*
X016093Y022707D02*
X018677Y022707D01*
X018677Y022824D02*
X012073Y022824D01*
X012190Y022940D02*
X018677Y022940D01*
X018677Y023057D02*
X012306Y023057D01*
X012423Y023173D02*
X018677Y023173D01*
X018677Y023290D02*
X013469Y023290D01*
X013586Y023407D02*
X018677Y023407D01*
X018677Y023523D02*
X013635Y023523D01*
X013653Y023640D02*
X018677Y023640D01*
X018677Y023757D02*
X013645Y023757D01*
X013596Y023873D02*
X018677Y023873D01*
X018677Y023990D02*
X013491Y023990D01*
X012866Y023407D02*
X012656Y023407D01*
X012540Y023290D02*
X012983Y023290D01*
X012454Y023873D02*
X012259Y023873D01*
X012259Y023757D02*
X012338Y023757D01*
X012023Y023443D02*
X010874Y022293D01*
X010874Y018496D01*
X020043Y009326D01*
X020043Y009102D01*
X020468Y008677D01*
X024340Y008677D01*
X025667Y010004D01*
X027049Y010004D01*
X027757Y010712D01*
X027665Y010285D02*
X029433Y010285D01*
X029813Y009997D02*
X030159Y009997D01*
X030097Y010113D02*
X029929Y010113D01*
X030046Y010230D02*
X030059Y010230D01*
X030276Y009880D02*
X029696Y009880D01*
X030857Y009880D02*
X032836Y009880D01*
X032839Y009877D02*
X033025Y009800D01*
X033227Y009800D01*
X033413Y009877D01*
X033556Y010019D01*
X033633Y010206D01*
X033633Y010408D01*
X033556Y010594D01*
X033413Y010737D01*
X033227Y010814D01*
X033025Y010814D01*
X032839Y010737D01*
X032696Y010594D01*
X032619Y010408D01*
X032619Y010206D01*
X032696Y010019D01*
X032839Y009877D01*
X032719Y009997D02*
X030973Y009997D01*
X031035Y010113D02*
X032657Y010113D01*
X032619Y010230D02*
X031073Y010230D01*
X031073Y010346D02*
X032619Y010346D01*
X032642Y010463D02*
X031050Y010463D01*
X031002Y010580D02*
X032690Y010580D01*
X032798Y010696D02*
X030894Y010696D01*
X030670Y010813D02*
X033023Y010813D01*
X033230Y010813D02*
X034783Y010813D01*
X034892Y010750D02*
X035187Y010671D01*
X035493Y010671D01*
X035788Y010750D01*
X036053Y010903D01*
X036270Y011119D01*
X036422Y011384D01*
X036502Y011679D01*
X036502Y011985D01*
X036422Y012281D01*
X036270Y012545D01*
X036053Y012762D01*
X035788Y012915D01*
X035493Y012994D01*
X035187Y012994D01*
X034892Y012915D01*
X034627Y012762D01*
X034411Y012545D01*
X034258Y012281D01*
X034179Y011985D01*
X034179Y011679D01*
X034258Y011384D01*
X034411Y011119D01*
X034627Y010903D01*
X034892Y010750D01*
X035093Y010696D02*
X033454Y010696D01*
X033562Y010580D02*
X037013Y010580D01*
X037013Y010696D02*
X035588Y010696D01*
X035897Y010813D02*
X037013Y010813D01*
X037013Y010929D02*
X036080Y010929D01*
X036196Y011046D02*
X037013Y011046D01*
X037013Y011163D02*
X036295Y011163D01*
X036362Y011279D02*
X037013Y011279D01*
X037013Y011396D02*
X036426Y011396D01*
X036457Y011512D02*
X037013Y011512D01*
X037013Y011629D02*
X036488Y011629D01*
X036502Y011746D02*
X037013Y011746D01*
X037013Y011862D02*
X036502Y011862D01*
X036502Y011979D02*
X037013Y011979D01*
X037013Y012095D02*
X036472Y012095D01*
X036441Y012212D02*
X037013Y012212D01*
X037013Y012329D02*
X036395Y012329D01*
X036327Y012445D02*
X037013Y012445D01*
X037013Y012562D02*
X036253Y012562D01*
X036136Y012679D02*
X037013Y012679D01*
X037013Y012795D02*
X035995Y012795D01*
X035793Y012912D02*
X037013Y012912D01*
X037013Y013028D02*
X033563Y013028D01*
X033565Y013145D02*
X037013Y013145D01*
X037013Y013262D02*
X033565Y013262D01*
X033565Y013378D02*
X037013Y013378D01*
X037013Y013495D02*
X033565Y013495D01*
X033565Y013611D02*
X037013Y013611D01*
X037013Y013728D02*
X033609Y013728D01*
X033726Y013845D02*
X037013Y013845D01*
X037013Y013961D02*
X033843Y013961D01*
X033959Y014078D02*
X037013Y014078D01*
X037013Y014194D02*
X034076Y014194D01*
X034192Y014311D02*
X037013Y014311D01*
X037013Y014428D02*
X036133Y014428D01*
X036086Y014381D02*
X036209Y014503D01*
X036275Y014663D01*
X036275Y014836D01*
X036209Y014996D01*
X036086Y015118D01*
X035927Y015184D01*
X035754Y015184D01*
X035594Y015118D01*
X035472Y014996D01*
X035406Y014836D01*
X035406Y014663D01*
X035472Y014503D01*
X035594Y014381D01*
X035754Y014315D01*
X035927Y014315D01*
X036086Y014381D01*
X036226Y014544D02*
X037013Y014544D01*
X037013Y014661D02*
X036274Y014661D01*
X036275Y014778D02*
X037013Y014778D01*
X037013Y014894D02*
X036251Y014894D01*
X036194Y015011D02*
X037013Y015011D01*
X037013Y015127D02*
X036064Y015127D01*
X036037Y015361D02*
X037013Y015361D01*
X037013Y015477D02*
X036182Y015477D01*
X036246Y015594D02*
X037013Y015594D01*
X037013Y015710D02*
X036275Y015710D01*
X036275Y015827D02*
X037013Y015827D01*
X037013Y015944D02*
X036230Y015944D01*
X036144Y016060D02*
X037013Y016060D01*
X037013Y016177D02*
X035944Y016177D01*
X035840Y016293D02*
X037013Y016293D01*
X037013Y016410D02*
X035957Y016410D01*
X036021Y016527D02*
X037013Y016527D01*
X037013Y016643D02*
X036021Y016643D01*
X036021Y016760D02*
X037013Y016760D01*
X037013Y016877D02*
X036021Y016877D01*
X036021Y016993D02*
X037013Y016993D01*
X037013Y017110D02*
X036021Y017110D01*
X036021Y017226D02*
X037013Y017226D01*
X037013Y017343D02*
X036021Y017343D01*
X036021Y017460D02*
X037013Y017460D01*
X037013Y017576D02*
X036021Y017576D01*
X036021Y017693D02*
X037013Y017693D01*
X037013Y017809D02*
X036021Y017809D01*
X036021Y017926D02*
X037013Y017926D01*
X037013Y018043D02*
X036021Y018043D01*
X036021Y018159D02*
X037013Y018159D01*
X037013Y018276D02*
X036021Y018276D01*
X036021Y018392D02*
X037013Y018392D01*
X037013Y018509D02*
X036021Y018509D01*
X036021Y018626D02*
X037013Y018626D01*
X037013Y018742D02*
X036021Y018742D01*
X036021Y018859D02*
X037013Y018859D01*
X037013Y018976D02*
X036021Y018976D01*
X036021Y019092D02*
X037013Y019092D01*
X037013Y019209D02*
X036021Y019209D01*
X036021Y019325D02*
X037013Y019325D01*
X037013Y019442D02*
X036021Y019442D01*
X036021Y019559D02*
X037013Y019559D01*
X037013Y019675D02*
X036021Y019675D01*
X036021Y019792D02*
X037013Y019792D01*
X037013Y019908D02*
X036021Y019908D01*
X036021Y020025D02*
X037013Y020025D01*
X037013Y020142D02*
X036021Y020142D01*
X036021Y020258D02*
X037013Y020258D01*
X037013Y020375D02*
X036021Y020375D01*
X036021Y020491D02*
X037013Y020491D01*
X037013Y020608D02*
X036021Y020608D01*
X036021Y020725D02*
X037013Y020725D01*
X037013Y020841D02*
X036021Y020841D01*
X036021Y020958D02*
X037013Y020958D01*
X037013Y021075D02*
X036021Y021075D01*
X036021Y021191D02*
X037013Y021191D01*
X037013Y021308D02*
X036021Y021308D01*
X036021Y021424D02*
X037013Y021424D01*
X037013Y021541D02*
X036021Y021541D01*
X036021Y021658D02*
X037013Y021658D01*
X037013Y021774D02*
X036021Y021774D01*
X036021Y021891D02*
X037013Y021891D01*
X037013Y022007D02*
X036052Y022007D01*
X036169Y022124D02*
X037013Y022124D01*
X037013Y022241D02*
X036220Y022241D01*
X036220Y022357D02*
X037013Y022357D01*
X037013Y022474D02*
X036220Y022474D01*
X036220Y022590D02*
X037013Y022590D01*
X037013Y022707D02*
X036220Y022707D01*
X036220Y022824D02*
X037013Y022824D01*
X037013Y022940D02*
X036220Y022940D01*
X036220Y023057D02*
X037013Y023057D01*
X037013Y023173D02*
X036220Y023173D01*
X036220Y023290D02*
X037013Y023290D01*
X037013Y023407D02*
X036220Y023407D01*
X036220Y023523D02*
X037013Y023523D01*
X037013Y023640D02*
X036220Y023640D01*
X036220Y023757D02*
X037013Y023757D01*
X037013Y023873D02*
X036220Y023873D01*
X036220Y023990D02*
X037013Y023990D01*
X037013Y024106D02*
X036255Y024106D01*
X036372Y024223D02*
X037013Y024223D01*
X037013Y024340D02*
X036489Y024340D01*
X036605Y024456D02*
X037013Y024456D01*
X037013Y024573D02*
X036685Y024573D01*
X036685Y024689D02*
X037013Y024689D01*
X037013Y024806D02*
X036685Y024806D01*
X036685Y024923D02*
X037013Y024923D01*
X037013Y025039D02*
X036685Y025039D01*
X036685Y025156D02*
X037013Y025156D01*
X037013Y025272D02*
X036685Y025272D01*
X036685Y025389D02*
X037013Y025389D01*
X037013Y025506D02*
X036685Y025506D01*
X036685Y025622D02*
X037013Y025622D01*
X037013Y025739D02*
X036685Y025739D01*
X036685Y025856D02*
X037013Y025856D01*
X037013Y025972D02*
X036685Y025972D01*
X036685Y026089D02*
X037013Y026089D01*
X037013Y026205D02*
X036685Y026205D01*
X036685Y026322D02*
X037013Y026322D01*
X037013Y026439D02*
X036685Y026439D01*
X036685Y026555D02*
X037013Y026555D01*
X037013Y026672D02*
X036591Y026672D01*
X036549Y026788D02*
X037013Y026788D01*
X037013Y026905D02*
X036549Y026905D01*
X036549Y027022D02*
X037013Y027022D01*
X037013Y027138D02*
X036549Y027138D01*
X036628Y027255D02*
X037013Y027255D01*
X037013Y027371D02*
X036745Y027371D01*
X036748Y027488D02*
X037013Y027488D01*
X037013Y027605D02*
X036748Y027605D01*
X036748Y027721D02*
X037013Y027721D01*
X037013Y027838D02*
X036748Y027838D01*
X036748Y027955D02*
X037013Y027955D01*
X037013Y028071D02*
X036748Y028071D01*
X036748Y028188D02*
X037013Y028188D01*
X037013Y028304D02*
X036748Y028304D01*
X036748Y028421D02*
X037013Y028421D01*
X037013Y028538D02*
X036721Y028538D01*
X036604Y028654D02*
X037013Y028654D01*
X037013Y028771D02*
X036511Y028771D01*
X036511Y028887D02*
X037013Y028887D01*
X037013Y029004D02*
X036511Y029004D01*
X036511Y029121D02*
X037013Y029121D01*
X037013Y029237D02*
X036511Y029237D01*
X036511Y029354D02*
X037013Y029354D01*
X037013Y029470D02*
X036453Y029470D01*
X036337Y029587D02*
X037013Y029587D01*
X037013Y029704D02*
X036275Y029704D01*
X036275Y029820D02*
X037013Y029820D01*
X037013Y029937D02*
X036233Y029937D01*
X036151Y030054D02*
X037013Y030054D01*
X037013Y030170D02*
X035961Y030170D01*
X035938Y030343D02*
X036000Y030364D01*
X036058Y030393D01*
X036112Y030432D01*
X036158Y030478D01*
X036196Y030531D01*
X036226Y030590D01*
X036246Y030652D01*
X036257Y030717D01*
X036257Y030730D01*
X035860Y030730D01*
X035860Y030769D01*
X036257Y030769D01*
X036257Y030782D01*
X036246Y030847D01*
X036226Y030910D01*
X036196Y030968D01*
X036158Y031021D01*
X036112Y031067D01*
X036058Y031106D01*
X036000Y031136D01*
X035938Y031156D01*
X035873Y031166D01*
X035860Y031166D01*
X035860Y030769D01*
X035820Y030769D01*
X035820Y030730D01*
X035424Y030730D01*
X035424Y030717D01*
X035434Y030652D01*
X035454Y030590D01*
X035484Y030531D01*
X035522Y030478D01*
X035569Y030432D01*
X035622Y030393D01*
X035680Y030364D01*
X035743Y030343D01*
X035807Y030333D01*
X035820Y030333D01*
X035820Y030730D01*
X035860Y030730D01*
X035860Y030333D01*
X035873Y030333D01*
X035938Y030343D01*
X035860Y030403D02*
X035820Y030403D01*
X035820Y030520D02*
X035860Y030520D01*
X035860Y030637D02*
X035820Y030637D01*
X035820Y030753D02*
X035275Y030753D01*
X035264Y030637D02*
X035439Y030637D01*
X035492Y030520D02*
X035215Y030520D01*
X035109Y030403D02*
X035608Y030403D01*
X035720Y030170D02*
X034595Y030170D01*
X034711Y030287D02*
X037013Y030287D01*
X037013Y030403D02*
X036072Y030403D01*
X036188Y030520D02*
X037013Y030520D01*
X037013Y030637D02*
X036241Y030637D01*
X036239Y030870D02*
X037013Y030870D01*
X037013Y030986D02*
X036183Y030986D01*
X036062Y031103D02*
X037013Y031103D01*
X037013Y031220D02*
X034644Y031220D01*
X034405Y031315D02*
X034405Y030649D01*
X032399Y028643D01*
X032399Y022868D01*
X031669Y022137D01*
X031242Y022124D02*
X030737Y022124D01*
X030649Y022012D02*
X031193Y022705D01*
X031614Y023478D01*
X031614Y023478D01*
X031902Y024311D01*
X032047Y025179D01*
X032047Y026060D01*
X031902Y026929D01*
X031614Y027761D01*
X031614Y027761D01*
X031193Y028534D01*
X030649Y029227D01*
X030649Y029227D01*
X029998Y029821D01*
X029258Y030298D01*
X028449Y030647D01*
X027594Y030856D01*
X026716Y030922D01*
X026716Y030922D01*
X025839Y030841D01*
X024987Y030616D01*
X024185Y030253D01*
X023453Y029762D01*
X022813Y029157D01*
X022813Y029157D01*
X022813Y029157D01*
X022282Y028454D01*
X022091Y028088D01*
X022059Y028055D01*
X022059Y028025D01*
X022045Y027999D01*
X022059Y027955D01*
X022059Y023285D01*
X022045Y023241D01*
X022059Y023214D01*
X022059Y023184D01*
X022091Y023151D01*
X022282Y022785D01*
X022813Y022082D01*
X023453Y021477D01*
X024185Y020987D01*
X024987Y020624D01*
X025839Y020399D01*
X026716Y020318D01*
X027594Y020383D01*
X028449Y020593D01*
X028449Y020593D01*
X029258Y020941D01*
X029258Y020941D01*
X029998Y021419D01*
X029998Y021419D01*
X030649Y022012D01*
X030649Y022012D01*
X030649Y022012D01*
X030644Y022007D02*
X031260Y022007D01*
X031311Y021891D02*
X030516Y021891D01*
X030388Y021774D02*
X031308Y021774D01*
X031252Y021658D02*
X030260Y021658D01*
X030132Y021541D02*
X031230Y021541D01*
X031234Y021424D02*
X030005Y021424D01*
X029826Y021308D02*
X031282Y021308D01*
X031381Y021191D02*
X029646Y021191D01*
X029465Y021075D02*
X032509Y021075D01*
X032539Y021147D02*
X032474Y020990D01*
X032474Y020820D01*
X032476Y020814D01*
X031654Y019992D01*
X029388Y019992D01*
X029385Y019997D01*
X029265Y020118D01*
X029108Y020183D01*
X028938Y020183D01*
X028781Y020118D01*
X028661Y019997D01*
X028596Y019840D01*
X028596Y019671D01*
X028661Y019514D01*
X028781Y019393D01*
X028938Y019328D01*
X029108Y019328D01*
X029265Y019393D01*
X029385Y019514D01*
X029388Y019519D01*
X031654Y019519D01*
X031849Y019519D01*
X032810Y020480D01*
X032816Y020478D01*
X032986Y020478D01*
X033143Y020543D01*
X033263Y020663D01*
X033328Y020820D01*
X033328Y020990D01*
X033263Y021147D01*
X033143Y021267D01*
X032986Y021332D01*
X032816Y021332D01*
X032659Y021267D01*
X032539Y021147D01*
X032583Y021191D02*
X031933Y021191D01*
X032032Y021308D02*
X032757Y021308D01*
X033045Y021308D02*
X033446Y021308D01*
X033446Y021424D02*
X032080Y021424D01*
X032084Y021541D02*
X033446Y021541D01*
X033446Y021658D02*
X032129Y021658D01*
X032246Y021774D02*
X033446Y021774D01*
X033446Y021891D02*
X032332Y021891D01*
X032332Y022007D02*
X033446Y022007D01*
X033446Y022124D02*
X032332Y022124D01*
X032441Y022241D02*
X033446Y022241D01*
X033446Y022357D02*
X032557Y022357D01*
X032674Y022474D02*
X033446Y022474D01*
X033446Y022590D02*
X032791Y022590D01*
X032872Y022707D02*
X033446Y022707D01*
X033446Y022824D02*
X032872Y022824D01*
X032872Y022940D02*
X033446Y022940D01*
X033446Y023057D02*
X032872Y023057D01*
X032872Y023173D02*
X033446Y023173D01*
X033446Y023290D02*
X032872Y023290D01*
X032872Y023407D02*
X033446Y023407D01*
X033446Y023523D02*
X032872Y023523D01*
X032872Y023640D02*
X033446Y023640D01*
X033446Y023757D02*
X032872Y023757D01*
X032872Y023873D02*
X033446Y023873D01*
X033453Y023990D02*
X032872Y023990D01*
X032872Y024106D02*
X033524Y024106D01*
X033641Y024223D02*
X032872Y024223D01*
X032872Y024340D02*
X033757Y024340D01*
X033874Y024456D02*
X032872Y024456D01*
X032872Y024573D02*
X033990Y024573D01*
X034107Y024689D02*
X032872Y024689D01*
X032872Y024806D02*
X034224Y024806D01*
X034340Y024923D02*
X032872Y024923D01*
X032872Y025039D02*
X034457Y025039D01*
X034573Y025156D02*
X032872Y025156D01*
X032872Y025272D02*
X034584Y025272D01*
X034584Y025389D02*
X032872Y025389D01*
X032872Y025506D02*
X034480Y025506D01*
X034431Y025622D02*
X032872Y025622D01*
X032872Y025739D02*
X034413Y025739D01*
X034422Y025856D02*
X032872Y025856D01*
X032872Y025972D02*
X034470Y025972D01*
X034575Y026089D02*
X032872Y026089D01*
X032872Y026205D02*
X035050Y026205D01*
X035105Y026089D02*
X035167Y026089D01*
X035210Y025972D02*
X035267Y025972D01*
X035259Y025856D02*
X035267Y025856D01*
X035267Y025739D02*
X035267Y025739D01*
X035267Y025622D02*
X035250Y025622D01*
X035267Y025506D02*
X035200Y025506D01*
X035267Y025389D02*
X035096Y025389D01*
X035096Y025272D02*
X035267Y025272D01*
X035267Y025156D02*
X035096Y025156D01*
X035096Y025039D02*
X035182Y025039D01*
X035065Y024923D02*
X035060Y024923D01*
X034948Y024806D02*
X034947Y024806D01*
X034831Y024689D02*
X034832Y024689D01*
X034715Y024573D02*
X034714Y024573D01*
X034598Y024456D02*
X034599Y024456D01*
X034482Y024340D02*
X034481Y024340D01*
X034365Y024223D02*
X034364Y024223D01*
X034248Y024106D02*
X034249Y024106D01*
X034169Y023990D02*
X034131Y023990D01*
X034169Y023873D02*
X034015Y023873D01*
X033958Y023757D02*
X034169Y023757D01*
X034169Y023640D02*
X033958Y023640D01*
X033958Y023523D02*
X034169Y023523D01*
X034169Y023407D02*
X033958Y023407D01*
X033958Y023290D02*
X034096Y023290D01*
X033979Y023173D02*
X033958Y023173D01*
X034169Y023029D02*
X034405Y023265D01*
X034405Y023929D01*
X035504Y025027D01*
X035504Y026086D01*
X034840Y026750D01*
X034434Y026905D02*
X032872Y026905D01*
X032872Y026788D02*
X034406Y026788D01*
X034406Y026672D02*
X032872Y026672D01*
X032872Y026555D02*
X034450Y026555D01*
X034536Y026439D02*
X032872Y026439D01*
X032872Y026322D02*
X034737Y026322D01*
X035275Y026649D02*
X035275Y027315D01*
X034840Y027750D01*
X034547Y028071D02*
X032872Y028071D01*
X032872Y027955D02*
X034455Y027955D01*
X034406Y027838D02*
X032872Y027838D01*
X032872Y027721D02*
X034406Y027721D01*
X034430Y027605D02*
X032872Y027605D01*
X032872Y027488D02*
X034487Y027488D01*
X034617Y027371D02*
X032872Y027371D01*
X032872Y027255D02*
X035001Y027255D01*
X034643Y027138D02*
X032872Y027138D01*
X032872Y027022D02*
X034498Y027022D01*
X032635Y028535D02*
X032635Y028545D01*
X034840Y030750D01*
X035261Y030870D02*
X035441Y030870D01*
X035434Y030847D02*
X035424Y030782D01*
X035424Y030769D01*
X035820Y030769D01*
X035820Y031166D01*
X035807Y031166D01*
X035743Y031156D01*
X035680Y031136D01*
X035622Y031106D01*
X035569Y031067D01*
X035522Y031021D01*
X035484Y030968D01*
X035454Y030910D01*
X035434Y030847D01*
X035497Y030986D02*
X035213Y030986D01*
X035101Y031103D02*
X035618Y031103D01*
X035820Y031103D02*
X035860Y031103D01*
X035860Y030986D02*
X035820Y030986D01*
X035820Y030870D02*
X035860Y030870D01*
X035860Y030753D02*
X037013Y030753D01*
X037013Y031336D02*
X035978Y031336D01*
X035927Y031315D02*
X036086Y031381D01*
X036209Y031503D01*
X036275Y031663D01*
X036275Y031836D01*
X036209Y031996D01*
X036116Y032089D01*
X036116Y032411D01*
X036209Y032503D01*
X036275Y032663D01*
X036275Y032836D01*
X036209Y032996D01*
X036086Y033118D01*
X035927Y033184D01*
X035795Y033184D01*
X035599Y033380D01*
X035599Y033380D01*
X035522Y033458D01*
X035421Y033500D01*
X033189Y033500D01*
X030034Y036654D01*
X029957Y036731D01*
X029856Y036773D01*
X022570Y036773D01*
X021784Y037560D01*
X021682Y037602D01*
X019982Y037602D01*
X019895Y037689D01*
X019738Y037754D01*
X019616Y037754D01*
X018187Y039182D01*
X018086Y039224D01*
X017730Y039224D01*
X017643Y039311D01*
X017486Y039376D01*
X017316Y039376D01*
X017159Y039311D01*
X017039Y039190D01*
X016974Y039033D01*
X016974Y038863D01*
X017039Y038706D01*
X017159Y038586D01*
X017316Y038521D01*
X017486Y038521D01*
X017643Y038586D01*
X017730Y038673D01*
X017917Y038673D01*
X019226Y037364D01*
X019226Y037241D01*
X019291Y037084D01*
X019411Y036964D01*
X019568Y036899D01*
X019738Y036899D01*
X019895Y036964D01*
X019982Y037051D01*
X021054Y037051D01*
X021009Y036943D01*
X021009Y036773D01*
X021074Y036616D01*
X021195Y036496D01*
X021352Y036431D01*
X021502Y036431D01*
X021571Y036361D01*
X021665Y036322D01*
X021852Y036322D01*
X022189Y035985D01*
X022283Y035946D01*
X029573Y035946D01*
X032807Y032712D01*
X032901Y032673D01*
X034146Y032673D01*
X034214Y032605D01*
X034286Y032533D01*
X034380Y032494D01*
X034481Y032494D01*
X034660Y032315D01*
X035020Y032315D01*
X035275Y032570D01*
X035275Y032925D01*
X035406Y032795D01*
X035406Y032663D01*
X035472Y032503D01*
X035565Y032411D01*
X035565Y032089D01*
X035472Y031996D01*
X035406Y031836D01*
X035406Y031663D01*
X035472Y031503D01*
X035594Y031381D01*
X035754Y031315D01*
X035927Y031315D01*
X035702Y031336D02*
X034978Y031336D01*
X035158Y031453D02*
X035522Y031453D01*
X035444Y031569D02*
X035236Y031569D01*
X035275Y031686D02*
X035406Y031686D01*
X035406Y031803D02*
X035275Y031803D01*
X035240Y031919D02*
X035440Y031919D01*
X035512Y032036D02*
X035169Y032036D01*
X035003Y032153D02*
X035565Y032153D01*
X035565Y032269D02*
X027849Y032269D01*
X027880Y032386D02*
X034589Y032386D01*
X034677Y032153D02*
X027785Y032153D01*
X027717Y032036D02*
X034512Y032036D01*
X034440Y031919D02*
X027619Y031919D01*
X027502Y031803D02*
X034406Y031803D01*
X034406Y031686D02*
X027319Y031686D01*
X027008Y031569D02*
X034326Y031569D01*
X034307Y031551D02*
X034307Y031551D01*
X034209Y031453D02*
X018067Y031453D01*
X018067Y031569D02*
X026519Y031569D01*
X026208Y031686D02*
X018067Y031686D01*
X018067Y031803D02*
X026025Y031803D01*
X025908Y031919D02*
X018067Y031919D01*
X018067Y032036D02*
X025809Y032036D01*
X025742Y032153D02*
X018067Y032153D01*
X018067Y032269D02*
X025678Y032269D01*
X025647Y032386D02*
X018067Y032386D01*
X018067Y032502D02*
X025616Y032502D01*
X025602Y032619D02*
X018067Y032619D01*
X018067Y032736D02*
X025602Y032736D01*
X025602Y032852D02*
X018067Y032852D01*
X018067Y032969D02*
X025631Y032969D01*
X025663Y033085D02*
X018067Y033085D01*
X018067Y033202D02*
X025708Y033202D01*
X025959Y033552D02*
X018183Y033552D01*
X018300Y033668D02*
X025692Y033668D01*
X025524Y033785D02*
X018416Y033785D01*
X018533Y033902D02*
X025408Y033902D01*
X025318Y034018D02*
X018650Y034018D01*
X018766Y034135D02*
X025251Y034135D01*
X025194Y034251D02*
X018883Y034251D01*
X018999Y034368D02*
X025163Y034368D01*
X025131Y034485D02*
X019116Y034485D01*
X019233Y034601D02*
X025124Y034601D01*
X025124Y034718D02*
X019349Y034718D01*
X019263Y034966D02*
X017830Y033533D01*
X017830Y030931D01*
X016685Y029785D01*
X016685Y029023D01*
X018913Y026795D01*
X018913Y022124D01*
X022413Y018624D01*
X022413Y013793D01*
X022868Y013338D01*
X022868Y012551D01*
X023295Y012562D02*
X023451Y012562D01*
X023286Y012445D02*
X023672Y012445D01*
X023674Y012562D02*
X023789Y012562D01*
X023867Y012679D02*
X023905Y012679D01*
X023949Y012795D02*
X024022Y012795D01*
X023990Y012912D02*
X024138Y012912D01*
X024255Y013028D02*
X023990Y013028D01*
X023956Y013145D02*
X024372Y013145D01*
X024367Y013527D02*
X024537Y013527D01*
X024694Y013592D01*
X024814Y013712D01*
X024880Y013869D01*
X024880Y014039D01*
X024814Y014196D01*
X024694Y014316D01*
X024537Y014381D01*
X024367Y014381D01*
X024210Y014316D01*
X024153Y014259D01*
X024056Y014356D01*
X023881Y014428D01*
X023693Y014428D01*
X023518Y014356D01*
X023385Y014223D01*
X023313Y014049D01*
X023313Y013860D01*
X023385Y013686D01*
X023518Y013552D01*
X023693Y013480D01*
X023881Y013480D01*
X024056Y013552D01*
X024153Y013650D01*
X024210Y013592D01*
X024367Y013527D01*
X024191Y013611D02*
X024114Y013611D01*
X023916Y013495D02*
X027847Y013495D01*
X027731Y013378D02*
X023713Y013378D01*
X023658Y013495D02*
X023380Y013495D01*
X023460Y013611D02*
X023263Y013611D01*
X023368Y013728D02*
X023147Y013728D01*
X023030Y013845D02*
X023319Y013845D01*
X023313Y013961D02*
X022913Y013961D01*
X022885Y014078D02*
X023325Y014078D01*
X023373Y014194D02*
X022885Y014194D01*
X022885Y014311D02*
X023473Y014311D01*
X023538Y014544D02*
X022885Y014544D01*
X022885Y014428D02*
X023691Y014428D01*
X023693Y014480D02*
X023881Y014480D01*
X024056Y014552D01*
X024153Y014650D01*
X024210Y014592D01*
X024367Y014527D01*
X024537Y014527D01*
X024694Y014592D01*
X024814Y014712D01*
X024880Y014869D01*
X024880Y015039D01*
X024814Y015196D01*
X024694Y015316D01*
X024537Y015381D01*
X024367Y015381D01*
X024210Y015316D01*
X024153Y015259D01*
X024056Y015356D01*
X023881Y015428D01*
X023693Y015428D01*
X023518Y015356D01*
X023385Y015223D01*
X023313Y015049D01*
X023313Y014860D01*
X023385Y014686D01*
X023518Y014552D01*
X023693Y014480D01*
X023883Y014428D02*
X028780Y014428D01*
X028664Y014311D02*
X024700Y014311D01*
X024815Y014194D02*
X028547Y014194D01*
X028431Y014078D02*
X024864Y014078D01*
X024880Y013961D02*
X028314Y013961D01*
X028197Y013845D02*
X024869Y013845D01*
X024821Y013728D02*
X028081Y013728D01*
X027964Y013611D02*
X024714Y013611D01*
X024452Y013954D02*
X023787Y013954D01*
X024101Y014311D02*
X024205Y014311D01*
X024326Y014544D02*
X024036Y014544D01*
X023787Y014954D02*
X024452Y014954D01*
X024763Y014661D02*
X029014Y014661D01*
X029130Y014778D02*
X024841Y014778D01*
X024880Y014894D02*
X029247Y014894D01*
X029363Y015011D02*
X024880Y015011D01*
X024843Y015127D02*
X029480Y015127D01*
X029597Y015244D02*
X024767Y015244D01*
X024588Y015361D02*
X029713Y015361D01*
X029830Y015477D02*
X022885Y015477D01*
X022885Y015361D02*
X023529Y015361D01*
X023406Y015244D02*
X022885Y015244D01*
X022885Y015127D02*
X023346Y015127D01*
X023313Y015011D02*
X022885Y015011D01*
X022885Y014894D02*
X023313Y014894D01*
X023347Y014778D02*
X022885Y014778D01*
X022885Y014661D02*
X023410Y014661D01*
X024045Y015361D02*
X024317Y015361D01*
X024084Y015607D02*
X024135Y015657D01*
X024177Y015715D01*
X024210Y015779D01*
X024232Y015848D01*
X024242Y015915D01*
X023826Y015915D01*
X023826Y015499D01*
X023894Y015510D01*
X023962Y015532D01*
X024026Y015564D01*
X024084Y015607D01*
X024066Y015594D02*
X029946Y015594D01*
X030063Y015710D02*
X024173Y015710D01*
X024225Y015827D02*
X030180Y015827D01*
X030296Y015944D02*
X023826Y015944D01*
X023826Y015915D02*
X023826Y015994D01*
X023748Y015994D01*
X023748Y016410D01*
X023680Y016399D01*
X023612Y016377D01*
X023548Y016344D01*
X023490Y016302D01*
X023439Y016251D01*
X023397Y016193D01*
X023365Y016129D01*
X023342Y016061D01*
X023332Y015994D01*
X023748Y015994D01*
X023748Y015915D01*
X023826Y015915D01*
X023748Y015915D02*
X023748Y015499D01*
X023680Y015510D01*
X023612Y015532D01*
X023548Y015564D01*
X023490Y015607D01*
X023439Y015657D01*
X023397Y015715D01*
X023365Y015779D01*
X023342Y015848D01*
X023332Y015915D01*
X023748Y015915D01*
X023748Y015944D02*
X022885Y015944D01*
X022885Y016060D02*
X023342Y016060D01*
X023389Y016177D02*
X022885Y016177D01*
X022885Y016293D02*
X023481Y016293D01*
X023581Y016527D02*
X022885Y016527D01*
X022885Y016410D02*
X030763Y016410D01*
X030879Y016527D02*
X023993Y016527D01*
X023962Y016377D02*
X023894Y016399D01*
X023826Y016410D01*
X023826Y015994D01*
X024242Y015994D01*
X024232Y016061D01*
X024210Y016129D01*
X024177Y016193D01*
X024135Y016251D01*
X024084Y016302D01*
X024026Y016344D01*
X023962Y016377D01*
X024093Y016293D02*
X030646Y016293D01*
X030530Y016177D02*
X024185Y016177D01*
X024232Y016060D02*
X030413Y016060D01*
X030787Y015710D02*
X032583Y015710D01*
X032466Y015594D02*
X030670Y015594D01*
X030554Y015477D02*
X032350Y015477D01*
X032233Y015361D02*
X030437Y015361D01*
X030320Y015244D02*
X032117Y015244D01*
X032000Y015127D02*
X030204Y015127D01*
X030087Y015011D02*
X031130Y015011D01*
X030955Y014894D02*
X029971Y014894D01*
X029854Y014778D02*
X030881Y014778D01*
X030846Y014661D02*
X029737Y014661D01*
X029621Y014544D02*
X030846Y014544D01*
X030885Y014428D02*
X029504Y014428D01*
X029388Y014311D02*
X030966Y014311D01*
X031155Y014194D02*
X029271Y014194D01*
X029154Y014078D02*
X030993Y014078D01*
X030897Y013961D02*
X029038Y013961D01*
X028921Y013845D02*
X030849Y013845D01*
X030846Y013728D02*
X028805Y013728D01*
X028688Y013611D02*
X030870Y013611D01*
X030928Y013495D02*
X028571Y013495D01*
X028455Y013378D02*
X031063Y013378D01*
X031289Y013145D02*
X028221Y013145D01*
X028105Y013028D02*
X031173Y013028D01*
X031056Y012912D02*
X027988Y012912D01*
X027872Y012795D02*
X030939Y012795D01*
X030823Y012679D02*
X027081Y012679D01*
X027198Y012562D02*
X030706Y012562D01*
X031406Y013262D02*
X028338Y013262D01*
X027614Y013262D02*
X023883Y013262D01*
X023563Y012978D02*
X022649Y013891D01*
X022649Y018722D01*
X019149Y022222D01*
X019149Y026893D01*
X017112Y028931D01*
X017112Y029608D01*
X017539Y029587D02*
X023269Y029587D01*
X023392Y029704D02*
X017534Y029704D01*
X017486Y029820D02*
X023540Y029820D01*
X023453Y029762D02*
X023453Y029762D01*
X023714Y029937D02*
X017387Y029937D01*
X017287Y030054D02*
X023888Y030054D01*
X024062Y030170D02*
X017404Y030170D01*
X017520Y030287D02*
X024260Y030287D01*
X024185Y030253D02*
X024185Y030253D01*
X024518Y030403D02*
X017637Y030403D01*
X017754Y030520D02*
X024776Y030520D01*
X024987Y030616D02*
X024987Y030616D01*
X025067Y030637D02*
X017870Y030637D01*
X017987Y030753D02*
X025508Y030753D01*
X025839Y030841D02*
X025839Y030841D01*
X026154Y030870D02*
X018067Y030870D01*
X018067Y030986D02*
X034169Y030986D01*
X034169Y030870D02*
X027414Y030870D01*
X027594Y030856D02*
X027594Y030856D01*
X028015Y030753D02*
X034169Y030753D01*
X034058Y030637D02*
X028473Y030637D01*
X028449Y030647D02*
X028449Y030647D01*
X028744Y030520D02*
X033942Y030520D01*
X033825Y030403D02*
X029014Y030403D01*
X029258Y030298D02*
X029258Y030298D01*
X029276Y030287D02*
X033709Y030287D01*
X033592Y030170D02*
X029457Y030170D01*
X029638Y030054D02*
X033475Y030054D01*
X033359Y029937D02*
X029818Y029937D01*
X029998Y029821D02*
X029998Y029821D01*
X029999Y029820D02*
X033242Y029820D01*
X033126Y029704D02*
X030127Y029704D01*
X030255Y029587D02*
X033009Y029587D01*
X032892Y029470D02*
X030382Y029470D01*
X030510Y029354D02*
X032776Y029354D01*
X032659Y029237D02*
X030638Y029237D01*
X030733Y029121D02*
X032542Y029121D01*
X032426Y029004D02*
X030824Y029004D01*
X030916Y028887D02*
X032309Y028887D01*
X032193Y028771D02*
X031007Y028771D01*
X031099Y028654D02*
X032163Y028654D01*
X032163Y028538D02*
X031190Y028538D01*
X031193Y028534D02*
X031193Y028534D01*
X031254Y028421D02*
X032163Y028421D01*
X032163Y028304D02*
X031318Y028304D01*
X031381Y028188D02*
X032163Y028188D01*
X032163Y028071D02*
X031445Y028071D01*
X031509Y027955D02*
X032163Y027955D01*
X032163Y027838D02*
X031572Y027838D01*
X031628Y027721D02*
X032163Y027721D01*
X032163Y027605D02*
X031668Y027605D01*
X031708Y027488D02*
X032163Y027488D01*
X032163Y027371D02*
X031749Y027371D01*
X031789Y027255D02*
X032163Y027255D01*
X032163Y027138D02*
X031829Y027138D01*
X031869Y027022D02*
X032163Y027022D01*
X032163Y026905D02*
X031905Y026905D01*
X031902Y026929D02*
X031902Y026929D01*
X031925Y026788D02*
X032163Y026788D01*
X032163Y026672D02*
X031945Y026672D01*
X031964Y026555D02*
X032163Y026555D01*
X032163Y026439D02*
X031984Y026439D01*
X032003Y026322D02*
X032163Y026322D01*
X032163Y026205D02*
X032023Y026205D01*
X032042Y026089D02*
X032163Y026089D01*
X032163Y025972D02*
X032047Y025972D01*
X032047Y025856D02*
X032163Y025856D01*
X032163Y025739D02*
X032047Y025739D01*
X032047Y025622D02*
X032163Y025622D01*
X032163Y025506D02*
X032047Y025506D01*
X032047Y025389D02*
X032163Y025389D01*
X032163Y025272D02*
X032047Y025272D01*
X032043Y025156D02*
X032163Y025156D01*
X032163Y025039D02*
X032024Y025039D01*
X032004Y024923D02*
X032163Y024923D01*
X032163Y024806D02*
X031985Y024806D01*
X031965Y024689D02*
X032163Y024689D01*
X032163Y024573D02*
X031945Y024573D01*
X031926Y024456D02*
X032163Y024456D01*
X032163Y024340D02*
X031906Y024340D01*
X031902Y024311D02*
X031902Y024311D01*
X031871Y024223D02*
X032163Y024223D01*
X032163Y024106D02*
X031831Y024106D01*
X031791Y023990D02*
X032163Y023990D01*
X032163Y023873D02*
X031750Y023873D01*
X031710Y023757D02*
X032163Y023757D01*
X032163Y023640D02*
X031670Y023640D01*
X031630Y023523D02*
X032163Y023523D01*
X032163Y023407D02*
X031575Y023407D01*
X031511Y023290D02*
X032163Y023290D01*
X032163Y023173D02*
X031448Y023173D01*
X031384Y023057D02*
X032163Y023057D01*
X032138Y022940D02*
X031321Y022940D01*
X031257Y022824D02*
X032021Y022824D01*
X031904Y022707D02*
X031194Y022707D01*
X031193Y022705D02*
X031193Y022705D01*
X031103Y022590D02*
X031788Y022590D01*
X031401Y022474D02*
X031011Y022474D01*
X030920Y022357D02*
X031298Y022357D01*
X031249Y022241D02*
X030828Y022241D01*
X031657Y021519D02*
X032096Y021958D01*
X032096Y022230D01*
X032635Y022769D01*
X032635Y028535D01*
X033312Y028887D02*
X035427Y028887D01*
X035480Y029004D02*
X033429Y029004D01*
X033545Y029121D02*
X035600Y029121D01*
X035660Y029354D02*
X033778Y029354D01*
X033662Y029237D02*
X036018Y029237D01*
X036275Y029315D02*
X035840Y029750D01*
X035529Y030054D02*
X034478Y030054D01*
X034362Y029937D02*
X035447Y029937D01*
X035406Y029820D02*
X034245Y029820D01*
X034128Y029704D02*
X035406Y029704D01*
X035437Y029587D02*
X034012Y029587D01*
X033895Y029470D02*
X035505Y029470D01*
X036275Y029315D02*
X036275Y028649D01*
X034169Y031103D02*
X018067Y031103D01*
X018067Y031220D02*
X034167Y031220D01*
X034167Y031336D02*
X018067Y031336D01*
X017594Y031336D02*
X014450Y031336D01*
X014450Y031220D02*
X017594Y031220D01*
X017594Y031103D02*
X014450Y031103D01*
X014450Y030986D02*
X017552Y030986D01*
X017435Y030870D02*
X014450Y030870D01*
X014450Y030753D02*
X017319Y030753D01*
X017202Y030637D02*
X014450Y030637D01*
X014450Y030520D02*
X017085Y030520D01*
X016969Y030403D02*
X014450Y030403D01*
X014450Y030287D02*
X016852Y030287D01*
X016736Y030170D02*
X014450Y030170D01*
X014450Y030054D02*
X016619Y030054D01*
X016502Y029937D02*
X014450Y029937D01*
X014450Y029820D02*
X016448Y029820D01*
X016448Y029704D02*
X014450Y029704D01*
X014450Y029587D02*
X016448Y029587D01*
X016448Y029470D02*
X014544Y029470D01*
X014661Y029354D02*
X016448Y029354D01*
X016448Y029237D02*
X014777Y029237D01*
X014894Y029121D02*
X016448Y029121D01*
X016446Y028538D02*
X008276Y028538D01*
X008263Y028421D02*
X016563Y028421D01*
X016679Y028304D02*
X008249Y028304D01*
X008236Y028188D02*
X016796Y028188D01*
X016913Y028071D02*
X011675Y028071D01*
X011866Y027955D02*
X017029Y027955D01*
X017146Y027838D02*
X011961Y027838D01*
X012009Y027721D02*
X017262Y027721D01*
X017379Y027605D02*
X012023Y027605D01*
X011356Y028071D02*
X010592Y028071D01*
X010630Y028065D02*
X010554Y028077D01*
X010525Y028077D01*
X010525Y027598D01*
X010506Y027598D01*
X010506Y028077D01*
X010477Y028077D01*
X010401Y028065D01*
X010328Y028041D01*
X010259Y028006D01*
X010197Y027961D01*
X010142Y027907D01*
X010097Y027845D01*
X010062Y027776D01*
X010038Y027703D01*
X010026Y027627D01*
X010026Y027598D01*
X010506Y027598D01*
X010506Y027578D01*
X010525Y027578D01*
X010525Y027099D01*
X010554Y027099D01*
X010630Y027111D01*
X010703Y027135D01*
X010772Y027170D01*
X010834Y027215D01*
X010888Y027270D01*
X010934Y027332D01*
X010969Y027400D01*
X010992Y027474D01*
X011004Y027550D01*
X011004Y027578D01*
X010525Y027578D01*
X010525Y027598D01*
X011004Y027598D01*
X011004Y027627D01*
X010992Y027703D01*
X010969Y027776D01*
X010934Y027845D01*
X010888Y027907D01*
X010834Y027961D01*
X010772Y028006D01*
X010703Y028041D01*
X010630Y028065D01*
X010525Y028071D02*
X010506Y028071D01*
X010438Y028071D02*
X008223Y028071D01*
X008210Y027955D02*
X010190Y027955D01*
X010094Y027838D02*
X008197Y027838D01*
X008183Y027721D02*
X010044Y027721D01*
X010026Y027605D02*
X008170Y027605D01*
X008157Y027488D02*
X010036Y027488D01*
X010038Y027474D02*
X010062Y027400D01*
X010097Y027332D01*
X010142Y027270D01*
X010197Y027215D01*
X010259Y027170D01*
X010328Y027135D01*
X010401Y027111D01*
X010477Y027099D01*
X010506Y027099D01*
X010506Y027578D01*
X010026Y027578D01*
X010026Y027550D01*
X010038Y027474D01*
X010077Y027371D02*
X008144Y027371D01*
X008131Y027255D02*
X010157Y027255D01*
X010321Y027138D02*
X008117Y027138D01*
X008299Y028654D02*
X014637Y028654D01*
X014520Y028771D02*
X008323Y028771D01*
X008347Y028887D02*
X014403Y028887D01*
X014287Y029004D02*
X008370Y029004D01*
X008394Y029121D02*
X014170Y029121D01*
X014054Y029237D02*
X008418Y029237D01*
X008442Y029354D02*
X013961Y029354D01*
X013939Y029470D02*
X008465Y029470D01*
X008489Y029587D02*
X013939Y029587D01*
X013939Y029704D02*
X008513Y029704D01*
X008537Y029820D02*
X009648Y029820D01*
X009638Y029824D02*
X009795Y029759D01*
X009964Y029759D01*
X010121Y029824D01*
X010242Y029945D01*
X010307Y030102D01*
X010307Y030272D01*
X010242Y030429D01*
X010214Y030456D01*
X010214Y030694D01*
X011785Y030694D01*
X011813Y030667D01*
X011970Y030602D01*
X012140Y030602D01*
X012297Y030667D01*
X012305Y030675D01*
X012313Y030667D01*
X012470Y030602D01*
X012640Y030602D01*
X012797Y030667D01*
X012917Y030787D01*
X012982Y030944D01*
X012982Y031114D01*
X012917Y031271D01*
X012797Y031391D01*
X012640Y031456D01*
X012470Y031456D01*
X012313Y031391D01*
X012305Y031383D01*
X012297Y031391D01*
X012140Y031456D01*
X011970Y031456D01*
X011813Y031391D01*
X011785Y031364D01*
X010149Y031364D01*
X010121Y031391D01*
X009964Y031456D01*
X009795Y031456D01*
X009638Y031391D01*
X009517Y031271D01*
X009452Y031114D01*
X009452Y030944D01*
X009517Y030787D01*
X009545Y030760D01*
X009545Y030456D01*
X009517Y030429D01*
X009452Y030272D01*
X009452Y030102D01*
X009517Y029945D01*
X009638Y029824D01*
X009525Y029937D02*
X008560Y029937D01*
X008584Y030054D02*
X009472Y030054D01*
X009452Y030170D02*
X008609Y030170D01*
X008644Y030287D02*
X009459Y030287D01*
X009507Y030403D02*
X008678Y030403D01*
X008713Y030520D02*
X009545Y030520D01*
X009545Y030637D02*
X008748Y030637D01*
X008782Y030753D02*
X009545Y030753D01*
X009483Y030870D02*
X008817Y030870D01*
X008852Y030986D02*
X009452Y030986D01*
X009452Y031103D02*
X008886Y031103D01*
X008921Y031220D02*
X009496Y031220D01*
X009583Y031336D02*
X008956Y031336D01*
X008990Y031453D02*
X009786Y031453D01*
X009973Y031453D02*
X011961Y031453D01*
X012148Y031453D02*
X012461Y031453D01*
X012648Y031453D02*
X013939Y031453D01*
X013939Y031569D02*
X009025Y031569D01*
X009060Y031686D02*
X013939Y031686D01*
X013939Y031803D02*
X009101Y031803D01*
X009147Y031919D02*
X013939Y031919D01*
X013939Y032036D02*
X009193Y032036D01*
X009239Y032153D02*
X013906Y032153D01*
X013789Y032269D02*
X009285Y032269D01*
X009332Y032386D02*
X013673Y032386D01*
X013405Y032502D02*
X009378Y032502D01*
X009424Y032619D02*
X013197Y032619D01*
X013109Y032736D02*
X009470Y032736D01*
X009516Y032852D02*
X013065Y032852D01*
X013065Y032969D02*
X009562Y032969D01*
X009609Y033085D02*
X013094Y033085D01*
X013161Y033202D02*
X009655Y033202D01*
X009706Y033319D02*
X013317Y033319D01*
X013667Y033319D02*
X016979Y033319D01*
X016974Y033435D02*
X009765Y033435D01*
X009823Y033552D02*
X016996Y033552D01*
X017051Y033668D02*
X009882Y033668D01*
X009940Y033785D02*
X017178Y033785D01*
X017554Y033902D02*
X009999Y033902D01*
X010057Y034018D02*
X017670Y034018D01*
X017787Y034135D02*
X010116Y034135D01*
X010174Y034251D02*
X017904Y034251D01*
X018020Y034368D02*
X010233Y034368D01*
X010291Y034485D02*
X018137Y034485D01*
X018253Y034601D02*
X010350Y034601D01*
X010408Y034718D02*
X018370Y034718D01*
X018487Y034835D02*
X010478Y034835D01*
X010550Y034951D02*
X018603Y034951D01*
X018720Y035068D02*
X010622Y035068D01*
X010694Y035184D02*
X018837Y035184D01*
X018953Y035301D02*
X010766Y035301D01*
X010838Y035418D02*
X019070Y035418D01*
X019186Y035534D02*
X010910Y035534D01*
X010982Y035651D02*
X019303Y035651D01*
X019420Y035767D02*
X011054Y035767D01*
X011126Y035884D02*
X019536Y035884D01*
X019669Y035683D02*
X017401Y033415D01*
X017127Y033085D02*
X013889Y033085D01*
X013919Y032969D02*
X017594Y032969D01*
X017594Y032852D02*
X013930Y032852D01*
X014047Y032736D02*
X017594Y032736D01*
X017594Y032619D02*
X014163Y032619D01*
X014280Y032502D02*
X017594Y032502D01*
X017594Y032386D02*
X014397Y032386D01*
X014450Y032269D02*
X017594Y032269D01*
X017594Y032153D02*
X014450Y032153D01*
X014450Y032036D02*
X017594Y032036D01*
X017594Y031919D02*
X014450Y031919D01*
X014450Y031803D02*
X017594Y031803D01*
X017594Y031686D02*
X014450Y031686D01*
X014450Y031569D02*
X017594Y031569D01*
X017594Y031453D02*
X014450Y031453D01*
X013939Y031336D02*
X012852Y031336D01*
X012938Y031220D02*
X013939Y031220D01*
X013939Y031103D02*
X012982Y031103D01*
X012982Y030986D02*
X013939Y030986D01*
X013939Y030870D02*
X012951Y030870D01*
X012883Y030753D02*
X013939Y030753D01*
X013939Y030637D02*
X012723Y030637D01*
X012386Y030637D02*
X012223Y030637D01*
X011886Y030637D02*
X010214Y030637D01*
X010214Y030520D02*
X013939Y030520D01*
X013939Y030403D02*
X010252Y030403D01*
X010300Y030287D02*
X013939Y030287D01*
X013939Y030170D02*
X010307Y030170D01*
X010287Y030054D02*
X013939Y030054D01*
X013939Y029937D02*
X010234Y029937D01*
X010111Y029820D02*
X013939Y029820D01*
X011164Y027955D02*
X010841Y027955D01*
X010937Y027838D02*
X011070Y027838D01*
X011022Y027721D02*
X010986Y027721D01*
X011004Y027605D02*
X011008Y027605D01*
X010995Y027488D02*
X011008Y027488D01*
X011056Y027371D02*
X010954Y027371D01*
X010874Y027255D02*
X011131Y027255D01*
X011276Y027138D02*
X010710Y027138D01*
X010525Y027138D02*
X010506Y027138D01*
X010506Y027255D02*
X010525Y027255D01*
X010525Y027371D02*
X010506Y027371D01*
X010506Y027488D02*
X010525Y027488D01*
X010525Y027605D02*
X010506Y027605D01*
X010506Y027721D02*
X010525Y027721D01*
X010525Y027838D02*
X010506Y027838D01*
X010506Y027955D02*
X010525Y027955D01*
X012023Y026443D02*
X012023Y023443D01*
X011159Y023290D02*
X010846Y023290D01*
X010940Y023407D02*
X011068Y023407D01*
X011019Y023523D02*
X010988Y023523D01*
X011004Y023640D02*
X011008Y023640D01*
X011004Y023661D02*
X011004Y023690D01*
X010992Y023766D01*
X010969Y023839D01*
X010934Y023908D01*
X010888Y023970D01*
X010834Y024024D01*
X010772Y024069D01*
X010703Y024104D01*
X010630Y024128D01*
X010554Y024140D01*
X010525Y024140D01*
X010525Y023661D01*
X011004Y023661D01*
X010994Y023757D02*
X011010Y023757D01*
X011058Y023873D02*
X010951Y023873D01*
X010868Y023990D02*
X011137Y023990D01*
X011289Y024106D02*
X010697Y024106D01*
X010525Y024106D02*
X010506Y024106D01*
X010506Y023990D02*
X010525Y023990D01*
X010525Y023873D02*
X010506Y023873D01*
X010506Y023757D02*
X010525Y023757D01*
X010525Y023640D02*
X010506Y023640D01*
X010506Y023523D02*
X010525Y023523D01*
X010525Y023407D02*
X010506Y023407D01*
X010506Y023290D02*
X010525Y023290D01*
X011346Y022096D02*
X011815Y022565D01*
X015901Y022565D01*
X016931Y021535D01*
X016422Y021308D02*
X015387Y021308D01*
X015360Y021191D02*
X016487Y021191D01*
X016603Y021075D02*
X015305Y021075D01*
X014795Y021075D02*
X014677Y021075D01*
X014677Y021191D02*
X014795Y021191D01*
X014795Y021308D02*
X014677Y021308D01*
X014677Y021348D02*
X014677Y020750D01*
X014607Y020759D01*
X014523Y020782D01*
X014444Y020815D01*
X014369Y020858D01*
X014300Y020910D01*
X014239Y020972D01*
X014187Y021040D01*
X014143Y021115D01*
X014110Y021195D01*
X014088Y021278D01*
X014079Y021348D01*
X014677Y021348D01*
X014677Y021424D02*
X012787Y021424D01*
X012787Y021466D02*
X012787Y021348D01*
X012787Y020750D01*
X012857Y020759D01*
X012940Y020782D01*
X013020Y020815D01*
X013095Y020858D01*
X013163Y020910D01*
X013225Y020972D01*
X013277Y021040D01*
X013320Y021115D01*
X013353Y021195D01*
X013376Y021278D01*
X013385Y021348D01*
X012787Y021348D01*
X012669Y021348D01*
X012669Y020750D01*
X012599Y020759D01*
X012516Y020782D01*
X012436Y020815D01*
X012361Y020858D01*
X012293Y020910D01*
X012231Y020972D01*
X012179Y021040D01*
X012136Y021115D01*
X012103Y021195D01*
X012080Y021278D01*
X012071Y021348D01*
X012669Y021348D01*
X012669Y021466D01*
X012071Y021466D01*
X012080Y021536D01*
X012103Y021619D01*
X012136Y021699D01*
X012179Y021774D01*
X012231Y021843D01*
X012293Y021904D01*
X012361Y021956D01*
X012436Y021999D01*
X012516Y022032D01*
X012599Y022055D01*
X012669Y022064D01*
X012669Y021466D01*
X012787Y021466D01*
X012787Y021541D02*
X012669Y021541D01*
X012669Y021658D02*
X012787Y021658D01*
X012787Y021774D02*
X012669Y021774D01*
X012669Y021891D02*
X012787Y021891D01*
X012787Y022007D02*
X012669Y022007D01*
X012455Y022007D02*
X011591Y022007D01*
X011582Y021891D02*
X012280Y021891D01*
X012179Y021774D02*
X011582Y021774D01*
X011582Y021658D02*
X012118Y021658D01*
X012082Y021541D02*
X011582Y021541D01*
X011582Y021424D02*
X012669Y021424D01*
X012669Y021308D02*
X012787Y021308D01*
X012787Y021191D02*
X012669Y021191D01*
X012669Y021075D02*
X012787Y021075D01*
X012787Y020958D02*
X012669Y020958D01*
X012669Y020841D02*
X012787Y020841D01*
X013066Y020841D02*
X013212Y020841D01*
X013211Y020958D02*
X013329Y020958D01*
X013297Y021075D02*
X013583Y021075D01*
X013352Y021191D02*
X014112Y021191D01*
X014084Y021308D02*
X013380Y021308D01*
X013374Y021541D02*
X014089Y021541D01*
X014088Y021536D02*
X014079Y021466D01*
X014677Y021466D01*
X014677Y020958D02*
X014795Y020958D01*
X014795Y020841D02*
X014677Y020841D01*
X014398Y020841D02*
X014251Y020841D01*
X014253Y020958D02*
X014135Y020958D01*
X014167Y021075D02*
X013881Y021075D01*
X014088Y021536D02*
X014110Y021619D01*
X013132Y020725D02*
X011582Y020725D01*
X011582Y020841D02*
X012390Y020841D01*
X012245Y020958D02*
X011582Y020958D01*
X011582Y021075D02*
X012159Y021075D01*
X012104Y021191D02*
X011582Y021191D01*
X011582Y021308D02*
X012076Y021308D01*
X011582Y020608D02*
X013084Y020608D01*
X013055Y020491D02*
X011582Y020491D01*
X011582Y020375D02*
X013055Y020375D01*
X013059Y020258D02*
X011582Y020258D01*
X011582Y020142D02*
X013107Y020142D01*
X013156Y020025D02*
X012939Y020025D01*
X012787Y020025D02*
X012669Y020025D01*
X012669Y020056D02*
X012599Y020047D01*
X012516Y020025D01*
X012436Y019992D01*
X012361Y019948D01*
X012293Y019896D01*
X012231Y019835D01*
X012179Y019766D01*
X012136Y019691D01*
X012103Y019612D01*
X012080Y019528D01*
X012071Y019458D01*
X012669Y019458D01*
X012669Y020056D01*
X012669Y019908D02*
X012787Y019908D01*
X012787Y019792D02*
X012669Y019792D01*
X012669Y019675D02*
X012787Y019675D01*
X012787Y019559D02*
X012669Y019559D01*
X012669Y019442D02*
X011582Y019442D01*
X011582Y019559D02*
X012088Y019559D01*
X012129Y019675D02*
X011582Y019675D01*
X011582Y019792D02*
X012198Y019792D01*
X012309Y019908D02*
X011582Y019908D01*
X011582Y020025D02*
X012517Y020025D01*
X013147Y019908D02*
X013269Y019908D01*
X013258Y019792D02*
X013438Y019792D01*
X013327Y019675D02*
X014137Y019675D01*
X014143Y019691D02*
X014110Y019612D01*
X014088Y019528D01*
X014079Y019458D01*
X014677Y019458D01*
X014677Y020056D01*
X014607Y020047D01*
X014523Y020025D01*
X014444Y019992D01*
X014369Y019948D01*
X014300Y019896D01*
X014239Y019835D01*
X014187Y019766D01*
X014143Y019691D01*
X014206Y019792D02*
X014025Y019792D01*
X014195Y019908D02*
X014317Y019908D01*
X014308Y020025D02*
X014525Y020025D01*
X014677Y020025D02*
X014795Y020025D01*
X014795Y019908D02*
X014677Y019908D01*
X014677Y019792D02*
X014795Y019792D01*
X014795Y019675D02*
X014677Y019675D01*
X014677Y019559D02*
X014795Y019559D01*
X014795Y019442D02*
X021261Y019442D01*
X021797Y019908D02*
X028624Y019908D01*
X028596Y019792D02*
X021914Y019792D01*
X022030Y019675D02*
X028596Y019675D01*
X028642Y019559D02*
X022147Y019559D01*
X022263Y019442D02*
X028733Y019442D01*
X029023Y019756D02*
X031752Y019756D01*
X032901Y020905D01*
X033208Y020608D02*
X033446Y020608D01*
X033446Y020491D02*
X033019Y020491D01*
X032705Y020375D02*
X033446Y020375D01*
X033446Y020258D02*
X032588Y020258D01*
X032472Y020142D02*
X033446Y020142D01*
X033446Y020025D02*
X032355Y020025D01*
X032239Y019908D02*
X033446Y019908D01*
X033446Y019792D02*
X032122Y019792D01*
X032005Y019675D02*
X033446Y019675D01*
X033446Y019559D02*
X031889Y019559D01*
X031687Y020025D02*
X029358Y020025D01*
X029207Y020142D02*
X031804Y020142D01*
X031920Y020258D02*
X021447Y020258D01*
X021564Y020142D02*
X028839Y020142D01*
X028689Y020025D02*
X021680Y020025D01*
X021330Y020375D02*
X026097Y020375D01*
X025488Y020491D02*
X021214Y020491D01*
X021097Y020608D02*
X025047Y020608D01*
X024764Y020725D02*
X020981Y020725D01*
X020864Y020841D02*
X024506Y020841D01*
X024249Y020958D02*
X020747Y020958D01*
X020631Y021075D02*
X024054Y021075D01*
X023880Y021191D02*
X020514Y021191D01*
X020398Y021308D02*
X023706Y021308D01*
X023533Y021424D02*
X020281Y021424D01*
X020164Y021541D02*
X023386Y021541D01*
X023453Y021477D02*
X023453Y021477D01*
X023263Y021658D02*
X020048Y021658D01*
X019931Y021774D02*
X023140Y021774D01*
X023016Y021891D02*
X019815Y021891D01*
X019698Y022007D02*
X022893Y022007D01*
X022782Y022124D02*
X019581Y022124D01*
X019465Y022241D02*
X022694Y022241D01*
X022606Y022357D02*
X019385Y022357D01*
X019385Y022474D02*
X022518Y022474D01*
X022430Y022590D02*
X019385Y022590D01*
X019385Y022707D02*
X022341Y022707D01*
X022262Y022824D02*
X019385Y022824D01*
X019385Y022940D02*
X022201Y022940D01*
X022141Y023057D02*
X019385Y023057D01*
X019385Y023173D02*
X022069Y023173D01*
X022059Y023290D02*
X019385Y023290D01*
X019385Y023407D02*
X022059Y023407D01*
X022059Y023523D02*
X019385Y023523D01*
X019385Y023640D02*
X022059Y023640D01*
X022059Y023757D02*
X019385Y023757D01*
X019385Y023873D02*
X022059Y023873D01*
X022059Y023990D02*
X019385Y023990D01*
X019385Y024106D02*
X022059Y024106D01*
X022059Y024223D02*
X019385Y024223D01*
X019385Y024340D02*
X022059Y024340D01*
X022059Y024456D02*
X019385Y024456D01*
X019385Y024573D02*
X022059Y024573D01*
X022059Y024689D02*
X019385Y024689D01*
X019385Y024806D02*
X022059Y024806D01*
X022059Y024923D02*
X019385Y024923D01*
X019385Y025039D02*
X022059Y025039D01*
X022059Y025156D02*
X019385Y025156D01*
X019385Y025272D02*
X022059Y025272D01*
X022059Y025389D02*
X019385Y025389D01*
X019385Y025506D02*
X022059Y025506D01*
X022059Y025622D02*
X019385Y025622D01*
X019385Y025739D02*
X022059Y025739D01*
X022059Y025856D02*
X019385Y025856D01*
X019385Y025972D02*
X022059Y025972D01*
X022059Y026089D02*
X019385Y026089D01*
X019385Y026205D02*
X022059Y026205D01*
X022059Y026322D02*
X019385Y026322D01*
X019385Y026439D02*
X022059Y026439D01*
X022059Y026555D02*
X019385Y026555D01*
X019385Y026672D02*
X022059Y026672D01*
X022059Y026788D02*
X019385Y026788D01*
X019385Y026905D02*
X022059Y026905D01*
X022059Y027022D02*
X019355Y027022D01*
X019238Y027138D02*
X022059Y027138D01*
X022059Y027255D02*
X019122Y027255D01*
X019005Y027371D02*
X022059Y027371D01*
X022059Y027488D02*
X021533Y027488D01*
X021524Y027481D02*
X021593Y027531D01*
X021653Y027591D01*
X021703Y027660D01*
X021741Y027736D01*
X021768Y027816D01*
X021780Y027893D01*
X021291Y027893D01*
X021291Y027405D01*
X021368Y027417D01*
X021449Y027443D01*
X021524Y027481D01*
X021663Y027605D02*
X022059Y027605D01*
X022059Y027721D02*
X021734Y027721D01*
X021771Y027838D02*
X022059Y027838D01*
X022059Y027955D02*
X021291Y027955D01*
X021291Y027992D02*
X021780Y027992D01*
X021768Y028069D01*
X021741Y028149D01*
X021703Y028225D01*
X021653Y028294D01*
X021593Y028354D01*
X021524Y028404D01*
X021449Y028442D01*
X021368Y028468D01*
X021291Y028480D01*
X021291Y027992D01*
X021193Y027992D01*
X021193Y028480D01*
X021116Y028468D01*
X021035Y028442D01*
X020959Y028404D01*
X020891Y028354D01*
X020831Y028294D01*
X020781Y028225D01*
X020760Y028185D01*
X020730Y028258D01*
X020573Y028415D01*
X020368Y028500D01*
X020147Y028500D01*
X019942Y028415D01*
X019785Y028258D01*
X019700Y028053D01*
X019700Y027832D01*
X019785Y027627D01*
X019942Y027470D01*
X020147Y027385D01*
X020368Y027385D01*
X020573Y027470D01*
X020730Y027627D01*
X020760Y027700D01*
X020781Y027660D01*
X020831Y027591D01*
X020891Y027531D01*
X020959Y027481D01*
X021035Y027443D01*
X021116Y027417D01*
X021193Y027405D01*
X021193Y027893D01*
X021291Y027893D01*
X021291Y027992D01*
X021291Y028071D02*
X021193Y028071D01*
X021193Y028188D02*
X021291Y028188D01*
X021291Y028304D02*
X021193Y028304D01*
X021193Y028421D02*
X021291Y028421D01*
X021490Y028421D02*
X022265Y028421D01*
X022282Y028454D02*
X022282Y028454D01*
X022345Y028538D02*
X017839Y028538D01*
X017722Y028654D02*
X022434Y028654D01*
X022522Y028771D02*
X017606Y028771D01*
X017489Y028887D02*
X022610Y028887D01*
X022698Y029004D02*
X017373Y029004D01*
X017348Y029121D02*
X022786Y029121D01*
X022898Y029237D02*
X017348Y029237D01*
X017462Y029354D02*
X023022Y029354D01*
X023145Y029470D02*
X017517Y029470D01*
X017956Y028421D02*
X019957Y028421D01*
X019831Y028304D02*
X018072Y028304D01*
X018189Y028188D02*
X019756Y028188D01*
X019708Y028071D02*
X018305Y028071D01*
X018422Y027955D02*
X019700Y027955D01*
X019700Y027838D02*
X018539Y027838D01*
X018655Y027721D02*
X019746Y027721D01*
X019807Y027605D02*
X018772Y027605D01*
X018889Y027488D02*
X019924Y027488D01*
X020591Y027488D02*
X020950Y027488D01*
X020821Y027605D02*
X020708Y027605D01*
X021193Y027605D02*
X021291Y027605D01*
X021291Y027721D02*
X021193Y027721D01*
X021193Y027838D02*
X021291Y027838D01*
X021291Y027488D02*
X021193Y027488D01*
X021767Y028071D02*
X022075Y028071D01*
X022143Y028188D02*
X021722Y028188D01*
X021642Y028304D02*
X022204Y028304D01*
X020993Y028421D02*
X020558Y028421D01*
X020684Y028304D02*
X020841Y028304D01*
X020762Y028188D02*
X020759Y028188D01*
X014642Y027138D02*
X013055Y027138D01*
X013057Y027022D02*
X014481Y027022D01*
X014408Y026905D02*
X013032Y026905D01*
X012973Y026788D02*
X014370Y026788D01*
X014370Y026672D02*
X012836Y026672D01*
X012914Y026439D02*
X012353Y026439D01*
X012259Y026322D02*
X012838Y026322D01*
X012796Y026205D02*
X012259Y026205D01*
X012259Y026089D02*
X012796Y026089D01*
X012825Y025972D02*
X012259Y025972D01*
X012259Y025856D02*
X012883Y025856D01*
X013007Y025739D02*
X012259Y025739D01*
X012259Y025622D02*
X014352Y025622D01*
X014352Y025506D02*
X012259Y025506D01*
X012259Y025389D02*
X014352Y025389D01*
X014352Y025272D02*
X012259Y025272D01*
X012259Y025156D02*
X014370Y025156D01*
X014370Y025039D02*
X012259Y025039D01*
X012259Y024923D02*
X014401Y024923D01*
X014471Y024806D02*
X012259Y024806D01*
X012259Y024689D02*
X014404Y024689D01*
X014370Y024573D02*
X012259Y024573D01*
X012259Y024456D02*
X014370Y024456D01*
X014406Y024340D02*
X012259Y024340D01*
X012259Y024223D02*
X014476Y024223D01*
X014352Y025739D02*
X014063Y025739D01*
X013570Y025739D02*
X013500Y025739D01*
X013425Y026555D02*
X013645Y026555D01*
X013988Y026555D02*
X014402Y026555D01*
X014391Y026439D02*
X014465Y026439D01*
X013082Y026555D02*
X012470Y026555D01*
X012023Y026443D02*
X012630Y027049D01*
X011787Y024106D02*
X011742Y024106D01*
X011825Y022241D02*
X015891Y022241D01*
X016008Y022124D02*
X011708Y022124D01*
X011346Y022096D02*
X011346Y018693D01*
X020515Y009523D01*
X020515Y009299D01*
X020665Y009149D01*
X021439Y009149D01*
X022781Y010492D01*
X022781Y011161D01*
X022354Y011163D02*
X022154Y011163D01*
X022038Y011046D02*
X022366Y011046D01*
X022354Y011076D02*
X022419Y010919D01*
X022539Y010799D01*
X022545Y010797D01*
X022545Y010590D01*
X021341Y009385D01*
X020763Y009385D01*
X020752Y009397D01*
X020752Y009621D01*
X020285Y010087D01*
X020411Y010139D01*
X020517Y010246D01*
X021182Y010246D01*
X021276Y010285D01*
X021348Y010357D01*
X022722Y011730D01*
X023625Y011730D01*
X023719Y011769D01*
X023791Y011841D01*
X024641Y012691D01*
X025501Y012691D01*
X025356Y012545D01*
X025203Y012281D01*
X025124Y011985D01*
X025124Y011679D01*
X025203Y011384D01*
X025356Y011119D01*
X025572Y010903D01*
X025837Y010750D01*
X026132Y010671D01*
X026438Y010671D01*
X026733Y010750D01*
X026987Y010896D01*
X027086Y010797D01*
X027092Y010795D01*
X027092Y010716D01*
X026853Y010476D01*
X025471Y010476D01*
X025332Y010338D01*
X025332Y010338D01*
X024144Y009149D01*
X021773Y009149D01*
X022879Y010256D01*
X023017Y010394D01*
X023017Y010797D01*
X023023Y010799D01*
X023143Y010919D01*
X023208Y011076D01*
X023208Y011246D01*
X023143Y011403D01*
X023023Y011523D01*
X022866Y011588D01*
X022696Y011588D01*
X022539Y011523D01*
X022419Y011403D01*
X022354Y011246D01*
X022354Y011076D01*
X022415Y010929D02*
X021921Y010929D01*
X021805Y010813D02*
X022525Y010813D01*
X022545Y010696D02*
X021688Y010696D01*
X021571Y010580D02*
X022535Y010580D01*
X022418Y010463D02*
X021455Y010463D01*
X021338Y010346D02*
X022302Y010346D01*
X022185Y010230D02*
X020501Y010230D01*
X020347Y010113D02*
X022068Y010113D01*
X021952Y009997D02*
X020376Y009997D01*
X020493Y009880D02*
X021835Y009880D01*
X021719Y009763D02*
X020609Y009763D01*
X020726Y009647D02*
X021602Y009647D01*
X021485Y009530D02*
X020752Y009530D01*
X020752Y009413D02*
X021369Y009413D01*
X021804Y009180D02*
X024175Y009180D01*
X024292Y009297D02*
X021920Y009297D01*
X022037Y009413D02*
X024408Y009413D01*
X024525Y009530D02*
X022154Y009530D01*
X022270Y009647D02*
X024641Y009647D01*
X024758Y009763D02*
X022387Y009763D01*
X022503Y009880D02*
X024875Y009880D01*
X024991Y009997D02*
X022620Y009997D01*
X022737Y010113D02*
X025108Y010113D01*
X025224Y010230D02*
X022853Y010230D01*
X022970Y010346D02*
X025341Y010346D01*
X025458Y010463D02*
X023017Y010463D01*
X023017Y010580D02*
X026956Y010580D01*
X027073Y010696D02*
X026532Y010696D01*
X026842Y010813D02*
X027071Y010813D01*
X027665Y010285D02*
X027147Y009767D01*
X025765Y009767D01*
X024439Y008441D01*
X020370Y008441D01*
X019807Y009004D01*
X019514Y008597D02*
X019013Y008597D01*
X019112Y008714D02*
X018772Y008714D01*
X019008Y008830D02*
X018531Y008830D01*
X018290Y008947D02*
X018960Y008947D01*
X018754Y009064D02*
X018049Y009064D01*
X017821Y009180D02*
X018563Y009180D01*
X018482Y009297D02*
X017626Y009297D01*
X017431Y009413D02*
X018443Y009413D01*
X018443Y009530D02*
X017236Y009530D01*
X017041Y009647D02*
X018477Y009647D01*
X018551Y009763D02*
X016846Y009763D01*
X016651Y009880D02*
X018724Y009880D01*
X019560Y010813D02*
X019876Y010813D01*
X019787Y010696D02*
X019676Y010696D01*
X019443Y010929D02*
X021197Y010929D01*
X021081Y010813D02*
X020462Y010813D01*
X021314Y011046D02*
X019327Y011046D01*
X019210Y011163D02*
X021431Y011163D01*
X021547Y011279D02*
X019093Y011279D01*
X018977Y011396D02*
X021664Y011396D01*
X021780Y011512D02*
X018860Y011512D01*
X018744Y011629D02*
X021897Y011629D01*
X022014Y011746D02*
X018627Y011746D01*
X018510Y011862D02*
X022130Y011862D01*
X022247Y011979D02*
X018394Y011979D01*
X018277Y012095D02*
X022364Y012095D01*
X022493Y012212D02*
X018161Y012212D01*
X018044Y012329D02*
X022497Y012329D01*
X022449Y012445D02*
X017927Y012445D01*
X017811Y012562D02*
X022441Y012562D01*
X022458Y012679D02*
X017694Y012679D01*
X017577Y012795D02*
X022508Y012795D01*
X022625Y012912D02*
X017461Y012912D01*
X017344Y013028D02*
X022631Y013028D01*
X022631Y013145D02*
X017228Y013145D01*
X017111Y013262D02*
X022610Y013262D01*
X022494Y013378D02*
X016994Y013378D01*
X016878Y013495D02*
X022377Y013495D01*
X022260Y013611D02*
X016761Y013611D01*
X016645Y013728D02*
X022177Y013728D01*
X023238Y012329D02*
X023555Y012329D01*
X023929Y011979D02*
X025124Y011979D01*
X025124Y011862D02*
X023813Y011862D01*
X023663Y011746D02*
X025124Y011746D01*
X025137Y011629D02*
X022621Y011629D01*
X022528Y011512D02*
X022504Y011512D01*
X022416Y011396D02*
X022388Y011396D01*
X022368Y011279D02*
X022271Y011279D01*
X023034Y011512D02*
X025168Y011512D01*
X025200Y011396D02*
X023146Y011396D01*
X023195Y011279D02*
X025263Y011279D01*
X025331Y011163D02*
X023208Y011163D01*
X023196Y011046D02*
X025429Y011046D01*
X025545Y010929D02*
X023148Y010929D01*
X023037Y010813D02*
X025728Y010813D01*
X026038Y010696D02*
X023017Y010696D01*
X024046Y012095D02*
X025153Y012095D01*
X025184Y012212D02*
X024163Y012212D01*
X024279Y012329D02*
X025231Y012329D01*
X025298Y012445D02*
X024396Y012445D01*
X024512Y012562D02*
X025372Y012562D01*
X025489Y012679D02*
X024629Y012679D01*
X024579Y014544D02*
X028897Y014544D01*
X030904Y015827D02*
X032700Y015827D01*
X032816Y015944D02*
X031020Y015944D01*
X031137Y016060D02*
X032933Y016060D01*
X033049Y016177D02*
X031253Y016177D01*
X031370Y016293D02*
X033166Y016293D01*
X033283Y016410D02*
X031487Y016410D01*
X031603Y016527D02*
X033399Y016527D01*
X033516Y016643D02*
X031720Y016643D01*
X031836Y016760D02*
X033633Y016760D01*
X033749Y016877D02*
X031953Y016877D01*
X032070Y016993D02*
X033866Y016993D01*
X033982Y017110D02*
X032186Y017110D01*
X032303Y017226D02*
X034099Y017226D01*
X034131Y017343D02*
X032419Y017343D01*
X032536Y017460D02*
X034131Y017460D01*
X034131Y017576D02*
X032653Y017576D01*
X032769Y017693D02*
X034131Y017693D01*
X034131Y017809D02*
X032886Y017809D01*
X033002Y017926D02*
X034131Y017926D01*
X034131Y018043D02*
X033119Y018043D01*
X033236Y018159D02*
X034131Y018159D01*
X034131Y018276D02*
X033352Y018276D01*
X033469Y018392D02*
X034131Y018392D01*
X034131Y018509D02*
X033586Y018509D01*
X033702Y018626D02*
X034131Y018626D01*
X034131Y018742D02*
X033819Y018742D01*
X033926Y018859D02*
X034131Y018859D01*
X034131Y018976D02*
X033958Y018976D01*
X033958Y019092D02*
X034131Y019092D01*
X034131Y019209D02*
X033958Y019209D01*
X033958Y019325D02*
X034131Y019325D01*
X034131Y019442D02*
X033958Y019442D01*
X033958Y019559D02*
X034131Y019559D01*
X034131Y019675D02*
X033958Y019675D01*
X033958Y019792D02*
X034131Y019792D01*
X034131Y019908D02*
X033958Y019908D01*
X033958Y020025D02*
X034131Y020025D01*
X034131Y020142D02*
X033958Y020142D01*
X033958Y020258D02*
X034131Y020258D01*
X034131Y020375D02*
X033958Y020375D01*
X033958Y020491D02*
X034131Y020491D01*
X034131Y020608D02*
X033958Y020608D01*
X033958Y020725D02*
X034131Y020725D01*
X034131Y020841D02*
X033958Y020841D01*
X033958Y020958D02*
X034131Y020958D01*
X034131Y021075D02*
X033958Y021075D01*
X033958Y021191D02*
X034131Y021191D01*
X034131Y021308D02*
X033958Y021308D01*
X033958Y021424D02*
X034131Y021424D01*
X034131Y021541D02*
X033958Y021541D01*
X033958Y021658D02*
X034131Y021658D01*
X034131Y021774D02*
X033958Y021774D01*
X033958Y021891D02*
X034131Y021891D01*
X034131Y022007D02*
X033958Y022007D01*
X033958Y022124D02*
X034131Y022124D01*
X034066Y022241D02*
X033958Y022241D01*
X034169Y022472D02*
X034368Y022273D01*
X034368Y017161D01*
X031815Y014608D01*
X031273Y014608D01*
X031417Y015011D02*
X031883Y015011D01*
X031767Y014894D02*
X031591Y014894D01*
X031720Y014181D02*
X034604Y017065D01*
X034604Y022372D01*
X034405Y022570D01*
X034405Y022931D01*
X034840Y023366D01*
X034840Y023750D01*
X034169Y023029D02*
X034169Y022472D01*
X034840Y022750D02*
X034840Y016966D01*
X032147Y014273D01*
X032147Y014004D01*
X031897Y013754D01*
X031273Y013754D01*
X031483Y013378D02*
X031522Y013378D01*
X031619Y013495D02*
X031639Y013495D01*
X032495Y012679D02*
X032497Y012679D01*
X032545Y012562D02*
X032378Y012562D01*
X032262Y012445D02*
X032630Y012445D01*
X032798Y012329D02*
X032145Y012329D01*
X032028Y012212D02*
X034240Y012212D01*
X034208Y012095D02*
X031912Y012095D01*
X031795Y011979D02*
X034179Y011979D01*
X034179Y011862D02*
X031679Y011862D01*
X031562Y011746D02*
X034179Y011746D01*
X034192Y011629D02*
X031445Y011629D01*
X031329Y011512D02*
X034223Y011512D01*
X034255Y011396D02*
X031212Y011396D01*
X031096Y011279D02*
X034318Y011279D01*
X034386Y011163D02*
X030979Y011163D01*
X030862Y011046D02*
X034484Y011046D01*
X034601Y010929D02*
X030746Y010929D01*
X033198Y012329D02*
X034286Y012329D01*
X034353Y012445D02*
X033365Y012445D01*
X033450Y012562D02*
X034427Y012562D01*
X034544Y012679D02*
X033498Y012679D01*
X033505Y012795D02*
X034685Y012795D01*
X034887Y012912D02*
X033498Y012912D01*
X033328Y013128D02*
X032998Y012795D01*
X033328Y013128D02*
X033328Y013781D01*
X035297Y015750D01*
X035840Y015750D01*
X035644Y015361D02*
X035242Y015361D01*
X035359Y015477D02*
X035498Y015477D01*
X035616Y015127D02*
X035009Y015127D01*
X034892Y015011D02*
X035487Y015011D01*
X035430Y014894D02*
X034775Y014894D01*
X034659Y014778D02*
X035406Y014778D01*
X035406Y014661D02*
X034542Y014661D01*
X034426Y014544D02*
X035455Y014544D01*
X035547Y014428D02*
X034309Y014428D01*
X035125Y015244D02*
X037013Y015244D01*
X035736Y016177D02*
X035724Y016177D01*
X032978Y018626D02*
X022885Y018626D01*
X022885Y018742D02*
X033095Y018742D01*
X033212Y018859D02*
X022846Y018859D01*
X022730Y018976D02*
X033328Y018976D01*
X033445Y019092D02*
X022613Y019092D01*
X022497Y019209D02*
X033446Y019209D01*
X033446Y019325D02*
X022380Y019325D01*
X022885Y018509D02*
X032862Y018509D01*
X032745Y018392D02*
X024019Y018392D01*
X023983Y018428D02*
X024153Y018259D01*
X024210Y018316D01*
X024367Y018381D01*
X024537Y018381D01*
X024694Y018316D01*
X024814Y018196D01*
X024880Y018039D01*
X024880Y017869D01*
X024814Y017712D01*
X024694Y017592D01*
X024537Y017527D01*
X024367Y017527D01*
X024210Y017592D01*
X024153Y017650D01*
X023983Y017480D01*
X023591Y017480D01*
X023313Y017758D01*
X023313Y018151D01*
X023591Y018428D01*
X023983Y018428D01*
X024136Y018276D02*
X024170Y018276D01*
X024452Y017954D02*
X023787Y017954D01*
X023438Y018276D02*
X022885Y018276D01*
X022885Y018392D02*
X023555Y018392D01*
X023322Y018159D02*
X022885Y018159D01*
X022885Y018043D02*
X023313Y018043D01*
X023313Y017926D02*
X022885Y017926D01*
X022885Y017809D02*
X023313Y017809D01*
X023378Y017693D02*
X022885Y017693D01*
X022885Y017576D02*
X023495Y017576D01*
X023505Y017343D02*
X023300Y017343D01*
X022944Y017343D02*
X022885Y017343D01*
X022885Y017460D02*
X031812Y017460D01*
X031929Y017576D02*
X024656Y017576D01*
X024795Y017693D02*
X032045Y017693D01*
X032162Y017809D02*
X024855Y017809D01*
X024880Y017926D02*
X032279Y017926D01*
X032395Y018043D02*
X024878Y018043D01*
X024830Y018159D02*
X032512Y018159D01*
X032629Y018276D02*
X024735Y018276D01*
X024249Y017576D02*
X024079Y017576D01*
X024069Y017343D02*
X031696Y017343D01*
X031579Y017226D02*
X024185Y017226D01*
X024236Y017110D02*
X031462Y017110D01*
X031346Y016993D02*
X024261Y016993D01*
X024261Y016877D02*
X031229Y016877D01*
X031113Y016760D02*
X024220Y016760D01*
X024146Y016643D02*
X030996Y016643D01*
X029314Y019442D02*
X033446Y019442D01*
X032270Y020608D02*
X028485Y020608D01*
X028756Y020725D02*
X032387Y020725D01*
X032474Y020841D02*
X029027Y020841D01*
X029284Y020958D02*
X032474Y020958D01*
X032153Y020491D02*
X028037Y020491D01*
X027594Y020383D02*
X027594Y020383D01*
X027485Y020375D02*
X032037Y020375D01*
X033289Y020725D02*
X033446Y020725D01*
X033446Y020841D02*
X033328Y020841D01*
X033328Y020958D02*
X033446Y020958D01*
X033446Y021075D02*
X033293Y021075D01*
X033219Y021191D02*
X033446Y021191D01*
X026716Y020318D02*
X026716Y020318D01*
X023787Y016954D02*
X023122Y016954D01*
X023415Y016643D02*
X023428Y016643D01*
X023748Y016293D02*
X023826Y016293D01*
X023826Y016177D02*
X023748Y016177D01*
X023748Y016060D02*
X023826Y016060D01*
X023826Y015827D02*
X023748Y015827D01*
X023748Y015710D02*
X023826Y015710D01*
X023826Y015594D02*
X023748Y015594D01*
X023508Y015594D02*
X022885Y015594D01*
X022885Y015710D02*
X023401Y015710D01*
X023349Y015827D02*
X022885Y015827D01*
X018895Y018946D02*
X017472Y018946D01*
X017472Y018070D01*
X014795Y018859D02*
X014677Y018859D01*
X014677Y018976D02*
X014795Y018976D01*
X014795Y019092D02*
X014677Y019092D01*
X014677Y019209D02*
X014795Y019209D01*
X014795Y019325D02*
X014677Y019325D01*
X014677Y019442D02*
X012787Y019442D01*
X012787Y019325D02*
X012669Y019325D01*
X012669Y019209D02*
X012787Y019209D01*
X012787Y019092D02*
X012669Y019092D01*
X012669Y018976D02*
X012787Y018976D01*
X012787Y018859D02*
X012669Y018859D01*
X012350Y018859D02*
X011582Y018859D01*
X011582Y018976D02*
X012222Y018976D01*
X012144Y019092D02*
X011582Y019092D01*
X011582Y019209D02*
X012097Y019209D01*
X012073Y019325D02*
X011582Y019325D01*
X013106Y018859D02*
X014357Y018859D01*
X014230Y018976D02*
X013234Y018976D01*
X013312Y019092D02*
X014152Y019092D01*
X014105Y019209D02*
X013359Y019209D01*
X013383Y019325D02*
X014081Y019325D01*
X014096Y019559D02*
X013368Y019559D01*
X009235Y020142D02*
X008876Y020142D01*
X008903Y020258D02*
X008837Y020258D01*
X008447Y021891D02*
X008426Y021891D01*
X008400Y022007D02*
X008516Y022007D01*
X008633Y022124D02*
X008382Y022124D01*
X008364Y022241D02*
X008766Y022241D01*
X008968Y022357D02*
X008346Y022357D01*
X017258Y021075D02*
X017632Y021075D01*
X017499Y021191D02*
X017375Y021191D01*
X017866Y021191D02*
X017964Y021191D01*
X017964Y021075D02*
X017866Y021075D01*
X017866Y021308D02*
X017964Y021308D01*
X017964Y021424D02*
X017866Y021424D01*
X018441Y021658D02*
X019045Y021658D01*
X018928Y021774D02*
X018398Y021774D01*
X018322Y021891D02*
X018812Y021891D01*
X027911Y032502D02*
X034359Y032502D01*
X034199Y032619D02*
X027925Y032619D01*
X027925Y032736D02*
X032784Y032736D01*
X032667Y032852D02*
X027925Y032852D01*
X027895Y032969D02*
X032550Y032969D01*
X032434Y033085D02*
X027864Y033085D01*
X027818Y033202D02*
X032317Y033202D01*
X032201Y033319D02*
X027751Y033319D01*
X027677Y033435D02*
X032084Y033435D01*
X031967Y033552D02*
X027560Y033552D01*
X027420Y033668D02*
X031851Y033668D01*
X031734Y033785D02*
X027218Y033785D01*
X027162Y033902D02*
X031618Y033902D01*
X031501Y034018D02*
X027252Y034018D01*
X027319Y034135D02*
X031384Y034135D01*
X031268Y034251D02*
X027376Y034251D01*
X027407Y034368D02*
X031151Y034368D01*
X031034Y034485D02*
X027439Y034485D01*
X027446Y034601D02*
X030918Y034601D01*
X030801Y034718D02*
X027446Y034718D01*
X027443Y034835D02*
X030685Y034835D01*
X030568Y034951D02*
X027411Y034951D01*
X027380Y035068D02*
X030451Y035068D01*
X030335Y035184D02*
X027327Y035184D01*
X027260Y035301D02*
X030218Y035301D01*
X030102Y035418D02*
X027177Y035418D01*
X027060Y035534D02*
X029985Y035534D01*
X029868Y035651D02*
X026904Y035651D01*
X026665Y035767D02*
X029752Y035767D01*
X029635Y035884D02*
X020632Y035884D01*
X020681Y035767D02*
X025905Y035767D01*
X025666Y035651D02*
X020681Y035651D01*
X020654Y035534D02*
X025510Y035534D01*
X025393Y035418D02*
X020593Y035418D01*
X020448Y035301D02*
X025310Y035301D01*
X025243Y035184D02*
X020242Y035184D01*
X020204Y035068D02*
X025190Y035068D01*
X025159Y034951D02*
X020126Y034951D01*
X019943Y034835D02*
X025128Y034835D01*
X022527Y036817D02*
X037013Y036817D01*
X037013Y036934D02*
X022410Y036934D01*
X022294Y037050D02*
X024163Y037050D01*
X023576Y037167D02*
X022177Y037167D01*
X022060Y037283D02*
X023258Y037283D01*
X022977Y037400D02*
X021944Y037400D01*
X021827Y037517D02*
X022766Y037517D01*
X022591Y037633D02*
X019950Y037633D01*
X019747Y037750D02*
X022417Y037750D01*
X022268Y037866D02*
X019503Y037866D01*
X019386Y037983D02*
X022151Y037983D01*
X022035Y038100D02*
X019270Y038100D01*
X019153Y038216D02*
X021918Y038216D01*
X021814Y038333D02*
X019036Y038333D01*
X018920Y038449D02*
X021737Y038449D01*
X021659Y038566D02*
X018803Y038566D01*
X018687Y038683D02*
X021581Y038683D01*
X021503Y038799D02*
X018570Y038799D01*
X018453Y038916D02*
X021440Y038916D01*
X021392Y039033D02*
X018337Y039033D01*
X018220Y039149D02*
X021344Y039149D01*
X021295Y039266D02*
X017688Y039266D01*
X017114Y039266D02*
X013980Y039266D01*
X014104Y039382D02*
X021247Y039382D01*
X021203Y039499D02*
X014229Y039499D01*
X014353Y039616D02*
X021179Y039616D01*
X021156Y039732D02*
X014477Y039732D01*
X014606Y039849D02*
X021133Y039849D01*
X021110Y039965D02*
X014748Y039965D01*
X014890Y040082D02*
X021087Y040082D01*
X021074Y040199D02*
X015032Y040199D01*
X013856Y039149D02*
X017022Y039149D01*
X016974Y039033D02*
X013732Y039033D01*
X013607Y038916D02*
X016974Y038916D01*
X017001Y038799D02*
X013483Y038799D01*
X013360Y038683D02*
X017063Y038683D01*
X017208Y038566D02*
X013256Y038566D01*
X013152Y038449D02*
X018140Y038449D01*
X018257Y038333D02*
X013048Y038333D01*
X012944Y038216D02*
X018374Y038216D01*
X018490Y038100D02*
X012839Y038100D01*
X012735Y037983D02*
X018607Y037983D01*
X018723Y037866D02*
X012631Y037866D01*
X012527Y037750D02*
X018840Y037750D01*
X018957Y037633D02*
X012423Y037633D01*
X012318Y037517D02*
X019073Y037517D01*
X019190Y037400D02*
X012224Y037400D01*
X012137Y037283D02*
X019226Y037283D01*
X019257Y037167D02*
X012050Y037167D01*
X011963Y037050D02*
X019325Y037050D01*
X019485Y036934D02*
X011875Y036934D01*
X011788Y036817D02*
X021009Y036817D01*
X021009Y036934D02*
X019821Y036934D01*
X019981Y037050D02*
X021054Y037050D01*
X021040Y036700D02*
X011701Y036700D01*
X011614Y036584D02*
X021107Y036584D01*
X021264Y036467D02*
X011527Y036467D01*
X011440Y036350D02*
X021598Y036350D01*
X021941Y036234D02*
X011353Y036234D01*
X011270Y036117D02*
X022057Y036117D01*
X022174Y036001D02*
X020540Y036001D01*
X020254Y035683D02*
X019669Y035683D01*
X019967Y036001D02*
X011198Y036001D01*
X013823Y033202D02*
X017027Y033202D01*
X019263Y034966D02*
X019537Y034966D01*
X019815Y035244D01*
X018024Y038566D02*
X017594Y038566D01*
X029988Y036700D02*
X037013Y036700D01*
X037013Y036584D02*
X030104Y036584D01*
X030221Y036467D02*
X037013Y036467D01*
X037013Y036350D02*
X030338Y036350D01*
X030454Y036234D02*
X037013Y036234D01*
X037013Y036117D02*
X030571Y036117D01*
X030688Y036001D02*
X037013Y036001D01*
X037013Y035884D02*
X030804Y035884D01*
X030921Y035767D02*
X034960Y035767D01*
X034892Y035749D02*
X034627Y035596D01*
X034411Y035380D01*
X034258Y035115D01*
X034179Y034820D01*
X034179Y034514D01*
X034258Y034219D01*
X034411Y033954D01*
X034627Y033738D01*
X034892Y033585D01*
X035187Y033506D01*
X035493Y033506D01*
X035788Y033585D01*
X036053Y033738D01*
X036270Y033954D01*
X036422Y034219D01*
X036502Y034514D01*
X036502Y034820D01*
X036422Y035115D01*
X036270Y035380D01*
X036053Y035596D01*
X035788Y035749D01*
X035493Y035828D01*
X035187Y035828D01*
X034892Y035749D01*
X034721Y035651D02*
X031037Y035651D01*
X031154Y035534D02*
X034565Y035534D01*
X034448Y035418D02*
X031271Y035418D01*
X031387Y035301D02*
X034365Y035301D01*
X034298Y035184D02*
X031504Y035184D01*
X031620Y035068D02*
X034245Y035068D01*
X034214Y034951D02*
X031737Y034951D01*
X031854Y034835D02*
X034183Y034835D01*
X034179Y034718D02*
X031970Y034718D01*
X032087Y034601D02*
X034179Y034601D01*
X034187Y034485D02*
X032203Y034485D01*
X032320Y034368D02*
X034218Y034368D01*
X034249Y034251D02*
X032437Y034251D01*
X032553Y034135D02*
X034306Y034135D01*
X034374Y034018D02*
X032670Y034018D01*
X032787Y033902D02*
X034463Y033902D01*
X034580Y033785D02*
X032903Y033785D01*
X033020Y033668D02*
X034747Y033668D01*
X035014Y033552D02*
X033136Y033552D01*
X034840Y031750D02*
X034405Y031315D01*
X034403Y031313D01*
X034169Y031412D02*
X034169Y031412D01*
X035091Y032386D02*
X035565Y032386D01*
X035473Y032502D02*
X035208Y032502D01*
X035275Y032619D02*
X035424Y032619D01*
X035406Y032736D02*
X035275Y032736D01*
X035275Y032852D02*
X035348Y032852D01*
X035778Y033202D02*
X037013Y033202D01*
X037013Y033319D02*
X035661Y033319D01*
X035544Y033435D02*
X037013Y033435D01*
X037013Y033552D02*
X035666Y033552D01*
X035934Y033668D02*
X037013Y033668D01*
X037013Y033785D02*
X036101Y033785D01*
X036217Y033902D02*
X037013Y033902D01*
X037013Y034018D02*
X036307Y034018D01*
X036374Y034135D02*
X037013Y034135D01*
X037013Y034251D02*
X036431Y034251D01*
X036462Y034368D02*
X037013Y034368D01*
X037013Y034485D02*
X036494Y034485D01*
X036502Y034601D02*
X037013Y034601D01*
X037013Y034718D02*
X036502Y034718D01*
X036498Y034835D02*
X037013Y034835D01*
X037013Y034951D02*
X036466Y034951D01*
X036435Y035068D02*
X037013Y035068D01*
X037013Y035184D02*
X036383Y035184D01*
X036315Y035301D02*
X037013Y035301D01*
X037013Y035418D02*
X036232Y035418D01*
X036115Y035534D02*
X037013Y035534D01*
X037013Y035651D02*
X035959Y035651D01*
X035720Y035767D02*
X037013Y035767D01*
X037013Y033085D02*
X036119Y033085D01*
X036220Y032969D02*
X037013Y032969D01*
X037013Y032852D02*
X036268Y032852D01*
X036275Y032736D02*
X037013Y032736D01*
X037013Y032619D02*
X036256Y032619D01*
X036208Y032502D02*
X037013Y032502D01*
X037013Y032386D02*
X036116Y032386D01*
X036116Y032269D02*
X037013Y032269D01*
X037013Y032153D02*
X036116Y032153D01*
X036169Y032036D02*
X037013Y032036D01*
X037013Y031919D02*
X036240Y031919D01*
X036275Y031803D02*
X037013Y031803D01*
X037013Y031686D02*
X036275Y031686D01*
X036236Y031569D02*
X037013Y031569D01*
X037013Y031453D02*
X036158Y031453D01*
X037013Y010463D02*
X033610Y010463D01*
X033633Y010346D02*
X037013Y010346D01*
X037013Y010230D02*
X033633Y010230D01*
X033595Y010113D02*
X037013Y010113D01*
X037013Y009997D02*
X033533Y009997D01*
X033417Y009880D02*
X036885Y009880D01*
X036702Y009763D02*
X027812Y009763D01*
X027695Y009647D02*
X036518Y009647D01*
X036313Y009530D02*
X027579Y009530D01*
X027462Y009413D02*
X036103Y009413D01*
X035894Y009297D02*
X027345Y009297D01*
X027282Y008947D02*
X035264Y008947D01*
X035474Y009064D02*
X026927Y009064D01*
X026600Y009064D02*
X025730Y009064D01*
X025847Y009180D02*
X035684Y009180D01*
X035030Y008830D02*
X027481Y008830D01*
X027597Y008714D02*
X034788Y008714D01*
X034544Y008597D02*
X027705Y008597D01*
X027772Y008481D02*
X034274Y008481D01*
X034004Y008364D02*
X027840Y008364D01*
X027874Y008247D02*
X033719Y008247D01*
X033391Y008131D02*
X027905Y008131D01*
X027925Y008014D02*
X033064Y008014D01*
X032736Y007898D02*
X027925Y007898D01*
X027925Y007781D02*
X032408Y007781D01*
X032015Y007664D02*
X027901Y007664D01*
X027870Y007548D02*
X031566Y007548D01*
X031116Y007431D02*
X027831Y007431D01*
X027763Y007314D02*
X030666Y007314D01*
X029973Y007198D02*
X027696Y007198D01*
X027582Y007081D02*
X029275Y007081D01*
X028053Y006965D02*
X027457Y006965D01*
X026070Y006965D02*
X025398Y006965D01*
X025831Y007198D02*
X023546Y007198D01*
X022929Y007314D02*
X025763Y007314D01*
X025696Y007431D02*
X022369Y007431D01*
X021955Y007548D02*
X025657Y007548D01*
X025626Y007664D02*
X021541Y007664D01*
X021127Y007781D02*
X025602Y007781D01*
X025602Y007898D02*
X020761Y007898D01*
X019883Y008247D02*
X019839Y008247D01*
X019760Y008364D02*
X019532Y008364D01*
X019637Y008481D02*
X019254Y008481D01*
X024218Y007081D02*
X025945Y007081D01*
X025602Y008014D02*
X024681Y008014D01*
X024797Y008131D02*
X025621Y008131D01*
X025653Y008247D02*
X024914Y008247D01*
X025031Y008364D02*
X025687Y008364D01*
X025755Y008481D02*
X025147Y008481D01*
X025264Y008597D02*
X025822Y008597D01*
X025930Y008714D02*
X025381Y008714D01*
X025497Y008830D02*
X026046Y008830D01*
X026245Y008947D02*
X025614Y008947D01*
D21*
X013326Y013732D02*
X013326Y013730D01*
X013194Y013899D02*
X013193Y013899D01*
X012994Y014626D02*
X012376Y015364D01*
D22*
X020169Y010502D02*
X021131Y010502D01*
X022616Y011986D01*
X023574Y011986D01*
X024535Y012946D01*
X027661Y012946D01*
X033702Y018988D01*
X033702Y023923D01*
X034840Y025061D01*
X034840Y025750D01*
X034840Y032750D02*
X034431Y032750D01*
X034252Y032929D01*
X032952Y032929D01*
X029679Y036202D01*
X022334Y036202D01*
X021958Y036578D01*
X021716Y036578D01*
X021437Y036858D01*
X014194Y032226D02*
X014194Y029458D01*
X014820Y028832D01*
X016513Y028832D01*
X018657Y026689D01*
X018657Y025257D01*
X018486Y025086D01*
X018486Y024693D01*
X014824Y025108D02*
X013756Y025108D01*
X014165Y026131D02*
X014824Y026131D01*
X014194Y032226D02*
X013492Y032929D01*
D23*
X013492Y032929D03*
X012380Y031730D03*
X012555Y031029D03*
X012055Y031029D03*
X012635Y030193D03*
X009880Y030187D03*
X009880Y031029D03*
X011988Y034476D03*
X015460Y033704D03*
X017401Y033415D03*
X019815Y035244D03*
X020254Y035683D03*
X021437Y036858D03*
X019653Y037326D03*
X018602Y036183D03*
X015856Y038817D03*
X017401Y038948D03*
X017992Y029878D03*
X017112Y029608D03*
X012630Y027049D03*
X013226Y023651D03*
X015395Y020846D03*
X015907Y020492D03*
X016222Y019960D03*
X016324Y018470D03*
X015159Y018651D03*
X015159Y018139D03*
X017472Y018070D03*
X018468Y018070D03*
X018895Y018946D03*
X023122Y016954D03*
X024452Y017954D03*
X024452Y014954D03*
X024452Y013954D03*
X023563Y012978D03*
X022868Y012551D03*
X022781Y011161D03*
X023147Y009860D03*
X023811Y007691D03*
X020169Y010502D03*
X020834Y011257D03*
X018870Y009478D03*
X019380Y009051D03*
X027328Y011159D03*
X027757Y010712D03*
X028742Y010826D03*
X029283Y011598D03*
X029732Y012025D03*
X031273Y013754D03*
X031720Y014181D03*
X031273Y014608D03*
X030177Y017067D03*
X029023Y019756D03*
X031657Y021519D03*
X031669Y022137D03*
X032901Y020905D03*
X034840Y025750D03*
X018486Y024693D03*
D24*
X015492Y030710D03*
X015492Y030952D03*
X015161Y030952D03*
X015161Y030710D03*
D25*
X015326Y030287D03*
X014984Y030088D03*
X015326Y029889D03*
X015669Y029691D03*
X015326Y029492D03*
X014982Y029691D03*
X015669Y030088D03*
X015326Y031374D03*
X014984Y031572D03*
X015326Y031771D03*
X014984Y031970D03*
X015326Y032169D03*
D26*
X013817Y026131D02*
X013246Y026131D01*
D27*
X013824Y026130D02*
X014165Y026130D01*
X014165Y026131D01*
D28*
X009880Y030187D02*
X009880Y031029D01*
X012555Y031029D01*
D29*
X013254Y026131D03*
X013817Y026131D03*
D30*
X022456Y036498D02*
X021628Y037326D01*
X019653Y037326D01*
X018031Y038948D01*
X017401Y038948D01*
X022456Y036498D02*
X029801Y036498D01*
X033074Y033224D01*
X035366Y033224D01*
X035840Y032750D01*
X035840Y031750D01*
M02*
