%
M48
M72
T01C0.0197
T02C0.0236
T03C0.0276
T04C0.0315
T05C0.0354
T06C0.0394
T07C0.0433
T08C0.0512
T09C0.0591
T10C0.0630
T11C0.1102
%
T01
X15161Y30710
X15161Y30952
X15492Y30952
X15492Y30710
T02
X18870Y9478
X19380Y9051
X20834Y11257
X22781Y11161
X23147Y9860
X23811Y7691
X27328Y11159
X27757Y10712
X28742Y10826
X29283Y11598
X29732Y12025
X31273Y13754
X31720Y14181
X31273Y14608
X30177Y17067
X29023Y19756
X31657Y21519
X31669Y22137
X32901Y20905
X24452Y17954
X23122Y16954
X24452Y14954
X24452Y13954
X23563Y12978
X22868Y12551
X18468Y18070
X18895Y18946
X17472Y18070
X16324Y18470
X15159Y18651
X15159Y18139
X16222Y19960
X15907Y20492
X15395Y20846
X13226Y23651
X12630Y27049
X14982Y29691
X14984Y30088
X15326Y29889
X15669Y29691
X15326Y29492
X15669Y30088
X15326Y30287
X15326Y31374
X14984Y31572
X15326Y31771
X14984Y31970
X15326Y32169
X15460Y33704
X17401Y33415
X19815Y35244
X20254Y35683
X21437Y36858
X19653Y37326
X18602Y36183
X15856Y38817
X11988Y34476
X12380Y31730
X12555Y31029
X12055Y31029
X12635Y30193
X9880Y30187
X9880Y31029
X17112Y29608
T03
X17992Y29878
X13492Y32929
X11515Y27588
X10515Y27588
X13254Y26131
X13817Y26131
X11515Y23651
X10515Y23651
X18486Y24693
X32998Y12795
X20169Y10502
X17401Y38948
T04
X34840Y32750
X35840Y32750
X35840Y31750
X34840Y31750
X34840Y30750
X35840Y30750
X35840Y29750
X35840Y28750
X35840Y27750
X34840Y27750
X34840Y26750
X34840Y25750
X34840Y23750
X34840Y22750
X35840Y15750
X35840Y14750
T05
X33126Y10307
X30566Y10307
X14824Y24517
X14824Y26722
T06
X23787Y17954
X23787Y16954
X23787Y15954
X23787Y14954
X23787Y13954
T07
X17915Y21535
X16931Y21535
X20257Y27943
X21242Y27943
T08
X15691Y25620
T09
X13732Y20403
T10
X14736Y19399
X12728Y19399
X12728Y21407
X14736Y21407
T11
X9441Y21289
X26285Y11832
X26763Y7905
X35340Y11832
X26763Y32706
X26285Y34667
X26285Y34667
X35340Y34667
M30
