G75*
%MOIN*%
%OFA0B0*%
%FSLAX24Y24*%
%IPPOS*%
%LPD*%
%AMOC8*
5,1,8,0,0,1.08239X$1,22.5*
%
%ADD10C,0.0120*%
%ADD11C,0.0100*%
%ADD12R,0.0276X0.0354*%
%ADD13R,0.0512X0.0591*%
%ADD14R,0.0591X0.0512*%
%ADD15R,0.0394X0.0551*%
%ADD16R,0.0591X0.0157*%
%ADD17R,0.0276X0.0118*%
%ADD18R,0.0315X0.0543*%
%ADD19R,0.0354X0.0276*%
%ADD20R,0.0768X0.0984*%
%ADD21C,0.0500*%
%ADD22C,0.0660*%
%ADD23C,0.0760*%
%ADD24C,0.1000*%
%ADD25R,0.0157X0.0276*%
%ADD26R,0.0709X0.0630*%
%ADD27C,0.0531*%
%ADD28C,0.0768*%
%ADD29R,0.0236X0.0315*%
%ADD30OC8,0.0591*%
%ADD31C,0.0591*%
%ADD32R,0.0689X0.0571*%
%ADD33R,0.0394X0.0118*%
%ADD34R,0.0197X0.0118*%
%ADD35R,0.0689X0.1378*%
%ADD36R,0.0390X0.0120*%
%ADD37R,0.2953X0.0709*%
%ADD38R,0.0551X0.0551*%
%ADD39R,0.0354X0.0787*%
%ADD40OC8,0.0472*%
%ADD41C,0.0472*%
%ADD42C,0.0118*%
%ADD43C,0.0039*%
%ADD44C,0.0197*%
%ADD45C,0.0295*%
%ADD46C,0.0354*%
%ADD47C,0.0394*%
%ADD48C,0.0000*%
%ADD49C,0.0315*%
%ADD50C,0.0560*%
%ADD51C,0.0157*%
%ADD52C,0.0425*%
%ADD53C,0.0276*%
D10*
X028838Y008029D02*
X029332Y008523D01*
X029332Y008647D01*
X029208Y008770D01*
X028961Y008770D01*
X028838Y008647D01*
X028838Y008029D02*
X029332Y008029D01*
X029630Y008153D02*
X030123Y008647D01*
X030123Y008153D01*
X030000Y008029D01*
X029753Y008029D01*
X029630Y008153D01*
X029630Y008647D01*
X029753Y008770D01*
X030000Y008770D01*
X030123Y008647D01*
X030422Y008523D02*
X030668Y008770D01*
X030668Y008029D01*
X030422Y008029D02*
X030915Y008029D01*
X031213Y008153D02*
X031213Y008276D01*
X031337Y008400D01*
X031584Y008400D01*
X031707Y008276D01*
X031707Y008153D01*
X031584Y008029D01*
X031337Y008029D01*
X031213Y008153D01*
X031337Y008400D02*
X031213Y008523D01*
X031213Y008647D01*
X031337Y008770D01*
X031584Y008770D01*
X031707Y008647D01*
X031707Y008523D01*
X031584Y008400D01*
D11*
X016173Y017933D02*
X016120Y017933D01*
X016120Y018853D01*
X016173Y018853D01*
X016173Y017933D01*
X016173Y018009D02*
X016120Y018009D01*
X016120Y018107D02*
X016173Y018107D01*
X016173Y018206D02*
X016120Y018206D01*
X016120Y018304D02*
X016173Y018304D01*
X016173Y018403D02*
X016120Y018403D01*
X016120Y018501D02*
X016173Y018501D01*
X016173Y018600D02*
X016120Y018600D01*
X016120Y018698D02*
X016173Y018698D01*
X016173Y018797D02*
X016120Y018797D01*
X016120Y019544D02*
X016120Y019619D01*
X015985Y020036D01*
X015727Y020391D01*
X015372Y020648D01*
X014955Y020784D01*
X014296Y020784D01*
X014110Y020970D01*
X013865Y021071D01*
X013599Y021071D01*
X013353Y020970D01*
X013165Y020782D01*
X013064Y020536D01*
X013064Y020270D01*
X013165Y020025D01*
X013353Y019837D01*
X013599Y019735D01*
X013865Y019735D01*
X014110Y019837D01*
X014296Y020022D01*
X014736Y020022D01*
X014833Y020015D01*
X015019Y019955D01*
X015177Y019840D01*
X015291Y019682D01*
X015351Y019497D01*
X015359Y019399D01*
X015359Y017933D01*
X014174Y017933D01*
X014076Y017835D01*
X014076Y017765D01*
X013540Y017765D01*
X013447Y017858D01*
X013447Y018045D01*
X013320Y018173D01*
X013139Y018173D01*
X012925Y017959D01*
X012805Y018079D01*
X012712Y018173D01*
X012251Y018173D01*
X012178Y018099D01*
X012104Y018173D01*
X011737Y018173D01*
X011515Y017952D01*
X011515Y017771D01*
X011521Y017765D01*
X011389Y017765D01*
X011389Y022819D01*
X016173Y022819D01*
X016173Y019544D01*
X016120Y019544D01*
X016120Y019585D02*
X016173Y019585D01*
X016173Y019683D02*
X016099Y019683D01*
X016067Y019782D02*
X016173Y019782D01*
X016173Y019880D02*
X016035Y019880D01*
X016003Y019979D02*
X016173Y019979D01*
X016173Y020077D02*
X015955Y020077D01*
X015985Y020036D02*
X015985Y020036D01*
X015883Y020176D02*
X016173Y020176D01*
X016173Y020274D02*
X015812Y020274D01*
X015740Y020373D02*
X016173Y020373D01*
X016173Y020471D02*
X015616Y020471D01*
X015727Y020391D02*
X015727Y020391D01*
X015727Y020391D01*
X015481Y020570D02*
X016173Y020570D01*
X016173Y020668D02*
X015311Y020668D01*
X015372Y020648D02*
X015372Y020648D01*
X015008Y020767D02*
X016173Y020767D01*
X016173Y020865D02*
X014215Y020865D01*
X014116Y020964D02*
X016173Y020964D01*
X016173Y021062D02*
X013887Y021062D01*
X013577Y021062D02*
X011389Y021062D01*
X011389Y020964D02*
X013348Y020964D01*
X013249Y020865D02*
X011389Y020865D01*
X011389Y020767D02*
X013159Y020767D01*
X013118Y020668D02*
X011389Y020668D01*
X011389Y020570D02*
X013078Y020570D01*
X013064Y020471D02*
X011389Y020471D01*
X011389Y020373D02*
X013064Y020373D01*
X013064Y020274D02*
X011389Y020274D01*
X011389Y020176D02*
X013103Y020176D01*
X013144Y020077D02*
X011389Y020077D01*
X011389Y019979D02*
X013212Y019979D01*
X013310Y019880D02*
X011389Y019880D01*
X011389Y019782D02*
X013487Y019782D01*
X013977Y019782D02*
X015219Y019782D01*
X015290Y019683D02*
X011389Y019683D01*
X011389Y019585D02*
X015323Y019585D01*
X015352Y019486D02*
X011389Y019486D01*
X011389Y019388D02*
X015359Y019388D01*
X015359Y019289D02*
X011389Y019289D01*
X011389Y019191D02*
X015359Y019191D01*
X015359Y019092D02*
X011389Y019092D01*
X011389Y018994D02*
X015359Y018994D01*
X015359Y018895D02*
X011389Y018895D01*
X011389Y018797D02*
X015359Y018797D01*
X015359Y018698D02*
X011389Y018698D01*
X011389Y018600D02*
X015359Y018600D01*
X015359Y018501D02*
X011389Y018501D01*
X011389Y018403D02*
X015359Y018403D01*
X015359Y018304D02*
X011389Y018304D01*
X011389Y018206D02*
X015359Y018206D01*
X015359Y018107D02*
X013385Y018107D01*
X013447Y018009D02*
X015359Y018009D01*
X014151Y017910D02*
X013447Y017910D01*
X013494Y017812D02*
X014076Y017812D01*
X013323Y017674D02*
X012949Y017674D01*
X013229Y017955D01*
X013229Y017394D01*
X012715Y017488D02*
X012622Y017394D01*
X012341Y017394D01*
X012341Y017955D01*
X012622Y017955D01*
X012715Y017861D01*
X012715Y017768D01*
X012622Y017674D01*
X012341Y017674D01*
X012107Y017768D02*
X012107Y017861D01*
X012014Y017955D01*
X011827Y017955D01*
X011734Y017861D01*
X011573Y018009D02*
X011389Y018009D01*
X011389Y018107D02*
X011671Y018107D01*
X011515Y017910D02*
X011389Y017910D01*
X011389Y017812D02*
X011515Y017812D01*
X011734Y017394D02*
X012107Y017768D01*
X012170Y018107D02*
X012185Y018107D01*
X012777Y018107D02*
X013073Y018107D01*
X012975Y018009D02*
X012876Y018009D01*
X012622Y017674D02*
X012715Y017581D01*
X012715Y017488D01*
X012107Y017394D02*
X011734Y017394D01*
X011499Y017301D02*
X011126Y017301D01*
X010892Y017488D02*
X010798Y017394D01*
X010612Y017394D01*
X010518Y017488D01*
X010705Y017674D02*
X010798Y017674D01*
X010892Y017581D01*
X010892Y017488D01*
X010798Y017674D02*
X010892Y017768D01*
X010892Y017861D01*
X010798Y017955D01*
X010612Y017955D01*
X010518Y017861D01*
X014154Y019880D02*
X015121Y019880D01*
X014945Y019979D02*
X014252Y019979D01*
X016173Y021161D02*
X011389Y021161D01*
X011389Y021259D02*
X016173Y021259D01*
X016173Y021358D02*
X011389Y021358D01*
X011389Y021456D02*
X016173Y021456D01*
X016173Y021555D02*
X011389Y021555D01*
X011389Y021653D02*
X016173Y021653D01*
X016173Y021752D02*
X011389Y021752D01*
X011389Y021850D02*
X016173Y021850D01*
X016173Y021949D02*
X011389Y021949D01*
X011389Y022047D02*
X016173Y022047D01*
X016173Y022146D02*
X011389Y022146D01*
X011389Y022244D02*
X016173Y022244D01*
X016173Y022343D02*
X011389Y022343D01*
X011389Y022441D02*
X016173Y022441D01*
X016173Y022540D02*
X011389Y022540D01*
X011389Y022638D02*
X016173Y022638D01*
X016173Y022737D02*
X011389Y022737D01*
D12*
X012118Y023651D03*
X012630Y023651D03*
X012630Y027588D03*
X012118Y027588D03*
X011415Y028691D03*
X010903Y028691D03*
X010763Y032358D03*
X011275Y032358D03*
X011413Y034484D03*
X010901Y034484D03*
X015937Y031939D03*
X016448Y031939D03*
X020159Y037326D03*
X020671Y037326D03*
X033409Y020905D03*
X033921Y020905D03*
X033921Y019724D03*
X033409Y019724D03*
X033409Y019133D03*
X033921Y019133D03*
X034092Y015608D03*
X034604Y015608D03*
X031529Y012736D03*
X031017Y012736D03*
X029535Y016362D03*
X029023Y016362D03*
X029023Y018620D03*
X029535Y018620D03*
X029535Y019210D03*
X029023Y019210D03*
X026681Y016362D03*
X026169Y016362D03*
X024909Y011712D03*
X024397Y011712D03*
X023854Y011712D03*
X023342Y011712D03*
X024397Y011161D03*
X024909Y011161D03*
X016326Y019198D03*
X015815Y019198D03*
D13*
X014244Y030041D03*
X013574Y030041D03*
D14*
X013218Y031029D03*
X013218Y031698D03*
D15*
X011649Y030305D03*
X010901Y030305D03*
X011275Y029439D03*
X011275Y032929D03*
X010901Y033795D03*
X011649Y033795D03*
X012435Y033795D03*
X013183Y033795D03*
X012809Y032929D03*
X033974Y014748D03*
X034722Y014748D03*
X034348Y013881D03*
D16*
X029023Y013931D03*
X029023Y014187D03*
X029023Y014443D03*
X029023Y014698D03*
X029023Y014954D03*
X029023Y015210D03*
X029023Y015466D03*
X029023Y013675D03*
X029023Y013419D03*
X029023Y013163D03*
X026169Y013163D03*
X026169Y013419D03*
X026169Y013675D03*
X026169Y013931D03*
X026169Y014187D03*
X026169Y014443D03*
X026169Y014698D03*
X026169Y014954D03*
X026169Y015210D03*
X026169Y015466D03*
D17*
X024576Y031293D03*
X024576Y031490D03*
X024576Y031687D03*
X024576Y031883D03*
X023797Y031883D03*
X023797Y031687D03*
X023797Y031490D03*
X023797Y031293D03*
D18*
X024187Y031588D03*
D19*
X022923Y031490D03*
X022923Y032002D03*
X020673Y036380D03*
X020673Y036891D03*
X017531Y020029D03*
X017531Y019517D03*
X018063Y019458D03*
X018063Y018946D03*
X019441Y018946D03*
X019441Y019458D03*
X020149Y019009D03*
X020149Y018498D03*
X019380Y010498D03*
X018870Y010496D03*
X018870Y009984D03*
X019380Y009986D03*
X019913Y009734D03*
X020425Y009734D03*
X020425Y009222D03*
X019913Y009222D03*
D20*
X018602Y034275D03*
X017401Y034275D03*
X017401Y038088D03*
X018602Y038088D03*
D21*
X019653Y037326D03*
X018602Y036183D03*
X019815Y035244D03*
X020254Y035683D03*
X021437Y036858D03*
X017401Y038948D03*
X015856Y038817D03*
X011988Y034476D03*
X013492Y032929D03*
X012380Y031730D03*
X012555Y031029D03*
X012055Y031029D03*
X012635Y030193D03*
X009880Y030187D03*
X009880Y031029D03*
X012630Y027049D03*
X013226Y023651D03*
X015395Y020846D03*
X015907Y020492D03*
X016222Y019960D03*
X016324Y018470D03*
X015159Y018651D03*
X015159Y018139D03*
X017472Y018070D03*
X018468Y018070D03*
X019519Y018015D03*
X018895Y018946D03*
X023122Y016954D03*
X024452Y017954D03*
X024452Y014954D03*
X024452Y013954D03*
X023563Y012978D03*
X022868Y012551D03*
X022781Y011161D03*
X023147Y009860D03*
X023811Y007691D03*
X020169Y010502D03*
X020834Y011257D03*
X018870Y009478D03*
X019380Y009051D03*
X027328Y011159D03*
X027757Y010712D03*
X028742Y010826D03*
X029283Y011598D03*
X029732Y012025D03*
X030061Y012992D03*
X031273Y013754D03*
X031720Y014181D03*
X031273Y014608D03*
X030177Y017067D03*
X029023Y019756D03*
X031657Y021519D03*
X031669Y022137D03*
X032901Y020905D03*
X034840Y025750D03*
X018486Y024693D03*
X017112Y029608D03*
X017992Y029878D03*
X017401Y033415D03*
X015460Y033704D03*
D22*
X011515Y027588D03*
X010515Y027588D03*
X010515Y023651D03*
X011515Y023651D03*
X030566Y010307D03*
X033126Y010307D03*
X032998Y012795D03*
D23*
X017915Y021535D03*
X016931Y021535D03*
X020257Y027943D03*
X021242Y027943D03*
D24*
X014736Y021407D03*
X013732Y020403D03*
X014736Y019399D03*
X012728Y019399D03*
X012728Y021407D03*
D25*
X018476Y020088D03*
X018732Y020088D03*
X018988Y020088D03*
X018988Y019458D03*
X018732Y019458D03*
X018476Y019458D03*
D26*
X021114Y010502D03*
X021114Y009399D03*
D27*
X014824Y024517D03*
X014824Y026722D03*
D28*
X015691Y025620D03*
D29*
X023263Y011161D03*
X023933Y011161D03*
D30*
X023787Y017954D03*
D31*
X023787Y016954D03*
X023787Y015954D03*
X023787Y014954D03*
X023787Y013954D03*
D32*
X015326Y030832D03*
D33*
X014696Y030734D03*
X014696Y030931D03*
X014696Y031128D03*
X014696Y030537D03*
X015956Y030537D03*
X015956Y030734D03*
X015956Y030931D03*
X015956Y031128D03*
D34*
X018080Y035789D03*
X018080Y035986D03*
X018080Y036183D03*
X018080Y036380D03*
X018080Y036616D03*
X019124Y036616D03*
X019124Y036380D03*
X019124Y036183D03*
X019124Y035986D03*
X019124Y035789D03*
D35*
X018602Y036183D03*
D36*
X030323Y020069D03*
X030323Y019813D03*
X030323Y019557D03*
X030323Y019301D03*
X030323Y019045D03*
X030323Y018789D03*
X030323Y018533D03*
X030323Y018277D03*
X032621Y018277D03*
X032621Y018533D03*
X032621Y018789D03*
X032621Y019045D03*
X032621Y019301D03*
X032621Y019557D03*
X032621Y019813D03*
X032621Y020069D03*
D37*
X015198Y035080D03*
X015198Y037285D03*
D38*
X011275Y031669D03*
X009779Y031669D03*
D39*
X015307Y017096D03*
X015740Y017096D03*
X016173Y017096D03*
X016606Y017096D03*
X017039Y017096D03*
X018220Y017096D03*
X019519Y017096D03*
X019519Y012293D03*
X019086Y012293D03*
X019952Y012293D03*
X020385Y012293D03*
X020819Y012293D03*
X015307Y012293D03*
D40*
X034840Y032750D03*
D41*
X035840Y032750D03*
X035840Y031750D03*
X034840Y031750D03*
X034840Y030750D03*
X035840Y030750D03*
X035840Y029750D03*
X035840Y028750D03*
X035840Y027750D03*
X034840Y027750D03*
X034840Y026750D03*
X034840Y023750D03*
X034840Y022750D03*
X035840Y015750D03*
X035840Y014750D03*
D42*
X014067Y011880D02*
X013883Y012039D01*
X012739Y013225D01*
X011703Y014506D01*
X010784Y015874D01*
X009989Y017317D01*
X009324Y018824D01*
X008820Y020306D01*
X008992Y020207D01*
X009288Y020128D01*
X009593Y020128D01*
X009889Y020207D01*
X010154Y020360D01*
X010370Y020576D01*
X010523Y020841D01*
X012390Y020841D01*
X012361Y020858D02*
X012436Y020815D01*
X012516Y020782D01*
X012599Y020759D01*
X012669Y020750D01*
X012669Y021348D01*
X012787Y021348D01*
X012787Y020750D01*
X012857Y020759D01*
X012940Y020782D01*
X013020Y020815D01*
X013095Y020858D01*
X013163Y020910D01*
X013225Y020972D01*
X013277Y021040D01*
X013320Y021115D01*
X013353Y021195D01*
X013376Y021278D01*
X013385Y021348D01*
X012787Y021348D01*
X012787Y021466D01*
X013385Y021466D01*
X013376Y021536D01*
X013353Y021619D01*
X013320Y021699D01*
X013277Y021774D01*
X013225Y021843D01*
X013163Y021904D01*
X013095Y021956D01*
X013020Y021999D01*
X012940Y022032D01*
X012857Y022055D01*
X012787Y022064D01*
X012787Y021466D01*
X012669Y021466D01*
X012669Y021348D01*
X012071Y021348D01*
X012080Y021278D01*
X012103Y021195D01*
X012136Y021115D01*
X012179Y021040D01*
X012231Y020972D01*
X012293Y020910D01*
X012361Y020858D01*
X012245Y020958D02*
X010554Y020958D01*
X010585Y021075D02*
X012159Y021075D01*
X012104Y021191D02*
X010602Y021191D01*
X010602Y021136D02*
X010602Y021442D01*
X010523Y021737D01*
X010370Y022002D01*
X010154Y022218D01*
X009889Y022371D01*
X009593Y022450D01*
X009288Y022450D01*
X008992Y022371D01*
X008727Y022218D01*
X008511Y022002D01*
X008432Y021865D01*
X008403Y021985D01*
X008154Y023614D01*
X008050Y025258D01*
X008091Y026905D01*
X009233Y026905D01*
X009216Y026945D02*
X009273Y026807D01*
X009378Y026702D01*
X009378Y026702D01*
X010266Y025814D01*
X010404Y025757D01*
X012981Y025757D01*
X012995Y025744D01*
X013163Y025674D01*
X013344Y025674D01*
X013513Y025744D01*
X013526Y025757D01*
X013544Y025757D01*
X013558Y025744D01*
X013726Y025674D01*
X013907Y025674D01*
X014075Y025744D01*
X014204Y025873D01*
X014274Y026041D01*
X014274Y026222D01*
X014204Y026390D01*
X014075Y026519D01*
X013907Y026589D01*
X013726Y026589D01*
X013558Y026519D01*
X013544Y026506D01*
X013526Y026506D01*
X013513Y026519D01*
X013344Y026589D01*
X013163Y026589D01*
X012995Y026519D01*
X012981Y026506D01*
X010633Y026506D01*
X009964Y027174D01*
X009964Y028454D01*
X010588Y028454D01*
X010588Y028440D01*
X010692Y028336D01*
X011114Y028336D01*
X011172Y028394D01*
X011180Y028386D01*
X011216Y028365D01*
X011256Y028354D01*
X011405Y028354D01*
X011405Y028681D01*
X011425Y028681D01*
X011425Y028700D01*
X011712Y028700D01*
X011712Y028889D01*
X011701Y028929D01*
X011680Y028965D01*
X011650Y028995D01*
X011614Y029016D01*
X011584Y029024D01*
X011624Y029065D01*
X013419Y029065D01*
X014753Y027731D01*
X014859Y027625D01*
X014996Y027569D01*
X019844Y027569D01*
X019942Y027470D01*
X020147Y027385D01*
X020368Y027385D01*
X020573Y027470D01*
X020730Y027627D01*
X020760Y027700D01*
X020781Y027660D01*
X020831Y027591D01*
X020891Y027531D01*
X020959Y027481D01*
X021035Y027443D01*
X021116Y027417D01*
X021193Y027405D01*
X021193Y027893D01*
X021291Y027893D01*
X021291Y027405D01*
X021368Y027417D01*
X021449Y027443D01*
X021524Y027481D01*
X021593Y027531D01*
X021653Y027591D01*
X021703Y027660D01*
X021741Y027736D01*
X021768Y027816D01*
X021780Y027893D01*
X021291Y027893D01*
X021291Y027992D01*
X021193Y027992D01*
X021193Y028480D01*
X021116Y028468D01*
X021035Y028442D01*
X020959Y028404D01*
X020891Y028354D01*
X020831Y028294D01*
X020781Y028225D01*
X020760Y028185D01*
X020730Y028258D01*
X020573Y028415D01*
X020494Y028448D01*
X020494Y029874D01*
X021873Y031254D01*
X022594Y031254D01*
X022672Y031175D01*
X023173Y031175D01*
X023252Y031254D01*
X023364Y031254D01*
X023364Y031042D01*
X023468Y030939D01*
X024906Y030939D01*
X025009Y031042D01*
X025009Y031450D01*
X025148Y031450D01*
X025537Y031061D01*
X025675Y030923D01*
X029650Y030923D01*
X032635Y027937D01*
X032635Y022227D01*
X032063Y021655D01*
X032019Y021761D01*
X031958Y021822D01*
X032031Y021895D01*
X032096Y022052D01*
X032096Y022222D01*
X032031Y022379D01*
X031911Y022500D01*
X031754Y022565D01*
X031584Y022565D01*
X031427Y022500D01*
X031307Y022379D01*
X031242Y022222D01*
X031242Y022052D01*
X031244Y022047D01*
X030994Y021796D01*
X030994Y021244D01*
X031132Y021106D01*
X031185Y021053D01*
X031185Y020668D01*
X030823Y020307D01*
X030054Y020307D01*
X029950Y020203D01*
X029950Y019410D01*
X029914Y019446D01*
X029850Y019446D01*
X029850Y019461D01*
X029746Y019565D01*
X029406Y019565D01*
X029450Y019671D01*
X029450Y019840D01*
X029385Y019997D01*
X029265Y020118D01*
X029108Y020183D01*
X028938Y020183D01*
X028781Y020118D01*
X028661Y019997D01*
X028596Y019840D01*
X028596Y019671D01*
X028661Y019514D01*
X028711Y019464D01*
X028708Y019461D01*
X028708Y018960D01*
X028753Y018915D01*
X028708Y018870D01*
X028708Y018369D01*
X028787Y018290D01*
X028787Y016691D01*
X028714Y016618D01*
X026990Y016618D01*
X026937Y016671D01*
X026937Y017086D01*
X026898Y017180D01*
X025484Y018593D01*
X025412Y018665D01*
X025318Y018704D01*
X023228Y018704D01*
X018742Y023190D01*
X018742Y024344D01*
X018848Y024451D01*
X018913Y024608D01*
X018913Y024777D01*
X018848Y024934D01*
X018728Y025055D01*
X018571Y025120D01*
X018401Y025120D01*
X018244Y025055D01*
X018124Y024934D01*
X018059Y024777D01*
X018059Y024608D01*
X018124Y024451D01*
X018230Y024344D01*
X018230Y023033D01*
X018269Y022939D01*
X018341Y022867D01*
X022885Y018323D01*
X022885Y017319D01*
X022880Y017316D01*
X022760Y017196D01*
X022694Y017039D01*
X022694Y016869D01*
X022697Y016864D01*
X022204Y016371D01*
X022204Y012234D01*
X022343Y012096D01*
X022851Y011588D01*
X022696Y011588D01*
X022539Y011523D01*
X022419Y011403D01*
X022354Y011246D01*
X022354Y011076D01*
X022419Y010919D01*
X022539Y010799D01*
X022696Y010734D01*
X022866Y010734D01*
X023023Y010799D01*
X023057Y010833D01*
X023072Y010819D01*
X024124Y010819D01*
X024149Y010844D01*
X024186Y010807D01*
X024608Y010807D01*
X024666Y010864D01*
X024674Y010857D01*
X024710Y010836D01*
X024750Y010825D01*
X024899Y010825D01*
X024899Y011151D01*
X024919Y011151D01*
X024919Y010825D01*
X025068Y010825D01*
X025108Y010836D01*
X025145Y010857D01*
X025174Y010886D01*
X025195Y010922D01*
X025206Y010963D01*
X025206Y011151D01*
X024919Y011151D01*
X024919Y011171D01*
X025206Y011171D01*
X025206Y011359D01*
X025195Y011400D01*
X025183Y011421D01*
X025191Y011428D01*
X025203Y011384D01*
X025356Y011119D01*
X025572Y010903D01*
X025837Y010750D01*
X026132Y010671D01*
X026438Y010671D01*
X026733Y010750D01*
X026987Y010896D01*
X027086Y010797D01*
X027243Y010732D01*
X027330Y010732D01*
X027330Y010627D01*
X027395Y010470D01*
X027516Y010350D01*
X027673Y010285D01*
X027842Y010285D01*
X027999Y010350D01*
X028120Y010470D01*
X028185Y010627D01*
X028185Y010797D01*
X028120Y010954D01*
X027999Y011074D01*
X027994Y011077D01*
X027994Y011434D01*
X027801Y011627D01*
X027801Y012462D01*
X027662Y012600D01*
X027473Y012789D01*
X027960Y012789D01*
X027960Y012085D01*
X028492Y011553D01*
X028606Y011553D01*
X028797Y011362D01*
X028919Y011362D01*
X028921Y011356D01*
X029041Y011236D01*
X029198Y011171D01*
X029368Y011171D01*
X029525Y011236D01*
X029645Y011356D01*
X029710Y011513D01*
X029710Y011598D01*
X029817Y011598D01*
X029974Y011663D01*
X030094Y011783D01*
X030159Y011940D01*
X030159Y012110D01*
X030094Y012267D01*
X029974Y012387D01*
X029817Y012452D01*
X029647Y012452D01*
X029490Y012387D01*
X029370Y012267D01*
X029367Y012261D01*
X028786Y012261D01*
X028669Y012379D01*
X028669Y012789D01*
X029510Y012789D01*
X029526Y012805D01*
X029575Y012756D01*
X029696Y012756D01*
X029698Y012750D01*
X029819Y012630D01*
X029976Y012565D01*
X030146Y012565D01*
X030303Y012630D01*
X030405Y012732D01*
X030638Y012500D01*
X030702Y012500D01*
X030702Y012485D01*
X030806Y012381D01*
X031229Y012381D01*
X031273Y012426D01*
X031318Y012381D01*
X031740Y012381D01*
X031844Y012485D01*
X031844Y012500D01*
X031908Y012500D01*
X031968Y012559D01*
X032547Y012559D01*
X032568Y012508D01*
X032710Y012365D01*
X032897Y012288D01*
X033099Y012288D01*
X033285Y012365D01*
X033428Y012508D01*
X033505Y012694D01*
X033505Y012896D01*
X033428Y013082D01*
X033285Y013225D01*
X033099Y013302D01*
X032897Y013302D01*
X032710Y013225D01*
X032568Y013082D01*
X032547Y013031D01*
X031844Y013031D01*
X032481Y013669D01*
X032620Y013807D01*
X032620Y014554D01*
X032481Y014693D01*
X031287Y015887D01*
X031287Y017921D01*
X033008Y017921D01*
X033112Y018025D01*
X033112Y018865D01*
X033198Y018779D01*
X033620Y018779D01*
X033665Y018824D01*
X033710Y018779D01*
X034132Y018779D01*
X034236Y018883D01*
X034236Y019384D01*
X034191Y019429D01*
X034236Y019473D01*
X034236Y019975D01*
X034157Y020053D01*
X034157Y020143D01*
X034006Y020294D01*
X033867Y020433D01*
X033645Y020433D01*
X033645Y020576D01*
X033678Y020608D01*
X033678Y020608D01*
X033685Y020601D01*
X033722Y020580D01*
X033762Y020569D01*
X033911Y020569D01*
X033911Y020895D01*
X033931Y020895D01*
X033931Y020915D01*
X034218Y020915D01*
X034218Y021103D01*
X034207Y021144D01*
X034186Y021180D01*
X034156Y021210D01*
X034120Y021230D01*
X034080Y021241D01*
X033931Y021241D01*
X033931Y020915D01*
X033911Y020915D01*
X033911Y021241D01*
X033762Y021241D01*
X033722Y021230D01*
X033685Y021210D01*
X033678Y021202D01*
X033620Y021259D01*
X033198Y021259D01*
X033174Y021236D01*
X033143Y021267D01*
X032986Y021332D01*
X032816Y021332D01*
X032691Y021281D01*
X033206Y021795D01*
X033344Y021933D01*
X033344Y028231D01*
X032221Y029354D01*
X029944Y031631D01*
X027225Y031631D01*
X027477Y031777D01*
X027693Y031993D01*
X027846Y032258D01*
X027925Y032553D01*
X027925Y032859D01*
X027846Y033155D01*
X027693Y033419D01*
X027477Y033636D01*
X027212Y033789D01*
X027084Y033823D01*
X027214Y033954D01*
X027367Y034219D01*
X027446Y034514D01*
X027446Y034820D01*
X027367Y035115D01*
X027214Y035380D01*
X026998Y035596D01*
X026733Y035749D01*
X026438Y035828D01*
X026132Y035828D01*
X025837Y035749D01*
X025572Y035596D01*
X025356Y035380D01*
X025203Y035115D01*
X025124Y034820D01*
X025124Y034514D01*
X025203Y034219D01*
X025356Y033954D01*
X025572Y033738D01*
X025837Y033585D01*
X025965Y033550D01*
X025834Y033419D01*
X025681Y033155D01*
X025602Y032859D01*
X025602Y032553D01*
X025681Y032258D01*
X025834Y031993D01*
X026050Y031777D01*
X026302Y031631D01*
X025969Y031631D01*
X025481Y032120D01*
X025009Y032120D01*
X025009Y032134D01*
X024906Y032238D01*
X023468Y032238D01*
X023364Y032134D01*
X023364Y031923D01*
X023259Y031923D01*
X023259Y031992D01*
X022933Y031992D01*
X022933Y032011D01*
X023259Y032011D01*
X023259Y032160D01*
X023248Y032201D01*
X023227Y032237D01*
X023198Y032267D01*
X023161Y032288D01*
X023121Y032298D01*
X022933Y032298D01*
X022933Y032011D01*
X022913Y032011D01*
X022913Y031992D01*
X022587Y031992D01*
X022587Y031843D01*
X022597Y031802D01*
X022618Y031766D01*
X022626Y031758D01*
X022594Y031726D01*
X021677Y031726D01*
X020021Y030070D01*
X020021Y028448D01*
X019942Y028415D01*
X019844Y028317D01*
X015225Y028317D01*
X013951Y029591D01*
X013967Y029587D01*
X014185Y029587D01*
X014303Y029587D01*
X014521Y029587D01*
X014561Y029597D01*
X014597Y029618D01*
X014627Y029648D01*
X014648Y029684D01*
X014659Y029725D01*
X014659Y029982D01*
X014303Y029982D01*
X014303Y030100D01*
X014659Y030100D01*
X014659Y030301D01*
X014696Y030301D01*
X014794Y030300D01*
X014794Y030301D01*
X014967Y030301D01*
X015054Y030388D01*
X015267Y030388D01*
X015267Y030773D01*
X015070Y030773D01*
X015070Y030891D01*
X015267Y030891D01*
X015267Y030773D01*
X015385Y030773D01*
X015385Y030388D01*
X015599Y030388D01*
X015686Y030301D01*
X016085Y030301D01*
X016687Y029699D01*
X016685Y029693D01*
X016685Y029523D01*
X016750Y029366D01*
X016870Y029246D01*
X017027Y029181D01*
X017197Y029181D01*
X017354Y029246D01*
X017474Y029366D01*
X017539Y029523D01*
X017539Y029693D01*
X017474Y029850D01*
X017354Y029970D01*
X017197Y030035D01*
X017027Y030035D01*
X017021Y030033D01*
X016312Y030742D01*
X016312Y030780D01*
X016330Y030798D01*
X016330Y030891D01*
X016393Y030891D01*
X016546Y031045D01*
X016685Y031183D01*
X016685Y031609D01*
X016763Y031688D01*
X016763Y032189D01*
X016660Y032293D01*
X016237Y032293D01*
X016180Y032235D01*
X016172Y032243D01*
X016136Y032264D01*
X016095Y032275D01*
X015946Y032275D01*
X015946Y031948D01*
X015927Y031948D01*
X015927Y031929D01*
X015946Y031929D01*
X015946Y031602D01*
X016095Y031602D01*
X016136Y031613D01*
X016172Y031634D01*
X016180Y031642D01*
X016212Y031609D01*
X016212Y031379D01*
X016197Y031364D01*
X015686Y031364D01*
X015599Y031277D01*
X015385Y031277D01*
X015385Y030891D01*
X015267Y030891D01*
X015267Y031277D01*
X015054Y031277D01*
X014967Y031364D01*
X014258Y031364D01*
X014199Y031305D01*
X013691Y031305D01*
X013691Y031358D01*
X013663Y031386D01*
X013672Y031422D01*
X013672Y031639D01*
X013277Y031639D01*
X013277Y031757D01*
X013672Y031757D01*
X013672Y031975D01*
X013662Y032016D01*
X013646Y032043D01*
X013810Y032043D01*
X013926Y032091D01*
X014496Y032661D01*
X017025Y032661D01*
X017141Y032709D01*
X017229Y032798D01*
X017419Y032988D01*
X017486Y032988D01*
X017643Y033053D01*
X017763Y033173D01*
X017828Y033330D01*
X017828Y033500D01*
X017784Y033606D01*
X017858Y033606D01*
X017962Y033710D01*
X017962Y034647D01*
X017963Y034648D01*
X017962Y034745D01*
X017962Y034842D01*
X017961Y034842D01*
X017957Y035334D01*
X018039Y035416D01*
X018039Y035553D01*
X018098Y035553D01*
X018098Y035473D01*
X018109Y035432D01*
X018130Y035396D01*
X018160Y035366D01*
X018196Y035345D01*
X018237Y035335D01*
X018543Y035335D01*
X018543Y036124D01*
X018351Y036124D01*
X018338Y036136D01*
X018338Y036183D01*
X018338Y036229D01*
X018351Y036242D01*
X018543Y036242D01*
X018543Y037031D01*
X018237Y037031D01*
X018196Y037020D01*
X018160Y036999D01*
X018130Y036969D01*
X018130Y036968D01*
X018031Y036968D01*
X017984Y036922D01*
X017962Y036944D01*
X017962Y038654D01*
X017858Y038757D01*
X017784Y038757D01*
X017828Y038863D01*
X017828Y039033D01*
X017763Y039190D01*
X017643Y039311D01*
X017486Y039376D01*
X017316Y039376D01*
X017159Y039311D01*
X017039Y039190D01*
X016974Y039033D01*
X016974Y038863D01*
X017018Y038757D01*
X016944Y038757D01*
X016840Y038654D01*
X016840Y038084D01*
X016714Y038210D01*
X014019Y038210D01*
X015293Y039484D01*
X019549Y039484D01*
X021181Y037852D01*
X021181Y037206D01*
X021074Y037100D01*
X021027Y036986D01*
X021027Y037103D01*
X020986Y037144D01*
X020986Y037577D01*
X020882Y037681D01*
X020460Y037681D01*
X020415Y037636D01*
X020370Y037681D01*
X019948Y037681D01*
X019925Y037658D01*
X019895Y037689D01*
X019738Y037754D01*
X019568Y037754D01*
X019411Y037689D01*
X019291Y037568D01*
X019226Y037411D01*
X019226Y037241D01*
X019291Y037084D01*
X019411Y036964D01*
X019568Y036899D01*
X019738Y036899D01*
X019895Y036964D01*
X019925Y036995D01*
X019948Y036972D01*
X020101Y036972D01*
X019980Y036852D01*
X019279Y036852D01*
X019279Y036866D01*
X019175Y036970D01*
X019073Y036970D01*
X019044Y036999D01*
X019008Y037020D01*
X018967Y037031D01*
X018661Y037031D01*
X018661Y036242D01*
X018543Y036242D01*
X018543Y036124D01*
X018661Y036124D01*
X018661Y035335D01*
X018967Y035335D01*
X019008Y035345D01*
X019044Y035366D01*
X019067Y035389D01*
X019175Y035389D01*
X019279Y035493D01*
X019279Y035553D01*
X019520Y035553D01*
X019452Y035486D01*
X019387Y035329D01*
X019387Y035159D01*
X019452Y035002D01*
X019573Y034882D01*
X019730Y034817D01*
X019900Y034817D01*
X020057Y034882D01*
X020177Y035002D01*
X020242Y035159D01*
X020242Y035256D01*
X020339Y035256D01*
X020496Y035321D01*
X020616Y035441D01*
X020681Y035598D01*
X020681Y035768D01*
X020616Y035925D01*
X020496Y036045D01*
X020339Y036110D01*
X020187Y036110D01*
X020187Y036281D01*
X020088Y036380D01*
X020176Y036380D01*
X020337Y036541D01*
X020337Y036538D01*
X020337Y036389D01*
X020663Y036389D01*
X020663Y036370D01*
X020337Y036370D01*
X020337Y036221D01*
X020347Y036180D01*
X020368Y036144D01*
X020398Y036114D01*
X020434Y036094D01*
X020475Y036083D01*
X020663Y036083D01*
X020663Y036370D01*
X020683Y036370D01*
X020683Y036389D01*
X021009Y036389D01*
X021009Y036538D01*
X020998Y036579D01*
X020977Y036615D01*
X020970Y036623D01*
X021027Y036680D01*
X021027Y036730D01*
X021074Y036616D01*
X021195Y036496D01*
X021352Y036431D01*
X021522Y036431D01*
X021679Y036496D01*
X021799Y036616D01*
X021864Y036773D01*
X021864Y036943D01*
X021799Y037100D01*
X021693Y037206D01*
X021693Y038009D01*
X021654Y038103D01*
X019800Y039957D01*
X019706Y039996D01*
X015136Y039996D01*
X015042Y039957D01*
X014970Y039885D01*
X012716Y037631D01*
X012677Y037537D01*
X012677Y035116D01*
X012716Y035022D01*
X012788Y034950D01*
X012927Y034811D01*
X012927Y034248D01*
X012912Y034248D01*
X012809Y034144D01*
X012809Y033446D01*
X012873Y033381D01*
X012744Y033381D01*
X012809Y033446D01*
X012809Y034144D01*
X012705Y034248D01*
X012691Y034248D01*
X012691Y034795D01*
X012652Y034889D01*
X012580Y034961D01*
X012334Y035207D01*
X012239Y035246D01*
X011016Y035246D01*
X010922Y035207D01*
X010684Y034969D01*
X010645Y034875D01*
X010645Y034793D01*
X010586Y034734D01*
X010586Y034233D01*
X010601Y034218D01*
X010527Y034144D01*
X010527Y033446D01*
X010631Y033342D01*
X010966Y033342D01*
X010901Y033278D01*
X010901Y032694D01*
X010773Y032694D01*
X010773Y032368D01*
X010754Y032368D01*
X010754Y032694D01*
X010605Y032694D01*
X010564Y032683D01*
X010528Y032662D01*
X010498Y032633D01*
X010477Y032596D01*
X010467Y032556D01*
X010467Y032368D01*
X010754Y032368D01*
X010754Y032348D01*
X010773Y032348D01*
X010773Y032022D01*
X010826Y032022D01*
X010822Y032018D01*
X010822Y031320D01*
X010900Y031243D01*
X010634Y030977D01*
X010586Y030861D01*
X010586Y030713D01*
X010527Y030654D01*
X010527Y029956D01*
X010631Y029852D01*
X010966Y029852D01*
X010901Y029788D01*
X010901Y029090D01*
X010946Y029045D01*
X010692Y029045D01*
X010588Y028941D01*
X010588Y028927D01*
X009964Y028927D01*
X009964Y028994D01*
X010197Y029227D01*
X010254Y029364D01*
X010254Y029973D01*
X010307Y030102D01*
X010307Y030272D01*
X010254Y030400D01*
X010254Y030816D01*
X010307Y030944D01*
X010307Y031114D01*
X010254Y031242D01*
X010254Y031743D01*
X010232Y031796D01*
X010232Y032018D01*
X010128Y032122D01*
X009430Y032122D01*
X009326Y032018D01*
X009326Y031320D01*
X009430Y031216D01*
X009495Y031216D01*
X009452Y031114D01*
X009452Y030944D01*
X009506Y030816D01*
X009506Y030400D01*
X009452Y030272D01*
X009452Y030102D01*
X009506Y029973D01*
X009506Y029594D01*
X009273Y029361D01*
X009216Y029224D01*
X009216Y026945D01*
X009216Y027022D02*
X008104Y027022D01*
X008117Y027138D02*
X009216Y027138D01*
X009216Y027255D02*
X008131Y027255D01*
X008144Y027371D02*
X009216Y027371D01*
X009216Y027488D02*
X008157Y027488D01*
X008170Y027605D02*
X009216Y027605D01*
X009216Y027721D02*
X008183Y027721D01*
X008197Y027838D02*
X009216Y027838D01*
X009216Y027955D02*
X008210Y027955D01*
X008223Y028071D02*
X009216Y028071D01*
X009216Y028188D02*
X008236Y028188D01*
X008249Y028304D02*
X009216Y028304D01*
X009216Y028421D02*
X008263Y028421D01*
X008276Y028538D02*
X009216Y028538D01*
X009216Y028654D02*
X008299Y028654D01*
X008276Y028543D02*
X008605Y030157D01*
X009075Y031736D01*
X009681Y033268D01*
X010420Y034741D01*
X011286Y036143D01*
X012271Y037464D01*
X013369Y038692D01*
X014571Y039820D01*
X015161Y040305D01*
X021074Y040305D01*
X021074Y040144D01*
X021206Y039481D01*
X021206Y039480D01*
X021465Y038856D01*
X021465Y038856D01*
X021841Y038293D01*
X022319Y037815D01*
X022319Y037815D01*
X022319Y037815D01*
X022881Y037440D01*
X023506Y037181D01*
X023506Y037181D01*
X024169Y037049D01*
X036994Y037049D01*
X036999Y037048D01*
X037008Y037043D01*
X037013Y037034D01*
X037013Y037029D01*
X037013Y009961D01*
X036481Y009624D01*
X035216Y008920D01*
X034564Y008606D01*
X033807Y008279D01*
X032255Y007726D01*
X030660Y007313D01*
X029035Y007041D01*
X027392Y006913D01*
X027369Y006913D01*
X027477Y006976D01*
X027693Y007192D01*
X027846Y007457D01*
X027925Y007752D01*
X027925Y008058D01*
X027846Y008353D01*
X027693Y008618D01*
X027477Y008834D01*
X027323Y008923D01*
X028779Y008923D01*
X028601Y008745D01*
X028601Y008548D01*
X028740Y008409D01*
X028882Y008409D01*
X028601Y008128D01*
X028601Y007931D01*
X028740Y007792D01*
X029430Y007792D01*
X029542Y007905D01*
X029655Y007792D01*
X030098Y007792D01*
X030211Y007905D01*
X030323Y007792D01*
X031014Y007792D01*
X031126Y007905D01*
X031239Y007792D01*
X031682Y007792D01*
X031821Y007931D01*
X031944Y008055D01*
X031944Y008375D01*
X031919Y008400D01*
X031944Y008425D01*
X031944Y008745D01*
X031805Y008884D01*
X031682Y009007D01*
X031239Y009007D01*
X031115Y008884D01*
X030976Y008745D01*
X030976Y008425D01*
X031001Y008400D01*
X030976Y008375D01*
X030976Y008267D01*
X030906Y008267D01*
X030906Y008868D01*
X030767Y009007D01*
X030570Y009007D01*
X030431Y008868D01*
X030334Y008771D01*
X030222Y008884D01*
X030222Y008884D01*
X030098Y009007D01*
X029655Y009007D01*
X029516Y008868D01*
X029481Y008833D01*
X029445Y008868D01*
X029391Y008923D01*
X029489Y008923D01*
X029583Y008962D01*
X029655Y009034D01*
X030434Y009813D01*
X030465Y009800D01*
X030667Y009800D01*
X030853Y009877D01*
X030996Y010019D01*
X031073Y010206D01*
X031073Y010408D01*
X030996Y010594D01*
X030853Y010737D01*
X030667Y010814D01*
X030465Y010814D01*
X030279Y010737D01*
X030136Y010594D01*
X030059Y010408D01*
X030059Y010206D01*
X030072Y010174D01*
X029332Y009435D01*
X023131Y009435D01*
X021919Y010647D01*
X021847Y010719D01*
X021753Y010757D01*
X021645Y010757D01*
X021645Y010890D01*
X021541Y010994D01*
X020686Y010994D01*
X020622Y010929D01*
X020622Y011446D01*
X021955Y011446D01*
X022059Y011550D01*
X022059Y017839D01*
X021955Y017943D01*
X019946Y017943D01*
X019946Y018100D01*
X019912Y018183D01*
X020400Y018183D01*
X020504Y018286D01*
X020504Y018709D01*
X020459Y018754D01*
X020504Y018798D01*
X020504Y019221D01*
X020400Y019324D01*
X020385Y019324D01*
X020385Y019901D01*
X019962Y020324D01*
X019766Y020324D01*
X019219Y020324D01*
X019140Y020403D01*
X018324Y020403D01*
X018245Y020324D01*
X018000Y020324D01*
X017941Y020265D01*
X017860Y020265D01*
X017782Y020344D01*
X017281Y020344D01*
X017202Y020265D01*
X017073Y020265D01*
X016819Y020011D01*
X016681Y019873D01*
X016681Y019564D01*
X016604Y019487D01*
X016538Y019553D01*
X016130Y019553D01*
X016130Y019620D01*
X015993Y020040D01*
X015734Y020397D01*
X015734Y020397D01*
X015734Y020397D01*
X015376Y020656D01*
X014967Y020789D01*
X015028Y020815D01*
X015103Y020858D01*
X015171Y020910D01*
X015232Y020972D01*
X015285Y021040D01*
X015328Y021115D01*
X015361Y021195D01*
X015384Y021278D01*
X015393Y021348D01*
X014795Y021348D01*
X014795Y021466D01*
X015393Y021466D01*
X015384Y021536D01*
X015361Y021619D01*
X015328Y021699D01*
X015285Y021774D01*
X015232Y021843D01*
X015171Y021904D01*
X015103Y021956D01*
X015028Y021999D01*
X014948Y022032D01*
X014865Y022055D01*
X014795Y022064D01*
X014795Y021466D01*
X014677Y021466D01*
X014677Y022064D01*
X014607Y022055D01*
X014523Y022032D01*
X014444Y021999D01*
X014369Y021956D01*
X014300Y021904D01*
X014239Y021843D01*
X014187Y021774D01*
X013277Y021774D01*
X013338Y021658D02*
X014126Y021658D01*
X014110Y021619D02*
X014143Y021699D01*
X014187Y021774D01*
X014287Y021891D02*
X013176Y021891D01*
X013001Y022007D02*
X014463Y022007D01*
X014677Y022007D02*
X014795Y022007D01*
X014795Y021891D02*
X014677Y021891D01*
X014677Y021774D02*
X014795Y021774D01*
X014795Y021658D02*
X014677Y021658D01*
X014677Y021541D02*
X014795Y021541D01*
X014795Y021424D02*
X016374Y021424D01*
X016458Y021219D01*
X016615Y021063D01*
X016820Y020978D01*
X017042Y020978D01*
X017246Y021063D01*
X017403Y021219D01*
X017433Y021293D01*
X017454Y021253D01*
X017504Y021184D01*
X017564Y021124D01*
X017632Y021074D01*
X017708Y021035D01*
X017789Y021009D01*
X017866Y020997D01*
X017866Y021486D01*
X017964Y021486D01*
X017964Y020997D01*
X018041Y021009D01*
X018122Y021035D01*
X018197Y021074D01*
X018266Y021124D01*
X018326Y021184D01*
X018376Y021253D01*
X018415Y021328D01*
X018441Y021409D01*
X018453Y021486D01*
X017964Y021486D01*
X017964Y021584D01*
X018453Y021584D01*
X018441Y021661D01*
X018415Y021742D01*
X018376Y021818D01*
X018326Y021886D01*
X018266Y021946D01*
X018197Y021996D01*
X018122Y022035D01*
X018041Y022061D01*
X017964Y022073D01*
X017964Y021584D01*
X017866Y021584D01*
X017866Y022073D01*
X017789Y022061D01*
X017708Y022035D01*
X017632Y021996D01*
X017564Y021946D01*
X017504Y021886D01*
X017454Y021818D01*
X017433Y021777D01*
X017403Y021851D01*
X017246Y022007D01*
X017655Y022007D01*
X017508Y021891D02*
X017363Y021891D01*
X017246Y022007D02*
X017042Y022092D01*
X016820Y022092D01*
X016615Y022007D01*
X016458Y021851D01*
X016374Y021646D01*
X016374Y021424D01*
X016374Y021541D02*
X015382Y021541D01*
X015345Y021658D02*
X016378Y021658D01*
X016427Y021774D02*
X015285Y021774D01*
X015184Y021891D02*
X016498Y021891D01*
X016615Y022007D02*
X015009Y022007D01*
X014677Y021466D02*
X014677Y021348D01*
X014079Y021348D01*
X014088Y021278D01*
X014110Y021195D01*
X014143Y021115D01*
X014187Y021040D01*
X014239Y020972D01*
X014300Y020910D01*
X014369Y020858D01*
X014444Y020815D01*
X014496Y020793D01*
X014300Y020793D01*
X014115Y020977D01*
X013867Y021080D01*
X013597Y021080D01*
X013348Y020977D01*
X013158Y020787D01*
X013055Y020538D01*
X013055Y020268D01*
X013158Y020020D01*
X013348Y019829D01*
X013597Y019726D01*
X013867Y019726D01*
X014115Y019829D01*
X014300Y020013D01*
X014496Y020013D01*
X014444Y019992D01*
X014369Y019948D01*
X014300Y019896D01*
X014239Y019835D01*
X014187Y019766D01*
X014143Y019691D01*
X014110Y019612D01*
X014088Y019528D01*
X014079Y019458D01*
X014677Y019458D01*
X014677Y019340D01*
X014795Y019340D01*
X014795Y018742D01*
X015350Y018742D01*
X015350Y018626D02*
X009411Y018626D01*
X009360Y018742D02*
X012669Y018742D01*
X012669Y019340D01*
X012787Y019340D01*
X012787Y018742D01*
X012857Y018751D01*
X012940Y018774D01*
X013020Y018807D01*
X013095Y018850D01*
X013163Y018903D01*
X013225Y018964D01*
X013277Y019032D01*
X013320Y019107D01*
X013353Y019187D01*
X013376Y019270D01*
X013385Y019340D01*
X012787Y019340D01*
X012787Y019458D01*
X013385Y019458D01*
X013376Y019528D01*
X013353Y019612D01*
X013320Y019691D01*
X013277Y019766D01*
X013225Y019835D01*
X013163Y019896D01*
X013095Y019948D01*
X013020Y019992D01*
X012940Y020025D01*
X012857Y020047D01*
X012787Y020056D01*
X012787Y019458D01*
X012669Y019458D01*
X012669Y019340D01*
X012071Y019340D01*
X012080Y019270D01*
X012103Y019187D01*
X012136Y019107D01*
X012179Y019032D01*
X012231Y018964D01*
X012293Y018903D01*
X012361Y018850D01*
X012436Y018807D01*
X012516Y018774D01*
X012599Y018751D01*
X012669Y018742D01*
X012787Y018742D01*
X014677Y018742D01*
X014677Y019340D01*
X014079Y019340D01*
X014088Y019270D01*
X014110Y019187D01*
X014143Y019107D01*
X014187Y019032D01*
X014239Y018964D01*
X014300Y018903D01*
X014369Y018850D01*
X014444Y018807D01*
X014523Y018774D01*
X014607Y018751D01*
X014677Y018742D01*
X014795Y018742D01*
X014865Y018751D01*
X014948Y018774D01*
X015028Y018807D01*
X015103Y018850D01*
X015171Y018903D01*
X015232Y018964D01*
X015285Y019032D01*
X015328Y019107D01*
X015350Y019160D01*
X015350Y017943D01*
X014170Y017943D01*
X014067Y017839D01*
X014067Y011880D01*
X014067Y011979D02*
X013953Y011979D01*
X014067Y012095D02*
X013829Y012095D01*
X013716Y012212D02*
X014067Y012212D01*
X014067Y012329D02*
X013604Y012329D01*
X013491Y012445D02*
X014067Y012445D01*
X014067Y012562D02*
X013379Y012562D01*
X013266Y012679D02*
X014067Y012679D01*
X014067Y012795D02*
X013154Y012795D01*
X013041Y012912D02*
X014067Y012912D01*
X014067Y013028D02*
X012928Y013028D01*
X012816Y013145D02*
X014067Y013145D01*
X014067Y013262D02*
X012709Y013262D01*
X012615Y013378D02*
X014067Y013378D01*
X014067Y013495D02*
X012521Y013495D01*
X012426Y013611D02*
X014067Y013611D01*
X014067Y013728D02*
X012332Y013728D01*
X012238Y013845D02*
X014067Y013845D01*
X014067Y013961D02*
X012144Y013961D01*
X012049Y014078D02*
X014067Y014078D01*
X014067Y014194D02*
X011955Y014194D01*
X011861Y014311D02*
X014067Y014311D01*
X014067Y014428D02*
X011767Y014428D01*
X011677Y014544D02*
X014067Y014544D01*
X014067Y014661D02*
X011599Y014661D01*
X011521Y014778D02*
X014067Y014778D01*
X014067Y014894D02*
X011442Y014894D01*
X011364Y015011D02*
X014067Y015011D01*
X014067Y015127D02*
X011286Y015127D01*
X011207Y015244D02*
X014067Y015244D01*
X014067Y015361D02*
X011129Y015361D01*
X011051Y015477D02*
X014067Y015477D01*
X014067Y015594D02*
X010972Y015594D01*
X010894Y015710D02*
X014067Y015710D01*
X014067Y015827D02*
X010815Y015827D01*
X010746Y015944D02*
X014067Y015944D01*
X014067Y016060D02*
X010681Y016060D01*
X010617Y016177D02*
X014067Y016177D01*
X014067Y016293D02*
X010553Y016293D01*
X010489Y016410D02*
X014067Y016410D01*
X014067Y016527D02*
X010424Y016527D01*
X010360Y016643D02*
X014067Y016643D01*
X014067Y016760D02*
X010296Y016760D01*
X010232Y016877D02*
X014067Y016877D01*
X014067Y016993D02*
X010167Y016993D01*
X010103Y017110D02*
X010996Y017110D01*
X011032Y017074D02*
X011594Y017074D01*
X011687Y017167D01*
X012201Y017167D01*
X012224Y017190D01*
X012247Y017167D01*
X012716Y017167D01*
X012849Y017300D01*
X012942Y017393D01*
X012942Y017447D01*
X013002Y017447D01*
X013002Y017300D01*
X013135Y017167D01*
X013323Y017167D01*
X013456Y017300D01*
X013456Y017487D01*
X013550Y017580D01*
X013550Y017768D01*
X013456Y017862D01*
X013456Y018049D01*
X013323Y018182D01*
X013135Y018182D01*
X013129Y018176D01*
X013002Y018049D01*
X013002Y018049D01*
X012925Y017972D01*
X012809Y018088D01*
X012716Y018182D01*
X012247Y018182D01*
X012178Y018112D01*
X012108Y018182D01*
X011733Y018182D01*
X011506Y017955D01*
X011506Y017767D01*
X011639Y017634D01*
X011652Y017634D01*
X011546Y017528D01*
X011119Y017528D01*
X011119Y017955D01*
X010986Y018088D01*
X010986Y018088D01*
X010892Y018182D01*
X010517Y018182D01*
X010291Y017955D01*
X010291Y017767D01*
X010384Y017674D01*
X010291Y017582D01*
X010291Y017393D01*
X010517Y017167D01*
X010892Y017167D01*
X010915Y017190D01*
X011032Y017074D01*
X011119Y017576D02*
X011594Y017576D01*
X011581Y017693D02*
X011119Y017693D01*
X011119Y017809D02*
X011506Y017809D01*
X011506Y017926D02*
X011119Y017926D01*
X011032Y018043D02*
X011594Y018043D01*
X011710Y018159D02*
X010915Y018159D01*
X010495Y018159D02*
X009617Y018159D01*
X009669Y018043D02*
X010378Y018043D01*
X010291Y017926D02*
X009720Y017926D01*
X009772Y017809D02*
X010291Y017809D01*
X010365Y017693D02*
X009823Y017693D01*
X009874Y017576D02*
X010291Y017576D01*
X010291Y017460D02*
X009926Y017460D01*
X009977Y017343D02*
X010341Y017343D01*
X010458Y017226D02*
X010039Y017226D01*
X009566Y018276D02*
X015350Y018276D01*
X015350Y018392D02*
X009514Y018392D01*
X009463Y018509D02*
X015350Y018509D01*
X015350Y018159D02*
X013346Y018159D01*
X013456Y018043D02*
X015350Y018043D01*
X016130Y018043D02*
X016370Y018043D01*
X016370Y017943D02*
X016130Y017943D01*
X016130Y018844D01*
X016538Y018844D01*
X016641Y018948D01*
X016641Y018962D01*
X016747Y018962D01*
X017015Y019230D01*
X017153Y019368D01*
X017153Y019677D01*
X017224Y019748D01*
X017206Y019717D01*
X017195Y019676D01*
X017195Y019527D01*
X017521Y019527D01*
X017521Y019507D01*
X017541Y019507D01*
X017541Y019220D01*
X017729Y019220D01*
X017734Y019222D01*
X017753Y019202D01*
X017733Y019183D01*
X017644Y019183D01*
X017431Y018970D01*
X017097Y018970D01*
X016508Y018381D01*
X016370Y018243D01*
X016370Y017943D01*
X016370Y018159D02*
X016130Y018159D01*
X016130Y018276D02*
X016402Y018276D01*
X016460Y018334D02*
X016324Y018470D01*
X016460Y018334D02*
X017096Y018970D01*
X017265Y018970D01*
X017531Y019236D01*
X017429Y019133D01*
X017521Y019220D02*
X017521Y019507D01*
X017195Y019507D01*
X017195Y019359D01*
X017206Y019318D01*
X017227Y019282D01*
X017256Y019252D01*
X017293Y019231D01*
X017333Y019220D01*
X017521Y019220D01*
X017531Y019236D02*
X017531Y019517D01*
X017521Y019442D02*
X017541Y019442D01*
X017541Y019325D02*
X017521Y019325D01*
X017553Y019092D02*
X016877Y019092D01*
X016760Y018976D02*
X017437Y018976D01*
X017529Y018734D02*
X017742Y018946D01*
X018063Y018946D01*
X018063Y018665D01*
X018230Y018498D01*
X020149Y018498D01*
X020504Y018509D02*
X022699Y018509D01*
X022582Y018626D02*
X020504Y018626D01*
X020470Y018742D02*
X022466Y018742D01*
X022349Y018859D02*
X020504Y018859D01*
X020504Y018976D02*
X022233Y018976D01*
X022116Y019092D02*
X020504Y019092D01*
X020504Y019209D02*
X021999Y019209D01*
X021883Y019325D02*
X020385Y019325D01*
X020385Y019442D02*
X021766Y019442D01*
X021650Y019559D02*
X020385Y019559D01*
X020385Y019675D02*
X021533Y019675D01*
X021416Y019792D02*
X020385Y019792D01*
X020378Y019908D02*
X021300Y019908D01*
X021183Y020025D02*
X020261Y020025D01*
X020144Y020142D02*
X021067Y020142D01*
X020950Y020258D02*
X020028Y020258D01*
X019864Y020088D02*
X018988Y020088D01*
X018732Y020088D02*
X018732Y019891D01*
X018614Y019773D01*
X018545Y019773D01*
X018476Y019704D01*
X018476Y019458D01*
X018063Y019458D01*
X017747Y019209D02*
X016994Y019209D01*
X017110Y019325D02*
X017204Y019325D01*
X017195Y019442D02*
X017153Y019442D01*
X017153Y019559D02*
X017195Y019559D01*
X017195Y019675D02*
X017153Y019675D01*
X016917Y019775D02*
X016917Y019466D01*
X016649Y019198D01*
X016326Y019198D01*
X016552Y018859D02*
X016985Y018859D01*
X016869Y018742D02*
X016130Y018742D01*
X016130Y018626D02*
X016752Y018626D01*
X016636Y018509D02*
X016130Y018509D01*
X016130Y018392D02*
X016519Y018392D01*
X016508Y018381D02*
X016508Y018381D01*
X016460Y018334D02*
X016173Y018047D01*
X016606Y018145D02*
X016606Y017096D01*
X017039Y017096D02*
X017039Y018244D01*
X017293Y018498D01*
X017651Y018498D01*
X018078Y018070D01*
X018468Y018070D01*
X018069Y017785D02*
X018220Y017633D01*
X018220Y017096D01*
X018069Y017785D02*
X017757Y017785D01*
X017472Y018070D01*
X017275Y018043D02*
X017772Y018043D01*
X017842Y017973D02*
X017553Y018261D01*
X017391Y018261D01*
X017275Y018146D01*
X017275Y017943D01*
X017872Y017943D01*
X017842Y017973D01*
X017656Y018159D02*
X017289Y018159D01*
X017194Y018734D02*
X016606Y018145D01*
X017194Y018734D02*
X017529Y018734D01*
X018416Y018734D02*
X018417Y018735D01*
X018417Y019143D01*
X018628Y019143D01*
X019115Y019143D01*
X019104Y019105D01*
X019104Y018956D01*
X019431Y018956D01*
X019431Y018937D01*
X019104Y018937D01*
X019104Y018788D01*
X019115Y018747D01*
X019123Y018734D01*
X018416Y018734D01*
X018417Y018742D02*
X019118Y018742D01*
X019104Y018859D02*
X018417Y018859D01*
X018417Y018976D02*
X019104Y018976D01*
X019104Y019092D02*
X018417Y019092D01*
X018732Y019458D02*
X018988Y019458D01*
X019441Y019458D01*
X019795Y019442D02*
X019913Y019442D01*
X019913Y019559D02*
X019795Y019559D01*
X019795Y019669D02*
X019691Y019773D01*
X019190Y019773D01*
X019165Y019748D01*
X019140Y019773D01*
X018948Y019773D01*
X019140Y019773D01*
X019219Y019852D01*
X019766Y019852D01*
X019913Y019705D01*
X019913Y019324D01*
X019899Y019324D01*
X019795Y019221D01*
X019795Y018798D01*
X019840Y018754D01*
X019820Y018734D01*
X019758Y018734D01*
X019766Y018747D01*
X019777Y018788D01*
X019777Y018937D01*
X019450Y018937D01*
X019450Y018956D01*
X019777Y018956D01*
X019777Y019105D01*
X019766Y019146D01*
X019745Y019182D01*
X019737Y019190D01*
X019795Y019247D01*
X019795Y019669D01*
X019789Y019675D02*
X019913Y019675D01*
X019826Y019792D02*
X019158Y019792D01*
X018948Y019773D02*
X018948Y019773D01*
X018476Y020088D02*
X018098Y020088D01*
X018039Y020029D01*
X017531Y020029D01*
X017171Y020029D01*
X016917Y019775D01*
X016681Y019792D02*
X016074Y019792D01*
X016036Y019908D02*
X016716Y019908D01*
X016833Y020025D02*
X015998Y020025D01*
X015993Y020040D02*
X015993Y020040D01*
X015919Y020142D02*
X016949Y020142D01*
X017066Y020258D02*
X015834Y020258D01*
X015750Y020375D02*
X018296Y020375D01*
X018198Y021075D02*
X020134Y021075D01*
X020017Y021191D02*
X018331Y021191D01*
X018404Y021308D02*
X019900Y021308D01*
X019784Y021424D02*
X018443Y021424D01*
X018441Y021658D02*
X019551Y021658D01*
X019434Y021774D02*
X018398Y021774D01*
X018322Y021891D02*
X019317Y021891D01*
X019201Y022007D02*
X018175Y022007D01*
X017964Y022007D02*
X017866Y022007D01*
X017866Y021891D02*
X017964Y021891D01*
X017964Y021774D02*
X017866Y021774D01*
X017866Y021658D02*
X017964Y021658D01*
X017964Y021541D02*
X019667Y021541D01*
X020041Y021891D02*
X023016Y021891D01*
X022893Y022007D02*
X019925Y022007D01*
X019808Y022124D02*
X022782Y022124D01*
X022813Y022082D02*
X022282Y022785D01*
X022091Y023151D01*
X022059Y023184D01*
X022059Y023214D01*
X022045Y023241D01*
X022059Y023285D01*
X022059Y027955D01*
X022045Y027999D01*
X022059Y028025D01*
X022059Y028055D01*
X022091Y028088D01*
X022282Y028454D01*
X022813Y029157D01*
X022813Y029157D01*
X022813Y029157D01*
X023453Y029762D01*
X023453Y029762D01*
X024185Y030253D01*
X024185Y030253D01*
X024987Y030616D01*
X024987Y030616D01*
X025839Y030841D01*
X025839Y030841D01*
X026716Y030922D01*
X026716Y030922D01*
X027594Y030856D01*
X027594Y030856D01*
X028449Y030647D01*
X028449Y030647D01*
X029258Y030298D01*
X029258Y030298D01*
X029998Y029821D01*
X029998Y029821D01*
X030649Y029227D01*
X030649Y029227D01*
X031193Y028534D01*
X031193Y028534D01*
X031614Y027761D01*
X031614Y027761D01*
X031902Y026929D01*
X031902Y026929D01*
X032047Y026060D01*
X032047Y025179D01*
X031902Y024311D01*
X031902Y024311D01*
X031614Y023478D01*
X031614Y023478D01*
X031193Y022705D01*
X031193Y022705D01*
X030649Y022012D01*
X030649Y022012D01*
X030649Y022012D01*
X029998Y021419D01*
X029998Y021419D01*
X029258Y020941D01*
X029258Y020941D01*
X028449Y020593D01*
X028449Y020593D01*
X027594Y020383D01*
X027594Y020383D01*
X026716Y020318D01*
X026716Y020318D01*
X025839Y020399D01*
X025839Y020399D01*
X024987Y020624D01*
X024987Y020624D01*
X024185Y020987D01*
X024185Y020987D01*
X023453Y021477D01*
X023453Y021477D01*
X023453Y021477D01*
X022813Y022082D01*
X022694Y022241D02*
X019691Y022241D01*
X019575Y022357D02*
X022606Y022357D01*
X022518Y022474D02*
X019458Y022474D01*
X019342Y022590D02*
X022430Y022590D01*
X022341Y022707D02*
X019225Y022707D01*
X019108Y022824D02*
X022262Y022824D01*
X022201Y022940D02*
X018992Y022940D01*
X018875Y023057D02*
X022141Y023057D01*
X022069Y023173D02*
X018758Y023173D01*
X018742Y023290D02*
X022059Y023290D01*
X022059Y023407D02*
X018742Y023407D01*
X018742Y023523D02*
X022059Y023523D01*
X022059Y023640D02*
X018742Y023640D01*
X018742Y023757D02*
X022059Y023757D01*
X022059Y023873D02*
X018742Y023873D01*
X018742Y023990D02*
X022059Y023990D01*
X022059Y024106D02*
X018742Y024106D01*
X018742Y024223D02*
X022059Y024223D01*
X022059Y024340D02*
X018742Y024340D01*
X018850Y024456D02*
X022059Y024456D01*
X022059Y024573D02*
X018899Y024573D01*
X018913Y024689D02*
X022059Y024689D01*
X022059Y024806D02*
X018901Y024806D01*
X018853Y024923D02*
X022059Y024923D01*
X022059Y025039D02*
X018743Y025039D01*
X018228Y025039D02*
X008064Y025039D01*
X008071Y024923D02*
X014646Y024923D01*
X014574Y024893D02*
X014449Y024768D01*
X014381Y024605D01*
X014381Y024429D01*
X014449Y024266D01*
X014574Y024142D01*
X014736Y024074D01*
X014913Y024074D01*
X015075Y024142D01*
X015200Y024266D01*
X015267Y024429D01*
X015267Y024605D01*
X015200Y024768D01*
X015075Y024893D01*
X014913Y024960D01*
X014736Y024960D01*
X014574Y024893D01*
X014487Y024806D02*
X008079Y024806D01*
X008086Y024689D02*
X014416Y024689D01*
X014381Y024573D02*
X008094Y024573D01*
X008101Y024456D02*
X014381Y024456D01*
X014419Y024340D02*
X008108Y024340D01*
X008116Y024223D02*
X014492Y024223D01*
X014659Y024106D02*
X011742Y024106D01*
X011803Y024081D02*
X011892Y023991D01*
X011907Y024006D01*
X012329Y024006D01*
X012374Y023961D01*
X012418Y024006D01*
X012841Y024006D01*
X012908Y023938D01*
X012984Y024013D01*
X013141Y024078D01*
X013311Y024078D01*
X013468Y024013D01*
X013588Y023893D01*
X013653Y023736D01*
X013653Y023566D01*
X013588Y023409D01*
X013468Y023289D01*
X013311Y023224D01*
X013141Y023224D01*
X012984Y023289D01*
X012908Y023365D01*
X012841Y023297D01*
X012418Y023297D01*
X012374Y023342D01*
X012329Y023297D01*
X011907Y023297D01*
X011892Y023311D01*
X011803Y023221D01*
X011616Y023144D01*
X011414Y023144D01*
X011228Y023221D01*
X011085Y023364D01*
X011008Y023550D01*
X011008Y023752D01*
X011085Y023938D01*
X011228Y024081D01*
X011414Y024158D01*
X011616Y024158D01*
X011803Y024081D01*
X011289Y024106D02*
X010697Y024106D01*
X010703Y024104D02*
X010630Y024128D01*
X010554Y024140D01*
X010525Y024140D01*
X010525Y023661D01*
X010506Y023661D01*
X010506Y024140D01*
X010477Y024140D01*
X010401Y024128D01*
X010328Y024104D01*
X010259Y024069D01*
X010197Y024024D01*
X010142Y023970D01*
X010097Y023908D01*
X010062Y023839D01*
X010038Y023766D01*
X010026Y023690D01*
X010026Y023661D01*
X010506Y023661D01*
X010506Y023641D01*
X010525Y023641D01*
X010525Y023162D01*
X010554Y023162D01*
X010630Y023174D01*
X010703Y023198D01*
X010772Y023233D01*
X010834Y023278D01*
X010888Y023333D01*
X010934Y023395D01*
X010969Y023463D01*
X010992Y023537D01*
X011004Y023613D01*
X011004Y023641D01*
X010525Y023641D01*
X010525Y023661D01*
X011004Y023661D01*
X011004Y023690D01*
X010992Y023766D01*
X010969Y023839D01*
X010934Y023908D01*
X010888Y023970D01*
X010834Y024024D01*
X010772Y024069D01*
X010703Y024104D01*
X010525Y024106D02*
X010506Y024106D01*
X010506Y023990D02*
X010525Y023990D01*
X010525Y023873D02*
X010506Y023873D01*
X010506Y023757D02*
X010525Y023757D01*
X010525Y023640D02*
X010506Y023640D01*
X010506Y023641D02*
X010506Y023162D01*
X010477Y023162D01*
X010401Y023174D01*
X010328Y023198D01*
X010259Y023233D01*
X010197Y023278D01*
X010142Y023333D01*
X010097Y023395D01*
X010062Y023463D01*
X010038Y023537D01*
X010026Y023613D01*
X010026Y023641D01*
X010506Y023641D01*
X010506Y023523D02*
X010525Y023523D01*
X010525Y023407D02*
X010506Y023407D01*
X010506Y023290D02*
X010525Y023290D01*
X010525Y023173D02*
X010506Y023173D01*
X010405Y023173D02*
X008222Y023173D01*
X008239Y023057D02*
X018230Y023057D01*
X018230Y023173D02*
X011687Y023173D01*
X011872Y023290D02*
X012983Y023290D01*
X013226Y023651D02*
X012630Y023651D01*
X012856Y023990D02*
X012960Y023990D01*
X013491Y023990D02*
X018230Y023990D01*
X018230Y024106D02*
X014990Y024106D01*
X015156Y024223D02*
X018230Y024223D01*
X018230Y024340D02*
X015230Y024340D01*
X015267Y024456D02*
X018121Y024456D01*
X018073Y024573D02*
X015267Y024573D01*
X015233Y024689D02*
X018059Y024689D01*
X018070Y024806D02*
X015162Y024806D01*
X015003Y024923D02*
X018119Y024923D01*
X018230Y023873D02*
X013596Y023873D01*
X013645Y023757D02*
X018230Y023757D01*
X018230Y023640D02*
X013653Y023640D01*
X013635Y023523D02*
X018230Y023523D01*
X018230Y023407D02*
X013586Y023407D01*
X013469Y023290D02*
X018230Y023290D01*
X018268Y022940D02*
X008257Y022940D01*
X008275Y022824D02*
X018385Y022824D01*
X018501Y022707D02*
X008293Y022707D01*
X008311Y022590D02*
X018618Y022590D01*
X018734Y022474D02*
X008328Y022474D01*
X008346Y022357D02*
X008968Y022357D01*
X008766Y022241D02*
X008364Y022241D01*
X008382Y022124D02*
X008633Y022124D01*
X008516Y022007D02*
X008400Y022007D01*
X008426Y021891D02*
X008447Y021891D01*
X008204Y023290D02*
X010185Y023290D01*
X010091Y023407D02*
X008186Y023407D01*
X008168Y023523D02*
X010043Y023523D01*
X010026Y023640D02*
X008153Y023640D01*
X008145Y023757D02*
X010037Y023757D01*
X010080Y023873D02*
X008138Y023873D01*
X008131Y023990D02*
X010162Y023990D01*
X010334Y024106D02*
X008123Y024106D01*
X008057Y025156D02*
X015361Y025156D01*
X015373Y025144D02*
X015579Y025059D01*
X015802Y025059D01*
X016008Y025144D01*
X016166Y025302D01*
X016252Y025508D01*
X016252Y025731D01*
X016166Y025937D01*
X016008Y026095D01*
X015802Y026181D01*
X015579Y026181D01*
X015373Y026095D01*
X015215Y025937D01*
X015130Y025731D01*
X015130Y025508D01*
X015215Y025302D01*
X015373Y025144D01*
X015244Y025272D02*
X008051Y025272D01*
X008053Y025389D02*
X015179Y025389D01*
X015131Y025506D02*
X008056Y025506D01*
X008059Y025622D02*
X015130Y025622D01*
X015133Y025739D02*
X014063Y025739D01*
X014187Y025856D02*
X015181Y025856D01*
X015250Y025972D02*
X014245Y025972D01*
X014274Y026089D02*
X015366Y026089D01*
X015075Y026347D02*
X015200Y026471D01*
X015267Y026634D01*
X015267Y026810D01*
X015200Y026973D01*
X015075Y027098D01*
X014913Y027165D01*
X014736Y027165D01*
X014574Y027098D01*
X014449Y026973D01*
X014381Y026810D01*
X014381Y026634D01*
X014449Y026471D01*
X014574Y026347D01*
X014736Y026279D01*
X014913Y026279D01*
X015075Y026347D01*
X015016Y026322D02*
X022059Y026322D01*
X022059Y026439D02*
X015167Y026439D01*
X015235Y026555D02*
X022059Y026555D01*
X022059Y026672D02*
X015267Y026672D01*
X015267Y026788D02*
X022059Y026788D01*
X022059Y026905D02*
X015228Y026905D01*
X015151Y027022D02*
X022059Y027022D01*
X022059Y027138D02*
X014977Y027138D01*
X014672Y027138D02*
X013055Y027138D01*
X013057Y027134D02*
X012992Y027291D01*
X012944Y027338D01*
X012944Y027839D01*
X012841Y027943D01*
X012418Y027943D01*
X012374Y027898D01*
X012329Y027943D01*
X011907Y027943D01*
X011892Y027928D01*
X011803Y028018D01*
X011616Y028095D01*
X011414Y028095D01*
X011228Y028018D01*
X011085Y027875D01*
X011008Y027689D01*
X011008Y027487D01*
X011085Y027301D01*
X011228Y027158D01*
X011414Y027081D01*
X011616Y027081D01*
X011803Y027158D01*
X011892Y027248D01*
X011907Y027234D01*
X012244Y027234D01*
X012202Y027134D01*
X012202Y026964D01*
X012267Y026807D01*
X012388Y026687D01*
X012545Y026622D01*
X012714Y026622D01*
X012871Y026687D01*
X012992Y026807D01*
X013057Y026964D01*
X013057Y027134D01*
X013057Y027022D02*
X014498Y027022D01*
X014421Y026905D02*
X013032Y026905D01*
X012973Y026788D02*
X014381Y026788D01*
X014381Y026672D02*
X012836Y026672D01*
X013082Y026555D02*
X010583Y026555D01*
X010467Y026672D02*
X012423Y026672D01*
X012286Y026788D02*
X010350Y026788D01*
X010233Y026905D02*
X012227Y026905D01*
X012202Y027022D02*
X010117Y027022D01*
X010000Y027138D02*
X010321Y027138D01*
X010328Y027135D02*
X010401Y027111D01*
X010477Y027099D01*
X010506Y027099D01*
X010506Y027578D01*
X010525Y027578D01*
X010525Y027099D01*
X010554Y027099D01*
X010630Y027111D01*
X010703Y027135D01*
X010772Y027170D01*
X010834Y027215D01*
X010888Y027270D01*
X010934Y027332D01*
X010969Y027400D01*
X010992Y027474D01*
X011004Y027550D01*
X011004Y027578D01*
X010525Y027578D01*
X010525Y027598D01*
X010506Y027598D01*
X010506Y028077D01*
X010477Y028077D01*
X010401Y028065D01*
X010328Y028041D01*
X010259Y028006D01*
X010197Y027961D01*
X010142Y027907D01*
X010097Y027845D01*
X010062Y027776D01*
X010038Y027703D01*
X010026Y027627D01*
X010026Y027598D01*
X010506Y027598D01*
X010506Y027578D01*
X010026Y027578D01*
X010026Y027550D01*
X010038Y027474D01*
X010062Y027400D01*
X010097Y027332D01*
X010142Y027270D01*
X010197Y027215D01*
X010259Y027170D01*
X010328Y027135D01*
X010506Y027138D02*
X010525Y027138D01*
X010525Y027255D02*
X010506Y027255D01*
X010506Y027371D02*
X010525Y027371D01*
X010525Y027488D02*
X010506Y027488D01*
X010525Y027598D02*
X011004Y027598D01*
X011004Y027627D01*
X010992Y027703D01*
X010969Y027776D01*
X010934Y027845D01*
X010888Y027907D01*
X010834Y027961D01*
X010772Y028006D01*
X010703Y028041D01*
X010630Y028065D01*
X010554Y028077D01*
X010525Y028077D01*
X010525Y027598D01*
X010525Y027605D02*
X010506Y027605D01*
X010506Y027721D02*
X010525Y027721D01*
X010525Y027838D02*
X010506Y027838D01*
X010506Y027955D02*
X010525Y027955D01*
X010525Y028071D02*
X010506Y028071D01*
X010438Y028071D02*
X009964Y028071D01*
X009964Y027955D02*
X010190Y027955D01*
X010094Y027838D02*
X009964Y027838D01*
X009964Y027721D02*
X010044Y027721D01*
X010026Y027605D02*
X009964Y027605D01*
X009964Y027488D02*
X010036Y027488D01*
X010077Y027371D02*
X009964Y027371D01*
X009964Y027255D02*
X010157Y027255D01*
X010710Y027138D02*
X011276Y027138D01*
X011131Y027255D02*
X010874Y027255D01*
X010954Y027371D02*
X011056Y027371D01*
X011008Y027488D02*
X010995Y027488D01*
X011004Y027605D02*
X011008Y027605D01*
X011022Y027721D02*
X010986Y027721D01*
X010937Y027838D02*
X011070Y027838D01*
X011164Y027955D02*
X010841Y027955D01*
X010592Y028071D02*
X011356Y028071D01*
X011425Y028354D02*
X011574Y028354D01*
X011614Y028365D01*
X011650Y028386D01*
X011680Y028416D01*
X011701Y028452D01*
X011712Y028492D01*
X011712Y028681D01*
X011425Y028681D01*
X011425Y028354D01*
X011425Y028421D02*
X011405Y028421D01*
X011405Y028538D02*
X011425Y028538D01*
X011425Y028654D02*
X011405Y028654D01*
X011712Y028654D02*
X013830Y028654D01*
X013946Y028538D02*
X011712Y028538D01*
X011683Y028421D02*
X014063Y028421D01*
X014180Y028304D02*
X009964Y028304D01*
X009964Y028188D02*
X014296Y028188D01*
X014413Y028071D02*
X011675Y028071D01*
X011866Y027955D02*
X014530Y027955D01*
X014646Y027838D02*
X012944Y027838D01*
X012944Y027721D02*
X014763Y027721D01*
X014909Y027605D02*
X012944Y027605D01*
X012944Y027488D02*
X019924Y027488D01*
X020257Y027943D02*
X020257Y029972D01*
X021775Y031490D01*
X022923Y031490D01*
X023326Y031490D01*
X023326Y031687D01*
X023797Y031687D01*
X023797Y031883D02*
X023293Y031883D01*
X023259Y032036D02*
X023364Y032036D01*
X023382Y032153D02*
X023259Y032153D01*
X023193Y032269D02*
X025678Y032269D01*
X025647Y032386D02*
X014221Y032386D01*
X014338Y032502D02*
X025616Y032502D01*
X025602Y032619D02*
X014454Y032619D01*
X014104Y032269D02*
X015757Y032269D01*
X015737Y032264D02*
X015701Y032243D01*
X015672Y032213D01*
X015651Y032177D01*
X015640Y032137D01*
X015640Y031948D01*
X015927Y031948D01*
X015927Y032275D01*
X015778Y032275D01*
X015737Y032264D01*
X015644Y032153D02*
X013988Y032153D01*
X013650Y032036D02*
X015640Y032036D01*
X015640Y031929D02*
X015640Y031740D01*
X015651Y031700D01*
X015672Y031664D01*
X015701Y031634D01*
X015737Y031613D01*
X015778Y031602D01*
X015927Y031602D01*
X015927Y031929D01*
X015640Y031929D01*
X015640Y031919D02*
X013672Y031919D01*
X013672Y031803D02*
X015640Y031803D01*
X015659Y031686D02*
X013277Y031686D01*
X013159Y031686D02*
X011728Y031686D01*
X011728Y031569D02*
X012764Y031569D01*
X012764Y031639D02*
X012764Y031422D01*
X012769Y031403D01*
X012640Y031456D01*
X012470Y031456D01*
X012313Y031391D01*
X012305Y031383D01*
X012297Y031391D01*
X012140Y031456D01*
X011970Y031456D01*
X011813Y031391D01*
X011693Y031271D01*
X011690Y031265D01*
X011673Y031265D01*
X011728Y031320D01*
X011728Y032018D01*
X011703Y032043D01*
X012790Y032043D01*
X012775Y032016D01*
X012764Y031975D01*
X012764Y031757D01*
X013159Y031757D01*
X013159Y031639D01*
X012764Y031639D01*
X012764Y031803D02*
X011728Y031803D01*
X011728Y031919D02*
X012764Y031919D01*
X012786Y032036D02*
X011710Y032036D01*
X011275Y032358D02*
X011275Y032929D01*
X010901Y032969D02*
X009562Y032969D01*
X009609Y033085D02*
X010901Y033085D01*
X010901Y033202D02*
X009655Y033202D01*
X009706Y033319D02*
X010942Y033319D01*
X011211Y033381D02*
X011275Y033446D01*
X011275Y034144D01*
X011271Y034148D01*
X011313Y034148D01*
X011304Y034132D01*
X011293Y034091D01*
X011293Y033834D01*
X011610Y033834D01*
X011610Y033756D01*
X011293Y033756D01*
X011293Y033498D01*
X011304Y033458D01*
X011325Y033422D01*
X011355Y033392D01*
X011373Y033381D01*
X011211Y033381D01*
X011265Y033435D02*
X011317Y033435D01*
X011293Y033552D02*
X011275Y033552D01*
X011275Y033668D02*
X011293Y033668D01*
X011275Y033785D02*
X011610Y033785D01*
X011610Y033756D02*
X011689Y033756D01*
X011689Y033834D01*
X012005Y033834D01*
X012005Y034091D01*
X011994Y034132D01*
X011973Y034168D01*
X011944Y034198D01*
X011907Y034219D01*
X011867Y034230D01*
X011690Y034230D01*
X011699Y034245D01*
X011710Y034286D01*
X011710Y034474D01*
X011423Y034474D01*
X011423Y034494D01*
X011710Y034494D01*
X011710Y034682D01*
X011699Y034722D01*
X011692Y034734D01*
X012083Y034734D01*
X012179Y034638D01*
X012179Y034248D01*
X012164Y034248D01*
X012061Y034144D01*
X012061Y033446D01*
X012164Y033342D01*
X012499Y033342D01*
X012435Y033278D01*
X012435Y032673D01*
X011649Y032673D01*
X011649Y033278D01*
X011567Y033360D01*
X011610Y033360D01*
X011610Y033756D01*
X011689Y033756D02*
X011689Y033360D01*
X011867Y033360D01*
X011907Y033371D01*
X011944Y033392D01*
X011973Y033422D01*
X011994Y033458D01*
X012005Y033498D01*
X012005Y033756D01*
X011689Y033756D01*
X011689Y033785D02*
X012061Y033785D01*
X012061Y033668D02*
X012005Y033668D01*
X012005Y033552D02*
X012061Y033552D01*
X012071Y033435D02*
X011981Y033435D01*
X011689Y033435D02*
X011610Y033435D01*
X011608Y033319D02*
X012476Y033319D01*
X012435Y033202D02*
X011649Y033202D01*
X011649Y033085D02*
X012435Y033085D01*
X012435Y032969D02*
X011649Y032969D01*
X011649Y032852D02*
X012435Y032852D01*
X012435Y032736D02*
X011649Y032736D01*
X011610Y033552D02*
X011689Y033552D01*
X011689Y033668D02*
X011610Y033668D01*
X011293Y033902D02*
X011275Y033902D01*
X011275Y034018D02*
X011293Y034018D01*
X011306Y034135D02*
X011275Y034135D01*
X011423Y034485D02*
X012179Y034485D01*
X012179Y034601D02*
X011710Y034601D01*
X011700Y034718D02*
X012099Y034718D01*
X012179Y034368D02*
X011710Y034368D01*
X011701Y034251D02*
X012179Y034251D01*
X012061Y034135D02*
X011993Y034135D01*
X012005Y034018D02*
X012061Y034018D01*
X012061Y033902D02*
X012005Y033902D01*
X012691Y034251D02*
X012927Y034251D01*
X012927Y034368D02*
X012691Y034368D01*
X012691Y034485D02*
X012927Y034485D01*
X012927Y034601D02*
X012691Y034601D01*
X012691Y034718D02*
X012927Y034718D01*
X012903Y034835D02*
X012674Y034835D01*
X012589Y034951D02*
X012787Y034951D01*
X012697Y035068D02*
X012472Y035068D01*
X012580Y034961D02*
X012580Y034961D01*
X012677Y035184D02*
X012356Y035184D01*
X012677Y035301D02*
X010766Y035301D01*
X010838Y035418D02*
X012677Y035418D01*
X012677Y035534D02*
X010910Y035534D01*
X010982Y035651D02*
X012677Y035651D01*
X012677Y035767D02*
X011054Y035767D01*
X011126Y035884D02*
X012677Y035884D01*
X012677Y036001D02*
X011198Y036001D01*
X011270Y036117D02*
X012677Y036117D01*
X012677Y036234D02*
X011353Y036234D01*
X011440Y036350D02*
X012677Y036350D01*
X012677Y036467D02*
X011527Y036467D01*
X011614Y036584D02*
X012677Y036584D01*
X012677Y036700D02*
X011701Y036700D01*
X011788Y036817D02*
X012677Y036817D01*
X012677Y036934D02*
X011875Y036934D01*
X011963Y037050D02*
X012677Y037050D01*
X012677Y037167D02*
X012050Y037167D01*
X012137Y037283D02*
X012677Y037283D01*
X012677Y037400D02*
X012224Y037400D01*
X012318Y037517D02*
X012677Y037517D01*
X012718Y037633D02*
X012423Y037633D01*
X012527Y037750D02*
X012835Y037750D01*
X012951Y037866D02*
X012631Y037866D01*
X012735Y037983D02*
X013068Y037983D01*
X013185Y038100D02*
X012839Y038100D01*
X012944Y038216D02*
X013301Y038216D01*
X013418Y038333D02*
X013048Y038333D01*
X013152Y038449D02*
X013534Y038449D01*
X013651Y038566D02*
X013256Y038566D01*
X013360Y038683D02*
X013768Y038683D01*
X013884Y038799D02*
X013483Y038799D01*
X013607Y038916D02*
X014001Y038916D01*
X014117Y039033D02*
X013732Y039033D01*
X013856Y039149D02*
X014234Y039149D01*
X014351Y039266D02*
X013980Y039266D01*
X014104Y039382D02*
X014467Y039382D01*
X014584Y039499D02*
X014229Y039499D01*
X014353Y039616D02*
X014701Y039616D01*
X014817Y039732D02*
X014477Y039732D01*
X014571Y039820D02*
X014571Y039820D01*
X014606Y039849D02*
X014934Y039849D01*
X015063Y039965D02*
X014748Y039965D01*
X014890Y040082D02*
X021087Y040082D01*
X021074Y040199D02*
X015032Y040199D01*
X015191Y039382D02*
X019651Y039382D01*
X019767Y039266D02*
X017688Y039266D01*
X017780Y039149D02*
X019884Y039149D01*
X020000Y039033D02*
X017828Y039033D01*
X017828Y038916D02*
X020117Y038916D01*
X020234Y038799D02*
X017802Y038799D01*
X017933Y038683D02*
X018096Y038683D01*
X018091Y038678D02*
X018070Y038642D01*
X018059Y038601D01*
X018059Y038147D01*
X018543Y038147D01*
X018543Y038029D01*
X018661Y038029D01*
X018661Y037437D01*
X019007Y037437D01*
X019047Y037448D01*
X019083Y037469D01*
X019113Y037498D01*
X019134Y037535D01*
X019145Y037575D01*
X019145Y038029D01*
X018661Y038029D01*
X018661Y038147D01*
X019145Y038147D01*
X019145Y038601D01*
X019134Y038642D01*
X019113Y038678D01*
X019083Y038708D01*
X019047Y038729D01*
X019007Y038739D01*
X018661Y038739D01*
X018661Y038147D01*
X018543Y038147D01*
X018543Y038739D01*
X018197Y038739D01*
X018157Y038729D01*
X018120Y038708D01*
X018091Y038678D01*
X018059Y038566D02*
X017962Y038566D01*
X017962Y038449D02*
X018059Y038449D01*
X018059Y038333D02*
X017962Y038333D01*
X017962Y038216D02*
X018059Y038216D01*
X017962Y038100D02*
X018543Y038100D01*
X018543Y038029D02*
X018059Y038029D01*
X018059Y037575D01*
X018070Y037535D01*
X018091Y037498D01*
X018120Y037469D01*
X018157Y037448D01*
X018197Y037437D01*
X018543Y037437D01*
X018543Y038029D01*
X018543Y037983D02*
X018661Y037983D01*
X018661Y037866D02*
X018543Y037866D01*
X018543Y037750D02*
X018661Y037750D01*
X018661Y037633D02*
X018543Y037633D01*
X018543Y037517D02*
X018661Y037517D01*
X019124Y037517D02*
X019270Y037517D01*
X019226Y037400D02*
X017962Y037400D01*
X017962Y037517D02*
X018080Y037517D01*
X018059Y037633D02*
X017962Y037633D01*
X017962Y037750D02*
X018059Y037750D01*
X018059Y037866D02*
X017962Y037866D01*
X017962Y037983D02*
X018059Y037983D01*
X018543Y038216D02*
X018661Y038216D01*
X018661Y038100D02*
X020933Y038100D01*
X020817Y038216D02*
X019145Y038216D01*
X019145Y038333D02*
X020700Y038333D01*
X020584Y038449D02*
X019145Y038449D01*
X019145Y038566D02*
X020467Y038566D01*
X020350Y038683D02*
X019108Y038683D01*
X018661Y038683D02*
X018543Y038683D01*
X018543Y038566D02*
X018661Y038566D01*
X018661Y038449D02*
X018543Y038449D01*
X018543Y038333D02*
X018661Y038333D01*
X019145Y037983D02*
X021050Y037983D01*
X021167Y037866D02*
X019145Y037866D01*
X019145Y037750D02*
X019559Y037750D01*
X019747Y037750D02*
X021181Y037750D01*
X021181Y037633D02*
X020930Y037633D01*
X020986Y037517D02*
X021181Y037517D01*
X021181Y037400D02*
X020986Y037400D01*
X020986Y037283D02*
X021181Y037283D01*
X021141Y037167D02*
X020986Y037167D01*
X021027Y037050D02*
X021054Y037050D01*
X021040Y036700D02*
X021027Y036700D01*
X020995Y036584D02*
X021107Y036584D01*
X021009Y036467D02*
X021264Y036467D01*
X021009Y036370D02*
X020683Y036370D01*
X020683Y036083D01*
X020871Y036083D01*
X020911Y036094D01*
X020948Y036114D01*
X020977Y036144D01*
X020998Y036180D01*
X021009Y036221D01*
X021009Y036370D01*
X021009Y036350D02*
X037013Y036350D01*
X037013Y036234D02*
X021009Y036234D01*
X020950Y036117D02*
X037013Y036117D01*
X037013Y036001D02*
X020540Y036001D01*
X020632Y035884D02*
X037013Y035884D01*
X037013Y035767D02*
X035720Y035767D01*
X035788Y035749D02*
X035493Y035828D01*
X035187Y035828D01*
X034892Y035749D01*
X034627Y035596D01*
X034411Y035380D01*
X034258Y035115D01*
X034179Y034820D01*
X034179Y034514D01*
X034258Y034219D01*
X034411Y033954D01*
X034627Y033738D01*
X034892Y033585D01*
X035187Y033506D01*
X035493Y033506D01*
X035788Y033585D01*
X036053Y033738D01*
X036270Y033954D01*
X036422Y034219D01*
X036502Y034514D01*
X036502Y034820D01*
X036422Y035115D01*
X036270Y035380D01*
X036053Y035596D01*
X035788Y035749D01*
X035959Y035651D02*
X037013Y035651D01*
X037013Y035534D02*
X036115Y035534D01*
X036232Y035418D02*
X037013Y035418D01*
X037013Y035301D02*
X036315Y035301D01*
X036383Y035184D02*
X037013Y035184D01*
X037013Y035068D02*
X036435Y035068D01*
X036466Y034951D02*
X037013Y034951D01*
X037013Y034835D02*
X036498Y034835D01*
X036502Y034718D02*
X037013Y034718D01*
X037013Y034601D02*
X036502Y034601D01*
X036494Y034485D02*
X037013Y034485D01*
X037013Y034368D02*
X036462Y034368D01*
X036431Y034251D02*
X037013Y034251D01*
X037013Y034135D02*
X036374Y034135D01*
X036307Y034018D02*
X037013Y034018D01*
X037013Y033902D02*
X036217Y033902D01*
X036101Y033785D02*
X037013Y033785D01*
X037013Y033668D02*
X035934Y033668D01*
X035666Y033552D02*
X037013Y033552D01*
X037013Y033435D02*
X027677Y033435D01*
X027751Y033319D02*
X037013Y033319D01*
X037013Y033202D02*
X027818Y033202D01*
X027864Y033085D02*
X034591Y033085D01*
X034669Y033163D02*
X034427Y032921D01*
X034427Y032578D01*
X034669Y032336D01*
X035011Y032336D01*
X035254Y032578D01*
X035254Y032921D01*
X035011Y033163D01*
X034669Y033163D01*
X034475Y032969D02*
X027895Y032969D01*
X027925Y032852D02*
X034427Y032852D01*
X034427Y032736D02*
X027925Y032736D01*
X027925Y032619D02*
X034427Y032619D01*
X034503Y032502D02*
X027911Y032502D01*
X027880Y032386D02*
X034619Y032386D01*
X034733Y032153D02*
X027785Y032153D01*
X027849Y032269D02*
X037013Y032269D01*
X037013Y032153D02*
X035948Y032153D01*
X035922Y032163D02*
X035758Y032163D01*
X035606Y032100D01*
X035490Y031984D01*
X035427Y031832D01*
X035427Y031667D01*
X035490Y031515D01*
X035606Y031399D01*
X035758Y031336D01*
X035922Y031336D01*
X036074Y031399D01*
X036191Y031515D01*
X036254Y031667D01*
X036254Y031832D01*
X036191Y031984D01*
X036074Y032100D01*
X035922Y032163D01*
X035922Y032336D02*
X036074Y032399D01*
X036191Y032515D01*
X036254Y032667D01*
X036254Y032832D01*
X036191Y032984D01*
X036074Y033100D01*
X035922Y033163D01*
X035758Y033163D01*
X035606Y033100D01*
X035490Y032984D01*
X035427Y032832D01*
X035427Y032667D01*
X035490Y032515D01*
X035606Y032399D01*
X035758Y032336D01*
X035922Y032336D01*
X036042Y032386D02*
X037013Y032386D01*
X037013Y032502D02*
X036177Y032502D01*
X036233Y032619D02*
X037013Y032619D01*
X037013Y032736D02*
X036254Y032736D01*
X036245Y032852D02*
X037013Y032852D01*
X037013Y032969D02*
X036197Y032969D01*
X036089Y033085D02*
X037013Y033085D01*
X037013Y032036D02*
X036138Y032036D01*
X036217Y031919D02*
X037013Y031919D01*
X037013Y031803D02*
X036254Y031803D01*
X036254Y031686D02*
X037013Y031686D01*
X037013Y031569D02*
X036213Y031569D01*
X036128Y031453D02*
X037013Y031453D01*
X037013Y031336D02*
X035922Y031336D01*
X035758Y031336D02*
X034922Y031336D01*
X035074Y031399D01*
X035191Y031515D01*
X035254Y031667D01*
X035254Y031832D01*
X035191Y031984D01*
X035074Y032100D01*
X034922Y032163D01*
X034758Y032163D01*
X034606Y032100D01*
X034490Y031984D01*
X034427Y031832D01*
X034427Y031667D01*
X034490Y031515D01*
X034606Y031399D01*
X034758Y031336D01*
X034922Y031336D01*
X034758Y031336D02*
X030239Y031336D01*
X030356Y031220D02*
X037013Y031220D01*
X037013Y031103D02*
X036020Y031103D01*
X036027Y031100D02*
X035955Y031130D01*
X035879Y031145D01*
X035860Y031145D01*
X035860Y030769D01*
X036235Y030769D01*
X036235Y030789D01*
X036220Y030865D01*
X036190Y030937D01*
X036147Y031002D01*
X036092Y031057D01*
X036027Y031100D01*
X035860Y031103D02*
X035820Y031103D01*
X035820Y031145D02*
X035801Y031145D01*
X035725Y031130D01*
X035653Y031100D01*
X035588Y031057D01*
X035533Y031002D01*
X035490Y030937D01*
X035460Y030865D01*
X035445Y030789D01*
X035445Y030769D01*
X035820Y030769D01*
X035820Y030730D01*
X035445Y030730D01*
X035445Y030711D01*
X035460Y030634D01*
X035490Y030562D01*
X035533Y030498D01*
X035588Y030443D01*
X035653Y030399D01*
X035725Y030370D01*
X035801Y030354D01*
X035820Y030354D01*
X035820Y030730D01*
X035860Y030730D01*
X035860Y030769D01*
X035820Y030769D01*
X035820Y031145D01*
X035820Y030986D02*
X035860Y030986D01*
X035860Y030870D02*
X035820Y030870D01*
X035820Y030753D02*
X035254Y030753D01*
X035254Y030832D02*
X035254Y030667D01*
X035191Y030515D01*
X035074Y030399D01*
X034922Y030336D01*
X034758Y030336D01*
X034606Y030399D01*
X034490Y030515D01*
X034427Y030667D01*
X034427Y030832D01*
X034490Y030984D01*
X034606Y031100D01*
X034758Y031163D01*
X034922Y031163D01*
X035074Y031100D01*
X035191Y030984D01*
X035254Y030832D01*
X035238Y030870D02*
X035462Y030870D01*
X035523Y030986D02*
X035188Y030986D01*
X035067Y031103D02*
X035660Y031103D01*
X035552Y031453D02*
X035128Y031453D01*
X035213Y031569D02*
X035467Y031569D01*
X035427Y031686D02*
X035254Y031686D01*
X035254Y031803D02*
X035427Y031803D01*
X035463Y031919D02*
X035217Y031919D01*
X035138Y032036D02*
X035542Y032036D01*
X035733Y032153D02*
X034948Y032153D01*
X035061Y032386D02*
X035638Y032386D01*
X035503Y032502D02*
X035177Y032502D01*
X035254Y032619D02*
X035447Y032619D01*
X035427Y032736D02*
X035254Y032736D01*
X035254Y032852D02*
X035435Y032852D01*
X035483Y032969D02*
X035206Y032969D01*
X035089Y033085D02*
X035591Y033085D01*
X035014Y033552D02*
X027560Y033552D01*
X027420Y033668D02*
X034747Y033668D01*
X034580Y033785D02*
X027218Y033785D01*
X027162Y033902D02*
X034463Y033902D01*
X034374Y034018D02*
X027252Y034018D01*
X027319Y034135D02*
X034306Y034135D01*
X034249Y034251D02*
X027376Y034251D01*
X027407Y034368D02*
X034218Y034368D01*
X034187Y034485D02*
X027439Y034485D01*
X027446Y034601D02*
X034179Y034601D01*
X034179Y034718D02*
X027446Y034718D01*
X027443Y034835D02*
X034183Y034835D01*
X034214Y034951D02*
X027411Y034951D01*
X027380Y035068D02*
X034245Y035068D01*
X034298Y035184D02*
X027327Y035184D01*
X027260Y035301D02*
X034365Y035301D01*
X034448Y035418D02*
X027177Y035418D01*
X027060Y035534D02*
X034565Y035534D01*
X034721Y035651D02*
X026904Y035651D01*
X026665Y035767D02*
X034960Y035767D01*
X037013Y036467D02*
X021609Y036467D01*
X021767Y036584D02*
X037013Y036584D01*
X037013Y036700D02*
X021834Y036700D01*
X021864Y036817D02*
X037013Y036817D01*
X037013Y036934D02*
X021864Y036934D01*
X021819Y037050D02*
X024163Y037050D01*
X023576Y037167D02*
X021732Y037167D01*
X021693Y037283D02*
X023258Y037283D01*
X022977Y037400D02*
X021693Y037400D01*
X021693Y037517D02*
X022766Y037517D01*
X022881Y037440D02*
X022881Y037440D01*
X022591Y037633D02*
X021693Y037633D01*
X021693Y037750D02*
X022417Y037750D01*
X022268Y037866D02*
X021693Y037866D01*
X021693Y037983D02*
X022151Y037983D01*
X022035Y038100D02*
X021655Y038100D01*
X021541Y038216D02*
X021918Y038216D01*
X021841Y038293D02*
X021841Y038293D01*
X021814Y038333D02*
X021424Y038333D01*
X021307Y038449D02*
X021737Y038449D01*
X021659Y038566D02*
X021191Y038566D01*
X021074Y038683D02*
X021581Y038683D01*
X021503Y038799D02*
X020957Y038799D01*
X020841Y038916D02*
X021440Y038916D01*
X021392Y039033D02*
X020724Y039033D01*
X020608Y039149D02*
X021344Y039149D01*
X021295Y039266D02*
X020491Y039266D01*
X020374Y039382D02*
X021247Y039382D01*
X021203Y039499D02*
X020258Y039499D01*
X020141Y039616D02*
X021179Y039616D01*
X021156Y039732D02*
X020025Y039732D01*
X019908Y039849D02*
X021133Y039849D01*
X021110Y039965D02*
X019779Y039965D01*
X017401Y038088D02*
X017401Y037007D01*
X017793Y036616D01*
X018080Y036616D01*
X018080Y036380D02*
X017315Y036380D01*
X017250Y036444D01*
X017319Y036514D01*
X017126Y036234D02*
X013189Y036234D01*
X013189Y036350D02*
X017010Y036350D01*
X017013Y036347D02*
X017013Y036347D01*
X016607Y036754D01*
X013649Y036754D01*
X013545Y036857D01*
X013545Y037713D01*
X013549Y037717D01*
X013549Y037740D01*
X013189Y037380D01*
X013189Y035273D01*
X013400Y035062D01*
X013439Y034968D01*
X013439Y034248D01*
X013453Y034248D01*
X013557Y034144D01*
X013557Y033446D01*
X013467Y033356D01*
X013577Y033356D01*
X013734Y033291D01*
X013854Y033171D01*
X013919Y033014D01*
X013919Y032975D01*
X014187Y033243D01*
X014303Y033291D01*
X016832Y033291D01*
X016974Y033433D01*
X016974Y033500D01*
X017018Y033606D01*
X016944Y033606D01*
X016840Y033710D01*
X016840Y034282D01*
X016714Y034155D01*
X013687Y034155D01*
X013549Y034293D01*
X013549Y034649D01*
X013545Y034653D01*
X013545Y035508D01*
X013649Y035612D01*
X016605Y035612D01*
X016994Y036000D01*
X016994Y036001D01*
X017176Y036184D01*
X017013Y036347D01*
X016894Y036467D02*
X013189Y036467D01*
X013189Y036584D02*
X016777Y036584D01*
X016660Y036700D02*
X013189Y036700D01*
X013189Y036817D02*
X013585Y036817D01*
X013545Y036934D02*
X013189Y036934D01*
X013189Y037050D02*
X013545Y037050D01*
X013545Y037167D02*
X013189Y037167D01*
X013189Y037283D02*
X013545Y037283D01*
X013545Y037400D02*
X013209Y037400D01*
X013325Y037517D02*
X013545Y037517D01*
X013545Y037633D02*
X013442Y037633D01*
X013785Y037633D02*
X016616Y037633D01*
X016616Y037517D02*
X013785Y037517D01*
X013785Y037400D02*
X016616Y037400D01*
X016616Y037283D02*
X013785Y037283D01*
X013785Y037167D02*
X016616Y037167D01*
X016616Y037050D02*
X013785Y037050D01*
X013785Y036990D02*
X016616Y036990D01*
X016616Y037974D01*
X013785Y037974D01*
X013785Y036990D01*
X013189Y036117D02*
X017110Y036117D01*
X016994Y036001D02*
X013189Y036001D01*
X013189Y035884D02*
X016877Y035884D01*
X016761Y035767D02*
X013189Y035767D01*
X013189Y035651D02*
X016644Y035651D01*
X016616Y035336D02*
X016616Y034391D01*
X013785Y034391D01*
X013785Y035336D01*
X016616Y035336D01*
X016616Y035301D02*
X013785Y035301D01*
X013785Y035184D02*
X016616Y035184D01*
X016616Y035068D02*
X013785Y035068D01*
X013785Y034951D02*
X016616Y034951D01*
X016616Y034835D02*
X013785Y034835D01*
X013785Y034718D02*
X016616Y034718D01*
X016616Y034601D02*
X013785Y034601D01*
X013785Y034485D02*
X016616Y034485D01*
X016810Y034251D02*
X016840Y034251D01*
X016840Y034135D02*
X013557Y034135D01*
X013557Y034018D02*
X016840Y034018D01*
X016840Y033902D02*
X013557Y033902D01*
X013557Y033785D02*
X016840Y033785D01*
X016881Y033668D02*
X013557Y033668D01*
X013557Y033552D02*
X016996Y033552D01*
X016974Y033435D02*
X013546Y033435D01*
X013667Y033319D02*
X016859Y033319D01*
X017284Y032852D02*
X025602Y032852D01*
X025602Y032736D02*
X017167Y032736D01*
X017400Y032969D02*
X025631Y032969D01*
X025663Y033085D02*
X017676Y033085D01*
X017775Y033202D02*
X025708Y033202D01*
X025776Y033319D02*
X017824Y033319D01*
X017828Y033435D02*
X025850Y033435D01*
X025959Y033552D02*
X017807Y033552D01*
X017921Y033668D02*
X018108Y033668D01*
X018120Y033656D02*
X018157Y033635D01*
X018197Y033624D01*
X018543Y033624D01*
X018543Y034216D01*
X018661Y034216D01*
X018661Y033624D01*
X019007Y033624D01*
X019047Y033635D01*
X019083Y033656D01*
X019113Y033685D01*
X019134Y033722D01*
X019145Y033762D01*
X019145Y034216D01*
X018661Y034216D01*
X018661Y034334D01*
X019145Y034334D01*
X019145Y034788D01*
X019134Y034829D01*
X019113Y034865D01*
X019083Y034895D01*
X019047Y034916D01*
X019007Y034926D01*
X018661Y034926D01*
X018661Y034334D01*
X018543Y034334D01*
X018543Y034216D01*
X018059Y034216D01*
X018059Y033762D01*
X018070Y033722D01*
X018091Y033685D01*
X018120Y033656D01*
X018059Y033785D02*
X017962Y033785D01*
X017962Y033902D02*
X018059Y033902D01*
X018059Y034018D02*
X017962Y034018D01*
X017962Y034135D02*
X018059Y034135D01*
X017962Y034251D02*
X018543Y034251D01*
X018543Y034334D02*
X018059Y034334D01*
X018059Y034788D01*
X018070Y034829D01*
X018091Y034865D01*
X018120Y034895D01*
X018157Y034916D01*
X018197Y034926D01*
X018543Y034926D01*
X018543Y034334D01*
X018543Y034368D02*
X018661Y034368D01*
X018661Y034251D02*
X025194Y034251D01*
X025163Y034368D02*
X019145Y034368D01*
X019145Y034485D02*
X025131Y034485D01*
X025124Y034601D02*
X019145Y034601D01*
X019145Y034718D02*
X025124Y034718D01*
X025128Y034835D02*
X019943Y034835D01*
X020126Y034951D02*
X025159Y034951D01*
X025190Y035068D02*
X020204Y035068D01*
X020242Y035184D02*
X025243Y035184D01*
X025310Y035301D02*
X020448Y035301D01*
X020593Y035418D02*
X025393Y035418D01*
X025510Y035534D02*
X020654Y035534D01*
X020681Y035651D02*
X025666Y035651D01*
X025905Y035767D02*
X020681Y035767D01*
X020663Y036117D02*
X020683Y036117D01*
X020683Y036234D02*
X020663Y036234D01*
X020663Y036350D02*
X020683Y036350D01*
X020673Y036380D02*
X019948Y036380D01*
X019950Y036380D01*
X019948Y036380D02*
X019124Y036380D01*
X018602Y036380D01*
X018602Y036183D01*
X018080Y036183D01*
X017464Y036183D01*
X017313Y035986D02*
X017230Y035903D01*
X017300Y035833D01*
X017313Y035986D02*
X018080Y035986D01*
X018080Y035789D02*
X017763Y035789D01*
X017401Y035427D01*
X017401Y034275D01*
X017962Y034368D02*
X018059Y034368D01*
X018059Y034485D02*
X017962Y034485D01*
X017962Y034601D02*
X018059Y034601D01*
X018059Y034718D02*
X017962Y034718D01*
X017962Y034835D02*
X018073Y034835D01*
X017960Y034951D02*
X019503Y034951D01*
X019425Y035068D02*
X017959Y035068D01*
X017958Y035184D02*
X019387Y035184D01*
X019387Y035301D02*
X017957Y035301D01*
X018039Y035418D02*
X018118Y035418D01*
X018098Y035534D02*
X018039Y035534D01*
X017803Y035534D02*
X017789Y035534D01*
X017803Y035548D02*
X017803Y035513D01*
X017720Y035431D01*
X017725Y034906D01*
X017599Y034906D01*
X017599Y035345D01*
X017803Y035548D01*
X017720Y035418D02*
X017672Y035418D01*
X017721Y035301D02*
X017599Y035301D01*
X017599Y035184D02*
X017722Y035184D01*
X017723Y035068D02*
X017599Y035068D01*
X017599Y034951D02*
X017724Y034951D01*
X017203Y034951D02*
X017076Y034951D01*
X017076Y034906D02*
X017203Y034906D01*
X017203Y035264D01*
X017076Y035137D01*
X017076Y034906D01*
X017076Y035068D02*
X017203Y035068D01*
X017203Y035184D02*
X017123Y035184D01*
X018291Y036183D02*
X018291Y036183D01*
X018291Y036183D01*
X018338Y036183D01*
X018291Y036183D01*
X018343Y036234D02*
X018543Y036234D01*
X018543Y036350D02*
X018661Y036350D01*
X018661Y036467D02*
X018543Y036467D01*
X018543Y036584D02*
X018661Y036584D01*
X018661Y036700D02*
X018543Y036700D01*
X018543Y036817D02*
X018661Y036817D01*
X018661Y036934D02*
X018543Y036934D01*
X017996Y036934D02*
X017973Y036934D01*
X017962Y037050D02*
X019325Y037050D01*
X019257Y037167D02*
X017962Y037167D01*
X017962Y037283D02*
X019226Y037283D01*
X019212Y036934D02*
X019485Y036934D01*
X019821Y036934D02*
X020062Y036934D01*
X020354Y036891D02*
X020078Y036616D01*
X019124Y036616D01*
X019124Y036183D02*
X019950Y036183D01*
X019950Y036133D01*
X019950Y036135D01*
X019950Y036133D02*
X019950Y035986D01*
X020254Y035683D01*
X019950Y035986D02*
X019124Y035986D01*
X019124Y035789D02*
X019657Y035789D01*
X019815Y035631D01*
X019815Y035244D01*
X019424Y035418D02*
X019204Y035418D01*
X019279Y035534D02*
X019501Y035534D01*
X019686Y034835D02*
X019131Y034835D01*
X018661Y034835D02*
X018543Y034835D01*
X018543Y034718D02*
X018661Y034718D01*
X018661Y034601D02*
X018543Y034601D01*
X018543Y034485D02*
X018661Y034485D01*
X018661Y034135D02*
X018543Y034135D01*
X018543Y034018D02*
X018661Y034018D01*
X018661Y033902D02*
X018543Y033902D01*
X018543Y033785D02*
X018661Y033785D01*
X018661Y033668D02*
X018543Y033668D01*
X019096Y033668D02*
X025692Y033668D01*
X025524Y033785D02*
X019145Y033785D01*
X019145Y033902D02*
X025408Y033902D01*
X025318Y034018D02*
X019145Y034018D01*
X019145Y034135D02*
X025251Y034135D01*
X024187Y033072D02*
X023527Y033072D01*
X022913Y032298D02*
X022725Y032298D01*
X022684Y032288D01*
X022648Y032267D01*
X022618Y032237D01*
X022597Y032201D01*
X022587Y032160D01*
X022587Y032011D01*
X022913Y032011D01*
X022913Y032298D01*
X022913Y032269D02*
X022933Y032269D01*
X022933Y032153D02*
X022913Y032153D01*
X022913Y032036D02*
X022933Y032036D01*
X022587Y032036D02*
X016763Y032036D01*
X016763Y032153D02*
X022587Y032153D01*
X022652Y032269D02*
X016683Y032269D01*
X016763Y031919D02*
X022587Y031919D01*
X022597Y031803D02*
X016763Y031803D01*
X016761Y031686D02*
X021637Y031686D01*
X021521Y031569D02*
X016685Y031569D01*
X016685Y031453D02*
X021404Y031453D01*
X021288Y031336D02*
X016685Y031336D01*
X016685Y031220D02*
X021171Y031220D01*
X021054Y031103D02*
X016604Y031103D01*
X016488Y030986D02*
X020938Y030986D01*
X020821Y030870D02*
X016330Y030870D01*
X016312Y030753D02*
X020705Y030753D01*
X020588Y030637D02*
X016417Y030637D01*
X016435Y030734D02*
X015956Y030734D01*
X015956Y030537D02*
X016183Y030537D01*
X017112Y029608D01*
X017539Y029587D02*
X020021Y029587D01*
X020021Y029470D02*
X017517Y029470D01*
X017462Y029354D02*
X020021Y029354D01*
X020021Y029237D02*
X017333Y029237D01*
X016890Y029237D02*
X014305Y029237D01*
X014421Y029121D02*
X020021Y029121D01*
X020021Y029004D02*
X014538Y029004D01*
X014655Y028887D02*
X020021Y028887D01*
X020021Y028771D02*
X014771Y028771D01*
X014888Y028654D02*
X020021Y028654D01*
X020021Y028538D02*
X015004Y028538D01*
X015121Y028421D02*
X019957Y028421D01*
X020494Y028538D02*
X022345Y028538D01*
X022265Y028421D02*
X021490Y028421D01*
X021524Y028404D02*
X021449Y028442D01*
X021368Y028468D01*
X021291Y028480D01*
X021291Y027992D01*
X021780Y027992D01*
X021768Y028069D01*
X021741Y028149D01*
X021703Y028225D01*
X021653Y028294D01*
X021593Y028354D01*
X021524Y028404D01*
X021642Y028304D02*
X022204Y028304D01*
X022143Y028188D02*
X021722Y028188D01*
X021767Y028071D02*
X022075Y028071D01*
X022059Y027955D02*
X021291Y027955D01*
X021291Y028071D02*
X021193Y028071D01*
X021193Y028188D02*
X021291Y028188D01*
X021291Y028304D02*
X021193Y028304D01*
X021193Y028421D02*
X021291Y028421D01*
X020993Y028421D02*
X020558Y028421D01*
X020684Y028304D02*
X020841Y028304D01*
X020762Y028188D02*
X020759Y028188D01*
X020494Y028654D02*
X022434Y028654D01*
X022522Y028771D02*
X020494Y028771D01*
X020494Y028887D02*
X022610Y028887D01*
X022698Y029004D02*
X020494Y029004D01*
X020494Y029121D02*
X022786Y029121D01*
X022898Y029237D02*
X020494Y029237D01*
X020494Y029354D02*
X023022Y029354D01*
X023145Y029470D02*
X020494Y029470D01*
X020494Y029587D02*
X023269Y029587D01*
X023392Y029704D02*
X020494Y029704D01*
X020494Y029820D02*
X023540Y029820D01*
X023714Y029937D02*
X020556Y029937D01*
X020673Y030054D02*
X023888Y030054D01*
X024062Y030170D02*
X020790Y030170D01*
X020906Y030287D02*
X024260Y030287D01*
X024187Y030496D02*
X024187Y031588D01*
X024187Y033072D01*
X024991Y032153D02*
X025742Y032153D01*
X025809Y032036D02*
X025565Y032036D01*
X025682Y031919D02*
X025908Y031919D01*
X025798Y031803D02*
X026025Y031803D01*
X025915Y031686D02*
X026208Y031686D01*
X026090Y031395D02*
X025872Y031395D01*
X025383Y031883D01*
X024576Y031883D01*
X024576Y031687D02*
X025246Y031687D01*
X025773Y031159D01*
X029748Y031159D01*
X032872Y028035D01*
X032872Y022130D01*
X031893Y021151D01*
X031893Y019610D01*
X032202Y019301D01*
X032621Y019301D01*
X032960Y019301D01*
X033128Y019133D01*
X033409Y019133D01*
X033118Y018859D02*
X033112Y018859D01*
X033130Y018789D02*
X033224Y018694D01*
X033224Y018533D01*
X033317Y018533D01*
X033417Y018433D01*
X033401Y018417D01*
X033401Y018277D01*
X032621Y018277D01*
X032620Y018277D01*
X032621Y018278D01*
X032621Y018533D02*
X033224Y018533D01*
X033112Y018509D02*
X037013Y018509D01*
X037013Y018392D02*
X033112Y018392D01*
X033112Y018276D02*
X037013Y018276D01*
X037013Y018159D02*
X033112Y018159D01*
X033112Y018043D02*
X037013Y018043D01*
X037013Y017926D02*
X033013Y017926D01*
X033112Y018626D02*
X037013Y018626D01*
X037013Y018742D02*
X033112Y018742D01*
X033130Y018789D02*
X032621Y018789D01*
X032622Y018789D01*
X032621Y018789D02*
X032621Y019045D01*
X032621Y019557D02*
X032283Y019557D01*
X032130Y019710D01*
X032130Y021053D01*
X033108Y022031D01*
X033108Y028133D01*
X032124Y029118D01*
X032130Y029112D01*
X032124Y029118D02*
X029846Y031395D01*
X026090Y031395D01*
X026088Y031395D01*
X026154Y030870D02*
X021489Y030870D01*
X021373Y030753D02*
X025508Y030753D01*
X025612Y030986D02*
X024953Y030986D01*
X025009Y031103D02*
X025495Y031103D01*
X025379Y031220D02*
X025009Y031220D01*
X025009Y031336D02*
X025262Y031336D01*
X024992Y031490D02*
X024576Y031490D01*
X023797Y031490D02*
X023326Y031490D01*
X023293Y031293D02*
X023797Y031293D01*
X023364Y031220D02*
X023218Y031220D01*
X023364Y031103D02*
X021723Y031103D01*
X021839Y031220D02*
X022627Y031220D01*
X023420Y030986D02*
X021606Y030986D01*
X021256Y030637D02*
X025067Y030637D01*
X024776Y030520D02*
X021139Y030520D01*
X021023Y030403D02*
X024518Y030403D01*
X027414Y030870D02*
X029703Y030870D01*
X029819Y030753D02*
X028015Y030753D01*
X028473Y030637D02*
X029936Y030637D01*
X030053Y030520D02*
X028744Y030520D01*
X029014Y030403D02*
X030169Y030403D01*
X030286Y030287D02*
X029276Y030287D01*
X029457Y030170D02*
X030403Y030170D01*
X030519Y030054D02*
X029638Y030054D01*
X029818Y029937D02*
X030636Y029937D01*
X030752Y029820D02*
X029999Y029820D01*
X030127Y029704D02*
X030869Y029704D01*
X030986Y029587D02*
X030255Y029587D01*
X030382Y029470D02*
X031102Y029470D01*
X031219Y029354D02*
X030510Y029354D01*
X030638Y029237D02*
X031335Y029237D01*
X031452Y029121D02*
X030733Y029121D01*
X030824Y029004D02*
X031569Y029004D01*
X031685Y028887D02*
X030916Y028887D01*
X031007Y028771D02*
X031802Y028771D01*
X031918Y028654D02*
X031099Y028654D01*
X031190Y028538D02*
X032035Y028538D01*
X032152Y028421D02*
X031254Y028421D01*
X031318Y028304D02*
X032268Y028304D01*
X032385Y028188D02*
X031381Y028188D01*
X031445Y028071D02*
X032501Y028071D01*
X032618Y027955D02*
X031509Y027955D01*
X031572Y027838D02*
X032635Y027838D01*
X032635Y027721D02*
X031628Y027721D01*
X031668Y027605D02*
X032635Y027605D01*
X032635Y027488D02*
X031708Y027488D01*
X031749Y027371D02*
X032635Y027371D01*
X032635Y027255D02*
X031789Y027255D01*
X031829Y027138D02*
X032635Y027138D01*
X032635Y027022D02*
X031869Y027022D01*
X031905Y026905D02*
X032635Y026905D01*
X032635Y026788D02*
X031925Y026788D01*
X031945Y026672D02*
X032635Y026672D01*
X032635Y026555D02*
X031964Y026555D01*
X031984Y026439D02*
X032635Y026439D01*
X032635Y026322D02*
X032003Y026322D01*
X032023Y026205D02*
X032635Y026205D01*
X032635Y026089D02*
X032042Y026089D01*
X032047Y025972D02*
X032635Y025972D01*
X032635Y025856D02*
X032047Y025856D01*
X032047Y025739D02*
X032635Y025739D01*
X032635Y025622D02*
X032047Y025622D01*
X032047Y025506D02*
X032635Y025506D01*
X032635Y025389D02*
X032047Y025389D01*
X032047Y025272D02*
X032635Y025272D01*
X032635Y025156D02*
X032043Y025156D01*
X032024Y025039D02*
X032635Y025039D01*
X032635Y024923D02*
X032004Y024923D01*
X031985Y024806D02*
X032635Y024806D01*
X032635Y024689D02*
X031965Y024689D01*
X031945Y024573D02*
X032635Y024573D01*
X032635Y024456D02*
X031926Y024456D01*
X031906Y024340D02*
X032635Y024340D01*
X032635Y024223D02*
X031871Y024223D01*
X031831Y024106D02*
X032635Y024106D01*
X032635Y023990D02*
X031791Y023990D01*
X031750Y023873D02*
X032635Y023873D01*
X032635Y023757D02*
X031710Y023757D01*
X031670Y023640D02*
X032635Y023640D01*
X032635Y023523D02*
X031630Y023523D01*
X031575Y023407D02*
X032635Y023407D01*
X032635Y023290D02*
X031511Y023290D01*
X031448Y023173D02*
X032635Y023173D01*
X032635Y023057D02*
X031384Y023057D01*
X031321Y022940D02*
X032635Y022940D01*
X032635Y022824D02*
X031257Y022824D01*
X031194Y022707D02*
X032635Y022707D01*
X032635Y022590D02*
X031103Y022590D01*
X031011Y022474D02*
X031401Y022474D01*
X031298Y022357D02*
X030920Y022357D01*
X030828Y022241D02*
X031249Y022241D01*
X031242Y022124D02*
X030737Y022124D01*
X030644Y022007D02*
X031205Y022007D01*
X031088Y021891D02*
X030516Y021891D01*
X030388Y021774D02*
X030994Y021774D01*
X030994Y021658D02*
X030260Y021658D01*
X030132Y021541D02*
X030994Y021541D01*
X030994Y021424D02*
X030005Y021424D01*
X029826Y021308D02*
X030994Y021308D01*
X031047Y021191D02*
X029646Y021191D01*
X029465Y021075D02*
X031163Y021075D01*
X031185Y020958D02*
X029284Y020958D01*
X029027Y020841D02*
X031185Y020841D01*
X031185Y020725D02*
X028756Y020725D01*
X028485Y020608D02*
X031124Y020608D01*
X031008Y020491D02*
X028037Y020491D01*
X027485Y020375D02*
X030891Y020375D01*
X031421Y020570D02*
X030663Y019813D01*
X030323Y019813D01*
X030323Y019557D02*
X030742Y019557D01*
X031657Y020472D01*
X031657Y021519D01*
X032062Y021658D02*
X032066Y021658D01*
X032006Y021774D02*
X032182Y021774D01*
X032299Y021891D02*
X032026Y021891D01*
X032077Y022007D02*
X032415Y022007D01*
X032532Y022124D02*
X032096Y022124D01*
X032089Y022241D02*
X032635Y022241D01*
X032635Y022357D02*
X032040Y022357D01*
X031937Y022474D02*
X032635Y022474D01*
X033344Y022474D02*
X034531Y022474D01*
X034490Y022515D02*
X034606Y022399D01*
X034758Y022336D01*
X034922Y022336D01*
X035074Y022399D01*
X035191Y022515D01*
X035254Y022667D01*
X035254Y022832D01*
X035191Y022984D01*
X035074Y023100D01*
X034922Y023163D01*
X034758Y023163D01*
X034606Y023100D01*
X034490Y022984D01*
X034427Y022832D01*
X034427Y022667D01*
X034490Y022515D01*
X034459Y022590D02*
X033344Y022590D01*
X033344Y022707D02*
X034427Y022707D01*
X034427Y022824D02*
X033344Y022824D01*
X033344Y022940D02*
X034472Y022940D01*
X034563Y023057D02*
X033344Y023057D01*
X033344Y023173D02*
X037013Y023173D01*
X037013Y023057D02*
X035117Y023057D01*
X035209Y022940D02*
X037013Y022940D01*
X037013Y022824D02*
X035254Y022824D01*
X035254Y022707D02*
X037013Y022707D01*
X037013Y022590D02*
X035222Y022590D01*
X035149Y022474D02*
X037013Y022474D01*
X037013Y022357D02*
X034973Y022357D01*
X034707Y022357D02*
X033344Y022357D01*
X033344Y022241D02*
X037013Y022241D01*
X037013Y022124D02*
X033344Y022124D01*
X033344Y022007D02*
X037013Y022007D01*
X037013Y021891D02*
X033302Y021891D01*
X033185Y021774D02*
X037013Y021774D01*
X037013Y021658D02*
X033068Y021658D01*
X032952Y021541D02*
X037013Y021541D01*
X037013Y021424D02*
X032835Y021424D01*
X032757Y021308D02*
X032719Y021308D01*
X033045Y021308D02*
X037013Y021308D01*
X037013Y021191D02*
X034175Y021191D01*
X034218Y021075D02*
X037013Y021075D01*
X037013Y020958D02*
X034218Y020958D01*
X034218Y020895D02*
X033931Y020895D01*
X033931Y020569D01*
X034080Y020569D01*
X034120Y020580D01*
X034156Y020601D01*
X034186Y020630D01*
X034207Y020667D01*
X034218Y020707D01*
X034218Y020895D01*
X034218Y020841D02*
X037013Y020841D01*
X037013Y020725D02*
X034218Y020725D01*
X034164Y020608D02*
X037013Y020608D01*
X037013Y020491D02*
X033645Y020491D01*
X033911Y020608D02*
X033931Y020608D01*
X033931Y020725D02*
X033911Y020725D01*
X033911Y020841D02*
X033931Y020841D01*
X033931Y020958D02*
X033911Y020958D01*
X033911Y021075D02*
X033931Y021075D01*
X033931Y021191D02*
X033911Y021191D01*
X033409Y020905D02*
X032901Y020905D01*
X033409Y020905D02*
X033409Y020315D01*
X033291Y020196D01*
X033086Y020196D01*
X032958Y020069D01*
X032621Y020069D01*
X032621Y019557D02*
X032960Y019557D01*
X033128Y019724D01*
X033409Y019724D01*
X033527Y020196D02*
X033409Y020315D01*
X033527Y020196D02*
X033769Y020196D01*
X033921Y020045D01*
X033921Y019724D01*
X033921Y019133D01*
X034236Y019092D02*
X037013Y019092D01*
X037013Y018976D02*
X034236Y018976D01*
X034212Y018859D02*
X037013Y018859D01*
X037013Y019209D02*
X034236Y019209D01*
X034236Y019325D02*
X037013Y019325D01*
X037013Y019442D02*
X034204Y019442D01*
X034236Y019559D02*
X037013Y019559D01*
X037013Y019675D02*
X034236Y019675D01*
X034236Y019792D02*
X037013Y019792D01*
X037013Y019908D02*
X034236Y019908D01*
X034185Y020025D02*
X037013Y020025D01*
X037013Y020142D02*
X034157Y020142D01*
X034042Y020258D02*
X037013Y020258D01*
X037013Y020375D02*
X033925Y020375D01*
X032621Y018533D02*
X032622Y018533D01*
X031287Y017809D02*
X037013Y017809D01*
X037013Y017693D02*
X031287Y017693D01*
X031287Y017576D02*
X037013Y017576D01*
X037013Y017460D02*
X031287Y017460D01*
X031287Y017343D02*
X037013Y017343D01*
X037013Y017226D02*
X031287Y017226D01*
X031287Y017110D02*
X037013Y017110D01*
X037013Y016993D02*
X031287Y016993D01*
X031287Y016877D02*
X037013Y016877D01*
X037013Y016760D02*
X031287Y016760D01*
X031287Y016643D02*
X037013Y016643D01*
X037013Y016527D02*
X031287Y016527D01*
X031287Y016410D02*
X037013Y016410D01*
X037013Y016293D02*
X031287Y016293D01*
X031287Y016177D02*
X037013Y016177D01*
X037013Y016060D02*
X036114Y016060D01*
X036074Y016100D02*
X035922Y016163D01*
X035758Y016163D01*
X035606Y016100D01*
X035490Y015984D01*
X035427Y015832D01*
X035427Y015667D01*
X035490Y015515D01*
X035606Y015399D01*
X035758Y015336D01*
X035922Y015336D01*
X036074Y015399D01*
X036191Y015515D01*
X036254Y015667D01*
X036254Y015832D01*
X036191Y015984D01*
X036074Y016100D01*
X036207Y015944D02*
X037013Y015944D01*
X037013Y015827D02*
X036254Y015827D01*
X036254Y015710D02*
X037013Y015710D01*
X037013Y015594D02*
X036223Y015594D01*
X036152Y015477D02*
X037013Y015477D01*
X037013Y015361D02*
X035981Y015361D01*
X035922Y015163D02*
X035761Y015163D01*
X035218Y015706D01*
X035080Y015844D01*
X034919Y015844D01*
X034919Y015858D01*
X034815Y015962D01*
X034393Y015962D01*
X034348Y015917D01*
X034303Y015962D01*
X033881Y015962D01*
X033777Y015858D01*
X033777Y015357D01*
X033804Y015331D01*
X033738Y015265D01*
X033738Y015200D01*
X033704Y015200D01*
X033600Y015097D01*
X033600Y014399D01*
X033704Y014295D01*
X034038Y014295D01*
X033974Y014230D01*
X033974Y013533D01*
X034078Y013429D01*
X034092Y013429D01*
X034092Y012840D01*
X032981Y011728D01*
X032909Y011656D01*
X032870Y011562D01*
X032870Y010749D01*
X032839Y010737D01*
X032696Y010594D01*
X032619Y010408D01*
X032619Y010206D01*
X032696Y010019D01*
X032839Y009877D01*
X033025Y009800D01*
X033227Y009800D01*
X033413Y009877D01*
X033556Y010019D01*
X033633Y010206D01*
X033633Y010408D01*
X033556Y010594D01*
X033413Y010737D01*
X033381Y010750D01*
X033381Y011405D01*
X034260Y012284D01*
X034258Y012281D01*
X034179Y011985D01*
X034179Y011679D01*
X034258Y011384D01*
X034411Y011119D01*
X034627Y010903D01*
X034892Y010750D01*
X035187Y010671D01*
X035493Y010671D01*
X035788Y010750D01*
X036053Y010903D01*
X036270Y011119D01*
X036422Y011384D01*
X036502Y011679D01*
X036502Y011985D01*
X036422Y012281D01*
X036270Y012545D01*
X036053Y012762D01*
X035788Y012915D01*
X035493Y012994D01*
X035187Y012994D01*
X034892Y012915D01*
X034627Y012762D01*
X034604Y012739D01*
X034604Y013429D01*
X034618Y013429D01*
X034722Y013533D01*
X034722Y014230D01*
X034640Y014313D01*
X034683Y014313D01*
X034683Y014708D01*
X034761Y014708D01*
X034761Y014313D01*
X034940Y014313D01*
X034980Y014324D01*
X035017Y014345D01*
X035046Y014374D01*
X035067Y014411D01*
X035078Y014451D01*
X035078Y014708D01*
X034761Y014708D01*
X034761Y014787D01*
X034683Y014787D01*
X034683Y015182D01*
X034504Y015182D01*
X034464Y015171D01*
X034428Y015151D01*
X034398Y015121D01*
X034377Y015085D01*
X034366Y015044D01*
X034366Y014787D01*
X034683Y014787D01*
X034683Y014708D01*
X034366Y014708D01*
X034366Y014451D01*
X034377Y014411D01*
X034398Y014374D01*
X034428Y014345D01*
X034446Y014334D01*
X034284Y014334D01*
X034348Y014399D01*
X034348Y015097D01*
X034293Y015152D01*
X034328Y015187D01*
X034328Y015279D01*
X034348Y015298D01*
X034393Y015254D01*
X034815Y015254D01*
X034909Y015347D01*
X035427Y014829D01*
X035427Y014667D01*
X035490Y014515D01*
X035606Y014399D01*
X035758Y014336D01*
X035922Y014336D01*
X036074Y014399D01*
X036191Y014515D01*
X036254Y014667D01*
X036254Y014832D01*
X036191Y014984D01*
X036074Y015100D01*
X035922Y015163D01*
X036008Y015127D02*
X037013Y015127D01*
X037013Y015011D02*
X036164Y015011D01*
X036228Y014894D02*
X037013Y014894D01*
X037013Y014778D02*
X036254Y014778D01*
X036251Y014661D02*
X037013Y014661D01*
X037013Y014544D02*
X036203Y014544D01*
X036103Y014428D02*
X037013Y014428D01*
X037013Y014311D02*
X034641Y014311D01*
X034683Y014428D02*
X034761Y014428D01*
X034761Y014544D02*
X034683Y014544D01*
X034683Y014661D02*
X034761Y014661D01*
X034761Y014778D02*
X035427Y014778D01*
X035429Y014661D02*
X035078Y014661D01*
X035078Y014544D02*
X035478Y014544D01*
X035577Y014428D02*
X035072Y014428D01*
X035078Y014787D02*
X034761Y014787D01*
X034761Y015182D01*
X034940Y015182D01*
X034980Y015171D01*
X035017Y015151D01*
X035046Y015121D01*
X035067Y015085D01*
X035078Y015044D01*
X035078Y014787D01*
X035078Y014894D02*
X035362Y014894D01*
X035245Y015011D02*
X035078Y015011D01*
X035040Y015127D02*
X035128Y015127D01*
X035012Y015244D02*
X034328Y015244D01*
X034317Y015127D02*
X034404Y015127D01*
X034366Y015011D02*
X034348Y015011D01*
X034348Y014894D02*
X034366Y014894D01*
X034348Y014778D02*
X034683Y014778D01*
X034683Y014894D02*
X034761Y014894D01*
X034761Y015011D02*
X034683Y015011D01*
X034683Y015127D02*
X034761Y015127D01*
X034604Y015608D02*
X034982Y015608D01*
X035840Y014750D01*
X035680Y015244D02*
X037013Y015244D01*
X037013Y014194D02*
X034722Y014194D01*
X034722Y014078D02*
X037013Y014078D01*
X037013Y013961D02*
X034722Y013961D01*
X034722Y013845D02*
X037013Y013845D01*
X037013Y013728D02*
X034722Y013728D01*
X034722Y013611D02*
X037013Y013611D01*
X037013Y013495D02*
X034684Y013495D01*
X034604Y013378D02*
X037013Y013378D01*
X037013Y013262D02*
X034604Y013262D01*
X034604Y013145D02*
X037013Y013145D01*
X037013Y013028D02*
X034604Y013028D01*
X034604Y012912D02*
X034887Y012912D01*
X034685Y012795D02*
X034604Y012795D01*
X034092Y012912D02*
X033498Y012912D01*
X033505Y012795D02*
X034047Y012795D01*
X033931Y012679D02*
X033498Y012679D01*
X033450Y012562D02*
X033814Y012562D01*
X033698Y012445D02*
X033365Y012445D01*
X033198Y012329D02*
X033581Y012329D01*
X033464Y012212D02*
X030117Y012212D01*
X030159Y012095D02*
X033348Y012095D01*
X033231Y011979D02*
X030159Y011979D01*
X030127Y011862D02*
X033115Y011862D01*
X032998Y011746D02*
X030056Y011746D01*
X029892Y011629D02*
X032897Y011629D01*
X032870Y011512D02*
X029710Y011512D01*
X029662Y011396D02*
X032870Y011396D01*
X032870Y011279D02*
X029568Y011279D01*
X029283Y011598D02*
X028895Y011598D01*
X028704Y011789D01*
X028590Y011789D01*
X028196Y012183D01*
X028196Y014645D01*
X028506Y014954D01*
X029023Y014954D01*
X029023Y014698D02*
X028584Y014698D01*
X028433Y014547D01*
X028433Y012281D01*
X028689Y012025D01*
X029732Y012025D01*
X030032Y012329D02*
X032798Y012329D01*
X032630Y012445D02*
X031804Y012445D01*
X031811Y012736D02*
X031529Y012736D01*
X031811Y012736D02*
X031870Y012795D01*
X032998Y012795D01*
X033196Y013262D02*
X034092Y013262D01*
X034092Y013378D02*
X032191Y013378D01*
X032307Y013495D02*
X034012Y013495D01*
X033974Y013611D02*
X032424Y013611D01*
X032540Y013728D02*
X033974Y013728D01*
X033974Y013845D02*
X032620Y013845D01*
X032620Y013961D02*
X033974Y013961D01*
X033974Y014078D02*
X032620Y014078D01*
X032620Y014194D02*
X033974Y014194D01*
X033688Y014311D02*
X032620Y014311D01*
X032620Y014428D02*
X033600Y014428D01*
X033600Y014544D02*
X032620Y014544D01*
X032513Y014661D02*
X033600Y014661D01*
X033600Y014778D02*
X032396Y014778D01*
X032280Y014894D02*
X033600Y014894D01*
X033600Y015011D02*
X032163Y015011D01*
X032046Y015127D02*
X033631Y015127D01*
X033738Y015244D02*
X031930Y015244D01*
X031813Y015361D02*
X033777Y015361D01*
X033777Y015477D02*
X031697Y015477D01*
X031580Y015594D02*
X033777Y015594D01*
X033777Y015710D02*
X031463Y015710D01*
X031347Y015827D02*
X033777Y015827D01*
X033862Y015944D02*
X031287Y015944D01*
X031287Y016060D02*
X035566Y016060D01*
X035473Y015944D02*
X034834Y015944D01*
X035097Y015827D02*
X035427Y015827D01*
X035427Y015710D02*
X035213Y015710D01*
X035330Y015594D02*
X035457Y015594D01*
X035447Y015477D02*
X035528Y015477D01*
X035563Y015361D02*
X035699Y015361D01*
X034374Y015944D02*
X034322Y015944D01*
X034092Y015608D02*
X034092Y015285D01*
X033974Y015167D01*
X033974Y014748D01*
X034348Y014661D02*
X034366Y014661D01*
X034366Y014544D02*
X034348Y014544D01*
X034348Y014428D02*
X034372Y014428D01*
X034092Y013145D02*
X033365Y013145D01*
X033450Y013028D02*
X034092Y013028D01*
X034188Y012212D02*
X034240Y012212D01*
X034208Y012095D02*
X034072Y012095D01*
X034179Y011979D02*
X033955Y011979D01*
X033838Y011862D02*
X034179Y011862D01*
X034179Y011746D02*
X033722Y011746D01*
X033605Y011629D02*
X034192Y011629D01*
X034223Y011512D02*
X033489Y011512D01*
X033381Y011396D02*
X034255Y011396D01*
X034318Y011279D02*
X033381Y011279D01*
X033381Y011163D02*
X034386Y011163D01*
X034484Y011046D02*
X033381Y011046D01*
X033381Y010929D02*
X034601Y010929D01*
X034783Y010813D02*
X033381Y010813D01*
X033454Y010696D02*
X035093Y010696D01*
X035588Y010696D02*
X037013Y010696D01*
X037013Y010580D02*
X033562Y010580D01*
X033610Y010463D02*
X037013Y010463D01*
X037013Y010346D02*
X033633Y010346D01*
X033633Y010230D02*
X037013Y010230D01*
X037013Y010113D02*
X033595Y010113D01*
X033533Y009997D02*
X037013Y009997D01*
X036885Y009880D02*
X033417Y009880D01*
X032836Y009880D02*
X030857Y009880D01*
X030973Y009997D02*
X032719Y009997D01*
X032657Y010113D02*
X031035Y010113D01*
X031073Y010230D02*
X032619Y010230D01*
X032619Y010346D02*
X031073Y010346D01*
X031050Y010463D02*
X032642Y010463D01*
X032690Y010580D02*
X031002Y010580D01*
X030894Y010696D02*
X032798Y010696D01*
X032870Y010813D02*
X030670Y010813D01*
X030463Y010813D02*
X028178Y010813D01*
X028185Y010696D02*
X030238Y010696D01*
X030130Y010580D02*
X028165Y010580D01*
X028112Y010463D02*
X030082Y010463D01*
X030059Y010346D02*
X027990Y010346D01*
X027757Y010712D02*
X027757Y011336D01*
X027565Y011529D01*
X027565Y012364D01*
X026996Y012933D01*
X026996Y013878D01*
X026935Y013939D01*
X026687Y014187D01*
X026169Y014187D01*
X026169Y014443D02*
X024941Y014443D01*
X024452Y013954D01*
X024152Y013651D02*
X024055Y013554D01*
X023881Y013482D01*
X023693Y013482D01*
X023519Y013554D01*
X023386Y013687D01*
X023315Y013860D01*
X023315Y014048D01*
X023386Y014222D01*
X023519Y014355D01*
X023693Y014427D01*
X023881Y014427D01*
X024055Y014355D01*
X024152Y014258D01*
X024210Y014316D01*
X024367Y014381D01*
X024537Y014381D01*
X024543Y014379D01*
X024626Y014462D01*
X024610Y014462D01*
X024543Y014530D01*
X024537Y014527D01*
X024367Y014527D01*
X024210Y014592D01*
X024152Y014651D01*
X024055Y014554D01*
X023881Y014482D01*
X023693Y014482D01*
X023519Y014554D01*
X023386Y014687D01*
X023315Y014860D01*
X023315Y015048D01*
X023386Y015222D01*
X023519Y015355D01*
X023693Y015427D01*
X023881Y015427D01*
X024055Y015355D01*
X024152Y015258D01*
X024210Y015316D01*
X024367Y015381D01*
X024537Y015381D01*
X024694Y015316D01*
X024814Y015196D01*
X024880Y015039D01*
X024880Y014935D01*
X025578Y014935D01*
X025578Y015736D01*
X025682Y015840D01*
X025933Y015840D01*
X025933Y016033D01*
X025854Y016111D01*
X025854Y016612D01*
X025933Y016691D01*
X025933Y017087D01*
X025301Y017718D01*
X024817Y017718D01*
X024814Y017712D01*
X024694Y017592D01*
X024537Y017527D01*
X024367Y017527D01*
X024210Y017592D01*
X024152Y017651D01*
X023983Y017482D01*
X023591Y017482D01*
X023358Y017715D01*
X023358Y017319D01*
X023364Y017316D01*
X023422Y017258D01*
X023519Y017355D01*
X023693Y017427D01*
X023881Y017427D01*
X024055Y017355D01*
X024188Y017222D01*
X024259Y017048D01*
X024259Y016860D01*
X024188Y016687D01*
X024055Y016554D01*
X023881Y016482D01*
X023693Y016482D01*
X023519Y016554D01*
X023422Y016651D01*
X023364Y016592D01*
X023207Y016527D01*
X023037Y016527D01*
X023031Y016530D01*
X022677Y016175D01*
X022677Y012934D01*
X022783Y012978D01*
X022953Y012978D01*
X023110Y012913D01*
X023140Y012883D01*
X023135Y012893D01*
X023135Y013063D01*
X023200Y013220D01*
X023321Y013340D01*
X023478Y013405D01*
X023648Y013405D01*
X023805Y013340D01*
X023925Y013220D01*
X023927Y013214D01*
X024048Y013214D01*
X024239Y013023D01*
X024345Y013023D01*
X025094Y013773D01*
X025232Y013911D01*
X025578Y013911D01*
X025578Y014206D01*
X025038Y014206D01*
X024877Y014045D01*
X024880Y014039D01*
X024880Y013869D01*
X024814Y013712D01*
X024694Y013592D01*
X024537Y013527D01*
X024367Y013527D01*
X024210Y013592D01*
X024152Y013651D01*
X024191Y013611D02*
X024112Y013611D01*
X023912Y013495D02*
X024816Y013495D01*
X024714Y013611D02*
X024933Y013611D01*
X024821Y013728D02*
X025049Y013728D01*
X025166Y013845D02*
X024869Y013845D01*
X024880Y013961D02*
X025578Y013961D01*
X025578Y014078D02*
X024910Y014078D01*
X025027Y014194D02*
X025578Y014194D01*
X025330Y013675D02*
X026169Y013675D01*
X026169Y013931D02*
X026608Y013931D01*
X026759Y013779D01*
X026759Y012834D01*
X027328Y012265D01*
X027328Y011159D01*
X027071Y010813D02*
X026842Y010813D01*
X026532Y010696D02*
X027330Y010696D01*
X027350Y010580D02*
X021986Y010580D01*
X021870Y010696D02*
X026038Y010696D01*
X025728Y010813D02*
X024615Y010813D01*
X024899Y010929D02*
X024919Y010929D01*
X024919Y011046D02*
X024899Y011046D01*
X024919Y011163D02*
X025331Y011163D01*
X025263Y011279D02*
X025206Y011279D01*
X025196Y011396D02*
X025200Y011396D01*
X025206Y011046D02*
X025429Y011046D01*
X025545Y010929D02*
X025197Y010929D01*
X024397Y011161D02*
X024397Y011712D01*
X023854Y011712D01*
X023342Y011712D02*
X023061Y011712D01*
X022441Y012332D01*
X022441Y016273D01*
X023122Y016954D01*
X023122Y018448D01*
X022885Y018276D02*
X020493Y018276D01*
X020504Y018392D02*
X022816Y018392D01*
X022885Y018159D02*
X019922Y018159D01*
X019946Y018043D02*
X022885Y018043D01*
X022885Y017926D02*
X021971Y017926D01*
X022059Y017809D02*
X022885Y017809D01*
X022885Y017693D02*
X022059Y017693D01*
X022059Y017576D02*
X022885Y017576D01*
X022885Y017460D02*
X022059Y017460D01*
X022059Y017343D02*
X022885Y017343D01*
X022790Y017226D02*
X022059Y017226D01*
X022059Y017110D02*
X022724Y017110D01*
X022694Y016993D02*
X022059Y016993D01*
X022059Y016877D02*
X022694Y016877D01*
X022593Y016760D02*
X022059Y016760D01*
X022059Y016643D02*
X022477Y016643D01*
X022360Y016527D02*
X022059Y016527D01*
X022059Y016410D02*
X022243Y016410D01*
X022204Y016293D02*
X022059Y016293D01*
X022059Y016177D02*
X022204Y016177D01*
X022204Y016060D02*
X022059Y016060D01*
X022059Y015944D02*
X022204Y015944D01*
X022204Y015827D02*
X022059Y015827D01*
X022059Y015710D02*
X022204Y015710D01*
X022204Y015594D02*
X022059Y015594D01*
X022059Y015477D02*
X022204Y015477D01*
X022204Y015361D02*
X022059Y015361D01*
X022059Y015244D02*
X022204Y015244D01*
X022204Y015127D02*
X022059Y015127D01*
X022059Y015011D02*
X022204Y015011D01*
X022204Y014894D02*
X022059Y014894D01*
X022059Y014778D02*
X022204Y014778D01*
X022204Y014661D02*
X022059Y014661D01*
X022059Y014544D02*
X022204Y014544D01*
X022204Y014428D02*
X022059Y014428D01*
X022059Y014311D02*
X022204Y014311D01*
X022204Y014194D02*
X022059Y014194D01*
X022059Y014078D02*
X022204Y014078D01*
X022204Y013961D02*
X022059Y013961D01*
X022059Y013845D02*
X022204Y013845D01*
X022204Y013728D02*
X022059Y013728D01*
X022059Y013611D02*
X022204Y013611D01*
X022204Y013495D02*
X022059Y013495D01*
X022059Y013378D02*
X022204Y013378D01*
X022204Y013262D02*
X022059Y013262D01*
X022059Y013145D02*
X022204Y013145D01*
X022204Y013028D02*
X022059Y013028D01*
X022059Y012912D02*
X022204Y012912D01*
X022204Y012795D02*
X022059Y012795D01*
X022059Y012679D02*
X022204Y012679D01*
X022204Y012562D02*
X022059Y012562D01*
X022059Y012445D02*
X022204Y012445D01*
X022204Y012329D02*
X022059Y012329D01*
X022059Y012212D02*
X022227Y012212D01*
X022343Y012095D02*
X022059Y012095D01*
X022059Y011979D02*
X022460Y011979D01*
X022576Y011862D02*
X022059Y011862D01*
X022059Y011746D02*
X022693Y011746D01*
X022810Y011629D02*
X022059Y011629D01*
X022021Y011512D02*
X022528Y011512D01*
X022416Y011396D02*
X020622Y011396D01*
X020622Y011279D02*
X022368Y011279D01*
X022354Y011163D02*
X020622Y011163D01*
X020622Y011046D02*
X022366Y011046D01*
X022415Y010929D02*
X021606Y010929D01*
X021645Y010813D02*
X022525Y010813D01*
X022781Y011161D02*
X023263Y011161D01*
X023037Y010813D02*
X024180Y010813D01*
X024397Y011161D02*
X023933Y011161D01*
X024909Y011712D02*
X024909Y012584D01*
X025488Y013163D01*
X026169Y013163D01*
X026169Y013419D02*
X025409Y013419D01*
X024541Y012551D01*
X022868Y012551D01*
X023111Y012912D02*
X023135Y012912D01*
X023135Y013028D02*
X022677Y013028D01*
X022677Y013145D02*
X023169Y013145D01*
X023242Y013262D02*
X022677Y013262D01*
X022677Y013378D02*
X023413Y013378D01*
X023462Y013611D02*
X022677Y013611D01*
X022677Y013495D02*
X023662Y013495D01*
X023713Y013378D02*
X024700Y013378D01*
X024583Y013262D02*
X023883Y013262D01*
X024117Y013145D02*
X024466Y013145D01*
X024350Y013028D02*
X024234Y013028D01*
X024141Y012787D02*
X024443Y012787D01*
X025330Y013675D01*
X024592Y014428D02*
X022677Y014428D01*
X022677Y014544D02*
X023542Y014544D01*
X023412Y014661D02*
X022677Y014661D01*
X022677Y014778D02*
X023349Y014778D01*
X023315Y014894D02*
X022677Y014894D01*
X022677Y015011D02*
X023315Y015011D01*
X023347Y015127D02*
X022677Y015127D01*
X022677Y015244D02*
X023409Y015244D01*
X023533Y015361D02*
X022677Y015361D01*
X022677Y015477D02*
X025578Y015477D01*
X025578Y015361D02*
X024588Y015361D01*
X024767Y015244D02*
X025578Y015244D01*
X025578Y015127D02*
X024843Y015127D01*
X024880Y015011D02*
X025578Y015011D01*
X025578Y015594D02*
X024064Y015594D01*
X024083Y015608D02*
X024134Y015658D01*
X024176Y015716D01*
X024208Y015780D01*
X024230Y015848D01*
X024241Y015915D01*
X023826Y015915D01*
X023826Y015501D01*
X023893Y015511D01*
X023961Y015533D01*
X024025Y015566D01*
X024083Y015608D01*
X024171Y015710D02*
X025578Y015710D01*
X025669Y015827D02*
X024223Y015827D01*
X024241Y015994D02*
X023826Y015994D01*
X023748Y015994D01*
X023748Y016408D01*
X023681Y016397D01*
X023613Y016375D01*
X023549Y016343D01*
X023491Y016301D01*
X023440Y016250D01*
X023398Y016192D01*
X023366Y016129D01*
X023344Y016061D01*
X023333Y015994D01*
X023748Y015994D01*
X023748Y015915D01*
X023826Y015915D01*
X023826Y015994D01*
X023826Y016408D01*
X023893Y016397D01*
X023961Y016375D01*
X024025Y016343D01*
X024083Y016301D01*
X024134Y016250D01*
X024176Y016192D01*
X024208Y016129D01*
X024230Y016061D01*
X024241Y015994D01*
X024230Y016060D02*
X025905Y016060D01*
X025933Y015944D02*
X023826Y015944D01*
X023748Y015944D02*
X022677Y015944D01*
X022677Y016060D02*
X023344Y016060D01*
X023390Y016177D02*
X022678Y016177D01*
X022795Y016293D02*
X023484Y016293D01*
X023585Y016527D02*
X023028Y016527D01*
X022911Y016410D02*
X025854Y016410D01*
X025854Y016293D02*
X024090Y016293D01*
X024184Y016177D02*
X025854Y016177D01*
X025854Y016527D02*
X023989Y016527D01*
X024144Y016643D02*
X025885Y016643D01*
X025933Y016760D02*
X024218Y016760D01*
X024259Y016877D02*
X025933Y016877D01*
X025933Y016993D02*
X024259Y016993D01*
X024234Y017110D02*
X025910Y017110D01*
X025793Y017226D02*
X024183Y017226D01*
X024067Y017343D02*
X025677Y017343D01*
X025560Y017460D02*
X023358Y017460D01*
X023358Y017576D02*
X023497Y017576D01*
X023380Y017693D02*
X023358Y017693D01*
X023358Y017343D02*
X023508Y017343D01*
X024077Y017576D02*
X024249Y017576D01*
X024656Y017576D02*
X025443Y017576D01*
X025327Y017693D02*
X024795Y017693D01*
X024452Y017954D02*
X025399Y017954D01*
X026169Y017185D01*
X026169Y016362D01*
X026169Y015466D01*
X026169Y014698D02*
X024708Y014698D01*
X024452Y014954D01*
X024317Y015361D02*
X024041Y015361D01*
X023826Y015594D02*
X023748Y015594D01*
X023748Y015501D02*
X023748Y015915D01*
X023333Y015915D01*
X023344Y015848D01*
X023366Y015780D01*
X023398Y015716D01*
X023440Y015658D01*
X023491Y015608D01*
X023549Y015566D01*
X023613Y015533D01*
X023681Y015511D01*
X023748Y015501D01*
X023748Y015710D02*
X023826Y015710D01*
X023826Y015827D02*
X023748Y015827D01*
X023748Y016060D02*
X023826Y016060D01*
X023826Y016177D02*
X023748Y016177D01*
X023748Y016293D02*
X023826Y016293D01*
X023430Y016643D02*
X023415Y016643D01*
X023351Y015827D02*
X022677Y015827D01*
X022677Y015710D02*
X023403Y015710D01*
X023510Y015594D02*
X022677Y015594D01*
X024032Y014544D02*
X024326Y014544D01*
X024205Y014311D02*
X024098Y014311D01*
X023476Y014311D02*
X022677Y014311D01*
X022677Y014194D02*
X023375Y014194D01*
X023327Y014078D02*
X022677Y014078D01*
X022677Y013961D02*
X023315Y013961D01*
X023321Y013845D02*
X022677Y013845D01*
X022677Y013728D02*
X023369Y013728D01*
X023563Y012978D02*
X023950Y012978D01*
X024141Y012787D01*
X026929Y013944D02*
X026935Y013939D01*
X027584Y012679D02*
X027960Y012679D01*
X027960Y012562D02*
X027700Y012562D01*
X027801Y012445D02*
X027960Y012445D01*
X027960Y012329D02*
X027801Y012329D01*
X027801Y012212D02*
X027960Y012212D01*
X027960Y012095D02*
X027801Y012095D01*
X027801Y011979D02*
X028066Y011979D01*
X028183Y011862D02*
X027801Y011862D01*
X027801Y011746D02*
X028299Y011746D01*
X028416Y011629D02*
X027801Y011629D01*
X027915Y011512D02*
X028647Y011512D01*
X028763Y011396D02*
X027994Y011396D01*
X027994Y011279D02*
X028998Y011279D01*
X028130Y010929D02*
X032870Y010929D01*
X032870Y011046D02*
X028028Y011046D01*
X027994Y011163D02*
X032870Y011163D01*
X032981Y011728D02*
X032981Y011728D01*
X032631Y013145D02*
X031957Y013145D01*
X032074Y013262D02*
X032799Y013262D01*
X032383Y013905D02*
X032383Y014191D01*
X032383Y014456D01*
X031051Y015789D01*
X031051Y018734D01*
X030740Y019045D01*
X030323Y019045D01*
X029982Y019045D01*
X029817Y019210D01*
X029535Y019210D01*
X029752Y019559D02*
X029950Y019559D01*
X029950Y019675D02*
X029450Y019675D01*
X029450Y019792D02*
X029950Y019792D01*
X029950Y019908D02*
X029422Y019908D01*
X029358Y020025D02*
X029950Y020025D01*
X029950Y020142D02*
X029207Y020142D01*
X028839Y020142D02*
X021790Y020142D01*
X021674Y020258D02*
X030006Y020258D01*
X029950Y019442D02*
X029919Y019442D01*
X029988Y018789D02*
X029819Y018620D01*
X029535Y018620D01*
X029850Y018383D02*
X029916Y018383D01*
X029950Y018418D01*
X029950Y018025D01*
X030054Y017921D01*
X030578Y017921D01*
X030578Y015593D01*
X031151Y015020D01*
X031031Y014970D01*
X030911Y014850D01*
X030909Y014844D01*
X030788Y014844D01*
X030620Y014677D01*
X029614Y014677D01*
X029614Y015736D01*
X029510Y015840D01*
X029279Y015840D01*
X029279Y016052D01*
X029292Y016065D01*
X029300Y016057D01*
X029336Y016036D01*
X029376Y016026D01*
X029525Y016026D01*
X029525Y016352D01*
X029545Y016352D01*
X029545Y016372D01*
X029525Y016372D01*
X029525Y016698D01*
X029376Y016698D01*
X029336Y016687D01*
X029300Y016666D01*
X029292Y016659D01*
X029259Y016691D01*
X029259Y018290D01*
X029279Y018310D01*
X029324Y018265D01*
X029746Y018265D01*
X029850Y018369D01*
X029850Y018383D01*
X029925Y018392D02*
X029950Y018392D01*
X029950Y018276D02*
X029757Y018276D01*
X029858Y018277D02*
X029669Y018088D01*
X029858Y018277D02*
X030323Y018277D01*
X029950Y018159D02*
X029259Y018159D01*
X029259Y018043D02*
X029950Y018043D01*
X030049Y017926D02*
X029259Y017926D01*
X029259Y017809D02*
X030578Y017809D01*
X030578Y017693D02*
X029259Y017693D01*
X029259Y017576D02*
X030578Y017576D01*
X030578Y017460D02*
X029259Y017460D01*
X029259Y017343D02*
X030578Y017343D01*
X030578Y017226D02*
X029259Y017226D01*
X029259Y017110D02*
X030578Y017110D01*
X030578Y016993D02*
X029259Y016993D01*
X029259Y016877D02*
X030578Y016877D01*
X030578Y016760D02*
X029259Y016760D01*
X029525Y016643D02*
X029545Y016643D01*
X029545Y016698D02*
X029545Y016372D01*
X029832Y016372D01*
X029832Y016560D01*
X029821Y016600D01*
X029800Y016637D01*
X029770Y016666D01*
X029734Y016687D01*
X029694Y016698D01*
X029545Y016698D01*
X029545Y016527D02*
X029525Y016527D01*
X029525Y016410D02*
X029545Y016410D01*
X029545Y016352D02*
X029832Y016352D01*
X029832Y016164D01*
X029821Y016123D01*
X029800Y016087D01*
X029770Y016057D01*
X029734Y016036D01*
X029694Y016026D01*
X029545Y016026D01*
X029545Y016352D01*
X029545Y016293D02*
X029525Y016293D01*
X029525Y016177D02*
X029545Y016177D01*
X029545Y016060D02*
X029525Y016060D01*
X029297Y016060D02*
X029287Y016060D01*
X029279Y015944D02*
X030578Y015944D01*
X030578Y016060D02*
X029773Y016060D01*
X029832Y016177D02*
X030578Y016177D01*
X030578Y016293D02*
X029832Y016293D01*
X029832Y016410D02*
X030578Y016410D01*
X030578Y016527D02*
X029832Y016527D01*
X029793Y016643D02*
X030578Y016643D01*
X030578Y015827D02*
X029523Y015827D01*
X029614Y015710D02*
X030578Y015710D01*
X030578Y015594D02*
X029614Y015594D01*
X029614Y015477D02*
X030694Y015477D01*
X030810Y015361D02*
X029614Y015361D01*
X029614Y015244D02*
X030927Y015244D01*
X031044Y015127D02*
X029614Y015127D01*
X029614Y015011D02*
X031130Y015011D01*
X030955Y014894D02*
X029614Y014894D01*
X029614Y014778D02*
X030721Y014778D01*
X030885Y014608D02*
X030718Y014441D01*
X029462Y014441D01*
X029460Y014443D01*
X029023Y014443D01*
X029023Y014187D02*
X029539Y014187D01*
X029535Y014183D01*
X029535Y014181D01*
X031720Y014181D01*
X032023Y014482D02*
X032147Y014358D01*
X032147Y014004D01*
X031470Y013326D01*
X030978Y013326D01*
X030630Y013675D01*
X029023Y013675D01*
X029023Y013931D02*
X029616Y013931D01*
X030708Y013931D01*
X030885Y013754D01*
X031273Y013754D01*
X031569Y013090D02*
X030880Y013090D01*
X030551Y013419D01*
X029023Y013419D01*
X029023Y013163D02*
X029502Y013163D01*
X029673Y012992D01*
X030061Y012992D01*
X030480Y012992D01*
X030736Y012736D01*
X031017Y012736D01*
X030742Y012445D02*
X029834Y012445D01*
X029630Y012445D02*
X028669Y012445D01*
X028669Y012562D02*
X030576Y012562D01*
X030459Y012679D02*
X030352Y012679D01*
X029770Y012679D02*
X028669Y012679D01*
X028719Y012329D02*
X029431Y012329D01*
X029516Y012795D02*
X029535Y012795D01*
X029616Y013931D02*
X029618Y013931D01*
X030885Y014608D02*
X031273Y014608D01*
X032023Y014482D02*
X030815Y015691D01*
X030815Y018635D01*
X030661Y018789D01*
X030323Y018789D01*
X029988Y018789D01*
X029313Y018276D02*
X029259Y018276D01*
X029023Y018620D02*
X029023Y016362D01*
X028739Y016643D02*
X026965Y016643D01*
X026937Y016760D02*
X028787Y016760D01*
X028787Y016877D02*
X026937Y016877D01*
X026937Y016993D02*
X028787Y016993D01*
X028787Y017110D02*
X026927Y017110D01*
X026851Y017226D02*
X028787Y017226D01*
X028787Y017343D02*
X026735Y017343D01*
X026618Y017460D02*
X028787Y017460D01*
X028787Y017576D02*
X026501Y017576D01*
X026385Y017693D02*
X028787Y017693D01*
X028787Y017809D02*
X026268Y017809D01*
X026152Y017926D02*
X028787Y017926D01*
X028787Y018043D02*
X026035Y018043D01*
X025918Y018159D02*
X028787Y018159D01*
X028787Y018276D02*
X025802Y018276D01*
X025685Y018392D02*
X028708Y018392D01*
X028708Y018509D02*
X025569Y018509D01*
X025452Y018626D02*
X028708Y018626D01*
X028708Y018742D02*
X023190Y018742D01*
X023073Y018859D02*
X028708Y018859D01*
X028708Y018976D02*
X022956Y018976D01*
X022840Y019092D02*
X028708Y019092D01*
X028708Y019209D02*
X022723Y019209D01*
X022607Y019325D02*
X028708Y019325D01*
X028708Y019442D02*
X022490Y019442D01*
X022373Y019559D02*
X028642Y019559D01*
X028596Y019675D02*
X022257Y019675D01*
X022140Y019792D02*
X028596Y019792D01*
X028624Y019908D02*
X022024Y019908D01*
X021907Y020025D02*
X028689Y020025D01*
X029023Y019756D02*
X029023Y019210D01*
X029023Y018620D01*
X031421Y020570D02*
X031421Y021151D01*
X031230Y021342D01*
X031230Y021698D01*
X031669Y022137D01*
X033344Y023290D02*
X037013Y023290D01*
X037013Y023407D02*
X035082Y023407D01*
X035074Y023399D02*
X035191Y023515D01*
X035254Y023667D01*
X035254Y023832D01*
X035191Y023984D01*
X035074Y024100D01*
X034922Y024163D01*
X034758Y024163D01*
X034606Y024100D01*
X034490Y023984D01*
X034427Y023832D01*
X034427Y023667D01*
X034490Y023515D01*
X034606Y023399D01*
X034758Y023336D01*
X034922Y023336D01*
X035074Y023399D01*
X035194Y023523D02*
X037013Y023523D01*
X037013Y023640D02*
X035242Y023640D01*
X035254Y023757D02*
X037013Y023757D01*
X037013Y023873D02*
X035236Y023873D01*
X035185Y023990D02*
X037013Y023990D01*
X037013Y024106D02*
X035059Y024106D01*
X034621Y024106D02*
X033344Y024106D01*
X033344Y023990D02*
X034496Y023990D01*
X034444Y023873D02*
X033344Y023873D01*
X033344Y023757D02*
X034427Y023757D01*
X034438Y023640D02*
X033344Y023640D01*
X033344Y023523D02*
X034486Y023523D01*
X034598Y023407D02*
X033344Y023407D01*
X033344Y024223D02*
X037013Y024223D01*
X037013Y024340D02*
X033344Y024340D01*
X033344Y024456D02*
X037013Y024456D01*
X037013Y024573D02*
X033344Y024573D01*
X033344Y024689D02*
X037013Y024689D01*
X037013Y024806D02*
X033344Y024806D01*
X033344Y024923D02*
X037013Y024923D01*
X037013Y025039D02*
X033344Y025039D01*
X033344Y025156D02*
X037013Y025156D01*
X037013Y025272D02*
X033344Y025272D01*
X033344Y025389D02*
X034597Y025389D01*
X034598Y025387D02*
X034755Y025322D01*
X034925Y025322D01*
X035082Y025387D01*
X035202Y025508D01*
X035267Y025665D01*
X035267Y025835D01*
X035202Y025992D01*
X035082Y026112D01*
X034925Y026177D01*
X034755Y026177D01*
X034598Y026112D01*
X034478Y025992D01*
X034413Y025835D01*
X034413Y025665D01*
X034478Y025508D01*
X034598Y025387D01*
X034480Y025506D02*
X033344Y025506D01*
X033344Y025622D02*
X034431Y025622D01*
X034413Y025739D02*
X033344Y025739D01*
X033344Y025856D02*
X034422Y025856D01*
X034470Y025972D02*
X033344Y025972D01*
X033344Y026089D02*
X034575Y026089D01*
X034758Y026336D02*
X034922Y026336D01*
X035074Y026399D01*
X035191Y026515D01*
X035254Y026667D01*
X035254Y026832D01*
X035191Y026984D01*
X035074Y027100D01*
X034922Y027163D01*
X034758Y027163D01*
X034606Y027100D01*
X034490Y026984D01*
X034427Y026832D01*
X034427Y026667D01*
X034490Y026515D01*
X034606Y026399D01*
X034758Y026336D01*
X034567Y026439D02*
X033344Y026439D01*
X033344Y026555D02*
X034473Y026555D01*
X034427Y026672D02*
X033344Y026672D01*
X033344Y026788D02*
X034427Y026788D01*
X034457Y026905D02*
X033344Y026905D01*
X033344Y027022D02*
X034528Y027022D01*
X034698Y027138D02*
X033344Y027138D01*
X033344Y027255D02*
X037013Y027255D01*
X037013Y027371D02*
X036007Y027371D01*
X036074Y027399D02*
X035922Y027336D01*
X035758Y027336D01*
X035606Y027399D01*
X035490Y027515D01*
X035427Y027667D01*
X035427Y027832D01*
X035490Y027984D01*
X035606Y028100D01*
X035758Y028163D01*
X035922Y028163D01*
X036074Y028100D01*
X036191Y027984D01*
X036254Y027832D01*
X036254Y027667D01*
X036191Y027515D01*
X036074Y027399D01*
X036163Y027488D02*
X037013Y027488D01*
X037013Y027605D02*
X036228Y027605D01*
X036254Y027721D02*
X037013Y027721D01*
X037013Y027838D02*
X036251Y027838D01*
X036203Y027955D02*
X037013Y027955D01*
X037013Y028071D02*
X036103Y028071D01*
X035922Y028336D02*
X036074Y028399D01*
X036191Y028515D01*
X036254Y028667D01*
X036254Y028832D01*
X036191Y028984D01*
X036074Y029100D01*
X035922Y029163D01*
X035758Y029163D01*
X035606Y029100D01*
X035490Y028984D01*
X035427Y028832D01*
X035427Y028667D01*
X035490Y028515D01*
X035606Y028399D01*
X035758Y028336D01*
X035922Y028336D01*
X036096Y028421D02*
X037013Y028421D01*
X037013Y028538D02*
X036200Y028538D01*
X036248Y028654D02*
X037013Y028654D01*
X037013Y028771D02*
X036254Y028771D01*
X036231Y028887D02*
X037013Y028887D01*
X037013Y029004D02*
X036170Y029004D01*
X036025Y029121D02*
X037013Y029121D01*
X037013Y029237D02*
X032338Y029237D01*
X032455Y029121D02*
X035656Y029121D01*
X035510Y029004D02*
X032571Y029004D01*
X032688Y028887D02*
X035450Y028887D01*
X035427Y028771D02*
X032805Y028771D01*
X032921Y028654D02*
X035432Y028654D01*
X035481Y028538D02*
X033038Y028538D01*
X033154Y028421D02*
X035584Y028421D01*
X035577Y028071D02*
X035103Y028071D01*
X035074Y028100D02*
X034922Y028163D01*
X034758Y028163D01*
X034606Y028100D01*
X034490Y027984D01*
X034427Y027832D01*
X034427Y027667D01*
X034490Y027515D01*
X034606Y027399D01*
X034758Y027336D01*
X034922Y027336D01*
X035074Y027399D01*
X035191Y027515D01*
X035254Y027667D01*
X035254Y027832D01*
X035191Y027984D01*
X035074Y028100D01*
X035203Y027955D02*
X035478Y027955D01*
X035429Y027838D02*
X035251Y027838D01*
X035254Y027721D02*
X035427Y027721D01*
X035453Y027605D02*
X035228Y027605D01*
X035163Y027488D02*
X035517Y027488D01*
X035673Y027371D02*
X035007Y027371D01*
X034982Y027138D02*
X037013Y027138D01*
X037013Y027022D02*
X035153Y027022D01*
X035223Y026905D02*
X037013Y026905D01*
X037013Y026788D02*
X035254Y026788D01*
X035254Y026672D02*
X037013Y026672D01*
X037013Y026555D02*
X035207Y026555D01*
X035114Y026439D02*
X037013Y026439D01*
X037013Y026322D02*
X033344Y026322D01*
X033344Y026205D02*
X037013Y026205D01*
X037013Y026089D02*
X035105Y026089D01*
X035210Y025972D02*
X037013Y025972D01*
X037013Y025856D02*
X035259Y025856D01*
X035267Y025739D02*
X037013Y025739D01*
X037013Y025622D02*
X035250Y025622D01*
X035200Y025506D02*
X037013Y025506D01*
X037013Y025389D02*
X035084Y025389D01*
X034673Y027371D02*
X033344Y027371D01*
X033344Y027488D02*
X034517Y027488D01*
X034453Y027605D02*
X033344Y027605D01*
X033344Y027721D02*
X034427Y027721D01*
X034429Y027838D02*
X033344Y027838D01*
X033344Y027955D02*
X034478Y027955D01*
X034577Y028071D02*
X033344Y028071D01*
X033344Y028188D02*
X037013Y028188D01*
X037013Y028304D02*
X033271Y028304D01*
X032222Y029354D02*
X035715Y029354D01*
X035758Y029336D02*
X035922Y029336D01*
X036074Y029399D01*
X036191Y029515D01*
X036254Y029667D01*
X036254Y029832D01*
X036191Y029984D01*
X036074Y030100D01*
X035922Y030163D01*
X035758Y030163D01*
X035606Y030100D01*
X035490Y029984D01*
X035427Y029832D01*
X035427Y029667D01*
X035490Y029515D01*
X035606Y029399D01*
X035758Y029336D01*
X035965Y029354D02*
X037013Y029354D01*
X037013Y029470D02*
X036146Y029470D01*
X036220Y029587D02*
X037013Y029587D01*
X037013Y029704D02*
X036254Y029704D01*
X036254Y029820D02*
X037013Y029820D01*
X037013Y029937D02*
X036210Y029937D01*
X036121Y030054D02*
X037013Y030054D01*
X037013Y030170D02*
X031405Y030170D01*
X031289Y030287D02*
X037013Y030287D01*
X037013Y030403D02*
X036033Y030403D01*
X036027Y030399D02*
X036092Y030443D01*
X036147Y030498D01*
X036190Y030562D01*
X036220Y030634D01*
X036235Y030711D01*
X036235Y030730D01*
X035860Y030730D01*
X035860Y030354D01*
X035879Y030354D01*
X035955Y030370D01*
X036027Y030399D01*
X035860Y030403D02*
X035820Y030403D01*
X035820Y030520D02*
X035860Y030520D01*
X035860Y030637D02*
X035820Y030637D01*
X035860Y030753D02*
X037013Y030753D01*
X037013Y030637D02*
X036221Y030637D01*
X036162Y030520D02*
X037013Y030520D01*
X037013Y030870D02*
X036218Y030870D01*
X036157Y030986D02*
X037013Y030986D01*
X035647Y030403D02*
X035079Y030403D01*
X035192Y030520D02*
X035518Y030520D01*
X035460Y030637D02*
X035241Y030637D01*
X035559Y030054D02*
X031522Y030054D01*
X031639Y029937D02*
X035470Y029937D01*
X035427Y029820D02*
X031755Y029820D01*
X031872Y029704D02*
X035427Y029704D01*
X035460Y029587D02*
X031988Y029587D01*
X032105Y029470D02*
X035535Y029470D01*
X034602Y030403D02*
X031172Y030403D01*
X031055Y030520D02*
X034488Y030520D01*
X034440Y030637D02*
X030939Y030637D01*
X030822Y030753D02*
X034427Y030753D01*
X034442Y030870D02*
X030706Y030870D01*
X030589Y030986D02*
X034492Y030986D01*
X034613Y031103D02*
X030472Y031103D01*
X030123Y031453D02*
X034552Y031453D01*
X034467Y031569D02*
X030006Y031569D01*
X027717Y032036D02*
X034542Y032036D01*
X034463Y031919D02*
X027619Y031919D01*
X027502Y031803D02*
X034427Y031803D01*
X034427Y031686D02*
X027319Y031686D01*
X022059Y027838D02*
X021771Y027838D01*
X021734Y027721D02*
X022059Y027721D01*
X022059Y027605D02*
X021663Y027605D01*
X021533Y027488D02*
X022059Y027488D01*
X022059Y027371D02*
X012944Y027371D01*
X013007Y027255D02*
X022059Y027255D01*
X021291Y027488D02*
X021193Y027488D01*
X021193Y027605D02*
X021291Y027605D01*
X021291Y027721D02*
X021193Y027721D01*
X021193Y027838D02*
X021291Y027838D01*
X020950Y027488D02*
X020591Y027488D01*
X020708Y027605D02*
X020821Y027605D01*
X022059Y026205D02*
X014274Y026205D01*
X014232Y026322D02*
X014633Y026322D01*
X014481Y026439D02*
X014156Y026439D01*
X013988Y026555D02*
X014414Y026555D01*
X013645Y026555D02*
X013425Y026555D01*
X013500Y025739D02*
X013570Y025739D01*
X013007Y025739D02*
X008062Y025739D01*
X008065Y025856D02*
X010225Y025856D01*
X010108Y025972D02*
X008068Y025972D01*
X008071Y026089D02*
X009992Y026089D01*
X009875Y026205D02*
X008074Y026205D01*
X008077Y026322D02*
X009759Y026322D01*
X009642Y026439D02*
X008079Y026439D01*
X008082Y026555D02*
X009525Y026555D01*
X009409Y026672D02*
X008085Y026672D01*
X008088Y026788D02*
X009292Y026788D01*
X008091Y026905D02*
X008276Y028543D01*
X008323Y028771D02*
X009216Y028771D01*
X009216Y028887D02*
X008347Y028887D01*
X008370Y029004D02*
X009216Y029004D01*
X009216Y029121D02*
X008394Y029121D01*
X008418Y029237D02*
X009222Y029237D01*
X009270Y029354D02*
X008442Y029354D01*
X008465Y029470D02*
X009382Y029470D01*
X009499Y029587D02*
X008489Y029587D01*
X008513Y029704D02*
X009506Y029704D01*
X009506Y029820D02*
X008537Y029820D01*
X008560Y029937D02*
X009506Y029937D01*
X009472Y030054D02*
X008584Y030054D01*
X008609Y030170D02*
X009452Y030170D01*
X009459Y030287D02*
X008644Y030287D01*
X008678Y030403D02*
X009506Y030403D01*
X009506Y030520D02*
X008713Y030520D01*
X008748Y030637D02*
X009506Y030637D01*
X009506Y030753D02*
X008782Y030753D01*
X008817Y030870D02*
X009483Y030870D01*
X009452Y030986D02*
X008852Y030986D01*
X008886Y031103D02*
X009452Y031103D01*
X009427Y031220D02*
X008921Y031220D01*
X008956Y031336D02*
X009326Y031336D01*
X009326Y031453D02*
X008990Y031453D01*
X009025Y031569D02*
X009326Y031569D01*
X009326Y031686D02*
X009060Y031686D01*
X009101Y031803D02*
X009326Y031803D01*
X009326Y031919D02*
X009147Y031919D01*
X009193Y032036D02*
X009344Y032036D01*
X009239Y032153D02*
X010468Y032153D01*
X010467Y032160D02*
X010477Y032119D01*
X010498Y032083D01*
X010528Y032053D01*
X010564Y032032D01*
X010605Y032022D01*
X010754Y032022D01*
X010754Y032348D01*
X010467Y032348D01*
X010467Y032160D01*
X010467Y032269D02*
X009285Y032269D01*
X009332Y032386D02*
X010467Y032386D01*
X010467Y032502D02*
X009378Y032502D01*
X009424Y032619D02*
X010490Y032619D01*
X010754Y032619D02*
X010773Y032619D01*
X010773Y032502D02*
X010754Y032502D01*
X010754Y032386D02*
X010773Y032386D01*
X010773Y032269D02*
X010754Y032269D01*
X010754Y032153D02*
X010773Y032153D01*
X010773Y032036D02*
X010754Y032036D01*
X010822Y031919D02*
X010232Y031919D01*
X010232Y031803D02*
X010822Y031803D01*
X010822Y031686D02*
X010254Y031686D01*
X010254Y031569D02*
X010822Y031569D01*
X010822Y031453D02*
X010254Y031453D01*
X010254Y031336D02*
X010822Y031336D01*
X010877Y031220D02*
X010263Y031220D01*
X010307Y031103D02*
X010760Y031103D01*
X010643Y030986D02*
X010307Y030986D01*
X010276Y030870D02*
X010590Y030870D01*
X010586Y030753D02*
X010254Y030753D01*
X010254Y030637D02*
X010527Y030637D01*
X010527Y030520D02*
X010254Y030520D01*
X010254Y030403D02*
X010527Y030403D01*
X010527Y030287D02*
X010300Y030287D01*
X010307Y030170D02*
X010527Y030170D01*
X010527Y030054D02*
X010287Y030054D01*
X010254Y029937D02*
X010546Y029937D01*
X010254Y029820D02*
X010934Y029820D01*
X010901Y029704D02*
X010254Y029704D01*
X010254Y029587D02*
X010901Y029587D01*
X010901Y029470D02*
X010254Y029470D01*
X010249Y029354D02*
X010901Y029354D01*
X010901Y029237D02*
X010201Y029237D01*
X010091Y029121D02*
X010901Y029121D01*
X010651Y029004D02*
X009974Y029004D01*
X009590Y028691D02*
X010903Y028691D01*
X010607Y028421D02*
X009964Y028421D01*
X011515Y027588D02*
X012118Y027588D01*
X012204Y027138D02*
X011754Y027138D01*
X012630Y027049D02*
X012630Y027588D01*
X011712Y028771D02*
X013713Y028771D01*
X013597Y028887D02*
X011712Y028887D01*
X011635Y029004D02*
X013480Y029004D01*
X013955Y029587D02*
X013965Y029587D01*
X014071Y029470D02*
X016706Y029470D01*
X016685Y029587D02*
X014522Y029587D01*
X014653Y029704D02*
X016682Y029704D01*
X016565Y029820D02*
X014659Y029820D01*
X014659Y029937D02*
X016449Y029937D01*
X016332Y030054D02*
X014303Y030054D01*
X014303Y029982D02*
X014303Y029587D01*
X014303Y029704D02*
X014185Y029704D01*
X014185Y029820D02*
X014303Y029820D01*
X014303Y029937D02*
X014185Y029937D01*
X014185Y029982D02*
X014303Y029982D01*
X014185Y029982D02*
X014185Y029587D01*
X014188Y029354D02*
X016762Y029354D01*
X017000Y030054D02*
X020021Y030054D01*
X020021Y029937D02*
X017387Y029937D01*
X017486Y029820D02*
X020021Y029820D01*
X020021Y029704D02*
X017534Y029704D01*
X016884Y030170D02*
X020121Y030170D01*
X020238Y030287D02*
X016767Y030287D01*
X016650Y030403D02*
X020355Y030403D01*
X020471Y030520D02*
X016534Y030520D01*
X016215Y030170D02*
X014659Y030170D01*
X014659Y030287D02*
X016099Y030287D01*
X015600Y030773D02*
X015385Y030773D01*
X015385Y030891D01*
X015582Y030891D01*
X015582Y030798D01*
X015600Y030780D01*
X015600Y030773D01*
X015582Y030870D02*
X015385Y030870D01*
X015385Y030986D02*
X015267Y030986D01*
X015267Y030870D02*
X015070Y030870D01*
X015267Y030753D02*
X015385Y030753D01*
X015385Y030637D02*
X015267Y030637D01*
X015267Y030520D02*
X015385Y030520D01*
X015385Y030403D02*
X015267Y030403D01*
X014696Y030537D02*
X014074Y030539D01*
X013976Y030637D01*
X014074Y030736D01*
X014696Y030734D01*
X014696Y030931D02*
X014356Y030931D01*
X014257Y031029D01*
X014356Y031128D01*
X014696Y031128D01*
X014994Y031336D02*
X015659Y031336D01*
X015385Y031220D02*
X015267Y031220D01*
X015267Y031103D02*
X015385Y031103D01*
X015956Y031128D02*
X016295Y031128D01*
X016448Y031281D01*
X016448Y031939D01*
X016213Y032269D02*
X016117Y032269D01*
X015946Y032269D02*
X015927Y032269D01*
X015927Y032153D02*
X015946Y032153D01*
X015946Y032036D02*
X015927Y032036D01*
X015927Y031919D02*
X015946Y031919D01*
X015946Y031803D02*
X015927Y031803D01*
X015927Y031686D02*
X015946Y031686D01*
X016212Y031569D02*
X013672Y031569D01*
X013672Y031453D02*
X016212Y031453D01*
X014231Y031336D02*
X013691Y031336D01*
X012764Y031453D02*
X012648Y031453D01*
X012461Y031453D02*
X012148Y031453D01*
X011961Y031453D02*
X011728Y031453D01*
X011728Y031336D02*
X011758Y031336D01*
X011649Y031029D02*
X012055Y031029D01*
X011649Y031029D02*
X011649Y030305D01*
X012023Y030287D02*
X013141Y030287D01*
X013141Y030403D02*
X012023Y030403D01*
X012023Y030520D02*
X013302Y030520D01*
X013300Y030513D02*
X013245Y030513D01*
X013141Y030410D01*
X013141Y029813D01*
X011624Y029813D01*
X011585Y029852D01*
X011919Y029852D01*
X012023Y029956D01*
X012023Y030602D01*
X012140Y030602D01*
X012297Y030667D01*
X012305Y030675D01*
X012313Y030667D01*
X012470Y030602D01*
X012640Y030602D01*
X012784Y030662D01*
X012849Y030596D01*
X013334Y030596D01*
X013300Y030513D01*
X013141Y030170D02*
X012023Y030170D01*
X012023Y030054D02*
X013141Y030054D01*
X013141Y029937D02*
X012004Y029937D01*
X011616Y029820D02*
X013141Y029820D01*
X012809Y030637D02*
X012723Y030637D01*
X012386Y030637D02*
X012223Y030637D01*
X010558Y032036D02*
X010214Y032036D01*
X010901Y032736D02*
X009470Y032736D01*
X009516Y032852D02*
X010901Y032852D01*
X010538Y033435D02*
X009765Y033435D01*
X009823Y033552D02*
X010527Y033552D01*
X010527Y033668D02*
X009882Y033668D01*
X009940Y033785D02*
X010527Y033785D01*
X010527Y033902D02*
X009999Y033902D01*
X010057Y034018D02*
X010527Y034018D01*
X010527Y034135D02*
X010116Y034135D01*
X010174Y034251D02*
X010586Y034251D01*
X010586Y034368D02*
X010233Y034368D01*
X010291Y034485D02*
X010586Y034485D01*
X010586Y034601D02*
X010350Y034601D01*
X010408Y034718D02*
X010586Y034718D01*
X010645Y034835D02*
X010478Y034835D01*
X010550Y034951D02*
X010677Y034951D01*
X010622Y035068D02*
X010783Y035068D01*
X010694Y035184D02*
X010899Y035184D01*
X012809Y034135D02*
X012809Y034135D01*
X012809Y034018D02*
X012809Y034018D01*
X012809Y033902D02*
X012809Y033902D01*
X012809Y033785D02*
X012809Y033785D01*
X012809Y033668D02*
X012809Y033668D01*
X012809Y033552D02*
X012809Y033552D01*
X012798Y033435D02*
X012819Y033435D01*
X013439Y034251D02*
X013591Y034251D01*
X013549Y034368D02*
X013439Y034368D01*
X013439Y034485D02*
X013549Y034485D01*
X013549Y034601D02*
X013439Y034601D01*
X013439Y034718D02*
X013545Y034718D01*
X013545Y034835D02*
X013439Y034835D01*
X013439Y034951D02*
X013545Y034951D01*
X013545Y035068D02*
X013394Y035068D01*
X013277Y035184D02*
X013545Y035184D01*
X013545Y035301D02*
X013189Y035301D01*
X013189Y035418D02*
X013545Y035418D01*
X013571Y035534D02*
X013189Y035534D01*
X013823Y033202D02*
X014146Y033202D01*
X014030Y033085D02*
X013889Y033085D01*
X017608Y036700D02*
X017824Y036700D01*
X017823Y036696D02*
X017823Y036616D01*
X017826Y036616D01*
X017826Y036616D01*
X017693Y036616D01*
X017076Y037232D01*
X017076Y037437D01*
X017342Y037437D01*
X017342Y037631D01*
X017460Y037631D01*
X017460Y037437D01*
X017726Y037437D01*
X017726Y036846D01*
X017826Y036746D01*
X017826Y036709D01*
X017823Y036696D01*
X017755Y036817D02*
X017491Y036817D01*
X017375Y036934D02*
X017726Y036934D01*
X017726Y037050D02*
X017258Y037050D01*
X017142Y037167D02*
X017726Y037167D01*
X017726Y037283D02*
X017076Y037283D01*
X017076Y037400D02*
X017726Y037400D01*
X017460Y037517D02*
X017342Y037517D01*
X016840Y038100D02*
X016824Y038100D01*
X016840Y038216D02*
X014025Y038216D01*
X014142Y038333D02*
X016840Y038333D01*
X016840Y038449D02*
X014258Y038449D01*
X014375Y038566D02*
X016840Y038566D01*
X016869Y038683D02*
X014491Y038683D01*
X014608Y038799D02*
X017001Y038799D01*
X016974Y038916D02*
X014725Y038916D01*
X014841Y039033D02*
X016974Y039033D01*
X017022Y039149D02*
X014958Y039149D01*
X015074Y039266D02*
X017114Y039266D01*
X016616Y037866D02*
X013785Y037866D01*
X013785Y037750D02*
X016616Y037750D01*
X018543Y036117D02*
X018661Y036117D01*
X018661Y036001D02*
X018543Y036001D01*
X018543Y035884D02*
X018661Y035884D01*
X018661Y035767D02*
X018543Y035767D01*
X018543Y035651D02*
X018661Y035651D01*
X018661Y035534D02*
X018543Y035534D01*
X018543Y035418D02*
X018661Y035418D01*
X020117Y036350D02*
X020337Y036350D01*
X020337Y036234D02*
X020187Y036234D01*
X020187Y036117D02*
X020395Y036117D01*
X020337Y036467D02*
X020264Y036467D01*
X020354Y036891D02*
X020673Y036891D01*
X020671Y036893D01*
X020671Y037326D01*
X020159Y037326D02*
X019653Y037326D01*
X019356Y037633D02*
X019145Y037633D01*
X022059Y026089D02*
X016015Y026089D01*
X016131Y025972D02*
X022059Y025972D01*
X022059Y025856D02*
X016200Y025856D01*
X016248Y025739D02*
X022059Y025739D01*
X022059Y025622D02*
X016252Y025622D01*
X016251Y025506D02*
X022059Y025506D01*
X022059Y025389D02*
X016202Y025389D01*
X016137Y025272D02*
X022059Y025272D01*
X022059Y025156D02*
X016020Y025156D01*
X012403Y023990D02*
X012345Y023990D01*
X012118Y023651D02*
X011515Y023651D01*
X011159Y023290D02*
X010846Y023290D01*
X010940Y023407D02*
X011068Y023407D01*
X011019Y023523D02*
X010988Y023523D01*
X011004Y023640D02*
X011008Y023640D01*
X010994Y023757D02*
X011010Y023757D01*
X011058Y023873D02*
X010951Y023873D01*
X010868Y023990D02*
X011137Y023990D01*
X011343Y023173D02*
X010626Y023173D01*
X010115Y022241D02*
X018968Y022241D01*
X019084Y022124D02*
X010248Y022124D01*
X010365Y022007D02*
X012455Y022007D01*
X012436Y021999D02*
X012361Y021956D01*
X012293Y021904D01*
X012231Y021843D01*
X012179Y021774D01*
X012136Y021699D01*
X012103Y021619D01*
X012080Y021536D01*
X012071Y021466D01*
X012669Y021466D01*
X012669Y022064D01*
X012599Y022055D01*
X012516Y022032D01*
X012436Y021999D01*
X012280Y021891D02*
X010434Y021891D01*
X010502Y021774D02*
X012179Y021774D01*
X012118Y021658D02*
X010544Y021658D01*
X010575Y021541D02*
X012082Y021541D01*
X012076Y021308D02*
X010602Y021308D01*
X010602Y021424D02*
X012669Y021424D01*
X012669Y021308D02*
X012787Y021308D01*
X012787Y021424D02*
X014677Y021424D01*
X014677Y021466D02*
X014079Y021466D01*
X014088Y021536D01*
X014110Y021619D01*
X014089Y021541D02*
X013374Y021541D01*
X013380Y021308D02*
X014084Y021308D01*
X014112Y021191D02*
X013352Y021191D01*
X013297Y021075D02*
X013583Y021075D01*
X013329Y020958D02*
X013211Y020958D01*
X013212Y020841D02*
X013066Y020841D01*
X013132Y020725D02*
X010456Y020725D01*
X010523Y020841D02*
X010602Y021136D01*
X010389Y020608D02*
X013084Y020608D01*
X013055Y020491D02*
X010286Y020491D01*
X010169Y020375D02*
X013055Y020375D01*
X013059Y020258D02*
X009978Y020258D01*
X009646Y020142D02*
X013107Y020142D01*
X013156Y020025D02*
X012939Y020025D01*
X012787Y020025D02*
X012669Y020025D01*
X012669Y020056D02*
X012599Y020047D01*
X012516Y020025D01*
X012436Y019992D01*
X012361Y019948D01*
X012293Y019896D01*
X012231Y019835D01*
X012179Y019766D01*
X012136Y019691D01*
X012103Y019612D01*
X012080Y019528D01*
X012071Y019458D01*
X012669Y019458D01*
X012669Y020056D01*
X012669Y019908D02*
X012787Y019908D01*
X012787Y019792D02*
X012669Y019792D01*
X012669Y019675D02*
X012787Y019675D01*
X012787Y019559D02*
X012669Y019559D01*
X012669Y019442D02*
X009114Y019442D01*
X009074Y019559D02*
X012088Y019559D01*
X012129Y019675D02*
X009035Y019675D01*
X008995Y019792D02*
X012198Y019792D01*
X012309Y019908D02*
X008955Y019908D01*
X008916Y020025D02*
X012517Y020025D01*
X013147Y019908D02*
X013269Y019908D01*
X013258Y019792D02*
X013438Y019792D01*
X013327Y019675D02*
X014137Y019675D01*
X014096Y019559D02*
X013368Y019559D01*
X013383Y019325D02*
X014081Y019325D01*
X014105Y019209D02*
X013359Y019209D01*
X013312Y019092D02*
X014152Y019092D01*
X014230Y018976D02*
X013234Y018976D01*
X013106Y018859D02*
X014357Y018859D01*
X014677Y018859D02*
X014795Y018859D01*
X014795Y018976D02*
X014677Y018976D01*
X014677Y019092D02*
X014795Y019092D01*
X014795Y019209D02*
X014677Y019209D01*
X014677Y019325D02*
X014795Y019325D01*
X014677Y019442D02*
X012787Y019442D01*
X012787Y019325D02*
X012669Y019325D01*
X012669Y019209D02*
X012787Y019209D01*
X012787Y019092D02*
X012669Y019092D01*
X012669Y018976D02*
X012787Y018976D01*
X012787Y018859D02*
X012669Y018859D01*
X012350Y018859D02*
X009312Y018859D01*
X009272Y018976D02*
X012222Y018976D01*
X012144Y019092D02*
X009233Y019092D01*
X009193Y019209D02*
X012097Y019209D01*
X012073Y019325D02*
X009154Y019325D01*
X009235Y020142D02*
X008876Y020142D01*
X008903Y020258D02*
X008837Y020258D01*
X009913Y022357D02*
X018851Y022357D01*
X017964Y021424D02*
X017866Y021424D01*
X017866Y021308D02*
X017964Y021308D01*
X017964Y021191D02*
X017866Y021191D01*
X017866Y021075D02*
X017964Y021075D01*
X017632Y021075D02*
X017258Y021075D01*
X017375Y021191D02*
X017499Y021191D01*
X016603Y021075D02*
X015305Y021075D01*
X015360Y021191D02*
X016487Y021191D01*
X016422Y021308D02*
X015387Y021308D01*
X015219Y020958D02*
X020250Y020958D01*
X020367Y020841D02*
X015074Y020841D01*
X015167Y020725D02*
X020484Y020725D01*
X020600Y020608D02*
X015443Y020608D01*
X015376Y020656D02*
X015376Y020656D01*
X015604Y020491D02*
X020717Y020491D01*
X020833Y020375D02*
X019168Y020375D01*
X019864Y020088D02*
X020149Y019803D01*
X020149Y019009D01*
X019795Y018976D02*
X019777Y018976D01*
X019777Y019092D02*
X019795Y019092D01*
X019795Y019209D02*
X019757Y019209D01*
X019795Y019325D02*
X019913Y019325D01*
X019795Y018859D02*
X019777Y018859D01*
X019763Y018742D02*
X019828Y018742D01*
X019441Y018946D02*
X018895Y018946D01*
X019519Y018015D02*
X019519Y017096D01*
X016675Y019559D02*
X016130Y019559D01*
X016112Y019675D02*
X016681Y019675D01*
X015350Y019092D02*
X015319Y019092D01*
X015350Y018976D02*
X015241Y018976D01*
X015350Y018859D02*
X015114Y018859D01*
X014206Y019792D02*
X014025Y019792D01*
X014195Y019908D02*
X014317Y019908D01*
X014251Y020841D02*
X014398Y020841D01*
X014253Y020958D02*
X014135Y020958D01*
X014167Y021075D02*
X013881Y021075D01*
X012787Y021075D02*
X012669Y021075D01*
X012669Y021191D02*
X012787Y021191D01*
X012787Y020958D02*
X012669Y020958D01*
X012669Y020841D02*
X012787Y020841D01*
X012787Y021541D02*
X012669Y021541D01*
X012669Y021658D02*
X012787Y021658D01*
X012787Y021774D02*
X012669Y021774D01*
X012669Y021891D02*
X012787Y021891D01*
X012787Y022007D02*
X012669Y022007D01*
X012738Y018159D02*
X013113Y018159D01*
X012996Y018043D02*
X012855Y018043D01*
X013456Y017926D02*
X014154Y017926D01*
X014067Y017809D02*
X013509Y017809D01*
X013550Y017693D02*
X014067Y017693D01*
X014067Y017576D02*
X013546Y017576D01*
X013456Y017460D02*
X014067Y017460D01*
X014067Y017343D02*
X013456Y017343D01*
X013383Y017226D02*
X014067Y017226D01*
X014067Y017110D02*
X011630Y017110D01*
X012775Y017226D02*
X013076Y017226D01*
X013002Y017343D02*
X012892Y017343D01*
X012225Y018159D02*
X012130Y018159D01*
X015307Y012293D02*
X015307Y011293D01*
X015598Y011002D01*
X015491Y010696D02*
X018515Y010696D01*
X018515Y010707D02*
X018515Y010284D01*
X018560Y010240D01*
X018515Y010195D01*
X018515Y009773D01*
X018538Y009750D01*
X018508Y009720D01*
X018443Y009563D01*
X018443Y009393D01*
X018508Y009236D01*
X018628Y009116D01*
X018785Y009051D01*
X018952Y009051D01*
X018952Y008966D01*
X019017Y008809D01*
X019138Y008689D01*
X019295Y008624D01*
X019464Y008624D01*
X019621Y008689D01*
X019742Y008809D01*
X019790Y008925D01*
X019903Y008925D01*
X019903Y009212D01*
X019923Y009212D01*
X019923Y008925D01*
X020111Y008925D01*
X020152Y008936D01*
X020169Y008946D01*
X020186Y008936D01*
X020227Y008925D01*
X020415Y008925D01*
X020415Y009212D01*
X020435Y009212D01*
X020435Y008925D01*
X020623Y008925D01*
X020663Y008936D01*
X020681Y008946D01*
X020698Y008936D01*
X020739Y008925D01*
X021055Y008925D01*
X021055Y009340D01*
X021173Y009340D01*
X021173Y009458D01*
X021627Y009458D01*
X021627Y009735D01*
X021616Y009776D01*
X021595Y009812D01*
X021566Y009841D01*
X021530Y009862D01*
X021489Y009873D01*
X021173Y009873D01*
X021173Y009458D01*
X021055Y009458D01*
X021055Y009873D01*
X020779Y009873D01*
X020779Y009945D01*
X020715Y010009D01*
X021541Y010009D01*
X021645Y010113D01*
X021729Y010113D01*
X021645Y010113D02*
X021645Y010197D01*
X022880Y008962D01*
X022974Y008923D01*
X026203Y008923D01*
X026050Y008834D01*
X025834Y008618D01*
X025681Y008353D01*
X025602Y008058D01*
X025602Y007752D01*
X025681Y007457D01*
X025834Y007192D01*
X026050Y006976D01*
X026136Y006926D01*
X025744Y006930D01*
X024105Y007092D01*
X022486Y007398D01*
X020900Y007845D01*
X019359Y008429D01*
X017876Y009147D01*
X016462Y009993D01*
X015128Y010959D01*
X014566Y011446D01*
X018850Y011446D01*
X018850Y011170D01*
X018772Y011092D01*
X018633Y010954D01*
X018633Y010811D01*
X018619Y010811D01*
X018515Y010707D01*
X018515Y010580D02*
X015652Y010580D01*
X015813Y010463D02*
X018515Y010463D01*
X018515Y010346D02*
X015974Y010346D01*
X016135Y010230D02*
X018550Y010230D01*
X018515Y010113D02*
X016296Y010113D01*
X016457Y009997D02*
X018515Y009997D01*
X018515Y009880D02*
X016651Y009880D01*
X016846Y009763D02*
X018525Y009763D01*
X018477Y009647D02*
X017041Y009647D01*
X017236Y009530D02*
X018443Y009530D01*
X018443Y009413D02*
X017431Y009413D01*
X017626Y009297D02*
X018482Y009297D01*
X018563Y009180D02*
X017821Y009180D01*
X018049Y009064D02*
X018754Y009064D01*
X018960Y008947D02*
X018290Y008947D01*
X018531Y008830D02*
X019008Y008830D01*
X019112Y008714D02*
X018772Y008714D01*
X019013Y008597D02*
X025822Y008597D01*
X025755Y008481D02*
X019254Y008481D01*
X019532Y008364D02*
X025687Y008364D01*
X025653Y008247D02*
X019839Y008247D01*
X020146Y008131D02*
X025621Y008131D01*
X025602Y008014D02*
X020454Y008014D01*
X020761Y007898D02*
X025602Y007898D01*
X025602Y007781D02*
X021127Y007781D01*
X021541Y007664D02*
X025626Y007664D01*
X025657Y007548D02*
X021955Y007548D01*
X022369Y007431D02*
X025696Y007431D01*
X025763Y007314D02*
X022929Y007314D01*
X023546Y007198D02*
X025831Y007198D01*
X025945Y007081D02*
X024218Y007081D01*
X025398Y006965D02*
X026070Y006965D01*
X027457Y006965D02*
X028053Y006965D01*
X027696Y007198D02*
X029973Y007198D01*
X030666Y007314D02*
X027763Y007314D01*
X027831Y007431D02*
X031116Y007431D01*
X031566Y007548D02*
X027870Y007548D01*
X027901Y007664D02*
X032015Y007664D01*
X031787Y007898D02*
X032736Y007898D01*
X033064Y008014D02*
X031904Y008014D01*
X031944Y008131D02*
X033391Y008131D01*
X033719Y008247D02*
X031944Y008247D01*
X031944Y008364D02*
X034004Y008364D01*
X034274Y008481D02*
X031944Y008481D01*
X031944Y008597D02*
X034544Y008597D01*
X034788Y008714D02*
X031944Y008714D01*
X031859Y008830D02*
X035030Y008830D01*
X035264Y008947D02*
X031742Y008947D01*
X031178Y008947D02*
X030827Y008947D01*
X030906Y008830D02*
X031062Y008830D01*
X031115Y008884D02*
X031115Y008884D01*
X030976Y008714D02*
X030906Y008714D01*
X030906Y008597D02*
X030976Y008597D01*
X030976Y008481D02*
X030906Y008481D01*
X030906Y008364D02*
X030976Y008364D01*
X031119Y007898D02*
X031133Y007898D01*
X030218Y007898D02*
X030203Y007898D01*
X029550Y007898D02*
X029535Y007898D01*
X028837Y008364D02*
X027840Y008364D01*
X027874Y008247D02*
X028720Y008247D01*
X028604Y008131D02*
X027905Y008131D01*
X027925Y008014D02*
X028601Y008014D01*
X028634Y007898D02*
X027925Y007898D01*
X027925Y007781D02*
X032408Y007781D01*
X030510Y008947D02*
X030158Y008947D01*
X030275Y008830D02*
X030393Y008830D01*
X029918Y009297D02*
X035894Y009297D01*
X036103Y009413D02*
X030035Y009413D01*
X030151Y009530D02*
X036313Y009530D01*
X036518Y009647D02*
X030268Y009647D01*
X030385Y009763D02*
X036702Y009763D01*
X035684Y009180D02*
X029802Y009180D01*
X029685Y009064D02*
X035474Y009064D01*
X035897Y010813D02*
X037013Y010813D01*
X037013Y010929D02*
X036080Y010929D01*
X036196Y011046D02*
X037013Y011046D01*
X037013Y011163D02*
X036295Y011163D01*
X036362Y011279D02*
X037013Y011279D01*
X037013Y011396D02*
X036426Y011396D01*
X036457Y011512D02*
X037013Y011512D01*
X037013Y011629D02*
X036488Y011629D01*
X036502Y011746D02*
X037013Y011746D01*
X037013Y011862D02*
X036502Y011862D01*
X036502Y011979D02*
X037013Y011979D01*
X037013Y012095D02*
X036472Y012095D01*
X036441Y012212D02*
X037013Y012212D01*
X037013Y012329D02*
X036395Y012329D01*
X036327Y012445D02*
X037013Y012445D01*
X037013Y012562D02*
X036253Y012562D01*
X036136Y012679D02*
X037013Y012679D01*
X037013Y012795D02*
X035995Y012795D01*
X035793Y012912D02*
X037013Y012912D01*
X032383Y013905D02*
X031569Y013090D01*
X029775Y015210D02*
X029023Y015210D01*
X027403Y010463D02*
X022103Y010463D01*
X022220Y010346D02*
X027525Y010346D01*
X027481Y008830D02*
X028686Y008830D01*
X028601Y008714D02*
X027597Y008714D01*
X027705Y008597D02*
X028601Y008597D01*
X028668Y008481D02*
X027772Y008481D01*
X027582Y007081D02*
X029275Y007081D01*
X029547Y008947D02*
X029595Y008947D01*
X029428Y009530D02*
X023036Y009530D01*
X022919Y009647D02*
X029544Y009647D01*
X029661Y009763D02*
X022803Y009763D01*
X022686Y009880D02*
X029777Y009880D01*
X029894Y009997D02*
X022569Y009997D01*
X022453Y010113D02*
X030011Y010113D01*
X030059Y010230D02*
X022336Y010230D01*
X021962Y009880D02*
X020779Y009880D01*
X020728Y009997D02*
X021846Y009997D01*
X021620Y009763D02*
X022079Y009763D01*
X022195Y009647D02*
X021627Y009647D01*
X021627Y009530D02*
X022312Y009530D01*
X022429Y009413D02*
X021173Y009413D01*
X021173Y009340D02*
X021627Y009340D01*
X021627Y009063D01*
X021616Y009023D01*
X021595Y008987D01*
X021566Y008957D01*
X021530Y008936D01*
X021489Y008925D01*
X021173Y008925D01*
X021173Y009340D01*
X021173Y009297D02*
X021055Y009297D01*
X021055Y009180D02*
X021173Y009180D01*
X021173Y009064D02*
X021055Y009064D01*
X021055Y008947D02*
X021173Y008947D01*
X021549Y008947D02*
X022916Y008947D01*
X022778Y009064D02*
X021627Y009064D01*
X021627Y009180D02*
X022662Y009180D01*
X022545Y009297D02*
X021627Y009297D01*
X021173Y009530D02*
X021055Y009530D01*
X021055Y009647D02*
X021173Y009647D01*
X021173Y009763D02*
X021055Y009763D01*
X020425Y009734D02*
X020425Y010015D01*
X020385Y010055D01*
X020385Y010285D01*
X020169Y010502D01*
X020385Y010718D01*
X020385Y012293D01*
X019952Y012293D02*
X019952Y010718D01*
X020169Y010502D01*
X019952Y010285D01*
X019952Y010055D01*
X019913Y010015D01*
X019913Y009734D01*
X019923Y009232D02*
X020415Y009232D01*
X020415Y009212D01*
X020089Y009212D01*
X019923Y009212D01*
X019923Y009232D01*
X019923Y009180D02*
X019903Y009180D01*
X019903Y009064D02*
X019923Y009064D01*
X019923Y008947D02*
X019903Y008947D01*
X019751Y008830D02*
X026046Y008830D01*
X025930Y008714D02*
X019647Y008714D01*
X019380Y009051D02*
X019380Y009986D01*
X018870Y009984D02*
X018870Y009478D01*
X018870Y010496D02*
X018870Y010856D01*
X019086Y011072D01*
X019086Y012293D01*
X019519Y012293D02*
X019519Y010998D01*
X019380Y010858D01*
X019380Y010498D01*
X018633Y010813D02*
X015330Y010813D01*
X015169Y010929D02*
X018633Y010929D01*
X018726Y011046D02*
X015028Y011046D01*
X014893Y011163D02*
X018842Y011163D01*
X018850Y011279D02*
X014759Y011279D01*
X014625Y011396D02*
X018850Y011396D01*
X020622Y010929D02*
X020622Y010929D01*
X020834Y011257D02*
X020819Y011273D01*
X020819Y012293D01*
X020435Y009180D02*
X020415Y009180D01*
X020415Y009064D02*
X020435Y009064D01*
X020435Y008947D02*
X020415Y008947D01*
X021557Y020375D02*
X026097Y020375D01*
X025488Y020491D02*
X021441Y020491D01*
X021324Y020608D02*
X025047Y020608D01*
X024764Y020725D02*
X021207Y020725D01*
X021091Y020841D02*
X024506Y020841D01*
X024249Y020958D02*
X020974Y020958D01*
X020857Y021075D02*
X024054Y021075D01*
X023880Y021191D02*
X020741Y021191D01*
X020624Y021308D02*
X023706Y021308D01*
X023533Y021424D02*
X020508Y021424D01*
X020391Y021541D02*
X023386Y021541D01*
X023263Y021658D02*
X020274Y021658D01*
X020158Y021774D02*
X023140Y021774D01*
D43*
X029535Y016362D02*
X029535Y015883D01*
X029775Y015883D01*
X029775Y015210D01*
D44*
X016173Y017096D02*
X016173Y018047D01*
X015307Y017992D02*
X015307Y017096D01*
X015307Y017992D02*
X015159Y018139D01*
X009880Y029439D02*
X009876Y029439D01*
X013218Y031029D02*
X014222Y031029D01*
X013976Y030637D02*
X013756Y030637D01*
X013574Y030456D01*
X013574Y030041D01*
X018602Y034275D02*
X018602Y036183D01*
X018602Y038088D01*
X017401Y038088D02*
X017401Y038948D01*
D45*
X015492Y030952D03*
X015492Y030710D03*
X015161Y030710D03*
X015161Y030952D03*
D46*
X015326Y031374D03*
X014984Y031572D03*
X015326Y031771D03*
X014984Y031970D03*
X015326Y032169D03*
X015326Y030287D03*
X014984Y030088D03*
X015326Y029889D03*
X015669Y029691D03*
X015326Y029492D03*
X014982Y029691D03*
X015669Y030088D03*
D47*
X013574Y030041D02*
X013574Y029439D01*
X011275Y029439D01*
X009880Y029439D02*
X009590Y029149D01*
X009590Y028691D01*
X009590Y027019D01*
X010478Y026131D01*
X013246Y026131D01*
X013254Y026131D02*
X013817Y026131D01*
X015070Y027943D02*
X020257Y027943D01*
X015070Y027943D02*
X013574Y029439D01*
X013572Y030039D02*
X013574Y030041D01*
X009880Y030187D02*
X009880Y029439D01*
X009880Y030187D02*
X009880Y031669D01*
X009779Y031669D01*
D48*
X014222Y031029D02*
X014257Y031029D01*
D49*
X013218Y031029D02*
X012555Y031029D01*
X012055Y031029D01*
X015198Y035080D02*
X016547Y035080D01*
X017300Y035833D01*
X017348Y035881D01*
X017352Y036482D02*
X017319Y036514D01*
X016549Y037285D01*
X015198Y037285D01*
X017401Y034275D02*
X017401Y033415D01*
D50*
X013817Y026131D03*
X013254Y026131D03*
D51*
X018486Y024693D02*
X018486Y023084D01*
X023122Y018448D01*
X025267Y018448D01*
X026681Y017035D01*
X026681Y016362D01*
X029023Y016362D01*
X029023Y015466D01*
X034348Y013881D02*
X034348Y012734D01*
X033126Y011511D01*
X033126Y010307D01*
X033126Y010307D01*
X030566Y010307D02*
X029438Y009179D01*
X023025Y009179D01*
X021702Y010502D01*
X021114Y010502D01*
X020169Y010502D01*
X020165Y010502D01*
X013492Y032929D02*
X012809Y032929D01*
X013183Y033795D02*
X013183Y034917D01*
X012933Y035167D01*
X012933Y037486D01*
X015187Y039740D01*
X019655Y039740D01*
X021437Y037958D01*
X021437Y036858D01*
X012435Y034744D02*
X012435Y033795D01*
X012435Y034744D02*
X012189Y034990D01*
X011067Y034990D01*
X010901Y034824D01*
X010901Y034484D01*
X010901Y033795D01*
D52*
X013732Y020403D02*
X014736Y020403D01*
X014797Y020401D01*
X014857Y020396D01*
X014917Y020387D01*
X014976Y020374D01*
X015035Y020358D01*
X015092Y020338D01*
X015148Y020315D01*
X015203Y020288D01*
X015255Y020258D01*
X015306Y020225D01*
X015355Y020189D01*
X015402Y020151D01*
X015446Y020109D01*
X015488Y020065D01*
X015526Y020018D01*
X015562Y019969D01*
X015595Y019918D01*
X015625Y019866D01*
X015652Y019811D01*
X015675Y019755D01*
X015695Y019698D01*
X015711Y019639D01*
X015724Y019580D01*
X015733Y019520D01*
X015738Y019460D01*
X015740Y019399D01*
X015740Y017614D01*
D53*
X010901Y030305D02*
X010901Y030799D01*
X011275Y031173D01*
X011275Y031669D01*
X011275Y032358D01*
X013748Y032358D01*
X014366Y032976D01*
X016962Y032976D01*
X017401Y033415D01*
M02*
