G04*
G04 #@! TF.GenerationSoftware,Altium Limited,Altium Designer,23.10.1 (27)*
G04*
G04 Layer_Physical_Order=3*
G04 Layer_Color=65535*
%FSLAX44Y44*%
%MOMM*%
G71*
G04*
G04 #@! TF.SameCoordinates,12E47488-CEE1-414F-AB97-9C1FAA11A261*
G04*
G04*
G04 #@! TF.FilePolarity,Positive*
G04*
G01*
G75*
%ADD10C,0.2540*%
%ADD11C,0.2000*%
%ADD15C,0.3810*%
%ADD44O,1.6000X1.7000*%
%ADD47C,1.6000*%
%ADD54C,0.5000*%
%ADD57C,0.6000*%
G36*
X416213Y267827D02*
X416185Y267799D01*
X415500Y266145D01*
Y264355D01*
X416185Y262701D01*
X417451Y261435D01*
X419105Y260750D01*
X420895D01*
X422549Y261435D01*
X423815Y262701D01*
X424636Y262864D01*
X426193Y261307D01*
X425685Y260799D01*
X425000Y259145D01*
Y257355D01*
X425685Y255701D01*
X426951Y254435D01*
X428605Y253750D01*
X430395D01*
X432049Y254435D01*
X432557Y254943D01*
X435531Y251969D01*
X435500Y251895D01*
Y250105D01*
X436185Y248451D01*
X437451Y247185D01*
X439105Y246500D01*
X440895D01*
X440969Y246531D01*
X536818Y150682D01*
X536185Y150049D01*
X535500Y148395D01*
Y146605D01*
X536185Y144951D01*
X537451Y143685D01*
X539105Y143000D01*
X539997D01*
X540846Y141730D01*
X540500Y140895D01*
Y139105D01*
X540846Y138270D01*
X539997Y137000D01*
X539105D01*
X537451Y136315D01*
X536185Y135049D01*
X535500Y133395D01*
Y131605D01*
X536185Y129951D01*
X537451Y128685D01*
X539105Y128000D01*
X540895D01*
X542549Y128685D01*
X543815Y129951D01*
X544327Y131186D01*
X545673D01*
X546185Y129951D01*
X547451Y128685D01*
X549105Y128000D01*
X550895D01*
X552549Y128685D01*
X553815Y129951D01*
X554383Y131321D01*
X555673Y131827D01*
X591500Y96000D01*
Y95105D01*
X592185Y93451D01*
X593451Y92185D01*
X595105Y91500D01*
X595500D01*
Y77900D01*
X589000D01*
Y58900D01*
X595500D01*
Y49351D01*
X594202Y48601D01*
X592899Y47298D01*
X591977Y45702D01*
X591500Y43922D01*
Y42078D01*
X591977Y40298D01*
X592899Y38702D01*
X594202Y37399D01*
X595500Y36649D01*
Y25500D01*
X595105D01*
X593451Y24815D01*
X592185Y23549D01*
X591500Y21895D01*
Y20105D01*
X592185Y18451D01*
X593451Y17185D01*
X595105Y16500D01*
X595500D01*
Y12750D01*
X586250Y3500D01*
X561660D01*
X561134Y4770D01*
X561315Y4951D01*
X562000Y6605D01*
Y8395D01*
X561315Y10049D01*
X560049Y11315D01*
X558395Y12000D01*
X556605D01*
X554951Y11315D01*
X553685Y10049D01*
X553000Y8395D01*
Y6605D01*
X553685Y4951D01*
X553866Y4770D01*
X553340Y3500D01*
X539160D01*
X538634Y4770D01*
X538815Y4951D01*
X539500Y6605D01*
Y8395D01*
X538815Y10049D01*
X537549Y11315D01*
X535895Y12000D01*
X534105D01*
X532451Y11315D01*
X531185Y10049D01*
X530500Y8395D01*
Y6605D01*
X531185Y4951D01*
X531366Y4770D01*
X530840Y3500D01*
X509160D01*
X508634Y4770D01*
X508815Y4951D01*
X509500Y6605D01*
Y8395D01*
X508815Y10049D01*
X507549Y11315D01*
X505895Y12000D01*
X504105D01*
X502451Y11315D01*
X501185Y10049D01*
X500500Y8395D01*
Y6605D01*
X501185Y4951D01*
X501366Y4770D01*
X500840Y3500D01*
X486660D01*
X486134Y4770D01*
X486315Y4951D01*
X487000Y6605D01*
Y8395D01*
X486315Y10049D01*
X485049Y11315D01*
X483395Y12000D01*
X481605D01*
X479951Y11315D01*
X478685Y10049D01*
X478000Y8395D01*
Y6605D01*
X478685Y4951D01*
X478866Y4770D01*
X478340Y3500D01*
X464160D01*
X463634Y4770D01*
X463815Y4951D01*
X464500Y6605D01*
Y8395D01*
X463815Y10049D01*
X462549Y11315D01*
X460895Y12000D01*
X459105D01*
X457451Y11315D01*
X456185Y10049D01*
X455500Y8395D01*
Y6605D01*
X456185Y4951D01*
X456366Y4770D01*
X455840Y3500D01*
X441660D01*
X441134Y4770D01*
X441315Y4951D01*
X442000Y6605D01*
Y8395D01*
X441315Y10049D01*
X440049Y11315D01*
X438395Y12000D01*
X436605D01*
X434951Y11315D01*
X433685Y10049D01*
X433000Y8395D01*
Y6605D01*
X433685Y4951D01*
X433866Y4770D01*
X433340Y3500D01*
X71250D01*
Y29250D01*
Y40250D01*
X96250Y65250D01*
X106730D01*
Y64605D01*
X107415Y62951D01*
X108681Y61685D01*
X110335Y61000D01*
X112125D01*
X113779Y61685D01*
X115045Y62951D01*
X115730Y64605D01*
Y65250D01*
X163000D01*
X165520Y67770D01*
X166895D01*
X168549Y68455D01*
X169815Y69721D01*
X170500Y71375D01*
Y72750D01*
X186520Y88770D01*
X187895D01*
X189549Y89455D01*
X190815Y90721D01*
X191500Y92375D01*
X192770Y92866D01*
X193451Y92185D01*
X195105Y91500D01*
X196895D01*
X198549Y92185D01*
X199815Y93451D01*
X200500Y95105D01*
Y96895D01*
X199815Y98549D01*
X198819Y99545D01*
X198751Y101001D01*
X206750Y109000D01*
Y109533D01*
X207105Y109770D01*
X208895D01*
X210549Y110455D01*
X211815Y111721D01*
X212500Y113375D01*
Y115165D01*
X211815Y116819D01*
X210549Y118085D01*
X208895Y118770D01*
X207105D01*
X206750Y119007D01*
Y131993D01*
X207105Y132230D01*
X208895D01*
X210549Y132915D01*
X211815Y134181D01*
X212500Y135835D01*
Y137625D01*
X211815Y139279D01*
X210549Y140545D01*
X208895Y141230D01*
X207105D01*
X206750Y141467D01*
Y152993D01*
X207105Y153230D01*
X208895D01*
X210549Y153915D01*
X211815Y155181D01*
X212500Y156835D01*
Y158625D01*
X211815Y160279D01*
X210549Y161545D01*
X208895Y162230D01*
X207105D01*
X206750Y162467D01*
Y228096D01*
X207355Y228500D01*
X209145D01*
X210799Y229185D01*
X212065Y230451D01*
X212750Y232105D01*
Y233895D01*
X212065Y235549D01*
X210799Y236815D01*
X209145Y237500D01*
X207355D01*
X206750Y237904D01*
Y252894D01*
X208020Y253742D01*
X208605Y253500D01*
X210395D01*
X212049Y254185D01*
X213315Y255451D01*
X214000Y257105D01*
Y258895D01*
X213315Y260549D01*
X212049Y261815D01*
X210395Y262500D01*
X208605D01*
X208020Y262258D01*
X206750Y263106D01*
Y269000D01*
X391482D01*
X396172Y264311D01*
Y251913D01*
X395750Y250895D01*
Y249105D01*
X396435Y247451D01*
X397701Y246185D01*
X399355Y245500D01*
X401145D01*
X402799Y246185D01*
X404065Y247451D01*
X404750Y249105D01*
Y250895D01*
X404328Y251913D01*
Y266000D01*
X404328Y266000D01*
X404018Y267561D01*
X403905Y267730D01*
X404584Y269000D01*
X415727D01*
X416213Y267827D01*
D02*
G37*
%LPC*%
G36*
X381500Y255249D02*
Y252500D01*
X384249D01*
X383815Y253549D01*
X382549Y254815D01*
X381500Y255249D01*
D02*
G37*
G36*
X378500D02*
X377451Y254815D01*
X376185Y253549D01*
X375751Y252500D01*
X378500D01*
Y255249D01*
D02*
G37*
G36*
X221500Y254999D02*
Y252250D01*
X224249D01*
X223815Y253299D01*
X222549Y254565D01*
X221500Y254999D01*
D02*
G37*
G36*
X218500D02*
X217451Y254565D01*
X216185Y253299D01*
X215751Y252250D01*
X218500D01*
Y254999D01*
D02*
G37*
G36*
X384249Y249500D02*
X381500D01*
Y246751D01*
X382549Y247185D01*
X383815Y248451D01*
X384249Y249500D01*
D02*
G37*
G36*
X371895Y250500D02*
X370105D01*
X368451Y249815D01*
X367185Y248549D01*
X366500Y246895D01*
Y245105D01*
X367185Y243451D01*
X368451Y242185D01*
X370105Y241500D01*
X371895D01*
X373549Y242185D01*
X374815Y243451D01*
X375500Y245105D01*
Y246895D01*
X375089Y247888D01*
X376185Y248451D01*
X376566Y248070D01*
X377451Y247185D01*
X378500Y246751D01*
Y249500D01*
X375751D01*
X375911Y249112D01*
X374815Y248549D01*
X374434Y248930D01*
X373549Y249815D01*
X371895Y250500D01*
D02*
G37*
G36*
X224249Y249250D02*
X221500D01*
Y246501D01*
X222549Y246935D01*
X223815Y248201D01*
X224249Y249250D01*
D02*
G37*
G36*
X218500D02*
X215751D01*
X216185Y248201D01*
X217451Y246935D01*
X218500Y246501D01*
Y249250D01*
D02*
G37*
G36*
X296895Y250500D02*
X295105D01*
X293451Y249815D01*
X292185Y248549D01*
X291500Y246895D01*
Y245105D01*
X292185Y243451D01*
X293451Y242185D01*
X295105Y241500D01*
X296895D01*
X298549Y242185D01*
X299815Y243451D01*
X300500Y245105D01*
Y246895D01*
X299815Y248549D01*
X298549Y249815D01*
X296895Y250500D01*
D02*
G37*
G36*
X271895D02*
X270105D01*
X268451Y249815D01*
X267185Y248549D01*
X266500Y246895D01*
Y245105D01*
X267185Y243451D01*
X268451Y242185D01*
X270105Y241500D01*
X271895D01*
X273549Y242185D01*
X274815Y243451D01*
X275500Y245105D01*
Y246895D01*
X274815Y248549D01*
X273549Y249815D01*
X271895Y250500D01*
D02*
G37*
G36*
X240895Y256000D02*
X239105D01*
X237451Y255315D01*
X236185Y254049D01*
X235500Y252395D01*
Y250605D01*
X236185Y248951D01*
X237451Y247685D01*
X239105Y247000D01*
X240327D01*
X240924Y246947D01*
X241500Y245876D01*
Y245105D01*
X242185Y243451D01*
X243451Y242185D01*
X245105Y241500D01*
X246895D01*
X248549Y242185D01*
X249815Y243451D01*
X250500Y245105D01*
Y246895D01*
X249815Y248549D01*
X248549Y249815D01*
X246895Y250500D01*
X245673D01*
X245076Y250553D01*
X244500Y251624D01*
Y252395D01*
X243815Y254049D01*
X242549Y255315D01*
X240895Y256000D01*
D02*
G37*
G36*
X327645Y246250D02*
X325855D01*
X324201Y245565D01*
X322935Y244299D01*
X322250Y242645D01*
Y240855D01*
X322935Y239201D01*
X324201Y237935D01*
X325855Y237250D01*
X327645D01*
X329299Y237935D01*
X330565Y239201D01*
X331250Y240855D01*
Y242645D01*
X330565Y244299D01*
X329299Y245565D01*
X327645Y246250D01*
D02*
G37*
G36*
X242395Y235250D02*
X240605D01*
X238951Y234565D01*
X238330Y233944D01*
X237500Y233417D01*
X236670Y233944D01*
X236049Y234565D01*
X234395Y235250D01*
X232605D01*
X230951Y234565D01*
X229685Y233299D01*
X229000Y231645D01*
Y229855D01*
X229685Y228201D01*
X230951Y226935D01*
X232605Y226250D01*
X234395D01*
X236049Y226935D01*
X236670Y227556D01*
X237500Y228083D01*
X238330Y227556D01*
X238951Y226935D01*
X240605Y226250D01*
X242395D01*
X244049Y226935D01*
X245315Y228201D01*
X246000Y229855D01*
Y231645D01*
X245315Y233299D01*
X244049Y234565D01*
X242395Y235250D01*
D02*
G37*
G36*
X433895Y239770D02*
X432105D01*
X430451Y239085D01*
X429185Y237819D01*
X428500Y236165D01*
Y234375D01*
X429185Y232721D01*
X430451Y231455D01*
X432105Y230770D01*
X433895D01*
X435549Y231455D01*
X436815Y232721D01*
X437500Y234375D01*
Y236165D01*
X436815Y237819D01*
X435549Y239085D01*
X433895Y239770D01*
D02*
G37*
G36*
X264895Y235250D02*
X263105D01*
X261451Y234565D01*
X260185Y233299D01*
X259500Y231645D01*
Y229855D01*
X260185Y228201D01*
X261451Y226935D01*
X263105Y226250D01*
X264895D01*
X266549Y226935D01*
X267815Y228201D01*
X268500Y229855D01*
Y231645D01*
X267815Y233299D01*
X266549Y234565D01*
X264895Y235250D01*
D02*
G37*
G36*
X253395D02*
X251605D01*
X249951Y234565D01*
X248685Y233299D01*
X248000Y231645D01*
Y229855D01*
X248685Y228201D01*
X249951Y226935D01*
X251605Y226250D01*
X253395D01*
X255049Y226935D01*
X256315Y228201D01*
X257000Y229855D01*
Y231645D01*
X256315Y233299D01*
X255049Y234565D01*
X253395Y235250D01*
D02*
G37*
G36*
X220145Y229750D02*
X218355D01*
X216701Y229065D01*
X215435Y227799D01*
X214750Y226145D01*
Y224355D01*
X215435Y222701D01*
X216701Y221435D01*
X218355Y220750D01*
X220145D01*
X221799Y221435D01*
X223065Y222701D01*
X223750Y224355D01*
Y226145D01*
X223065Y227799D01*
X221799Y229065D01*
X220145Y229750D01*
D02*
G37*
G36*
X421895Y225500D02*
X420105D01*
X418451Y224815D01*
X417185Y223549D01*
X416500Y221895D01*
Y220105D01*
X417185Y218451D01*
X418451Y217185D01*
X420105Y216500D01*
X421895D01*
X423549Y217185D01*
X424815Y218451D01*
X425500Y220105D01*
Y221895D01*
X424815Y223549D01*
X423549Y224815D01*
X421895Y225500D01*
D02*
G37*
G36*
X389700Y235000D02*
X370700D01*
Y215000D01*
X389700D01*
Y235000D01*
D02*
G37*
G36*
X329700D02*
X310700D01*
Y215000D01*
X329700D01*
Y235000D01*
D02*
G37*
G36*
X354800Y235082D02*
X352320Y234755D01*
X350009Y233798D01*
X348025Y232276D01*
X346502Y230291D01*
X345545Y227980D01*
X345218Y225500D01*
Y224500D01*
X345545Y222020D01*
X346502Y219709D01*
X348025Y217725D01*
X350009Y216202D01*
X352320Y215245D01*
X354800Y214918D01*
X357280Y215245D01*
X359591Y216202D01*
X361576Y217725D01*
X363098Y219709D01*
X364055Y222020D01*
X364382Y224500D01*
Y225500D01*
X364055Y227980D01*
X363098Y230291D01*
X361576Y232276D01*
X359591Y233798D01*
X357280Y234755D01*
X354800Y235082D01*
D02*
G37*
G36*
X294800D02*
X292320Y234755D01*
X290009Y233798D01*
X288025Y232276D01*
X286502Y230291D01*
X285544Y227980D01*
X285218Y225500D01*
Y224500D01*
X285544Y222020D01*
X286502Y219709D01*
X288025Y217725D01*
X290009Y216202D01*
X292320Y215245D01*
X294800Y214918D01*
X297280Y215245D01*
X299591Y216202D01*
X301575Y217725D01*
X303098Y219709D01*
X304055Y222020D01*
X304382Y224500D01*
Y225500D01*
X304055Y227980D01*
X303098Y230291D01*
X301575Y232276D01*
X299591Y233798D01*
X297280Y234755D01*
X294800Y235082D01*
D02*
G37*
G36*
X261645Y193500D02*
X259855D01*
X258201Y192815D01*
X256935Y191549D01*
X256250Y189895D01*
Y188105D01*
X256935Y186451D01*
X258201Y185185D01*
X259855Y184500D01*
X261645D01*
X263299Y185185D01*
X264565Y186451D01*
X265250Y188105D01*
Y189895D01*
X264565Y191549D01*
X263299Y192815D01*
X261645Y193500D01*
D02*
G37*
G36*
X241125Y193000D02*
X239335D01*
X237681Y192315D01*
X236415Y191049D01*
X235730Y189395D01*
Y187605D01*
X236415Y185951D01*
X237681Y184685D01*
X239335Y184000D01*
X241125D01*
X242779Y184685D01*
X244044Y185951D01*
X244730Y187605D01*
Y189395D01*
X244044Y191049D01*
X242779Y192315D01*
X241125Y193000D01*
D02*
G37*
G36*
X410023Y192748D02*
X407637D01*
X405431Y191835D01*
X403744Y190147D01*
X402830Y187941D01*
Y185555D01*
X403744Y183349D01*
X405431Y181661D01*
X407637Y180748D01*
X410023D01*
X412229Y181661D01*
X413917Y183349D01*
X414830Y185555D01*
Y187941D01*
X413917Y190147D01*
X412229Y191835D01*
X410023Y192748D01*
D02*
G37*
G36*
X347523D02*
X345137D01*
X342931Y191835D01*
X341244Y190147D01*
X340330Y187941D01*
Y185555D01*
X341244Y183349D01*
X342931Y181661D01*
X345137Y180748D01*
X347523D01*
X349729Y181661D01*
X351417Y183349D01*
X352330Y185555D01*
Y187941D01*
X351417Y190147D01*
X349729Y191835D01*
X347523Y192748D01*
D02*
G37*
G36*
X381645Y188000D02*
X379855D01*
X378201Y187315D01*
X376935Y186049D01*
X376250Y184395D01*
Y182605D01*
X376935Y180951D01*
X378201Y179685D01*
X379855Y179000D01*
X381645D01*
X383299Y179685D01*
X384565Y180951D01*
X385250Y182605D01*
Y184395D01*
X384565Y186049D01*
X383299Y187315D01*
X381645Y188000D01*
D02*
G37*
G36*
X325395Y187000D02*
X323605D01*
X321951Y186315D01*
X320685Y185049D01*
X320000Y183395D01*
Y181605D01*
X320685Y179951D01*
X321951Y178685D01*
X323605Y178000D01*
X325395D01*
X327049Y178685D01*
X328315Y179951D01*
X329000Y181605D01*
Y183395D01*
X328315Y185049D01*
X327049Y186315D01*
X325395Y187000D01*
D02*
G37*
G36*
X428395Y186250D02*
X426605D01*
X424951Y185565D01*
X423685Y184299D01*
X423000Y182645D01*
Y180855D01*
X423685Y179201D01*
X424951Y177935D01*
X426605Y177250D01*
X428395D01*
X430049Y177935D01*
X431315Y179201D01*
X432000Y180855D01*
Y182645D01*
X431315Y184299D01*
X430049Y185565D01*
X428395Y186250D01*
D02*
G37*
G36*
X470895Y181480D02*
X469105D01*
X467451Y180795D01*
X466185Y179529D01*
X465500Y177875D01*
Y176084D01*
X466185Y174431D01*
X467451Y173165D01*
X469105Y172480D01*
X470895D01*
X472549Y173165D01*
X473815Y174431D01*
X474500Y176084D01*
Y177875D01*
X473815Y179529D01*
X472549Y180795D01*
X470895Y181480D01*
D02*
G37*
G36*
X292625Y180750D02*
X290835D01*
X289181Y180065D01*
X287915Y178799D01*
X287230Y177145D01*
Y175355D01*
X287915Y173701D01*
X289181Y172435D01*
X290835Y171750D01*
X292625D01*
X294279Y172435D01*
X295545Y173701D01*
X296230Y175355D01*
Y177145D01*
X295545Y178799D01*
X294279Y180065D01*
X292625Y180750D01*
D02*
G37*
G36*
X293500Y167749D02*
Y165000D01*
X296249D01*
X295815Y166049D01*
X294549Y167315D01*
X293500Y167749D01*
D02*
G37*
G36*
X290500D02*
X289451Y167315D01*
X288185Y166049D01*
X287751Y165000D01*
X290500D01*
Y167749D01*
D02*
G37*
G36*
X296249Y162000D02*
X293500D01*
Y159251D01*
X294549Y159685D01*
X295815Y160951D01*
X296249Y162000D01*
D02*
G37*
G36*
X290500D02*
X287751D01*
X288185Y160951D01*
X289451Y159685D01*
X290500Y159251D01*
Y162000D01*
D02*
G37*
G36*
X381665Y168250D02*
X379875D01*
X378221Y167565D01*
X376955Y166299D01*
X376270Y164645D01*
Y162855D01*
X376955Y161201D01*
X378221Y159935D01*
X379875Y159250D01*
X381665D01*
X383319Y159935D01*
X384585Y161201D01*
X385270Y162855D01*
Y164645D01*
X384585Y166299D01*
X383319Y167565D01*
X381665Y168250D01*
D02*
G37*
G36*
X239052Y159556D02*
Y156807D01*
X241802D01*
X241367Y157856D01*
X240101Y159122D01*
X239052Y159556D01*
D02*
G37*
G36*
X236052D02*
X235003Y159122D01*
X233737Y157856D01*
X233303Y156807D01*
X236052D01*
Y159556D01*
D02*
G37*
G36*
X384750Y157499D02*
Y154750D01*
X387499D01*
X387065Y155799D01*
X385799Y157065D01*
X384750Y157499D01*
D02*
G37*
G36*
X381750D02*
X380701Y157065D01*
X379435Y155799D01*
X379001Y154750D01*
X381750D01*
Y157499D01*
D02*
G37*
G36*
X331017Y162128D02*
X329227D01*
X327573Y161443D01*
X326307Y160177D01*
X325622Y158523D01*
Y156733D01*
X326307Y155079D01*
X327573Y153813D01*
X329227Y153128D01*
X331017D01*
X332671Y153813D01*
X333937Y155079D01*
X334622Y156733D01*
Y158523D01*
X333937Y160177D01*
X332671Y161443D01*
X331017Y162128D01*
D02*
G37*
G36*
X464700Y172500D02*
X445700D01*
Y152500D01*
X464700D01*
Y172500D01*
D02*
G37*
G36*
X262145Y178250D02*
X260355D01*
X258701Y177565D01*
X257435Y176299D01*
X256750Y174645D01*
Y172855D01*
X257435Y171201D01*
X258636Y170000D01*
X257435Y168799D01*
X256750Y167145D01*
Y165355D01*
X257435Y163701D01*
X258436Y162700D01*
X258451Y162597D01*
X258284Y161572D01*
X258161Y161316D01*
X256951Y160815D01*
X255685Y159549D01*
X255000Y157895D01*
Y156105D01*
X255685Y154451D01*
X256951Y153185D01*
X258605Y152500D01*
X260395D01*
X262049Y153185D01*
X263315Y154451D01*
X264000Y156105D01*
Y157895D01*
X263315Y159549D01*
X262314Y160550D01*
X262300Y160653D01*
X262466Y161678D01*
X262589Y161934D01*
X263799Y162435D01*
X265065Y163701D01*
X265750Y165355D01*
Y167145D01*
X265065Y168799D01*
X263864Y170000D01*
X265065Y171201D01*
X265750Y172855D01*
Y174645D01*
X265065Y176299D01*
X263799Y177565D01*
X262145Y178250D01*
D02*
G37*
G36*
X429800Y172582D02*
X427320Y172255D01*
X425009Y171298D01*
X423025Y169776D01*
X421502Y167791D01*
X420545Y165480D01*
X420218Y163000D01*
Y162000D01*
X420545Y159520D01*
X421502Y157209D01*
X423025Y155225D01*
X425009Y153702D01*
X427320Y152745D01*
X429800Y152418D01*
X432280Y152745D01*
X434591Y153702D01*
X436576Y155225D01*
X438098Y157209D01*
X439055Y159520D01*
X439382Y162000D01*
Y163000D01*
X439055Y165480D01*
X438098Y167791D01*
X436576Y169776D01*
X434591Y171298D01*
X432280Y172255D01*
X429800Y172582D01*
D02*
G37*
G36*
X241802Y153807D02*
X239052D01*
Y151057D01*
X240101Y151492D01*
X241367Y152758D01*
X241802Y153807D01*
D02*
G37*
G36*
X236052D02*
X233303D01*
X233737Y152758D01*
X235003Y151492D01*
X236052Y151057D01*
Y153807D01*
D02*
G37*
G36*
X387499Y151750D02*
X384750D01*
Y149001D01*
X385799Y149435D01*
X387065Y150701D01*
X387499Y151750D01*
D02*
G37*
G36*
X381750D02*
X379001D01*
X379435Y150701D01*
X380701Y149435D01*
X381750Y149001D01*
Y151750D01*
D02*
G37*
G36*
X220125Y151000D02*
X218335D01*
X216681Y150315D01*
X215415Y149049D01*
X214730Y147395D01*
Y145605D01*
X215415Y143951D01*
X216681Y142685D01*
X218335Y142000D01*
X220125D01*
X221779Y142685D01*
X223045Y143951D01*
X223730Y145605D01*
Y147395D01*
X223045Y149049D01*
X221779Y150315D01*
X220125Y151000D01*
D02*
G37*
G36*
X349645Y147750D02*
X347855D01*
X346201Y147065D01*
X344935Y145799D01*
X344250Y144145D01*
Y142355D01*
X344935Y140701D01*
X346201Y139435D01*
X347855Y138750D01*
X349645D01*
X351299Y139435D01*
X352565Y140701D01*
X353250Y142355D01*
Y144145D01*
X352565Y145799D01*
X351299Y147065D01*
X349645Y147750D01*
D02*
G37*
G36*
X283895Y146500D02*
X282105D01*
X280451Y145815D01*
X279185Y144549D01*
X278500Y142895D01*
Y141105D01*
X279185Y139451D01*
X280451Y138185D01*
X282105Y137500D01*
X283895D01*
X285549Y138185D01*
X286815Y139451D01*
X287500Y141105D01*
Y142895D01*
X286815Y144549D01*
X285549Y145815D01*
X283895Y146500D01*
D02*
G37*
G36*
X396645Y142000D02*
X394855D01*
X393201Y141315D01*
X391935Y140049D01*
X391250Y138395D01*
Y136605D01*
X391935Y134951D01*
X393201Y133685D01*
X394855Y133000D01*
X396645D01*
X398299Y133685D01*
X399565Y134951D01*
X400250Y136605D01*
Y138395D01*
X399565Y140049D01*
X398299Y141315D01*
X396645Y142000D01*
D02*
G37*
G36*
X228125Y140000D02*
X226335D01*
X224681Y139315D01*
X223415Y138049D01*
X222730Y136395D01*
Y134605D01*
X223415Y132951D01*
X224681Y131685D01*
X226335Y131000D01*
X228125D01*
X229779Y131685D01*
X231045Y132951D01*
X231730Y134605D01*
Y136395D01*
X231045Y138049D01*
X229779Y139315D01*
X228125Y140000D01*
D02*
G37*
G36*
X404145Y131500D02*
X402355D01*
X400701Y130815D01*
X399435Y129549D01*
X398750Y127895D01*
Y126105D01*
X399435Y124451D01*
X400701Y123185D01*
X402355Y122500D01*
X404145D01*
X405799Y123185D01*
X407065Y124451D01*
X407750Y126105D01*
Y127895D01*
X407065Y129549D01*
X405799Y130815D01*
X404145Y131500D01*
D02*
G37*
G36*
X381145Y131000D02*
X379355D01*
X377701Y130315D01*
X376435Y129049D01*
X375750Y127395D01*
Y125605D01*
X376435Y123951D01*
X377701Y122685D01*
X379355Y122000D01*
X381145D01*
X382799Y122685D01*
X384065Y123951D01*
X384750Y125605D01*
Y127395D01*
X384065Y129049D01*
X382799Y130315D01*
X381145Y131000D01*
D02*
G37*
G36*
X318145Y130750D02*
X316355D01*
X314701Y130065D01*
X313435Y128799D01*
X312750Y127145D01*
Y125355D01*
X313435Y123701D01*
X314701Y122435D01*
X316355Y121750D01*
X318145D01*
X319799Y122435D01*
X321065Y123701D01*
X321750Y125355D01*
Y127145D01*
X321065Y128799D01*
X319799Y130065D01*
X318145Y130750D01*
D02*
G37*
G36*
X241125Y130000D02*
X239335D01*
X237681Y129315D01*
X236415Y128049D01*
X235730Y126395D01*
Y124605D01*
X236415Y122951D01*
X237681Y121685D01*
X239335Y121000D01*
X241125D01*
X242779Y121685D01*
X244044Y122951D01*
X244730Y124605D01*
Y126395D01*
X244044Y128049D01*
X242779Y129315D01*
X241125Y130000D01*
D02*
G37*
G36*
X220125D02*
X218335D01*
X216681Y129315D01*
X215415Y128049D01*
X214730Y126395D01*
Y124605D01*
X215415Y122951D01*
X216681Y121685D01*
X218335Y121000D01*
X220125D01*
X221779Y121685D01*
X223045Y122951D01*
X223730Y124605D01*
Y126395D01*
X223045Y128049D01*
X221779Y129315D01*
X220125Y130000D01*
D02*
G37*
G36*
X432895Y129500D02*
X431105D01*
X429451Y128815D01*
X428185Y127549D01*
X427500Y125895D01*
Y124105D01*
X428185Y122451D01*
X429451Y121185D01*
X431105Y120500D01*
X432895D01*
X434549Y121185D01*
X435815Y122451D01*
X436500Y124105D01*
Y125895D01*
X435815Y127549D01*
X434549Y128815D01*
X432895Y129500D01*
D02*
G37*
G36*
X421395Y127270D02*
X419605D01*
X417951Y126585D01*
X416685Y125319D01*
X416000Y123666D01*
Y121875D01*
X416685Y120221D01*
X417951Y118955D01*
X419605Y118270D01*
X421395D01*
X423049Y118955D01*
X424315Y120221D01*
X425000Y121875D01*
Y123666D01*
X424315Y125319D01*
X423049Y126585D01*
X421395Y127270D01*
D02*
G37*
G36*
X238123Y119500D02*
X236333D01*
X234679Y118814D01*
X233414Y117549D01*
X232052Y117581D01*
X231549Y118085D01*
X229895Y118770D01*
X228105D01*
X226451Y118085D01*
X225185Y116819D01*
X224500Y115165D01*
Y113375D01*
X225185Y111721D01*
X226451Y110455D01*
X228105Y109770D01*
X229895D01*
X231549Y110455D01*
X232815Y111721D01*
X234176Y111688D01*
X234679Y111185D01*
X236333Y110499D01*
X238123D01*
X239777Y111185D01*
X241043Y112451D01*
X241728Y114104D01*
Y115895D01*
X241043Y117549D01*
X239777Y118814D01*
X238123Y119500D01*
D02*
G37*
G36*
X546895Y125500D02*
X545105D01*
X543451Y124815D01*
X542185Y123549D01*
X541500Y121895D01*
Y120105D01*
X542185Y118451D01*
X543451Y117185D01*
X545105Y116500D01*
X546895D01*
X548549Y117185D01*
X549815Y118451D01*
X550500Y120105D01*
Y121895D01*
X549815Y123549D01*
X548549Y124815D01*
X546895Y125500D01*
D02*
G37*
G36*
X262250Y113749D02*
Y111000D01*
X264999D01*
X264565Y112049D01*
X263299Y113315D01*
X262250Y113749D01*
D02*
G37*
G36*
X259250D02*
X258201Y113315D01*
X256935Y112049D01*
X256501Y111000D01*
X259250D01*
Y113749D01*
D02*
G37*
G36*
X526165Y120000D02*
X524375D01*
X522721Y119315D01*
X521455Y118049D01*
X520770Y116395D01*
Y114605D01*
X521455Y112951D01*
X522721Y111685D01*
X524375Y111000D01*
X526165D01*
X527819Y111685D01*
X529085Y112951D01*
X529770Y114605D01*
Y116395D01*
X529085Y118049D01*
X527819Y119315D01*
X526165Y120000D01*
D02*
G37*
G36*
X508665D02*
X506875D01*
X505221Y119315D01*
X503955Y118049D01*
X503270Y116395D01*
Y114605D01*
X503955Y112951D01*
X505221Y111685D01*
X506875Y111000D01*
X508665D01*
X510319Y111685D01*
X511585Y112951D01*
X512270Y114605D01*
Y116395D01*
X511585Y118049D01*
X510319Y119315D01*
X508665Y120000D01*
D02*
G37*
G36*
X380895Y118250D02*
X379105D01*
X377451Y117565D01*
X376185Y116299D01*
X375500Y114645D01*
Y112855D01*
X376185Y111201D01*
X377451Y109935D01*
X379105Y109250D01*
X380895D01*
X382549Y109935D01*
X383815Y111201D01*
X384500Y112855D01*
Y114645D01*
X383815Y116299D01*
X382549Y117565D01*
X380895Y118250D01*
D02*
G37*
G36*
X318145D02*
X316355D01*
X314701Y117565D01*
X313435Y116299D01*
X312750Y114645D01*
Y112855D01*
X313435Y111201D01*
X314701Y109935D01*
X316355Y109250D01*
X318145D01*
X319799Y109935D01*
X321065Y111201D01*
X321750Y112855D01*
Y114645D01*
X321065Y116299D01*
X319799Y117565D01*
X318145Y118250D01*
D02*
G37*
G36*
X264999Y108000D02*
X262250D01*
Y105251D01*
X263299Y105685D01*
X264565Y106951D01*
X264999Y108000D01*
D02*
G37*
G36*
X259250D02*
X256501D01*
X256935Y106951D01*
X258201Y105685D01*
X259250Y105251D01*
Y108000D01*
D02*
G37*
G36*
X263000Y102999D02*
Y100250D01*
X265749D01*
X265315Y101299D01*
X264049Y102565D01*
X263000Y102999D01*
D02*
G37*
G36*
X260000D02*
X258951Y102565D01*
X257685Y101299D01*
X257251Y100250D01*
X260000D01*
Y102999D01*
D02*
G37*
G36*
X241125Y109000D02*
X239335D01*
X237681Y108315D01*
X236415Y107049D01*
X235730Y105395D01*
Y103605D01*
X236415Y101951D01*
X237681Y100685D01*
X239335Y100000D01*
X241125D01*
X242779Y100685D01*
X244044Y101951D01*
X244730Y103605D01*
Y105395D01*
X244044Y107049D01*
X242779Y108315D01*
X241125Y109000D01*
D02*
G37*
G36*
X380645Y105750D02*
X378855D01*
X377201Y105065D01*
X375935Y103799D01*
X375250Y102145D01*
Y100355D01*
X375935Y98701D01*
X377201Y97435D01*
X378855Y96750D01*
X380645D01*
X382299Y97435D01*
X383565Y98701D01*
X384250Y100355D01*
Y102145D01*
X383565Y103799D01*
X382299Y105065D01*
X380645Y105750D01*
D02*
G37*
G36*
X265749Y97250D02*
X263000D01*
Y94501D01*
X264049Y94935D01*
X265315Y96201D01*
X265749Y97250D01*
D02*
G37*
G36*
X260000D02*
X257251D01*
X257685Y96201D01*
X258951Y94935D01*
X260000Y94501D01*
Y97250D01*
D02*
G37*
G36*
X320145Y102000D02*
X318355D01*
X316701Y101315D01*
X315435Y100049D01*
X314750Y98395D01*
Y96605D01*
X315435Y94951D01*
X316701Y93685D01*
X318355Y93000D01*
X320145D01*
X321799Y93685D01*
X323065Y94951D01*
X323750Y96605D01*
Y98395D01*
X323065Y100049D01*
X321799Y101315D01*
X320145Y102000D01*
D02*
G37*
G36*
X408895Y101750D02*
X407105D01*
X405451Y101065D01*
X404185Y99799D01*
X403500Y98145D01*
Y96355D01*
X404185Y94701D01*
X405451Y93435D01*
X407105Y92750D01*
X408895D01*
X410549Y93435D01*
X411815Y94701D01*
X412500Y96355D01*
Y98145D01*
X411815Y99799D01*
X410549Y101065D01*
X408895Y101750D01*
D02*
G37*
G36*
X571895Y100500D02*
X570105D01*
X568451Y99815D01*
X567185Y98549D01*
X566500Y96895D01*
Y95105D01*
X567185Y93451D01*
X568451Y92185D01*
X570105Y91500D01*
X571895D01*
X573549Y92185D01*
X574815Y93451D01*
X575500Y95105D01*
Y96895D01*
X574815Y98549D01*
X573549Y99815D01*
X571895Y100500D01*
D02*
G37*
G36*
X546895D02*
X545105D01*
X543451Y99815D01*
X542185Y98549D01*
X541500Y96895D01*
Y95105D01*
X542185Y93451D01*
X543451Y92185D01*
X545105Y91500D01*
X546895D01*
X548549Y92185D01*
X549815Y93451D01*
X550500Y95105D01*
Y96895D01*
X549815Y98549D01*
X548549Y99815D01*
X546895Y100500D01*
D02*
G37*
G36*
X446895D02*
X445105D01*
X443451Y99815D01*
X442185Y98549D01*
X441500Y96895D01*
Y95105D01*
X442185Y93451D01*
X443451Y92185D01*
X445105Y91500D01*
X446895D01*
X448549Y92185D01*
X449815Y93451D01*
X450500Y95105D01*
Y96895D01*
X449815Y98549D01*
X448549Y99815D01*
X446895Y100500D01*
D02*
G37*
G36*
X229895Y97770D02*
X228105D01*
X226451Y97085D01*
X225185Y95819D01*
X224500Y94165D01*
Y92375D01*
X225185Y90721D01*
X226451Y89455D01*
X228105Y88770D01*
X229895D01*
X231549Y89455D01*
X232815Y90721D01*
X233500Y92375D01*
Y94165D01*
X232815Y95819D01*
X231549Y97085D01*
X229895Y97770D01*
D02*
G37*
G36*
X208895D02*
X207105D01*
X205451Y97085D01*
X204185Y95819D01*
X203500Y94165D01*
Y92375D01*
X204185Y90721D01*
X205451Y89455D01*
X207105Y88770D01*
X208895D01*
X210549Y89455D01*
X211815Y90721D01*
X212500Y92375D01*
Y94165D01*
X211815Y95819D01*
X210549Y97085D01*
X208895Y97770D01*
D02*
G37*
G36*
X380895Y93000D02*
X379105D01*
X377451Y92315D01*
X376185Y91049D01*
X375500Y89395D01*
Y87605D01*
X376185Y85951D01*
X377451Y84685D01*
X379105Y84000D01*
X380895D01*
X382549Y84685D01*
X383815Y85951D01*
X384500Y87605D01*
Y89395D01*
X383815Y91049D01*
X382549Y92315D01*
X380895Y93000D01*
D02*
G37*
G36*
X284665Y92000D02*
X282875D01*
X281221Y91315D01*
X279955Y90049D01*
X279270Y88395D01*
Y86605D01*
X279955Y84951D01*
X281221Y83685D01*
X282875Y83000D01*
X284665D01*
X286319Y83685D01*
X287585Y84951D01*
X288270Y86605D01*
Y88395D01*
X287585Y90049D01*
X286319Y91315D01*
X284665Y92000D01*
D02*
G37*
G36*
X471145Y91500D02*
X469355D01*
X467701Y90815D01*
X466435Y89549D01*
X465750Y87895D01*
Y86105D01*
X466435Y84451D01*
X467701Y83185D01*
X469355Y82500D01*
X471145D01*
X472799Y83185D01*
X474065Y84451D01*
X474750Y86105D01*
Y87895D01*
X474065Y89549D01*
X472799Y90815D01*
X471145Y91500D01*
D02*
G37*
G36*
X241125Y88000D02*
X239335D01*
X237681Y87315D01*
X236415Y86049D01*
X235730Y84395D01*
Y82605D01*
X236415Y80951D01*
X237681Y79685D01*
X239335Y79000D01*
X241125D01*
X242779Y79685D01*
X244044Y80951D01*
X244730Y82605D01*
Y84395D01*
X244044Y86049D01*
X242779Y87315D01*
X241125Y88000D01*
D02*
G37*
G36*
X320395Y82000D02*
X318605D01*
X316951Y81315D01*
X315685Y80049D01*
X315000Y78395D01*
Y76605D01*
X315685Y74951D01*
X316951Y73685D01*
X318605Y73000D01*
X320395D01*
X322049Y73685D01*
X323315Y74951D01*
X324000Y76605D01*
Y78395D01*
X323315Y80049D01*
X322049Y81315D01*
X320395Y82000D01*
D02*
G37*
G36*
X290895Y79500D02*
X289105D01*
X287451Y78815D01*
X286185Y77549D01*
X285500Y75895D01*
Y74105D01*
X286185Y72451D01*
X287451Y71185D01*
X289105Y70500D01*
X290895D01*
X292549Y71185D01*
X293815Y72451D01*
X294500Y74105D01*
Y75895D01*
X293815Y77549D01*
X292549Y78815D01*
X290895Y79500D01*
D02*
G37*
G36*
X250895Y76770D02*
X249105D01*
X247451Y76085D01*
X246185Y74819D01*
X245500Y73165D01*
Y71375D01*
X246185Y69721D01*
X247451Y68455D01*
X249105Y67770D01*
X250895D01*
X252549Y68455D01*
X253815Y69721D01*
X254500Y71375D01*
Y73165D01*
X253815Y74819D01*
X252549Y76085D01*
X250895Y76770D01*
D02*
G37*
G36*
X229895D02*
X228105D01*
X226451Y76085D01*
X225185Y74819D01*
X224500Y73165D01*
Y71375D01*
X225185Y69721D01*
X226451Y68455D01*
X228105Y67770D01*
X229895D01*
X231549Y68455D01*
X232815Y69721D01*
X233500Y71375D01*
Y73165D01*
X232815Y74819D01*
X231549Y76085D01*
X229895Y76770D01*
D02*
G37*
G36*
X208895D02*
X207105D01*
X205451Y76085D01*
X204185Y74819D01*
X203500Y73165D01*
Y71375D01*
X204185Y69721D01*
X205451Y68455D01*
X207105Y67770D01*
X208895D01*
X210549Y68455D01*
X211815Y69721D01*
X212500Y71375D01*
Y73165D01*
X211815Y74819D01*
X210549Y76085D01*
X208895Y76770D01*
D02*
G37*
G36*
X571895Y75500D02*
X570105D01*
X568451Y74815D01*
X567185Y73549D01*
X566500Y71895D01*
Y70105D01*
X567185Y68451D01*
X568451Y67185D01*
X570105Y66500D01*
X571895D01*
X573549Y67185D01*
X574815Y68451D01*
X575500Y70105D01*
Y71895D01*
X574815Y73549D01*
X573549Y74815D01*
X571895Y75500D01*
D02*
G37*
G36*
X515895Y82730D02*
X514105D01*
X512451Y82045D01*
X511185Y80779D01*
X510500Y79125D01*
Y77335D01*
X511185Y75681D01*
X512451Y74415D01*
X514105Y73730D01*
X515895D01*
X516855Y72753D01*
X516500Y71895D01*
Y70105D01*
X517185Y68451D01*
X518451Y67185D01*
X520105Y66500D01*
X521895D01*
X523549Y67185D01*
X524815Y68451D01*
X525500Y70105D01*
Y71895D01*
X524815Y73549D01*
X523549Y74815D01*
X521895Y75500D01*
X520105D01*
X519145Y76477D01*
X519500Y77335D01*
Y79125D01*
X518815Y80779D01*
X517549Y82045D01*
X515895Y82730D01*
D02*
G37*
G36*
X471895Y75500D02*
X470105D01*
X468451Y74815D01*
X467185Y73549D01*
X466500Y71895D01*
Y70105D01*
X467185Y68451D01*
X468451Y67185D01*
X470105Y66500D01*
X471895D01*
X473549Y67185D01*
X474815Y68451D01*
X475500Y70105D01*
Y71895D01*
X474815Y73549D01*
X473549Y74815D01*
X471895Y75500D01*
D02*
G37*
G36*
X187895Y76770D02*
X186105D01*
X184451Y76085D01*
X183185Y74819D01*
X182500Y73165D01*
Y71375D01*
X183185Y69721D01*
X184451Y68455D01*
X186105Y67770D01*
X187895D01*
X189549Y68455D01*
X190440Y69346D01*
X191760Y69218D01*
X191898Y69145D01*
X192185Y68451D01*
X193451Y67185D01*
X195105Y66500D01*
X196895D01*
X198549Y67185D01*
X199815Y68451D01*
X200500Y70105D01*
Y71895D01*
X199815Y73549D01*
X198549Y74815D01*
X196895Y75500D01*
X195105D01*
X193451Y74815D01*
X192560Y73924D01*
X191240Y74052D01*
X191102Y74125D01*
X190815Y74819D01*
X189549Y76085D01*
X187895Y76770D01*
D02*
G37*
G36*
X411395Y73750D02*
X409605D01*
X407951Y73065D01*
X406685Y71799D01*
X406000Y70145D01*
Y68355D01*
X406685Y66701D01*
X407951Y65435D01*
X409605Y64750D01*
X411395D01*
X413049Y65435D01*
X414315Y66701D01*
X415000Y68355D01*
Y70145D01*
X414315Y71799D01*
X413049Y73065D01*
X411395Y73750D01*
D02*
G37*
G36*
X548951Y77900D02*
X546449D01*
X544033Y77253D01*
X541867Y76002D01*
X540098Y74233D01*
X538847Y72067D01*
X538200Y69651D01*
Y67149D01*
X538847Y64733D01*
X540098Y62567D01*
X541867Y60798D01*
X544033Y59547D01*
X546449Y58900D01*
X548951D01*
X551367Y59547D01*
X553533Y60798D01*
X555302Y62567D01*
X556553Y64733D01*
X557200Y67149D01*
Y69651D01*
X556553Y72067D01*
X555302Y74233D01*
X553533Y76002D01*
X551367Y77253D01*
X548951Y77900D01*
D02*
G37*
G36*
X498151D02*
X495649D01*
X493233Y77253D01*
X491067Y76002D01*
X489298Y74233D01*
X488047Y72067D01*
X487400Y69651D01*
Y67149D01*
X488047Y64733D01*
X489298Y62567D01*
X491067Y60798D01*
X493233Y59547D01*
X495649Y58900D01*
X498151D01*
X500567Y59547D01*
X502733Y60798D01*
X504502Y62567D01*
X505753Y64733D01*
X506400Y67149D01*
Y69651D01*
X505753Y72067D01*
X504502Y74233D01*
X502733Y76002D01*
X500567Y77253D01*
X498151Y77900D01*
D02*
G37*
G36*
X331645Y62000D02*
X329855D01*
X328201Y61315D01*
X326935Y60049D01*
X326250Y58395D01*
Y56605D01*
X326935Y54951D01*
X328201Y53685D01*
X329855Y53000D01*
X331645D01*
X333299Y53685D01*
X334565Y54951D01*
X335250Y56605D01*
Y58395D01*
X334565Y60049D01*
X333299Y61315D01*
X331645Y62000D01*
D02*
G37*
G36*
X316395Y59250D02*
X314605D01*
X312951Y58565D01*
X311685Y57299D01*
X311000Y55645D01*
Y53855D01*
X311685Y52201D01*
X312951Y50935D01*
X314605Y50250D01*
X316395D01*
X318049Y50935D01*
X319315Y52201D01*
X320000Y53855D01*
Y55645D01*
X319315Y57299D01*
X318049Y58565D01*
X316395Y59250D01*
D02*
G37*
G36*
X362395Y58250D02*
X360605D01*
X358951Y57565D01*
X357685Y56299D01*
X357000Y54645D01*
Y52855D01*
X357685Y51201D01*
X358951Y49935D01*
X360605Y49250D01*
X362395D01*
X364049Y49935D01*
X365315Y51201D01*
X366000Y52855D01*
Y54645D01*
X365315Y56299D01*
X364049Y57565D01*
X362395Y58250D01*
D02*
G37*
G36*
X410023Y59248D02*
X407637D01*
X405431Y58334D01*
X403744Y56647D01*
X402830Y54441D01*
Y52055D01*
X403744Y49849D01*
X405431Y48161D01*
X407637Y47248D01*
X410023D01*
X412229Y48161D01*
X413917Y49849D01*
X414830Y52055D01*
Y54441D01*
X413917Y56647D01*
X412229Y58334D01*
X410023Y59248D01*
D02*
G37*
G36*
X347523D02*
X345137D01*
X342931Y58334D01*
X341244Y56647D01*
X340330Y54441D01*
Y52055D01*
X341244Y49849D01*
X342931Y48161D01*
X345137Y47248D01*
X347523D01*
X349729Y48161D01*
X351417Y49849D01*
X352330Y52055D01*
Y54441D01*
X351417Y56647D01*
X349729Y58334D01*
X347523Y59248D01*
D02*
G37*
G36*
X250895Y55770D02*
X249105D01*
X247451Y55085D01*
X246185Y53819D01*
X245500Y52165D01*
Y50375D01*
X246185Y48721D01*
X247451Y47456D01*
X249105Y46770D01*
X250895D01*
X252549Y47456D01*
X253815Y48721D01*
X254500Y50375D01*
Y52165D01*
X253815Y53819D01*
X252549Y55085D01*
X250895Y55770D01*
D02*
G37*
G36*
X229895D02*
X228105D01*
X226451Y55085D01*
X225185Y53819D01*
X224500Y52165D01*
Y50375D01*
X225185Y48721D01*
X226451Y47456D01*
X228105Y46770D01*
X229895D01*
X231549Y47456D01*
X232815Y48721D01*
X233500Y50375D01*
Y52165D01*
X232815Y53819D01*
X231549Y55085D01*
X229895Y55770D01*
D02*
G37*
G36*
X208895D02*
X207105D01*
X205451Y55085D01*
X204185Y53819D01*
X203500Y52165D01*
Y50375D01*
X204185Y48721D01*
X205451Y47456D01*
X207105Y46770D01*
X208895D01*
X210549Y47456D01*
X211815Y48721D01*
X212500Y50375D01*
Y52165D01*
X211815Y53819D01*
X210549Y55085D01*
X208895Y55770D01*
D02*
G37*
G36*
X187895D02*
X186105D01*
X184451Y55085D01*
X183185Y53819D01*
X182500Y52165D01*
Y50375D01*
X183185Y48721D01*
X184451Y47456D01*
X186105Y46770D01*
X187895D01*
X189549Y47456D01*
X190815Y48721D01*
X191500Y50375D01*
Y52165D01*
X190815Y53819D01*
X189549Y55085D01*
X187895Y55770D01*
D02*
G37*
G36*
X166895D02*
X165105D01*
X163451Y55085D01*
X162185Y53819D01*
X161500Y52165D01*
Y50375D01*
X162185Y48721D01*
X163451Y47456D01*
X165105Y46770D01*
X166895D01*
X168549Y47456D01*
X169815Y48721D01*
X170500Y50375D01*
Y52165D01*
X169815Y53819D01*
X168549Y55085D01*
X166895Y55770D01*
D02*
G37*
G36*
X145895D02*
X144105D01*
X142451Y55085D01*
X141185Y53819D01*
X140500Y52165D01*
Y50375D01*
X141185Y48721D01*
X142451Y47456D01*
X144105Y46770D01*
X145895D01*
X147549Y47456D01*
X148815Y48721D01*
X149500Y50375D01*
Y52165D01*
X148815Y53819D01*
X147549Y55085D01*
X145895Y55770D01*
D02*
G37*
G36*
X439300Y65000D02*
X420300D01*
Y45000D01*
X439300D01*
Y65000D01*
D02*
G37*
G36*
X471895Y50500D02*
X470105D01*
X468451Y49815D01*
X467185Y48549D01*
X466500Y46895D01*
Y45105D01*
X467185Y43451D01*
X468451Y42185D01*
X470105Y41500D01*
X471895D01*
X473549Y42185D01*
X474815Y43451D01*
X475500Y45105D01*
Y46895D01*
X474815Y48549D01*
X473549Y49815D01*
X471895Y50500D01*
D02*
G37*
G36*
X296895D02*
X295105D01*
X293451Y49815D01*
X292185Y48549D01*
X291500Y46895D01*
Y45105D01*
X292185Y43451D01*
X293451Y42185D01*
X295105Y41500D01*
X296895D01*
X298549Y42185D01*
X299815Y43451D01*
X300500Y45105D01*
Y46895D01*
X299815Y48549D01*
X298549Y49815D01*
X296895Y50500D01*
D02*
G37*
G36*
X112125Y48000D02*
X110335D01*
X108681Y47315D01*
X107415Y46049D01*
X106730Y44395D01*
Y42605D01*
X107415Y40951D01*
X108681Y39685D01*
X110335Y39000D01*
X112125D01*
X113779Y39685D01*
X115045Y40951D01*
X115730Y42605D01*
Y44395D01*
X115045Y46049D01*
X113779Y47315D01*
X112125Y48000D01*
D02*
G37*
G36*
X574022Y50000D02*
X572178D01*
X570398Y49523D01*
X568802Y48601D01*
X567499Y47298D01*
X566577Y45702D01*
X566100Y43922D01*
Y42078D01*
X566577Y40298D01*
X567499Y38702D01*
X568802Y37399D01*
X570398Y36477D01*
X572178Y36000D01*
X574022D01*
X575802Y36477D01*
X577398Y37399D01*
X578701Y38702D01*
X579623Y40298D01*
X580100Y42078D01*
Y43922D01*
X579623Y45702D01*
X578701Y47298D01*
X577398Y48601D01*
X575802Y49523D01*
X574022Y50000D01*
D02*
G37*
G36*
X548622D02*
X546778D01*
X544998Y49523D01*
X543402Y48601D01*
X542099Y47298D01*
X541177Y45702D01*
X540700Y43922D01*
Y42078D01*
X541177Y40298D01*
X542099Y38702D01*
X543402Y37399D01*
X544998Y36477D01*
X546778Y36000D01*
X548622D01*
X550402Y36477D01*
X551998Y37399D01*
X553301Y38702D01*
X554223Y40298D01*
X554700Y42078D01*
Y43922D01*
X554223Y45702D01*
X553301Y47298D01*
X551998Y48601D01*
X550402Y49523D01*
X548622Y50000D01*
D02*
G37*
G36*
X523222D02*
X521378D01*
X519598Y49523D01*
X518002Y48601D01*
X516699Y47298D01*
X515777Y45702D01*
X515300Y43922D01*
Y42078D01*
X515777Y40298D01*
X516699Y38702D01*
X518002Y37399D01*
X519598Y36477D01*
X521378Y36000D01*
X523222D01*
X525002Y36477D01*
X526598Y37399D01*
X527901Y38702D01*
X528823Y40298D01*
X529300Y42078D01*
Y43922D01*
X528823Y45702D01*
X527901Y47298D01*
X526598Y48601D01*
X525002Y49523D01*
X523222Y50000D01*
D02*
G37*
G36*
X497822D02*
X495978D01*
X494198Y49523D01*
X492602Y48601D01*
X491299Y47298D01*
X490377Y45702D01*
X489900Y43922D01*
Y42078D01*
X490377Y40298D01*
X491299Y38702D01*
X492602Y37399D01*
X494198Y36477D01*
X495978Y36000D01*
X497822D01*
X499602Y36477D01*
X501198Y37399D01*
X502501Y38702D01*
X503423Y40298D01*
X503900Y42078D01*
Y43922D01*
X503423Y45702D01*
X502501Y47298D01*
X501198Y48601D01*
X499602Y49523D01*
X497822Y50000D01*
D02*
G37*
G36*
X350645Y42000D02*
X348855D01*
X347201Y41315D01*
X345935Y40049D01*
X345250Y38395D01*
Y36605D01*
X345935Y34951D01*
X347201Y33685D01*
X348855Y33000D01*
X350645D01*
X352299Y33685D01*
X353565Y34951D01*
X354250Y36605D01*
Y38395D01*
X353565Y40049D01*
X352299Y41315D01*
X350645Y42000D01*
D02*
G37*
G36*
X314645D02*
X312855D01*
X311201Y41315D01*
X309935Y40049D01*
X309250Y38395D01*
Y36605D01*
X309935Y34951D01*
X311201Y33685D01*
X312855Y33000D01*
X314645D01*
X316299Y33685D01*
X317565Y34951D01*
X318250Y36605D01*
Y38395D01*
X317565Y40049D01*
X316299Y41315D01*
X314645Y42000D01*
D02*
G37*
G36*
X368395Y32000D02*
X366605D01*
X364951Y31315D01*
X363685Y30049D01*
X363000Y28395D01*
Y26605D01*
X363685Y24951D01*
X364951Y23685D01*
X366605Y23000D01*
X368395D01*
X370049Y23685D01*
X371315Y24951D01*
X372000Y26605D01*
Y28395D01*
X371315Y30049D01*
X370049Y31315D01*
X368395Y32000D01*
D02*
G37*
G36*
X340395Y23750D02*
X338605D01*
X336951Y23065D01*
X335685Y21799D01*
X335000Y20145D01*
Y20082D01*
X333944Y19376D01*
X333645Y19500D01*
X331855D01*
X330201Y18815D01*
X328935Y17549D01*
X328250Y15895D01*
Y14105D01*
X328935Y12451D01*
X330201Y11185D01*
X331855Y10500D01*
X333645D01*
X335299Y11185D01*
X336565Y12451D01*
X337250Y14105D01*
Y14168D01*
X338306Y14874D01*
X338605Y14750D01*
X340395D01*
X342049Y15435D01*
X343315Y16701D01*
X344000Y18355D01*
Y20145D01*
X343315Y21799D01*
X342049Y23065D01*
X340395Y23750D01*
D02*
G37*
G36*
X97895Y26750D02*
X96105D01*
X94451Y26065D01*
X93185Y24799D01*
X92500Y23145D01*
Y21355D01*
X93185Y19701D01*
X94451Y18435D01*
X96105Y17750D01*
X97895D01*
X99549Y18435D01*
X100815Y19701D01*
X101500Y21355D01*
Y23145D01*
X100815Y24799D01*
X99549Y26065D01*
X97895Y26750D01*
D02*
G37*
G36*
X546895Y25500D02*
X545105D01*
X543451Y24815D01*
X542185Y23549D01*
X541500Y21895D01*
Y20105D01*
X542185Y18451D01*
X543451Y17185D01*
X545105Y16500D01*
X546895D01*
X548549Y17185D01*
X549815Y18451D01*
X550500Y20105D01*
Y21895D01*
X549815Y23549D01*
X548549Y24815D01*
X546895Y25500D01*
D02*
G37*
G36*
X496895D02*
X495105D01*
X493451Y24815D01*
X492185Y23549D01*
X491500Y21895D01*
Y20105D01*
X492185Y18451D01*
X493451Y17185D01*
X495105Y16500D01*
X496895D01*
X498549Y17185D01*
X499815Y18451D01*
X500500Y20105D01*
Y21895D01*
X499815Y23549D01*
X498549Y24815D01*
X496895Y25500D01*
D02*
G37*
G36*
X471895D02*
X470105D01*
X468451Y24815D01*
X467185Y23549D01*
X466500Y21895D01*
Y20105D01*
X467185Y18451D01*
X468451Y17185D01*
X470105Y16500D01*
X471895D01*
X473549Y17185D01*
X474815Y18451D01*
X475500Y20105D01*
Y21895D01*
X474815Y23549D01*
X473549Y24815D01*
X471895Y25500D01*
D02*
G37*
G36*
X446895D02*
X445105D01*
X443451Y24815D01*
X442185Y23549D01*
X441500Y21895D01*
Y20105D01*
X442185Y18451D01*
X443451Y17185D01*
X445105Y16500D01*
X446895D01*
X448549Y17185D01*
X449815Y18451D01*
X450500Y20105D01*
Y21895D01*
X449815Y23549D01*
X448549Y24815D01*
X446895Y25500D01*
D02*
G37*
G36*
X124000Y15999D02*
Y13250D01*
X126749D01*
X126315Y14299D01*
X125049Y15565D01*
X124000Y15999D01*
D02*
G37*
G36*
X121000D02*
X119951Y15565D01*
X118685Y14299D01*
X118251Y13250D01*
X121000D01*
Y15999D01*
D02*
G37*
G36*
X523551Y27100D02*
X521049D01*
X518633Y26453D01*
X516467Y25202D01*
X514698Y23433D01*
X513447Y21267D01*
X512800Y18851D01*
Y16349D01*
X513447Y13933D01*
X514698Y11767D01*
X516467Y9998D01*
X518633Y8747D01*
X521049Y8100D01*
X523551D01*
X525967Y8747D01*
X528133Y9998D01*
X529902Y11767D01*
X531153Y13933D01*
X531800Y16349D01*
Y18851D01*
X531153Y21267D01*
X529902Y23433D01*
X528133Y25202D01*
X525967Y26453D01*
X523551Y27100D01*
D02*
G37*
G36*
X126749Y10250D02*
X124000D01*
Y7501D01*
X125049Y7935D01*
X126315Y9201D01*
X126749Y10250D01*
D02*
G37*
G36*
X121000D02*
X118251D01*
X118685Y9201D01*
X119951Y7935D01*
X121000Y7501D01*
Y10250D01*
D02*
G37*
G36*
X87145Y16500D02*
X85355D01*
X83701Y15815D01*
X82435Y14549D01*
X81750Y12895D01*
Y11105D01*
X82435Y9451D01*
X83701Y8185D01*
X85355Y7500D01*
X87145D01*
X88799Y8185D01*
X90065Y9451D01*
X90750Y11105D01*
Y12895D01*
X90065Y14549D01*
X88799Y15815D01*
X87145Y16500D01*
D02*
G37*
%LPD*%
D10*
X766007Y270185D02*
Y254950D01*
X776164D01*
X783781Y265107D02*
X788860D01*
X791399Y262568D01*
Y254950D01*
X783781D01*
X781242Y257489D01*
X783781Y260028D01*
X791399D01*
X796477Y265107D02*
Y257489D01*
X799016Y254950D01*
X806634D01*
Y252411D01*
X804095Y249872D01*
X801556D01*
X806634Y254950D02*
Y265107D01*
X819330Y254950D02*
X814251D01*
X811712Y257489D01*
Y262568D01*
X814251Y265107D01*
X819330D01*
X821869Y262568D01*
Y260028D01*
X811712D01*
X826947Y265107D02*
Y254950D01*
Y260028D01*
X829487Y262568D01*
X832026Y265107D01*
X834565D01*
X773625Y-19370D02*
Y-4135D01*
X766007Y-11753D01*
X776164D01*
X766007Y54286D02*
X768546Y56825D01*
X773625D01*
X776164Y54286D01*
Y51747D01*
X773625Y49208D01*
X771085D01*
X773625D01*
X776164Y46668D01*
Y44129D01*
X773625Y41590D01*
X768546D01*
X766007Y44129D01*
X776164Y102550D02*
X766007D01*
X776164Y112707D01*
Y115246D01*
X773625Y117785D01*
X768546D01*
X766007Y115246D01*
Y163510D02*
X771085D01*
X768546D01*
Y178745D01*
X766007Y176206D01*
X870125Y254950D02*
Y270185D01*
X880282Y254950D01*
Y270185D01*
X887899Y265107D02*
X892978D01*
X895517Y262568D01*
Y254950D01*
X887899D01*
X885360Y257489D01*
X887899Y260028D01*
X895517D01*
X900595Y254950D02*
Y265107D01*
X903134D01*
X905673Y262568D01*
Y254950D01*
Y262568D01*
X908213Y265107D01*
X910752Y262568D01*
Y254950D01*
X923448D02*
X918369D01*
X915830Y257489D01*
Y262568D01*
X918369Y265107D01*
X923448D01*
X925987Y262568D01*
Y260028D01*
X915830D01*
X870125Y-65095D02*
Y-80330D01*
X877742D01*
X880282Y-77791D01*
Y-75252D01*
X877742Y-72712D01*
X870125D01*
X877742D01*
X880282Y-70173D01*
Y-67634D01*
X877742Y-65095D01*
X870125D01*
X887899Y-80330D02*
X892978D01*
X895517Y-77791D01*
Y-72712D01*
X892978Y-70173D01*
X887899D01*
X885360Y-72712D01*
Y-77791D01*
X887899Y-80330D01*
X903134Y-67634D02*
Y-70173D01*
X900595D01*
X905673D01*
X903134D01*
Y-77791D01*
X905673Y-80330D01*
X915830Y-67634D02*
Y-70173D01*
X913291D01*
X918369D01*
X915830D01*
Y-77791D01*
X918369Y-80330D01*
X928526D02*
X933604D01*
X936143Y-77791D01*
Y-72712D01*
X933604Y-70173D01*
X928526D01*
X925987Y-72712D01*
Y-77791D01*
X928526Y-80330D01*
X941222D02*
Y-70173D01*
X943761D01*
X946300Y-72712D01*
Y-80330D01*
Y-72712D01*
X948839Y-70173D01*
X951379Y-72712D01*
Y-80330D01*
X979310Y-65095D02*
X974231D01*
X971692Y-67634D01*
Y-77791D01*
X974231Y-80330D01*
X979310D01*
X981849Y-77791D01*
Y-67634D01*
X979310Y-65095D01*
X986927Y-70173D02*
X992005Y-80330D01*
X997084Y-70173D01*
X1009780Y-80330D02*
X1004701D01*
X1002162Y-77791D01*
Y-72712D01*
X1004701Y-70173D01*
X1009780D01*
X1012319Y-72712D01*
Y-75252D01*
X1002162D01*
X1017397Y-70173D02*
Y-80330D01*
Y-75252D01*
X1019936Y-72712D01*
X1022476Y-70173D01*
X1025015D01*
X1032632Y-80330D02*
X1037711D01*
X1035172D01*
Y-65095D01*
X1032632D01*
X1047867Y-70173D02*
X1052946D01*
X1055485Y-72712D01*
Y-80330D01*
X1047867D01*
X1045328Y-77791D01*
X1047867Y-75252D01*
X1055485D01*
X1060563Y-70173D02*
Y-77791D01*
X1063102Y-80330D01*
X1070720D01*
Y-82869D01*
X1068181Y-85408D01*
X1065642D01*
X1070720Y-80330D02*
Y-70173D01*
X870125Y-34615D02*
Y-49850D01*
X877742D01*
X880282Y-47311D01*
Y-44772D01*
X877742Y-42232D01*
X870125D01*
X877742D01*
X880282Y-39693D01*
Y-37154D01*
X877742Y-34615D01*
X870125D01*
X887899Y-49850D02*
X892978D01*
X895517Y-47311D01*
Y-42232D01*
X892978Y-39693D01*
X887899D01*
X885360Y-42232D01*
Y-47311D01*
X887899Y-49850D01*
X903134Y-37154D02*
Y-39693D01*
X900595D01*
X905673D01*
X903134D01*
Y-47311D01*
X905673Y-49850D01*
X915830Y-37154D02*
Y-39693D01*
X913291D01*
X918369D01*
X915830D01*
Y-47311D01*
X918369Y-49850D01*
X928526D02*
X933604D01*
X936143Y-47311D01*
Y-42232D01*
X933604Y-39693D01*
X928526D01*
X925987Y-42232D01*
Y-47311D01*
X928526Y-49850D01*
X941222D02*
Y-39693D01*
X943761D01*
X946300Y-42232D01*
Y-49850D01*
Y-42232D01*
X948839Y-39693D01*
X951379Y-42232D01*
Y-49850D01*
X981849Y-37154D02*
X979310Y-34615D01*
X974231D01*
X971692Y-37154D01*
Y-39693D01*
X974231Y-42232D01*
X979310D01*
X981849Y-44772D01*
Y-47311D01*
X979310Y-49850D01*
X974231D01*
X971692Y-47311D01*
X989466Y-49850D02*
X994545D01*
X997084Y-47311D01*
Y-42232D01*
X994545Y-39693D01*
X989466D01*
X986927Y-42232D01*
Y-47311D01*
X989466Y-49850D01*
X1002162D02*
X1007241D01*
X1004701D01*
Y-34615D01*
X1002162D01*
X1025015D02*
Y-49850D01*
X1017397D01*
X1014858Y-47311D01*
Y-42232D01*
X1017397Y-39693D01*
X1025015D01*
X1037711Y-49850D02*
X1032632D01*
X1030093Y-47311D01*
Y-42232D01*
X1032632Y-39693D01*
X1037711D01*
X1040250Y-42232D01*
Y-44772D01*
X1030093D01*
X1045328Y-39693D02*
Y-49850D01*
Y-44772D01*
X1047867Y-42232D01*
X1050407Y-39693D01*
X1052946D01*
X870125Y-4135D02*
Y-19370D01*
X877742D01*
X880282Y-16831D01*
Y-14292D01*
X877742Y-11753D01*
X870125D01*
X877742D01*
X880282Y-9213D01*
Y-6674D01*
X877742Y-4135D01*
X870125D01*
X887899Y-19370D02*
X892978D01*
X895517Y-16831D01*
Y-11753D01*
X892978Y-9213D01*
X887899D01*
X885360Y-11753D01*
Y-16831D01*
X887899Y-19370D01*
X903134Y-6674D02*
Y-9213D01*
X900595D01*
X905673D01*
X903134D01*
Y-16831D01*
X905673Y-19370D01*
X915830Y-6674D02*
Y-9213D01*
X913291D01*
X918369D01*
X915830D01*
Y-16831D01*
X918369Y-19370D01*
X928526D02*
X933604D01*
X936143Y-16831D01*
Y-11753D01*
X933604Y-9213D01*
X928526D01*
X925987Y-11753D01*
Y-16831D01*
X928526Y-19370D01*
X941222D02*
Y-9213D01*
X943761D01*
X946300Y-11753D01*
Y-19370D01*
Y-11753D01*
X948839Y-9213D01*
X951379Y-11753D01*
Y-19370D01*
X971692Y-4135D02*
Y-19370D01*
X981849D01*
X989466Y-9213D02*
X994545D01*
X997084Y-11753D01*
Y-19370D01*
X989466D01*
X986927Y-16831D01*
X989466Y-14292D01*
X997084D01*
X1002162Y-9213D02*
Y-16831D01*
X1004701Y-19370D01*
X1012319D01*
Y-21909D01*
X1009780Y-24448D01*
X1007241D01*
X1012319Y-19370D02*
Y-9213D01*
X1025015Y-19370D02*
X1019936D01*
X1017397Y-16831D01*
Y-11753D01*
X1019936Y-9213D01*
X1025015D01*
X1027554Y-11753D01*
Y-14292D01*
X1017397D01*
X1032632Y-9213D02*
Y-19370D01*
Y-14292D01*
X1035172Y-11753D01*
X1037711Y-9213D01*
X1040250D01*
X870125Y26345D02*
Y11110D01*
X877742D01*
X880282Y13649D01*
Y23806D01*
X877742Y26345D01*
X870125D01*
X885360Y11110D02*
X890438D01*
X887899D01*
Y21267D01*
X885360D01*
X905673Y11110D02*
X900595D01*
X898056Y13649D01*
Y18728D01*
X900595Y21267D01*
X905673D01*
X908213Y18728D01*
Y16188D01*
X898056D01*
X913291Y11110D02*
X918369D01*
X915830D01*
Y26345D01*
X913291D01*
X933604Y11110D02*
X928526D01*
X925987Y13649D01*
Y18728D01*
X928526Y21267D01*
X933604D01*
X936143Y18728D01*
Y16188D01*
X925987D01*
X951379Y21267D02*
X943761D01*
X941222Y18728D01*
Y13649D01*
X943761Y11110D01*
X951379D01*
X958996Y23806D02*
Y21267D01*
X956457D01*
X961535D01*
X958996D01*
Y13649D01*
X961535Y11110D01*
X969153Y21267D02*
Y11110D01*
Y16188D01*
X971692Y18728D01*
X974231Y21267D01*
X976770D01*
X984388Y11110D02*
X989466D01*
X986927D01*
Y21267D01*
X984388D01*
X1007241D02*
X999623D01*
X997084Y18728D01*
Y13649D01*
X999623Y11110D01*
X1007241D01*
X1027554Y23806D02*
X1030093Y26345D01*
X1035172D01*
X1037711Y23806D01*
Y21267D01*
X1035172Y18728D01*
X1032632D01*
X1035172D01*
X1037711Y16188D01*
Y13649D01*
X1035172Y11110D01*
X1030093D01*
X1027554Y13649D01*
X870125Y56825D02*
Y41590D01*
X880282D01*
X887899Y51747D02*
X892978D01*
X895517Y49208D01*
Y41590D01*
X887899D01*
X885360Y44129D01*
X887899Y46668D01*
X895517D01*
X900595Y51747D02*
Y44129D01*
X903134Y41590D01*
X910752D01*
Y39051D01*
X908213Y36512D01*
X905673D01*
X910752Y41590D02*
Y51747D01*
X923448Y41590D02*
X918369D01*
X915830Y44129D01*
Y49208D01*
X918369Y51747D01*
X923448D01*
X925987Y49208D01*
Y46668D01*
X915830D01*
X931065Y51747D02*
Y41590D01*
Y46668D01*
X933604Y49208D01*
X936143Y51747D01*
X938683D01*
X971692Y41590D02*
X961535D01*
X971692Y51747D01*
Y54286D01*
X969153Y56825D01*
X964074D01*
X961535Y54286D01*
X870125Y87305D02*
Y72070D01*
X877742D01*
X880282Y74609D01*
Y84766D01*
X877742Y87305D01*
X870125D01*
X885360Y72070D02*
X890438D01*
X887899D01*
Y82227D01*
X885360D01*
X905673Y72070D02*
X900595D01*
X898056Y74609D01*
Y79688D01*
X900595Y82227D01*
X905673D01*
X908213Y79688D01*
Y77148D01*
X898056D01*
X913291Y72070D02*
X918369D01*
X915830D01*
Y87305D01*
X913291D01*
X933604Y72070D02*
X928526D01*
X925987Y74609D01*
Y79688D01*
X928526Y82227D01*
X933604D01*
X936143Y79688D01*
Y77148D01*
X925987D01*
X951379Y82227D02*
X943761D01*
X941222Y79688D01*
Y74609D01*
X943761Y72070D01*
X951379D01*
X958996Y84766D02*
Y82227D01*
X956457D01*
X961535D01*
X958996D01*
Y74609D01*
X961535Y72070D01*
X969153Y82227D02*
Y72070D01*
Y77148D01*
X971692Y79688D01*
X974231Y82227D01*
X976770D01*
X984388Y72070D02*
X989466D01*
X986927D01*
Y82227D01*
X984388D01*
X1007241D02*
X999623D01*
X997084Y79688D01*
Y74609D01*
X999623Y72070D01*
X1007241D01*
X1027554D02*
X1032632D01*
X1030093D01*
Y87305D01*
X1027554Y84766D01*
X870125Y117785D02*
Y102550D01*
X880282D01*
X887899Y112707D02*
X892978D01*
X895517Y110168D01*
Y102550D01*
X887899D01*
X885360Y105089D01*
X887899Y107628D01*
X895517D01*
X900595Y112707D02*
Y105089D01*
X903134Y102550D01*
X910752D01*
Y100011D01*
X908213Y97472D01*
X905673D01*
X910752Y102550D02*
Y112707D01*
X923448Y102550D02*
X918369D01*
X915830Y105089D01*
Y110168D01*
X918369Y112707D01*
X923448D01*
X925987Y110168D01*
Y107628D01*
X915830D01*
X931065Y112707D02*
Y102550D01*
Y107628D01*
X933604Y110168D01*
X936143Y112707D01*
X938683D01*
X961535Y102550D02*
X966614D01*
X964074D01*
Y117785D01*
X961535Y115246D01*
X870125Y148265D02*
Y133030D01*
X877742D01*
X880282Y135569D01*
Y145726D01*
X877742Y148265D01*
X870125D01*
X885360Y133030D02*
X890438D01*
X887899D01*
Y143187D01*
X885360D01*
X905673Y133030D02*
X900595D01*
X898056Y135569D01*
Y140647D01*
X900595Y143187D01*
X905673D01*
X908213Y140647D01*
Y138108D01*
X898056D01*
X913291Y133030D02*
X918369D01*
X915830D01*
Y148265D01*
X913291D01*
X933604Y133030D02*
X928526D01*
X925987Y135569D01*
Y140647D01*
X928526Y143187D01*
X933604D01*
X936143Y140647D01*
Y138108D01*
X925987D01*
X951379Y143187D02*
X943761D01*
X941222Y140647D01*
Y135569D01*
X943761Y133030D01*
X951379D01*
X958996Y145726D02*
Y143187D01*
X956457D01*
X961535D01*
X958996D01*
Y135569D01*
X961535Y133030D01*
X969153Y143187D02*
Y133030D01*
Y138108D01*
X971692Y140647D01*
X974231Y143187D01*
X976770D01*
X984388Y133030D02*
X989466D01*
X986927D01*
Y143187D01*
X984388D01*
X1007241D02*
X999623D01*
X997084Y140647D01*
Y135569D01*
X999623Y133030D01*
X1007241D01*
X1037711D02*
X1027554D01*
X1037711Y143187D01*
Y145726D01*
X1035172Y148265D01*
X1030093D01*
X1027554Y145726D01*
X870125Y178745D02*
X880282D01*
X875203D01*
Y163510D01*
X887899D02*
X892978D01*
X895517Y166049D01*
Y171127D01*
X892978Y173667D01*
X887899D01*
X885360Y171127D01*
Y166049D01*
X887899Y163510D01*
X900595Y158432D02*
Y173667D01*
X908213D01*
X910752Y171127D01*
Y166049D01*
X908213Y163510D01*
X900595D01*
X931065Y178745D02*
Y163510D01*
X941222D01*
X948839Y173667D02*
X953918D01*
X956457Y171127D01*
Y163510D01*
X948839D01*
X946300Y166049D01*
X948839Y168588D01*
X956457D01*
X961535Y173667D02*
Y166049D01*
X964074Y163510D01*
X971692D01*
Y160971D01*
X969153Y158432D01*
X966614D01*
X971692Y163510D02*
Y173667D01*
X984388Y163510D02*
X979310D01*
X976770Y166049D01*
Y171127D01*
X979310Y173667D01*
X984388D01*
X986927Y171127D01*
Y168588D01*
X976770D01*
X992005Y173667D02*
Y163510D01*
Y168588D01*
X994545Y171127D01*
X997084Y173667D01*
X999623D01*
X870125Y209225D02*
X880282D01*
X875203D01*
Y193990D01*
X887899D02*
X892978D01*
X895517Y196529D01*
Y201607D01*
X892978Y204147D01*
X887899D01*
X885360Y201607D01*
Y196529D01*
X887899Y193990D01*
X900595Y188912D02*
Y204147D01*
X908213D01*
X910752Y201607D01*
Y196529D01*
X908213Y193990D01*
X900595D01*
X941222Y206686D02*
X938683Y209225D01*
X933604D01*
X931065Y206686D01*
Y204147D01*
X933604Y201607D01*
X938683D01*
X941222Y199068D01*
Y196529D01*
X938683Y193990D01*
X933604D01*
X931065Y196529D01*
X948839Y193990D02*
X953918D01*
X956457Y196529D01*
Y201607D01*
X953918Y204147D01*
X948839D01*
X946300Y201607D01*
Y196529D01*
X948839Y193990D01*
X961535D02*
X966614D01*
X964074D01*
Y209225D01*
X961535D01*
X984388D02*
Y193990D01*
X976770D01*
X974231Y196529D01*
Y201607D01*
X976770Y204147D01*
X984388D01*
X997084Y193990D02*
X992005D01*
X989466Y196529D01*
Y201607D01*
X992005Y204147D01*
X997084D01*
X999623Y201607D01*
Y199068D01*
X989466D01*
X1004701Y204147D02*
Y193990D01*
Y199068D01*
X1007241Y201607D01*
X1009780Y204147D01*
X1012319D01*
X870125Y239705D02*
X880282D01*
X875203D01*
Y224470D01*
X887899D02*
X892978D01*
X895517Y227009D01*
Y232087D01*
X892978Y234627D01*
X887899D01*
X885360Y232087D01*
Y227009D01*
X887899Y224470D01*
X900595Y219392D02*
Y234627D01*
X908213D01*
X910752Y232087D01*
Y227009D01*
X908213Y224470D01*
X900595D01*
X938683Y239705D02*
X933604D01*
X931065Y237166D01*
Y227009D01*
X933604Y224470D01*
X938683D01*
X941222Y227009D01*
Y237166D01*
X938683Y239705D01*
X946300Y234627D02*
X951379Y224470D01*
X956457Y234627D01*
X969153Y224470D02*
X964074D01*
X961535Y227009D01*
Y232087D01*
X964074Y234627D01*
X969153D01*
X971692Y232087D01*
Y229548D01*
X961535D01*
X976770Y234627D02*
Y224470D01*
Y229548D01*
X979310Y232087D01*
X981849Y234627D01*
X984388D01*
X992005Y224470D02*
X997084D01*
X994545D01*
Y239705D01*
X992005D01*
X1007241Y234627D02*
X1012319D01*
X1014858Y232087D01*
Y224470D01*
X1007241D01*
X1004701Y227009D01*
X1007241Y229548D01*
X1014858D01*
X1019936Y234627D02*
Y227009D01*
X1022476Y224470D01*
X1030093D01*
Y221931D01*
X1027554Y219392D01*
X1025015D01*
X1030093Y224470D02*
Y234627D01*
X1106280Y254950D02*
Y270185D01*
X1111358Y265107D01*
X1116437Y270185D01*
Y254950D01*
X1124054Y265107D02*
X1129133D01*
X1131672Y262568D01*
Y254950D01*
X1124054D01*
X1121515Y257489D01*
X1124054Y260028D01*
X1131672D01*
X1139289Y267646D02*
Y265107D01*
X1136750D01*
X1141829D01*
X1139289D01*
Y257489D01*
X1141829Y254950D01*
X1157064D02*
X1151985D01*
X1149446Y257489D01*
Y262568D01*
X1151985Y265107D01*
X1157064D01*
X1159603Y262568D01*
Y260028D01*
X1149446D01*
X1164681Y265107D02*
Y254950D01*
Y260028D01*
X1167220Y262568D01*
X1169760Y265107D01*
X1172299D01*
X1179916Y254950D02*
X1184995D01*
X1182455D01*
Y265107D01*
X1179916D01*
X1195151D02*
X1200230D01*
X1202769Y262568D01*
Y254950D01*
X1195151D01*
X1192612Y257489D01*
X1195151Y260028D01*
X1202769D01*
X1207847Y254950D02*
X1212925D01*
X1210386D01*
Y270185D01*
X1207847D01*
X1116437Y-37154D02*
X1113897Y-34615D01*
X1108819D01*
X1106280Y-37154D01*
Y-39693D01*
X1108819Y-42232D01*
X1113897D01*
X1116437Y-44772D01*
Y-47311D01*
X1113897Y-49850D01*
X1108819D01*
X1106280Y-47311D01*
X1124054Y-49850D02*
X1129133D01*
X1131672Y-47311D01*
Y-42232D01*
X1129133Y-39693D01*
X1124054D01*
X1121515Y-42232D01*
Y-47311D01*
X1124054Y-49850D01*
X1136750D02*
X1141829D01*
X1139289D01*
Y-34615D01*
X1136750D01*
X1159603D02*
Y-49850D01*
X1151985D01*
X1149446Y-47311D01*
Y-42232D01*
X1151985Y-39693D01*
X1159603D01*
X1172299Y-49850D02*
X1167220D01*
X1164681Y-47311D01*
Y-42232D01*
X1167220Y-39693D01*
X1172299D01*
X1174838Y-42232D01*
Y-44772D01*
X1164681D01*
X1179916Y-39693D02*
Y-49850D01*
Y-44772D01*
X1182455Y-42232D01*
X1184995Y-39693D01*
X1187534D01*
X1210386Y-49850D02*
Y-34615D01*
X1218004D01*
X1220543Y-37154D01*
Y-42232D01*
X1218004Y-44772D01*
X1210386D01*
X1215465D02*
X1220543Y-49850D01*
X1233239D02*
X1228161D01*
X1225621Y-47311D01*
Y-42232D01*
X1228161Y-39693D01*
X1233239D01*
X1235778Y-42232D01*
Y-44772D01*
X1225621D01*
X1240856Y-49850D02*
X1248474D01*
X1251013Y-47311D01*
X1248474Y-44772D01*
X1243396D01*
X1240856Y-42232D01*
X1243396Y-39693D01*
X1251013D01*
X1256092Y-49850D02*
X1261170D01*
X1258631D01*
Y-39693D01*
X1256092D01*
X1268787Y-49850D02*
X1276405D01*
X1278944Y-47311D01*
X1276405Y-44772D01*
X1271327D01*
X1268787Y-42232D01*
X1271327Y-39693D01*
X1278944D01*
X1286562Y-37154D02*
Y-39693D01*
X1284023D01*
X1289101D01*
X1286562D01*
Y-47311D01*
X1289101Y-49850D01*
X1106280Y11110D02*
Y26345D01*
X1113897D01*
X1116437Y23806D01*
Y18728D01*
X1113897Y16188D01*
X1106280D01*
X1121515Y11110D02*
Y26345D01*
X1129133D01*
X1131672Y23806D01*
Y18728D01*
X1129133Y16188D01*
X1121515D01*
X1136750Y18728D02*
X1146907D01*
X1151985Y23806D02*
X1154524Y26345D01*
X1159603D01*
X1162142Y23806D01*
Y13649D01*
X1159603Y11110D01*
X1154524D01*
X1151985Y13649D01*
Y23806D01*
X1167220D02*
X1169760Y26345D01*
X1174838D01*
X1177377Y23806D01*
Y13649D01*
X1174838Y11110D01*
X1169760D01*
X1167220Y13649D01*
Y23806D01*
X1192612Y26345D02*
X1187534Y23806D01*
X1182455Y18728D01*
Y13649D01*
X1184995Y11110D01*
X1190073D01*
X1192612Y13649D01*
Y16188D01*
X1190073Y18728D01*
X1182455D01*
X1116437Y54286D02*
X1113897Y56825D01*
X1108819D01*
X1106280Y54286D01*
Y44129D01*
X1108819Y41590D01*
X1113897D01*
X1116437Y44129D01*
X1131672Y56825D02*
X1121515D01*
Y49208D01*
X1126593D01*
X1121515D01*
Y41590D01*
X1136750Y49208D02*
X1146907D01*
X1151985Y54286D02*
X1154524Y56825D01*
X1159603D01*
X1162142Y54286D01*
Y44129D01*
X1159603Y41590D01*
X1154524D01*
X1151985Y44129D01*
Y54286D01*
X1167220D02*
X1169760Y56825D01*
X1174838D01*
X1177377Y54286D01*
Y44129D01*
X1174838Y41590D01*
X1169760D01*
X1167220Y44129D01*
Y54286D01*
X1190073Y41590D02*
Y56825D01*
X1182455Y49208D01*
X1192612D01*
X1116437Y87305D02*
X1106280D01*
Y79688D01*
X1111358D01*
X1106280D01*
Y72070D01*
X1121515D02*
Y87305D01*
X1129133D01*
X1131672Y84766D01*
Y79688D01*
X1129133Y77148D01*
X1121515D01*
X1126593D02*
X1131672Y72070D01*
X1136750Y79688D02*
X1146907D01*
X1159603Y72070D02*
Y87305D01*
X1151985Y79688D01*
X1162142D01*
X1116437Y115246D02*
X1113897Y117785D01*
X1108819D01*
X1106280Y115246D01*
Y105089D01*
X1108819Y102550D01*
X1113897D01*
X1116437Y105089D01*
X1131672Y117785D02*
X1121515D01*
Y110168D01*
X1126593D01*
X1121515D01*
Y102550D01*
X1136750Y110168D02*
X1146907D01*
X1151985Y115246D02*
X1154524Y117785D01*
X1159603D01*
X1162142Y115246D01*
Y105089D01*
X1159603Y102550D01*
X1154524D01*
X1151985Y105089D01*
Y115246D01*
X1167220D02*
X1169760Y117785D01*
X1174838D01*
X1177377Y115246D01*
Y105089D01*
X1174838Y102550D01*
X1169760D01*
X1167220Y105089D01*
Y115246D01*
X1190073Y102550D02*
Y117785D01*
X1182455Y110168D01*
X1192612D01*
X1106280Y133030D02*
Y148265D01*
X1113897D01*
X1116437Y145726D01*
Y140647D01*
X1113897Y138108D01*
X1106280D01*
X1121515Y133030D02*
Y148265D01*
X1129133D01*
X1131672Y145726D01*
Y140647D01*
X1129133Y138108D01*
X1121515D01*
X1136750Y140647D02*
X1146907D01*
X1151985Y145726D02*
X1154524Y148265D01*
X1159603D01*
X1162142Y145726D01*
Y135569D01*
X1159603Y133030D01*
X1154524D01*
X1151985Y135569D01*
Y145726D01*
X1167220D02*
X1169760Y148265D01*
X1174838D01*
X1177377Y145726D01*
Y135569D01*
X1174838Y133030D01*
X1169760D01*
X1167220Y135569D01*
Y145726D01*
X1192612Y148265D02*
X1187534Y145726D01*
X1182455Y140647D01*
Y135569D01*
X1184995Y133030D01*
X1190073D01*
X1192612Y135569D01*
Y138108D01*
X1190073Y140647D01*
X1182455D01*
X1116437Y206686D02*
X1113897Y209225D01*
X1108819D01*
X1106280Y206686D01*
Y204147D01*
X1108819Y201607D01*
X1113897D01*
X1116437Y199068D01*
Y196529D01*
X1113897Y193990D01*
X1108819D01*
X1106280Y196529D01*
X1124054Y193990D02*
X1129133D01*
X1131672Y196529D01*
Y201607D01*
X1129133Y204147D01*
X1124054D01*
X1121515Y201607D01*
Y196529D01*
X1124054Y193990D01*
X1136750D02*
X1141829D01*
X1139289D01*
Y209225D01*
X1136750D01*
X1159603D02*
Y193990D01*
X1151985D01*
X1149446Y196529D01*
Y201607D01*
X1151985Y204147D01*
X1159603D01*
X1172299Y193990D02*
X1167220D01*
X1164681Y196529D01*
Y201607D01*
X1167220Y204147D01*
X1172299D01*
X1174838Y201607D01*
Y199068D01*
X1164681D01*
X1179916Y204147D02*
Y193990D01*
Y199068D01*
X1182455Y201607D01*
X1184995Y204147D01*
X1187534D01*
X1210386Y193990D02*
Y209225D01*
X1218004D01*
X1220543Y206686D01*
Y201607D01*
X1218004Y199068D01*
X1210386D01*
X1215465D02*
X1220543Y193990D01*
X1233239D02*
X1228161D01*
X1225621Y196529D01*
Y201607D01*
X1228161Y204147D01*
X1233239D01*
X1235778Y201607D01*
Y199068D01*
X1225621D01*
X1240856Y193990D02*
X1248474D01*
X1251013Y196529D01*
X1248474Y199068D01*
X1243396D01*
X1240856Y201607D01*
X1243396Y204147D01*
X1251013D01*
X1256092Y193990D02*
X1261170D01*
X1258631D01*
Y204147D01*
X1256092D01*
X1268787Y193990D02*
X1276405D01*
X1278944Y196529D01*
X1276405Y199068D01*
X1271327D01*
X1268787Y201607D01*
X1271327Y204147D01*
X1278944D01*
X1286562Y206686D02*
Y204147D01*
X1284023D01*
X1289101D01*
X1286562D01*
Y196529D01*
X1289101Y193990D01*
X1324661Y270185D02*
X1334818D01*
X1329739D01*
Y254950D01*
X1339896Y270185D02*
Y254950D01*
Y262568D01*
X1342435Y265107D01*
X1347513D01*
X1350053Y262568D01*
Y254950D01*
X1355131D02*
X1360209D01*
X1357670D01*
Y265107D01*
X1355131D01*
X1377984D02*
X1370366D01*
X1367827Y262568D01*
Y257489D01*
X1370366Y254950D01*
X1377984D01*
X1383062D02*
Y270185D01*
Y260028D02*
X1390679Y265107D01*
X1383062Y260028D02*
X1390679Y254950D01*
X1398297D02*
Y265107D01*
X1405915D01*
X1408454Y262568D01*
Y254950D01*
X1421150D02*
X1416071D01*
X1413532Y257489D01*
Y262568D01*
X1416071Y265107D01*
X1421150D01*
X1423689Y262568D01*
Y260028D01*
X1413532D01*
X1428767Y254950D02*
X1436385D01*
X1438924Y257489D01*
X1436385Y260028D01*
X1431306D01*
X1428767Y262568D01*
X1431306Y265107D01*
X1438924D01*
X1444002Y254950D02*
X1451620D01*
X1454159Y257489D01*
X1451620Y260028D01*
X1446541D01*
X1444002Y262568D01*
X1446541Y265107D01*
X1454159D01*
X1324661Y-37154D02*
X1327200Y-34615D01*
X1332278D01*
X1334818Y-37154D01*
Y-47311D01*
X1332278Y-49850D01*
X1327200D01*
X1324661Y-47311D01*
Y-37154D01*
X1342435Y-52389D02*
X1344974Y-49850D01*
Y-47311D01*
X1342435D01*
Y-49850D01*
X1344974D01*
X1342435Y-52389D01*
X1339896Y-54928D01*
X1355131Y-37154D02*
X1357670Y-34615D01*
X1362749D01*
X1365288Y-37154D01*
Y-47311D01*
X1362749Y-49850D01*
X1357670D01*
X1355131Y-47311D01*
Y-37154D01*
X1370366Y-49850D02*
X1375444D01*
X1372905D01*
Y-34615D01*
X1370366Y-37154D01*
X1383062D02*
X1385601Y-34615D01*
X1390679D01*
X1393219Y-37154D01*
Y-47311D01*
X1390679Y-49850D01*
X1385601D01*
X1383062Y-47311D01*
Y-37154D01*
X1398297Y-49850D02*
Y-39693D01*
X1400836D01*
X1403375Y-42232D01*
Y-49850D01*
Y-42232D01*
X1405915Y-39693D01*
X1408454Y-42232D01*
Y-49850D01*
X1413532D02*
Y-39693D01*
X1416071D01*
X1418610Y-42232D01*
Y-49850D01*
Y-42232D01*
X1421150Y-39693D01*
X1423689Y-42232D01*
Y-49850D01*
X1324661Y-6674D02*
X1327200Y-4135D01*
X1332278D01*
X1334818Y-6674D01*
Y-16831D01*
X1332278Y-19370D01*
X1327200D01*
X1324661Y-16831D01*
Y-6674D01*
X1342435Y-21909D02*
X1344974Y-19370D01*
Y-16831D01*
X1342435D01*
Y-19370D01*
X1344974D01*
X1342435Y-21909D01*
X1339896Y-24448D01*
X1355131Y-6674D02*
X1357670Y-4135D01*
X1362749D01*
X1365288Y-6674D01*
Y-16831D01*
X1362749Y-19370D01*
X1357670D01*
X1355131Y-16831D01*
Y-6674D01*
X1380523Y-4135D02*
X1370366D01*
Y-11753D01*
X1375444Y-9213D01*
X1377984D01*
X1380523Y-11753D01*
Y-16831D01*
X1377984Y-19370D01*
X1372905D01*
X1370366Y-16831D01*
X1395758Y-4135D02*
X1385601D01*
Y-11753D01*
X1390679Y-9213D01*
X1393219D01*
X1395758Y-11753D01*
Y-16831D01*
X1393219Y-19370D01*
X1388140D01*
X1385601Y-16831D01*
X1400836Y-19370D02*
Y-9213D01*
X1403375D01*
X1405915Y-11753D01*
Y-19370D01*
Y-11753D01*
X1408454Y-9213D01*
X1410993Y-11753D01*
Y-19370D01*
X1416071D02*
Y-9213D01*
X1418611D01*
X1421150Y-11753D01*
Y-19370D01*
Y-11753D01*
X1423689Y-9213D01*
X1426228Y-11753D01*
Y-19370D01*
X1324661Y23806D02*
X1327200Y26345D01*
X1332278D01*
X1334818Y23806D01*
Y13649D01*
X1332278Y11110D01*
X1327200D01*
X1324661Y13649D01*
Y23806D01*
X1342435Y8571D02*
X1344974Y11110D01*
Y13649D01*
X1342435D01*
Y11110D01*
X1344974D01*
X1342435Y8571D01*
X1339896Y6032D01*
X1355131Y23806D02*
X1357670Y26345D01*
X1362749D01*
X1365288Y23806D01*
Y21267D01*
X1362749Y18728D01*
X1360209D01*
X1362749D01*
X1365288Y16188D01*
Y13649D01*
X1362749Y11110D01*
X1357670D01*
X1355131Y13649D01*
X1380523Y26345D02*
X1375444Y23806D01*
X1370366Y18728D01*
Y13649D01*
X1372905Y11110D01*
X1377984D01*
X1380523Y13649D01*
Y16188D01*
X1377984Y18728D01*
X1370366D01*
X1385601Y23806D02*
X1388140Y26345D01*
X1393219D01*
X1395758Y23806D01*
Y13649D01*
X1393219Y11110D01*
X1388140D01*
X1385601Y13649D01*
Y23806D01*
X1400836Y11110D02*
Y21267D01*
X1403375D01*
X1405915Y18728D01*
Y11110D01*
Y18728D01*
X1408454Y21267D01*
X1410993Y18728D01*
Y11110D01*
X1416071D02*
Y21267D01*
X1418611D01*
X1421150Y18728D01*
Y11110D01*
Y18728D01*
X1423689Y21267D01*
X1426228Y18728D01*
Y11110D01*
X1324661Y54286D02*
X1327200Y56825D01*
X1332278D01*
X1334818Y54286D01*
Y44129D01*
X1332278Y41590D01*
X1327200D01*
X1324661Y44129D01*
Y54286D01*
X1342435Y39051D02*
X1344974Y41590D01*
Y44129D01*
X1342435D01*
Y41590D01*
X1344974D01*
X1342435Y39051D01*
X1339896Y36512D01*
X1355131Y54286D02*
X1357670Y56825D01*
X1362749D01*
X1365288Y54286D01*
Y44129D01*
X1362749Y41590D01*
X1357670D01*
X1355131Y44129D01*
Y54286D01*
X1370366D02*
X1372905Y56825D01*
X1377984D01*
X1380523Y54286D01*
Y51747D01*
X1377984Y49208D01*
X1375444D01*
X1377984D01*
X1380523Y46668D01*
Y44129D01*
X1377984Y41590D01*
X1372905D01*
X1370366Y44129D01*
X1395758Y56825D02*
X1385601D01*
Y49208D01*
X1390679Y51747D01*
X1393219D01*
X1395758Y49208D01*
Y44129D01*
X1393219Y41590D01*
X1388140D01*
X1385601Y44129D01*
X1400836Y41590D02*
Y51747D01*
X1403375D01*
X1405915Y49208D01*
Y41590D01*
Y49208D01*
X1408454Y51747D01*
X1410993Y49208D01*
Y41590D01*
X1416071D02*
Y51747D01*
X1418611D01*
X1421150Y49208D01*
Y41590D01*
Y49208D01*
X1423689Y51747D01*
X1426228Y49208D01*
Y41590D01*
X1324661Y84766D02*
X1327200Y87305D01*
X1332278D01*
X1334818Y84766D01*
Y74609D01*
X1332278Y72070D01*
X1327200D01*
X1324661Y74609D01*
Y84766D01*
X1342435Y69531D02*
X1344974Y72070D01*
Y74609D01*
X1342435D01*
Y72070D01*
X1344974D01*
X1342435Y69531D01*
X1339896Y66992D01*
X1355131Y84766D02*
X1357670Y87305D01*
X1362749D01*
X1365288Y84766D01*
Y74609D01*
X1362749Y72070D01*
X1357670D01*
X1355131Y74609D01*
Y84766D01*
X1370366D02*
X1372905Y87305D01*
X1377984D01*
X1380523Y84766D01*
Y82227D01*
X1377984Y79688D01*
X1380523Y77148D01*
Y74609D01*
X1377984Y72070D01*
X1372905D01*
X1370366Y74609D01*
Y77148D01*
X1372905Y79688D01*
X1370366Y82227D01*
Y84766D01*
X1372905Y79688D02*
X1377984D01*
X1385601Y84766D02*
X1388140Y87305D01*
X1393219D01*
X1395758Y84766D01*
Y74609D01*
X1393219Y72070D01*
X1388140D01*
X1385601Y74609D01*
Y84766D01*
X1400836Y72070D02*
Y82227D01*
X1403375D01*
X1405915Y79688D01*
Y72070D01*
Y79688D01*
X1408454Y82227D01*
X1410993Y79688D01*
Y72070D01*
X1416071D02*
Y82227D01*
X1418611D01*
X1421150Y79688D01*
Y72070D01*
Y79688D01*
X1423689Y82227D01*
X1426228Y79688D01*
Y72070D01*
X1324661Y115246D02*
X1327200Y117785D01*
X1332278D01*
X1334818Y115246D01*
Y105089D01*
X1332278Y102550D01*
X1327200D01*
X1324661Y105089D01*
Y115246D01*
X1342435Y100011D02*
X1344974Y102550D01*
Y105089D01*
X1342435D01*
Y102550D01*
X1344974D01*
X1342435Y100011D01*
X1339896Y97472D01*
X1355131Y115246D02*
X1357670Y117785D01*
X1362749D01*
X1365288Y115246D01*
Y105089D01*
X1362749Y102550D01*
X1357670D01*
X1355131Y105089D01*
Y115246D01*
X1370366D02*
X1372905Y117785D01*
X1377984D01*
X1380523Y115246D01*
Y112707D01*
X1377984Y110168D01*
X1375444D01*
X1377984D01*
X1380523Y107628D01*
Y105089D01*
X1377984Y102550D01*
X1372905D01*
X1370366Y105089D01*
X1395758Y117785D02*
X1385601D01*
Y110168D01*
X1390679Y112707D01*
X1393219D01*
X1395758Y110168D01*
Y105089D01*
X1393219Y102550D01*
X1388140D01*
X1385601Y105089D01*
X1400836Y102550D02*
Y112707D01*
X1403375D01*
X1405915Y110168D01*
Y102550D01*
Y110168D01*
X1408454Y112707D01*
X1410993Y110168D01*
Y102550D01*
X1416071D02*
Y112707D01*
X1418611D01*
X1421150Y110168D01*
Y102550D01*
Y110168D01*
X1423689Y112707D01*
X1426228Y110168D01*
Y102550D01*
X1324661Y145726D02*
X1327200Y148265D01*
X1332278D01*
X1334818Y145726D01*
Y135569D01*
X1332278Y133030D01*
X1327200D01*
X1324661Y135569D01*
Y145726D01*
X1342435Y130491D02*
X1344974Y133030D01*
Y135569D01*
X1342435D01*
Y133030D01*
X1344974D01*
X1342435Y130491D01*
X1339896Y127952D01*
X1362749Y133030D02*
Y148265D01*
X1355131Y140647D01*
X1365288D01*
X1370366Y145726D02*
X1372905Y148265D01*
X1377984D01*
X1380523Y145726D01*
Y135569D01*
X1377984Y133030D01*
X1372905D01*
X1370366Y135569D01*
Y145726D01*
X1385601D02*
X1388140Y148265D01*
X1393219D01*
X1395758Y145726D01*
Y135569D01*
X1393219Y133030D01*
X1388140D01*
X1385601Y135569D01*
Y145726D01*
X1400836Y133030D02*
Y143187D01*
X1403375D01*
X1405915Y140647D01*
Y133030D01*
Y140647D01*
X1408454Y143187D01*
X1410993Y140647D01*
Y133030D01*
X1416071D02*
Y143187D01*
X1418611D01*
X1421150Y140647D01*
Y133030D01*
Y140647D01*
X1423689Y143187D01*
X1426228Y140647D01*
Y133030D01*
X1324661Y176206D02*
X1327200Y178745D01*
X1332278D01*
X1334818Y176206D01*
Y166049D01*
X1332278Y163510D01*
X1327200D01*
X1324661Y166049D01*
Y176206D01*
X1342435Y160971D02*
X1344974Y163510D01*
Y166049D01*
X1342435D01*
Y163510D01*
X1344974D01*
X1342435Y160971D01*
X1339896Y158432D01*
X1355131Y176206D02*
X1357670Y178745D01*
X1362749D01*
X1365288Y176206D01*
Y166049D01*
X1362749Y163510D01*
X1357670D01*
X1355131Y166049D01*
Y176206D01*
X1380523Y178745D02*
X1370366D01*
Y171127D01*
X1375444Y173667D01*
X1377984D01*
X1380523Y171127D01*
Y166049D01*
X1377984Y163510D01*
X1372905D01*
X1370366Y166049D01*
X1395758Y178745D02*
X1385601D01*
Y171127D01*
X1390679Y173667D01*
X1393219D01*
X1395758Y171127D01*
Y166049D01*
X1393219Y163510D01*
X1388140D01*
X1385601Y166049D01*
X1400836Y163510D02*
Y173667D01*
X1403375D01*
X1405915Y171127D01*
Y163510D01*
Y171127D01*
X1408454Y173667D01*
X1410993Y171127D01*
Y163510D01*
X1416071D02*
Y173667D01*
X1418611D01*
X1421150Y171127D01*
Y163510D01*
Y171127D01*
X1423689Y173667D01*
X1426228Y171127D01*
Y163510D01*
X1324661Y206686D02*
X1327200Y209225D01*
X1332278D01*
X1334818Y206686D01*
Y196529D01*
X1332278Y193990D01*
X1327200D01*
X1324661Y196529D01*
Y206686D01*
X1342435Y191451D02*
X1344974Y193990D01*
Y196529D01*
X1342435D01*
Y193990D01*
X1344974D01*
X1342435Y191451D01*
X1339896Y188912D01*
X1355131Y206686D02*
X1357670Y209225D01*
X1362749D01*
X1365288Y206686D01*
Y196529D01*
X1362749Y193990D01*
X1357670D01*
X1355131Y196529D01*
Y206686D01*
X1370366Y193990D02*
X1375444D01*
X1372905D01*
Y209225D01*
X1370366Y206686D01*
X1383062D02*
X1385601Y209225D01*
X1390679D01*
X1393219Y206686D01*
Y196529D01*
X1390679Y193990D01*
X1385601D01*
X1383062Y196529D01*
Y206686D01*
X1398297Y193990D02*
Y204147D01*
X1400836D01*
X1403375Y201607D01*
Y193990D01*
Y201607D01*
X1405915Y204147D01*
X1408454Y201607D01*
Y193990D01*
X1413532D02*
Y204147D01*
X1416071D01*
X1418610Y201607D01*
Y193990D01*
Y201607D01*
X1421150Y204147D01*
X1423689Y201607D01*
Y193990D01*
X1499876Y267646D02*
X1497336Y270185D01*
X1492258D01*
X1489719Y267646D01*
Y257489D01*
X1492258Y254950D01*
X1497336D01*
X1499876Y257489D01*
X1507493Y254950D02*
X1512572D01*
X1515111Y257489D01*
Y262568D01*
X1512572Y265107D01*
X1507493D01*
X1504954Y262568D01*
Y257489D01*
X1507493Y254950D01*
X1520189D02*
Y265107D01*
X1527807D01*
X1530346Y262568D01*
Y254950D01*
X1535424D02*
X1543042D01*
X1545581Y257489D01*
X1543042Y260028D01*
X1537963D01*
X1535424Y262568D01*
X1537963Y265107D01*
X1545581D01*
X1553198Y267646D02*
Y265107D01*
X1550659D01*
X1555738D01*
X1553198D01*
Y257489D01*
X1555738Y254950D01*
X1565894Y265107D02*
X1570973D01*
X1573512Y262568D01*
Y254950D01*
X1565894D01*
X1563355Y257489D01*
X1565894Y260028D01*
X1573512D01*
X1578590Y254950D02*
Y265107D01*
X1586208D01*
X1588747Y262568D01*
Y254950D01*
X1596364Y267646D02*
Y265107D01*
X1593825D01*
X1598904D01*
X1596364D01*
Y257489D01*
X1598904Y254950D01*
X1489719Y-37154D02*
X1492258Y-34615D01*
X1497336D01*
X1499876Y-37154D01*
Y-39693D01*
X1497336Y-42232D01*
X1494797D01*
X1497336D01*
X1499876Y-44772D01*
Y-47311D01*
X1497336Y-49850D01*
X1492258D01*
X1489719Y-47311D01*
X1504954Y-49850D02*
Y-47311D01*
X1507493D01*
Y-49850D01*
X1504954D01*
X1527807Y-34615D02*
X1517650D01*
Y-42232D01*
X1522728Y-39693D01*
X1525267D01*
X1527807Y-42232D01*
Y-47311D01*
X1525267Y-49850D01*
X1520189D01*
X1517650Y-47311D01*
X1497336Y11110D02*
Y26345D01*
X1489719Y18728D01*
X1499876D01*
X1504954Y11110D02*
Y13649D01*
X1507493D01*
Y11110D01*
X1504954D01*
X1517650Y23806D02*
X1520189Y26345D01*
X1525267D01*
X1527807Y23806D01*
Y21267D01*
X1525267Y18728D01*
X1522728D01*
X1525267D01*
X1527807Y16188D01*
Y13649D01*
X1525267Y11110D01*
X1520189D01*
X1517650Y13649D01*
X1497336Y72070D02*
Y87305D01*
X1489719Y79688D01*
X1499876D01*
X1504954Y72070D02*
Y74609D01*
X1507493D01*
Y72070D01*
X1504954D01*
X1527807D02*
X1517650D01*
X1527807Y82227D01*
Y84766D01*
X1525267Y87305D01*
X1520189D01*
X1517650Y84766D01*
X1497336Y133030D02*
Y148265D01*
X1489719Y140647D01*
X1499876D01*
X1504954Y133030D02*
Y135569D01*
X1507493D01*
Y133030D01*
X1504954D01*
X1517650Y145726D02*
X1520189Y148265D01*
X1525267D01*
X1527807Y145726D01*
Y143187D01*
X1525267Y140647D01*
X1522728D01*
X1525267D01*
X1527807Y138108D01*
Y135569D01*
X1525267Y133030D01*
X1520189D01*
X1517650Y135569D01*
X1489719Y206686D02*
X1492258Y209225D01*
X1497336D01*
X1499876Y206686D01*
Y204147D01*
X1497336Y201607D01*
X1494797D01*
X1497336D01*
X1499876Y199068D01*
Y196529D01*
X1497336Y193990D01*
X1492258D01*
X1489719Y196529D01*
X1504954Y193990D02*
Y196529D01*
X1507493D01*
Y193990D01*
X1504954D01*
X1527807Y209225D02*
X1517650D01*
Y201607D01*
X1522728Y204147D01*
X1525267D01*
X1527807Y201607D01*
Y196529D01*
X1525267Y193990D01*
X1520189D01*
X1517650Y196529D01*
D11*
X0Y127250D02*
Y262975D01*
Y280000D01*
Y127250D02*
X30000D01*
Y77750D02*
Y127250D01*
X0Y77750D02*
X30000D01*
X0Y0D02*
Y77750D01*
Y280000D02*
X650000D01*
Y0D02*
Y280000D01*
X0Y0D02*
X650000D01*
D15*
X748227Y247330D02*
X1616684D01*
X748227Y277810D02*
X1616684D01*
X748227Y-87950D02*
Y277810D01*
Y-87950D02*
X852345D01*
X748227Y-57470D02*
X852345D01*
X748227Y-26990D02*
X852345D01*
X748227Y3490D02*
X852345D01*
X748227Y33970D02*
X852345D01*
X748227Y64450D02*
X852345D01*
X748227Y94930D02*
X852345D01*
X748227Y125410D02*
X852345D01*
X748227Y155890D02*
X852345D01*
X748227Y186370D02*
X852345D01*
X748227Y216850D02*
X852345D01*
Y-87950D02*
Y277810D01*
Y-87950D02*
X1088500D01*
X852345Y-57470D02*
X1088500D01*
X852345Y-26990D02*
X1088500D01*
X852345Y3490D02*
X1088500D01*
X852345Y33970D02*
X1088500D01*
X852345Y64450D02*
X1088500D01*
X852345Y94930D02*
X1088500D01*
X852345Y125410D02*
X1088500D01*
X852345Y155890D02*
X1088500D01*
X852345Y186370D02*
X1088500D01*
X852345Y216850D02*
X1088500D01*
Y-87950D02*
Y277810D01*
Y-87950D02*
X1306881D01*
X1088500Y-57470D02*
X1306881D01*
X1088500Y-26990D02*
X1306881D01*
X1088500Y3490D02*
X1306881D01*
X1088500Y33970D02*
X1306881D01*
X1088500Y64450D02*
X1306881D01*
X1088500Y94930D02*
X1306881D01*
X1088500Y125410D02*
X1306881D01*
X1088500Y155890D02*
X1306881D01*
X1088500Y186370D02*
X1306881D01*
X1088500Y216850D02*
X1306881D01*
Y-87950D02*
Y277810D01*
Y-87950D02*
X1471939D01*
X1306881Y-57470D02*
X1471939D01*
X1306881Y-26990D02*
X1471939D01*
X1306881Y3490D02*
X1471939D01*
X1306881Y33970D02*
X1471939D01*
X1306881Y64450D02*
X1471939D01*
X1306881Y94930D02*
X1471939D01*
X1306881Y125410D02*
X1471939D01*
X1306881Y155890D02*
X1471939D01*
X1306881Y186370D02*
X1471939D01*
X1306881Y216850D02*
X1471939D01*
Y-87950D02*
Y277810D01*
Y-87950D02*
X1616684D01*
X1471939Y-57470D02*
X1616684D01*
X1471939Y-26990D02*
X1616684D01*
X1471939Y3490D02*
X1616684D01*
X1471939Y33970D02*
X1616684D01*
X1471939Y64450D02*
X1616684D01*
X1471939Y94930D02*
X1616684D01*
X1471939Y125410D02*
X1616684D01*
X1471939Y155890D02*
X1616684D01*
X1471939Y186370D02*
X1616684D01*
X1471939Y216850D02*
X1616684D01*
Y-87950D02*
Y277810D01*
D44*
X455200Y55000D02*
D03*
D47*
X573100Y17600D02*
D03*
D54*
X53000Y201000D02*
X68000Y186000D01*
X53000Y201000D02*
Y219000D01*
X68000Y234000D01*
Y255500D02*
X87500Y275000D01*
X68000Y234000D02*
Y255500D01*
X87500Y275000D02*
X391250D01*
X400250Y250000D02*
Y266000D01*
X391250Y275000D02*
X400250Y266000D01*
D57*
X68000Y186000D02*
D03*
Y234000D02*
D03*
X237552Y155307D02*
D03*
X477500Y140000D02*
D03*
X485000D02*
D03*
X477500Y147500D02*
D03*
Y155000D02*
D03*
X220000Y250750D02*
D03*
X261500Y98750D02*
D03*
X260750Y109500D02*
D03*
X122500Y11750D02*
D03*
X383250Y153250D02*
D03*
X380000Y251000D02*
D03*
X400250Y250000D02*
D03*
X292000Y163500D02*
D03*
M02*
