G04*
G04 #@! TF.GenerationSoftware,Altium Limited,Altium Designer,23.10.1 (27)*
G04*
G04 Layer_Color=15724527*
%FSLAX44Y44*%
%MOMM*%
G71*
G04*
G04 #@! TF.SameCoordinates,12E47488-CEE1-414F-AB97-9C1FAA11A261*
G04*
G04*
G04 #@! TF.FilePolarity,Positive*
G04*
G01*
G75*
%ADD10C,0.2540*%
%ADD11C,0.2000*%
%ADD15C,0.3810*%
%ADD71C,0.0508*%
%ADD72C,0.4064*%
%ADD73C,0.3556*%
D10*
X766007Y270185D02*
Y254950D01*
X776164D01*
X783781Y265107D02*
X788860D01*
X791399Y262568D01*
Y254950D01*
X783781D01*
X781242Y257489D01*
X783781Y260028D01*
X791399D01*
X796477Y265107D02*
Y257489D01*
X799016Y254950D01*
X806634D01*
Y252411D01*
X804095Y249872D01*
X801556D01*
X806634Y254950D02*
Y265107D01*
X819330Y254950D02*
X814251D01*
X811712Y257489D01*
Y262568D01*
X814251Y265107D01*
X819330D01*
X821869Y262568D01*
Y260028D01*
X811712D01*
X826947Y265107D02*
Y254950D01*
Y260028D01*
X829487Y262568D01*
X832026Y265107D01*
X834565D01*
X773625Y-19370D02*
Y-4135D01*
X766007Y-11753D01*
X776164D01*
X766007Y54286D02*
X768546Y56825D01*
X773625D01*
X776164Y54286D01*
Y51747D01*
X773625Y49208D01*
X771085D01*
X773625D01*
X776164Y46668D01*
Y44129D01*
X773625Y41590D01*
X768546D01*
X766007Y44129D01*
X776164Y102550D02*
X766007D01*
X776164Y112707D01*
Y115246D01*
X773625Y117785D01*
X768546D01*
X766007Y115246D01*
Y163510D02*
X771085D01*
X768546D01*
Y178745D01*
X766007Y176206D01*
X870125Y254950D02*
Y270185D01*
X880282Y254950D01*
Y270185D01*
X887899Y265107D02*
X892978D01*
X895517Y262568D01*
Y254950D01*
X887899D01*
X885360Y257489D01*
X887899Y260028D01*
X895517D01*
X900595Y254950D02*
Y265107D01*
X903134D01*
X905673Y262568D01*
Y254950D01*
Y262568D01*
X908213Y265107D01*
X910752Y262568D01*
Y254950D01*
X923448D02*
X918369D01*
X915830Y257489D01*
Y262568D01*
X918369Y265107D01*
X923448D01*
X925987Y262568D01*
Y260028D01*
X915830D01*
X870125Y-65095D02*
Y-80330D01*
X877742D01*
X880282Y-77791D01*
Y-75252D01*
X877742Y-72712D01*
X870125D01*
X877742D01*
X880282Y-70173D01*
Y-67634D01*
X877742Y-65095D01*
X870125D01*
X887899Y-80330D02*
X892978D01*
X895517Y-77791D01*
Y-72712D01*
X892978Y-70173D01*
X887899D01*
X885360Y-72712D01*
Y-77791D01*
X887899Y-80330D01*
X903134Y-67634D02*
Y-70173D01*
X900595D01*
X905673D01*
X903134D01*
Y-77791D01*
X905673Y-80330D01*
X915830Y-67634D02*
Y-70173D01*
X913291D01*
X918369D01*
X915830D01*
Y-77791D01*
X918369Y-80330D01*
X928526D02*
X933604D01*
X936143Y-77791D01*
Y-72712D01*
X933604Y-70173D01*
X928526D01*
X925987Y-72712D01*
Y-77791D01*
X928526Y-80330D01*
X941222D02*
Y-70173D01*
X943761D01*
X946300Y-72712D01*
Y-80330D01*
Y-72712D01*
X948839Y-70173D01*
X951379Y-72712D01*
Y-80330D01*
X979310Y-65095D02*
X974231D01*
X971692Y-67634D01*
Y-77791D01*
X974231Y-80330D01*
X979310D01*
X981849Y-77791D01*
Y-67634D01*
X979310Y-65095D01*
X986927Y-70173D02*
X992005Y-80330D01*
X997084Y-70173D01*
X1009780Y-80330D02*
X1004701D01*
X1002162Y-77791D01*
Y-72712D01*
X1004701Y-70173D01*
X1009780D01*
X1012319Y-72712D01*
Y-75252D01*
X1002162D01*
X1017397Y-70173D02*
Y-80330D01*
Y-75252D01*
X1019936Y-72712D01*
X1022476Y-70173D01*
X1025015D01*
X1032632Y-80330D02*
X1037711D01*
X1035172D01*
Y-65095D01*
X1032632D01*
X1047867Y-70173D02*
X1052946D01*
X1055485Y-72712D01*
Y-80330D01*
X1047867D01*
X1045328Y-77791D01*
X1047867Y-75252D01*
X1055485D01*
X1060563Y-70173D02*
Y-77791D01*
X1063102Y-80330D01*
X1070720D01*
Y-82869D01*
X1068181Y-85408D01*
X1065642D01*
X1070720Y-80330D02*
Y-70173D01*
X870125Y-34615D02*
Y-49850D01*
X877742D01*
X880282Y-47311D01*
Y-44772D01*
X877742Y-42232D01*
X870125D01*
X877742D01*
X880282Y-39693D01*
Y-37154D01*
X877742Y-34615D01*
X870125D01*
X887899Y-49850D02*
X892978D01*
X895517Y-47311D01*
Y-42232D01*
X892978Y-39693D01*
X887899D01*
X885360Y-42232D01*
Y-47311D01*
X887899Y-49850D01*
X903134Y-37154D02*
Y-39693D01*
X900595D01*
X905673D01*
X903134D01*
Y-47311D01*
X905673Y-49850D01*
X915830Y-37154D02*
Y-39693D01*
X913291D01*
X918369D01*
X915830D01*
Y-47311D01*
X918369Y-49850D01*
X928526D02*
X933604D01*
X936143Y-47311D01*
Y-42232D01*
X933604Y-39693D01*
X928526D01*
X925987Y-42232D01*
Y-47311D01*
X928526Y-49850D01*
X941222D02*
Y-39693D01*
X943761D01*
X946300Y-42232D01*
Y-49850D01*
Y-42232D01*
X948839Y-39693D01*
X951379Y-42232D01*
Y-49850D01*
X981849Y-37154D02*
X979310Y-34615D01*
X974231D01*
X971692Y-37154D01*
Y-39693D01*
X974231Y-42232D01*
X979310D01*
X981849Y-44772D01*
Y-47311D01*
X979310Y-49850D01*
X974231D01*
X971692Y-47311D01*
X989466Y-49850D02*
X994545D01*
X997084Y-47311D01*
Y-42232D01*
X994545Y-39693D01*
X989466D01*
X986927Y-42232D01*
Y-47311D01*
X989466Y-49850D01*
X1002162D02*
X1007241D01*
X1004701D01*
Y-34615D01*
X1002162D01*
X1025015D02*
Y-49850D01*
X1017397D01*
X1014858Y-47311D01*
Y-42232D01*
X1017397Y-39693D01*
X1025015D01*
X1037711Y-49850D02*
X1032632D01*
X1030093Y-47311D01*
Y-42232D01*
X1032632Y-39693D01*
X1037711D01*
X1040250Y-42232D01*
Y-44772D01*
X1030093D01*
X1045328Y-39693D02*
Y-49850D01*
Y-44772D01*
X1047867Y-42232D01*
X1050407Y-39693D01*
X1052946D01*
X870125Y-4135D02*
Y-19370D01*
X877742D01*
X880282Y-16831D01*
Y-14292D01*
X877742Y-11753D01*
X870125D01*
X877742D01*
X880282Y-9213D01*
Y-6674D01*
X877742Y-4135D01*
X870125D01*
X887899Y-19370D02*
X892978D01*
X895517Y-16831D01*
Y-11753D01*
X892978Y-9213D01*
X887899D01*
X885360Y-11753D01*
Y-16831D01*
X887899Y-19370D01*
X903134Y-6674D02*
Y-9213D01*
X900595D01*
X905673D01*
X903134D01*
Y-16831D01*
X905673Y-19370D01*
X915830Y-6674D02*
Y-9213D01*
X913291D01*
X918369D01*
X915830D01*
Y-16831D01*
X918369Y-19370D01*
X928526D02*
X933604D01*
X936143Y-16831D01*
Y-11753D01*
X933604Y-9213D01*
X928526D01*
X925987Y-11753D01*
Y-16831D01*
X928526Y-19370D01*
X941222D02*
Y-9213D01*
X943761D01*
X946300Y-11753D01*
Y-19370D01*
Y-11753D01*
X948839Y-9213D01*
X951379Y-11753D01*
Y-19370D01*
X971692Y-4135D02*
Y-19370D01*
X981849D01*
X989466Y-9213D02*
X994545D01*
X997084Y-11753D01*
Y-19370D01*
X989466D01*
X986927Y-16831D01*
X989466Y-14292D01*
X997084D01*
X1002162Y-9213D02*
Y-16831D01*
X1004701Y-19370D01*
X1012319D01*
Y-21909D01*
X1009780Y-24448D01*
X1007241D01*
X1012319Y-19370D02*
Y-9213D01*
X1025015Y-19370D02*
X1019936D01*
X1017397Y-16831D01*
Y-11753D01*
X1019936Y-9213D01*
X1025015D01*
X1027554Y-11753D01*
Y-14292D01*
X1017397D01*
X1032632Y-9213D02*
Y-19370D01*
Y-14292D01*
X1035172Y-11753D01*
X1037711Y-9213D01*
X1040250D01*
X870125Y26345D02*
Y11110D01*
X877742D01*
X880282Y13649D01*
Y23806D01*
X877742Y26345D01*
X870125D01*
X885360Y11110D02*
X890438D01*
X887899D01*
Y21267D01*
X885360D01*
X905673Y11110D02*
X900595D01*
X898056Y13649D01*
Y18728D01*
X900595Y21267D01*
X905673D01*
X908213Y18728D01*
Y16188D01*
X898056D01*
X913291Y11110D02*
X918369D01*
X915830D01*
Y26345D01*
X913291D01*
X933604Y11110D02*
X928526D01*
X925987Y13649D01*
Y18728D01*
X928526Y21267D01*
X933604D01*
X936143Y18728D01*
Y16188D01*
X925987D01*
X951379Y21267D02*
X943761D01*
X941222Y18728D01*
Y13649D01*
X943761Y11110D01*
X951379D01*
X958996Y23806D02*
Y21267D01*
X956457D01*
X961535D01*
X958996D01*
Y13649D01*
X961535Y11110D01*
X969153Y21267D02*
Y11110D01*
Y16188D01*
X971692Y18728D01*
X974231Y21267D01*
X976770D01*
X984388Y11110D02*
X989466D01*
X986927D01*
Y21267D01*
X984388D01*
X1007241D02*
X999623D01*
X997084Y18728D01*
Y13649D01*
X999623Y11110D01*
X1007241D01*
X1027554Y23806D02*
X1030093Y26345D01*
X1035172D01*
X1037711Y23806D01*
Y21267D01*
X1035172Y18728D01*
X1032632D01*
X1035172D01*
X1037711Y16188D01*
Y13649D01*
X1035172Y11110D01*
X1030093D01*
X1027554Y13649D01*
X870125Y56825D02*
Y41590D01*
X880282D01*
X887899Y51747D02*
X892978D01*
X895517Y49208D01*
Y41590D01*
X887899D01*
X885360Y44129D01*
X887899Y46668D01*
X895517D01*
X900595Y51747D02*
Y44129D01*
X903134Y41590D01*
X910752D01*
Y39051D01*
X908213Y36512D01*
X905673D01*
X910752Y41590D02*
Y51747D01*
X923448Y41590D02*
X918369D01*
X915830Y44129D01*
Y49208D01*
X918369Y51747D01*
X923448D01*
X925987Y49208D01*
Y46668D01*
X915830D01*
X931065Y51747D02*
Y41590D01*
Y46668D01*
X933604Y49208D01*
X936143Y51747D01*
X938683D01*
X971692Y41590D02*
X961535D01*
X971692Y51747D01*
Y54286D01*
X969153Y56825D01*
X964074D01*
X961535Y54286D01*
X870125Y87305D02*
Y72070D01*
X877742D01*
X880282Y74609D01*
Y84766D01*
X877742Y87305D01*
X870125D01*
X885360Y72070D02*
X890438D01*
X887899D01*
Y82227D01*
X885360D01*
X905673Y72070D02*
X900595D01*
X898056Y74609D01*
Y79688D01*
X900595Y82227D01*
X905673D01*
X908213Y79688D01*
Y77148D01*
X898056D01*
X913291Y72070D02*
X918369D01*
X915830D01*
Y87305D01*
X913291D01*
X933604Y72070D02*
X928526D01*
X925987Y74609D01*
Y79688D01*
X928526Y82227D01*
X933604D01*
X936143Y79688D01*
Y77148D01*
X925987D01*
X951379Y82227D02*
X943761D01*
X941222Y79688D01*
Y74609D01*
X943761Y72070D01*
X951379D01*
X958996Y84766D02*
Y82227D01*
X956457D01*
X961535D01*
X958996D01*
Y74609D01*
X961535Y72070D01*
X969153Y82227D02*
Y72070D01*
Y77148D01*
X971692Y79688D01*
X974231Y82227D01*
X976770D01*
X984388Y72070D02*
X989466D01*
X986927D01*
Y82227D01*
X984388D01*
X1007241D02*
X999623D01*
X997084Y79688D01*
Y74609D01*
X999623Y72070D01*
X1007241D01*
X1027554D02*
X1032632D01*
X1030093D01*
Y87305D01*
X1027554Y84766D01*
X870125Y117785D02*
Y102550D01*
X880282D01*
X887899Y112707D02*
X892978D01*
X895517Y110168D01*
Y102550D01*
X887899D01*
X885360Y105089D01*
X887899Y107628D01*
X895517D01*
X900595Y112707D02*
Y105089D01*
X903134Y102550D01*
X910752D01*
Y100011D01*
X908213Y97472D01*
X905673D01*
X910752Y102550D02*
Y112707D01*
X923448Y102550D02*
X918369D01*
X915830Y105089D01*
Y110168D01*
X918369Y112707D01*
X923448D01*
X925987Y110168D01*
Y107628D01*
X915830D01*
X931065Y112707D02*
Y102550D01*
Y107628D01*
X933604Y110168D01*
X936143Y112707D01*
X938683D01*
X961535Y102550D02*
X966614D01*
X964074D01*
Y117785D01*
X961535Y115246D01*
X870125Y148265D02*
Y133030D01*
X877742D01*
X880282Y135569D01*
Y145726D01*
X877742Y148265D01*
X870125D01*
X885360Y133030D02*
X890438D01*
X887899D01*
Y143187D01*
X885360D01*
X905673Y133030D02*
X900595D01*
X898056Y135569D01*
Y140647D01*
X900595Y143187D01*
X905673D01*
X908213Y140647D01*
Y138108D01*
X898056D01*
X913291Y133030D02*
X918369D01*
X915830D01*
Y148265D01*
X913291D01*
X933604Y133030D02*
X928526D01*
X925987Y135569D01*
Y140647D01*
X928526Y143187D01*
X933604D01*
X936143Y140647D01*
Y138108D01*
X925987D01*
X951379Y143187D02*
X943761D01*
X941222Y140647D01*
Y135569D01*
X943761Y133030D01*
X951379D01*
X958996Y145726D02*
Y143187D01*
X956457D01*
X961535D01*
X958996D01*
Y135569D01*
X961535Y133030D01*
X969153Y143187D02*
Y133030D01*
Y138108D01*
X971692Y140647D01*
X974231Y143187D01*
X976770D01*
X984388Y133030D02*
X989466D01*
X986927D01*
Y143187D01*
X984388D01*
X1007241D02*
X999623D01*
X997084Y140647D01*
Y135569D01*
X999623Y133030D01*
X1007241D01*
X1037711D02*
X1027554D01*
X1037711Y143187D01*
Y145726D01*
X1035172Y148265D01*
X1030093D01*
X1027554Y145726D01*
X870125Y178745D02*
X880282D01*
X875203D01*
Y163510D01*
X887899D02*
X892978D01*
X895517Y166049D01*
Y171127D01*
X892978Y173667D01*
X887899D01*
X885360Y171127D01*
Y166049D01*
X887899Y163510D01*
X900595Y158432D02*
Y173667D01*
X908213D01*
X910752Y171127D01*
Y166049D01*
X908213Y163510D01*
X900595D01*
X931065Y178745D02*
Y163510D01*
X941222D01*
X948839Y173667D02*
X953918D01*
X956457Y171127D01*
Y163510D01*
X948839D01*
X946300Y166049D01*
X948839Y168588D01*
X956457D01*
X961535Y173667D02*
Y166049D01*
X964074Y163510D01*
X971692D01*
Y160971D01*
X969153Y158432D01*
X966614D01*
X971692Y163510D02*
Y173667D01*
X984388Y163510D02*
X979310D01*
X976770Y166049D01*
Y171127D01*
X979310Y173667D01*
X984388D01*
X986927Y171127D01*
Y168588D01*
X976770D01*
X992005Y173667D02*
Y163510D01*
Y168588D01*
X994545Y171127D01*
X997084Y173667D01*
X999623D01*
X870125Y209225D02*
X880282D01*
X875203D01*
Y193990D01*
X887899D02*
X892978D01*
X895517Y196529D01*
Y201607D01*
X892978Y204147D01*
X887899D01*
X885360Y201607D01*
Y196529D01*
X887899Y193990D01*
X900595Y188912D02*
Y204147D01*
X908213D01*
X910752Y201607D01*
Y196529D01*
X908213Y193990D01*
X900595D01*
X941222Y206686D02*
X938683Y209225D01*
X933604D01*
X931065Y206686D01*
Y204147D01*
X933604Y201607D01*
X938683D01*
X941222Y199068D01*
Y196529D01*
X938683Y193990D01*
X933604D01*
X931065Y196529D01*
X948839Y193990D02*
X953918D01*
X956457Y196529D01*
Y201607D01*
X953918Y204147D01*
X948839D01*
X946300Y201607D01*
Y196529D01*
X948839Y193990D01*
X961535D02*
X966614D01*
X964074D01*
Y209225D01*
X961535D01*
X984388D02*
Y193990D01*
X976770D01*
X974231Y196529D01*
Y201607D01*
X976770Y204147D01*
X984388D01*
X997084Y193990D02*
X992005D01*
X989466Y196529D01*
Y201607D01*
X992005Y204147D01*
X997084D01*
X999623Y201607D01*
Y199068D01*
X989466D01*
X1004701Y204147D02*
Y193990D01*
Y199068D01*
X1007241Y201607D01*
X1009780Y204147D01*
X1012319D01*
X870125Y239705D02*
X880282D01*
X875203D01*
Y224470D01*
X887899D02*
X892978D01*
X895517Y227009D01*
Y232087D01*
X892978Y234627D01*
X887899D01*
X885360Y232087D01*
Y227009D01*
X887899Y224470D01*
X900595Y219392D02*
Y234627D01*
X908213D01*
X910752Y232087D01*
Y227009D01*
X908213Y224470D01*
X900595D01*
X938683Y239705D02*
X933604D01*
X931065Y237166D01*
Y227009D01*
X933604Y224470D01*
X938683D01*
X941222Y227009D01*
Y237166D01*
X938683Y239705D01*
X946300Y234627D02*
X951379Y224470D01*
X956457Y234627D01*
X969153Y224470D02*
X964074D01*
X961535Y227009D01*
Y232087D01*
X964074Y234627D01*
X969153D01*
X971692Y232087D01*
Y229548D01*
X961535D01*
X976770Y234627D02*
Y224470D01*
Y229548D01*
X979310Y232087D01*
X981849Y234627D01*
X984388D01*
X992005Y224470D02*
X997084D01*
X994545D01*
Y239705D01*
X992005D01*
X1007241Y234627D02*
X1012319D01*
X1014858Y232087D01*
Y224470D01*
X1007241D01*
X1004701Y227009D01*
X1007241Y229548D01*
X1014858D01*
X1019936Y234627D02*
Y227009D01*
X1022476Y224470D01*
X1030093D01*
Y221931D01*
X1027554Y219392D01*
X1025015D01*
X1030093Y224470D02*
Y234627D01*
X1106280Y254950D02*
Y270185D01*
X1111358Y265107D01*
X1116437Y270185D01*
Y254950D01*
X1124054Y265107D02*
X1129133D01*
X1131672Y262568D01*
Y254950D01*
X1124054D01*
X1121515Y257489D01*
X1124054Y260028D01*
X1131672D01*
X1139289Y267646D02*
Y265107D01*
X1136750D01*
X1141829D01*
X1139289D01*
Y257489D01*
X1141829Y254950D01*
X1157064D02*
X1151985D01*
X1149446Y257489D01*
Y262568D01*
X1151985Y265107D01*
X1157064D01*
X1159603Y262568D01*
Y260028D01*
X1149446D01*
X1164681Y265107D02*
Y254950D01*
Y260028D01*
X1167220Y262568D01*
X1169760Y265107D01*
X1172299D01*
X1179916Y254950D02*
X1184995D01*
X1182455D01*
Y265107D01*
X1179916D01*
X1195151D02*
X1200230D01*
X1202769Y262568D01*
Y254950D01*
X1195151D01*
X1192612Y257489D01*
X1195151Y260028D01*
X1202769D01*
X1207847Y254950D02*
X1212925D01*
X1210386D01*
Y270185D01*
X1207847D01*
X1116437Y-37154D02*
X1113897Y-34615D01*
X1108819D01*
X1106280Y-37154D01*
Y-39693D01*
X1108819Y-42232D01*
X1113897D01*
X1116437Y-44772D01*
Y-47311D01*
X1113897Y-49850D01*
X1108819D01*
X1106280Y-47311D01*
X1124054Y-49850D02*
X1129133D01*
X1131672Y-47311D01*
Y-42232D01*
X1129133Y-39693D01*
X1124054D01*
X1121515Y-42232D01*
Y-47311D01*
X1124054Y-49850D01*
X1136750D02*
X1141829D01*
X1139289D01*
Y-34615D01*
X1136750D01*
X1159603D02*
Y-49850D01*
X1151985D01*
X1149446Y-47311D01*
Y-42232D01*
X1151985Y-39693D01*
X1159603D01*
X1172299Y-49850D02*
X1167220D01*
X1164681Y-47311D01*
Y-42232D01*
X1167220Y-39693D01*
X1172299D01*
X1174838Y-42232D01*
Y-44772D01*
X1164681D01*
X1179916Y-39693D02*
Y-49850D01*
Y-44772D01*
X1182455Y-42232D01*
X1184995Y-39693D01*
X1187534D01*
X1210386Y-49850D02*
Y-34615D01*
X1218004D01*
X1220543Y-37154D01*
Y-42232D01*
X1218004Y-44772D01*
X1210386D01*
X1215465D02*
X1220543Y-49850D01*
X1233239D02*
X1228161D01*
X1225621Y-47311D01*
Y-42232D01*
X1228161Y-39693D01*
X1233239D01*
X1235778Y-42232D01*
Y-44772D01*
X1225621D01*
X1240856Y-49850D02*
X1248474D01*
X1251013Y-47311D01*
X1248474Y-44772D01*
X1243396D01*
X1240856Y-42232D01*
X1243396Y-39693D01*
X1251013D01*
X1256092Y-49850D02*
X1261170D01*
X1258631D01*
Y-39693D01*
X1256092D01*
X1268787Y-49850D02*
X1276405D01*
X1278944Y-47311D01*
X1276405Y-44772D01*
X1271327D01*
X1268787Y-42232D01*
X1271327Y-39693D01*
X1278944D01*
X1286562Y-37154D02*
Y-39693D01*
X1284023D01*
X1289101D01*
X1286562D01*
Y-47311D01*
X1289101Y-49850D01*
X1106280Y11110D02*
Y26345D01*
X1113897D01*
X1116437Y23806D01*
Y18728D01*
X1113897Y16188D01*
X1106280D01*
X1121515Y11110D02*
Y26345D01*
X1129133D01*
X1131672Y23806D01*
Y18728D01*
X1129133Y16188D01*
X1121515D01*
X1136750Y18728D02*
X1146907D01*
X1151985Y23806D02*
X1154524Y26345D01*
X1159603D01*
X1162142Y23806D01*
Y13649D01*
X1159603Y11110D01*
X1154524D01*
X1151985Y13649D01*
Y23806D01*
X1167220D02*
X1169760Y26345D01*
X1174838D01*
X1177377Y23806D01*
Y13649D01*
X1174838Y11110D01*
X1169760D01*
X1167220Y13649D01*
Y23806D01*
X1192612Y26345D02*
X1187534Y23806D01*
X1182455Y18728D01*
Y13649D01*
X1184995Y11110D01*
X1190073D01*
X1192612Y13649D01*
Y16188D01*
X1190073Y18728D01*
X1182455D01*
X1116437Y54286D02*
X1113897Y56825D01*
X1108819D01*
X1106280Y54286D01*
Y44129D01*
X1108819Y41590D01*
X1113897D01*
X1116437Y44129D01*
X1131672Y56825D02*
X1121515D01*
Y49208D01*
X1126593D01*
X1121515D01*
Y41590D01*
X1136750Y49208D02*
X1146907D01*
X1151985Y54286D02*
X1154524Y56825D01*
X1159603D01*
X1162142Y54286D01*
Y44129D01*
X1159603Y41590D01*
X1154524D01*
X1151985Y44129D01*
Y54286D01*
X1167220D02*
X1169760Y56825D01*
X1174838D01*
X1177377Y54286D01*
Y44129D01*
X1174838Y41590D01*
X1169760D01*
X1167220Y44129D01*
Y54286D01*
X1190073Y41590D02*
Y56825D01*
X1182455Y49208D01*
X1192612D01*
X1116437Y87305D02*
X1106280D01*
Y79688D01*
X1111358D01*
X1106280D01*
Y72070D01*
X1121515D02*
Y87305D01*
X1129133D01*
X1131672Y84766D01*
Y79688D01*
X1129133Y77148D01*
X1121515D01*
X1126593D02*
X1131672Y72070D01*
X1136750Y79688D02*
X1146907D01*
X1159603Y72070D02*
Y87305D01*
X1151985Y79688D01*
X1162142D01*
X1116437Y115246D02*
X1113897Y117785D01*
X1108819D01*
X1106280Y115246D01*
Y105089D01*
X1108819Y102550D01*
X1113897D01*
X1116437Y105089D01*
X1131672Y117785D02*
X1121515D01*
Y110168D01*
X1126593D01*
X1121515D01*
Y102550D01*
X1136750Y110168D02*
X1146907D01*
X1151985Y115246D02*
X1154524Y117785D01*
X1159603D01*
X1162142Y115246D01*
Y105089D01*
X1159603Y102550D01*
X1154524D01*
X1151985Y105089D01*
Y115246D01*
X1167220D02*
X1169760Y117785D01*
X1174838D01*
X1177377Y115246D01*
Y105089D01*
X1174838Y102550D01*
X1169760D01*
X1167220Y105089D01*
Y115246D01*
X1190073Y102550D02*
Y117785D01*
X1182455Y110168D01*
X1192612D01*
X1106280Y133030D02*
Y148265D01*
X1113897D01*
X1116437Y145726D01*
Y140647D01*
X1113897Y138108D01*
X1106280D01*
X1121515Y133030D02*
Y148265D01*
X1129133D01*
X1131672Y145726D01*
Y140647D01*
X1129133Y138108D01*
X1121515D01*
X1136750Y140647D02*
X1146907D01*
X1151985Y145726D02*
X1154524Y148265D01*
X1159603D01*
X1162142Y145726D01*
Y135569D01*
X1159603Y133030D01*
X1154524D01*
X1151985Y135569D01*
Y145726D01*
X1167220D02*
X1169760Y148265D01*
X1174838D01*
X1177377Y145726D01*
Y135569D01*
X1174838Y133030D01*
X1169760D01*
X1167220Y135569D01*
Y145726D01*
X1192612Y148265D02*
X1187534Y145726D01*
X1182455Y140647D01*
Y135569D01*
X1184995Y133030D01*
X1190073D01*
X1192612Y135569D01*
Y138108D01*
X1190073Y140647D01*
X1182455D01*
X1116437Y206686D02*
X1113897Y209225D01*
X1108819D01*
X1106280Y206686D01*
Y204147D01*
X1108819Y201607D01*
X1113897D01*
X1116437Y199068D01*
Y196529D01*
X1113897Y193990D01*
X1108819D01*
X1106280Y196529D01*
X1124054Y193990D02*
X1129133D01*
X1131672Y196529D01*
Y201607D01*
X1129133Y204147D01*
X1124054D01*
X1121515Y201607D01*
Y196529D01*
X1124054Y193990D01*
X1136750D02*
X1141829D01*
X1139289D01*
Y209225D01*
X1136750D01*
X1159603D02*
Y193990D01*
X1151985D01*
X1149446Y196529D01*
Y201607D01*
X1151985Y204147D01*
X1159603D01*
X1172299Y193990D02*
X1167220D01*
X1164681Y196529D01*
Y201607D01*
X1167220Y204147D01*
X1172299D01*
X1174838Y201607D01*
Y199068D01*
X1164681D01*
X1179916Y204147D02*
Y193990D01*
Y199068D01*
X1182455Y201607D01*
X1184995Y204147D01*
X1187534D01*
X1210386Y193990D02*
Y209225D01*
X1218004D01*
X1220543Y206686D01*
Y201607D01*
X1218004Y199068D01*
X1210386D01*
X1215465D02*
X1220543Y193990D01*
X1233239D02*
X1228161D01*
X1225621Y196529D01*
Y201607D01*
X1228161Y204147D01*
X1233239D01*
X1235778Y201607D01*
Y199068D01*
X1225621D01*
X1240856Y193990D02*
X1248474D01*
X1251013Y196529D01*
X1248474Y199068D01*
X1243396D01*
X1240856Y201607D01*
X1243396Y204147D01*
X1251013D01*
X1256092Y193990D02*
X1261170D01*
X1258631D01*
Y204147D01*
X1256092D01*
X1268787Y193990D02*
X1276405D01*
X1278944Y196529D01*
X1276405Y199068D01*
X1271327D01*
X1268787Y201607D01*
X1271327Y204147D01*
X1278944D01*
X1286562Y206686D02*
Y204147D01*
X1284023D01*
X1289101D01*
X1286562D01*
Y196529D01*
X1289101Y193990D01*
X1324661Y270185D02*
X1334818D01*
X1329739D01*
Y254950D01*
X1339896Y270185D02*
Y254950D01*
Y262568D01*
X1342435Y265107D01*
X1347513D01*
X1350053Y262568D01*
Y254950D01*
X1355131D02*
X1360209D01*
X1357670D01*
Y265107D01*
X1355131D01*
X1377984D02*
X1370366D01*
X1367827Y262568D01*
Y257489D01*
X1370366Y254950D01*
X1377984D01*
X1383062D02*
Y270185D01*
Y260028D02*
X1390679Y265107D01*
X1383062Y260028D02*
X1390679Y254950D01*
X1398297D02*
Y265107D01*
X1405915D01*
X1408454Y262568D01*
Y254950D01*
X1421150D02*
X1416071D01*
X1413532Y257489D01*
Y262568D01*
X1416071Y265107D01*
X1421150D01*
X1423689Y262568D01*
Y260028D01*
X1413532D01*
X1428767Y254950D02*
X1436385D01*
X1438924Y257489D01*
X1436385Y260028D01*
X1431306D01*
X1428767Y262568D01*
X1431306Y265107D01*
X1438924D01*
X1444002Y254950D02*
X1451620D01*
X1454159Y257489D01*
X1451620Y260028D01*
X1446541D01*
X1444002Y262568D01*
X1446541Y265107D01*
X1454159D01*
X1324661Y-37154D02*
X1327200Y-34615D01*
X1332278D01*
X1334818Y-37154D01*
Y-47311D01*
X1332278Y-49850D01*
X1327200D01*
X1324661Y-47311D01*
Y-37154D01*
X1342435Y-52389D02*
X1344974Y-49850D01*
Y-47311D01*
X1342435D01*
Y-49850D01*
X1344974D01*
X1342435Y-52389D01*
X1339896Y-54928D01*
X1355131Y-37154D02*
X1357670Y-34615D01*
X1362749D01*
X1365288Y-37154D01*
Y-47311D01*
X1362749Y-49850D01*
X1357670D01*
X1355131Y-47311D01*
Y-37154D01*
X1370366Y-49850D02*
X1375444D01*
X1372905D01*
Y-34615D01*
X1370366Y-37154D01*
X1383062D02*
X1385601Y-34615D01*
X1390679D01*
X1393219Y-37154D01*
Y-47311D01*
X1390679Y-49850D01*
X1385601D01*
X1383062Y-47311D01*
Y-37154D01*
X1398297Y-49850D02*
Y-39693D01*
X1400836D01*
X1403375Y-42232D01*
Y-49850D01*
Y-42232D01*
X1405915Y-39693D01*
X1408454Y-42232D01*
Y-49850D01*
X1413532D02*
Y-39693D01*
X1416071D01*
X1418610Y-42232D01*
Y-49850D01*
Y-42232D01*
X1421150Y-39693D01*
X1423689Y-42232D01*
Y-49850D01*
X1324661Y-6674D02*
X1327200Y-4135D01*
X1332278D01*
X1334818Y-6674D01*
Y-16831D01*
X1332278Y-19370D01*
X1327200D01*
X1324661Y-16831D01*
Y-6674D01*
X1342435Y-21909D02*
X1344974Y-19370D01*
Y-16831D01*
X1342435D01*
Y-19370D01*
X1344974D01*
X1342435Y-21909D01*
X1339896Y-24448D01*
X1355131Y-6674D02*
X1357670Y-4135D01*
X1362749D01*
X1365288Y-6674D01*
Y-16831D01*
X1362749Y-19370D01*
X1357670D01*
X1355131Y-16831D01*
Y-6674D01*
X1380523Y-4135D02*
X1370366D01*
Y-11753D01*
X1375444Y-9213D01*
X1377984D01*
X1380523Y-11753D01*
Y-16831D01*
X1377984Y-19370D01*
X1372905D01*
X1370366Y-16831D01*
X1395758Y-4135D02*
X1385601D01*
Y-11753D01*
X1390679Y-9213D01*
X1393219D01*
X1395758Y-11753D01*
Y-16831D01*
X1393219Y-19370D01*
X1388140D01*
X1385601Y-16831D01*
X1400836Y-19370D02*
Y-9213D01*
X1403375D01*
X1405915Y-11753D01*
Y-19370D01*
Y-11753D01*
X1408454Y-9213D01*
X1410993Y-11753D01*
Y-19370D01*
X1416071D02*
Y-9213D01*
X1418611D01*
X1421150Y-11753D01*
Y-19370D01*
Y-11753D01*
X1423689Y-9213D01*
X1426228Y-11753D01*
Y-19370D01*
X1324661Y23806D02*
X1327200Y26345D01*
X1332278D01*
X1334818Y23806D01*
Y13649D01*
X1332278Y11110D01*
X1327200D01*
X1324661Y13649D01*
Y23806D01*
X1342435Y8571D02*
X1344974Y11110D01*
Y13649D01*
X1342435D01*
Y11110D01*
X1344974D01*
X1342435Y8571D01*
X1339896Y6032D01*
X1355131Y23806D02*
X1357670Y26345D01*
X1362749D01*
X1365288Y23806D01*
Y21267D01*
X1362749Y18728D01*
X1360209D01*
X1362749D01*
X1365288Y16188D01*
Y13649D01*
X1362749Y11110D01*
X1357670D01*
X1355131Y13649D01*
X1380523Y26345D02*
X1375444Y23806D01*
X1370366Y18728D01*
Y13649D01*
X1372905Y11110D01*
X1377984D01*
X1380523Y13649D01*
Y16188D01*
X1377984Y18728D01*
X1370366D01*
X1385601Y23806D02*
X1388140Y26345D01*
X1393219D01*
X1395758Y23806D01*
Y13649D01*
X1393219Y11110D01*
X1388140D01*
X1385601Y13649D01*
Y23806D01*
X1400836Y11110D02*
Y21267D01*
X1403375D01*
X1405915Y18728D01*
Y11110D01*
Y18728D01*
X1408454Y21267D01*
X1410993Y18728D01*
Y11110D01*
X1416071D02*
Y21267D01*
X1418611D01*
X1421150Y18728D01*
Y11110D01*
Y18728D01*
X1423689Y21267D01*
X1426228Y18728D01*
Y11110D01*
X1324661Y54286D02*
X1327200Y56825D01*
X1332278D01*
X1334818Y54286D01*
Y44129D01*
X1332278Y41590D01*
X1327200D01*
X1324661Y44129D01*
Y54286D01*
X1342435Y39051D02*
X1344974Y41590D01*
Y44129D01*
X1342435D01*
Y41590D01*
X1344974D01*
X1342435Y39051D01*
X1339896Y36512D01*
X1355131Y54286D02*
X1357670Y56825D01*
X1362749D01*
X1365288Y54286D01*
Y44129D01*
X1362749Y41590D01*
X1357670D01*
X1355131Y44129D01*
Y54286D01*
X1370366D02*
X1372905Y56825D01*
X1377984D01*
X1380523Y54286D01*
Y51747D01*
X1377984Y49208D01*
X1375444D01*
X1377984D01*
X1380523Y46668D01*
Y44129D01*
X1377984Y41590D01*
X1372905D01*
X1370366Y44129D01*
X1395758Y56825D02*
X1385601D01*
Y49208D01*
X1390679Y51747D01*
X1393219D01*
X1395758Y49208D01*
Y44129D01*
X1393219Y41590D01*
X1388140D01*
X1385601Y44129D01*
X1400836Y41590D02*
Y51747D01*
X1403375D01*
X1405915Y49208D01*
Y41590D01*
Y49208D01*
X1408454Y51747D01*
X1410993Y49208D01*
Y41590D01*
X1416071D02*
Y51747D01*
X1418611D01*
X1421150Y49208D01*
Y41590D01*
Y49208D01*
X1423689Y51747D01*
X1426228Y49208D01*
Y41590D01*
X1324661Y84766D02*
X1327200Y87305D01*
X1332278D01*
X1334818Y84766D01*
Y74609D01*
X1332278Y72070D01*
X1327200D01*
X1324661Y74609D01*
Y84766D01*
X1342435Y69531D02*
X1344974Y72070D01*
Y74609D01*
X1342435D01*
Y72070D01*
X1344974D01*
X1342435Y69531D01*
X1339896Y66992D01*
X1355131Y84766D02*
X1357670Y87305D01*
X1362749D01*
X1365288Y84766D01*
Y74609D01*
X1362749Y72070D01*
X1357670D01*
X1355131Y74609D01*
Y84766D01*
X1370366D02*
X1372905Y87305D01*
X1377984D01*
X1380523Y84766D01*
Y82227D01*
X1377984Y79688D01*
X1380523Y77148D01*
Y74609D01*
X1377984Y72070D01*
X1372905D01*
X1370366Y74609D01*
Y77148D01*
X1372905Y79688D01*
X1370366Y82227D01*
Y84766D01*
X1372905Y79688D02*
X1377984D01*
X1385601Y84766D02*
X1388140Y87305D01*
X1393219D01*
X1395758Y84766D01*
Y74609D01*
X1393219Y72070D01*
X1388140D01*
X1385601Y74609D01*
Y84766D01*
X1400836Y72070D02*
Y82227D01*
X1403375D01*
X1405915Y79688D01*
Y72070D01*
Y79688D01*
X1408454Y82227D01*
X1410993Y79688D01*
Y72070D01*
X1416071D02*
Y82227D01*
X1418611D01*
X1421150Y79688D01*
Y72070D01*
Y79688D01*
X1423689Y82227D01*
X1426228Y79688D01*
Y72070D01*
X1324661Y115246D02*
X1327200Y117785D01*
X1332278D01*
X1334818Y115246D01*
Y105089D01*
X1332278Y102550D01*
X1327200D01*
X1324661Y105089D01*
Y115246D01*
X1342435Y100011D02*
X1344974Y102550D01*
Y105089D01*
X1342435D01*
Y102550D01*
X1344974D01*
X1342435Y100011D01*
X1339896Y97472D01*
X1355131Y115246D02*
X1357670Y117785D01*
X1362749D01*
X1365288Y115246D01*
Y105089D01*
X1362749Y102550D01*
X1357670D01*
X1355131Y105089D01*
Y115246D01*
X1370366D02*
X1372905Y117785D01*
X1377984D01*
X1380523Y115246D01*
Y112707D01*
X1377984Y110168D01*
X1375444D01*
X1377984D01*
X1380523Y107628D01*
Y105089D01*
X1377984Y102550D01*
X1372905D01*
X1370366Y105089D01*
X1395758Y117785D02*
X1385601D01*
Y110168D01*
X1390679Y112707D01*
X1393219D01*
X1395758Y110168D01*
Y105089D01*
X1393219Y102550D01*
X1388140D01*
X1385601Y105089D01*
X1400836Y102550D02*
Y112707D01*
X1403375D01*
X1405915Y110168D01*
Y102550D01*
Y110168D01*
X1408454Y112707D01*
X1410993Y110168D01*
Y102550D01*
X1416071D02*
Y112707D01*
X1418611D01*
X1421150Y110168D01*
Y102550D01*
Y110168D01*
X1423689Y112707D01*
X1426228Y110168D01*
Y102550D01*
X1324661Y145726D02*
X1327200Y148265D01*
X1332278D01*
X1334818Y145726D01*
Y135569D01*
X1332278Y133030D01*
X1327200D01*
X1324661Y135569D01*
Y145726D01*
X1342435Y130491D02*
X1344974Y133030D01*
Y135569D01*
X1342435D01*
Y133030D01*
X1344974D01*
X1342435Y130491D01*
X1339896Y127952D01*
X1362749Y133030D02*
Y148265D01*
X1355131Y140647D01*
X1365288D01*
X1370366Y145726D02*
X1372905Y148265D01*
X1377984D01*
X1380523Y145726D01*
Y135569D01*
X1377984Y133030D01*
X1372905D01*
X1370366Y135569D01*
Y145726D01*
X1385601D02*
X1388140Y148265D01*
X1393219D01*
X1395758Y145726D01*
Y135569D01*
X1393219Y133030D01*
X1388140D01*
X1385601Y135569D01*
Y145726D01*
X1400836Y133030D02*
Y143187D01*
X1403375D01*
X1405915Y140647D01*
Y133030D01*
Y140647D01*
X1408454Y143187D01*
X1410993Y140647D01*
Y133030D01*
X1416071D02*
Y143187D01*
X1418611D01*
X1421150Y140647D01*
Y133030D01*
Y140647D01*
X1423689Y143187D01*
X1426228Y140647D01*
Y133030D01*
X1324661Y176206D02*
X1327200Y178745D01*
X1332278D01*
X1334818Y176206D01*
Y166049D01*
X1332278Y163510D01*
X1327200D01*
X1324661Y166049D01*
Y176206D01*
X1342435Y160971D02*
X1344974Y163510D01*
Y166049D01*
X1342435D01*
Y163510D01*
X1344974D01*
X1342435Y160971D01*
X1339896Y158432D01*
X1355131Y176206D02*
X1357670Y178745D01*
X1362749D01*
X1365288Y176206D01*
Y166049D01*
X1362749Y163510D01*
X1357670D01*
X1355131Y166049D01*
Y176206D01*
X1380523Y178745D02*
X1370366D01*
Y171127D01*
X1375444Y173667D01*
X1377984D01*
X1380523Y171127D01*
Y166049D01*
X1377984Y163510D01*
X1372905D01*
X1370366Y166049D01*
X1395758Y178745D02*
X1385601D01*
Y171127D01*
X1390679Y173667D01*
X1393219D01*
X1395758Y171127D01*
Y166049D01*
X1393219Y163510D01*
X1388140D01*
X1385601Y166049D01*
X1400836Y163510D02*
Y173667D01*
X1403375D01*
X1405915Y171127D01*
Y163510D01*
Y171127D01*
X1408454Y173667D01*
X1410993Y171127D01*
Y163510D01*
X1416071D02*
Y173667D01*
X1418611D01*
X1421150Y171127D01*
Y163510D01*
Y171127D01*
X1423689Y173667D01*
X1426228Y171127D01*
Y163510D01*
X1324661Y206686D02*
X1327200Y209225D01*
X1332278D01*
X1334818Y206686D01*
Y196529D01*
X1332278Y193990D01*
X1327200D01*
X1324661Y196529D01*
Y206686D01*
X1342435Y191451D02*
X1344974Y193990D01*
Y196529D01*
X1342435D01*
Y193990D01*
X1344974D01*
X1342435Y191451D01*
X1339896Y188912D01*
X1355131Y206686D02*
X1357670Y209225D01*
X1362749D01*
X1365288Y206686D01*
Y196529D01*
X1362749Y193990D01*
X1357670D01*
X1355131Y196529D01*
Y206686D01*
X1370366Y193990D02*
X1375444D01*
X1372905D01*
Y209225D01*
X1370366Y206686D01*
X1383062D02*
X1385601Y209225D01*
X1390679D01*
X1393219Y206686D01*
Y196529D01*
X1390679Y193990D01*
X1385601D01*
X1383062Y196529D01*
Y206686D01*
X1398297Y193990D02*
Y204147D01*
X1400836D01*
X1403375Y201607D01*
Y193990D01*
Y201607D01*
X1405915Y204147D01*
X1408454Y201607D01*
Y193990D01*
X1413532D02*
Y204147D01*
X1416071D01*
X1418610Y201607D01*
Y193990D01*
Y201607D01*
X1421150Y204147D01*
X1423689Y201607D01*
Y193990D01*
X1499876Y267646D02*
X1497336Y270185D01*
X1492258D01*
X1489719Y267646D01*
Y257489D01*
X1492258Y254950D01*
X1497336D01*
X1499876Y257489D01*
X1507493Y254950D02*
X1512572D01*
X1515111Y257489D01*
Y262568D01*
X1512572Y265107D01*
X1507493D01*
X1504954Y262568D01*
Y257489D01*
X1507493Y254950D01*
X1520189D02*
Y265107D01*
X1527807D01*
X1530346Y262568D01*
Y254950D01*
X1535424D02*
X1543042D01*
X1545581Y257489D01*
X1543042Y260028D01*
X1537963D01*
X1535424Y262568D01*
X1537963Y265107D01*
X1545581D01*
X1553198Y267646D02*
Y265107D01*
X1550659D01*
X1555738D01*
X1553198D01*
Y257489D01*
X1555738Y254950D01*
X1565894Y265107D02*
X1570973D01*
X1573512Y262568D01*
Y254950D01*
X1565894D01*
X1563355Y257489D01*
X1565894Y260028D01*
X1573512D01*
X1578590Y254950D02*
Y265107D01*
X1586208D01*
X1588747Y262568D01*
Y254950D01*
X1596364Y267646D02*
Y265107D01*
X1593825D01*
X1598904D01*
X1596364D01*
Y257489D01*
X1598904Y254950D01*
X1489719Y-37154D02*
X1492258Y-34615D01*
X1497336D01*
X1499876Y-37154D01*
Y-39693D01*
X1497336Y-42232D01*
X1494797D01*
X1497336D01*
X1499876Y-44772D01*
Y-47311D01*
X1497336Y-49850D01*
X1492258D01*
X1489719Y-47311D01*
X1504954Y-49850D02*
Y-47311D01*
X1507493D01*
Y-49850D01*
X1504954D01*
X1527807Y-34615D02*
X1517650D01*
Y-42232D01*
X1522728Y-39693D01*
X1525267D01*
X1527807Y-42232D01*
Y-47311D01*
X1525267Y-49850D01*
X1520189D01*
X1517650Y-47311D01*
X1497336Y11110D02*
Y26345D01*
X1489719Y18728D01*
X1499876D01*
X1504954Y11110D02*
Y13649D01*
X1507493D01*
Y11110D01*
X1504954D01*
X1517650Y23806D02*
X1520189Y26345D01*
X1525267D01*
X1527807Y23806D01*
Y21267D01*
X1525267Y18728D01*
X1522728D01*
X1525267D01*
X1527807Y16188D01*
Y13649D01*
X1525267Y11110D01*
X1520189D01*
X1517650Y13649D01*
X1497336Y72070D02*
Y87305D01*
X1489719Y79688D01*
X1499876D01*
X1504954Y72070D02*
Y74609D01*
X1507493D01*
Y72070D01*
X1504954D01*
X1527807D02*
X1517650D01*
X1527807Y82227D01*
Y84766D01*
X1525267Y87305D01*
X1520189D01*
X1517650Y84766D01*
X1497336Y133030D02*
Y148265D01*
X1489719Y140647D01*
X1499876D01*
X1504954Y133030D02*
Y135569D01*
X1507493D01*
Y133030D01*
X1504954D01*
X1517650Y145726D02*
X1520189Y148265D01*
X1525267D01*
X1527807Y145726D01*
Y143187D01*
X1525267Y140647D01*
X1522728D01*
X1525267D01*
X1527807Y138108D01*
Y135569D01*
X1525267Y133030D01*
X1520189D01*
X1517650Y135569D01*
X1489719Y206686D02*
X1492258Y209225D01*
X1497336D01*
X1499876Y206686D01*
Y204147D01*
X1497336Y201607D01*
X1494797D01*
X1497336D01*
X1499876Y199068D01*
Y196529D01*
X1497336Y193990D01*
X1492258D01*
X1489719Y196529D01*
X1504954Y193990D02*
Y196529D01*
X1507493D01*
Y193990D01*
X1504954D01*
X1527807Y209225D02*
X1517650D01*
Y201607D01*
X1522728Y204147D01*
X1525267D01*
X1527807Y201607D01*
Y196529D01*
X1525267Y193990D01*
X1520189D01*
X1517650Y196529D01*
X11191Y639587D02*
G03*
X11191Y639587I-5080J0D01*
G01*
X14578D02*
G03*
X14578Y639587I-8467J0D01*
G01*
X-2355Y715787D02*
X6111Y707320D01*
X14578Y715787D01*
X6111Y724253D02*
X14578Y715787D01*
X-2355D02*
X6111Y724253D01*
Y669220D02*
X14578Y686153D01*
X-2355D02*
X14578D01*
X-2355D02*
X6111Y669220D01*
X1878Y597253D02*
X6111Y593020D01*
X-2355Y597253D02*
X1878D01*
X-2355D02*
X1878Y601487D01*
X-2355Y605720D02*
X1878Y601487D01*
X-2355Y605720D02*
X1878D01*
X6111Y609953D01*
X10345Y605720D01*
X14578D01*
X10345Y601487D02*
X14578Y605720D01*
X10345Y601487D02*
X14578Y597253D01*
X10345D02*
X14578D01*
X6111Y593020D02*
X10345Y597253D01*
X1031Y558307D02*
X11191D01*
Y568467D01*
X1031D02*
X11191D01*
X1031Y558307D02*
Y568467D01*
X-2355Y554920D02*
X14578D01*
Y571853D01*
X-2355D02*
X14578D01*
X-2355Y554920D02*
Y571853D01*
Y516820D02*
X14578D01*
Y533753D01*
X-2355D02*
X14578D01*
X-2355Y516820D02*
Y533753D01*
Y478720D02*
Y482953D01*
X1878Y487187D01*
X-2355Y491420D02*
X1878Y487187D01*
X-2355Y491420D02*
Y495653D01*
X1878D01*
X6111Y491420D01*
X10345Y495653D01*
X14578D01*
Y491420D02*
Y495653D01*
X10345Y487187D02*
X14578Y491420D01*
X10345Y487187D02*
X14578Y482953D01*
Y478720D02*
Y482953D01*
X10345Y478720D02*
X14578D01*
X6111Y482953D02*
X10345Y478720D01*
X1878D02*
X6111Y482953D01*
X-2355Y478720D02*
X1878D01*
X-2355Y444853D02*
X1878D01*
X-2355D02*
Y453320D01*
X1878D01*
Y457553D01*
X10345D01*
Y453320D02*
Y457553D01*
Y453320D02*
X14578D01*
Y444853D02*
Y453320D01*
X10345Y444853D02*
X14578D01*
X10345Y440620D02*
Y444853D01*
X1878Y440620D02*
X10345D01*
X1878D02*
Y444853D01*
X-2355Y402520D02*
X6111Y406753D01*
X14578Y402520D01*
X10345Y410987D02*
X14578Y402520D01*
X10345Y410987D02*
X14578Y419453D01*
X6111Y415220D02*
X14578Y419453D01*
X-2355D02*
X6111Y415220D01*
X-2355Y419453D02*
X1878Y410987D01*
X-2355Y402520D02*
X1878Y410987D01*
X895602Y714938D02*
X905758D01*
X895602Y669220D02*
X900680D01*
X898141D01*
Y684455D01*
X895602Y681916D01*
X910837Y666681D02*
X913376Y669220D01*
Y671759D01*
X910837D01*
Y669220D01*
X913376D01*
X910837Y666681D01*
X908298Y664142D01*
X931150Y669220D02*
Y684455D01*
X923533Y676837D01*
X933689D01*
X938768Y681916D02*
X941307Y684455D01*
X946385D01*
X948924Y681916D01*
Y671759D01*
X946385Y669220D01*
X941307D01*
X938768Y671759D01*
Y681916D01*
X954003D02*
X956542Y684455D01*
X961620D01*
X964159Y681916D01*
Y671759D01*
X961620Y669220D01*
X956542D01*
X954003Y671759D01*
Y681916D01*
X969238Y669220D02*
Y679377D01*
X971777D01*
X974316Y676837D01*
Y669220D01*
Y676837D01*
X976855Y679377D01*
X979395Y676837D01*
Y669220D01*
X984473D02*
Y679377D01*
X987012D01*
X989551Y676837D01*
Y669220D01*
Y676837D01*
X992090Y679377D01*
X994630Y676837D01*
Y669220D01*
X1020021D02*
X1014943Y674298D01*
Y679377D01*
X1020021Y684455D01*
X1037796D02*
X1027639D01*
Y676837D01*
X1032717Y679377D01*
X1035256D01*
X1037796Y676837D01*
Y671759D01*
X1035256Y669220D01*
X1030178D01*
X1027639Y671759D01*
X1053031Y684455D02*
X1042874D01*
Y676837D01*
X1047952Y679377D01*
X1050491D01*
X1053031Y676837D01*
Y671759D01*
X1050491Y669220D01*
X1045413D01*
X1042874Y671759D01*
X1060648Y666681D02*
X1063187Y669220D01*
Y671759D01*
X1060648D01*
Y669220D01*
X1063187D01*
X1060648Y666681D01*
X1058109Y664142D01*
X1073344Y669220D02*
X1078422D01*
X1075883D01*
Y684455D01*
X1073344Y681916D01*
X1096197Y669220D02*
X1086040D01*
X1096197Y679377D01*
Y681916D01*
X1093658Y684455D01*
X1088579D01*
X1086040Y681916D01*
X1101275Y669220D02*
Y679377D01*
X1103814D01*
X1106353Y676837D01*
Y669220D01*
Y676837D01*
X1108893Y679377D01*
X1111432Y676837D01*
Y669220D01*
X1116510D02*
X1121589D01*
X1119049D01*
Y679377D01*
X1116510D01*
X1129206Y669220D02*
X1134284D01*
X1131745D01*
Y684455D01*
X1129206D01*
X1141902Y669220D02*
X1146980Y674298D01*
Y679377D01*
X1141902Y684455D01*
X895602Y631120D02*
X900680D01*
X898141D01*
Y646355D01*
X895602Y643816D01*
X910837Y628581D02*
X913376Y631120D01*
Y633659D01*
X910837D01*
Y631120D01*
X913376D01*
X910837Y628581D01*
X908298Y626042D01*
X923533Y646355D02*
X933689D01*
Y643816D01*
X923533Y633659D01*
Y631120D01*
X938768Y643816D02*
X941307Y646355D01*
X946385D01*
X948924Y643816D01*
Y633659D01*
X946385Y631120D01*
X941307D01*
X938768Y633659D01*
Y643816D01*
X954003D02*
X956542Y646355D01*
X961620D01*
X964159Y643816D01*
Y633659D01*
X961620Y631120D01*
X956542D01*
X954003Y633659D01*
Y643816D01*
X969238Y631120D02*
Y641277D01*
X971777D01*
X974316Y638737D01*
Y631120D01*
Y638737D01*
X976855Y641277D01*
X979395Y638737D01*
Y631120D01*
X984473D02*
Y641277D01*
X987012D01*
X989551Y638737D01*
Y631120D01*
Y638737D01*
X992090Y641277D01*
X994630Y638737D01*
Y631120D01*
X1020021D02*
X1014943Y636198D01*
Y641277D01*
X1020021Y646355D01*
X1037796D02*
X1032717Y643816D01*
X1027639Y638737D01*
Y633659D01*
X1030178Y631120D01*
X1035256D01*
X1037796Y633659D01*
Y636198D01*
X1035256Y638737D01*
X1027639D01*
X1053031Y646355D02*
X1047952Y643816D01*
X1042874Y638737D01*
Y633659D01*
X1045413Y631120D01*
X1050491D01*
X1053031Y633659D01*
Y636198D01*
X1050491Y638737D01*
X1042874D01*
X1060648Y628581D02*
X1063187Y631120D01*
Y633659D01*
X1060648D01*
Y631120D01*
X1063187D01*
X1060648Y628581D01*
X1058109Y626042D01*
X1073344Y633659D02*
X1075883Y631120D01*
X1080962D01*
X1083501Y633659D01*
Y643816D01*
X1080962Y646355D01*
X1075883D01*
X1073344Y643816D01*
Y641277D01*
X1075883Y638737D01*
X1083501D01*
X1088579Y643816D02*
X1091118Y646355D01*
X1096197D01*
X1098736Y643816D01*
Y641277D01*
X1096197Y638737D01*
X1093658D01*
X1096197D01*
X1098736Y636198D01*
Y633659D01*
X1096197Y631120D01*
X1091118D01*
X1088579Y633659D01*
X1103814Y631120D02*
Y641277D01*
X1106353D01*
X1108893Y638737D01*
Y631120D01*
Y638737D01*
X1111432Y641277D01*
X1113971Y638737D01*
Y631120D01*
X1119049D02*
X1124128D01*
X1121589D01*
Y641277D01*
X1119049D01*
X1131745Y631120D02*
X1136824D01*
X1134284D01*
Y646355D01*
X1131745D01*
X1144441Y631120D02*
X1149519Y636198D01*
Y641277D01*
X1144441Y646355D01*
X895602Y600638D02*
X905758D01*
X895602Y562537D02*
X905758D01*
X895602Y524437D02*
X905758D01*
X895602Y486338D02*
X905758D01*
X895602Y448237D02*
X905758D01*
X895602Y410137D02*
X905758D01*
X709216Y707320D02*
Y722555D01*
X716833D01*
X719373Y720016D01*
Y714938D01*
X716833Y712398D01*
X709216D01*
X714294D02*
X719373Y707320D01*
X726990D02*
X732068D01*
X734608Y709859D01*
Y714938D01*
X732068Y717477D01*
X726990D01*
X724451Y714938D01*
Y709859D01*
X726990Y707320D01*
X739686Y717477D02*
Y709859D01*
X742225Y707320D01*
X749843D01*
Y717477D01*
X754921Y707320D02*
Y717477D01*
X762539D01*
X765078Y714938D01*
Y707320D01*
X780313Y722555D02*
Y707320D01*
X772695D01*
X770156Y709859D01*
Y714938D01*
X772695Y717477D01*
X780313D01*
X719373Y681916D02*
X716833Y684455D01*
X711755D01*
X709216Y681916D01*
Y679377D01*
X711755Y676837D01*
X716833D01*
X719373Y674298D01*
Y671759D01*
X716833Y669220D01*
X711755D01*
X709216Y671759D01*
X724451Y669220D02*
X729529D01*
X726990D01*
Y684455D01*
X724451D01*
X739686Y669220D02*
X744764D01*
X747304Y671759D01*
Y676837D01*
X744764Y679377D01*
X739686D01*
X737147Y676837D01*
Y671759D01*
X739686Y669220D01*
X754921Y681916D02*
Y679377D01*
X752382D01*
X757460D01*
X754921D01*
Y671759D01*
X757460Y669220D01*
X719373Y643816D02*
X716833Y646355D01*
X711755D01*
X709216Y643816D01*
Y641277D01*
X711755Y638737D01*
X716833D01*
X719373Y636198D01*
Y633659D01*
X716833Y631120D01*
X711755D01*
X709216Y633659D01*
X724451Y631120D02*
X729529D01*
X726990D01*
Y646355D01*
X724451D01*
X739686Y631120D02*
X744764D01*
X747304Y633659D01*
Y638737D01*
X744764Y641277D01*
X739686D01*
X737147Y638737D01*
Y633659D01*
X739686Y631120D01*
X754921Y643816D02*
Y641277D01*
X752382D01*
X757460D01*
X754921D01*
Y633659D01*
X757460Y631120D01*
X709216Y593020D02*
Y608255D01*
X716833D01*
X719373Y605716D01*
Y600638D01*
X716833Y598098D01*
X709216D01*
X714294D02*
X719373Y593020D01*
X726990D02*
X732068D01*
X734608Y595559D01*
Y600638D01*
X732068Y603177D01*
X726990D01*
X724451Y600638D01*
Y595559D01*
X726990Y593020D01*
X739686Y603177D02*
Y595559D01*
X742225Y593020D01*
X749843D01*
Y603177D01*
X754921Y593020D02*
Y603177D01*
X762539D01*
X765078Y600638D01*
Y593020D01*
X780313Y608255D02*
Y593020D01*
X772695D01*
X770156Y595559D01*
Y600638D01*
X772695Y603177D01*
X780313D01*
X709216Y554920D02*
Y570155D01*
X716833D01*
X719373Y567616D01*
Y562537D01*
X716833Y559998D01*
X709216D01*
X714294D02*
X719373Y554920D01*
X726990D02*
X732068D01*
X734608Y557459D01*
Y562537D01*
X732068Y565077D01*
X726990D01*
X724451Y562537D01*
Y557459D01*
X726990Y554920D01*
X739686Y565077D02*
Y557459D01*
X742225Y554920D01*
X749843D01*
Y565077D01*
X754921Y554920D02*
Y565077D01*
X762539D01*
X765078Y562537D01*
Y554920D01*
X780313Y570155D02*
Y554920D01*
X772695D01*
X770156Y557459D01*
Y562537D01*
X772695Y565077D01*
X780313D01*
X709216Y516820D02*
Y532055D01*
X716833D01*
X719373Y529516D01*
Y524437D01*
X716833Y521898D01*
X709216D01*
X714294D02*
X719373Y516820D01*
X726990D02*
X732068D01*
X734608Y519359D01*
Y524437D01*
X732068Y526977D01*
X726990D01*
X724451Y524437D01*
Y519359D01*
X726990Y516820D01*
X739686Y526977D02*
Y519359D01*
X742225Y516820D01*
X749843D01*
Y526977D01*
X754921Y516820D02*
Y526977D01*
X762539D01*
X765078Y524437D01*
Y516820D01*
X780313Y532055D02*
Y516820D01*
X772695D01*
X770156Y519359D01*
Y524437D01*
X772695Y526977D01*
X780313D01*
X709216Y478720D02*
Y493955D01*
X716833D01*
X719373Y491416D01*
Y486338D01*
X716833Y483798D01*
X709216D01*
X714294D02*
X719373Y478720D01*
X726990D02*
X732068D01*
X734608Y481259D01*
Y486338D01*
X732068Y488877D01*
X726990D01*
X724451Y486338D01*
Y481259D01*
X726990Y478720D01*
X739686Y488877D02*
Y481259D01*
X742225Y478720D01*
X749843D01*
Y488877D01*
X754921Y478720D02*
Y488877D01*
X762539D01*
X765078Y486338D01*
Y478720D01*
X780313Y493955D02*
Y478720D01*
X772695D01*
X770156Y481259D01*
Y486338D01*
X772695Y488877D01*
X780313D01*
X709216Y440620D02*
Y455855D01*
X716833D01*
X719373Y453316D01*
Y448237D01*
X716833Y445698D01*
X709216D01*
X714294D02*
X719373Y440620D01*
X726990D02*
X732068D01*
X734608Y443159D01*
Y448237D01*
X732068Y450777D01*
X726990D01*
X724451Y448237D01*
Y443159D01*
X726990Y440620D01*
X739686Y450777D02*
Y443159D01*
X742225Y440620D01*
X749843D01*
Y450777D01*
X754921Y440620D02*
Y450777D01*
X762539D01*
X765078Y448237D01*
Y440620D01*
X780313Y455855D02*
Y440620D01*
X772695D01*
X770156Y443159D01*
Y448237D01*
X772695Y450777D01*
X780313D01*
X709216Y402520D02*
Y417755D01*
X716833D01*
X719373Y415216D01*
Y410137D01*
X716833Y407598D01*
X709216D01*
X714294D02*
X719373Y402520D01*
X726990D02*
X732068D01*
X734608Y405059D01*
Y410137D01*
X732068Y412677D01*
X726990D01*
X724451Y410137D01*
Y405059D01*
X726990Y402520D01*
X739686Y412677D02*
Y405059D01*
X742225Y402520D01*
X749843D01*
Y412677D01*
X754921Y402520D02*
Y412677D01*
X762539D01*
X765078Y410137D01*
Y402520D01*
X780313Y417755D02*
Y402520D01*
X772695D01*
X770156Y405059D01*
Y410137D01*
X772695Y412677D01*
X780313D01*
X580723Y707320D02*
Y722555D01*
X588341D01*
X590880Y720016D01*
Y714938D01*
X588341Y712398D01*
X580723D01*
X595959Y722555D02*
X606115D01*
X601037D01*
Y707320D01*
X611194Y722555D02*
Y707320D01*
Y714938D01*
X621350D01*
Y722555D01*
Y707320D01*
X580723Y669220D02*
Y684455D01*
X588341D01*
X590880Y681916D01*
Y676837D01*
X588341Y674298D01*
X580723D01*
X595959Y684455D02*
X606115D01*
X601037D01*
Y669220D01*
X611194Y684455D02*
Y669220D01*
Y676837D01*
X621350D01*
Y684455D01*
Y669220D01*
X580723Y631120D02*
Y646355D01*
X588341D01*
X590880Y643816D01*
Y638737D01*
X588341Y636198D01*
X580723D01*
X595959Y646355D02*
X606115D01*
X601037D01*
Y631120D01*
X611194Y646355D02*
Y631120D01*
Y638737D01*
X621350D01*
Y646355D01*
Y631120D01*
X580723Y593020D02*
Y608255D01*
X590880Y593020D01*
Y608255D01*
X595959Y593020D02*
Y608255D01*
X603576D01*
X606115Y605716D01*
Y600638D01*
X603576Y598098D01*
X595959D01*
X611194Y608255D02*
X621350D01*
X616272D01*
Y593020D01*
X626429Y608255D02*
Y593020D01*
Y600638D01*
X636585D01*
Y608255D01*
Y593020D01*
X580723Y554920D02*
Y570155D01*
X590880Y554920D01*
Y570155D01*
X595959Y554920D02*
Y570155D01*
X603576D01*
X606115Y567616D01*
Y562537D01*
X603576Y559998D01*
X595959D01*
X611194Y570155D02*
X621350D01*
X616272D01*
Y554920D01*
X626429Y570155D02*
Y554920D01*
Y562537D01*
X636585D01*
Y570155D01*
Y554920D01*
X580723Y516820D02*
Y532055D01*
X588341D01*
X590880Y529516D01*
Y524437D01*
X588341Y521898D01*
X580723D01*
X595959Y532055D02*
X606115D01*
X601037D01*
Y516820D01*
X611194Y532055D02*
Y516820D01*
Y524437D01*
X621350D01*
Y532055D01*
Y516820D01*
X580723Y478720D02*
Y493955D01*
X590880Y478720D01*
Y493955D01*
X595959Y478720D02*
Y493955D01*
X603576D01*
X606115Y491416D01*
Y486338D01*
X603576Y483798D01*
X595959D01*
X611194Y493955D02*
X621350D01*
X616272D01*
Y478720D01*
X626429Y493955D02*
Y478720D01*
Y486338D01*
X636585D01*
Y493955D01*
Y478720D01*
X580723Y440620D02*
Y455855D01*
X588341D01*
X590880Y453316D01*
Y448237D01*
X588341Y445698D01*
X580723D01*
X595959Y455855D02*
X606115D01*
X601037D01*
Y440620D01*
X611194Y455855D02*
Y440620D01*
Y448237D01*
X621350D01*
Y455855D01*
Y440620D01*
X580723Y402520D02*
Y417755D01*
X588341D01*
X590880Y415216D01*
Y410137D01*
X588341Y407598D01*
X580723D01*
X595959Y417755D02*
X606115D01*
X601037D01*
Y402520D01*
X611194Y417755D02*
Y402520D01*
Y410137D01*
X621350D01*
Y417755D01*
Y402520D01*
X286170Y720016D02*
X288709Y722555D01*
X293787D01*
X296327Y720016D01*
Y709859D01*
X293787Y707320D01*
X288709D01*
X286170Y709859D01*
Y720016D01*
X303944Y704781D02*
X306483Y707320D01*
Y709859D01*
X303944D01*
Y707320D01*
X306483D01*
X303944Y704781D01*
X301405Y702242D01*
X316640Y720016D02*
X319179Y722555D01*
X324257D01*
X326797Y720016D01*
Y717477D01*
X324257Y714938D01*
X321718D01*
X324257D01*
X326797Y712398D01*
Y709859D01*
X324257Y707320D01*
X319179D01*
X316640Y709859D01*
X331875Y720016D02*
X334414Y722555D01*
X339492D01*
X342032Y720016D01*
Y709859D01*
X339492Y707320D01*
X334414D01*
X331875Y709859D01*
Y720016D01*
X347110D02*
X349649Y722555D01*
X354728D01*
X357267Y720016D01*
Y709859D01*
X354728Y707320D01*
X349649D01*
X347110Y709859D01*
Y720016D01*
X362345Y707320D02*
Y717477D01*
X364884D01*
X367423Y714938D01*
Y707320D01*
Y714938D01*
X369963Y717477D01*
X372502Y714938D01*
Y707320D01*
X377580D02*
Y717477D01*
X380119D01*
X382659Y714938D01*
Y707320D01*
Y714938D01*
X385198Y717477D01*
X387737Y714938D01*
Y707320D01*
X413129D02*
X408050Y712398D01*
Y717477D01*
X413129Y722555D01*
X420746Y707320D02*
X425825D01*
X423285D01*
Y722555D01*
X420746Y720016D01*
X433442Y707320D02*
X438520D01*
X435981D01*
Y722555D01*
X433442Y720016D01*
X448677Y704781D02*
X451216Y707320D01*
Y709859D01*
X448677D01*
Y707320D01*
X451216D01*
X448677Y704781D01*
X446138Y702242D01*
X461373Y720016D02*
X463912Y722555D01*
X468991D01*
X471530Y720016D01*
Y717477D01*
X468991Y714938D01*
X471530Y712398D01*
Y709859D01*
X468991Y707320D01*
X463912D01*
X461373Y709859D01*
Y712398D01*
X463912Y714938D01*
X461373Y717477D01*
Y720016D01*
X463912Y714938D02*
X468991D01*
X476608Y707320D02*
X481687D01*
X479147D01*
Y722555D01*
X476608Y720016D01*
X489304Y707320D02*
Y717477D01*
X491843D01*
X494382Y714938D01*
Y707320D01*
Y714938D01*
X496922Y717477D01*
X499461Y714938D01*
Y707320D01*
X504539D02*
X509617D01*
X507078D01*
Y717477D01*
X504539D01*
X517235Y707320D02*
X522313D01*
X519774D01*
Y722555D01*
X517235D01*
X529931Y707320D02*
X535009Y712398D01*
Y717477D01*
X529931Y722555D01*
X286170Y681916D02*
X288709Y684455D01*
X293787D01*
X296327Y681916D01*
Y671759D01*
X293787Y669220D01*
X288709D01*
X286170Y671759D01*
Y681916D01*
X303944Y666681D02*
X306483Y669220D01*
Y671759D01*
X303944D01*
Y669220D01*
X306483D01*
X303944Y666681D01*
X301405Y664142D01*
X326797Y684455D02*
X321718Y681916D01*
X316640Y676837D01*
Y671759D01*
X319179Y669220D01*
X324257D01*
X326797Y671759D01*
Y674298D01*
X324257Y676837D01*
X316640D01*
X331875Y681916D02*
X334414Y684455D01*
X339492D01*
X342032Y681916D01*
Y671759D01*
X339492Y669220D01*
X334414D01*
X331875Y671759D01*
Y681916D01*
X347110D02*
X349649Y684455D01*
X354728D01*
X357267Y681916D01*
Y671759D01*
X354728Y669220D01*
X349649D01*
X347110Y671759D01*
Y681916D01*
X362345Y669220D02*
Y679377D01*
X364884D01*
X367423Y676837D01*
Y669220D01*
Y676837D01*
X369963Y679377D01*
X372502Y676837D01*
Y669220D01*
X377580D02*
Y679377D01*
X380119D01*
X382659Y676837D01*
Y669220D01*
Y676837D01*
X385198Y679377D01*
X387737Y676837D01*
Y669220D01*
X413129D02*
X408050Y674298D01*
Y679377D01*
X413129Y684455D01*
X430903Y669220D02*
X420746D01*
X430903Y679377D01*
Y681916D01*
X428364Y684455D01*
X423285D01*
X420746Y681916D01*
X435981D02*
X438521Y684455D01*
X443599D01*
X446138Y681916D01*
Y679377D01*
X443599Y676837D01*
X441060D01*
X443599D01*
X446138Y674298D01*
Y671759D01*
X443599Y669220D01*
X438521D01*
X435981Y671759D01*
X453755Y666681D02*
X456295Y669220D01*
Y671759D01*
X453755D01*
Y669220D01*
X456295D01*
X453755Y666681D01*
X451216Y664142D01*
X476608Y684455D02*
X471530Y681916D01*
X466451Y676837D01*
Y671759D01*
X468991Y669220D01*
X474069D01*
X476608Y671759D01*
Y674298D01*
X474069Y676837D01*
X466451D01*
X491843Y669220D02*
X481687D01*
X491843Y679377D01*
Y681916D01*
X489304Y684455D01*
X484226D01*
X481687Y681916D01*
X496922Y669220D02*
Y679377D01*
X499461D01*
X502000Y676837D01*
Y669220D01*
Y676837D01*
X504539Y679377D01*
X507078Y676837D01*
Y669220D01*
X512157D02*
X517235D01*
X514696D01*
Y679377D01*
X512157D01*
X524852Y669220D02*
X529931D01*
X527392D01*
Y684455D01*
X524852D01*
X537548Y669220D02*
X542627Y674298D01*
Y679377D01*
X537548Y684455D01*
X286170Y643816D02*
X288709Y646355D01*
X293787D01*
X296327Y643816D01*
Y633659D01*
X293787Y631120D01*
X288709D01*
X286170Y633659D01*
Y643816D01*
X303944Y628581D02*
X306483Y631120D01*
Y633659D01*
X303944D01*
Y631120D01*
X306483D01*
X303944Y628581D01*
X301405Y626042D01*
X326797Y646355D02*
X321718Y643816D01*
X316640Y638737D01*
Y633659D01*
X319179Y631120D01*
X324257D01*
X326797Y633659D01*
Y636198D01*
X324257Y638737D01*
X316640D01*
X331875Y643816D02*
X334414Y646355D01*
X339492D01*
X342032Y643816D01*
Y633659D01*
X339492Y631120D01*
X334414D01*
X331875Y633659D01*
Y643816D01*
X347110D02*
X349649Y646355D01*
X354728D01*
X357267Y643816D01*
Y633659D01*
X354728Y631120D01*
X349649D01*
X347110Y633659D01*
Y643816D01*
X362345Y631120D02*
Y641277D01*
X364884D01*
X367423Y638737D01*
Y631120D01*
Y638737D01*
X369963Y641277D01*
X372502Y638737D01*
Y631120D01*
X377580D02*
Y641277D01*
X380119D01*
X382659Y638737D01*
Y631120D01*
Y638737D01*
X385198Y641277D01*
X387737Y638737D01*
Y631120D01*
X413129D02*
X408050Y636198D01*
Y641277D01*
X413129Y646355D01*
X430903Y631120D02*
X420746D01*
X430903Y641277D01*
Y643816D01*
X428364Y646355D01*
X423285D01*
X420746Y643816D01*
X435981D02*
X438521Y646355D01*
X443599D01*
X446138Y643816D01*
Y641277D01*
X443599Y638737D01*
X441060D01*
X443599D01*
X446138Y636198D01*
Y633659D01*
X443599Y631120D01*
X438521D01*
X435981Y633659D01*
X453755Y628581D02*
X456295Y631120D01*
Y633659D01*
X453755D01*
Y631120D01*
X456295D01*
X453755Y628581D01*
X451216Y626042D01*
X476608Y646355D02*
X471530Y643816D01*
X466451Y638737D01*
Y633659D01*
X468991Y631120D01*
X474069D01*
X476608Y633659D01*
Y636198D01*
X474069Y638737D01*
X466451D01*
X491843Y631120D02*
X481687D01*
X491843Y641277D01*
Y643816D01*
X489304Y646355D01*
X484226D01*
X481687Y643816D01*
X496922Y631120D02*
Y641277D01*
X499461D01*
X502000Y638737D01*
Y631120D01*
Y638737D01*
X504539Y641277D01*
X507078Y638737D01*
Y631120D01*
X512157D02*
X517235D01*
X514696D01*
Y641277D01*
X512157D01*
X524852Y631120D02*
X529931D01*
X527392D01*
Y646355D01*
X524852D01*
X537548Y631120D02*
X542627Y636198D01*
Y641277D01*
X537548Y646355D01*
X286170Y605716D02*
X288709Y608255D01*
X293787D01*
X296327Y605716D01*
Y595559D01*
X293787Y593020D01*
X288709D01*
X286170Y595559D01*
Y605716D01*
X303944Y590481D02*
X306483Y593020D01*
Y595559D01*
X303944D01*
Y593020D01*
X306483D01*
X303944Y590481D01*
X301405Y587942D01*
X326797Y608255D02*
X321718Y605716D01*
X316640Y600638D01*
Y595559D01*
X319179Y593020D01*
X324257D01*
X326797Y595559D01*
Y598098D01*
X324257Y600638D01*
X316640D01*
X342032Y608255D02*
X331875D01*
Y600638D01*
X336953Y603177D01*
X339492D01*
X342032Y600638D01*
Y595559D01*
X339492Y593020D01*
X334414D01*
X331875Y595559D01*
X347110Y605716D02*
X349649Y608255D01*
X354728D01*
X357267Y605716D01*
Y595559D01*
X354728Y593020D01*
X349649D01*
X347110Y595559D01*
Y605716D01*
X362345Y593020D02*
Y603177D01*
X364884D01*
X367423Y600638D01*
Y593020D01*
Y600638D01*
X369963Y603177D01*
X372502Y600638D01*
Y593020D01*
X377580D02*
Y603177D01*
X380119D01*
X382659Y600638D01*
Y593020D01*
Y600638D01*
X385198Y603177D01*
X387737Y600638D01*
Y593020D01*
X413129D02*
X408050Y598098D01*
Y603177D01*
X413129Y608255D01*
X430903Y593020D02*
X420746D01*
X430903Y603177D01*
Y605716D01*
X428364Y608255D01*
X423285D01*
X420746Y605716D01*
X446138Y608255D02*
X435981D01*
Y600638D01*
X441060Y603177D01*
X443599D01*
X446138Y600638D01*
Y595559D01*
X443599Y593020D01*
X438521D01*
X435981Y595559D01*
X453755Y590481D02*
X456295Y593020D01*
Y595559D01*
X453755D01*
Y593020D01*
X456295D01*
X453755Y590481D01*
X451216Y587942D01*
X476608Y608255D02*
X466451D01*
Y600638D01*
X471530Y603177D01*
X474069D01*
X476608Y600638D01*
Y595559D01*
X474069Y593020D01*
X468991D01*
X466451Y595559D01*
X481687D02*
X484226Y593020D01*
X489304D01*
X491843Y595559D01*
Y605716D01*
X489304Y608255D01*
X484226D01*
X481687Y605716D01*
Y603177D01*
X484226Y600638D01*
X491843D01*
X496922Y593020D02*
Y603177D01*
X499461D01*
X502000Y600638D01*
Y593020D01*
Y600638D01*
X504539Y603177D01*
X507078Y600638D01*
Y593020D01*
X512157D02*
X517235D01*
X514696D01*
Y603177D01*
X512157D01*
X524852Y593020D02*
X529931D01*
X527392D01*
Y608255D01*
X524852D01*
X537548Y593020D02*
X542627Y598098D01*
Y603177D01*
X537548Y608255D01*
X286170Y567616D02*
X288709Y570155D01*
X293787D01*
X296327Y567616D01*
Y557459D01*
X293787Y554920D01*
X288709D01*
X286170Y557459D01*
Y567616D01*
X303944Y552381D02*
X306483Y554920D01*
Y557459D01*
X303944D01*
Y554920D01*
X306483D01*
X303944Y552381D01*
X301405Y549842D01*
X316640Y557459D02*
X319179Y554920D01*
X324257D01*
X326797Y557459D01*
Y567616D01*
X324257Y570155D01*
X319179D01*
X316640Y567616D01*
Y565077D01*
X319179Y562537D01*
X326797D01*
X331875Y567616D02*
X334414Y570155D01*
X339492D01*
X342032Y567616D01*
Y557459D01*
X339492Y554920D01*
X334414D01*
X331875Y557459D01*
Y567616D01*
X347110D02*
X349649Y570155D01*
X354728D01*
X357267Y567616D01*
Y557459D01*
X354728Y554920D01*
X349649D01*
X347110Y557459D01*
Y567616D01*
X362345Y554920D02*
Y565077D01*
X364884D01*
X367423Y562537D01*
Y554920D01*
Y562537D01*
X369963Y565077D01*
X372502Y562537D01*
Y554920D01*
X377580D02*
Y565077D01*
X380119D01*
X382659Y562537D01*
Y554920D01*
Y562537D01*
X385198Y565077D01*
X387737Y562537D01*
Y554920D01*
X413129D02*
X408050Y559998D01*
Y565077D01*
X413129Y570155D01*
X420746Y567616D02*
X423285Y570155D01*
X428364D01*
X430903Y567616D01*
Y565077D01*
X428364Y562537D01*
X425825D01*
X428364D01*
X430903Y559998D01*
Y557459D01*
X428364Y554920D01*
X423285D01*
X420746Y557459D01*
X446138Y570155D02*
X435981D01*
Y562537D01*
X441060Y565077D01*
X443599D01*
X446138Y562537D01*
Y557459D01*
X443599Y554920D01*
X438521D01*
X435981Y557459D01*
X453755Y552381D02*
X456295Y554920D01*
Y557459D01*
X453755D01*
Y554920D01*
X456295D01*
X453755Y552381D01*
X451216Y549842D01*
X474069Y554920D02*
Y570155D01*
X466451Y562537D01*
X476608D01*
X481687Y567616D02*
X484226Y570155D01*
X489304D01*
X491843Y567616D01*
Y565077D01*
X489304Y562537D01*
X486765D01*
X489304D01*
X491843Y559998D01*
Y557459D01*
X489304Y554920D01*
X484226D01*
X481687Y557459D01*
X496922Y554920D02*
Y565077D01*
X499461D01*
X502000Y562537D01*
Y554920D01*
Y562537D01*
X504539Y565077D01*
X507078Y562537D01*
Y554920D01*
X512157D02*
X517235D01*
X514696D01*
Y565077D01*
X512157D01*
X524852Y554920D02*
X529931D01*
X527392D01*
Y570155D01*
X524852D01*
X537548Y554920D02*
X542627Y559998D01*
Y565077D01*
X537548Y570155D01*
X286170Y516820D02*
X291248D01*
X288709D01*
Y532055D01*
X286170Y529516D01*
X301405Y514281D02*
X303944Y516820D01*
Y519359D01*
X301405D01*
Y516820D01*
X303944D01*
X301405Y514281D01*
X298866Y511742D01*
X314101Y529516D02*
X316640Y532055D01*
X321718D01*
X324257Y529516D01*
Y519359D01*
X321718Y516820D01*
X316640D01*
X314101Y519359D01*
Y529516D01*
X329336D02*
X331875Y532055D01*
X336953D01*
X339492Y529516D01*
Y519359D01*
X336953Y516820D01*
X331875D01*
X329336Y519359D01*
Y529516D01*
X344571D02*
X347110Y532055D01*
X352188D01*
X354728Y529516D01*
Y519359D01*
X352188Y516820D01*
X347110D01*
X344571Y519359D01*
Y529516D01*
X359806Y516820D02*
Y526977D01*
X362345D01*
X364884Y524437D01*
Y516820D01*
Y524437D01*
X367423Y526977D01*
X369963Y524437D01*
Y516820D01*
X375041D02*
Y526977D01*
X377580D01*
X380119Y524437D01*
Y516820D01*
Y524437D01*
X382659Y526977D01*
X385198Y524437D01*
Y516820D01*
X410589D02*
X405511Y521898D01*
Y526977D01*
X410589Y532055D01*
X418207Y529516D02*
X420746Y532055D01*
X425825D01*
X428364Y529516D01*
Y526977D01*
X425825Y524437D01*
X423285D01*
X425825D01*
X428364Y521898D01*
Y519359D01*
X425825Y516820D01*
X420746D01*
X418207Y519359D01*
X433442D02*
X435981Y516820D01*
X441060D01*
X443599Y519359D01*
Y529516D01*
X441060Y532055D01*
X435981D01*
X433442Y529516D01*
Y526977D01*
X435981Y524437D01*
X443599D01*
X451216Y514281D02*
X453755Y516820D01*
Y519359D01*
X451216D01*
Y516820D01*
X453755D01*
X451216Y514281D01*
X448677Y511742D01*
X463912Y529516D02*
X466451Y532055D01*
X471530D01*
X474069Y529516D01*
Y526977D01*
X471530Y524437D01*
X468991D01*
X471530D01*
X474069Y521898D01*
Y519359D01*
X471530Y516820D01*
X466451D01*
X463912Y519359D01*
X479147Y532055D02*
X489304D01*
Y529516D01*
X479147Y519359D01*
Y516820D01*
X494382D02*
Y526977D01*
X496922D01*
X499461Y524437D01*
Y516820D01*
Y524437D01*
X502000Y526977D01*
X504539Y524437D01*
Y516820D01*
X509617D02*
X514696D01*
X512157D01*
Y526977D01*
X509617D01*
X522313Y516820D02*
X527392D01*
X524852D01*
Y532055D01*
X522313D01*
X535009Y516820D02*
X540088Y521898D01*
Y526977D01*
X535009Y532055D01*
X286170Y478720D02*
X291248D01*
X288709D01*
Y493955D01*
X286170Y491416D01*
X301405Y476181D02*
X303944Y478720D01*
Y481259D01*
X301405D01*
Y478720D01*
X303944D01*
X301405Y476181D01*
X298866Y473642D01*
X314101Y478720D02*
X319179D01*
X316640D01*
Y493955D01*
X314101Y491416D01*
X326797D02*
X329336Y493955D01*
X334414D01*
X336953Y491416D01*
Y481259D01*
X334414Y478720D01*
X329336D01*
X326797Y481259D01*
Y491416D01*
X342032D02*
X344571Y493955D01*
X349649D01*
X352188Y491416D01*
Y481259D01*
X349649Y478720D01*
X344571D01*
X342032Y481259D01*
Y491416D01*
X357267Y478720D02*
Y488877D01*
X359806D01*
X362345Y486338D01*
Y478720D01*
Y486338D01*
X364884Y488877D01*
X367423Y486338D01*
Y478720D01*
X372502D02*
Y488877D01*
X375041D01*
X377580Y486338D01*
Y478720D01*
Y486338D01*
X380119Y488877D01*
X382659Y486338D01*
Y478720D01*
X408050D02*
X402972Y483798D01*
Y488877D01*
X408050Y493955D01*
X423285Y478720D02*
Y493955D01*
X415668Y486338D01*
X425825D01*
X430903Y491416D02*
X433442Y493955D01*
X438520D01*
X441060Y491416D01*
Y488877D01*
X438520Y486338D01*
X435981D01*
X438520D01*
X441060Y483798D01*
Y481259D01*
X438520Y478720D01*
X433442D01*
X430903Y481259D01*
X448677Y476181D02*
X451216Y478720D01*
Y481259D01*
X448677D01*
Y478720D01*
X451216D01*
X448677Y476181D01*
X446138Y473642D01*
X461373Y491416D02*
X463912Y493955D01*
X468991D01*
X471530Y491416D01*
Y488877D01*
X468991Y486338D01*
X466451D01*
X468991D01*
X471530Y483798D01*
Y481259D01*
X468991Y478720D01*
X463912D01*
X461373Y481259D01*
X476608Y478720D02*
X481687D01*
X479147D01*
Y493955D01*
X476608Y491416D01*
X489304Y478720D02*
Y488877D01*
X491843D01*
X494382Y486338D01*
Y478720D01*
Y486338D01*
X496922Y488877D01*
X499461Y486338D01*
Y478720D01*
X504539D02*
X509617D01*
X507078D01*
Y488877D01*
X504539D01*
X517235Y478720D02*
X522313D01*
X519774D01*
Y493955D01*
X517235D01*
X529931Y478720D02*
X535009Y483798D01*
Y488877D01*
X529931Y493955D01*
X286170Y440620D02*
X291248D01*
X288709D01*
Y455855D01*
X286170Y453316D01*
X301405Y438081D02*
X303944Y440620D01*
Y443159D01*
X301405D01*
Y440620D01*
X303944D01*
X301405Y438081D01*
X298866Y435542D01*
X324257Y440620D02*
X314101D01*
X324257Y450777D01*
Y453316D01*
X321718Y455855D01*
X316640D01*
X314101Y453316D01*
X329336D02*
X331875Y455855D01*
X336953D01*
X339492Y453316D01*
Y443159D01*
X336953Y440620D01*
X331875D01*
X329336Y443159D01*
Y453316D01*
X344571D02*
X347110Y455855D01*
X352188D01*
X354728Y453316D01*
Y443159D01*
X352188Y440620D01*
X347110D01*
X344571Y443159D01*
Y453316D01*
X359806Y440620D02*
Y450777D01*
X362345D01*
X364884Y448237D01*
Y440620D01*
Y448237D01*
X367423Y450777D01*
X369963Y448237D01*
Y440620D01*
X375041D02*
Y450777D01*
X377580D01*
X380119Y448237D01*
Y440620D01*
Y448237D01*
X382659Y450777D01*
X385198Y448237D01*
Y440620D01*
X410589D02*
X405511Y445698D01*
Y450777D01*
X410589Y455855D01*
X425825Y440620D02*
Y455855D01*
X418207Y448237D01*
X428364D01*
X433442Y455855D02*
X443599D01*
Y453316D01*
X433442Y443159D01*
Y440620D01*
X451216Y438081D02*
X453755Y440620D01*
Y443159D01*
X451216D01*
Y440620D01*
X453755D01*
X451216Y438081D01*
X448677Y435542D01*
X474069Y440620D02*
X463912D01*
X474069Y450777D01*
Y453316D01*
X471530Y455855D01*
X466451D01*
X463912Y453316D01*
X486765Y440620D02*
Y455855D01*
X479147Y448237D01*
X489304D01*
X494382Y440620D02*
Y450777D01*
X496922D01*
X499461Y448237D01*
Y440620D01*
Y448237D01*
X502000Y450777D01*
X504539Y448237D01*
Y440620D01*
X509617D02*
X514696D01*
X512157D01*
Y450777D01*
X509617D01*
X522313Y440620D02*
X527392D01*
X524852D01*
Y455855D01*
X522313D01*
X535009Y440620D02*
X540088Y445698D01*
Y450777D01*
X535009Y455855D01*
X296327Y402520D02*
X286170D01*
X296327Y412677D01*
Y415216D01*
X293787Y417755D01*
X288709D01*
X286170Y415216D01*
X303944Y399981D02*
X306483Y402520D01*
Y405059D01*
X303944D01*
Y402520D01*
X306483D01*
X303944Y399981D01*
X301405Y397442D01*
X316640Y415216D02*
X319179Y417755D01*
X324257D01*
X326797Y415216D01*
Y412677D01*
X324257Y410137D01*
X326797Y407598D01*
Y405059D01*
X324257Y402520D01*
X319179D01*
X316640Y405059D01*
Y407598D01*
X319179Y410137D01*
X316640Y412677D01*
Y415216D01*
X319179Y410137D02*
X324257D01*
X331875Y415216D02*
X334414Y417755D01*
X339492D01*
X342032Y415216D01*
Y405059D01*
X339492Y402520D01*
X334414D01*
X331875Y405059D01*
Y415216D01*
X347110D02*
X349649Y417755D01*
X354728D01*
X357267Y415216D01*
Y405059D01*
X354728Y402520D01*
X349649D01*
X347110Y405059D01*
Y415216D01*
X362345Y402520D02*
Y412677D01*
X364884D01*
X367423Y410137D01*
Y402520D01*
Y410137D01*
X369963Y412677D01*
X372502Y410137D01*
Y402520D01*
X377580D02*
Y412677D01*
X380119D01*
X382659Y410137D01*
Y402520D01*
Y410137D01*
X385198Y412677D01*
X387737Y410137D01*
Y402520D01*
X413129D02*
X408050Y407598D01*
Y412677D01*
X413129Y417755D01*
X420746Y402520D02*
X425825D01*
X423285D01*
Y417755D01*
X420746Y415216D01*
X433442Y402520D02*
X438520D01*
X435981D01*
Y417755D01*
X433442Y415216D01*
X446138D02*
X448677Y417755D01*
X453755D01*
X456295Y415216D01*
Y405059D01*
X453755Y402520D01*
X448677D01*
X446138Y405059D01*
Y415216D01*
X463912Y399981D02*
X466451Y402520D01*
Y405059D01*
X463912D01*
Y402520D01*
X466451D01*
X463912Y399981D01*
X461373Y397442D01*
X486765Y402520D02*
X476608D01*
X486765Y412677D01*
Y415216D01*
X484226Y417755D01*
X479147D01*
X476608Y415216D01*
X499461Y402520D02*
Y417755D01*
X491843Y410137D01*
X502000D01*
X507078Y402520D02*
Y412677D01*
X509617D01*
X512157Y410137D01*
Y402520D01*
Y410137D01*
X514696Y412677D01*
X517235Y410137D01*
Y402520D01*
X522313D02*
X527392D01*
X524852D01*
Y412677D01*
X522313D01*
X535009Y402520D02*
X540088D01*
X537548D01*
Y417755D01*
X535009D01*
X547705Y402520D02*
X552784Y407598D01*
Y412677D01*
X547705Y417755D01*
X143967Y364420D02*
X133810D01*
X143967Y374577D01*
Y377116D01*
X141427Y379655D01*
X136349D01*
X133810Y377116D01*
X149045Y366959D02*
X151584Y364420D01*
X156663D01*
X159202Y366959D01*
Y377116D01*
X156663Y379655D01*
X151584D01*
X149045Y377116D01*
Y374577D01*
X151584Y372038D01*
X159202D01*
X164280Y366959D02*
X166819Y364420D01*
X171898D01*
X174437Y366959D01*
Y377116D01*
X171898Y379655D01*
X166819D01*
X164280Y377116D01*
Y374577D01*
X166819Y372038D01*
X174437D01*
X194750Y379655D02*
X204907D01*
X199829D01*
Y364420D01*
X212525D02*
X217603D01*
X220142Y366959D01*
Y372038D01*
X217603Y374577D01*
X212525D01*
X209985Y372038D01*
Y366959D01*
X212525Y364420D01*
X227760Y377116D02*
Y374577D01*
X225220D01*
X230299D01*
X227760D01*
Y366959D01*
X230299Y364420D01*
X240455Y374577D02*
X245534D01*
X248073Y372038D01*
Y364420D01*
X240455D01*
X237916Y366959D01*
X240455Y369498D01*
X248073D01*
X253151Y364420D02*
X258230D01*
X255691D01*
Y379655D01*
X253151D01*
X143967Y707320D02*
X133810D01*
X143967Y717477D01*
Y720016D01*
X141427Y722555D01*
X136349D01*
X133810Y720016D01*
X159202Y722555D02*
X149045D01*
Y714938D01*
X154123Y717477D01*
X156663D01*
X159202Y714938D01*
Y709859D01*
X156663Y707320D01*
X151584D01*
X149045Y709859D01*
X164280Y722555D02*
X174437D01*
Y720016D01*
X164280Y709859D01*
Y707320D01*
X143967Y669220D02*
X133810D01*
X143967Y679377D01*
Y681916D01*
X141427Y684455D01*
X136349D01*
X133810Y681916D01*
X143967Y631120D02*
X133810D01*
X143967Y641277D01*
Y643816D01*
X141427Y646355D01*
X136349D01*
X133810Y643816D01*
X143967Y593020D02*
X133810D01*
X143967Y603177D01*
Y605716D01*
X141427Y608255D01*
X136349D01*
X133810Y605716D01*
X141427Y554920D02*
Y570155D01*
X133810Y562537D01*
X143967D01*
X133810Y516820D02*
X138888D01*
X136349D01*
Y532055D01*
X133810Y529516D01*
X146506D02*
X149045Y532055D01*
X154123D01*
X156663Y529516D01*
Y526977D01*
X154123Y524437D01*
X156663Y521898D01*
Y519359D01*
X154123Y516820D01*
X149045D01*
X146506Y519359D01*
Y521898D01*
X149045Y524437D01*
X146506Y526977D01*
Y529516D01*
X149045Y524437D02*
X154123D01*
X133810Y478720D02*
X138888D01*
X136349D01*
Y493955D01*
X133810Y491416D01*
X146506D02*
X149045Y493955D01*
X154123D01*
X156663Y491416D01*
Y481259D01*
X154123Y478720D01*
X149045D01*
X146506Y481259D01*
Y491416D01*
X143967Y440620D02*
X133810D01*
X143967Y450777D01*
Y453316D01*
X141427Y455855D01*
X136349D01*
X133810Y453316D01*
X143967Y402520D02*
X133810D01*
X143967Y412677D01*
Y415216D01*
X141427Y417755D01*
X136349D01*
X133810Y415216D01*
X458827Y307281D02*
X468983D01*
X458827Y312360D02*
X468983D01*
X489297Y302203D02*
Y317438D01*
X496914D01*
X499454Y314899D01*
Y309821D01*
X496914Y307281D01*
X489297D01*
X494375D02*
X499454Y302203D01*
X507071D02*
X512150D01*
X514689Y304742D01*
Y309821D01*
X512150Y312360D01*
X507071D01*
X504532Y309821D01*
Y304742D01*
X507071Y302203D01*
X519767Y312360D02*
Y304742D01*
X522306Y302203D01*
X529924D01*
Y312360D01*
X537541Y314899D02*
Y312360D01*
X535002D01*
X540080D01*
X537541D01*
Y304742D01*
X540080Y302203D01*
X555316D02*
X550237D01*
X547698Y304742D01*
Y309821D01*
X550237Y312360D01*
X555316D01*
X557855Y309821D01*
Y307281D01*
X547698D01*
X573090Y317438D02*
Y302203D01*
X565472D01*
X562933Y304742D01*
Y309821D01*
X565472Y312360D01*
X573090D01*
X593403Y302203D02*
Y317438D01*
X601021D01*
X603560Y314899D01*
Y309821D01*
X601021Y307281D01*
X593403D01*
X611177Y312360D02*
X616256D01*
X618795Y309821D01*
Y302203D01*
X611177D01*
X608638Y304742D01*
X611177Y307281D01*
X618795D01*
X626413Y314899D02*
Y312360D01*
X623873D01*
X628952D01*
X626413D01*
Y304742D01*
X628952Y302203D01*
X636569Y317438D02*
Y302203D01*
Y309821D01*
X639109Y312360D01*
X644187D01*
X646726Y309821D01*
Y302203D01*
X667039Y317438D02*
Y302203D01*
X677196D01*
X689892D02*
X684814D01*
X682274Y304742D01*
Y309821D01*
X684814Y312360D01*
X689892D01*
X692431Y309821D01*
Y307281D01*
X682274D01*
X697510Y302203D02*
Y312360D01*
X705127D01*
X707666Y309821D01*
Y302203D01*
X717823Y297125D02*
X720362D01*
X722901Y299664D01*
Y312360D01*
X715284D01*
X712745Y309821D01*
Y304742D01*
X715284Y302203D01*
X722901D01*
X730519Y314899D02*
Y312360D01*
X727980D01*
X733058D01*
X730519D01*
Y304742D01*
X733058Y302203D01*
X740676Y317438D02*
Y302203D01*
Y309821D01*
X743215Y312360D01*
X748293D01*
X750832Y309821D01*
Y302203D01*
X771146Y309821D02*
X781302D01*
X776224Y314899D02*
Y304742D01*
X801616Y317438D02*
X811773D01*
X806694D01*
Y302203D01*
X819390D02*
X824469D01*
X827008Y304742D01*
Y309821D01*
X824469Y312360D01*
X819390D01*
X816851Y309821D01*
Y304742D01*
X819390Y302203D01*
X834625D02*
X839704D01*
X842243Y304742D01*
Y309821D01*
X839704Y312360D01*
X834625D01*
X832086Y309821D01*
Y304742D01*
X834625Y302203D01*
X847321D02*
X852400D01*
X849860D01*
Y317438D01*
X847321D01*
X885409Y314899D02*
X882870Y317438D01*
X877791D01*
X875252Y314899D01*
Y312360D01*
X877791Y309821D01*
X882870D01*
X885409Y307281D01*
Y304742D01*
X882870Y302203D01*
X877791D01*
X875252Y304742D01*
X890487Y302203D02*
X895565D01*
X893026D01*
Y312360D01*
X890487D01*
X903183D02*
X913340D01*
X903183Y302203D01*
X913340D01*
X926036D02*
X920957D01*
X918418Y304742D01*
Y309821D01*
X920957Y312360D01*
X926036D01*
X928575Y309821D01*
Y307281D01*
X918418D01*
X948888D02*
X959045D01*
X948888Y312360D02*
X959045D01*
X989515Y314899D02*
X986976Y317438D01*
X981898D01*
X979358Y314899D01*
Y312360D01*
X981898Y309821D01*
X986976D01*
X989515Y307281D01*
Y304742D01*
X986976Y302203D01*
X981898D01*
X979358Y304742D01*
X994594Y302203D02*
X999672D01*
X997133D01*
Y317438D01*
X994594D01*
X1009829Y302203D02*
X1014907D01*
X1017446Y304742D01*
Y309821D01*
X1014907Y312360D01*
X1009829D01*
X1007289Y309821D01*
Y304742D01*
X1009829Y302203D01*
X1025064Y314899D02*
Y312360D01*
X1022524D01*
X1027603D01*
X1025064D01*
Y304742D01*
X1027603Y302203D01*
X1050455D02*
X1055534D01*
X1052995D01*
Y317438D01*
X1050455D01*
X1070769Y302203D02*
X1065691D01*
X1063151Y304742D01*
Y309821D01*
X1065691Y312360D01*
X1070769D01*
X1073308Y309821D01*
Y307281D01*
X1063151D01*
X1078386Y302203D02*
Y312360D01*
X1086004D01*
X1088543Y309821D01*
Y302203D01*
X1098700Y297125D02*
X1101239D01*
X1103778Y299664D01*
Y312360D01*
X1096161D01*
X1093621Y309821D01*
Y304742D01*
X1096161Y302203D01*
X1103778D01*
X1111396Y314899D02*
Y312360D01*
X1108857D01*
X1113935D01*
X1111396D01*
Y304742D01*
X1113935Y302203D01*
X1121552Y317438D02*
Y302203D01*
Y309821D01*
X1124092Y312360D01*
X1129170D01*
X1131709Y309821D01*
Y302203D01*
X1154562Y312360D02*
X1159640D01*
X1162179Y309821D01*
Y302203D01*
X1154562D01*
X1152022Y304742D01*
X1154562Y307281D01*
X1162179D01*
X1167258Y302203D02*
X1174875D01*
X1177414Y304742D01*
X1174875Y307281D01*
X1169797D01*
X1167258Y309821D01*
X1169797Y312360D01*
X1177414D01*
X1207885Y317438D02*
Y302203D01*
X1200267D01*
X1197728Y304742D01*
Y309821D01*
X1200267Y312360D01*
X1207885D01*
X1220580Y302203D02*
X1215502D01*
X1212963Y304742D01*
Y309821D01*
X1215502Y312360D01*
X1220580D01*
X1223120Y309821D01*
Y307281D01*
X1212963D01*
X1230737Y302203D02*
Y314899D01*
Y309821D01*
X1228198D01*
X1233276D01*
X1230737D01*
Y314899D01*
X1233276Y317438D01*
X1240894Y302203D02*
X1245972D01*
X1243433D01*
Y312360D01*
X1240894D01*
X1253590Y302203D02*
Y312360D01*
X1261207D01*
X1263746Y309821D01*
Y302203D01*
X1276442D02*
X1271364D01*
X1268825Y304742D01*
Y309821D01*
X1271364Y312360D01*
X1276442D01*
X1278981Y309821D01*
Y307281D01*
X1268825D01*
X1294216Y317438D02*
Y302203D01*
X1286599D01*
X1284060Y304742D01*
Y309821D01*
X1286599Y312360D01*
X1294216D01*
X1314530Y302203D02*
X1319608D01*
X1317069D01*
Y312360D01*
X1314530D01*
X1327226Y302203D02*
Y312360D01*
X1334843D01*
X1337383Y309821D01*
Y302203D01*
X1360235Y314899D02*
Y312360D01*
X1357696D01*
X1362774D01*
X1360235D01*
Y304742D01*
X1362774Y302203D01*
X1370392Y317438D02*
Y302203D01*
Y309821D01*
X1372931Y312360D01*
X1378009D01*
X1380549Y309821D01*
Y302203D01*
X1393244D02*
X1388166D01*
X1385627Y304742D01*
Y309821D01*
X1388166Y312360D01*
X1393244D01*
X1395784Y309821D01*
Y307281D01*
X1385627D01*
X1416097Y302203D02*
Y317438D01*
X1423715D01*
X1426254Y314899D01*
Y309821D01*
X1423715Y307281D01*
X1416097D01*
X1441489Y314899D02*
X1438950Y317438D01*
X1433871D01*
X1431332Y314899D01*
Y304742D01*
X1433871Y302203D01*
X1438950D01*
X1441489Y304742D01*
X1446567Y317438D02*
Y302203D01*
X1454185D01*
X1456724Y304742D01*
Y307281D01*
X1454185Y309821D01*
X1446567D01*
X1454185D01*
X1456724Y312360D01*
Y314899D01*
X1454185Y317438D01*
X1446567D01*
X1477037Y302203D02*
X1482116D01*
X1479577D01*
Y317438D01*
X1477037D01*
X1492272Y312360D02*
X1497351D01*
X1499890Y309821D01*
Y302203D01*
X1492272D01*
X1489733Y304742D01*
X1492272Y307281D01*
X1499890D01*
X1504968Y312360D02*
Y304742D01*
X1507507Y302203D01*
X1515125D01*
Y299664D01*
X1512586Y297125D01*
X1510047D01*
X1515125Y302203D02*
Y312360D01*
X1522743Y302203D02*
X1527821D01*
X1530360Y304742D01*
Y309821D01*
X1527821Y312360D01*
X1522743D01*
X1520203Y309821D01*
Y304742D01*
X1522743Y302203D01*
X1535439Y312360D02*
Y304742D01*
X1537978Y302203D01*
X1545595D01*
Y312360D01*
X1553213Y314899D02*
Y312360D01*
X1550674D01*
X1555752D01*
X1553213D01*
Y304742D01*
X1555752Y302203D01*
X547698Y332675D02*
X557855D01*
X547698Y337753D02*
X557855D01*
X588325Y340293D02*
X585786Y342832D01*
X580707D01*
X578168Y340293D01*
Y330136D01*
X580707Y327597D01*
X585786D01*
X588325Y330136D01*
X595942Y337753D02*
X601021D01*
X603560Y335214D01*
Y327597D01*
X595942D01*
X593403Y330136D01*
X595942Y332675D01*
X603560D01*
X608638Y327597D02*
X613717D01*
X611177D01*
Y342832D01*
X608638D01*
X631491Y337753D02*
X623873D01*
X621334Y335214D01*
Y330136D01*
X623873Y327597D01*
X631491D01*
X636569Y337753D02*
Y330136D01*
X639109Y327597D01*
X646726D01*
Y337753D01*
X651804Y327597D02*
X656883D01*
X654344D01*
Y342832D01*
X651804D01*
X667039Y337753D02*
X672118D01*
X674657Y335214D01*
Y327597D01*
X667039D01*
X664500Y330136D01*
X667039Y332675D01*
X674657D01*
X682274Y340293D02*
Y337753D01*
X679735D01*
X684814D01*
X682274D01*
Y330136D01*
X684814Y327597D01*
X700049D02*
X694970D01*
X692431Y330136D01*
Y335214D01*
X694970Y337753D01*
X700049D01*
X702588Y335214D01*
Y332675D01*
X692431D01*
X717823Y342832D02*
Y327597D01*
X710206D01*
X707666Y330136D01*
Y335214D01*
X710206Y337753D01*
X717823D01*
X740676Y327597D02*
Y340293D01*
Y335214D01*
X738136D01*
X743215D01*
X740676D01*
Y340293D01*
X743215Y342832D01*
X750832Y337753D02*
Y327597D01*
Y332675D01*
X753372Y335214D01*
X755911Y337753D01*
X758450D01*
X768607Y327597D02*
X773685D01*
X776224Y330136D01*
Y335214D01*
X773685Y337753D01*
X768607D01*
X766067Y335214D01*
Y330136D01*
X768607Y327597D01*
X781302D02*
Y337753D01*
X783842D01*
X786381Y335214D01*
Y327597D01*
Y335214D01*
X788920Y337753D01*
X791459Y335214D01*
Y327597D01*
X814312Y340293D02*
Y337753D01*
X811773D01*
X816851D01*
X814312D01*
Y330136D01*
X816851Y327597D01*
X827008D02*
X832086D01*
X834625Y330136D01*
Y335214D01*
X832086Y337753D01*
X827008D01*
X824469Y335214D01*
Y330136D01*
X827008Y327597D01*
X842243D02*
X847321D01*
X849860Y330136D01*
Y335214D01*
X847321Y337753D01*
X842243D01*
X839704Y335214D01*
Y330136D01*
X842243Y327597D01*
X854939D02*
X860017D01*
X857478D01*
Y342832D01*
X854939D01*
X882870Y327597D02*
X890487D01*
X893026Y330136D01*
X890487Y332675D01*
X885409D01*
X882870Y335214D01*
X885409Y337753D01*
X893026D01*
X900644Y340293D02*
Y337753D01*
X898105D01*
X903183D01*
X900644D01*
Y330136D01*
X903183Y327597D01*
X913340Y337753D02*
X918418D01*
X920957Y335214D01*
Y327597D01*
X913340D01*
X910801Y330136D01*
X913340Y332675D01*
X920957D01*
X926036Y337753D02*
Y327597D01*
Y332675D01*
X928575Y335214D01*
X931114Y337753D01*
X933653D01*
X943810Y340293D02*
Y337753D01*
X941271D01*
X946349D01*
X943810D01*
Y330136D01*
X946349Y327597D01*
X979358Y337753D02*
X971741D01*
X969202Y335214D01*
Y330136D01*
X971741Y327597D01*
X979358D01*
X992054D02*
X986976D01*
X984437Y330136D01*
Y335214D01*
X986976Y337753D01*
X992054D01*
X994594Y335214D01*
Y332675D01*
X984437D01*
X999672Y327597D02*
Y337753D01*
X1007289D01*
X1009828Y335214D01*
Y327597D01*
X1017446Y340293D02*
Y337753D01*
X1014907D01*
X1019985D01*
X1017446D01*
Y330136D01*
X1019985Y327597D01*
X1027603Y337753D02*
Y327597D01*
Y332675D01*
X1030142Y335214D01*
X1032681Y337753D01*
X1035220D01*
X1050455Y327597D02*
X1045377D01*
X1042838Y330136D01*
Y335214D01*
X1045377Y337753D01*
X1050455D01*
X1052995Y335214D01*
Y332675D01*
X1042838D01*
X1073308Y322518D02*
Y337753D01*
X1080926D01*
X1083465Y335214D01*
Y330136D01*
X1080926Y327597D01*
X1073308D01*
X1091082D02*
X1096161D01*
X1098700Y330136D01*
Y335214D01*
X1096161Y337753D01*
X1091082D01*
X1088543Y335214D01*
Y330136D01*
X1091082Y327597D01*
X1103778D02*
X1111396D01*
X1113935Y330136D01*
X1111396Y332675D01*
X1106317D01*
X1103778Y335214D01*
X1106317Y337753D01*
X1113935D01*
X1119013Y327597D02*
X1124092D01*
X1121552D01*
Y337753D01*
X1119013D01*
X1134248Y340293D02*
Y337753D01*
X1131709D01*
X1136787D01*
X1134248D01*
Y330136D01*
X1136787Y327597D01*
X1144405D02*
X1149483D01*
X1146944D01*
Y337753D01*
X1144405D01*
X1159640Y327597D02*
X1164718D01*
X1167258Y330136D01*
Y335214D01*
X1164718Y337753D01*
X1159640D01*
X1157101Y335214D01*
Y330136D01*
X1159640Y327597D01*
X1172336D02*
Y337753D01*
X1179954D01*
X1182493Y335214D01*
Y327597D01*
X1205345Y340293D02*
Y337753D01*
X1202806D01*
X1207884D01*
X1205345D01*
Y330136D01*
X1207884Y327597D01*
X1218041D02*
X1223120D01*
X1225659Y330136D01*
Y335214D01*
X1223120Y337753D01*
X1218041D01*
X1215502Y335214D01*
Y330136D01*
X1218041Y327597D01*
X1248511Y340293D02*
Y337753D01*
X1245972D01*
X1251050D01*
X1248511D01*
Y330136D01*
X1251050Y327597D01*
X1261207D02*
X1266285D01*
X1268825Y330136D01*
Y335214D01*
X1266285Y337753D01*
X1261207D01*
X1258668Y335214D01*
Y330136D01*
X1261207Y327597D01*
X1276442D02*
X1281521D01*
X1284060Y330136D01*
Y335214D01*
X1281521Y337753D01*
X1276442D01*
X1273903Y335214D01*
Y330136D01*
X1276442Y327597D01*
X1289138D02*
X1294216D01*
X1291677D01*
Y342832D01*
X1289138D01*
X1324687Y327597D02*
X1319608D01*
X1317069Y330136D01*
Y335214D01*
X1319608Y337753D01*
X1324687D01*
X1327226Y335214D01*
Y332675D01*
X1317069D01*
X1332304Y327597D02*
Y337753D01*
X1339922D01*
X1342461Y335214D01*
Y327597D01*
X1357696Y342832D02*
Y327597D01*
X1350078D01*
X1347539Y330136D01*
Y335214D01*
X1350078Y337753D01*
X1357696D01*
X1388166D02*
X1380549D01*
X1378009Y335214D01*
Y330136D01*
X1380549Y327597D01*
X1388166D01*
X1400862D02*
X1395784D01*
X1393244Y330136D01*
Y335214D01*
X1395784Y337753D01*
X1400862D01*
X1403401Y335214D01*
Y332675D01*
X1393244D01*
X1408479Y327597D02*
Y337753D01*
X1416097D01*
X1418636Y335214D01*
Y327597D01*
X1426254Y340293D02*
Y337753D01*
X1423715D01*
X1428793D01*
X1426254D01*
Y330136D01*
X1428793Y327597D01*
X1436411Y337753D02*
Y327597D01*
Y332675D01*
X1438950Y335214D01*
X1441489Y337753D01*
X1444028D01*
X1459263Y327597D02*
X1454185D01*
X1451646Y330136D01*
Y335214D01*
X1454185Y337753D01*
X1459263D01*
X1461802Y335214D01*
Y332675D01*
X1451646D01*
X1482116Y322518D02*
Y337753D01*
X1489733D01*
X1492272Y335214D01*
Y330136D01*
X1489733Y327597D01*
X1482116D01*
X1499890D02*
X1504968D01*
X1507507Y330136D01*
Y335214D01*
X1504968Y337753D01*
X1499890D01*
X1497351Y335214D01*
Y330136D01*
X1499890Y327597D01*
X1512586D02*
X1520203D01*
X1522743Y330136D01*
X1520203Y332675D01*
X1515125D01*
X1512586Y335214D01*
X1515125Y337753D01*
X1522743D01*
X1527821Y327597D02*
X1532899D01*
X1530360D01*
Y337753D01*
X1527821D01*
X1543056Y340293D02*
Y337753D01*
X1540517D01*
X1545595D01*
X1543056D01*
Y330136D01*
X1545595Y327597D01*
X1553213D02*
X1558291D01*
X1555752D01*
Y337753D01*
X1553213D01*
X1568448Y327597D02*
X1573526D01*
X1576065Y330136D01*
Y335214D01*
X1573526Y337753D01*
X1568448D01*
X1565909Y335214D01*
Y330136D01*
X1568448Y327597D01*
X1581144D02*
Y337753D01*
X1588761D01*
X1591300Y335214D01*
Y327597D01*
X1596379D02*
Y330136D01*
X1598918D01*
Y327597D01*
X1596379D01*
D11*
X0Y127250D02*
Y262975D01*
Y280000D01*
Y127250D02*
X30000D01*
Y77750D02*
Y127250D01*
X0Y77750D02*
X30000D01*
X0Y0D02*
Y77750D01*
Y280000D02*
X650000D01*
Y0D02*
Y280000D01*
X0Y0D02*
X650000D01*
D15*
X748227Y247330D02*
X1616684D01*
X748227Y277810D02*
X1616684D01*
X748227Y-87950D02*
Y277810D01*
Y-87950D02*
X852345D01*
X748227Y-57470D02*
X852345D01*
X748227Y-26990D02*
X852345D01*
X748227Y3490D02*
X852345D01*
X748227Y33970D02*
X852345D01*
X748227Y64450D02*
X852345D01*
X748227Y94930D02*
X852345D01*
X748227Y125410D02*
X852345D01*
X748227Y155890D02*
X852345D01*
X748227Y186370D02*
X852345D01*
X748227Y216850D02*
X852345D01*
Y-87950D02*
Y277810D01*
Y-87950D02*
X1088500D01*
X852345Y-57470D02*
X1088500D01*
X852345Y-26990D02*
X1088500D01*
X852345Y3490D02*
X1088500D01*
X852345Y33970D02*
X1088500D01*
X852345Y64450D02*
X1088500D01*
X852345Y94930D02*
X1088500D01*
X852345Y125410D02*
X1088500D01*
X852345Y155890D02*
X1088500D01*
X852345Y186370D02*
X1088500D01*
X852345Y216850D02*
X1088500D01*
Y-87950D02*
Y277810D01*
Y-87950D02*
X1306881D01*
X1088500Y-57470D02*
X1306881D01*
X1088500Y-26990D02*
X1306881D01*
X1088500Y3490D02*
X1306881D01*
X1088500Y33970D02*
X1306881D01*
X1088500Y64450D02*
X1306881D01*
X1088500Y94930D02*
X1306881D01*
X1088500Y125410D02*
X1306881D01*
X1088500Y155890D02*
X1306881D01*
X1088500Y186370D02*
X1306881D01*
X1088500Y216850D02*
X1306881D01*
Y-87950D02*
Y277810D01*
Y-87950D02*
X1471939D01*
X1306881Y-57470D02*
X1471939D01*
X1306881Y-26990D02*
X1471939D01*
X1306881Y3490D02*
X1471939D01*
X1306881Y33970D02*
X1471939D01*
X1306881Y64450D02*
X1471939D01*
X1306881Y94930D02*
X1471939D01*
X1306881Y125410D02*
X1471939D01*
X1306881Y155890D02*
X1471939D01*
X1306881Y186370D02*
X1471939D01*
X1306881Y216850D02*
X1471939D01*
Y-87950D02*
Y277810D01*
Y-87950D02*
X1616684D01*
X1471939Y-57470D02*
X1616684D01*
X1471939Y-26990D02*
X1616684D01*
X1471939Y3490D02*
X1616684D01*
X1471939Y33970D02*
X1616684D01*
X1471939Y64450D02*
X1616684D01*
X1471939Y94930D02*
X1616684D01*
X1471939Y125410D02*
X1616684D01*
X1471939Y155890D02*
X1616684D01*
X1471939Y186370D02*
X1616684D01*
X1471939Y216850D02*
X1616684D01*
Y-87950D02*
Y277810D01*
X-17542Y733990D02*
X1177459D01*
X-17542Y391090D02*
X1177459D01*
X-17542Y352990D02*
X1177459D01*
Y772090D01*
X-17542D02*
X1177459D01*
X-17542Y352990D02*
Y772090D01*
X884172Y352990D02*
Y772090D01*
X697786Y352990D02*
Y772090D01*
X569294Y352990D02*
Y772090D01*
X274740Y352990D02*
Y772090D01*
X122380Y352990D02*
Y772090D01*
D71*
X53824Y253200D02*
G03*
X53824Y253200I-1524J0D01*
G01*
X54840D02*
G03*
X54840Y253200I-2540J0D01*
G01*
X53824Y166800D02*
G03*
X53824Y166800I-1524J0D01*
G01*
X54840D02*
G03*
X54840Y166800I-2540J0D01*
G01*
X142460Y51270D02*
X145000Y48730D01*
X147540Y51270D01*
X145000Y53810D02*
X147540Y51270D01*
X142460D02*
X145000Y53810D01*
X163460Y51270D02*
X166000Y48730D01*
X168540Y51270D01*
X166000Y53810D02*
X168540Y51270D01*
X163460D02*
X166000Y53810D01*
X184460Y51270D02*
X187000Y48730D01*
X189540Y51270D01*
X187000Y53810D02*
X189540Y51270D01*
X184460D02*
X187000Y53810D01*
X205460Y51270D02*
X208000Y48730D01*
X210540Y51270D01*
X208000Y53810D02*
X210540Y51270D01*
X205460D02*
X208000Y53810D01*
X226460Y51270D02*
X229000Y48730D01*
X231540Y51270D01*
X229000Y53810D02*
X231540Y51270D01*
X226460D02*
X229000Y53810D01*
X247460Y51270D02*
X250000Y48730D01*
X252540Y51270D01*
X250000Y53810D02*
X252540Y51270D01*
X247460D02*
X250000Y53810D01*
X247460Y72270D02*
X250000Y69730D01*
X252540Y72270D01*
X250000Y74810D02*
X252540Y72270D01*
X247460D02*
X250000Y74810D01*
X226460Y72270D02*
X229000Y69730D01*
X231540Y72270D01*
X229000Y74810D02*
X231540Y72270D01*
X226460D02*
X229000Y74810D01*
X205460Y72270D02*
X208000Y69730D01*
X210540Y72270D01*
X208000Y74810D02*
X210540Y72270D01*
X205460D02*
X208000Y74810D01*
X184460Y72270D02*
X187000Y69730D01*
X189540Y72270D01*
X187000Y74810D02*
X189540Y72270D01*
X184460D02*
X187000Y74810D01*
X163460Y72270D02*
X166000Y69730D01*
X168540Y72270D01*
X166000Y74810D02*
X168540Y72270D01*
X163460D02*
X166000Y74810D01*
X142460Y72270D02*
X145000Y69730D01*
X147540Y72270D01*
X145000Y74810D02*
X147540Y72270D01*
X142460D02*
X145000Y74810D01*
X142460Y93270D02*
X145000Y90730D01*
X147540Y93270D01*
X145000Y95810D02*
X147540Y93270D01*
X142460D02*
X145000Y95810D01*
X163460Y93270D02*
X166000Y90730D01*
X168540Y93270D01*
X166000Y95810D02*
X168540Y93270D01*
X163460D02*
X166000Y95810D01*
X184460Y93270D02*
X187000Y90730D01*
X189540Y93270D01*
X187000Y95810D02*
X189540Y93270D01*
X184460D02*
X187000Y95810D01*
X205460Y93270D02*
X208000Y90730D01*
X210540Y93270D01*
X208000Y95810D02*
X210540Y93270D01*
X205460D02*
X208000Y95810D01*
X226460Y93270D02*
X229000Y90730D01*
X231540Y93270D01*
X229000Y95810D02*
X231540Y93270D01*
X226460D02*
X229000Y95810D01*
X237690Y83500D02*
X240230Y80960D01*
X242770Y83500D01*
X240230Y86040D02*
X242770Y83500D01*
X237690D02*
X240230Y86040D01*
X237690Y104500D02*
X240230Y101960D01*
X242770Y104500D01*
X240230Y107040D02*
X242770Y104500D01*
X237690D02*
X240230Y107040D01*
X226460Y114270D02*
X229000Y111730D01*
X231540Y114270D01*
X229000Y116810D02*
X231540Y114270D01*
X226460D02*
X229000Y116810D01*
X205460Y114270D02*
X208000Y111730D01*
X210540Y114270D01*
X208000Y116810D02*
X210540Y114270D01*
X205460D02*
X208000Y116810D01*
X184460Y114270D02*
X187000Y111730D01*
X189540Y114270D01*
X187000Y116810D02*
X189540Y114270D01*
X184460D02*
X187000Y116810D01*
X163460Y114270D02*
X166000Y111730D01*
X168540Y114270D01*
X166000Y116810D02*
X168540Y114270D01*
X163460D02*
X166000Y116810D01*
X152230Y104500D02*
X154770Y101960D01*
X157310Y104500D01*
X154770Y107040D02*
X157310Y104500D01*
X152230D02*
X154770Y107040D01*
X173230Y125500D02*
X175770Y122960D01*
X178310Y125500D01*
X175770Y128040D02*
X178310Y125500D01*
X173230D02*
X175770Y128040D01*
X194230Y125500D02*
X196770Y122960D01*
X199310Y125500D01*
X196770Y128040D02*
X199310Y125500D01*
X194230D02*
X196770Y128040D01*
X216690Y125500D02*
X219230Y122960D01*
X221770Y125500D01*
X219230Y128040D02*
X221770Y125500D01*
X216690D02*
X219230Y128040D01*
X237690Y125500D02*
X240230Y122960D01*
X242770Y125500D01*
X240230Y128040D02*
X242770Y125500D01*
X237690D02*
X240230Y128040D01*
X216690Y146500D02*
X219230Y143960D01*
X221770Y146500D01*
X219230Y149040D02*
X221770Y146500D01*
X216690D02*
X219230Y149040D01*
X205460Y136730D02*
X208000Y134190D01*
X210540Y136730D01*
X208000Y139270D02*
X210540Y136730D01*
X205460D02*
X208000Y139270D01*
X184460Y136730D02*
X187000Y134190D01*
X189540Y136730D01*
X187000Y139270D02*
X189540Y136730D01*
X184460D02*
X187000Y139270D01*
X163460Y136730D02*
X166000Y134190D01*
X168540Y136730D01*
X166000Y139270D02*
X168540Y136730D01*
X163460D02*
X166000Y139270D01*
X163460Y157730D02*
X166000Y155190D01*
X168540Y157730D01*
X166000Y160270D02*
X168540Y157730D01*
X163460D02*
X166000Y160270D01*
X184460Y157730D02*
X187000Y155190D01*
X189540Y157730D01*
X187000Y160270D02*
X189540Y157730D01*
X184460D02*
X187000Y160270D01*
X205460Y157730D02*
X208000Y155190D01*
X210540Y157730D01*
X208000Y160270D02*
X210540Y157730D01*
X205460D02*
X208000Y160270D01*
X237690Y188500D02*
X240230Y185960D01*
X242770Y188500D01*
X240230Y191040D02*
X242770Y188500D01*
X237690D02*
X240230Y191040D01*
X142460Y178730D02*
X145000Y176190D01*
X147540Y178730D01*
X145000Y181270D02*
X147540Y178730D01*
X142460D02*
X145000Y181270D01*
X281230Y87500D02*
X283770Y84960D01*
X286310Y87500D01*
X283770Y90040D02*
X286310Y87500D01*
X281230D02*
X283770Y90040D01*
X108690Y43500D02*
X111230Y40960D01*
X113770Y43500D01*
X111230Y46040D02*
X113770Y43500D01*
X108690D02*
X111230Y46040D01*
X108690Y65500D02*
X111230Y62960D01*
X113770Y65500D01*
X111230Y68040D02*
X113770Y65500D01*
X108690D02*
X111230Y68040D01*
X132230Y186500D02*
X134770Y183960D01*
X137310Y186500D01*
X134770Y189040D02*
X137310Y186500D01*
X132230D02*
X134770Y189040D01*
X289190Y176250D02*
X291730Y173710D01*
X294270Y176250D01*
X291730Y178790D02*
X294270Y176250D01*
X289190D02*
X291730Y178790D01*
X83460Y81480D02*
X86000Y78940D01*
X88540Y81480D01*
X86000Y84020D02*
X88540Y81480D01*
X83460D02*
X86000Y84020D01*
X522730Y115500D02*
X525270Y112960D01*
X527810Y115500D01*
X525270Y118040D02*
X527810Y115500D01*
X522730D02*
X525270Y118040D01*
X378230Y163750D02*
X380770Y161210D01*
X383310Y163750D01*
X380770Y166290D02*
X383310Y163750D01*
X378230D02*
X380770Y166290D01*
X77190Y240250D02*
X79730Y237710D01*
X82270Y240250D01*
X79730Y242790D02*
X82270Y240250D01*
X77190D02*
X79730Y242790D01*
X430460Y235270D02*
X433000Y232730D01*
X435540Y235270D01*
X433000Y237810D02*
X435540Y235270D01*
X430460D02*
X433000Y237810D01*
X467460Y176980D02*
X470000Y174440D01*
X472540Y176980D01*
X470000Y179520D02*
X472540Y176980D01*
X467460D02*
X470000Y179520D01*
X92190Y72000D02*
X94730Y69460D01*
X97270Y72000D01*
X94730Y74540D02*
X97270Y72000D01*
X92190D02*
X94730Y74540D01*
X77730Y72000D02*
X80270Y69460D01*
X82810Y72000D01*
X80270Y74540D02*
X82810Y72000D01*
X77730D02*
X80270Y74540D01*
X512460Y78230D02*
X515000Y75690D01*
X517540Y78230D01*
X515000Y80770D02*
X517540Y78230D01*
X512460D02*
X515000Y80770D01*
X224690Y135500D02*
X227230Y132960D01*
X229770Y135500D01*
X227230Y138040D02*
X229770Y135500D01*
X224690D02*
X227230Y138040D01*
X234688Y115000D02*
X237228Y112459D01*
X239768Y115000D01*
X237228Y117540D02*
X239768Y115000D01*
X234688D02*
X237228Y117540D01*
X417960Y122770D02*
X420500Y120230D01*
X423040Y122770D01*
X420500Y125310D02*
X423040Y122770D01*
X417960D02*
X420500Y125310D01*
X131460Y164500D02*
X134000Y161960D01*
X136540Y164500D01*
X134000Y167040D02*
X136540Y164500D01*
X131460D02*
X134000Y167040D01*
X289460Y163500D02*
X292000Y160960D01*
X294540Y163500D01*
X292000Y166040D02*
X294540Y163500D01*
X289460D02*
X292000Y166040D01*
X152460Y241750D02*
X155000Y239210D01*
X157540Y241750D01*
X155000Y244290D02*
X157540Y241750D01*
X152460D02*
X155000Y244290D01*
X194960Y203000D02*
X197500Y200460D01*
X200040Y203000D01*
X197500Y205540D02*
X200040Y203000D01*
X194960D02*
X197500Y205540D01*
X9460Y61500D02*
X12000Y58960D01*
X14540Y61500D01*
X12000Y64040D02*
X14540Y61500D01*
X9460D02*
X12000Y64040D01*
X23710Y61750D02*
X26250Y59210D01*
X28790Y61750D01*
X26250Y64290D02*
X28790Y61750D01*
X23710D02*
X26250Y64290D01*
X131710Y131500D02*
X134250Y128960D01*
X136790Y131500D01*
X134250Y134040D02*
X136790Y131500D01*
X131710D02*
X134250Y134040D01*
X280460Y142000D02*
X283000Y139460D01*
X285540Y142000D01*
X283000Y144540D02*
X285540Y142000D01*
X280460D02*
X283000Y144540D01*
X424960Y181750D02*
X427500Y179210D01*
X430040Y181750D01*
X427500Y184290D02*
X430040Y181750D01*
X424960D02*
X427500Y184290D01*
X314710Y126250D02*
X317250Y123710D01*
X319790Y126250D01*
X317250Y128790D02*
X319790Y126250D01*
X314710D02*
X317250Y128790D01*
X314710Y113750D02*
X317250Y111210D01*
X319790Y113750D01*
X317250Y116290D02*
X319790Y113750D01*
X314710D02*
X317250Y116290D01*
X316710Y97500D02*
X319250Y94960D01*
X321790Y97500D01*
X319250Y100040D02*
X321790Y97500D01*
X316710D02*
X319250Y100040D01*
X316960Y77500D02*
X319500Y74960D01*
X322040Y77500D01*
X319500Y80040D02*
X322040Y77500D01*
X316960D02*
X319500Y80040D01*
X311210Y37500D02*
X313750Y34960D01*
X316290Y37500D01*
X313750Y40040D02*
X316290Y37500D01*
X311210D02*
X313750Y40040D01*
X161960Y203250D02*
X164500Y200710D01*
X167040Y203250D01*
X164500Y205790D02*
X167040Y203250D01*
X161960D02*
X164500Y205790D01*
X127960Y267500D02*
X130500Y264960D01*
X133040Y267500D01*
X130500Y270040D02*
X133040Y267500D01*
X127960D02*
X130500Y270040D01*
X111960Y267250D02*
X114500Y264710D01*
X117040Y267250D01*
X114500Y269790D02*
X117040Y267250D01*
X111960D02*
X114500Y269790D01*
X152460Y263500D02*
X155000Y260960D01*
X157540Y263500D01*
X155000Y266040D02*
X157540Y263500D01*
X152460D02*
X155000Y266040D01*
X197460Y266000D02*
X200000Y263460D01*
X202540Y266000D01*
X200000Y268540D02*
X202540Y266000D01*
X197460D02*
X200000Y268540D01*
X172960Y203000D02*
X175500Y200460D01*
X178040Y203000D01*
X175500Y205540D02*
X178040Y203000D01*
X172960D02*
X175500Y205540D01*
X183960Y202750D02*
X186500Y200210D01*
X189040Y202750D01*
X186500Y205290D02*
X189040Y202750D01*
X183960D02*
X186500Y205290D01*
X216710Y225250D02*
X219250Y222710D01*
X221790Y225250D01*
X219250Y227790D02*
X221790Y225250D01*
X216710D02*
X219250Y227790D01*
X237460Y251500D02*
X240000Y248960D01*
X242540Y251500D01*
X240000Y254040D02*
X242540Y251500D01*
X237460D02*
X240000Y254040D01*
X258210Y189000D02*
X260750Y186460D01*
X263290Y189000D01*
X260750Y191540D02*
X263290Y189000D01*
X258210D02*
X260750Y191540D01*
X397710Y250000D02*
X400250Y247460D01*
X402790Y250000D01*
X400250Y252540D02*
X402790Y250000D01*
X397710D02*
X400250Y252540D01*
X377460Y251000D02*
X380000Y248460D01*
X382540Y251000D01*
X380000Y253540D02*
X382540Y251000D01*
X377460D02*
X380000Y253540D01*
X417460Y265250D02*
X420000Y262710D01*
X422540Y265250D01*
X420000Y267790D02*
X422540Y265250D01*
X417460D02*
X420000Y267790D01*
X287460Y75000D02*
X290000Y72460D01*
X292540Y75000D01*
X290000Y77540D02*
X292540Y75000D01*
X287460D02*
X290000Y77540D01*
X324210Y241750D02*
X326750Y239210D01*
X329290Y241750D01*
X326750Y244290D02*
X329290Y241750D01*
X324210D02*
X326750Y244290D01*
X347210Y37500D02*
X349750Y34960D01*
X352290Y37500D01*
X349750Y40040D02*
X352290Y37500D01*
X347210D02*
X349750Y40040D01*
X336960Y19250D02*
X339500Y16710D01*
X342040Y19250D01*
X339500Y21790D02*
X342040Y19250D01*
X336960D02*
X339500Y21790D01*
X328210Y57500D02*
X330750Y54960D01*
X333290Y57500D01*
X330750Y60040D02*
X333290Y57500D01*
X328210D02*
X330750Y60040D01*
X330210Y15000D02*
X332750Y12460D01*
X335290Y15000D01*
X332750Y17540D02*
X335290Y15000D01*
X330210D02*
X332750Y17540D01*
X377710Y126500D02*
X380250Y123960D01*
X382790Y126500D01*
X380250Y129040D02*
X382790Y126500D01*
X377710D02*
X380250Y129040D01*
X377460Y113750D02*
X380000Y111210D01*
X382540Y113750D01*
X380000Y116290D02*
X382540Y113750D01*
X377460D02*
X380000Y116290D01*
X377210Y101250D02*
X379750Y98710D01*
X382290Y101250D01*
X379750Y103790D02*
X382290Y101250D01*
X377210D02*
X379750Y103790D01*
X377460Y88500D02*
X380000Y85960D01*
X382540Y88500D01*
X380000Y91040D02*
X382540Y88500D01*
X377460D02*
X380000Y91040D01*
X437460Y251000D02*
X440000Y248460D01*
X442540Y251000D01*
X440000Y253540D02*
X442540Y251000D01*
X437460D02*
X440000Y253540D01*
X133460Y72000D02*
X136000Y69460D01*
X138540Y72000D01*
X136000Y74540D02*
X138540Y72000D01*
X133460D02*
X136000Y74540D01*
X380710Y153250D02*
X383250Y150710D01*
X385790Y153250D01*
X383250Y155790D02*
X385790Y153250D01*
X380710D02*
X383250Y155790D01*
X393210Y137500D02*
X395750Y134960D01*
X398290Y137500D01*
X395750Y140040D02*
X398290Y137500D01*
X393210D02*
X395750Y140040D01*
X364960Y27500D02*
X367500Y24960D01*
X370040Y27500D01*
X367500Y30040D02*
X370040Y27500D01*
X364960D02*
X367500Y30040D01*
X407960Y69250D02*
X410500Y66710D01*
X413040Y69250D01*
X410500Y71790D02*
X413040Y69250D01*
X407960D02*
X410500Y71790D01*
X467710Y87000D02*
X470250Y84460D01*
X472790Y87000D01*
X470250Y89540D02*
X472790Y87000D01*
X467710D02*
X470250Y89540D01*
X400710Y127000D02*
X403250Y124460D01*
X405790Y127000D01*
X403250Y129540D02*
X405790Y127000D01*
X400710D02*
X403250Y129540D01*
X405460Y97250D02*
X408000Y94710D01*
X410540Y97250D01*
X408000Y99790D02*
X410540Y97250D01*
X405460D02*
X408000Y99790D01*
X429460Y125000D02*
X432000Y122460D01*
X434540Y125000D01*
X432000Y127540D02*
X434540Y125000D01*
X429460D02*
X432000Y127540D01*
X131460Y153500D02*
X134000Y150960D01*
X136540Y153500D01*
X134000Y156040D02*
X136540Y153500D01*
X131460D02*
X134000Y156040D01*
X153210Y167500D02*
X155750Y164960D01*
X158290Y167500D01*
X155750Y170040D02*
X158290Y167500D01*
X153210D02*
X155750Y170040D01*
X131460Y142500D02*
X134000Y139960D01*
X136540Y142500D01*
X134000Y145040D02*
X136540Y142500D01*
X131460D02*
X134000Y145040D01*
X131210Y120500D02*
X133750Y117960D01*
X136290Y120500D01*
X133750Y123040D02*
X136290Y120500D01*
X131210D02*
X133750Y123040D01*
X83710Y12000D02*
X86250Y9460D01*
X88790Y12000D01*
X86250Y14540D02*
X88790Y12000D01*
X83710D02*
X86250Y14540D01*
X94460Y22250D02*
X97000Y19710D01*
X99540Y22250D01*
X97000Y24790D02*
X99540Y22250D01*
X94460D02*
X97000Y24790D01*
X67460Y50500D02*
X70000Y47960D01*
X72540Y50500D01*
X70000Y53040D02*
X72540Y50500D01*
X67460D02*
X70000Y53040D01*
X346210Y143250D02*
X348750Y140710D01*
X351290Y143250D01*
X348750Y145790D02*
X351290Y143250D01*
X346210D02*
X348750Y145790D01*
X327582Y157628D02*
X330122Y155088D01*
X332662Y157628D01*
X330122Y160168D02*
X332662Y157628D01*
X327582D02*
X330122Y160168D01*
X321960Y182500D02*
X324500Y179960D01*
X327040Y182500D01*
X324500Y185040D02*
X327040Y182500D01*
X321960D02*
X324500Y185040D01*
X378210Y183500D02*
X380750Y180960D01*
X383290Y183500D01*
X380750Y186040D02*
X383290Y183500D01*
X378210D02*
X380750Y186040D01*
X119960Y11750D02*
X122500Y9210D01*
X125040Y11750D01*
X122500Y14290D02*
X125040Y11750D01*
X119960D02*
X122500Y14290D01*
X258210Y109500D02*
X260750Y106960D01*
X263290Y109500D01*
X260750Y112040D02*
X263290Y109500D01*
X258210D02*
X260750Y112040D01*
X258960Y98750D02*
X261500Y96210D01*
X264040Y98750D01*
X261500Y101290D02*
X264040Y98750D01*
X258960D02*
X261500Y101290D01*
X217460Y250750D02*
X220000Y248210D01*
X222540Y250750D01*
X220000Y253290D02*
X222540Y250750D01*
X217460D02*
X220000Y253290D01*
X474960Y155000D02*
X477500Y152460D01*
X480040Y155000D01*
X477500Y157540D02*
X480040Y155000D01*
X474960D02*
X477500Y157540D01*
X474960Y147500D02*
X477500Y144960D01*
X480040Y147500D01*
X477500Y150040D02*
X480040Y147500D01*
X474960D02*
X477500Y150040D01*
X482460Y140000D02*
X485000Y137460D01*
X487540Y140000D01*
X485000Y142540D02*
X487540Y140000D01*
X482460D02*
X485000Y142540D01*
X474960Y140000D02*
X477500Y137460D01*
X480040Y140000D01*
X477500Y142540D02*
X480040Y140000D01*
X474960D02*
X477500Y142540D01*
X103460Y115000D02*
X106000Y112460D01*
X108540Y115000D01*
X106000Y117540D02*
X108540Y115000D01*
X103460D02*
X106000Y117540D01*
X63960Y130500D02*
X66500Y127960D01*
X69040Y130500D01*
X66500Y133040D02*
X69040Y130500D01*
X63960D02*
X66500Y133040D01*
X33460Y141250D02*
X36000Y138710D01*
X38540Y141250D01*
X36000Y143790D02*
X38540Y141250D01*
X33460D02*
X36000Y143790D01*
X18460Y71000D02*
X21000Y68460D01*
X23540Y71000D01*
X21000Y73540D02*
X23540Y71000D01*
X18460D02*
X21000Y73540D01*
X193460Y71000D02*
X196000Y68460D01*
X198540Y71000D01*
X196000Y73540D02*
X198540Y71000D01*
X193460D02*
X196000Y73540D01*
X193460Y96000D02*
X196000Y93460D01*
X198540Y96000D01*
X196000Y98540D02*
X198540Y96000D01*
X193460D02*
X196000Y98540D01*
X243460Y246000D02*
X246000Y243460D01*
X248540Y246000D01*
X246000Y248540D02*
X248540Y246000D01*
X243460D02*
X246000Y248540D01*
X268460Y246000D02*
X271000Y243460D01*
X273540Y246000D01*
X271000Y248540D02*
X273540Y246000D01*
X268460D02*
X271000Y248540D01*
X293460Y46000D02*
X296000Y43460D01*
X298540Y46000D01*
X296000Y48540D02*
X298540Y46000D01*
X293460D02*
X296000Y48540D01*
X293460Y246000D02*
X296000Y243460D01*
X298540Y246000D01*
X296000Y248540D02*
X298540Y246000D01*
X293460D02*
X296000Y248540D01*
X368460Y246000D02*
X371000Y243460D01*
X373540Y246000D01*
X371000Y248540D02*
X373540Y246000D01*
X368460D02*
X371000Y248540D01*
X418460Y221000D02*
X421000Y218460D01*
X423540Y221000D01*
X421000Y223540D02*
X423540Y221000D01*
X418460D02*
X421000Y223540D01*
X443460Y21000D02*
X446000Y18460D01*
X448540Y21000D01*
X446000Y23540D02*
X448540Y21000D01*
X443460D02*
X446000Y23540D01*
X443460Y96000D02*
X446000Y93460D01*
X448540Y96000D01*
X446000Y98540D02*
X448540Y96000D01*
X443460D02*
X446000Y98540D01*
X468460Y21000D02*
X471000Y18460D01*
X473540Y21000D01*
X471000Y23540D02*
X473540Y21000D01*
X468460D02*
X471000Y23540D01*
X468460Y46000D02*
X471000Y43460D01*
X473540Y46000D01*
X471000Y48540D02*
X473540Y46000D01*
X468460D02*
X471000Y48540D01*
X468460Y71000D02*
X471000Y68460D01*
X473540Y71000D01*
X471000Y73540D02*
X473540Y71000D01*
X468460D02*
X471000Y73540D01*
X493460Y21000D02*
X496000Y18460D01*
X498540Y21000D01*
X496000Y23540D02*
X498540Y21000D01*
X493460D02*
X496000Y23540D01*
X518460Y71000D02*
X521000Y68460D01*
X523540Y71000D01*
X521000Y73540D02*
X523540Y71000D01*
X518460D02*
X521000Y73540D01*
X518460Y221000D02*
X521000Y218460D01*
X523540Y221000D01*
X521000Y223540D02*
X523540Y221000D01*
X518460D02*
X521000Y223540D01*
X543460Y21000D02*
X546000Y18460D01*
X548540Y21000D01*
X546000Y23540D02*
X548540Y21000D01*
X543460D02*
X546000Y23540D01*
X543460Y96000D02*
X546000Y93460D01*
X548540Y96000D01*
X546000Y98540D02*
X548540Y96000D01*
X543460D02*
X546000Y98540D01*
X543460Y121000D02*
X546000Y118460D01*
X548540Y121000D01*
X546000Y123540D02*
X548540Y121000D01*
X543460D02*
X546000Y123540D01*
X543460Y196000D02*
X546000Y193460D01*
X548540Y196000D01*
X546000Y198540D02*
X548540Y196000D01*
X543460D02*
X546000Y198540D01*
X568460Y71000D02*
X571000Y68460D01*
X573540Y71000D01*
X571000Y73540D02*
X573540Y71000D01*
X568460D02*
X571000Y73540D01*
X568460Y96000D02*
X571000Y93460D01*
X573540Y96000D01*
X571000Y98540D02*
X573540Y96000D01*
X568460D02*
X571000Y98540D01*
X568460Y196000D02*
X571000Y193460D01*
X573540Y196000D01*
X571000Y198540D02*
X573540Y196000D01*
X568460D02*
X571000Y198540D01*
X568460Y221000D02*
X571000Y218460D01*
X573540Y221000D01*
X571000Y223540D02*
X573540Y221000D01*
X568460D02*
X571000Y223540D01*
X593460Y21000D02*
X596000Y18460D01*
X598540Y21000D01*
X596000Y23540D02*
X598540Y21000D01*
X593460D02*
X596000Y23540D01*
X593460Y96000D02*
X596000Y93460D01*
X598540Y96000D01*
X596000Y98540D02*
X598540Y96000D01*
X593460D02*
X596000Y98540D01*
X593460Y196000D02*
X596000Y193460D01*
X598540Y196000D01*
X596000Y198540D02*
X598540Y196000D01*
X593460D02*
X596000Y198540D01*
X593460Y221000D02*
X596000Y218460D01*
X598540Y221000D01*
X596000Y223540D02*
X598540Y221000D01*
X593460D02*
X596000Y223540D01*
X618460Y21000D02*
X621000Y18460D01*
X623540Y21000D01*
X621000Y23540D02*
X623540Y21000D01*
X618460D02*
X621000Y23540D01*
X618460Y46000D02*
X621000Y43460D01*
X623540Y46000D01*
X621000Y48540D02*
X623540Y46000D01*
X618460D02*
X621000Y48540D01*
X618460Y71000D02*
X621000Y68460D01*
X623540Y71000D01*
X621000Y73540D02*
X623540Y71000D01*
X618460D02*
X621000Y73540D01*
X618460Y121000D02*
X621000Y118460D01*
X623540Y121000D01*
X621000Y123540D02*
X623540Y121000D01*
X618460D02*
X621000Y123540D01*
X618460Y146000D02*
X621000Y143460D01*
X623540Y146000D01*
X621000Y148540D02*
X623540Y146000D01*
X618460D02*
X621000Y148540D01*
X618460Y196000D02*
X621000Y193460D01*
X623540Y196000D01*
X621000Y198540D02*
X623540Y196000D01*
X618460D02*
X621000Y198540D01*
X618460Y221000D02*
X621000Y218460D01*
X623540Y221000D01*
X621000Y223540D02*
X623540Y221000D01*
X618460D02*
X621000Y223540D01*
X426960Y258250D02*
X429500Y255710D01*
X432040Y258250D01*
X429500Y260790D02*
X432040Y258250D01*
X426960D02*
X429500Y260790D01*
X206960Y258000D02*
X209500Y255460D01*
X212040Y258000D01*
X209500Y260540D02*
X212040Y258000D01*
X206960D02*
X209500Y260540D01*
X55710Y147500D02*
X58250Y144960D01*
X60790Y147500D01*
X58250Y150040D02*
X60790Y147500D01*
X55710D02*
X58250Y150040D01*
X41960Y141250D02*
X44500Y138710D01*
X47040Y141250D01*
X44500Y143790D02*
X47040Y141250D01*
X41960D02*
X44500Y143790D01*
X118960Y237250D02*
X121500Y234710D01*
X124040Y237250D01*
X121500Y239790D02*
X124040Y237250D01*
X118960D02*
X121500Y239790D01*
X106210Y225000D02*
X108750Y222460D01*
X111290Y225000D01*
X108750Y227540D02*
X111290Y225000D01*
X106210D02*
X108750Y227540D01*
X86960Y191250D02*
X89500Y188710D01*
X92040Y191250D01*
X89500Y193790D02*
X92040Y191250D01*
X86960D02*
X89500Y193790D01*
X60210Y41750D02*
X62750Y39210D01*
X65290Y41750D01*
X62750Y44290D02*
X65290Y41750D01*
X60210D02*
X62750Y44290D01*
X194530Y226370D02*
X197070Y223830D01*
X199610Y226370D01*
X197070Y228910D02*
X199610Y226370D01*
X194530D02*
X197070Y228910D01*
X170770Y245110D02*
X173310Y242570D01*
X175850Y245110D01*
X173310Y247650D02*
X175850Y245110D01*
X170770D02*
X173310Y247650D01*
X484960Y265000D02*
X487500Y262460D01*
X490040Y265000D01*
X487500Y267540D02*
X490040Y265000D01*
X484960D02*
X487500Y267540D01*
X499960Y265000D02*
X502500Y262460D01*
X505040Y265000D01*
X502500Y267540D02*
X505040Y265000D01*
X499960D02*
X502500Y267540D01*
X537460Y265000D02*
X540000Y262460D01*
X542540Y265000D01*
X540000Y267540D02*
X542540Y265000D01*
X537460D02*
X540000Y267540D01*
X552460Y265000D02*
X555000Y262460D01*
X557540Y265000D01*
X555000Y267540D02*
X557540Y265000D01*
X552460D02*
X555000Y267540D01*
X639960Y272500D02*
X642500Y269960D01*
X645040Y272500D01*
X642500Y275040D02*
X645040Y272500D01*
X639960D02*
X642500Y275040D01*
X639960Y235000D02*
X642500Y232460D01*
X645040Y235000D01*
X642500Y237540D02*
X645040Y235000D01*
X639960D02*
X642500Y237540D01*
X639960Y217500D02*
X642500Y214960D01*
X645040Y217500D01*
X642500Y220040D02*
X645040Y217500D01*
X639960D02*
X642500Y220040D01*
X639960Y200000D02*
X642500Y197460D01*
X645040Y200000D01*
X642500Y202540D02*
X645040Y200000D01*
X639960D02*
X642500Y202540D01*
X639960Y145000D02*
X642500Y142460D01*
X645040Y145000D01*
X642500Y147540D02*
X645040Y145000D01*
X639960D02*
X642500Y147540D01*
X639960Y127500D02*
X642500Y124960D01*
X645040Y127500D01*
X642500Y130040D02*
X645040Y127500D01*
X639960D02*
X642500Y130040D01*
X639960Y92500D02*
X642500Y89960D01*
X645040Y92500D01*
X642500Y95040D02*
X645040Y92500D01*
X639960D02*
X642500Y95040D01*
X639960Y75000D02*
X642500Y72460D01*
X645040Y75000D01*
X642500Y77540D02*
X645040Y75000D01*
X639960D02*
X642500Y77540D01*
X639960Y57500D02*
X642500Y54960D01*
X645040Y57500D01*
X642500Y60040D02*
X645040Y57500D01*
X639960D02*
X642500Y60040D01*
X639960Y37500D02*
X642500Y34960D01*
X645040Y37500D01*
X642500Y40040D02*
X645040Y37500D01*
X639960D02*
X642500Y40040D01*
X639960Y17500D02*
X642500Y14960D01*
X645040Y17500D01*
X642500Y20040D02*
X645040Y17500D01*
X639960D02*
X642500Y20040D01*
X632460Y7500D02*
X635000Y4960D01*
X637540Y7500D01*
X635000Y10040D02*
X637540Y7500D01*
X632460D02*
X635000Y10040D01*
X612460Y7500D02*
X615000Y4960D01*
X617540Y7500D01*
X615000Y10040D02*
X617540Y7500D01*
X612460D02*
X615000Y10040D01*
X594960Y7500D02*
X597500Y4960D01*
X600040Y7500D01*
X597500Y10040D02*
X600040Y7500D01*
X594960D02*
X597500Y10040D01*
X554960Y7500D02*
X557500Y4960D01*
X560040Y7500D01*
X557500Y10040D02*
X560040Y7500D01*
X554960D02*
X557500Y10040D01*
X532460Y7500D02*
X535000Y4960D01*
X537540Y7500D01*
X535000Y10040D02*
X537540Y7500D01*
X532460D02*
X535000Y10040D01*
X502460Y7500D02*
X505000Y4960D01*
X507540Y7500D01*
X505000Y10040D02*
X507540Y7500D01*
X502460D02*
X505000Y10040D01*
X479960Y7500D02*
X482500Y4960D01*
X485040Y7500D01*
X482500Y10040D02*
X485040Y7500D01*
X479960D02*
X482500Y10040D01*
X457460Y7500D02*
X460000Y4960D01*
X462540Y7500D01*
X460000Y10040D02*
X462540Y7500D01*
X457460D02*
X460000Y10040D01*
X434960Y7500D02*
X437500Y4960D01*
X440040Y7500D01*
X437500Y10040D02*
X440040Y7500D01*
X434960D02*
X437500Y10040D01*
X4960Y50000D02*
X7500Y47460D01*
X10040Y50000D01*
X7500Y52540D02*
X10040Y50000D01*
X4960D02*
X7500Y52540D01*
X4960Y7500D02*
X7500Y4960D01*
X10040Y7500D01*
X7500Y10040D02*
X10040Y7500D01*
X4960D02*
X7500Y10040D01*
X205710Y233000D02*
X208250Y230460D01*
X210790Y233000D01*
X208250Y235540D02*
X210790Y233000D01*
X205710D02*
X208250Y235540D01*
X261460Y230750D02*
X264000Y228210D01*
X266540Y230750D01*
X264000Y233290D02*
X266540Y230750D01*
X261460D02*
X264000Y233290D01*
X249960Y230750D02*
X252500Y228210D01*
X255040Y230750D01*
X252500Y233290D02*
X255040Y230750D01*
X249960D02*
X252500Y233290D01*
X238960Y230750D02*
X241500Y228210D01*
X244040Y230750D01*
X241500Y233290D02*
X244040Y230750D01*
X238960D02*
X241500Y233290D01*
X230960Y230750D02*
X233500Y228210D01*
X236040Y230750D01*
X233500Y233290D02*
X236040Y230750D01*
X230960D02*
X233500Y233290D01*
X505230Y115500D02*
X507770Y112960D01*
X510310Y115500D01*
X507770Y118040D02*
X510310Y115500D01*
X505230D02*
X507770Y118040D01*
X579960Y120000D02*
X582500Y117460D01*
X585040Y120000D01*
X582500Y122540D02*
X585040Y120000D01*
X579960D02*
X582500Y122540D01*
X235012Y155307D02*
X237552Y152767D01*
X240092Y155307D01*
X237552Y157847D02*
X240092Y155307D01*
X235012D02*
X237552Y157847D01*
X256960Y157000D02*
X259500Y154460D01*
X262040Y157000D01*
X259500Y159540D02*
X262040Y157000D01*
X256960D02*
X259500Y159540D01*
X358960Y53750D02*
X361500Y51210D01*
X364040Y53750D01*
X361500Y56290D02*
X364040Y53750D01*
X358960D02*
X361500Y56290D01*
X312960Y54750D02*
X315500Y52210D01*
X318040Y54750D01*
X315500Y57290D02*
X318040Y54750D01*
X312960D02*
X315500Y57290D01*
X133058Y177957D02*
X135598Y175417D01*
X138138Y177957D01*
X135598Y180497D02*
X138138Y177957D01*
X133058D02*
X135598Y180497D01*
X132950Y170958D02*
X135490Y168418D01*
X138030Y170958D01*
X135490Y173498D02*
X138030Y170958D01*
X132950D02*
X135490Y173498D01*
X106739Y167598D02*
X109279Y165058D01*
X111819Y167598D01*
X109279Y170138D02*
X111819Y167598D01*
X106739D02*
X109279Y170138D01*
X99752Y167172D02*
X102292Y164632D01*
X104832Y167172D01*
X102292Y169712D02*
X104832Y167172D01*
X99752D02*
X102292Y169712D01*
X94435Y162619D02*
X96975Y160079D01*
X99515Y162619D01*
X96975Y165159D02*
X99515Y162619D01*
X94435D02*
X96975Y165159D01*
X91697Y156177D02*
X94237Y153637D01*
X96777Y156177D01*
X94237Y158717D02*
X96777Y156177D01*
X91697D02*
X94237Y158717D01*
X91362Y149185D02*
X93902Y146645D01*
X96442Y149185D01*
X93902Y151725D02*
X96442Y149185D01*
X91362D02*
X93902Y151725D01*
X91960Y134250D02*
X94500Y131710D01*
X97040Y134250D01*
X94500Y136790D02*
X97040Y134250D01*
X91960D02*
X94500Y136790D01*
X91960Y125250D02*
X94500Y122710D01*
X97040Y125250D01*
X94500Y127790D02*
X97040Y125250D01*
X91960D02*
X94500Y127790D01*
X75112Y132455D02*
X77652Y129915D01*
X80192Y132455D01*
X77652Y134995D02*
X80192Y132455D01*
X75112D02*
X77652Y134995D01*
X75558Y139441D02*
X78098Y136901D01*
X80638Y139441D01*
X78098Y141981D02*
X80638Y139441D01*
X75558D02*
X78098Y141981D01*
X75558Y146441D02*
X78098Y143901D01*
X80638Y146441D01*
X78098Y148981D02*
X80638Y146441D01*
X75558D02*
X78098Y148981D01*
X75565Y153441D02*
X78105Y150901D01*
X80645Y153441D01*
X78105Y155981D02*
X80645Y153441D01*
X75565D02*
X78105Y155981D01*
X76504Y160378D02*
X79044Y157838D01*
X81584Y160378D01*
X79044Y162918D02*
X81584Y160378D01*
X76504D02*
X79044Y162918D01*
X78782Y166996D02*
X81322Y164456D01*
X83862Y166996D01*
X81322Y169536D02*
X83862Y166996D01*
X78782D02*
X81322Y169536D01*
X82426Y172973D02*
X84966Y170433D01*
X87506Y172973D01*
X84966Y175513D02*
X87506Y172973D01*
X82426D02*
X84966Y175513D01*
X87277Y178020D02*
X89817Y175480D01*
X92357Y178020D01*
X89817Y180560D02*
X92357Y178020D01*
X87277D02*
X89817Y180560D01*
X93269Y181638D02*
X95809Y179098D01*
X98349Y181638D01*
X95809Y184178D02*
X98349Y181638D01*
X93269D02*
X95809Y184178D01*
X100078Y183264D02*
X102618Y180724D01*
X105158Y183264D01*
X102618Y185804D02*
X105158Y183264D01*
X100078D02*
X102618Y185804D01*
X107076Y183402D02*
X109616Y180862D01*
X112156Y183402D01*
X109616Y185942D02*
X112156Y183402D01*
X107076D02*
X109616Y185942D01*
X92058Y101256D02*
X94598Y98716D01*
X97138Y101256D01*
X94598Y103796D02*
X97138Y101256D01*
X92058D02*
X94598Y103796D01*
X90313Y94477D02*
X92853Y91937D01*
X95393Y94477D01*
X92853Y97017D02*
X95393Y94477D01*
X90313D02*
X92853Y97017D01*
X76542Y94348D02*
X79082Y91808D01*
X81622Y94348D01*
X79082Y96888D02*
X81622Y94348D01*
X76542D02*
X79082Y96888D01*
X69542Y94348D02*
X72082Y91808D01*
X74622Y94348D01*
X72082Y96888D02*
X74622Y94348D01*
X69542D02*
X72082Y96888D01*
X63137Y91525D02*
X65677Y88985D01*
X68217Y91525D01*
X65677Y94065D02*
X68217Y91525D01*
X63137D02*
X65677Y94065D01*
X56191Y90652D02*
X58731Y88112D01*
X61271Y90652D01*
X58731Y93192D02*
X61271Y90652D01*
X56191D02*
X58731Y93192D01*
X49191Y90652D02*
X51731Y88112D01*
X54271Y90652D01*
X51731Y93192D02*
X54271Y90652D01*
X49191D02*
X51731Y93192D01*
X42191Y90652D02*
X44731Y88112D01*
X47271Y90652D01*
X44731Y93192D02*
X47271Y90652D01*
X42191D02*
X44731Y93192D01*
X35191Y90652D02*
X37731Y88112D01*
X40271Y90652D01*
X37731Y93192D02*
X40271Y90652D01*
X35191D02*
X37731Y93192D01*
X33990Y114348D02*
X36530Y111808D01*
X39070Y114348D01*
X36530Y116888D02*
X39070Y114348D01*
X33990D02*
X36530Y116888D01*
X40990Y114348D02*
X43530Y111808D01*
X46070Y114348D01*
X43530Y116888D02*
X46070Y114348D01*
X40990D02*
X43530Y116888D01*
X47990Y114348D02*
X50530Y111808D01*
X53070Y114348D01*
X50530Y116888D02*
X53070Y114348D01*
X47990D02*
X50530Y116888D01*
X54990Y114348D02*
X57530Y111808D01*
X60070Y114348D01*
X57530Y116888D02*
X60070Y114348D01*
X54990D02*
X57530Y116888D01*
X61710Y114250D02*
X64250Y111710D01*
X66790Y114250D01*
X64250Y116790D02*
X66790Y114250D01*
X61710D02*
X64250Y116790D01*
X67801Y110152D02*
X70341Y107612D01*
X72881Y110152D01*
X70341Y112692D02*
X72881Y110152D01*
X67801D02*
X70341Y112692D01*
X74801Y110152D02*
X77341Y107612D01*
X79881Y110152D01*
X77341Y112692D02*
X79881Y110152D01*
X74801D02*
X77341Y112692D01*
X75558Y117111D02*
X78098Y114571D01*
X80638Y117111D01*
X78098Y119651D02*
X80638Y117111D01*
X75558D02*
X78098Y119651D01*
X75112Y124096D02*
X77652Y121557D01*
X80192Y124096D01*
X77652Y126636D02*
X80192Y124096D01*
X75112D02*
X77652Y126636D01*
X65460Y234000D02*
X68000Y231460D01*
X70540Y234000D01*
X68000Y236540D02*
X70540Y234000D01*
X65460D02*
X68000Y236540D01*
X68710Y171500D02*
X71250Y168960D01*
X73790Y171500D01*
X71250Y174040D02*
X73790Y171500D01*
X68710D02*
X71250Y174040D01*
X65460Y186000D02*
X68000Y183460D01*
X70540Y186000D01*
X68000Y188540D02*
X70540Y186000D01*
X65460D02*
X68000Y188540D01*
X73460Y249000D02*
X76000Y246460D01*
X78540Y249000D01*
X76000Y251540D02*
X78540Y249000D01*
X73460D02*
X76000Y251540D01*
X65710Y206250D02*
X68250Y203710D01*
X70790Y206250D01*
X68250Y208790D02*
X70790Y206250D01*
X65710D02*
X68250Y208790D01*
X65710Y213750D02*
X68250Y211210D01*
X70790Y213750D01*
X68250Y216290D02*
X70790Y213750D01*
X65710D02*
X68250Y216290D01*
X258710Y166250D02*
X261250Y163710D01*
X263790Y166250D01*
X261250Y168790D02*
X263790Y166250D01*
X258710D02*
X261250Y168790D01*
X258710Y173750D02*
X261250Y171210D01*
X263790Y173750D01*
X261250Y176290D02*
X263790Y173750D01*
X258710D02*
X261250Y176290D01*
X612460Y252460D02*
X615000Y253730D01*
X617540Y252460D01*
X616270Y255000D02*
X617540Y252460D01*
X616270Y255000D02*
X617540Y257540D01*
X615000Y256270D02*
X617540Y257540D01*
X612460D02*
X615000Y256270D01*
X612460Y257540D02*
X613730Y255000D01*
X612460Y252460D02*
X613730Y255000D01*
X32460Y22460D02*
X35000Y23730D01*
X37540Y22460D01*
X36270Y25000D02*
X37540Y22460D01*
X36270Y25000D02*
X37540Y27540D01*
X35000Y26270D02*
X37540Y27540D01*
X32460D02*
X35000Y26270D01*
X32460Y27540D02*
X33730Y25000D01*
X32460Y22460D02*
X33730Y25000D01*
X570560Y15060D02*
X575640D01*
Y20140D01*
X570560D02*
X575640D01*
X570560Y15060D02*
Y20140D01*
X595960Y65860D02*
X601040D01*
Y70940D01*
X595960D02*
X601040D01*
X595960Y65860D02*
Y70940D01*
X519760Y40460D02*
Y41730D01*
X521030Y43000D01*
X519760Y44270D02*
X521030Y43000D01*
X519760Y44270D02*
Y45540D01*
X521030D01*
X522300Y44270D01*
X523570Y45540D01*
X524840D01*
Y44270D02*
Y45540D01*
X523570Y43000D02*
X524840Y44270D01*
X523570Y43000D02*
X524840Y41730D01*
Y40460D02*
Y41730D01*
X523570Y40460D02*
X524840D01*
X522300Y41730D02*
X523570Y40460D01*
X521030D02*
X522300Y41730D01*
X519760Y40460D02*
X521030D01*
X545160D02*
Y41730D01*
X546430Y43000D01*
X545160Y44270D02*
X546430Y43000D01*
X545160Y44270D02*
Y45540D01*
X546430D01*
X547700Y44270D01*
X548970Y45540D01*
X550240D01*
Y44270D02*
Y45540D01*
X548970Y43000D02*
X550240Y44270D01*
X548970Y43000D02*
X550240Y41730D01*
Y40460D02*
Y41730D01*
X548970Y40460D02*
X550240D01*
X547700Y41730D02*
X548970Y40460D01*
X546430D02*
X547700Y41730D01*
X545160Y40460D02*
X546430D01*
X570560D02*
Y41730D01*
X571830Y43000D01*
X570560Y44270D02*
X571830Y43000D01*
X570560Y44270D02*
Y45540D01*
X571830D01*
X573100Y44270D01*
X574370Y45540D01*
X575640D01*
Y44270D02*
Y45540D01*
X574370Y43000D02*
X575640Y44270D01*
X574370Y43000D02*
X575640Y41730D01*
Y40460D02*
Y41730D01*
X574370Y40460D02*
X575640D01*
X573100Y41730D02*
X574370Y40460D01*
X571830D02*
X573100Y41730D01*
X570560Y40460D02*
X571830D01*
X595960D02*
Y41730D01*
X597230Y43000D01*
X595960Y44270D02*
X597230Y43000D01*
X595960Y44270D02*
Y45540D01*
X597230D01*
X598500Y44270D01*
X599770Y45540D01*
X601040D01*
Y44270D02*
Y45540D01*
X599770Y43000D02*
X601040Y44270D01*
X599770Y43000D02*
X601040Y41730D01*
Y40460D02*
Y41730D01*
X599770Y40460D02*
X601040D01*
X598500Y41730D02*
X599770Y40460D01*
X597230D02*
X598500Y41730D01*
X595960Y40460D02*
X597230D01*
X519760Y15060D02*
X524840D01*
Y20140D01*
X519760D02*
X524840D01*
X519760Y15060D02*
Y20140D01*
X545160Y65860D02*
X550240D01*
Y70940D01*
X545160D02*
X550240D01*
X545160Y65860D02*
Y70940D01*
X494360Y65860D02*
X499440D01*
Y70940D01*
X494360D02*
X499440D01*
X494360Y65860D02*
Y70940D01*
Y40460D02*
Y41730D01*
X495630Y43000D01*
X494360Y44270D02*
X495630Y43000D01*
X494360Y44270D02*
Y45540D01*
X495630D01*
X496900Y44270D01*
X498170Y45540D01*
X499440D01*
Y44270D02*
Y45540D01*
X498170Y43000D02*
X499440Y44270D01*
X498170Y43000D02*
X499440Y41730D01*
Y40460D02*
Y41730D01*
X498170Y40460D02*
X499440D01*
X496900Y41730D02*
X498170Y40460D01*
X495630D02*
X496900Y41730D01*
X494360Y40460D02*
X495630D01*
X452660Y159960D02*
X457740D01*
Y165040D01*
X452660D02*
X457740D01*
X452660Y159960D02*
Y165040D01*
X427260Y159960D02*
X432340D01*
Y165040D01*
X427260D02*
X432340D01*
X427260Y159960D02*
Y165040D01*
X598460Y156230D02*
X599730D01*
X598460D02*
Y158770D01*
X599730D01*
Y160040D01*
X602270D01*
Y158770D02*
Y160040D01*
Y158770D02*
X603540D01*
Y156230D02*
Y158770D01*
X602270Y156230D02*
X603540D01*
X602270Y154960D02*
Y156230D01*
X599730Y154960D02*
X602270D01*
X599730D02*
Y156230D01*
X598460Y121230D02*
X599730D01*
X598460D02*
Y123770D01*
X599730D01*
Y125040D01*
X602270D01*
Y123770D02*
Y125040D01*
Y123770D02*
X603540D01*
Y121230D02*
Y123770D01*
X602270Y121230D02*
X603540D01*
X602270Y119960D02*
Y121230D01*
X599730Y119960D02*
X602270D01*
X599730D02*
Y121230D01*
X545160Y209060D02*
X550240D01*
Y214140D01*
X545160D02*
X550240D01*
X545160Y209060D02*
Y214140D01*
X570560Y259860D02*
X575640D01*
Y264940D01*
X570560D02*
X575640D01*
X570560Y259860D02*
Y264940D01*
X494360Y234460D02*
Y235730D01*
X495630Y237000D01*
X494360Y238270D02*
X495630Y237000D01*
X494360Y238270D02*
Y239540D01*
X495630D01*
X496900Y238270D01*
X498170Y239540D01*
X499440D01*
Y238270D02*
Y239540D01*
X498170Y237000D02*
X499440Y238270D01*
X498170Y237000D02*
X499440Y235730D01*
Y234460D02*
Y235730D01*
X498170Y234460D02*
X499440D01*
X496900Y235730D02*
X498170Y234460D01*
X495630D02*
X496900Y235730D01*
X494360Y234460D02*
X495630D01*
X519760D02*
Y235730D01*
X521030Y237000D01*
X519760Y238270D02*
X521030Y237000D01*
X519760Y238270D02*
Y239540D01*
X521030D01*
X522300Y238270D01*
X523570Y239540D01*
X524840D01*
Y238270D02*
Y239540D01*
X523570Y237000D02*
X524840Y238270D01*
X523570Y237000D02*
X524840Y235730D01*
Y234460D02*
Y235730D01*
X523570Y234460D02*
X524840D01*
X522300Y235730D02*
X523570Y234460D01*
X521030D02*
X522300Y235730D01*
X519760Y234460D02*
X521030D01*
X545160D02*
Y235730D01*
X546430Y237000D01*
X545160Y238270D02*
X546430Y237000D01*
X545160Y238270D02*
Y239540D01*
X546430D01*
X547700Y238270D01*
X548970Y239540D01*
X550240D01*
Y238270D02*
Y239540D01*
X548970Y237000D02*
X550240Y238270D01*
X548970Y237000D02*
X550240Y235730D01*
Y234460D02*
Y235730D01*
X548970Y234460D02*
X550240D01*
X547700Y235730D02*
X548970Y234460D01*
X546430D02*
X547700Y235730D01*
X545160Y234460D02*
X546430D01*
X570560D02*
Y235730D01*
X571830Y237000D01*
X570560Y238270D02*
X571830Y237000D01*
X570560Y238270D02*
Y239540D01*
X571830D01*
X573100Y238270D01*
X574370Y239540D01*
X575640D01*
Y238270D02*
Y239540D01*
X574370Y237000D02*
X575640Y238270D01*
X574370Y237000D02*
X575640Y235730D01*
Y234460D02*
Y235730D01*
X574370Y234460D02*
X575640D01*
X573100Y235730D02*
X574370Y234460D01*
X571830D02*
X573100Y235730D01*
X570560Y234460D02*
X571830D01*
X494360Y209060D02*
X499440D01*
Y214140D01*
X494360D02*
X499440D01*
X494360Y209060D02*
Y214140D01*
X519760Y259860D02*
X524840D01*
Y264940D01*
X519760D02*
X524840D01*
X519760Y259860D02*
Y264940D01*
X468960Y259860D02*
X474040D01*
Y264940D01*
X468960D02*
X474040D01*
X468960Y259860D02*
Y264940D01*
Y234460D02*
Y235730D01*
X470230Y237000D01*
X468960Y238270D02*
X470230Y237000D01*
X468960Y238270D02*
Y239540D01*
X470230D01*
X471500Y238270D01*
X472770Y239540D01*
X474040D01*
Y238270D02*
Y239540D01*
X472770Y237000D02*
X474040Y238270D01*
X472770Y237000D02*
X474040Y235730D01*
Y234460D02*
Y235730D01*
X472770Y234460D02*
X474040D01*
X471500Y235730D02*
X472770Y234460D01*
X470230D02*
X471500Y235730D01*
X468960Y234460D02*
X470230D01*
X427260Y52460D02*
X432340D01*
Y57540D01*
X427260D02*
X432340D01*
X427260Y52460D02*
Y57540D01*
X452660Y52460D02*
X457740D01*
Y57540D01*
X452660D02*
X457740D01*
X452660Y52460D02*
Y57540D01*
X317660Y222460D02*
X322740D01*
Y227540D01*
X317660D02*
X322740D01*
X317660Y222460D02*
Y227540D01*
X292260Y222460D02*
X297340D01*
Y227540D01*
X292260D02*
X297340D01*
X292260Y222460D02*
Y227540D01*
X377660Y222460D02*
X382740D01*
Y227540D01*
X377660D02*
X382740D01*
X377660Y222460D02*
Y227540D01*
X352260Y222460D02*
X357340D01*
Y227540D01*
X352260D02*
X357340D01*
X352260Y222460D02*
Y227540D01*
X537460Y147500D02*
X540000Y144960D01*
X542540Y147500D01*
X540000Y150040D02*
X542540Y147500D01*
X537460D02*
X540000Y150040D01*
X547460Y147500D02*
X550000Y144960D01*
X552540Y147500D01*
X550000Y150040D02*
X552540Y147500D01*
X547460D02*
X550000Y150040D01*
X547460Y132500D02*
X550000Y129960D01*
X552540Y132500D01*
X550000Y135040D02*
X552540Y132500D01*
X547460D02*
X550000Y135040D01*
X537460Y132500D02*
X540000Y129960D01*
X542540Y132500D01*
X540000Y135040D02*
X542540Y132500D01*
X537460D02*
X540000Y135040D01*
X542460Y140000D02*
X545000Y137460D01*
X547540Y140000D01*
X545000Y142540D02*
X547540Y140000D01*
X542460D02*
X545000Y142540D01*
X407306Y185224D02*
X410354D01*
Y188272D01*
X407306D02*
X410354D01*
X407306Y185224D02*
Y188272D01*
X406290Y184208D02*
X411370D01*
Y189288D01*
X406290D02*
X411370D01*
X406290Y184208D02*
Y189288D01*
X407306Y51724D02*
X410354D01*
Y54772D01*
X407306D02*
X410354D01*
X407306Y51724D02*
Y54772D01*
X406290Y50708D02*
X411370D01*
Y55788D01*
X406290D02*
X411370D01*
X406290Y50708D02*
Y55788D01*
X344806Y185224D02*
X347854D01*
Y188272D01*
X344806D02*
X347854D01*
X344806Y185224D02*
Y188272D01*
X343790Y184208D02*
X348870D01*
Y189288D01*
X343790D02*
X348870D01*
X343790Y184208D02*
Y189288D01*
X344806Y51724D02*
X347854D01*
Y54772D01*
X344806D02*
X347854D01*
X344806Y51724D02*
Y54772D01*
X343790Y50708D02*
X348870D01*
Y55788D01*
X343790D02*
X348870D01*
X343790Y50708D02*
Y55788D01*
X10500Y250660D02*
X13040Y255740D01*
X7960D02*
X13040D01*
X7960D02*
X10500Y250660D01*
Y164260D02*
X13040Y169340D01*
X7960D02*
X13040D01*
X7960D02*
X10500Y164260D01*
X46030Y179830D02*
X47300Y178560D01*
X44760Y179830D02*
X46030D01*
X44760D02*
X46030Y181100D01*
X44760Y182370D02*
X46030Y181100D01*
X44760Y182370D02*
X46030D01*
X47300Y183640D01*
X48570Y182370D01*
X49840D01*
X48570Y181100D02*
X49840Y182370D01*
X48570Y181100D02*
X49840Y179830D01*
X48570D02*
X49840D01*
X47300Y178560D02*
X48570Y179830D01*
X46030Y237630D02*
X47300Y236360D01*
X44760Y237630D02*
X46030D01*
X44760D02*
X46030Y238900D01*
X44760Y240170D02*
X46030Y238900D01*
X44760Y240170D02*
X46030D01*
X47300Y241440D01*
X48570Y240170D01*
X49840D01*
X48570Y238900D02*
X49840Y240170D01*
X48570Y238900D02*
X49840Y237630D01*
X48570D02*
X49840D01*
X47300Y236360D02*
X48570Y237630D01*
D72*
X895602Y763702D02*
Y745420D01*
Y754561D01*
X907790D01*
Y763702D01*
Y745420D01*
X916931D02*
X923025D01*
X926072Y748467D01*
Y754561D01*
X923025Y757608D01*
X916931D01*
X913884Y754561D01*
Y748467D01*
X916931Y745420D01*
X932166D02*
X938260D01*
X935213D01*
Y763702D01*
X932166D01*
X956542Y745420D02*
X950448D01*
X947401Y748467D01*
Y754561D01*
X950448Y757608D01*
X956542D01*
X959589Y754561D01*
Y751514D01*
X947401D01*
X983965Y763702D02*
Y745420D01*
X996153D01*
X1011388D02*
X1005294D01*
X1002247Y748467D01*
Y754561D01*
X1005294Y757608D01*
X1011388D01*
X1014435Y754561D01*
Y751514D01*
X1002247D01*
X1020529Y745420D02*
Y757608D01*
X1029670D01*
X1032717Y754561D01*
Y745420D01*
X1044905Y739326D02*
X1047952D01*
X1050999Y742373D01*
Y757608D01*
X1041858D01*
X1038811Y754561D01*
Y748467D01*
X1041858Y745420D01*
X1050999D01*
X1060140Y760655D02*
Y757608D01*
X1057093D01*
X1063187D01*
X1060140D01*
Y748467D01*
X1063187Y745420D01*
X1072328Y763702D02*
Y745420D01*
Y754561D01*
X1075375Y757608D01*
X1081469D01*
X1084517Y754561D01*
Y745420D01*
X709216Y763702D02*
Y745420D01*
Y754561D01*
X721404D01*
Y763702D01*
Y745420D01*
X730545D02*
X736639D01*
X739686Y748467D01*
Y754561D01*
X736639Y757608D01*
X730545D01*
X727498Y754561D01*
Y748467D01*
X730545Y745420D01*
X745780D02*
X751874D01*
X748827D01*
Y763702D01*
X745780D01*
X770156Y745420D02*
X764062D01*
X761015Y748467D01*
Y754561D01*
X764062Y757608D01*
X770156D01*
X773203Y754561D01*
Y751514D01*
X761015D01*
X797579Y763702D02*
X809767D01*
X803673D01*
Y745420D01*
X815861Y757608D02*
Y748467D01*
X818908Y745420D01*
X828049D01*
Y742373D01*
X825002Y739326D01*
X821955D01*
X828049Y745420D02*
Y757608D01*
X834144Y739326D02*
Y757608D01*
X843285D01*
X846331Y754561D01*
Y748467D01*
X843285Y745420D01*
X834144D01*
X861567D02*
X855473D01*
X852426Y748467D01*
Y754561D01*
X855473Y757608D01*
X861567D01*
X864614Y754561D01*
Y751514D01*
X852426D01*
X580723Y745420D02*
Y763702D01*
X589865D01*
X592911Y760655D01*
Y754561D01*
X589865Y751514D01*
X580723D01*
X599006Y745420D02*
X605100D01*
X602052D01*
Y763702D01*
X599006D01*
X617288Y757608D02*
X623382D01*
X626429Y754561D01*
Y745420D01*
X617288D01*
X614241Y748467D01*
X617288Y751514D01*
X626429D01*
X635570Y760655D02*
Y757608D01*
X632523D01*
X638617D01*
X635570D01*
Y748467D01*
X638617Y745420D01*
X656899D02*
X650805D01*
X647758Y748467D01*
Y754561D01*
X650805Y757608D01*
X656899D01*
X659946Y754561D01*
Y751514D01*
X647758D01*
X678228Y763702D02*
Y745420D01*
X669087D01*
X666040Y748467D01*
Y754561D01*
X669087Y757608D01*
X678228D01*
X286170Y763702D02*
Y745420D01*
Y754561D01*
X298358D01*
Y763702D01*
Y745420D01*
X307499D02*
X313593D01*
X316640Y748467D01*
Y754561D01*
X313593Y757608D01*
X307499D01*
X304452Y754561D01*
Y748467D01*
X307499Y745420D01*
X322734D02*
X328828D01*
X325781D01*
Y763702D01*
X322734D01*
X347110Y745420D02*
X341016D01*
X337969Y748467D01*
Y754561D01*
X341016Y757608D01*
X347110D01*
X350157Y754561D01*
Y751514D01*
X337969D01*
X386721Y760655D02*
X383674Y763702D01*
X377580D01*
X374533Y760655D01*
Y757608D01*
X377580Y754561D01*
X383674D01*
X386721Y751514D01*
Y748467D01*
X383674Y745420D01*
X377580D01*
X374533Y748467D01*
X392815Y745420D02*
X398909D01*
X395862D01*
Y757608D01*
X392815D01*
X408050D02*
X420238D01*
X408050Y745420D01*
X420238D01*
X435473D02*
X429379D01*
X426332Y748467D01*
Y754561D01*
X429379Y757608D01*
X435473D01*
X438520Y754561D01*
Y751514D01*
X426332D01*
X145998Y760655D02*
X142951Y763702D01*
X136857D01*
X133810Y760655D01*
Y748467D01*
X136857Y745420D01*
X142951D01*
X145998Y748467D01*
X155139Y745420D02*
X161233D01*
X164280Y748467D01*
Y754561D01*
X161233Y757608D01*
X155139D01*
X152092Y754561D01*
Y748467D01*
X155139Y745420D01*
X170374Y757608D02*
Y748467D01*
X173421Y745420D01*
X182562D01*
Y757608D01*
X188656Y745420D02*
Y757608D01*
X197797D01*
X200844Y754561D01*
Y745420D01*
X209985Y760655D02*
Y757608D01*
X206938D01*
X213032D01*
X209985D01*
Y748467D01*
X213032Y745420D01*
X17506Y760655D02*
X14459Y763702D01*
X8365D01*
X5318Y760655D01*
Y757608D01*
X8365Y754561D01*
X14459D01*
X17506Y751514D01*
Y748467D01*
X14459Y745420D01*
X8365D01*
X5318Y748467D01*
X23600Y757608D02*
Y748467D01*
X26647Y745420D01*
X35788D01*
Y742373D01*
X32741Y739326D01*
X29694D01*
X35788Y745420D02*
Y757608D01*
X41882Y745420D02*
Y757608D01*
X44929D01*
X47976Y754561D01*
Y745420D01*
Y754561D01*
X51023Y757608D01*
X54070Y754561D01*
Y745420D01*
X60164Y763702D02*
Y745420D01*
X69305D01*
X72352Y748467D01*
Y751514D01*
Y754561D01*
X69305Y757608D01*
X60164D01*
X81493Y745420D02*
X87587D01*
X90634Y748467D01*
Y754561D01*
X87587Y757608D01*
X81493D01*
X78446Y754561D01*
Y748467D01*
X81493Y745420D01*
X96728D02*
X102822D01*
X99775D01*
Y763702D01*
X96728D01*
D73*
X267621Y317438D02*
Y302203D01*
Y309821D01*
X277777D01*
Y317438D01*
Y302203D01*
X285395D02*
X290473D01*
X293013Y304742D01*
Y309821D01*
X290473Y312360D01*
X285395D01*
X282856Y309821D01*
Y304742D01*
X285395Y302203D01*
X298091D02*
X303169D01*
X300630D01*
Y317438D01*
X298091D01*
X318404Y302203D02*
X313326D01*
X310787Y304742D01*
Y309821D01*
X313326Y312360D01*
X318404D01*
X320943Y309821D01*
Y307281D01*
X310787D01*
X341257Y317438D02*
Y302203D01*
X351414D01*
X364109D02*
X359031D01*
X356492Y304742D01*
Y309821D01*
X359031Y312360D01*
X364109D01*
X366649Y309821D01*
Y307281D01*
X356492D01*
X371727Y302203D02*
Y312360D01*
X379344D01*
X381884Y309821D01*
Y302203D01*
X392040Y297125D02*
X394580D01*
X397119Y299664D01*
Y312360D01*
X389501D01*
X386962Y309821D01*
Y304742D01*
X389501Y302203D01*
X397119D01*
X404736Y314899D02*
Y312360D01*
X402197D01*
X407276D01*
X404736D01*
Y304742D01*
X407276Y302203D01*
X414893Y317438D02*
Y302203D01*
Y309821D01*
X417432Y312360D01*
X422511D01*
X425050Y309821D01*
Y302203D01*
X267621Y327597D02*
Y342832D01*
X275238D01*
X277777Y340293D01*
Y335214D01*
X275238Y332675D01*
X267621D01*
X272699D02*
X277777Y327597D01*
X285395D02*
X290473D01*
X293013Y330136D01*
Y335214D01*
X290473Y337753D01*
X285395D01*
X282856Y335214D01*
Y330136D01*
X285395Y327597D01*
X298091Y337753D02*
Y330136D01*
X300630Y327597D01*
X308248D01*
Y337753D01*
X315865Y340293D02*
Y337753D01*
X313326D01*
X318404D01*
X315865D01*
Y330136D01*
X318404Y327597D01*
X333639D02*
X328561D01*
X326022Y330136D01*
Y335214D01*
X328561Y337753D01*
X333639D01*
X336179Y335214D01*
Y332675D01*
X326022D01*
X351414Y342832D02*
Y327597D01*
X343796D01*
X341257Y330136D01*
Y335214D01*
X343796Y337753D01*
X351414D01*
X371727Y327597D02*
Y342832D01*
X379344D01*
X381884Y340293D01*
Y335214D01*
X379344Y332675D01*
X371727D01*
X389501Y337753D02*
X394580D01*
X397119Y335214D01*
Y327597D01*
X389501D01*
X386962Y330136D01*
X389501Y332675D01*
X397119D01*
X404736Y340293D02*
Y337753D01*
X402197D01*
X407276D01*
X404736D01*
Y330136D01*
X407276Y327597D01*
X414893Y342832D02*
Y327597D01*
Y335214D01*
X417432Y337753D01*
X422511D01*
X425050Y335214D01*
Y327597D01*
X445363Y342832D02*
Y327597D01*
X455520D01*
X468216D02*
X463137D01*
X460598Y330136D01*
Y335214D01*
X463137Y337753D01*
X468216D01*
X470755Y335214D01*
Y332675D01*
X460598D01*
X475833Y327597D02*
Y337753D01*
X483451D01*
X485990Y335214D01*
Y327597D01*
X496147Y322518D02*
X498686D01*
X501225Y325057D01*
Y337753D01*
X493608D01*
X491068Y335214D01*
Y330136D01*
X493608Y327597D01*
X501225D01*
X508843Y340293D02*
Y337753D01*
X506303D01*
X511382D01*
X508843D01*
Y330136D01*
X511382Y327597D01*
X518999Y342832D02*
Y327597D01*
Y335214D01*
X521539Y337753D01*
X526617D01*
X529156Y335214D01*
Y327597D01*
X15474Y340293D02*
X12935Y342832D01*
X7857D01*
X5318Y340293D01*
Y337753D01*
X7857Y335214D01*
X12935D01*
X15474Y332675D01*
Y330136D01*
X12935Y327597D01*
X7857D01*
X5318Y330136D01*
X20553Y327597D02*
X25631D01*
X23092D01*
Y342832D01*
X20553D01*
X35788Y327597D02*
X40866D01*
X43405Y330136D01*
Y335214D01*
X40866Y337753D01*
X35788D01*
X33249Y335214D01*
Y330136D01*
X35788Y327597D01*
X51023Y340293D02*
Y337753D01*
X48484D01*
X53562D01*
X51023D01*
Y330136D01*
X53562Y327597D01*
X86571Y342832D02*
Y327597D01*
X78954D01*
X76415Y330136D01*
Y335214D01*
X78954Y337753D01*
X86571D01*
X99267Y327597D02*
X94189D01*
X91650Y330136D01*
Y335214D01*
X94189Y337753D01*
X99267D01*
X101806Y335214D01*
Y332675D01*
X91650D01*
X109424Y327597D02*
Y340293D01*
Y335214D01*
X106885D01*
X111963D01*
X109424D01*
Y340293D01*
X111963Y342832D01*
X119581Y327597D02*
X124659D01*
X122120D01*
Y337753D01*
X119581D01*
X132276Y327597D02*
Y337753D01*
X139894D01*
X142433Y335214D01*
Y327597D01*
X147512D02*
X152590D01*
X150051D01*
Y337753D01*
X147512D01*
X162747Y340293D02*
Y337753D01*
X160207D01*
X165286D01*
X162747D01*
Y330136D01*
X165286Y327597D01*
X172903D02*
X177982D01*
X175443D01*
Y337753D01*
X172903D01*
X188138Y327597D02*
X193217D01*
X195756Y330136D01*
Y335214D01*
X193217Y337753D01*
X188138D01*
X185599Y335214D01*
Y330136D01*
X188138Y327597D01*
X200834D02*
Y337753D01*
X208452D01*
X210991Y335214D01*
Y327597D01*
X216069D02*
X223687D01*
X226226Y330136D01*
X223687Y332675D01*
X218608D01*
X216069Y335214D01*
X218608Y337753D01*
X226226D01*
X246539D02*
X249079D01*
Y335214D01*
X246539D01*
Y337753D01*
Y330136D02*
X249079D01*
Y327597D01*
X246539D01*
Y330136D01*
M02*
