G04*
G04 #@! TF.GenerationSoftware,Altium Limited,Altium Designer,23.10.1 (27)*
G04*
G04 Layer_Physical_Order=2*
G04 Layer_Color=8847372*
%FSLAX44Y44*%
%MOMM*%
G71*
G04*
G04 #@! TF.SameCoordinates,12E47488-CEE1-414F-AB97-9C1FAA11A261*
G04*
G04*
G04 #@! TF.FilePolarity,Positive*
G04*
G01*
G75*
%ADD10C,0.2540*%
%ADD11C,0.2000*%
%ADD15C,0.3810*%
%ADD41O,2.1000X1.0500*%
%ADD42O,1.8000X1.0000*%
%ADD45R,1.6000X1.7000*%
%ADD47C,1.6000*%
%ADD48R,1.6000X1.6000*%
%ADD49R,1.8000X1.8000*%
%ADD51C,5.0000*%
%ADD54C,0.5000*%
%ADD57C,0.6000*%
G36*
X55559Y276327D02*
X49416Y270184D01*
X48532Y268861D01*
X48222Y267300D01*
X48222Y267300D01*
Y260008D01*
X47050D01*
X45288Y259776D01*
X43646Y259096D01*
X42236Y258014D01*
X41671Y257278D01*
X19564D01*
X19136Y257836D01*
X17778Y258878D01*
X16197Y259533D01*
X14500Y259756D01*
X6500D01*
X4803Y259533D01*
X3770Y259105D01*
X2500Y259815D01*
Y277500D01*
X55073D01*
X55559Y276327D01*
D02*
G37*
G36*
X647500Y2500D02*
X51171D01*
X50778Y3708D01*
X52264Y4787D01*
X55213Y7736D01*
X57665Y11111D01*
X59559Y14828D01*
X60848Y18795D01*
X61500Y22914D01*
Y27086D01*
X60848Y31205D01*
X59559Y35173D01*
X57665Y38889D01*
X55213Y42264D01*
X52264Y45213D01*
X48889Y47665D01*
X45173Y49559D01*
X41205Y50848D01*
X37086Y51500D01*
X32914D01*
X28795Y50848D01*
X24827Y49559D01*
X21111Y47665D01*
X17736Y45213D01*
X14787Y42264D01*
X12335Y38889D01*
X10441Y35173D01*
X9153Y31205D01*
X8500Y27086D01*
Y22914D01*
X9153Y18795D01*
X10441Y14828D01*
X12335Y11111D01*
X14787Y7736D01*
X17736Y4787D01*
X19222Y3708D01*
X18829Y2500D01*
X2500D01*
Y76126D01*
X30000D01*
X31148Y76602D01*
X31624Y77750D01*
Y127250D01*
X31148Y128398D01*
X30000Y128874D01*
X2500D01*
Y160185D01*
X3770Y160895D01*
X4803Y160467D01*
X6500Y160244D01*
X14500D01*
X16197Y160467D01*
X17778Y161122D01*
X19136Y162164D01*
X19621Y162797D01*
X41614D01*
X42236Y161986D01*
X43646Y160904D01*
X45288Y160224D01*
X47050Y159992D01*
X57550D01*
X59312Y160224D01*
X60954Y160904D01*
X62364Y161986D01*
X63446Y163396D01*
X64126Y165038D01*
X64358Y166800D01*
X64126Y168562D01*
X63446Y170204D01*
X62364Y171614D01*
X60954Y172696D01*
X59312Y173376D01*
X57550Y173608D01*
X47050D01*
X45288Y173376D01*
X43646Y172696D01*
X42236Y171614D01*
X41729Y170953D01*
X19506D01*
X19136Y171436D01*
X17778Y172478D01*
X16197Y173133D01*
X14578Y173346D01*
Y246654D01*
X16197Y246867D01*
X17778Y247522D01*
X19136Y248564D01*
X19564Y249122D01*
X41671D01*
X42236Y248386D01*
X43646Y247304D01*
X45288Y246624D01*
X47050Y246392D01*
X57550D01*
X59312Y246624D01*
X60954Y247304D01*
X62364Y248386D01*
X63446Y249796D01*
X64126Y251438D01*
X64358Y253200D01*
X64126Y254962D01*
X63446Y256604D01*
X62364Y258014D01*
X60954Y259096D01*
X59312Y259776D01*
X57550Y260008D01*
X56378D01*
Y265611D01*
X61939Y271172D01*
X197408D01*
X197660Y269902D01*
X197451Y269815D01*
X196185Y268549D01*
X195500Y266895D01*
Y265105D01*
X196185Y263451D01*
X197451Y262185D01*
X199105Y261500D01*
X200895D01*
X202549Y262185D01*
X203815Y263451D01*
X204500Y265105D01*
Y266895D01*
X203815Y268549D01*
X202549Y269815D01*
X202340Y269902D01*
X202592Y271172D01*
X516153D01*
X516276Y270714D01*
X516367Y269902D01*
X514698Y268233D01*
X513447Y266067D01*
X512800Y263651D01*
Y261149D01*
X513447Y258733D01*
X514698Y256567D01*
X516467Y254798D01*
X518633Y253547D01*
X521049Y252900D01*
X523551D01*
X525967Y253547D01*
X528133Y254798D01*
X529902Y256567D01*
X531153Y258733D01*
X531800Y261149D01*
Y263651D01*
X531153Y266067D01*
X529902Y268233D01*
X528233Y269902D01*
X528324Y270714D01*
X528447Y271172D01*
X592424D01*
X593075Y269908D01*
X592335Y268889D01*
X590442Y265173D01*
X589152Y261205D01*
X588500Y257086D01*
Y252914D01*
X589152Y248795D01*
X590442Y244827D01*
X592335Y241111D01*
X594787Y237736D01*
X597736Y234787D01*
X601111Y232335D01*
X604827Y230441D01*
X608795Y229153D01*
X612914Y228500D01*
X617086D01*
X621205Y229153D01*
X625173Y230441D01*
X628889Y232335D01*
X632264Y234787D01*
X635213Y237736D01*
X637665Y241111D01*
X639558Y244827D01*
X640847Y248795D01*
X641500Y252914D01*
Y257086D01*
X640847Y261205D01*
X639558Y265173D01*
X637665Y268889D01*
X635213Y272264D01*
X632264Y275213D01*
X630778Y276292D01*
X631171Y277500D01*
X647500D01*
Y2500D01*
D02*
G37*
G36*
X4803Y246867D02*
X6422Y246654D01*
Y173346D01*
X4803Y173133D01*
X3770Y172705D01*
X2500Y173415D01*
Y246585D01*
X3770Y247295D01*
X4803Y246867D01*
D02*
G37*
%LPC*%
G36*
X420895Y269750D02*
X419105D01*
X417451Y269065D01*
X416185Y267799D01*
X415500Y266145D01*
Y264355D01*
X416185Y262701D01*
X417451Y261435D01*
X419105Y260750D01*
X420895D01*
X422549Y261435D01*
X423815Y262701D01*
X424500Y264355D01*
Y266145D01*
X423815Y267799D01*
X422549Y269065D01*
X420895Y269750D01*
D02*
G37*
G36*
X155895Y268000D02*
X154105D01*
X152451Y267315D01*
X151185Y266049D01*
X150500Y264395D01*
Y262605D01*
X151185Y260951D01*
X152451Y259685D01*
X154105Y259000D01*
X155895D01*
X157549Y259685D01*
X158815Y260951D01*
X159500Y262605D01*
Y264395D01*
X158815Y266049D01*
X157549Y267315D01*
X155895Y268000D01*
D02*
G37*
G36*
X430395Y262750D02*
X428605D01*
X426951Y262065D01*
X425685Y260799D01*
X425000Y259145D01*
Y257355D01*
X425685Y255701D01*
X426951Y254435D01*
X428605Y253750D01*
X430395D01*
X432049Y254435D01*
X433315Y255701D01*
X434000Y257355D01*
Y259145D01*
X433315Y260799D01*
X432049Y262065D01*
X430395Y262750D01*
D02*
G37*
G36*
X210395Y262500D02*
X208605D01*
X206951Y261815D01*
X205685Y260549D01*
X205000Y258895D01*
Y257105D01*
X205685Y255451D01*
X206951Y254185D01*
X208605Y253500D01*
X210395D01*
X212049Y254185D01*
X213315Y255451D01*
X214000Y257105D01*
Y258895D01*
X213315Y260549D01*
X212049Y261815D01*
X210395Y262500D01*
D02*
G37*
G36*
X240895Y256000D02*
X239105D01*
X237451Y255315D01*
X236185Y254049D01*
X235500Y252395D01*
Y250605D01*
X236185Y248951D01*
X237451Y247685D01*
X239105Y247000D01*
X240895D01*
X242549Y247685D01*
X243815Y248951D01*
X244500Y250605D01*
Y252395D01*
X243815Y254049D01*
X242549Y255315D01*
X240895Y256000D01*
D02*
G37*
G36*
X440895Y255500D02*
X439105D01*
X437451Y254815D01*
X436185Y253549D01*
X435500Y251895D01*
Y250105D01*
X436185Y248451D01*
X437451Y247185D01*
X439105Y246500D01*
X440895D01*
X442549Y247185D01*
X443815Y248451D01*
X444500Y250105D01*
Y251895D01*
X443815Y253549D01*
X442549Y254815D01*
X440895Y255500D01*
D02*
G37*
G36*
X380895D02*
X379105D01*
X377451Y254815D01*
X376185Y253549D01*
X375500Y251895D01*
Y250105D01*
X376185Y248451D01*
X377451Y247185D01*
X379105Y246500D01*
X380895D01*
X382549Y247185D01*
X383815Y248451D01*
X384500Y250105D01*
Y251895D01*
X383815Y253549D01*
X382549Y254815D01*
X380895Y255500D01*
D02*
G37*
G36*
X220895Y255250D02*
X219105D01*
X217451Y254565D01*
X216185Y253299D01*
X215500Y251645D01*
Y249855D01*
X216185Y248201D01*
X217451Y246935D01*
X219105Y246250D01*
X220895D01*
X222549Y246935D01*
X223815Y248201D01*
X224500Y249855D01*
Y251645D01*
X223815Y253299D01*
X222549Y254565D01*
X220895Y255250D01*
D02*
G37*
G36*
X401145Y254500D02*
X399355D01*
X397701Y253815D01*
X396435Y252549D01*
X395750Y250895D01*
Y249105D01*
X396435Y247451D01*
X397701Y246185D01*
X399355Y245500D01*
X401145D01*
X402799Y246185D01*
X404065Y247451D01*
X404750Y249105D01*
Y250895D01*
X404065Y252549D01*
X402799Y253815D01*
X401145Y254500D01*
D02*
G37*
G36*
X108002Y265000D02*
X82002D01*
Y244999D01*
X108002D01*
Y265000D01*
D02*
G37*
G36*
X174205Y249610D02*
X172415D01*
X170761Y248925D01*
X169495Y247659D01*
X168810Y246005D01*
Y244215D01*
X169495Y242561D01*
X170761Y241295D01*
X172415Y240610D01*
X174205D01*
X175859Y241295D01*
X177125Y242561D01*
X177810Y244215D01*
Y246005D01*
X177125Y247659D01*
X175859Y248925D01*
X174205Y249610D01*
D02*
G37*
G36*
X327645Y246250D02*
X325855D01*
X324201Y245565D01*
X322935Y244299D01*
X322250Y242645D01*
Y240855D01*
X322935Y239201D01*
X324201Y237935D01*
X325855Y237250D01*
X327645D01*
X329299Y237935D01*
X330565Y239201D01*
X331250Y240855D01*
Y242645D01*
X330565Y244299D01*
X329299Y245565D01*
X327645Y246250D01*
D02*
G37*
G36*
X48245Y243650D02*
X46355D01*
X44609Y242927D01*
X43273Y241591D01*
X42550Y239845D01*
Y237955D01*
X43273Y236209D01*
X44609Y234873D01*
X46355Y234150D01*
X48245D01*
X49991Y234873D01*
X51327Y236209D01*
X52050Y237955D01*
Y239845D01*
X51327Y241591D01*
X49991Y242927D01*
X48245Y243650D01*
D02*
G37*
G36*
X242395Y235250D02*
X240605D01*
X238951Y234565D01*
X238330Y233944D01*
X237500Y233417D01*
X236670Y233944D01*
X236049Y234565D01*
X234395Y235250D01*
X232605D01*
X230951Y234565D01*
X229685Y233299D01*
X229000Y231645D01*
Y229855D01*
X229685Y228201D01*
X230951Y226935D01*
X232605Y226250D01*
X234395D01*
X236049Y226935D01*
X236670Y227556D01*
X237500Y228083D01*
X238330Y227556D01*
X238951Y226935D01*
X240605Y226250D01*
X242395D01*
X244049Y226935D01*
X245315Y228201D01*
X246000Y229855D01*
Y231645D01*
X245315Y233299D01*
X244049Y234565D01*
X242395Y235250D01*
D02*
G37*
G36*
X574022Y244000D02*
X572178D01*
X570398Y243523D01*
X568802Y242601D01*
X567499Y241298D01*
X566577Y239702D01*
X566100Y237922D01*
Y236078D01*
X566577Y234298D01*
X567499Y232702D01*
X568802Y231399D01*
X570398Y230477D01*
X572178Y230000D01*
X574022D01*
X575802Y230477D01*
X577398Y231399D01*
X578701Y232702D01*
X579623Y234298D01*
X580100Y236078D01*
Y237922D01*
X579623Y239702D01*
X578701Y241298D01*
X577398Y242601D01*
X575802Y243523D01*
X574022Y244000D01*
D02*
G37*
G36*
X548622D02*
X546778D01*
X544998Y243523D01*
X543402Y242601D01*
X542099Y241298D01*
X541177Y239702D01*
X540700Y237922D01*
Y236078D01*
X541177Y234298D01*
X542099Y232702D01*
X543402Y231399D01*
X544998Y230477D01*
X546778Y230000D01*
X548622D01*
X550402Y230477D01*
X551998Y231399D01*
X553301Y232702D01*
X554223Y234298D01*
X554700Y236078D01*
Y237922D01*
X554223Y239702D01*
X553301Y241298D01*
X551998Y242601D01*
X550402Y243523D01*
X548622Y244000D01*
D02*
G37*
G36*
X523222D02*
X521378D01*
X519598Y243523D01*
X518002Y242601D01*
X516699Y241298D01*
X515777Y239702D01*
X515300Y237922D01*
Y236078D01*
X515777Y234298D01*
X516699Y232702D01*
X518002Y231399D01*
X519598Y230477D01*
X521378Y230000D01*
X523222D01*
X525002Y230477D01*
X526598Y231399D01*
X527901Y232702D01*
X528823Y234298D01*
X529300Y236078D01*
Y237922D01*
X528823Y239702D01*
X527901Y241298D01*
X526598Y242601D01*
X525002Y243523D01*
X523222Y244000D01*
D02*
G37*
G36*
X497822D02*
X495978D01*
X494198Y243523D01*
X492602Y242601D01*
X491299Y241298D01*
X490377Y239702D01*
X489900Y237922D01*
Y236078D01*
X490377Y234298D01*
X491299Y232702D01*
X492602Y231399D01*
X494198Y230477D01*
X495978Y230000D01*
X497822D01*
X499602Y230477D01*
X501198Y231399D01*
X502501Y232702D01*
X503423Y234298D01*
X503900Y236078D01*
Y237922D01*
X503423Y239702D01*
X502501Y241298D01*
X501198Y242601D01*
X499602Y243523D01*
X497822Y244000D01*
D02*
G37*
G36*
X472422D02*
X470578D01*
X468798Y243523D01*
X467202Y242601D01*
X465899Y241298D01*
X464977Y239702D01*
X464500Y237922D01*
Y236078D01*
X464977Y234298D01*
X465899Y232702D01*
X467202Y231399D01*
X468798Y230477D01*
X470578Y230000D01*
X472422D01*
X474202Y230477D01*
X475798Y231399D01*
X477101Y232702D01*
X478023Y234298D01*
X478500Y236078D01*
Y237922D01*
X478023Y239702D01*
X477101Y241298D01*
X475798Y242601D01*
X474202Y243523D01*
X472422Y244000D01*
D02*
G37*
G36*
X68895Y238500D02*
X67105D01*
X65451Y237815D01*
X64185Y236549D01*
X63500Y234895D01*
Y233105D01*
X64185Y231451D01*
X65451Y230185D01*
X67105Y229500D01*
X68895D01*
X70549Y230185D01*
X71815Y231451D01*
X72500Y233105D01*
Y234895D01*
X71815Y236549D01*
X70549Y237815D01*
X68895Y238500D01*
D02*
G37*
G36*
X264895Y235250D02*
X263105D01*
X261451Y234565D01*
X260185Y233299D01*
X259500Y231645D01*
Y229855D01*
X260185Y228201D01*
X261451Y226935D01*
X263105Y226250D01*
X264895D01*
X266549Y226935D01*
X267815Y228201D01*
X268500Y229855D01*
Y231645D01*
X267815Y233299D01*
X266549Y234565D01*
X264895Y235250D01*
D02*
G37*
G36*
X253395D02*
X251605D01*
X249951Y234565D01*
X248685Y233299D01*
X248000Y231645D01*
Y229855D01*
X248685Y228201D01*
X249951Y226935D01*
X251605Y226250D01*
X253395D01*
X255049Y226935D01*
X256315Y228201D01*
X257000Y229855D01*
Y231645D01*
X256315Y233299D01*
X255049Y234565D01*
X253395Y235250D01*
D02*
G37*
G36*
X220145Y229750D02*
X218355D01*
X216701Y229065D01*
X215435Y227799D01*
X214750Y226145D01*
Y224355D01*
X215435Y222701D01*
X216701Y221435D01*
X218355Y220750D01*
X220145D01*
X221799Y221435D01*
X223065Y222701D01*
X223750Y224355D01*
Y226145D01*
X223065Y227799D01*
X221799Y229065D01*
X220145Y229750D01*
D02*
G37*
G36*
X354800Y235082D02*
X352320Y234755D01*
X350009Y233798D01*
X348025Y232276D01*
X346502Y230291D01*
X345545Y227980D01*
X345218Y225500D01*
Y224500D01*
X345545Y222020D01*
X346502Y219709D01*
X348025Y217725D01*
X350009Y216202D01*
X352320Y215245D01*
X354800Y214918D01*
X357280Y215245D01*
X359591Y216202D01*
X361576Y217725D01*
X363098Y219709D01*
X364055Y222020D01*
X364382Y224500D01*
Y225500D01*
X364055Y227980D01*
X363098Y230291D01*
X361576Y232276D01*
X359591Y233798D01*
X357280Y234755D01*
X354800Y235082D01*
D02*
G37*
G36*
X294800D02*
X292320Y234755D01*
X290009Y233798D01*
X288025Y232276D01*
X286502Y230291D01*
X285544Y227980D01*
X285218Y225500D01*
Y224500D01*
X285544Y222020D01*
X286502Y219709D01*
X288025Y217725D01*
X290009Y216202D01*
X292320Y215245D01*
X294800Y214918D01*
X297280Y215245D01*
X299591Y216202D01*
X301575Y217725D01*
X303098Y219709D01*
X304055Y222020D01*
X304382Y224500D01*
Y225500D01*
X304055Y227980D01*
X303098Y230291D01*
X301575Y232276D01*
X299591Y233798D01*
X297280Y234755D01*
X294800Y235082D01*
D02*
G37*
G36*
X548951Y221100D02*
X546449D01*
X544033Y220453D01*
X541867Y219202D01*
X540098Y217433D01*
X538847Y215267D01*
X538200Y212851D01*
Y210349D01*
X538847Y207933D01*
X540098Y205767D01*
X541867Y203998D01*
X544033Y202747D01*
X546449Y202100D01*
X548951D01*
X551367Y202747D01*
X553533Y203998D01*
X555302Y205767D01*
X556553Y207933D01*
X557200Y210349D01*
Y212851D01*
X556553Y215267D01*
X555302Y217433D01*
X553533Y219202D01*
X551367Y220453D01*
X548951Y221100D01*
D02*
G37*
G36*
X165395Y207750D02*
X163605D01*
X161951Y207065D01*
X160685Y205799D01*
X160000Y204145D01*
Y202355D01*
X160685Y200701D01*
X161951Y199435D01*
X163605Y198750D01*
X165395D01*
X167049Y199435D01*
X168315Y200701D01*
X169000Y202355D01*
Y204145D01*
X168315Y205799D01*
X167049Y207065D01*
X165395Y207750D01*
D02*
G37*
G36*
X176395Y207500D02*
X174605D01*
X172951Y206815D01*
X171685Y205549D01*
X171000Y203895D01*
Y202105D01*
X171685Y200451D01*
X172951Y199185D01*
X174605Y198500D01*
X176395D01*
X178049Y199185D01*
X179315Y200451D01*
X180000Y202105D01*
Y203895D01*
X179315Y205549D01*
X178049Y206815D01*
X176395Y207500D01*
D02*
G37*
G36*
X187395Y207250D02*
X185605D01*
X183951Y206565D01*
X182685Y205299D01*
X182000Y203645D01*
Y201855D01*
X182685Y200201D01*
X183951Y198935D01*
X185605Y198250D01*
X187395D01*
X189049Y198935D01*
X190315Y200201D01*
X191000Y201855D01*
Y203645D01*
X190315Y205299D01*
X189049Y206565D01*
X187395Y207250D01*
D02*
G37*
G36*
X69303Y221750D02*
X67197D01*
X65162Y221205D01*
X63338Y220152D01*
X61848Y218662D01*
X60795Y216838D01*
X60250Y214803D01*
Y212697D01*
X60795Y210662D01*
X61178Y210000D01*
X60795Y209338D01*
X60250Y207303D01*
Y205197D01*
X60795Y203162D01*
X61848Y201338D01*
X63338Y199848D01*
X65162Y198795D01*
X67197Y198250D01*
X69303D01*
X71338Y198795D01*
X73162Y199848D01*
X74652Y201338D01*
X75705Y203162D01*
X76250Y205197D01*
Y207303D01*
X75705Y209338D01*
X75322Y210000D01*
X75705Y210662D01*
X76250Y212697D01*
Y214803D01*
X75705Y216838D01*
X74652Y218662D01*
X73162Y220152D01*
X71338Y221205D01*
X69303Y221750D01*
D02*
G37*
G36*
X68895Y190500D02*
X67105D01*
X65451Y189815D01*
X64185Y188549D01*
X63500Y186895D01*
Y185105D01*
X64185Y183451D01*
X65451Y182185D01*
X67105Y181500D01*
X68895D01*
X70549Y182185D01*
X71815Y183451D01*
X72500Y185105D01*
Y186895D01*
X71815Y188549D01*
X70549Y189815D01*
X68895Y190500D01*
D02*
G37*
G36*
X410023Y192748D02*
X407637D01*
X405431Y191835D01*
X403744Y190147D01*
X402830Y187941D01*
Y185555D01*
X403744Y183349D01*
X405431Y181661D01*
X407637Y180748D01*
X410023D01*
X412229Y181661D01*
X413917Y183349D01*
X414830Y185555D01*
Y187941D01*
X413917Y190147D01*
X412229Y191835D01*
X410023Y192748D01*
D02*
G37*
G36*
X347523D02*
X345137D01*
X342931Y191835D01*
X341244Y190147D01*
X340330Y187941D01*
Y185555D01*
X341244Y183349D01*
X342931Y181661D01*
X345137Y180748D01*
X347523D01*
X349729Y181661D01*
X351417Y183349D01*
X352330Y185555D01*
Y187941D01*
X351417Y190147D01*
X349729Y191835D01*
X347523Y192748D01*
D02*
G37*
G36*
X325395Y187000D02*
X323605D01*
X321951Y186315D01*
X320685Y185049D01*
X320000Y183395D01*
Y181605D01*
X320685Y179951D01*
X321951Y178685D01*
X323605Y178000D01*
X325395D01*
X327049Y178685D01*
X328315Y179951D01*
X329000Y181605D01*
Y183395D01*
X328315Y185049D01*
X327049Y186315D01*
X325395Y187000D01*
D02*
G37*
G36*
X48245Y185850D02*
X46355D01*
X44609Y185127D01*
X43273Y183791D01*
X42550Y182045D01*
Y180155D01*
X43273Y178409D01*
X44609Y177073D01*
X46355Y176350D01*
X48245D01*
X49991Y177073D01*
X51327Y178409D01*
X52050Y180155D01*
Y182045D01*
X51327Y183791D01*
X49991Y185127D01*
X48245Y185850D01*
D02*
G37*
G36*
X292895Y168000D02*
X291105D01*
X289451Y167315D01*
X288185Y166049D01*
X287500Y164395D01*
Y162605D01*
X288185Y160951D01*
X289451Y159685D01*
X291105Y159000D01*
X292895D01*
X294549Y159685D01*
X295815Y160951D01*
X296500Y162605D01*
Y164395D01*
X295815Y166049D01*
X294549Y167315D01*
X292895Y168000D01*
D02*
G37*
G36*
X331017Y162128D02*
X329227D01*
X327573Y161443D01*
X326307Y160177D01*
X325622Y158523D01*
Y156733D01*
X326307Y155079D01*
X327573Y153813D01*
X329227Y153128D01*
X331017D01*
X332671Y153813D01*
X333937Y155079D01*
X334622Y156733D01*
Y158523D01*
X333937Y160177D01*
X332671Y161443D01*
X331017Y162128D01*
D02*
G37*
G36*
X464700Y172500D02*
X445700D01*
Y152500D01*
X464700D01*
Y172500D01*
D02*
G37*
G36*
X262145Y178250D02*
X260355D01*
X258701Y177565D01*
X257435Y176299D01*
X256750Y174645D01*
Y172855D01*
X257435Y171201D01*
X258636Y170000D01*
X257435Y168799D01*
X256750Y167145D01*
Y165355D01*
X257435Y163701D01*
X258436Y162700D01*
X258451Y162597D01*
X258284Y161572D01*
X258161Y161316D01*
X256951Y160815D01*
X255685Y159549D01*
X255000Y157895D01*
Y156105D01*
X255685Y154451D01*
X256951Y153185D01*
X258605Y152500D01*
X260395D01*
X262049Y153185D01*
X263315Y154451D01*
X264000Y156105D01*
Y157895D01*
X263315Y159549D01*
X262314Y160550D01*
X262300Y160653D01*
X262466Y161678D01*
X262589Y161934D01*
X263799Y162435D01*
X265065Y163701D01*
X265750Y165355D01*
Y167145D01*
X265065Y168799D01*
X263864Y170000D01*
X265065Y171201D01*
X265750Y172855D01*
Y174645D01*
X265065Y176299D01*
X263799Y177565D01*
X262145Y178250D01*
D02*
G37*
G36*
X429800Y172582D02*
X427320Y172255D01*
X425009Y171298D01*
X423025Y169776D01*
X421502Y167791D01*
X420545Y165480D01*
X420218Y163000D01*
Y162000D01*
X420545Y159520D01*
X421502Y157209D01*
X423025Y155225D01*
X425009Y153702D01*
X427320Y152745D01*
X429800Y152418D01*
X432280Y152745D01*
X434591Y153702D01*
X436576Y155225D01*
X438098Y157209D01*
X439055Y159520D01*
X439382Y162000D01*
Y163000D01*
X439055Y165480D01*
X438098Y167791D01*
X436576Y169776D01*
X434591Y171298D01*
X432280Y172255D01*
X429800Y172582D01*
D02*
G37*
G36*
X238447Y159807D02*
X236657D01*
X235003Y159122D01*
X233737Y157856D01*
X233052Y156202D01*
Y154411D01*
X233737Y152758D01*
X235003Y151492D01*
X236657Y150807D01*
X238447D01*
X240101Y151492D01*
X241367Y152758D01*
X242052Y154411D01*
Y156202D01*
X241367Y157856D01*
X240101Y159122D01*
X238447Y159807D01*
D02*
G37*
G36*
X134895Y158000D02*
X133105D01*
X131451Y157315D01*
X130185Y156049D01*
X129500Y154395D01*
Y152605D01*
X130185Y150951D01*
X131451Y149685D01*
X133105Y149000D01*
X134895D01*
X136549Y149685D01*
X137815Y150951D01*
X138500Y152605D01*
Y154395D01*
X137815Y156049D01*
X136549Y157315D01*
X134895Y158000D01*
D02*
G37*
G36*
X384145Y157750D02*
X382355D01*
X380701Y157065D01*
X379435Y155799D01*
X378750Y154145D01*
Y152355D01*
X379435Y150701D01*
X380701Y149435D01*
X382355Y148750D01*
X384145D01*
X385799Y149435D01*
X387065Y150701D01*
X387750Y152355D01*
Y154145D01*
X387065Y155799D01*
X385799Y157065D01*
X384145Y157750D01*
D02*
G37*
G36*
X602382Y168000D02*
X599618D01*
X596947Y167284D01*
X594553Y165902D01*
X592598Y163947D01*
X591216Y161553D01*
X590500Y158882D01*
Y156118D01*
X591216Y153447D01*
X592598Y151053D01*
X594553Y149098D01*
X596947Y147716D01*
X599618Y147000D01*
X602382D01*
X605053Y147716D01*
X607447Y149098D01*
X609402Y151053D01*
X610784Y153447D01*
X611500Y156118D01*
Y158882D01*
X610784Y161553D01*
X609402Y163947D01*
X607447Y165902D01*
X605053Y167284D01*
X602382Y168000D01*
D02*
G37*
G36*
X59145Y152000D02*
X57355D01*
X55701Y151315D01*
X54435Y150049D01*
X53750Y148395D01*
Y146605D01*
X54435Y144951D01*
X55701Y143685D01*
X57355Y143000D01*
X59145D01*
X60799Y143685D01*
X62065Y144951D01*
X62750Y146605D01*
Y148395D01*
X62065Y150049D01*
X60799Y151315D01*
X59145Y152000D01*
D02*
G37*
G36*
X349645Y147750D02*
X347855D01*
X346201Y147065D01*
X344935Y145799D01*
X344250Y144145D01*
Y142355D01*
X344935Y140701D01*
X346201Y139435D01*
X347855Y138750D01*
X349645D01*
X351299Y139435D01*
X352565Y140701D01*
X353250Y142355D01*
Y144145D01*
X352565Y145799D01*
X351299Y147065D01*
X349645Y147750D01*
D02*
G37*
G36*
X134895Y147000D02*
X133105D01*
X131451Y146315D01*
X130185Y145049D01*
X129500Y143395D01*
Y141605D01*
X130185Y139951D01*
X131451Y138685D01*
X133105Y138000D01*
X134895D01*
X136549Y138685D01*
X137815Y139951D01*
X138500Y141605D01*
Y143395D01*
X137815Y145049D01*
X136549Y146315D01*
X134895Y147000D01*
D02*
G37*
G36*
X478395Y159500D02*
X476605D01*
X474951Y158815D01*
X473685Y157549D01*
X473000Y155895D01*
Y154105D01*
X473685Y152451D01*
X474886Y151250D01*
X473685Y150049D01*
X473000Y148395D01*
Y146605D01*
X473685Y144951D01*
X474886Y143750D01*
X473685Y142549D01*
X473000Y140895D01*
Y139105D01*
X473685Y137451D01*
X474951Y136185D01*
X476605Y135500D01*
X478395D01*
X480049Y136185D01*
X481250Y137386D01*
X482451Y136185D01*
X484105Y135500D01*
X485895D01*
X487549Y136185D01*
X488815Y137451D01*
X489500Y139105D01*
Y140895D01*
X488815Y142549D01*
X487549Y143815D01*
X485895Y144500D01*
X484105D01*
X482451Y143815D01*
X481250Y142614D01*
X480114Y143750D01*
X481315Y144951D01*
X482000Y146605D01*
Y148395D01*
X481315Y150049D01*
X480114Y151250D01*
X481315Y152451D01*
X482000Y154105D01*
Y155895D01*
X481315Y157549D01*
X480049Y158815D01*
X478395Y159500D01*
D02*
G37*
G36*
X396645Y142000D02*
X394855D01*
X393201Y141315D01*
X391935Y140049D01*
X391250Y138395D01*
Y136605D01*
X391935Y134951D01*
X393201Y133685D01*
X394855Y133000D01*
X396645D01*
X398299Y133685D01*
X399565Y134951D01*
X400250Y136605D01*
Y138395D01*
X399565Y140049D01*
X398299Y141315D01*
X396645Y142000D01*
D02*
G37*
G36*
X135145Y136000D02*
X133355D01*
X131701Y135315D01*
X130435Y134049D01*
X129750Y132395D01*
Y130605D01*
X130435Y128951D01*
X131701Y127685D01*
X133355Y127000D01*
X135145D01*
X136799Y127685D01*
X138065Y128951D01*
X138750Y130605D01*
Y132395D01*
X138065Y134049D01*
X136799Y135315D01*
X135145Y136000D01*
D02*
G37*
G36*
X404145Y131500D02*
X402355D01*
X400701Y130815D01*
X399435Y129549D01*
X398750Y127895D01*
Y126105D01*
X399435Y124451D01*
X400701Y123185D01*
X402355Y122500D01*
X404145D01*
X405799Y123185D01*
X407065Y124451D01*
X407750Y126105D01*
Y127895D01*
X407065Y129549D01*
X405799Y130815D01*
X404145Y131500D01*
D02*
G37*
G36*
X381145Y131000D02*
X379355D01*
X377701Y130315D01*
X376435Y129049D01*
X375750Y127395D01*
Y125605D01*
X376435Y123951D01*
X377701Y122685D01*
X379355Y122000D01*
X381145D01*
X382799Y122685D01*
X384065Y123951D01*
X384750Y125605D01*
Y127395D01*
X384065Y129049D01*
X382799Y130315D01*
X381145Y131000D01*
D02*
G37*
G36*
X318145Y130750D02*
X316355D01*
X314701Y130065D01*
X313435Y128799D01*
X312750Y127145D01*
Y125355D01*
X313435Y123701D01*
X314701Y122435D01*
X316355Y121750D01*
X318145D01*
X319799Y122435D01*
X321065Y123701D01*
X321750Y125355D01*
Y127145D01*
X321065Y128799D01*
X319799Y130065D01*
X318145Y130750D01*
D02*
G37*
G36*
X432895Y129500D02*
X431105D01*
X429451Y128815D01*
X428185Y127549D01*
X427500Y125895D01*
Y124105D01*
X428185Y122451D01*
X429451Y121185D01*
X431105Y120500D01*
X432895D01*
X434549Y121185D01*
X435815Y122451D01*
X436500Y124105D01*
Y125895D01*
X435815Y127549D01*
X434549Y128815D01*
X432895Y129500D01*
D02*
G37*
G36*
X134645Y125000D02*
X132855D01*
X131201Y124315D01*
X129935Y123049D01*
X129250Y121395D01*
Y119605D01*
X129935Y117951D01*
X131201Y116685D01*
X132855Y116000D01*
X134645D01*
X136299Y116685D01*
X137565Y117951D01*
X138250Y119605D01*
Y121395D01*
X137565Y123049D01*
X136299Y124315D01*
X134645Y125000D01*
D02*
G37*
G36*
X106895Y119500D02*
X105105D01*
X103451Y118815D01*
X102185Y117549D01*
X101500Y115895D01*
Y114105D01*
X102185Y112451D01*
X103451Y111185D01*
X105105Y110500D01*
X106895D01*
X108549Y111185D01*
X109815Y112451D01*
X110500Y114105D01*
Y115895D01*
X109815Y117549D01*
X108549Y118815D01*
X106895Y119500D01*
D02*
G37*
G36*
X380895Y118250D02*
X379105D01*
X377451Y117565D01*
X376185Y116299D01*
X375500Y114645D01*
Y112855D01*
X376185Y111201D01*
X377451Y109935D01*
X379105Y109250D01*
X380895D01*
X382549Y109935D01*
X383815Y111201D01*
X384500Y112855D01*
Y114645D01*
X383815Y116299D01*
X382549Y117565D01*
X380895Y118250D01*
D02*
G37*
G36*
X318145D02*
X316355D01*
X314701Y117565D01*
X313435Y116299D01*
X312750Y114645D01*
Y112855D01*
X313435Y111201D01*
X314701Y109935D01*
X316355Y109250D01*
X318145D01*
X319799Y109935D01*
X321065Y111201D01*
X321750Y112855D01*
Y114645D01*
X321065Y116299D01*
X319799Y117565D01*
X318145Y118250D01*
D02*
G37*
G36*
X261645Y114000D02*
X259855D01*
X258201Y113315D01*
X256935Y112049D01*
X256250Y110395D01*
Y108605D01*
X256935Y106951D01*
X258201Y105685D01*
X259855Y105000D01*
X261645D01*
X263299Y105685D01*
X264565Y106951D01*
X265250Y108605D01*
Y110395D01*
X264565Y112049D01*
X263299Y113315D01*
X261645Y114000D01*
D02*
G37*
G36*
X380645Y105750D02*
X378855D01*
X377201Y105065D01*
X375935Y103799D01*
X375250Y102145D01*
Y100355D01*
X375935Y98701D01*
X377201Y97435D01*
X378855Y96750D01*
X380645D01*
X382299Y97435D01*
X383565Y98701D01*
X384250Y100355D01*
Y102145D01*
X383565Y103799D01*
X382299Y105065D01*
X380645Y105750D01*
D02*
G37*
G36*
X262395Y103250D02*
X260605D01*
X258951Y102565D01*
X257685Y101299D01*
X257000Y99645D01*
Y97855D01*
X257685Y96201D01*
X258951Y94935D01*
X260605Y94250D01*
X262395D01*
X264049Y94935D01*
X265315Y96201D01*
X266000Y97855D01*
Y99645D01*
X265315Y101299D01*
X264049Y102565D01*
X262395Y103250D01*
D02*
G37*
G36*
X320145Y102000D02*
X318355D01*
X316701Y101315D01*
X315435Y100049D01*
X314750Y98395D01*
Y96605D01*
X315435Y94951D01*
X316701Y93685D01*
X318355Y93000D01*
X320145D01*
X321799Y93685D01*
X323065Y94951D01*
X323750Y96605D01*
Y98395D01*
X323065Y100049D01*
X321799Y101315D01*
X320145Y102000D01*
D02*
G37*
G36*
X408895Y101750D02*
X407105D01*
X405451Y101065D01*
X404185Y99799D01*
X403500Y98145D01*
Y96355D01*
X404185Y94701D01*
X405451Y93435D01*
X407105Y92750D01*
X408895D01*
X410549Y93435D01*
X411815Y94701D01*
X412500Y96355D01*
Y98145D01*
X411815Y99799D01*
X410549Y101065D01*
X408895Y101750D01*
D02*
G37*
G36*
X380895Y93000D02*
X379105D01*
X377451Y92315D01*
X376185Y91049D01*
X375500Y89395D01*
Y87605D01*
X376185Y85951D01*
X377451Y84685D01*
X379105Y84000D01*
X380895D01*
X382549Y84685D01*
X383815Y85951D01*
X384500Y87605D01*
Y89395D01*
X383815Y91049D01*
X382549Y92315D01*
X380895Y93000D01*
D02*
G37*
G36*
X471145Y91500D02*
X469355D01*
X467701Y90815D01*
X466435Y89549D01*
X465750Y87895D01*
Y86105D01*
X466435Y84451D01*
X467701Y83185D01*
X469355Y82500D01*
X471145D01*
X472799Y83185D01*
X474065Y84451D01*
X474750Y86105D01*
Y87895D01*
X474065Y89549D01*
X472799Y90815D01*
X471145Y91500D01*
D02*
G37*
G36*
X320395Y82000D02*
X318605D01*
X316951Y81315D01*
X315685Y80049D01*
X315000Y78395D01*
Y76605D01*
X315685Y74951D01*
X316951Y73685D01*
X318605Y73000D01*
X320395D01*
X322049Y73685D01*
X323315Y74951D01*
X324000Y76605D01*
Y78395D01*
X323315Y80049D01*
X322049Y81315D01*
X320395Y82000D01*
D02*
G37*
G36*
X290895Y79500D02*
X289105D01*
X287451Y78815D01*
X286185Y77549D01*
X285500Y75895D01*
Y74105D01*
X286185Y72451D01*
X287451Y71185D01*
X289105Y70500D01*
X290895D01*
X292549Y71185D01*
X293815Y72451D01*
X294500Y74105D01*
Y75895D01*
X293815Y77549D01*
X292549Y78815D01*
X290895Y79500D01*
D02*
G37*
G36*
X411395Y73750D02*
X409605D01*
X407951Y73065D01*
X406685Y71799D01*
X406000Y70145D01*
Y68355D01*
X406685Y66701D01*
X407951Y65435D01*
X409605Y64750D01*
X411395D01*
X413049Y65435D01*
X414315Y66701D01*
X415000Y68355D01*
Y70145D01*
X414315Y71799D01*
X413049Y73065D01*
X411395Y73750D01*
D02*
G37*
G36*
X331645Y62000D02*
X329855D01*
X328201Y61315D01*
X326935Y60049D01*
X326250Y58395D01*
Y56605D01*
X326935Y54951D01*
X328201Y53685D01*
X329855Y53000D01*
X331645D01*
X333299Y53685D01*
X334565Y54951D01*
X335250Y56605D01*
Y58395D01*
X334565Y60049D01*
X333299Y61315D01*
X331645Y62000D01*
D02*
G37*
G36*
X316395Y59250D02*
X314605D01*
X312951Y58565D01*
X311685Y57299D01*
X311000Y55645D01*
Y53855D01*
X311685Y52201D01*
X312951Y50935D01*
X314605Y50250D01*
X316395D01*
X318049Y50935D01*
X319315Y52201D01*
X320000Y53855D01*
Y55645D01*
X319315Y57299D01*
X318049Y58565D01*
X316395Y59250D01*
D02*
G37*
G36*
X362395Y58250D02*
X360605D01*
X358951Y57565D01*
X357685Y56299D01*
X357000Y54645D01*
Y52855D01*
X357685Y51201D01*
X358951Y49935D01*
X360605Y49250D01*
X362395D01*
X364049Y49935D01*
X365315Y51201D01*
X366000Y52855D01*
Y54645D01*
X365315Y56299D01*
X364049Y57565D01*
X362395Y58250D01*
D02*
G37*
G36*
X410023Y59248D02*
X407637D01*
X405431Y58334D01*
X403744Y56647D01*
X402830Y54441D01*
Y52055D01*
X403744Y49849D01*
X405431Y48161D01*
X407637Y47248D01*
X410023D01*
X412229Y48161D01*
X413917Y49849D01*
X414830Y52055D01*
Y54441D01*
X413917Y56647D01*
X412229Y58334D01*
X410023Y59248D01*
D02*
G37*
G36*
X347523D02*
X345137D01*
X342931Y58334D01*
X341244Y56647D01*
X340330Y54441D01*
Y52055D01*
X341244Y49849D01*
X342931Y48161D01*
X345137Y47248D01*
X347523D01*
X349729Y48161D01*
X351417Y49849D01*
X352330Y52055D01*
Y54441D01*
X351417Y56647D01*
X349729Y58334D01*
X347523Y59248D01*
D02*
G37*
G36*
X70895Y55000D02*
X69105D01*
X67451Y54315D01*
X66185Y53049D01*
X65500Y51395D01*
Y49605D01*
X66185Y47951D01*
X67451Y46685D01*
X69105Y46000D01*
X70895D01*
X72549Y46685D01*
X73815Y47951D01*
X74500Y49605D01*
Y51395D01*
X73815Y53049D01*
X72549Y54315D01*
X70895Y55000D01*
D02*
G37*
G36*
X439300Y65000D02*
X420300D01*
Y45000D01*
X439300D01*
Y65000D01*
D02*
G37*
G36*
X455200Y65082D02*
X452720Y64755D01*
X450409Y63798D01*
X448425Y62275D01*
X446902Y60291D01*
X445945Y57980D01*
X445618Y55500D01*
Y54500D01*
X445945Y52020D01*
X446902Y49709D01*
X448425Y47724D01*
X450409Y46202D01*
X452720Y45244D01*
X455200Y44918D01*
X457680Y45244D01*
X459991Y46202D01*
X461976Y47724D01*
X463498Y49709D01*
X464455Y52020D01*
X464782Y54500D01*
Y55500D01*
X464455Y57980D01*
X463498Y60291D01*
X461976Y62275D01*
X459991Y63798D01*
X457680Y64755D01*
X455200Y65082D01*
D02*
G37*
G36*
X63645Y46250D02*
X61855D01*
X60201Y45565D01*
X58935Y44299D01*
X58250Y42645D01*
Y40855D01*
X58935Y39201D01*
X60201Y37935D01*
X61855Y37250D01*
X63645D01*
X65299Y37935D01*
X66565Y39201D01*
X67250Y40855D01*
Y42645D01*
X66565Y44299D01*
X65299Y45565D01*
X63645Y46250D01*
D02*
G37*
G36*
X599422Y50000D02*
X597578D01*
X595798Y49523D01*
X594202Y48601D01*
X592899Y47298D01*
X591977Y45702D01*
X591500Y43922D01*
Y42078D01*
X591977Y40298D01*
X592899Y38702D01*
X594202Y37399D01*
X595798Y36477D01*
X597578Y36000D01*
X599422D01*
X601202Y36477D01*
X602798Y37399D01*
X604101Y38702D01*
X605023Y40298D01*
X605500Y42078D01*
Y43922D01*
X605023Y45702D01*
X604101Y47298D01*
X602798Y48601D01*
X601202Y49523D01*
X599422Y50000D01*
D02*
G37*
G36*
X574022D02*
X572178D01*
X570398Y49523D01*
X568802Y48601D01*
X567499Y47298D01*
X566577Y45702D01*
X566100Y43922D01*
Y42078D01*
X566577Y40298D01*
X567499Y38702D01*
X568802Y37399D01*
X570398Y36477D01*
X572178Y36000D01*
X574022D01*
X575802Y36477D01*
X577398Y37399D01*
X578701Y38702D01*
X579623Y40298D01*
X580100Y42078D01*
Y43922D01*
X579623Y45702D01*
X578701Y47298D01*
X577398Y48601D01*
X575802Y49523D01*
X574022Y50000D01*
D02*
G37*
G36*
X548622D02*
X546778D01*
X544998Y49523D01*
X543402Y48601D01*
X542099Y47298D01*
X541177Y45702D01*
X540700Y43922D01*
Y42078D01*
X541177Y40298D01*
X542099Y38702D01*
X543402Y37399D01*
X544998Y36477D01*
X546778Y36000D01*
X548622D01*
X550402Y36477D01*
X551998Y37399D01*
X553301Y38702D01*
X554223Y40298D01*
X554700Y42078D01*
Y43922D01*
X554223Y45702D01*
X553301Y47298D01*
X551998Y48601D01*
X550402Y49523D01*
X548622Y50000D01*
D02*
G37*
G36*
X523222D02*
X521378D01*
X519598Y49523D01*
X518002Y48601D01*
X516699Y47298D01*
X515777Y45702D01*
X515300Y43922D01*
Y42078D01*
X515777Y40298D01*
X516699Y38702D01*
X518002Y37399D01*
X519598Y36477D01*
X521378Y36000D01*
X523222D01*
X525002Y36477D01*
X526598Y37399D01*
X527901Y38702D01*
X528823Y40298D01*
X529300Y42078D01*
Y43922D01*
X528823Y45702D01*
X527901Y47298D01*
X526598Y48601D01*
X525002Y49523D01*
X523222Y50000D01*
D02*
G37*
G36*
X497822D02*
X495978D01*
X494198Y49523D01*
X492602Y48601D01*
X491299Y47298D01*
X490377Y45702D01*
X489900Y43922D01*
Y42078D01*
X490377Y40298D01*
X491299Y38702D01*
X492602Y37399D01*
X494198Y36477D01*
X495978Y36000D01*
X497822D01*
X499602Y36477D01*
X501198Y37399D01*
X502501Y38702D01*
X503423Y40298D01*
X503900Y42078D01*
Y43922D01*
X503423Y45702D01*
X502501Y47298D01*
X501198Y48601D01*
X499602Y49523D01*
X497822Y50000D01*
D02*
G37*
G36*
X350645Y42000D02*
X348855D01*
X347201Y41315D01*
X345935Y40049D01*
X345250Y38395D01*
Y36605D01*
X345935Y34951D01*
X347201Y33685D01*
X348855Y33000D01*
X350645D01*
X352299Y33685D01*
X353565Y34951D01*
X354250Y36605D01*
Y38395D01*
X353565Y40049D01*
X352299Y41315D01*
X350645Y42000D01*
D02*
G37*
G36*
X314645D02*
X312855D01*
X311201Y41315D01*
X309935Y40049D01*
X309250Y38395D01*
Y36605D01*
X309935Y34951D01*
X311201Y33685D01*
X312855Y33000D01*
X314645D01*
X316299Y33685D01*
X317565Y34951D01*
X318250Y36605D01*
Y38395D01*
X317565Y40049D01*
X316299Y41315D01*
X314645Y42000D01*
D02*
G37*
G36*
X368395Y32000D02*
X366605D01*
X364951Y31315D01*
X363685Y30049D01*
X363000Y28395D01*
Y26605D01*
X363685Y24951D01*
X364951Y23685D01*
X366605Y23000D01*
X368395D01*
X370049Y23685D01*
X371315Y24951D01*
X372000Y26605D01*
Y28395D01*
X371315Y30049D01*
X370049Y31315D01*
X368395Y32000D01*
D02*
G37*
G36*
X340395Y23750D02*
X338605D01*
X336951Y23065D01*
X335685Y21799D01*
X335000Y20145D01*
Y20082D01*
X333944Y19376D01*
X333645Y19500D01*
X331855D01*
X330201Y18815D01*
X328935Y17549D01*
X328250Y15895D01*
Y14105D01*
X328935Y12451D01*
X330201Y11185D01*
X331855Y10500D01*
X333645D01*
X335299Y11185D01*
X336565Y12451D01*
X337250Y14105D01*
Y14168D01*
X338306Y14874D01*
X338605Y14750D01*
X340395D01*
X342049Y15435D01*
X343315Y16701D01*
X344000Y18355D01*
Y20145D01*
X343315Y21799D01*
X342049Y23065D01*
X340395Y23750D01*
D02*
G37*
G36*
X97895Y26750D02*
X96105D01*
X94451Y26065D01*
X93185Y24799D01*
X92500Y23145D01*
Y21355D01*
X93185Y19701D01*
X94451Y18435D01*
X96105Y17750D01*
X97895D01*
X99549Y18435D01*
X100815Y19701D01*
X101500Y21355D01*
Y23145D01*
X100815Y24799D01*
X99549Y26065D01*
X97895Y26750D01*
D02*
G37*
G36*
X574351Y27100D02*
X571849D01*
X569433Y26453D01*
X567267Y25202D01*
X565498Y23433D01*
X564247Y21267D01*
X563600Y18851D01*
Y16349D01*
X564247Y13933D01*
X565498Y11767D01*
X567267Y9998D01*
X569433Y8747D01*
X571849Y8100D01*
X574351D01*
X576767Y8747D01*
X578933Y9998D01*
X580702Y11767D01*
X581953Y13933D01*
X582600Y16349D01*
Y18851D01*
X581953Y21267D01*
X580702Y23433D01*
X578933Y25202D01*
X576767Y26453D01*
X574351Y27100D01*
D02*
G37*
G36*
X87145Y16500D02*
X85355D01*
X83701Y15815D01*
X82435Y14549D01*
X81750Y12895D01*
Y11105D01*
X82435Y9451D01*
X83701Y8185D01*
X85355Y7500D01*
X87145D01*
X88799Y8185D01*
X90065Y9451D01*
X90750Y11105D01*
Y12895D01*
X90065Y14549D01*
X88799Y15815D01*
X87145Y16500D01*
D02*
G37*
G36*
X123395Y16250D02*
X121605D01*
X119951Y15565D01*
X118685Y14299D01*
X118000Y12645D01*
Y10855D01*
X118685Y9201D01*
X119951Y7935D01*
X121605Y7250D01*
X123395D01*
X125049Y7935D01*
X126315Y9201D01*
X127000Y10855D01*
Y12645D01*
X126315Y14299D01*
X125049Y15565D01*
X123395Y16250D01*
D02*
G37*
%LPD*%
D10*
X766007Y270185D02*
Y254950D01*
X776164D01*
X783781Y265107D02*
X788860D01*
X791399Y262568D01*
Y254950D01*
X783781D01*
X781242Y257489D01*
X783781Y260028D01*
X791399D01*
X796477Y265107D02*
Y257489D01*
X799016Y254950D01*
X806634D01*
Y252411D01*
X804095Y249872D01*
X801556D01*
X806634Y254950D02*
Y265107D01*
X819330Y254950D02*
X814251D01*
X811712Y257489D01*
Y262568D01*
X814251Y265107D01*
X819330D01*
X821869Y262568D01*
Y260028D01*
X811712D01*
X826947Y265107D02*
Y254950D01*
Y260028D01*
X829487Y262568D01*
X832026Y265107D01*
X834565D01*
X773625Y-19370D02*
Y-4135D01*
X766007Y-11753D01*
X776164D01*
X766007Y54286D02*
X768546Y56825D01*
X773625D01*
X776164Y54286D01*
Y51747D01*
X773625Y49208D01*
X771085D01*
X773625D01*
X776164Y46668D01*
Y44129D01*
X773625Y41590D01*
X768546D01*
X766007Y44129D01*
X776164Y102550D02*
X766007D01*
X776164Y112707D01*
Y115246D01*
X773625Y117785D01*
X768546D01*
X766007Y115246D01*
Y163510D02*
X771085D01*
X768546D01*
Y178745D01*
X766007Y176206D01*
X870125Y254950D02*
Y270185D01*
X880282Y254950D01*
Y270185D01*
X887899Y265107D02*
X892978D01*
X895517Y262568D01*
Y254950D01*
X887899D01*
X885360Y257489D01*
X887899Y260028D01*
X895517D01*
X900595Y254950D02*
Y265107D01*
X903134D01*
X905673Y262568D01*
Y254950D01*
Y262568D01*
X908213Y265107D01*
X910752Y262568D01*
Y254950D01*
X923448D02*
X918369D01*
X915830Y257489D01*
Y262568D01*
X918369Y265107D01*
X923448D01*
X925987Y262568D01*
Y260028D01*
X915830D01*
X870125Y-65095D02*
Y-80330D01*
X877742D01*
X880282Y-77791D01*
Y-75252D01*
X877742Y-72712D01*
X870125D01*
X877742D01*
X880282Y-70173D01*
Y-67634D01*
X877742Y-65095D01*
X870125D01*
X887899Y-80330D02*
X892978D01*
X895517Y-77791D01*
Y-72712D01*
X892978Y-70173D01*
X887899D01*
X885360Y-72712D01*
Y-77791D01*
X887899Y-80330D01*
X903134Y-67634D02*
Y-70173D01*
X900595D01*
X905673D01*
X903134D01*
Y-77791D01*
X905673Y-80330D01*
X915830Y-67634D02*
Y-70173D01*
X913291D01*
X918369D01*
X915830D01*
Y-77791D01*
X918369Y-80330D01*
X928526D02*
X933604D01*
X936143Y-77791D01*
Y-72712D01*
X933604Y-70173D01*
X928526D01*
X925987Y-72712D01*
Y-77791D01*
X928526Y-80330D01*
X941222D02*
Y-70173D01*
X943761D01*
X946300Y-72712D01*
Y-80330D01*
Y-72712D01*
X948839Y-70173D01*
X951379Y-72712D01*
Y-80330D01*
X979310Y-65095D02*
X974231D01*
X971692Y-67634D01*
Y-77791D01*
X974231Y-80330D01*
X979310D01*
X981849Y-77791D01*
Y-67634D01*
X979310Y-65095D01*
X986927Y-70173D02*
X992005Y-80330D01*
X997084Y-70173D01*
X1009780Y-80330D02*
X1004701D01*
X1002162Y-77791D01*
Y-72712D01*
X1004701Y-70173D01*
X1009780D01*
X1012319Y-72712D01*
Y-75252D01*
X1002162D01*
X1017397Y-70173D02*
Y-80330D01*
Y-75252D01*
X1019936Y-72712D01*
X1022476Y-70173D01*
X1025015D01*
X1032632Y-80330D02*
X1037711D01*
X1035172D01*
Y-65095D01*
X1032632D01*
X1047867Y-70173D02*
X1052946D01*
X1055485Y-72712D01*
Y-80330D01*
X1047867D01*
X1045328Y-77791D01*
X1047867Y-75252D01*
X1055485D01*
X1060563Y-70173D02*
Y-77791D01*
X1063102Y-80330D01*
X1070720D01*
Y-82869D01*
X1068181Y-85408D01*
X1065642D01*
X1070720Y-80330D02*
Y-70173D01*
X870125Y-34615D02*
Y-49850D01*
X877742D01*
X880282Y-47311D01*
Y-44772D01*
X877742Y-42232D01*
X870125D01*
X877742D01*
X880282Y-39693D01*
Y-37154D01*
X877742Y-34615D01*
X870125D01*
X887899Y-49850D02*
X892978D01*
X895517Y-47311D01*
Y-42232D01*
X892978Y-39693D01*
X887899D01*
X885360Y-42232D01*
Y-47311D01*
X887899Y-49850D01*
X903134Y-37154D02*
Y-39693D01*
X900595D01*
X905673D01*
X903134D01*
Y-47311D01*
X905673Y-49850D01*
X915830Y-37154D02*
Y-39693D01*
X913291D01*
X918369D01*
X915830D01*
Y-47311D01*
X918369Y-49850D01*
X928526D02*
X933604D01*
X936143Y-47311D01*
Y-42232D01*
X933604Y-39693D01*
X928526D01*
X925987Y-42232D01*
Y-47311D01*
X928526Y-49850D01*
X941222D02*
Y-39693D01*
X943761D01*
X946300Y-42232D01*
Y-49850D01*
Y-42232D01*
X948839Y-39693D01*
X951379Y-42232D01*
Y-49850D01*
X981849Y-37154D02*
X979310Y-34615D01*
X974231D01*
X971692Y-37154D01*
Y-39693D01*
X974231Y-42232D01*
X979310D01*
X981849Y-44772D01*
Y-47311D01*
X979310Y-49850D01*
X974231D01*
X971692Y-47311D01*
X989466Y-49850D02*
X994545D01*
X997084Y-47311D01*
Y-42232D01*
X994545Y-39693D01*
X989466D01*
X986927Y-42232D01*
Y-47311D01*
X989466Y-49850D01*
X1002162D02*
X1007241D01*
X1004701D01*
Y-34615D01*
X1002162D01*
X1025015D02*
Y-49850D01*
X1017397D01*
X1014858Y-47311D01*
Y-42232D01*
X1017397Y-39693D01*
X1025015D01*
X1037711Y-49850D02*
X1032632D01*
X1030093Y-47311D01*
Y-42232D01*
X1032632Y-39693D01*
X1037711D01*
X1040250Y-42232D01*
Y-44772D01*
X1030093D01*
X1045328Y-39693D02*
Y-49850D01*
Y-44772D01*
X1047867Y-42232D01*
X1050407Y-39693D01*
X1052946D01*
X870125Y-4135D02*
Y-19370D01*
X877742D01*
X880282Y-16831D01*
Y-14292D01*
X877742Y-11753D01*
X870125D01*
X877742D01*
X880282Y-9213D01*
Y-6674D01*
X877742Y-4135D01*
X870125D01*
X887899Y-19370D02*
X892978D01*
X895517Y-16831D01*
Y-11753D01*
X892978Y-9213D01*
X887899D01*
X885360Y-11753D01*
Y-16831D01*
X887899Y-19370D01*
X903134Y-6674D02*
Y-9213D01*
X900595D01*
X905673D01*
X903134D01*
Y-16831D01*
X905673Y-19370D01*
X915830Y-6674D02*
Y-9213D01*
X913291D01*
X918369D01*
X915830D01*
Y-16831D01*
X918369Y-19370D01*
X928526D02*
X933604D01*
X936143Y-16831D01*
Y-11753D01*
X933604Y-9213D01*
X928526D01*
X925987Y-11753D01*
Y-16831D01*
X928526Y-19370D01*
X941222D02*
Y-9213D01*
X943761D01*
X946300Y-11753D01*
Y-19370D01*
Y-11753D01*
X948839Y-9213D01*
X951379Y-11753D01*
Y-19370D01*
X971692Y-4135D02*
Y-19370D01*
X981849D01*
X989466Y-9213D02*
X994545D01*
X997084Y-11753D01*
Y-19370D01*
X989466D01*
X986927Y-16831D01*
X989466Y-14292D01*
X997084D01*
X1002162Y-9213D02*
Y-16831D01*
X1004701Y-19370D01*
X1012319D01*
Y-21909D01*
X1009780Y-24448D01*
X1007241D01*
X1012319Y-19370D02*
Y-9213D01*
X1025015Y-19370D02*
X1019936D01*
X1017397Y-16831D01*
Y-11753D01*
X1019936Y-9213D01*
X1025015D01*
X1027554Y-11753D01*
Y-14292D01*
X1017397D01*
X1032632Y-9213D02*
Y-19370D01*
Y-14292D01*
X1035172Y-11753D01*
X1037711Y-9213D01*
X1040250D01*
X870125Y26345D02*
Y11110D01*
X877742D01*
X880282Y13649D01*
Y23806D01*
X877742Y26345D01*
X870125D01*
X885360Y11110D02*
X890438D01*
X887899D01*
Y21267D01*
X885360D01*
X905673Y11110D02*
X900595D01*
X898056Y13649D01*
Y18728D01*
X900595Y21267D01*
X905673D01*
X908213Y18728D01*
Y16188D01*
X898056D01*
X913291Y11110D02*
X918369D01*
X915830D01*
Y26345D01*
X913291D01*
X933604Y11110D02*
X928526D01*
X925987Y13649D01*
Y18728D01*
X928526Y21267D01*
X933604D01*
X936143Y18728D01*
Y16188D01*
X925987D01*
X951379Y21267D02*
X943761D01*
X941222Y18728D01*
Y13649D01*
X943761Y11110D01*
X951379D01*
X958996Y23806D02*
Y21267D01*
X956457D01*
X961535D01*
X958996D01*
Y13649D01*
X961535Y11110D01*
X969153Y21267D02*
Y11110D01*
Y16188D01*
X971692Y18728D01*
X974231Y21267D01*
X976770D01*
X984388Y11110D02*
X989466D01*
X986927D01*
Y21267D01*
X984388D01*
X1007241D02*
X999623D01*
X997084Y18728D01*
Y13649D01*
X999623Y11110D01*
X1007241D01*
X1027554Y23806D02*
X1030093Y26345D01*
X1035172D01*
X1037711Y23806D01*
Y21267D01*
X1035172Y18728D01*
X1032632D01*
X1035172D01*
X1037711Y16188D01*
Y13649D01*
X1035172Y11110D01*
X1030093D01*
X1027554Y13649D01*
X870125Y56825D02*
Y41590D01*
X880282D01*
X887899Y51747D02*
X892978D01*
X895517Y49208D01*
Y41590D01*
X887899D01*
X885360Y44129D01*
X887899Y46668D01*
X895517D01*
X900595Y51747D02*
Y44129D01*
X903134Y41590D01*
X910752D01*
Y39051D01*
X908213Y36512D01*
X905673D01*
X910752Y41590D02*
Y51747D01*
X923448Y41590D02*
X918369D01*
X915830Y44129D01*
Y49208D01*
X918369Y51747D01*
X923448D01*
X925987Y49208D01*
Y46668D01*
X915830D01*
X931065Y51747D02*
Y41590D01*
Y46668D01*
X933604Y49208D01*
X936143Y51747D01*
X938683D01*
X971692Y41590D02*
X961535D01*
X971692Y51747D01*
Y54286D01*
X969153Y56825D01*
X964074D01*
X961535Y54286D01*
X870125Y87305D02*
Y72070D01*
X877742D01*
X880282Y74609D01*
Y84766D01*
X877742Y87305D01*
X870125D01*
X885360Y72070D02*
X890438D01*
X887899D01*
Y82227D01*
X885360D01*
X905673Y72070D02*
X900595D01*
X898056Y74609D01*
Y79688D01*
X900595Y82227D01*
X905673D01*
X908213Y79688D01*
Y77148D01*
X898056D01*
X913291Y72070D02*
X918369D01*
X915830D01*
Y87305D01*
X913291D01*
X933604Y72070D02*
X928526D01*
X925987Y74609D01*
Y79688D01*
X928526Y82227D01*
X933604D01*
X936143Y79688D01*
Y77148D01*
X925987D01*
X951379Y82227D02*
X943761D01*
X941222Y79688D01*
Y74609D01*
X943761Y72070D01*
X951379D01*
X958996Y84766D02*
Y82227D01*
X956457D01*
X961535D01*
X958996D01*
Y74609D01*
X961535Y72070D01*
X969153Y82227D02*
Y72070D01*
Y77148D01*
X971692Y79688D01*
X974231Y82227D01*
X976770D01*
X984388Y72070D02*
X989466D01*
X986927D01*
Y82227D01*
X984388D01*
X1007241D02*
X999623D01*
X997084Y79688D01*
Y74609D01*
X999623Y72070D01*
X1007241D01*
X1027554D02*
X1032632D01*
X1030093D01*
Y87305D01*
X1027554Y84766D01*
X870125Y117785D02*
Y102550D01*
X880282D01*
X887899Y112707D02*
X892978D01*
X895517Y110168D01*
Y102550D01*
X887899D01*
X885360Y105089D01*
X887899Y107628D01*
X895517D01*
X900595Y112707D02*
Y105089D01*
X903134Y102550D01*
X910752D01*
Y100011D01*
X908213Y97472D01*
X905673D01*
X910752Y102550D02*
Y112707D01*
X923448Y102550D02*
X918369D01*
X915830Y105089D01*
Y110168D01*
X918369Y112707D01*
X923448D01*
X925987Y110168D01*
Y107628D01*
X915830D01*
X931065Y112707D02*
Y102550D01*
Y107628D01*
X933604Y110168D01*
X936143Y112707D01*
X938683D01*
X961535Y102550D02*
X966614D01*
X964074D01*
Y117785D01*
X961535Y115246D01*
X870125Y148265D02*
Y133030D01*
X877742D01*
X880282Y135569D01*
Y145726D01*
X877742Y148265D01*
X870125D01*
X885360Y133030D02*
X890438D01*
X887899D01*
Y143187D01*
X885360D01*
X905673Y133030D02*
X900595D01*
X898056Y135569D01*
Y140647D01*
X900595Y143187D01*
X905673D01*
X908213Y140647D01*
Y138108D01*
X898056D01*
X913291Y133030D02*
X918369D01*
X915830D01*
Y148265D01*
X913291D01*
X933604Y133030D02*
X928526D01*
X925987Y135569D01*
Y140647D01*
X928526Y143187D01*
X933604D01*
X936143Y140647D01*
Y138108D01*
X925987D01*
X951379Y143187D02*
X943761D01*
X941222Y140647D01*
Y135569D01*
X943761Y133030D01*
X951379D01*
X958996Y145726D02*
Y143187D01*
X956457D01*
X961535D01*
X958996D01*
Y135569D01*
X961535Y133030D01*
X969153Y143187D02*
Y133030D01*
Y138108D01*
X971692Y140647D01*
X974231Y143187D01*
X976770D01*
X984388Y133030D02*
X989466D01*
X986927D01*
Y143187D01*
X984388D01*
X1007241D02*
X999623D01*
X997084Y140647D01*
Y135569D01*
X999623Y133030D01*
X1007241D01*
X1037711D02*
X1027554D01*
X1037711Y143187D01*
Y145726D01*
X1035172Y148265D01*
X1030093D01*
X1027554Y145726D01*
X870125Y178745D02*
X880282D01*
X875203D01*
Y163510D01*
X887899D02*
X892978D01*
X895517Y166049D01*
Y171127D01*
X892978Y173667D01*
X887899D01*
X885360Y171127D01*
Y166049D01*
X887899Y163510D01*
X900595Y158432D02*
Y173667D01*
X908213D01*
X910752Y171127D01*
Y166049D01*
X908213Y163510D01*
X900595D01*
X931065Y178745D02*
Y163510D01*
X941222D01*
X948839Y173667D02*
X953918D01*
X956457Y171127D01*
Y163510D01*
X948839D01*
X946300Y166049D01*
X948839Y168588D01*
X956457D01*
X961535Y173667D02*
Y166049D01*
X964074Y163510D01*
X971692D01*
Y160971D01*
X969153Y158432D01*
X966614D01*
X971692Y163510D02*
Y173667D01*
X984388Y163510D02*
X979310D01*
X976770Y166049D01*
Y171127D01*
X979310Y173667D01*
X984388D01*
X986927Y171127D01*
Y168588D01*
X976770D01*
X992005Y173667D02*
Y163510D01*
Y168588D01*
X994545Y171127D01*
X997084Y173667D01*
X999623D01*
X870125Y209225D02*
X880282D01*
X875203D01*
Y193990D01*
X887899D02*
X892978D01*
X895517Y196529D01*
Y201607D01*
X892978Y204147D01*
X887899D01*
X885360Y201607D01*
Y196529D01*
X887899Y193990D01*
X900595Y188912D02*
Y204147D01*
X908213D01*
X910752Y201607D01*
Y196529D01*
X908213Y193990D01*
X900595D01*
X941222Y206686D02*
X938683Y209225D01*
X933604D01*
X931065Y206686D01*
Y204147D01*
X933604Y201607D01*
X938683D01*
X941222Y199068D01*
Y196529D01*
X938683Y193990D01*
X933604D01*
X931065Y196529D01*
X948839Y193990D02*
X953918D01*
X956457Y196529D01*
Y201607D01*
X953918Y204147D01*
X948839D01*
X946300Y201607D01*
Y196529D01*
X948839Y193990D01*
X961535D02*
X966614D01*
X964074D01*
Y209225D01*
X961535D01*
X984388D02*
Y193990D01*
X976770D01*
X974231Y196529D01*
Y201607D01*
X976770Y204147D01*
X984388D01*
X997084Y193990D02*
X992005D01*
X989466Y196529D01*
Y201607D01*
X992005Y204147D01*
X997084D01*
X999623Y201607D01*
Y199068D01*
X989466D01*
X1004701Y204147D02*
Y193990D01*
Y199068D01*
X1007241Y201607D01*
X1009780Y204147D01*
X1012319D01*
X870125Y239705D02*
X880282D01*
X875203D01*
Y224470D01*
X887899D02*
X892978D01*
X895517Y227009D01*
Y232087D01*
X892978Y234627D01*
X887899D01*
X885360Y232087D01*
Y227009D01*
X887899Y224470D01*
X900595Y219392D02*
Y234627D01*
X908213D01*
X910752Y232087D01*
Y227009D01*
X908213Y224470D01*
X900595D01*
X938683Y239705D02*
X933604D01*
X931065Y237166D01*
Y227009D01*
X933604Y224470D01*
X938683D01*
X941222Y227009D01*
Y237166D01*
X938683Y239705D01*
X946300Y234627D02*
X951379Y224470D01*
X956457Y234627D01*
X969153Y224470D02*
X964074D01*
X961535Y227009D01*
Y232087D01*
X964074Y234627D01*
X969153D01*
X971692Y232087D01*
Y229548D01*
X961535D01*
X976770Y234627D02*
Y224470D01*
Y229548D01*
X979310Y232087D01*
X981849Y234627D01*
X984388D01*
X992005Y224470D02*
X997084D01*
X994545D01*
Y239705D01*
X992005D01*
X1007241Y234627D02*
X1012319D01*
X1014858Y232087D01*
Y224470D01*
X1007241D01*
X1004701Y227009D01*
X1007241Y229548D01*
X1014858D01*
X1019936Y234627D02*
Y227009D01*
X1022476Y224470D01*
X1030093D01*
Y221931D01*
X1027554Y219392D01*
X1025015D01*
X1030093Y224470D02*
Y234627D01*
X1106280Y254950D02*
Y270185D01*
X1111358Y265107D01*
X1116437Y270185D01*
Y254950D01*
X1124054Y265107D02*
X1129133D01*
X1131672Y262568D01*
Y254950D01*
X1124054D01*
X1121515Y257489D01*
X1124054Y260028D01*
X1131672D01*
X1139289Y267646D02*
Y265107D01*
X1136750D01*
X1141829D01*
X1139289D01*
Y257489D01*
X1141829Y254950D01*
X1157064D02*
X1151985D01*
X1149446Y257489D01*
Y262568D01*
X1151985Y265107D01*
X1157064D01*
X1159603Y262568D01*
Y260028D01*
X1149446D01*
X1164681Y265107D02*
Y254950D01*
Y260028D01*
X1167220Y262568D01*
X1169760Y265107D01*
X1172299D01*
X1179916Y254950D02*
X1184995D01*
X1182455D01*
Y265107D01*
X1179916D01*
X1195151D02*
X1200230D01*
X1202769Y262568D01*
Y254950D01*
X1195151D01*
X1192612Y257489D01*
X1195151Y260028D01*
X1202769D01*
X1207847Y254950D02*
X1212925D01*
X1210386D01*
Y270185D01*
X1207847D01*
X1116437Y-37154D02*
X1113897Y-34615D01*
X1108819D01*
X1106280Y-37154D01*
Y-39693D01*
X1108819Y-42232D01*
X1113897D01*
X1116437Y-44772D01*
Y-47311D01*
X1113897Y-49850D01*
X1108819D01*
X1106280Y-47311D01*
X1124054Y-49850D02*
X1129133D01*
X1131672Y-47311D01*
Y-42232D01*
X1129133Y-39693D01*
X1124054D01*
X1121515Y-42232D01*
Y-47311D01*
X1124054Y-49850D01*
X1136750D02*
X1141829D01*
X1139289D01*
Y-34615D01*
X1136750D01*
X1159603D02*
Y-49850D01*
X1151985D01*
X1149446Y-47311D01*
Y-42232D01*
X1151985Y-39693D01*
X1159603D01*
X1172299Y-49850D02*
X1167220D01*
X1164681Y-47311D01*
Y-42232D01*
X1167220Y-39693D01*
X1172299D01*
X1174838Y-42232D01*
Y-44772D01*
X1164681D01*
X1179916Y-39693D02*
Y-49850D01*
Y-44772D01*
X1182455Y-42232D01*
X1184995Y-39693D01*
X1187534D01*
X1210386Y-49850D02*
Y-34615D01*
X1218004D01*
X1220543Y-37154D01*
Y-42232D01*
X1218004Y-44772D01*
X1210386D01*
X1215465D02*
X1220543Y-49850D01*
X1233239D02*
X1228161D01*
X1225621Y-47311D01*
Y-42232D01*
X1228161Y-39693D01*
X1233239D01*
X1235778Y-42232D01*
Y-44772D01*
X1225621D01*
X1240856Y-49850D02*
X1248474D01*
X1251013Y-47311D01*
X1248474Y-44772D01*
X1243396D01*
X1240856Y-42232D01*
X1243396Y-39693D01*
X1251013D01*
X1256092Y-49850D02*
X1261170D01*
X1258631D01*
Y-39693D01*
X1256092D01*
X1268787Y-49850D02*
X1276405D01*
X1278944Y-47311D01*
X1276405Y-44772D01*
X1271327D01*
X1268787Y-42232D01*
X1271327Y-39693D01*
X1278944D01*
X1286562Y-37154D02*
Y-39693D01*
X1284023D01*
X1289101D01*
X1286562D01*
Y-47311D01*
X1289101Y-49850D01*
X1106280Y11110D02*
Y26345D01*
X1113897D01*
X1116437Y23806D01*
Y18728D01*
X1113897Y16188D01*
X1106280D01*
X1121515Y11110D02*
Y26345D01*
X1129133D01*
X1131672Y23806D01*
Y18728D01*
X1129133Y16188D01*
X1121515D01*
X1136750Y18728D02*
X1146907D01*
X1151985Y23806D02*
X1154524Y26345D01*
X1159603D01*
X1162142Y23806D01*
Y13649D01*
X1159603Y11110D01*
X1154524D01*
X1151985Y13649D01*
Y23806D01*
X1167220D02*
X1169760Y26345D01*
X1174838D01*
X1177377Y23806D01*
Y13649D01*
X1174838Y11110D01*
X1169760D01*
X1167220Y13649D01*
Y23806D01*
X1192612Y26345D02*
X1187534Y23806D01*
X1182455Y18728D01*
Y13649D01*
X1184995Y11110D01*
X1190073D01*
X1192612Y13649D01*
Y16188D01*
X1190073Y18728D01*
X1182455D01*
X1116437Y54286D02*
X1113897Y56825D01*
X1108819D01*
X1106280Y54286D01*
Y44129D01*
X1108819Y41590D01*
X1113897D01*
X1116437Y44129D01*
X1131672Y56825D02*
X1121515D01*
Y49208D01*
X1126593D01*
X1121515D01*
Y41590D01*
X1136750Y49208D02*
X1146907D01*
X1151985Y54286D02*
X1154524Y56825D01*
X1159603D01*
X1162142Y54286D01*
Y44129D01*
X1159603Y41590D01*
X1154524D01*
X1151985Y44129D01*
Y54286D01*
X1167220D02*
X1169760Y56825D01*
X1174838D01*
X1177377Y54286D01*
Y44129D01*
X1174838Y41590D01*
X1169760D01*
X1167220Y44129D01*
Y54286D01*
X1190073Y41590D02*
Y56825D01*
X1182455Y49208D01*
X1192612D01*
X1116437Y87305D02*
X1106280D01*
Y79688D01*
X1111358D01*
X1106280D01*
Y72070D01*
X1121515D02*
Y87305D01*
X1129133D01*
X1131672Y84766D01*
Y79688D01*
X1129133Y77148D01*
X1121515D01*
X1126593D02*
X1131672Y72070D01*
X1136750Y79688D02*
X1146907D01*
X1159603Y72070D02*
Y87305D01*
X1151985Y79688D01*
X1162142D01*
X1116437Y115246D02*
X1113897Y117785D01*
X1108819D01*
X1106280Y115246D01*
Y105089D01*
X1108819Y102550D01*
X1113897D01*
X1116437Y105089D01*
X1131672Y117785D02*
X1121515D01*
Y110168D01*
X1126593D01*
X1121515D01*
Y102550D01*
X1136750Y110168D02*
X1146907D01*
X1151985Y115246D02*
X1154524Y117785D01*
X1159603D01*
X1162142Y115246D01*
Y105089D01*
X1159603Y102550D01*
X1154524D01*
X1151985Y105089D01*
Y115246D01*
X1167220D02*
X1169760Y117785D01*
X1174838D01*
X1177377Y115246D01*
Y105089D01*
X1174838Y102550D01*
X1169760D01*
X1167220Y105089D01*
Y115246D01*
X1190073Y102550D02*
Y117785D01*
X1182455Y110168D01*
X1192612D01*
X1106280Y133030D02*
Y148265D01*
X1113897D01*
X1116437Y145726D01*
Y140647D01*
X1113897Y138108D01*
X1106280D01*
X1121515Y133030D02*
Y148265D01*
X1129133D01*
X1131672Y145726D01*
Y140647D01*
X1129133Y138108D01*
X1121515D01*
X1136750Y140647D02*
X1146907D01*
X1151985Y145726D02*
X1154524Y148265D01*
X1159603D01*
X1162142Y145726D01*
Y135569D01*
X1159603Y133030D01*
X1154524D01*
X1151985Y135569D01*
Y145726D01*
X1167220D02*
X1169760Y148265D01*
X1174838D01*
X1177377Y145726D01*
Y135569D01*
X1174838Y133030D01*
X1169760D01*
X1167220Y135569D01*
Y145726D01*
X1192612Y148265D02*
X1187534Y145726D01*
X1182455Y140647D01*
Y135569D01*
X1184995Y133030D01*
X1190073D01*
X1192612Y135569D01*
Y138108D01*
X1190073Y140647D01*
X1182455D01*
X1116437Y206686D02*
X1113897Y209225D01*
X1108819D01*
X1106280Y206686D01*
Y204147D01*
X1108819Y201607D01*
X1113897D01*
X1116437Y199068D01*
Y196529D01*
X1113897Y193990D01*
X1108819D01*
X1106280Y196529D01*
X1124054Y193990D02*
X1129133D01*
X1131672Y196529D01*
Y201607D01*
X1129133Y204147D01*
X1124054D01*
X1121515Y201607D01*
Y196529D01*
X1124054Y193990D01*
X1136750D02*
X1141829D01*
X1139289D01*
Y209225D01*
X1136750D01*
X1159603D02*
Y193990D01*
X1151985D01*
X1149446Y196529D01*
Y201607D01*
X1151985Y204147D01*
X1159603D01*
X1172299Y193990D02*
X1167220D01*
X1164681Y196529D01*
Y201607D01*
X1167220Y204147D01*
X1172299D01*
X1174838Y201607D01*
Y199068D01*
X1164681D01*
X1179916Y204147D02*
Y193990D01*
Y199068D01*
X1182455Y201607D01*
X1184995Y204147D01*
X1187534D01*
X1210386Y193990D02*
Y209225D01*
X1218004D01*
X1220543Y206686D01*
Y201607D01*
X1218004Y199068D01*
X1210386D01*
X1215465D02*
X1220543Y193990D01*
X1233239D02*
X1228161D01*
X1225621Y196529D01*
Y201607D01*
X1228161Y204147D01*
X1233239D01*
X1235778Y201607D01*
Y199068D01*
X1225621D01*
X1240856Y193990D02*
X1248474D01*
X1251013Y196529D01*
X1248474Y199068D01*
X1243396D01*
X1240856Y201607D01*
X1243396Y204147D01*
X1251013D01*
X1256092Y193990D02*
X1261170D01*
X1258631D01*
Y204147D01*
X1256092D01*
X1268787Y193990D02*
X1276405D01*
X1278944Y196529D01*
X1276405Y199068D01*
X1271327D01*
X1268787Y201607D01*
X1271327Y204147D01*
X1278944D01*
X1286562Y206686D02*
Y204147D01*
X1284023D01*
X1289101D01*
X1286562D01*
Y196529D01*
X1289101Y193990D01*
X1324661Y270185D02*
X1334818D01*
X1329739D01*
Y254950D01*
X1339896Y270185D02*
Y254950D01*
Y262568D01*
X1342435Y265107D01*
X1347513D01*
X1350053Y262568D01*
Y254950D01*
X1355131D02*
X1360209D01*
X1357670D01*
Y265107D01*
X1355131D01*
X1377984D02*
X1370366D01*
X1367827Y262568D01*
Y257489D01*
X1370366Y254950D01*
X1377984D01*
X1383062D02*
Y270185D01*
Y260028D02*
X1390679Y265107D01*
X1383062Y260028D02*
X1390679Y254950D01*
X1398297D02*
Y265107D01*
X1405915D01*
X1408454Y262568D01*
Y254950D01*
X1421150D02*
X1416071D01*
X1413532Y257489D01*
Y262568D01*
X1416071Y265107D01*
X1421150D01*
X1423689Y262568D01*
Y260028D01*
X1413532D01*
X1428767Y254950D02*
X1436385D01*
X1438924Y257489D01*
X1436385Y260028D01*
X1431306D01*
X1428767Y262568D01*
X1431306Y265107D01*
X1438924D01*
X1444002Y254950D02*
X1451620D01*
X1454159Y257489D01*
X1451620Y260028D01*
X1446541D01*
X1444002Y262568D01*
X1446541Y265107D01*
X1454159D01*
X1324661Y-37154D02*
X1327200Y-34615D01*
X1332278D01*
X1334818Y-37154D01*
Y-47311D01*
X1332278Y-49850D01*
X1327200D01*
X1324661Y-47311D01*
Y-37154D01*
X1342435Y-52389D02*
X1344974Y-49850D01*
Y-47311D01*
X1342435D01*
Y-49850D01*
X1344974D01*
X1342435Y-52389D01*
X1339896Y-54928D01*
X1355131Y-37154D02*
X1357670Y-34615D01*
X1362749D01*
X1365288Y-37154D01*
Y-47311D01*
X1362749Y-49850D01*
X1357670D01*
X1355131Y-47311D01*
Y-37154D01*
X1370366Y-49850D02*
X1375444D01*
X1372905D01*
Y-34615D01*
X1370366Y-37154D01*
X1383062D02*
X1385601Y-34615D01*
X1390679D01*
X1393219Y-37154D01*
Y-47311D01*
X1390679Y-49850D01*
X1385601D01*
X1383062Y-47311D01*
Y-37154D01*
X1398297Y-49850D02*
Y-39693D01*
X1400836D01*
X1403375Y-42232D01*
Y-49850D01*
Y-42232D01*
X1405915Y-39693D01*
X1408454Y-42232D01*
Y-49850D01*
X1413532D02*
Y-39693D01*
X1416071D01*
X1418610Y-42232D01*
Y-49850D01*
Y-42232D01*
X1421150Y-39693D01*
X1423689Y-42232D01*
Y-49850D01*
X1324661Y-6674D02*
X1327200Y-4135D01*
X1332278D01*
X1334818Y-6674D01*
Y-16831D01*
X1332278Y-19370D01*
X1327200D01*
X1324661Y-16831D01*
Y-6674D01*
X1342435Y-21909D02*
X1344974Y-19370D01*
Y-16831D01*
X1342435D01*
Y-19370D01*
X1344974D01*
X1342435Y-21909D01*
X1339896Y-24448D01*
X1355131Y-6674D02*
X1357670Y-4135D01*
X1362749D01*
X1365288Y-6674D01*
Y-16831D01*
X1362749Y-19370D01*
X1357670D01*
X1355131Y-16831D01*
Y-6674D01*
X1380523Y-4135D02*
X1370366D01*
Y-11753D01*
X1375444Y-9213D01*
X1377984D01*
X1380523Y-11753D01*
Y-16831D01*
X1377984Y-19370D01*
X1372905D01*
X1370366Y-16831D01*
X1395758Y-4135D02*
X1385601D01*
Y-11753D01*
X1390679Y-9213D01*
X1393219D01*
X1395758Y-11753D01*
Y-16831D01*
X1393219Y-19370D01*
X1388140D01*
X1385601Y-16831D01*
X1400836Y-19370D02*
Y-9213D01*
X1403375D01*
X1405915Y-11753D01*
Y-19370D01*
Y-11753D01*
X1408454Y-9213D01*
X1410993Y-11753D01*
Y-19370D01*
X1416071D02*
Y-9213D01*
X1418611D01*
X1421150Y-11753D01*
Y-19370D01*
Y-11753D01*
X1423689Y-9213D01*
X1426228Y-11753D01*
Y-19370D01*
X1324661Y23806D02*
X1327200Y26345D01*
X1332278D01*
X1334818Y23806D01*
Y13649D01*
X1332278Y11110D01*
X1327200D01*
X1324661Y13649D01*
Y23806D01*
X1342435Y8571D02*
X1344974Y11110D01*
Y13649D01*
X1342435D01*
Y11110D01*
X1344974D01*
X1342435Y8571D01*
X1339896Y6032D01*
X1355131Y23806D02*
X1357670Y26345D01*
X1362749D01*
X1365288Y23806D01*
Y21267D01*
X1362749Y18728D01*
X1360209D01*
X1362749D01*
X1365288Y16188D01*
Y13649D01*
X1362749Y11110D01*
X1357670D01*
X1355131Y13649D01*
X1380523Y26345D02*
X1375444Y23806D01*
X1370366Y18728D01*
Y13649D01*
X1372905Y11110D01*
X1377984D01*
X1380523Y13649D01*
Y16188D01*
X1377984Y18728D01*
X1370366D01*
X1385601Y23806D02*
X1388140Y26345D01*
X1393219D01*
X1395758Y23806D01*
Y13649D01*
X1393219Y11110D01*
X1388140D01*
X1385601Y13649D01*
Y23806D01*
X1400836Y11110D02*
Y21267D01*
X1403375D01*
X1405915Y18728D01*
Y11110D01*
Y18728D01*
X1408454Y21267D01*
X1410993Y18728D01*
Y11110D01*
X1416071D02*
Y21267D01*
X1418611D01*
X1421150Y18728D01*
Y11110D01*
Y18728D01*
X1423689Y21267D01*
X1426228Y18728D01*
Y11110D01*
X1324661Y54286D02*
X1327200Y56825D01*
X1332278D01*
X1334818Y54286D01*
Y44129D01*
X1332278Y41590D01*
X1327200D01*
X1324661Y44129D01*
Y54286D01*
X1342435Y39051D02*
X1344974Y41590D01*
Y44129D01*
X1342435D01*
Y41590D01*
X1344974D01*
X1342435Y39051D01*
X1339896Y36512D01*
X1355131Y54286D02*
X1357670Y56825D01*
X1362749D01*
X1365288Y54286D01*
Y44129D01*
X1362749Y41590D01*
X1357670D01*
X1355131Y44129D01*
Y54286D01*
X1370366D02*
X1372905Y56825D01*
X1377984D01*
X1380523Y54286D01*
Y51747D01*
X1377984Y49208D01*
X1375444D01*
X1377984D01*
X1380523Y46668D01*
Y44129D01*
X1377984Y41590D01*
X1372905D01*
X1370366Y44129D01*
X1395758Y56825D02*
X1385601D01*
Y49208D01*
X1390679Y51747D01*
X1393219D01*
X1395758Y49208D01*
Y44129D01*
X1393219Y41590D01*
X1388140D01*
X1385601Y44129D01*
X1400836Y41590D02*
Y51747D01*
X1403375D01*
X1405915Y49208D01*
Y41590D01*
Y49208D01*
X1408454Y51747D01*
X1410993Y49208D01*
Y41590D01*
X1416071D02*
Y51747D01*
X1418611D01*
X1421150Y49208D01*
Y41590D01*
Y49208D01*
X1423689Y51747D01*
X1426228Y49208D01*
Y41590D01*
X1324661Y84766D02*
X1327200Y87305D01*
X1332278D01*
X1334818Y84766D01*
Y74609D01*
X1332278Y72070D01*
X1327200D01*
X1324661Y74609D01*
Y84766D01*
X1342435Y69531D02*
X1344974Y72070D01*
Y74609D01*
X1342435D01*
Y72070D01*
X1344974D01*
X1342435Y69531D01*
X1339896Y66992D01*
X1355131Y84766D02*
X1357670Y87305D01*
X1362749D01*
X1365288Y84766D01*
Y74609D01*
X1362749Y72070D01*
X1357670D01*
X1355131Y74609D01*
Y84766D01*
X1370366D02*
X1372905Y87305D01*
X1377984D01*
X1380523Y84766D01*
Y82227D01*
X1377984Y79688D01*
X1380523Y77148D01*
Y74609D01*
X1377984Y72070D01*
X1372905D01*
X1370366Y74609D01*
Y77148D01*
X1372905Y79688D01*
X1370366Y82227D01*
Y84766D01*
X1372905Y79688D02*
X1377984D01*
X1385601Y84766D02*
X1388140Y87305D01*
X1393219D01*
X1395758Y84766D01*
Y74609D01*
X1393219Y72070D01*
X1388140D01*
X1385601Y74609D01*
Y84766D01*
X1400836Y72070D02*
Y82227D01*
X1403375D01*
X1405915Y79688D01*
Y72070D01*
Y79688D01*
X1408454Y82227D01*
X1410993Y79688D01*
Y72070D01*
X1416071D02*
Y82227D01*
X1418611D01*
X1421150Y79688D01*
Y72070D01*
Y79688D01*
X1423689Y82227D01*
X1426228Y79688D01*
Y72070D01*
X1324661Y115246D02*
X1327200Y117785D01*
X1332278D01*
X1334818Y115246D01*
Y105089D01*
X1332278Y102550D01*
X1327200D01*
X1324661Y105089D01*
Y115246D01*
X1342435Y100011D02*
X1344974Y102550D01*
Y105089D01*
X1342435D01*
Y102550D01*
X1344974D01*
X1342435Y100011D01*
X1339896Y97472D01*
X1355131Y115246D02*
X1357670Y117785D01*
X1362749D01*
X1365288Y115246D01*
Y105089D01*
X1362749Y102550D01*
X1357670D01*
X1355131Y105089D01*
Y115246D01*
X1370366D02*
X1372905Y117785D01*
X1377984D01*
X1380523Y115246D01*
Y112707D01*
X1377984Y110168D01*
X1375444D01*
X1377984D01*
X1380523Y107628D01*
Y105089D01*
X1377984Y102550D01*
X1372905D01*
X1370366Y105089D01*
X1395758Y117785D02*
X1385601D01*
Y110168D01*
X1390679Y112707D01*
X1393219D01*
X1395758Y110168D01*
Y105089D01*
X1393219Y102550D01*
X1388140D01*
X1385601Y105089D01*
X1400836Y102550D02*
Y112707D01*
X1403375D01*
X1405915Y110168D01*
Y102550D01*
Y110168D01*
X1408454Y112707D01*
X1410993Y110168D01*
Y102550D01*
X1416071D02*
Y112707D01*
X1418611D01*
X1421150Y110168D01*
Y102550D01*
Y110168D01*
X1423689Y112707D01*
X1426228Y110168D01*
Y102550D01*
X1324661Y145726D02*
X1327200Y148265D01*
X1332278D01*
X1334818Y145726D01*
Y135569D01*
X1332278Y133030D01*
X1327200D01*
X1324661Y135569D01*
Y145726D01*
X1342435Y130491D02*
X1344974Y133030D01*
Y135569D01*
X1342435D01*
Y133030D01*
X1344974D01*
X1342435Y130491D01*
X1339896Y127952D01*
X1362749Y133030D02*
Y148265D01*
X1355131Y140647D01*
X1365288D01*
X1370366Y145726D02*
X1372905Y148265D01*
X1377984D01*
X1380523Y145726D01*
Y135569D01*
X1377984Y133030D01*
X1372905D01*
X1370366Y135569D01*
Y145726D01*
X1385601D02*
X1388140Y148265D01*
X1393219D01*
X1395758Y145726D01*
Y135569D01*
X1393219Y133030D01*
X1388140D01*
X1385601Y135569D01*
Y145726D01*
X1400836Y133030D02*
Y143187D01*
X1403375D01*
X1405915Y140647D01*
Y133030D01*
Y140647D01*
X1408454Y143187D01*
X1410993Y140647D01*
Y133030D01*
X1416071D02*
Y143187D01*
X1418611D01*
X1421150Y140647D01*
Y133030D01*
Y140647D01*
X1423689Y143187D01*
X1426228Y140647D01*
Y133030D01*
X1324661Y176206D02*
X1327200Y178745D01*
X1332278D01*
X1334818Y176206D01*
Y166049D01*
X1332278Y163510D01*
X1327200D01*
X1324661Y166049D01*
Y176206D01*
X1342435Y160971D02*
X1344974Y163510D01*
Y166049D01*
X1342435D01*
Y163510D01*
X1344974D01*
X1342435Y160971D01*
X1339896Y158432D01*
X1355131Y176206D02*
X1357670Y178745D01*
X1362749D01*
X1365288Y176206D01*
Y166049D01*
X1362749Y163510D01*
X1357670D01*
X1355131Y166049D01*
Y176206D01*
X1380523Y178745D02*
X1370366D01*
Y171127D01*
X1375444Y173667D01*
X1377984D01*
X1380523Y171127D01*
Y166049D01*
X1377984Y163510D01*
X1372905D01*
X1370366Y166049D01*
X1395758Y178745D02*
X1385601D01*
Y171127D01*
X1390679Y173667D01*
X1393219D01*
X1395758Y171127D01*
Y166049D01*
X1393219Y163510D01*
X1388140D01*
X1385601Y166049D01*
X1400836Y163510D02*
Y173667D01*
X1403375D01*
X1405915Y171127D01*
Y163510D01*
Y171127D01*
X1408454Y173667D01*
X1410993Y171127D01*
Y163510D01*
X1416071D02*
Y173667D01*
X1418611D01*
X1421150Y171127D01*
Y163510D01*
Y171127D01*
X1423689Y173667D01*
X1426228Y171127D01*
Y163510D01*
X1324661Y206686D02*
X1327200Y209225D01*
X1332278D01*
X1334818Y206686D01*
Y196529D01*
X1332278Y193990D01*
X1327200D01*
X1324661Y196529D01*
Y206686D01*
X1342435Y191451D02*
X1344974Y193990D01*
Y196529D01*
X1342435D01*
Y193990D01*
X1344974D01*
X1342435Y191451D01*
X1339896Y188912D01*
X1355131Y206686D02*
X1357670Y209225D01*
X1362749D01*
X1365288Y206686D01*
Y196529D01*
X1362749Y193990D01*
X1357670D01*
X1355131Y196529D01*
Y206686D01*
X1370366Y193990D02*
X1375444D01*
X1372905D01*
Y209225D01*
X1370366Y206686D01*
X1383062D02*
X1385601Y209225D01*
X1390679D01*
X1393219Y206686D01*
Y196529D01*
X1390679Y193990D01*
X1385601D01*
X1383062Y196529D01*
Y206686D01*
X1398297Y193990D02*
Y204147D01*
X1400836D01*
X1403375Y201607D01*
Y193990D01*
Y201607D01*
X1405915Y204147D01*
X1408454Y201607D01*
Y193990D01*
X1413532D02*
Y204147D01*
X1416071D01*
X1418610Y201607D01*
Y193990D01*
Y201607D01*
X1421150Y204147D01*
X1423689Y201607D01*
Y193990D01*
X1499876Y267646D02*
X1497336Y270185D01*
X1492258D01*
X1489719Y267646D01*
Y257489D01*
X1492258Y254950D01*
X1497336D01*
X1499876Y257489D01*
X1507493Y254950D02*
X1512572D01*
X1515111Y257489D01*
Y262568D01*
X1512572Y265107D01*
X1507493D01*
X1504954Y262568D01*
Y257489D01*
X1507493Y254950D01*
X1520189D02*
Y265107D01*
X1527807D01*
X1530346Y262568D01*
Y254950D01*
X1535424D02*
X1543042D01*
X1545581Y257489D01*
X1543042Y260028D01*
X1537963D01*
X1535424Y262568D01*
X1537963Y265107D01*
X1545581D01*
X1553198Y267646D02*
Y265107D01*
X1550659D01*
X1555738D01*
X1553198D01*
Y257489D01*
X1555738Y254950D01*
X1565894Y265107D02*
X1570973D01*
X1573512Y262568D01*
Y254950D01*
X1565894D01*
X1563355Y257489D01*
X1565894Y260028D01*
X1573512D01*
X1578590Y254950D02*
Y265107D01*
X1586208D01*
X1588747Y262568D01*
Y254950D01*
X1596364Y267646D02*
Y265107D01*
X1593825D01*
X1598904D01*
X1596364D01*
Y257489D01*
X1598904Y254950D01*
X1489719Y-37154D02*
X1492258Y-34615D01*
X1497336D01*
X1499876Y-37154D01*
Y-39693D01*
X1497336Y-42232D01*
X1494797D01*
X1497336D01*
X1499876Y-44772D01*
Y-47311D01*
X1497336Y-49850D01*
X1492258D01*
X1489719Y-47311D01*
X1504954Y-49850D02*
Y-47311D01*
X1507493D01*
Y-49850D01*
X1504954D01*
X1527807Y-34615D02*
X1517650D01*
Y-42232D01*
X1522728Y-39693D01*
X1525267D01*
X1527807Y-42232D01*
Y-47311D01*
X1525267Y-49850D01*
X1520189D01*
X1517650Y-47311D01*
X1497336Y11110D02*
Y26345D01*
X1489719Y18728D01*
X1499876D01*
X1504954Y11110D02*
Y13649D01*
X1507493D01*
Y11110D01*
X1504954D01*
X1517650Y23806D02*
X1520189Y26345D01*
X1525267D01*
X1527807Y23806D01*
Y21267D01*
X1525267Y18728D01*
X1522728D01*
X1525267D01*
X1527807Y16188D01*
Y13649D01*
X1525267Y11110D01*
X1520189D01*
X1517650Y13649D01*
X1497336Y72070D02*
Y87305D01*
X1489719Y79688D01*
X1499876D01*
X1504954Y72070D02*
Y74609D01*
X1507493D01*
Y72070D01*
X1504954D01*
X1527807D02*
X1517650D01*
X1527807Y82227D01*
Y84766D01*
X1525267Y87305D01*
X1520189D01*
X1517650Y84766D01*
X1497336Y133030D02*
Y148265D01*
X1489719Y140647D01*
X1499876D01*
X1504954Y133030D02*
Y135569D01*
X1507493D01*
Y133030D01*
X1504954D01*
X1517650Y145726D02*
X1520189Y148265D01*
X1525267D01*
X1527807Y145726D01*
Y143187D01*
X1525267Y140647D01*
X1522728D01*
X1525267D01*
X1527807Y138108D01*
Y135569D01*
X1525267Y133030D01*
X1520189D01*
X1517650Y135569D01*
X1489719Y206686D02*
X1492258Y209225D01*
X1497336D01*
X1499876Y206686D01*
Y204147D01*
X1497336Y201607D01*
X1494797D01*
X1497336D01*
X1499876Y199068D01*
Y196529D01*
X1497336Y193990D01*
X1492258D01*
X1489719Y196529D01*
X1504954Y193990D02*
Y196529D01*
X1507493D01*
Y193990D01*
X1504954D01*
X1527807Y209225D02*
X1517650D01*
Y201607D01*
X1522728Y204147D01*
X1525267D01*
X1527807Y201607D01*
Y196529D01*
X1525267Y193990D01*
X1520189D01*
X1517650Y196529D01*
D11*
X0Y127250D02*
Y262975D01*
Y280000D01*
Y127250D02*
X30000D01*
Y77750D02*
Y127250D01*
X0Y77750D02*
X30000D01*
X0Y0D02*
Y77750D01*
Y280000D02*
X650000D01*
Y0D02*
Y280000D01*
X0Y0D02*
X650000D01*
D15*
X748227Y247330D02*
X1616684D01*
X748227Y277810D02*
X1616684D01*
X748227Y-87950D02*
Y277810D01*
Y-87950D02*
X852345D01*
X748227Y-57470D02*
X852345D01*
X748227Y-26990D02*
X852345D01*
X748227Y3490D02*
X852345D01*
X748227Y33970D02*
X852345D01*
X748227Y64450D02*
X852345D01*
X748227Y94930D02*
X852345D01*
X748227Y125410D02*
X852345D01*
X748227Y155890D02*
X852345D01*
X748227Y186370D02*
X852345D01*
X748227Y216850D02*
X852345D01*
Y-87950D02*
Y277810D01*
Y-87950D02*
X1088500D01*
X852345Y-57470D02*
X1088500D01*
X852345Y-26990D02*
X1088500D01*
X852345Y3490D02*
X1088500D01*
X852345Y33970D02*
X1088500D01*
X852345Y64450D02*
X1088500D01*
X852345Y94930D02*
X1088500D01*
X852345Y125410D02*
X1088500D01*
X852345Y155890D02*
X1088500D01*
X852345Y186370D02*
X1088500D01*
X852345Y216850D02*
X1088500D01*
Y-87950D02*
Y277810D01*
Y-87950D02*
X1306881D01*
X1088500Y-57470D02*
X1306881D01*
X1088500Y-26990D02*
X1306881D01*
X1088500Y3490D02*
X1306881D01*
X1088500Y33970D02*
X1306881D01*
X1088500Y64450D02*
X1306881D01*
X1088500Y94930D02*
X1306881D01*
X1088500Y125410D02*
X1306881D01*
X1088500Y155890D02*
X1306881D01*
X1088500Y186370D02*
X1306881D01*
X1088500Y216850D02*
X1306881D01*
Y-87950D02*
Y277810D01*
Y-87950D02*
X1471939D01*
X1306881Y-57470D02*
X1471939D01*
X1306881Y-26990D02*
X1471939D01*
X1306881Y3490D02*
X1471939D01*
X1306881Y33970D02*
X1471939D01*
X1306881Y64450D02*
X1471939D01*
X1306881Y94930D02*
X1471939D01*
X1306881Y125410D02*
X1471939D01*
X1306881Y155890D02*
X1471939D01*
X1306881Y186370D02*
X1471939D01*
X1306881Y216850D02*
X1471939D01*
Y-87950D02*
Y277810D01*
Y-87950D02*
X1616684D01*
X1471939Y-57470D02*
X1616684D01*
X1471939Y-26990D02*
X1616684D01*
X1471939Y3490D02*
X1616684D01*
X1471939Y33970D02*
X1616684D01*
X1471939Y64450D02*
X1616684D01*
X1471939Y94930D02*
X1616684D01*
X1471939Y125410D02*
X1616684D01*
X1471939Y155890D02*
X1616684D01*
X1471939Y186370D02*
X1616684D01*
X1471939Y216850D02*
X1616684D01*
Y-87950D02*
Y277810D01*
D41*
X52300Y166800D02*
D03*
Y253200D02*
D03*
D42*
X10500Y166800D02*
D03*
Y253200D02*
D03*
D45*
X380200Y225000D02*
D03*
X320200D02*
D03*
D47*
X471500Y262400D02*
D03*
X496900Y211600D02*
D03*
Y68400D02*
D03*
X547700D02*
D03*
X522300Y17600D02*
D03*
D48*
X573100Y262400D02*
D03*
X598500Y68400D02*
D03*
D49*
X601000Y122500D02*
D03*
D51*
X615000Y255000D02*
D03*
D54*
X10500Y253200D02*
X52300D01*
X10575Y166875D02*
X52225D01*
X10500Y166800D02*
Y253200D01*
X52300Y267300D02*
X60250Y275250D01*
X52300Y253200D02*
Y267300D01*
X60250Y275250D02*
X594750D01*
X615000Y255000D01*
D57*
X545000Y140000D02*
D03*
X540000Y132500D02*
D03*
X550000D02*
D03*
Y147500D02*
D03*
X540000D02*
D03*
X76000Y249000D02*
D03*
X71250Y171500D02*
D03*
X77652Y124096D02*
D03*
X78098Y117111D02*
D03*
X77341Y110152D02*
D03*
X70341D02*
D03*
X64250Y114250D02*
D03*
X57530Y114348D02*
D03*
X50530D02*
D03*
X43530D02*
D03*
X36530D02*
D03*
X37731Y90652D02*
D03*
X44731D02*
D03*
X51731D02*
D03*
X58731D02*
D03*
X65677Y91525D02*
D03*
X72082Y94348D02*
D03*
X79082D02*
D03*
X92853Y94477D02*
D03*
X94598Y101256D02*
D03*
X109616Y183402D02*
D03*
X102618Y183264D02*
D03*
X95809Y181638D02*
D03*
X89817Y178020D02*
D03*
X84966Y172973D02*
D03*
X81322Y166996D02*
D03*
X79044Y160378D02*
D03*
X78105Y153441D02*
D03*
X78098Y146441D02*
D03*
Y139441D02*
D03*
X77652Y132455D02*
D03*
X94500Y125250D02*
D03*
Y134250D02*
D03*
X93902Y149185D02*
D03*
X94237Y156177D02*
D03*
X96975Y162619D02*
D03*
X102292Y167172D02*
D03*
X109279Y167598D02*
D03*
X135490Y170958D02*
D03*
X135598Y177957D02*
D03*
X582500Y120000D02*
D03*
X507770Y115500D02*
D03*
X208250Y233000D02*
D03*
X7500Y7500D02*
D03*
Y50000D02*
D03*
X437500Y7500D02*
D03*
X460000D02*
D03*
X482500D02*
D03*
X505000D02*
D03*
X535000D02*
D03*
X557500D02*
D03*
X597500D02*
D03*
X615000D02*
D03*
X635000D02*
D03*
X642500Y17500D02*
D03*
Y37500D02*
D03*
Y57500D02*
D03*
Y75000D02*
D03*
Y92500D02*
D03*
Y127500D02*
D03*
Y145000D02*
D03*
Y200000D02*
D03*
Y217500D02*
D03*
Y235000D02*
D03*
Y272500D02*
D03*
X555000Y265000D02*
D03*
X540000D02*
D03*
X502500D02*
D03*
X487500D02*
D03*
X197070Y226370D02*
D03*
X89500Y191250D02*
D03*
X108750Y225000D02*
D03*
X121500Y237250D02*
D03*
X44500Y141250D02*
D03*
X621000Y221000D02*
D03*
Y196000D02*
D03*
Y146000D02*
D03*
Y121000D02*
D03*
Y71000D02*
D03*
Y46000D02*
D03*
Y21000D02*
D03*
X596000Y221000D02*
D03*
Y196000D02*
D03*
Y96000D02*
D03*
Y21000D02*
D03*
X571000Y221000D02*
D03*
Y196000D02*
D03*
Y96000D02*
D03*
Y71000D02*
D03*
X546000Y196000D02*
D03*
Y121000D02*
D03*
Y96000D02*
D03*
Y21000D02*
D03*
X521000Y221000D02*
D03*
Y71000D02*
D03*
X496000Y21000D02*
D03*
X471000Y71000D02*
D03*
Y46000D02*
D03*
Y21000D02*
D03*
X446000Y96000D02*
D03*
Y21000D02*
D03*
X421000Y221000D02*
D03*
X371000Y246000D02*
D03*
X296000D02*
D03*
Y46000D02*
D03*
X271000Y246000D02*
D03*
X246000D02*
D03*
X196000Y96000D02*
D03*
Y71000D02*
D03*
X21000D02*
D03*
X36000Y141250D02*
D03*
X66500Y130500D02*
D03*
X380750Y183500D02*
D03*
X155750Y167500D02*
D03*
X136000Y72000D02*
D03*
X260750Y189000D02*
D03*
X114500Y267250D02*
D03*
X130500Y267500D02*
D03*
X427500Y181750D02*
D03*
X283000Y142000D02*
D03*
X26250Y61750D02*
D03*
X12000Y61500D02*
D03*
X197500Y203000D02*
D03*
X155000Y241750D02*
D03*
X134000Y164500D02*
D03*
X420500Y122770D02*
D03*
X237228Y115000D02*
D03*
X227230Y135500D02*
D03*
X515000Y78230D02*
D03*
X80270Y72000D02*
D03*
X94730D02*
D03*
X470000Y176980D02*
D03*
X433000Y235270D02*
D03*
X79730Y240250D02*
D03*
X380770Y163750D02*
D03*
X525270Y115500D02*
D03*
X86000Y81480D02*
D03*
X291730Y176250D02*
D03*
X134770Y186500D02*
D03*
X111230Y65500D02*
D03*
Y43500D02*
D03*
X283770Y87500D02*
D03*
X145000Y178730D02*
D03*
X240230Y188500D02*
D03*
X208000Y157730D02*
D03*
X187000D02*
D03*
X166000D02*
D03*
Y136730D02*
D03*
X187000D02*
D03*
X208000D02*
D03*
X219230Y146500D02*
D03*
X240230Y125500D02*
D03*
X219230D02*
D03*
X196770D02*
D03*
X175770D02*
D03*
X154770Y104500D02*
D03*
X166000Y114270D02*
D03*
X187000D02*
D03*
X208000D02*
D03*
X229000D02*
D03*
X240230Y104500D02*
D03*
Y83500D02*
D03*
X229000Y93270D02*
D03*
X208000D02*
D03*
X187000D02*
D03*
X166000D02*
D03*
X145000D02*
D03*
Y72270D02*
D03*
X166000D02*
D03*
X187000D02*
D03*
X208000D02*
D03*
X229000D02*
D03*
X250000D02*
D03*
Y51270D02*
D03*
X229000D02*
D03*
X208000D02*
D03*
X187000D02*
D03*
X166000D02*
D03*
X145000D02*
D03*
M02*
