G04*
G04 #@! TF.GenerationSoftware,Altium Limited,Altium Designer,23.10.1 (27)*
G04*
G04 Layer_Color=16777215*
%FSLAX44Y44*%
%MOMM*%
G71*
G04*
G04 #@! TF.SameCoordinates,12E47488-CEE1-414F-AB97-9C1FAA11A261*
G04*
G04*
G04 #@! TF.FilePolarity,Positive*
G04*
G01*
G75*
%ADD10C,0.2540*%
%ADD11C,0.2000*%
%ADD12C,0.3000*%
%ADD13C,0.1500*%
%ADD14C,0.1000*%
%ADD15C,0.3810*%
D10*
X532283Y153200D02*
G03*
X532283Y153200I-283J0D01*
G01*
X103500Y255000D02*
G03*
X103500Y255000I-8500J0D01*
G01*
X72000Y16000D02*
Y34000D01*
X82100D01*
X92900D02*
X103000D01*
Y16000D02*
Y34000D01*
X84000Y16000D02*
X91100D01*
X766007Y270185D02*
Y254950D01*
X776164D01*
X783781Y265107D02*
X788860D01*
X791399Y262568D01*
Y254950D01*
X783781D01*
X781242Y257489D01*
X783781Y260028D01*
X791399D01*
X796477Y265107D02*
Y257489D01*
X799016Y254950D01*
X806634D01*
Y252411D01*
X804095Y249872D01*
X801556D01*
X806634Y254950D02*
Y265107D01*
X819330Y254950D02*
X814251D01*
X811712Y257489D01*
Y262568D01*
X814251Y265107D01*
X819330D01*
X821869Y262568D01*
Y260028D01*
X811712D01*
X826947Y265107D02*
Y254950D01*
Y260028D01*
X829487Y262568D01*
X832026Y265107D01*
X834565D01*
X773625Y-19370D02*
Y-4135D01*
X766007Y-11753D01*
X776164D01*
X766007Y54286D02*
X768546Y56825D01*
X773625D01*
X776164Y54286D01*
Y51747D01*
X773625Y49208D01*
X771085D01*
X773625D01*
X776164Y46668D01*
Y44129D01*
X773625Y41590D01*
X768546D01*
X766007Y44129D01*
X776164Y102550D02*
X766007D01*
X776164Y112707D01*
Y115246D01*
X773625Y117785D01*
X768546D01*
X766007Y115246D01*
Y163510D02*
X771085D01*
X768546D01*
Y178745D01*
X766007Y176206D01*
X870125Y254950D02*
Y270185D01*
X880282Y254950D01*
Y270185D01*
X887899Y265107D02*
X892978D01*
X895517Y262568D01*
Y254950D01*
X887899D01*
X885360Y257489D01*
X887899Y260028D01*
X895517D01*
X900595Y254950D02*
Y265107D01*
X903134D01*
X905673Y262568D01*
Y254950D01*
Y262568D01*
X908213Y265107D01*
X910752Y262568D01*
Y254950D01*
X923448D02*
X918369D01*
X915830Y257489D01*
Y262568D01*
X918369Y265107D01*
X923448D01*
X925987Y262568D01*
Y260028D01*
X915830D01*
X870125Y-65095D02*
Y-80330D01*
X877742D01*
X880282Y-77791D01*
Y-75252D01*
X877742Y-72712D01*
X870125D01*
X877742D01*
X880282Y-70173D01*
Y-67634D01*
X877742Y-65095D01*
X870125D01*
X887899Y-80330D02*
X892978D01*
X895517Y-77791D01*
Y-72712D01*
X892978Y-70173D01*
X887899D01*
X885360Y-72712D01*
Y-77791D01*
X887899Y-80330D01*
X903134Y-67634D02*
Y-70173D01*
X900595D01*
X905673D01*
X903134D01*
Y-77791D01*
X905673Y-80330D01*
X915830Y-67634D02*
Y-70173D01*
X913291D01*
X918369D01*
X915830D01*
Y-77791D01*
X918369Y-80330D01*
X928526D02*
X933604D01*
X936143Y-77791D01*
Y-72712D01*
X933604Y-70173D01*
X928526D01*
X925987Y-72712D01*
Y-77791D01*
X928526Y-80330D01*
X941222D02*
Y-70173D01*
X943761D01*
X946300Y-72712D01*
Y-80330D01*
Y-72712D01*
X948839Y-70173D01*
X951379Y-72712D01*
Y-80330D01*
X979310Y-65095D02*
X974231D01*
X971692Y-67634D01*
Y-77791D01*
X974231Y-80330D01*
X979310D01*
X981849Y-77791D01*
Y-67634D01*
X979310Y-65095D01*
X986927Y-70173D02*
X992005Y-80330D01*
X997084Y-70173D01*
X1009780Y-80330D02*
X1004701D01*
X1002162Y-77791D01*
Y-72712D01*
X1004701Y-70173D01*
X1009780D01*
X1012319Y-72712D01*
Y-75252D01*
X1002162D01*
X1017397Y-70173D02*
Y-80330D01*
Y-75252D01*
X1019936Y-72712D01*
X1022476Y-70173D01*
X1025015D01*
X1032632Y-80330D02*
X1037711D01*
X1035172D01*
Y-65095D01*
X1032632D01*
X1047867Y-70173D02*
X1052946D01*
X1055485Y-72712D01*
Y-80330D01*
X1047867D01*
X1045328Y-77791D01*
X1047867Y-75252D01*
X1055485D01*
X1060563Y-70173D02*
Y-77791D01*
X1063102Y-80330D01*
X1070720D01*
Y-82869D01*
X1068181Y-85408D01*
X1065642D01*
X1070720Y-80330D02*
Y-70173D01*
X870125Y-34615D02*
Y-49850D01*
X877742D01*
X880282Y-47311D01*
Y-44772D01*
X877742Y-42232D01*
X870125D01*
X877742D01*
X880282Y-39693D01*
Y-37154D01*
X877742Y-34615D01*
X870125D01*
X887899Y-49850D02*
X892978D01*
X895517Y-47311D01*
Y-42232D01*
X892978Y-39693D01*
X887899D01*
X885360Y-42232D01*
Y-47311D01*
X887899Y-49850D01*
X903134Y-37154D02*
Y-39693D01*
X900595D01*
X905673D01*
X903134D01*
Y-47311D01*
X905673Y-49850D01*
X915830Y-37154D02*
Y-39693D01*
X913291D01*
X918369D01*
X915830D01*
Y-47311D01*
X918369Y-49850D01*
X928526D02*
X933604D01*
X936143Y-47311D01*
Y-42232D01*
X933604Y-39693D01*
X928526D01*
X925987Y-42232D01*
Y-47311D01*
X928526Y-49850D01*
X941222D02*
Y-39693D01*
X943761D01*
X946300Y-42232D01*
Y-49850D01*
Y-42232D01*
X948839Y-39693D01*
X951379Y-42232D01*
Y-49850D01*
X981849Y-37154D02*
X979310Y-34615D01*
X974231D01*
X971692Y-37154D01*
Y-39693D01*
X974231Y-42232D01*
X979310D01*
X981849Y-44772D01*
Y-47311D01*
X979310Y-49850D01*
X974231D01*
X971692Y-47311D01*
X989466Y-49850D02*
X994545D01*
X997084Y-47311D01*
Y-42232D01*
X994545Y-39693D01*
X989466D01*
X986927Y-42232D01*
Y-47311D01*
X989466Y-49850D01*
X1002162D02*
X1007241D01*
X1004701D01*
Y-34615D01*
X1002162D01*
X1025015D02*
Y-49850D01*
X1017397D01*
X1014858Y-47311D01*
Y-42232D01*
X1017397Y-39693D01*
X1025015D01*
X1037711Y-49850D02*
X1032632D01*
X1030093Y-47311D01*
Y-42232D01*
X1032632Y-39693D01*
X1037711D01*
X1040250Y-42232D01*
Y-44772D01*
X1030093D01*
X1045328Y-39693D02*
Y-49850D01*
Y-44772D01*
X1047867Y-42232D01*
X1050407Y-39693D01*
X1052946D01*
X870125Y-4135D02*
Y-19370D01*
X877742D01*
X880282Y-16831D01*
Y-14292D01*
X877742Y-11753D01*
X870125D01*
X877742D01*
X880282Y-9213D01*
Y-6674D01*
X877742Y-4135D01*
X870125D01*
X887899Y-19370D02*
X892978D01*
X895517Y-16831D01*
Y-11753D01*
X892978Y-9213D01*
X887899D01*
X885360Y-11753D01*
Y-16831D01*
X887899Y-19370D01*
X903134Y-6674D02*
Y-9213D01*
X900595D01*
X905673D01*
X903134D01*
Y-16831D01*
X905673Y-19370D01*
X915830Y-6674D02*
Y-9213D01*
X913291D01*
X918369D01*
X915830D01*
Y-16831D01*
X918369Y-19370D01*
X928526D02*
X933604D01*
X936143Y-16831D01*
Y-11753D01*
X933604Y-9213D01*
X928526D01*
X925987Y-11753D01*
Y-16831D01*
X928526Y-19370D01*
X941222D02*
Y-9213D01*
X943761D01*
X946300Y-11753D01*
Y-19370D01*
Y-11753D01*
X948839Y-9213D01*
X951379Y-11753D01*
Y-19370D01*
X971692Y-4135D02*
Y-19370D01*
X981849D01*
X989466Y-9213D02*
X994545D01*
X997084Y-11753D01*
Y-19370D01*
X989466D01*
X986927Y-16831D01*
X989466Y-14292D01*
X997084D01*
X1002162Y-9213D02*
Y-16831D01*
X1004701Y-19370D01*
X1012319D01*
Y-21909D01*
X1009780Y-24448D01*
X1007241D01*
X1012319Y-19370D02*
Y-9213D01*
X1025015Y-19370D02*
X1019936D01*
X1017397Y-16831D01*
Y-11753D01*
X1019936Y-9213D01*
X1025015D01*
X1027554Y-11753D01*
Y-14292D01*
X1017397D01*
X1032632Y-9213D02*
Y-19370D01*
Y-14292D01*
X1035172Y-11753D01*
X1037711Y-9213D01*
X1040250D01*
X870125Y26345D02*
Y11110D01*
X877742D01*
X880282Y13649D01*
Y23806D01*
X877742Y26345D01*
X870125D01*
X885360Y11110D02*
X890438D01*
X887899D01*
Y21267D01*
X885360D01*
X905673Y11110D02*
X900595D01*
X898056Y13649D01*
Y18728D01*
X900595Y21267D01*
X905673D01*
X908213Y18728D01*
Y16188D01*
X898056D01*
X913291Y11110D02*
X918369D01*
X915830D01*
Y26345D01*
X913291D01*
X933604Y11110D02*
X928526D01*
X925987Y13649D01*
Y18728D01*
X928526Y21267D01*
X933604D01*
X936143Y18728D01*
Y16188D01*
X925987D01*
X951379Y21267D02*
X943761D01*
X941222Y18728D01*
Y13649D01*
X943761Y11110D01*
X951379D01*
X958996Y23806D02*
Y21267D01*
X956457D01*
X961535D01*
X958996D01*
Y13649D01*
X961535Y11110D01*
X969153Y21267D02*
Y11110D01*
Y16188D01*
X971692Y18728D01*
X974231Y21267D01*
X976770D01*
X984388Y11110D02*
X989466D01*
X986927D01*
Y21267D01*
X984388D01*
X1007241D02*
X999623D01*
X997084Y18728D01*
Y13649D01*
X999623Y11110D01*
X1007241D01*
X1027554Y23806D02*
X1030093Y26345D01*
X1035172D01*
X1037711Y23806D01*
Y21267D01*
X1035172Y18728D01*
X1032632D01*
X1035172D01*
X1037711Y16188D01*
Y13649D01*
X1035172Y11110D01*
X1030093D01*
X1027554Y13649D01*
X870125Y56825D02*
Y41590D01*
X880282D01*
X887899Y51747D02*
X892978D01*
X895517Y49208D01*
Y41590D01*
X887899D01*
X885360Y44129D01*
X887899Y46668D01*
X895517D01*
X900595Y51747D02*
Y44129D01*
X903134Y41590D01*
X910752D01*
Y39051D01*
X908213Y36512D01*
X905673D01*
X910752Y41590D02*
Y51747D01*
X923448Y41590D02*
X918369D01*
X915830Y44129D01*
Y49208D01*
X918369Y51747D01*
X923448D01*
X925987Y49208D01*
Y46668D01*
X915830D01*
X931065Y51747D02*
Y41590D01*
Y46668D01*
X933604Y49208D01*
X936143Y51747D01*
X938683D01*
X971692Y41590D02*
X961535D01*
X971692Y51747D01*
Y54286D01*
X969153Y56825D01*
X964074D01*
X961535Y54286D01*
X870125Y87305D02*
Y72070D01*
X877742D01*
X880282Y74609D01*
Y84766D01*
X877742Y87305D01*
X870125D01*
X885360Y72070D02*
X890438D01*
X887899D01*
Y82227D01*
X885360D01*
X905673Y72070D02*
X900595D01*
X898056Y74609D01*
Y79688D01*
X900595Y82227D01*
X905673D01*
X908213Y79688D01*
Y77148D01*
X898056D01*
X913291Y72070D02*
X918369D01*
X915830D01*
Y87305D01*
X913291D01*
X933604Y72070D02*
X928526D01*
X925987Y74609D01*
Y79688D01*
X928526Y82227D01*
X933604D01*
X936143Y79688D01*
Y77148D01*
X925987D01*
X951379Y82227D02*
X943761D01*
X941222Y79688D01*
Y74609D01*
X943761Y72070D01*
X951379D01*
X958996Y84766D02*
Y82227D01*
X956457D01*
X961535D01*
X958996D01*
Y74609D01*
X961535Y72070D01*
X969153Y82227D02*
Y72070D01*
Y77148D01*
X971692Y79688D01*
X974231Y82227D01*
X976770D01*
X984388Y72070D02*
X989466D01*
X986927D01*
Y82227D01*
X984388D01*
X1007241D02*
X999623D01*
X997084Y79688D01*
Y74609D01*
X999623Y72070D01*
X1007241D01*
X1027554D02*
X1032632D01*
X1030093D01*
Y87305D01*
X1027554Y84766D01*
X870125Y117785D02*
Y102550D01*
X880282D01*
X887899Y112707D02*
X892978D01*
X895517Y110168D01*
Y102550D01*
X887899D01*
X885360Y105089D01*
X887899Y107628D01*
X895517D01*
X900595Y112707D02*
Y105089D01*
X903134Y102550D01*
X910752D01*
Y100011D01*
X908213Y97472D01*
X905673D01*
X910752Y102550D02*
Y112707D01*
X923448Y102550D02*
X918369D01*
X915830Y105089D01*
Y110168D01*
X918369Y112707D01*
X923448D01*
X925987Y110168D01*
Y107628D01*
X915830D01*
X931065Y112707D02*
Y102550D01*
Y107628D01*
X933604Y110168D01*
X936143Y112707D01*
X938683D01*
X961535Y102550D02*
X966614D01*
X964074D01*
Y117785D01*
X961535Y115246D01*
X870125Y148265D02*
Y133030D01*
X877742D01*
X880282Y135569D01*
Y145726D01*
X877742Y148265D01*
X870125D01*
X885360Y133030D02*
X890438D01*
X887899D01*
Y143187D01*
X885360D01*
X905673Y133030D02*
X900595D01*
X898056Y135569D01*
Y140647D01*
X900595Y143187D01*
X905673D01*
X908213Y140647D01*
Y138108D01*
X898056D01*
X913291Y133030D02*
X918369D01*
X915830D01*
Y148265D01*
X913291D01*
X933604Y133030D02*
X928526D01*
X925987Y135569D01*
Y140647D01*
X928526Y143187D01*
X933604D01*
X936143Y140647D01*
Y138108D01*
X925987D01*
X951379Y143187D02*
X943761D01*
X941222Y140647D01*
Y135569D01*
X943761Y133030D01*
X951379D01*
X958996Y145726D02*
Y143187D01*
X956457D01*
X961535D01*
X958996D01*
Y135569D01*
X961535Y133030D01*
X969153Y143187D02*
Y133030D01*
Y138108D01*
X971692Y140647D01*
X974231Y143187D01*
X976770D01*
X984388Y133030D02*
X989466D01*
X986927D01*
Y143187D01*
X984388D01*
X1007241D02*
X999623D01*
X997084Y140647D01*
Y135569D01*
X999623Y133030D01*
X1007241D01*
X1037711D02*
X1027554D01*
X1037711Y143187D01*
Y145726D01*
X1035172Y148265D01*
X1030093D01*
X1027554Y145726D01*
X870125Y178745D02*
X880282D01*
X875203D01*
Y163510D01*
X887899D02*
X892978D01*
X895517Y166049D01*
Y171127D01*
X892978Y173667D01*
X887899D01*
X885360Y171127D01*
Y166049D01*
X887899Y163510D01*
X900595Y158432D02*
Y173667D01*
X908213D01*
X910752Y171127D01*
Y166049D01*
X908213Y163510D01*
X900595D01*
X931065Y178745D02*
Y163510D01*
X941222D01*
X948839Y173667D02*
X953918D01*
X956457Y171127D01*
Y163510D01*
X948839D01*
X946300Y166049D01*
X948839Y168588D01*
X956457D01*
X961535Y173667D02*
Y166049D01*
X964074Y163510D01*
X971692D01*
Y160971D01*
X969153Y158432D01*
X966614D01*
X971692Y163510D02*
Y173667D01*
X984388Y163510D02*
X979310D01*
X976770Y166049D01*
Y171127D01*
X979310Y173667D01*
X984388D01*
X986927Y171127D01*
Y168588D01*
X976770D01*
X992005Y173667D02*
Y163510D01*
Y168588D01*
X994545Y171127D01*
X997084Y173667D01*
X999623D01*
X870125Y209225D02*
X880282D01*
X875203D01*
Y193990D01*
X887899D02*
X892978D01*
X895517Y196529D01*
Y201607D01*
X892978Y204147D01*
X887899D01*
X885360Y201607D01*
Y196529D01*
X887899Y193990D01*
X900595Y188912D02*
Y204147D01*
X908213D01*
X910752Y201607D01*
Y196529D01*
X908213Y193990D01*
X900595D01*
X941222Y206686D02*
X938683Y209225D01*
X933604D01*
X931065Y206686D01*
Y204147D01*
X933604Y201607D01*
X938683D01*
X941222Y199068D01*
Y196529D01*
X938683Y193990D01*
X933604D01*
X931065Y196529D01*
X948839Y193990D02*
X953918D01*
X956457Y196529D01*
Y201607D01*
X953918Y204147D01*
X948839D01*
X946300Y201607D01*
Y196529D01*
X948839Y193990D01*
X961535D02*
X966614D01*
X964074D01*
Y209225D01*
X961535D01*
X984388D02*
Y193990D01*
X976770D01*
X974231Y196529D01*
Y201607D01*
X976770Y204147D01*
X984388D01*
X997084Y193990D02*
X992005D01*
X989466Y196529D01*
Y201607D01*
X992005Y204147D01*
X997084D01*
X999623Y201607D01*
Y199068D01*
X989466D01*
X1004701Y204147D02*
Y193990D01*
Y199068D01*
X1007241Y201607D01*
X1009780Y204147D01*
X1012319D01*
X870125Y239705D02*
X880282D01*
X875203D01*
Y224470D01*
X887899D02*
X892978D01*
X895517Y227009D01*
Y232087D01*
X892978Y234627D01*
X887899D01*
X885360Y232087D01*
Y227009D01*
X887899Y224470D01*
X900595Y219392D02*
Y234627D01*
X908213D01*
X910752Y232087D01*
Y227009D01*
X908213Y224470D01*
X900595D01*
X938683Y239705D02*
X933604D01*
X931065Y237166D01*
Y227009D01*
X933604Y224470D01*
X938683D01*
X941222Y227009D01*
Y237166D01*
X938683Y239705D01*
X946300Y234627D02*
X951379Y224470D01*
X956457Y234627D01*
X969153Y224470D02*
X964074D01*
X961535Y227009D01*
Y232087D01*
X964074Y234627D01*
X969153D01*
X971692Y232087D01*
Y229548D01*
X961535D01*
X976770Y234627D02*
Y224470D01*
Y229548D01*
X979310Y232087D01*
X981849Y234627D01*
X984388D01*
X992005Y224470D02*
X997084D01*
X994545D01*
Y239705D01*
X992005D01*
X1007241Y234627D02*
X1012319D01*
X1014858Y232087D01*
Y224470D01*
X1007241D01*
X1004701Y227009D01*
X1007241Y229548D01*
X1014858D01*
X1019936Y234627D02*
Y227009D01*
X1022476Y224470D01*
X1030093D01*
Y221931D01*
X1027554Y219392D01*
X1025015D01*
X1030093Y224470D02*
Y234627D01*
X1106280Y254950D02*
Y270185D01*
X1111358Y265107D01*
X1116437Y270185D01*
Y254950D01*
X1124054Y265107D02*
X1129133D01*
X1131672Y262568D01*
Y254950D01*
X1124054D01*
X1121515Y257489D01*
X1124054Y260028D01*
X1131672D01*
X1139289Y267646D02*
Y265107D01*
X1136750D01*
X1141829D01*
X1139289D01*
Y257489D01*
X1141829Y254950D01*
X1157064D02*
X1151985D01*
X1149446Y257489D01*
Y262568D01*
X1151985Y265107D01*
X1157064D01*
X1159603Y262568D01*
Y260028D01*
X1149446D01*
X1164681Y265107D02*
Y254950D01*
Y260028D01*
X1167220Y262568D01*
X1169760Y265107D01*
X1172299D01*
X1179916Y254950D02*
X1184995D01*
X1182455D01*
Y265107D01*
X1179916D01*
X1195151D02*
X1200230D01*
X1202769Y262568D01*
Y254950D01*
X1195151D01*
X1192612Y257489D01*
X1195151Y260028D01*
X1202769D01*
X1207847Y254950D02*
X1212925D01*
X1210386D01*
Y270185D01*
X1207847D01*
X1116437Y-37154D02*
X1113897Y-34615D01*
X1108819D01*
X1106280Y-37154D01*
Y-39693D01*
X1108819Y-42232D01*
X1113897D01*
X1116437Y-44772D01*
Y-47311D01*
X1113897Y-49850D01*
X1108819D01*
X1106280Y-47311D01*
X1124054Y-49850D02*
X1129133D01*
X1131672Y-47311D01*
Y-42232D01*
X1129133Y-39693D01*
X1124054D01*
X1121515Y-42232D01*
Y-47311D01*
X1124054Y-49850D01*
X1136750D02*
X1141829D01*
X1139289D01*
Y-34615D01*
X1136750D01*
X1159603D02*
Y-49850D01*
X1151985D01*
X1149446Y-47311D01*
Y-42232D01*
X1151985Y-39693D01*
X1159603D01*
X1172299Y-49850D02*
X1167220D01*
X1164681Y-47311D01*
Y-42232D01*
X1167220Y-39693D01*
X1172299D01*
X1174838Y-42232D01*
Y-44772D01*
X1164681D01*
X1179916Y-39693D02*
Y-49850D01*
Y-44772D01*
X1182455Y-42232D01*
X1184995Y-39693D01*
X1187534D01*
X1210386Y-49850D02*
Y-34615D01*
X1218004D01*
X1220543Y-37154D01*
Y-42232D01*
X1218004Y-44772D01*
X1210386D01*
X1215465D02*
X1220543Y-49850D01*
X1233239D02*
X1228161D01*
X1225621Y-47311D01*
Y-42232D01*
X1228161Y-39693D01*
X1233239D01*
X1235778Y-42232D01*
Y-44772D01*
X1225621D01*
X1240856Y-49850D02*
X1248474D01*
X1251013Y-47311D01*
X1248474Y-44772D01*
X1243396D01*
X1240856Y-42232D01*
X1243396Y-39693D01*
X1251013D01*
X1256092Y-49850D02*
X1261170D01*
X1258631D01*
Y-39693D01*
X1256092D01*
X1268787Y-49850D02*
X1276405D01*
X1278944Y-47311D01*
X1276405Y-44772D01*
X1271327D01*
X1268787Y-42232D01*
X1271327Y-39693D01*
X1278944D01*
X1286562Y-37154D02*
Y-39693D01*
X1284023D01*
X1289101D01*
X1286562D01*
Y-47311D01*
X1289101Y-49850D01*
X1106280Y11110D02*
Y26345D01*
X1113897D01*
X1116437Y23806D01*
Y18728D01*
X1113897Y16188D01*
X1106280D01*
X1121515Y11110D02*
Y26345D01*
X1129133D01*
X1131672Y23806D01*
Y18728D01*
X1129133Y16188D01*
X1121515D01*
X1136750Y18728D02*
X1146907D01*
X1151985Y23806D02*
X1154524Y26345D01*
X1159603D01*
X1162142Y23806D01*
Y13649D01*
X1159603Y11110D01*
X1154524D01*
X1151985Y13649D01*
Y23806D01*
X1167220D02*
X1169760Y26345D01*
X1174838D01*
X1177377Y23806D01*
Y13649D01*
X1174838Y11110D01*
X1169760D01*
X1167220Y13649D01*
Y23806D01*
X1192612Y26345D02*
X1187534Y23806D01*
X1182455Y18728D01*
Y13649D01*
X1184995Y11110D01*
X1190073D01*
X1192612Y13649D01*
Y16188D01*
X1190073Y18728D01*
X1182455D01*
X1116437Y54286D02*
X1113897Y56825D01*
X1108819D01*
X1106280Y54286D01*
Y44129D01*
X1108819Y41590D01*
X1113897D01*
X1116437Y44129D01*
X1131672Y56825D02*
X1121515D01*
Y49208D01*
X1126593D01*
X1121515D01*
Y41590D01*
X1136750Y49208D02*
X1146907D01*
X1151985Y54286D02*
X1154524Y56825D01*
X1159603D01*
X1162142Y54286D01*
Y44129D01*
X1159603Y41590D01*
X1154524D01*
X1151985Y44129D01*
Y54286D01*
X1167220D02*
X1169760Y56825D01*
X1174838D01*
X1177377Y54286D01*
Y44129D01*
X1174838Y41590D01*
X1169760D01*
X1167220Y44129D01*
Y54286D01*
X1190073Y41590D02*
Y56825D01*
X1182455Y49208D01*
X1192612D01*
X1116437Y87305D02*
X1106280D01*
Y79688D01*
X1111358D01*
X1106280D01*
Y72070D01*
X1121515D02*
Y87305D01*
X1129133D01*
X1131672Y84766D01*
Y79688D01*
X1129133Y77148D01*
X1121515D01*
X1126593D02*
X1131672Y72070D01*
X1136750Y79688D02*
X1146907D01*
X1159603Y72070D02*
Y87305D01*
X1151985Y79688D01*
X1162142D01*
X1116437Y115246D02*
X1113897Y117785D01*
X1108819D01*
X1106280Y115246D01*
Y105089D01*
X1108819Y102550D01*
X1113897D01*
X1116437Y105089D01*
X1131672Y117785D02*
X1121515D01*
Y110168D01*
X1126593D01*
X1121515D01*
Y102550D01*
X1136750Y110168D02*
X1146907D01*
X1151985Y115246D02*
X1154524Y117785D01*
X1159603D01*
X1162142Y115246D01*
Y105089D01*
X1159603Y102550D01*
X1154524D01*
X1151985Y105089D01*
Y115246D01*
X1167220D02*
X1169760Y117785D01*
X1174838D01*
X1177377Y115246D01*
Y105089D01*
X1174838Y102550D01*
X1169760D01*
X1167220Y105089D01*
Y115246D01*
X1190073Y102550D02*
Y117785D01*
X1182455Y110168D01*
X1192612D01*
X1106280Y133030D02*
Y148265D01*
X1113897D01*
X1116437Y145726D01*
Y140647D01*
X1113897Y138108D01*
X1106280D01*
X1121515Y133030D02*
Y148265D01*
X1129133D01*
X1131672Y145726D01*
Y140647D01*
X1129133Y138108D01*
X1121515D01*
X1136750Y140647D02*
X1146907D01*
X1151985Y145726D02*
X1154524Y148265D01*
X1159603D01*
X1162142Y145726D01*
Y135569D01*
X1159603Y133030D01*
X1154524D01*
X1151985Y135569D01*
Y145726D01*
X1167220D02*
X1169760Y148265D01*
X1174838D01*
X1177377Y145726D01*
Y135569D01*
X1174838Y133030D01*
X1169760D01*
X1167220Y135569D01*
Y145726D01*
X1192612Y148265D02*
X1187534Y145726D01*
X1182455Y140647D01*
Y135569D01*
X1184995Y133030D01*
X1190073D01*
X1192612Y135569D01*
Y138108D01*
X1190073Y140647D01*
X1182455D01*
X1116437Y206686D02*
X1113897Y209225D01*
X1108819D01*
X1106280Y206686D01*
Y204147D01*
X1108819Y201607D01*
X1113897D01*
X1116437Y199068D01*
Y196529D01*
X1113897Y193990D01*
X1108819D01*
X1106280Y196529D01*
X1124054Y193990D02*
X1129133D01*
X1131672Y196529D01*
Y201607D01*
X1129133Y204147D01*
X1124054D01*
X1121515Y201607D01*
Y196529D01*
X1124054Y193990D01*
X1136750D02*
X1141829D01*
X1139289D01*
Y209225D01*
X1136750D01*
X1159603D02*
Y193990D01*
X1151985D01*
X1149446Y196529D01*
Y201607D01*
X1151985Y204147D01*
X1159603D01*
X1172299Y193990D02*
X1167220D01*
X1164681Y196529D01*
Y201607D01*
X1167220Y204147D01*
X1172299D01*
X1174838Y201607D01*
Y199068D01*
X1164681D01*
X1179916Y204147D02*
Y193990D01*
Y199068D01*
X1182455Y201607D01*
X1184995Y204147D01*
X1187534D01*
X1210386Y193990D02*
Y209225D01*
X1218004D01*
X1220543Y206686D01*
Y201607D01*
X1218004Y199068D01*
X1210386D01*
X1215465D02*
X1220543Y193990D01*
X1233239D02*
X1228161D01*
X1225621Y196529D01*
Y201607D01*
X1228161Y204147D01*
X1233239D01*
X1235778Y201607D01*
Y199068D01*
X1225621D01*
X1240856Y193990D02*
X1248474D01*
X1251013Y196529D01*
X1248474Y199068D01*
X1243396D01*
X1240856Y201607D01*
X1243396Y204147D01*
X1251013D01*
X1256092Y193990D02*
X1261170D01*
X1258631D01*
Y204147D01*
X1256092D01*
X1268787Y193990D02*
X1276405D01*
X1278944Y196529D01*
X1276405Y199068D01*
X1271327D01*
X1268787Y201607D01*
X1271327Y204147D01*
X1278944D01*
X1286562Y206686D02*
Y204147D01*
X1284023D01*
X1289101D01*
X1286562D01*
Y196529D01*
X1289101Y193990D01*
X1324661Y270185D02*
X1334818D01*
X1329739D01*
Y254950D01*
X1339896Y270185D02*
Y254950D01*
Y262568D01*
X1342435Y265107D01*
X1347513D01*
X1350053Y262568D01*
Y254950D01*
X1355131D02*
X1360209D01*
X1357670D01*
Y265107D01*
X1355131D01*
X1377984D02*
X1370366D01*
X1367827Y262568D01*
Y257489D01*
X1370366Y254950D01*
X1377984D01*
X1383062D02*
Y270185D01*
Y260028D02*
X1390679Y265107D01*
X1383062Y260028D02*
X1390679Y254950D01*
X1398297D02*
Y265107D01*
X1405915D01*
X1408454Y262568D01*
Y254950D01*
X1421150D02*
X1416071D01*
X1413532Y257489D01*
Y262568D01*
X1416071Y265107D01*
X1421150D01*
X1423689Y262568D01*
Y260028D01*
X1413532D01*
X1428767Y254950D02*
X1436385D01*
X1438924Y257489D01*
X1436385Y260028D01*
X1431306D01*
X1428767Y262568D01*
X1431306Y265107D01*
X1438924D01*
X1444002Y254950D02*
X1451620D01*
X1454159Y257489D01*
X1451620Y260028D01*
X1446541D01*
X1444002Y262568D01*
X1446541Y265107D01*
X1454159D01*
X1324661Y-37154D02*
X1327200Y-34615D01*
X1332278D01*
X1334818Y-37154D01*
Y-47311D01*
X1332278Y-49850D01*
X1327200D01*
X1324661Y-47311D01*
Y-37154D01*
X1342435Y-52389D02*
X1344974Y-49850D01*
Y-47311D01*
X1342435D01*
Y-49850D01*
X1344974D01*
X1342435Y-52389D01*
X1339896Y-54928D01*
X1355131Y-37154D02*
X1357670Y-34615D01*
X1362749D01*
X1365288Y-37154D01*
Y-47311D01*
X1362749Y-49850D01*
X1357670D01*
X1355131Y-47311D01*
Y-37154D01*
X1370366Y-49850D02*
X1375444D01*
X1372905D01*
Y-34615D01*
X1370366Y-37154D01*
X1383062D02*
X1385601Y-34615D01*
X1390679D01*
X1393219Y-37154D01*
Y-47311D01*
X1390679Y-49850D01*
X1385601D01*
X1383062Y-47311D01*
Y-37154D01*
X1398297Y-49850D02*
Y-39693D01*
X1400836D01*
X1403375Y-42232D01*
Y-49850D01*
Y-42232D01*
X1405915Y-39693D01*
X1408454Y-42232D01*
Y-49850D01*
X1413532D02*
Y-39693D01*
X1416071D01*
X1418610Y-42232D01*
Y-49850D01*
Y-42232D01*
X1421150Y-39693D01*
X1423689Y-42232D01*
Y-49850D01*
X1324661Y-6674D02*
X1327200Y-4135D01*
X1332278D01*
X1334818Y-6674D01*
Y-16831D01*
X1332278Y-19370D01*
X1327200D01*
X1324661Y-16831D01*
Y-6674D01*
X1342435Y-21909D02*
X1344974Y-19370D01*
Y-16831D01*
X1342435D01*
Y-19370D01*
X1344974D01*
X1342435Y-21909D01*
X1339896Y-24448D01*
X1355131Y-6674D02*
X1357670Y-4135D01*
X1362749D01*
X1365288Y-6674D01*
Y-16831D01*
X1362749Y-19370D01*
X1357670D01*
X1355131Y-16831D01*
Y-6674D01*
X1380523Y-4135D02*
X1370366D01*
Y-11753D01*
X1375444Y-9213D01*
X1377984D01*
X1380523Y-11753D01*
Y-16831D01*
X1377984Y-19370D01*
X1372905D01*
X1370366Y-16831D01*
X1395758Y-4135D02*
X1385601D01*
Y-11753D01*
X1390679Y-9213D01*
X1393219D01*
X1395758Y-11753D01*
Y-16831D01*
X1393219Y-19370D01*
X1388140D01*
X1385601Y-16831D01*
X1400836Y-19370D02*
Y-9213D01*
X1403375D01*
X1405915Y-11753D01*
Y-19370D01*
Y-11753D01*
X1408454Y-9213D01*
X1410993Y-11753D01*
Y-19370D01*
X1416071D02*
Y-9213D01*
X1418611D01*
X1421150Y-11753D01*
Y-19370D01*
Y-11753D01*
X1423689Y-9213D01*
X1426228Y-11753D01*
Y-19370D01*
X1324661Y23806D02*
X1327200Y26345D01*
X1332278D01*
X1334818Y23806D01*
Y13649D01*
X1332278Y11110D01*
X1327200D01*
X1324661Y13649D01*
Y23806D01*
X1342435Y8571D02*
X1344974Y11110D01*
Y13649D01*
X1342435D01*
Y11110D01*
X1344974D01*
X1342435Y8571D01*
X1339896Y6032D01*
X1355131Y23806D02*
X1357670Y26345D01*
X1362749D01*
X1365288Y23806D01*
Y21267D01*
X1362749Y18728D01*
X1360209D01*
X1362749D01*
X1365288Y16188D01*
Y13649D01*
X1362749Y11110D01*
X1357670D01*
X1355131Y13649D01*
X1380523Y26345D02*
X1375444Y23806D01*
X1370366Y18728D01*
Y13649D01*
X1372905Y11110D01*
X1377984D01*
X1380523Y13649D01*
Y16188D01*
X1377984Y18728D01*
X1370366D01*
X1385601Y23806D02*
X1388140Y26345D01*
X1393219D01*
X1395758Y23806D01*
Y13649D01*
X1393219Y11110D01*
X1388140D01*
X1385601Y13649D01*
Y23806D01*
X1400836Y11110D02*
Y21267D01*
X1403375D01*
X1405915Y18728D01*
Y11110D01*
Y18728D01*
X1408454Y21267D01*
X1410993Y18728D01*
Y11110D01*
X1416071D02*
Y21267D01*
X1418611D01*
X1421150Y18728D01*
Y11110D01*
Y18728D01*
X1423689Y21267D01*
X1426228Y18728D01*
Y11110D01*
X1324661Y54286D02*
X1327200Y56825D01*
X1332278D01*
X1334818Y54286D01*
Y44129D01*
X1332278Y41590D01*
X1327200D01*
X1324661Y44129D01*
Y54286D01*
X1342435Y39051D02*
X1344974Y41590D01*
Y44129D01*
X1342435D01*
Y41590D01*
X1344974D01*
X1342435Y39051D01*
X1339896Y36512D01*
X1355131Y54286D02*
X1357670Y56825D01*
X1362749D01*
X1365288Y54286D01*
Y44129D01*
X1362749Y41590D01*
X1357670D01*
X1355131Y44129D01*
Y54286D01*
X1370366D02*
X1372905Y56825D01*
X1377984D01*
X1380523Y54286D01*
Y51747D01*
X1377984Y49208D01*
X1375444D01*
X1377984D01*
X1380523Y46668D01*
Y44129D01*
X1377984Y41590D01*
X1372905D01*
X1370366Y44129D01*
X1395758Y56825D02*
X1385601D01*
Y49208D01*
X1390679Y51747D01*
X1393219D01*
X1395758Y49208D01*
Y44129D01*
X1393219Y41590D01*
X1388140D01*
X1385601Y44129D01*
X1400836Y41590D02*
Y51747D01*
X1403375D01*
X1405915Y49208D01*
Y41590D01*
Y49208D01*
X1408454Y51747D01*
X1410993Y49208D01*
Y41590D01*
X1416071D02*
Y51747D01*
X1418611D01*
X1421150Y49208D01*
Y41590D01*
Y49208D01*
X1423689Y51747D01*
X1426228Y49208D01*
Y41590D01*
X1324661Y84766D02*
X1327200Y87305D01*
X1332278D01*
X1334818Y84766D01*
Y74609D01*
X1332278Y72070D01*
X1327200D01*
X1324661Y74609D01*
Y84766D01*
X1342435Y69531D02*
X1344974Y72070D01*
Y74609D01*
X1342435D01*
Y72070D01*
X1344974D01*
X1342435Y69531D01*
X1339896Y66992D01*
X1355131Y84766D02*
X1357670Y87305D01*
X1362749D01*
X1365288Y84766D01*
Y74609D01*
X1362749Y72070D01*
X1357670D01*
X1355131Y74609D01*
Y84766D01*
X1370366D02*
X1372905Y87305D01*
X1377984D01*
X1380523Y84766D01*
Y82227D01*
X1377984Y79688D01*
X1380523Y77148D01*
Y74609D01*
X1377984Y72070D01*
X1372905D01*
X1370366Y74609D01*
Y77148D01*
X1372905Y79688D01*
X1370366Y82227D01*
Y84766D01*
X1372905Y79688D02*
X1377984D01*
X1385601Y84766D02*
X1388140Y87305D01*
X1393219D01*
X1395758Y84766D01*
Y74609D01*
X1393219Y72070D01*
X1388140D01*
X1385601Y74609D01*
Y84766D01*
X1400836Y72070D02*
Y82227D01*
X1403375D01*
X1405915Y79688D01*
Y72070D01*
Y79688D01*
X1408454Y82227D01*
X1410993Y79688D01*
Y72070D01*
X1416071D02*
Y82227D01*
X1418611D01*
X1421150Y79688D01*
Y72070D01*
Y79688D01*
X1423689Y82227D01*
X1426228Y79688D01*
Y72070D01*
X1324661Y115246D02*
X1327200Y117785D01*
X1332278D01*
X1334818Y115246D01*
Y105089D01*
X1332278Y102550D01*
X1327200D01*
X1324661Y105089D01*
Y115246D01*
X1342435Y100011D02*
X1344974Y102550D01*
Y105089D01*
X1342435D01*
Y102550D01*
X1344974D01*
X1342435Y100011D01*
X1339896Y97472D01*
X1355131Y115246D02*
X1357670Y117785D01*
X1362749D01*
X1365288Y115246D01*
Y105089D01*
X1362749Y102550D01*
X1357670D01*
X1355131Y105089D01*
Y115246D01*
X1370366D02*
X1372905Y117785D01*
X1377984D01*
X1380523Y115246D01*
Y112707D01*
X1377984Y110168D01*
X1375444D01*
X1377984D01*
X1380523Y107628D01*
Y105089D01*
X1377984Y102550D01*
X1372905D01*
X1370366Y105089D01*
X1395758Y117785D02*
X1385601D01*
Y110168D01*
X1390679Y112707D01*
X1393219D01*
X1395758Y110168D01*
Y105089D01*
X1393219Y102550D01*
X1388140D01*
X1385601Y105089D01*
X1400836Y102550D02*
Y112707D01*
X1403375D01*
X1405915Y110168D01*
Y102550D01*
Y110168D01*
X1408454Y112707D01*
X1410993Y110168D01*
Y102550D01*
X1416071D02*
Y112707D01*
X1418611D01*
X1421150Y110168D01*
Y102550D01*
Y110168D01*
X1423689Y112707D01*
X1426228Y110168D01*
Y102550D01*
X1324661Y145726D02*
X1327200Y148265D01*
X1332278D01*
X1334818Y145726D01*
Y135569D01*
X1332278Y133030D01*
X1327200D01*
X1324661Y135569D01*
Y145726D01*
X1342435Y130491D02*
X1344974Y133030D01*
Y135569D01*
X1342435D01*
Y133030D01*
X1344974D01*
X1342435Y130491D01*
X1339896Y127952D01*
X1362749Y133030D02*
Y148265D01*
X1355131Y140647D01*
X1365288D01*
X1370366Y145726D02*
X1372905Y148265D01*
X1377984D01*
X1380523Y145726D01*
Y135569D01*
X1377984Y133030D01*
X1372905D01*
X1370366Y135569D01*
Y145726D01*
X1385601D02*
X1388140Y148265D01*
X1393219D01*
X1395758Y145726D01*
Y135569D01*
X1393219Y133030D01*
X1388140D01*
X1385601Y135569D01*
Y145726D01*
X1400836Y133030D02*
Y143187D01*
X1403375D01*
X1405915Y140647D01*
Y133030D01*
Y140647D01*
X1408454Y143187D01*
X1410993Y140647D01*
Y133030D01*
X1416071D02*
Y143187D01*
X1418611D01*
X1421150Y140647D01*
Y133030D01*
Y140647D01*
X1423689Y143187D01*
X1426228Y140647D01*
Y133030D01*
X1324661Y176206D02*
X1327200Y178745D01*
X1332278D01*
X1334818Y176206D01*
Y166049D01*
X1332278Y163510D01*
X1327200D01*
X1324661Y166049D01*
Y176206D01*
X1342435Y160971D02*
X1344974Y163510D01*
Y166049D01*
X1342435D01*
Y163510D01*
X1344974D01*
X1342435Y160971D01*
X1339896Y158432D01*
X1355131Y176206D02*
X1357670Y178745D01*
X1362749D01*
X1365288Y176206D01*
Y166049D01*
X1362749Y163510D01*
X1357670D01*
X1355131Y166049D01*
Y176206D01*
X1380523Y178745D02*
X1370366D01*
Y171127D01*
X1375444Y173667D01*
X1377984D01*
X1380523Y171127D01*
Y166049D01*
X1377984Y163510D01*
X1372905D01*
X1370366Y166049D01*
X1395758Y178745D02*
X1385601D01*
Y171127D01*
X1390679Y173667D01*
X1393219D01*
X1395758Y171127D01*
Y166049D01*
X1393219Y163510D01*
X1388140D01*
X1385601Y166049D01*
X1400836Y163510D02*
Y173667D01*
X1403375D01*
X1405915Y171127D01*
Y163510D01*
Y171127D01*
X1408454Y173667D01*
X1410993Y171127D01*
Y163510D01*
X1416071D02*
Y173667D01*
X1418611D01*
X1421150Y171127D01*
Y163510D01*
Y171127D01*
X1423689Y173667D01*
X1426228Y171127D01*
Y163510D01*
X1324661Y206686D02*
X1327200Y209225D01*
X1332278D01*
X1334818Y206686D01*
Y196529D01*
X1332278Y193990D01*
X1327200D01*
X1324661Y196529D01*
Y206686D01*
X1342435Y191451D02*
X1344974Y193990D01*
Y196529D01*
X1342435D01*
Y193990D01*
X1344974D01*
X1342435Y191451D01*
X1339896Y188912D01*
X1355131Y206686D02*
X1357670Y209225D01*
X1362749D01*
X1365288Y206686D01*
Y196529D01*
X1362749Y193990D01*
X1357670D01*
X1355131Y196529D01*
Y206686D01*
X1370366Y193990D02*
X1375444D01*
X1372905D01*
Y209225D01*
X1370366Y206686D01*
X1383062D02*
X1385601Y209225D01*
X1390679D01*
X1393219Y206686D01*
Y196529D01*
X1390679Y193990D01*
X1385601D01*
X1383062Y196529D01*
Y206686D01*
X1398297Y193990D02*
Y204147D01*
X1400836D01*
X1403375Y201607D01*
Y193990D01*
Y201607D01*
X1405915Y204147D01*
X1408454Y201607D01*
Y193990D01*
X1413532D02*
Y204147D01*
X1416071D01*
X1418610Y201607D01*
Y193990D01*
Y201607D01*
X1421150Y204147D01*
X1423689Y201607D01*
Y193990D01*
X1499876Y267646D02*
X1497336Y270185D01*
X1492258D01*
X1489719Y267646D01*
Y257489D01*
X1492258Y254950D01*
X1497336D01*
X1499876Y257489D01*
X1507493Y254950D02*
X1512572D01*
X1515111Y257489D01*
Y262568D01*
X1512572Y265107D01*
X1507493D01*
X1504954Y262568D01*
Y257489D01*
X1507493Y254950D01*
X1520189D02*
Y265107D01*
X1527807D01*
X1530346Y262568D01*
Y254950D01*
X1535424D02*
X1543042D01*
X1545581Y257489D01*
X1543042Y260028D01*
X1537963D01*
X1535424Y262568D01*
X1537963Y265107D01*
X1545581D01*
X1553198Y267646D02*
Y265107D01*
X1550659D01*
X1555738D01*
X1553198D01*
Y257489D01*
X1555738Y254950D01*
X1565894Y265107D02*
X1570973D01*
X1573512Y262568D01*
Y254950D01*
X1565894D01*
X1563355Y257489D01*
X1565894Y260028D01*
X1573512D01*
X1578590Y254950D02*
Y265107D01*
X1586208D01*
X1588747Y262568D01*
Y254950D01*
X1596364Y267646D02*
Y265107D01*
X1593825D01*
X1598904D01*
X1596364D01*
Y257489D01*
X1598904Y254950D01*
X1489719Y-37154D02*
X1492258Y-34615D01*
X1497336D01*
X1499876Y-37154D01*
Y-39693D01*
X1497336Y-42232D01*
X1494797D01*
X1497336D01*
X1499876Y-44772D01*
Y-47311D01*
X1497336Y-49850D01*
X1492258D01*
X1489719Y-47311D01*
X1504954Y-49850D02*
Y-47311D01*
X1507493D01*
Y-49850D01*
X1504954D01*
X1527807Y-34615D02*
X1517650D01*
Y-42232D01*
X1522728Y-39693D01*
X1525267D01*
X1527807Y-42232D01*
Y-47311D01*
X1525267Y-49850D01*
X1520189D01*
X1517650Y-47311D01*
X1497336Y11110D02*
Y26345D01*
X1489719Y18728D01*
X1499876D01*
X1504954Y11110D02*
Y13649D01*
X1507493D01*
Y11110D01*
X1504954D01*
X1517650Y23806D02*
X1520189Y26345D01*
X1525267D01*
X1527807Y23806D01*
Y21267D01*
X1525267Y18728D01*
X1522728D01*
X1525267D01*
X1527807Y16188D01*
Y13649D01*
X1525267Y11110D01*
X1520189D01*
X1517650Y13649D01*
X1497336Y72070D02*
Y87305D01*
X1489719Y79688D01*
X1499876D01*
X1504954Y72070D02*
Y74609D01*
X1507493D01*
Y72070D01*
X1504954D01*
X1527807D02*
X1517650D01*
X1527807Y82227D01*
Y84766D01*
X1525267Y87305D01*
X1520189D01*
X1517650Y84766D01*
X1497336Y133030D02*
Y148265D01*
X1489719Y140647D01*
X1499876D01*
X1504954Y133030D02*
Y135569D01*
X1507493D01*
Y133030D01*
X1504954D01*
X1517650Y145726D02*
X1520189Y148265D01*
X1525267D01*
X1527807Y145726D01*
Y143187D01*
X1525267Y140647D01*
X1522728D01*
X1525267D01*
X1527807Y138108D01*
Y135569D01*
X1525267Y133030D01*
X1520189D01*
X1517650Y135569D01*
X1489719Y206686D02*
X1492258Y209225D01*
X1497336D01*
X1499876Y206686D01*
Y204147D01*
X1497336Y201607D01*
X1494797D01*
X1497336D01*
X1499876Y199068D01*
Y196529D01*
X1497336Y193990D01*
X1492258D01*
X1489719Y196529D01*
X1504954Y193990D02*
Y196529D01*
X1507493D01*
Y193990D01*
X1504954D01*
X1527807Y209225D02*
X1517650D01*
Y201607D01*
X1522728Y204147D01*
X1525267D01*
X1527807Y201607D01*
Y196529D01*
X1525267Y193990D01*
X1520189D01*
X1517650Y196529D01*
D11*
X22750Y165300D02*
X35250D01*
X22750Y254700D02*
X35250D01*
X-15500Y165300D02*
X-2700D01*
X-15500D02*
Y254700D01*
X-2700D01*
X330580Y185748D02*
Y190749D01*
X316330D02*
X341000D01*
X322830Y185748D02*
X341000D01*
X322830Y180998D02*
Y185748D01*
X316330Y180998D02*
X322830D01*
X330580Y49247D02*
X341000D01*
X330580D02*
Y49248D01*
Y54248D02*
X341000D01*
Y190749D02*
X346330D01*
X341000Y185748D02*
Y190749D01*
Y185748D02*
X346330D01*
X341000Y49247D02*
X346330D01*
X341000D02*
Y54248D01*
X346330D01*
X330580Y49248D02*
Y54248D01*
X322830D02*
X330580D01*
X322830D02*
Y58998D01*
X316330D02*
X322830D01*
X346330Y49247D02*
X350328D01*
X316330Y49248D02*
X330580D01*
X316330Y180998D02*
Y190749D01*
Y49248D02*
Y58998D01*
X346330Y190749D02*
X350328D01*
X316330Y58998D02*
Y180998D01*
X322830Y58998D02*
Y180998D01*
X346330Y54248D02*
Y185748D01*
X350328Y49247D02*
Y190749D01*
X393080Y185748D02*
Y190749D01*
X378830D02*
X403500D01*
X385330Y185748D02*
X403500D01*
X385330Y180998D02*
Y185748D01*
X378830Y180998D02*
X385330D01*
X393080Y49247D02*
X403500D01*
X393080D02*
Y49248D01*
Y54248D02*
X403500D01*
Y190749D02*
X408830D01*
X403500Y185748D02*
Y190749D01*
Y185748D02*
X408830D01*
X403500Y49247D02*
X408830D01*
X403500D02*
Y54248D01*
X408830D01*
X393080Y49248D02*
Y54248D01*
X385330D02*
X393080D01*
X385330D02*
Y58998D01*
X378830D02*
X385330D01*
X408830Y49247D02*
X412828D01*
X378830Y49248D02*
X393080D01*
X378830Y180998D02*
Y190749D01*
Y49248D02*
Y58998D01*
X408830Y190749D02*
X412828D01*
X378830Y58998D02*
Y180998D01*
X385330Y58998D02*
Y180998D01*
X408830Y54248D02*
Y185748D01*
X412828Y49247D02*
Y190749D01*
X560800Y152600D02*
Y155800D01*
Y124200D02*
Y127400D01*
X529200Y124200D02*
X560800D01*
X529200Y152600D02*
Y155800D01*
Y124200D02*
Y127400D01*
Y155800D02*
X560800D01*
X-24900Y141350D02*
X66500D01*
Y63650D02*
Y141350D01*
X-24900Y63650D02*
X66500D01*
X169990Y234750D02*
X190310D01*
X169990D02*
Y245250D01*
X190310D01*
Y234750D02*
Y245250D01*
X650251Y29999D02*
Y249999D01*
X427001Y29999D02*
X645251D01*
X427001D02*
Y249999D01*
X650251D01*
X713251D01*
Y29999D02*
Y249999D01*
X645251Y29999D02*
X713251D01*
X446251Y74999D02*
X458501D01*
X446251D02*
Y82249D01*
Y204999D02*
X458501D01*
X446251Y197749D02*
Y204999D01*
X650251Y74999D02*
X713251D01*
Y204999D01*
X650251D02*
X713251D01*
X611202Y30300D02*
Y55700D01*
X585751Y224300D02*
Y249999D01*
X484200Y55700D02*
X611202D01*
X458800Y224300D02*
X585751D01*
X484200Y29999D02*
Y55700D01*
X458800Y224300D02*
Y249999D01*
X236000Y267500D02*
X244000D01*
X236000Y262500D02*
Y267500D01*
Y262500D02*
X244000D01*
Y267500D01*
X196000Y262500D02*
X204000D01*
Y267500D01*
X196000D02*
X204000D01*
X196000Y262500D02*
Y267500D01*
X216000Y262500D02*
X224000D01*
Y267500D01*
X216000D02*
X224000D01*
X216000Y262500D02*
Y267500D01*
X83000Y94750D02*
Y96000D01*
Y97250D01*
X89000Y94750D02*
Y96000D01*
Y97250D01*
X92500Y221000D02*
Y229000D01*
Y221000D02*
X97500D01*
Y229000D01*
X92500D02*
X97500D01*
X511000Y125000D02*
X519000D01*
X511000Y120000D02*
Y125000D01*
Y120000D02*
X519000D01*
Y125000D01*
X511000Y150000D02*
X519000D01*
X511000Y145000D02*
Y150000D01*
Y145000D02*
X519000D01*
Y150000D01*
X396000Y267500D02*
X404000D01*
X396000Y262500D02*
Y267500D01*
Y262500D02*
X404000D01*
Y267500D01*
X276000D02*
X284000D01*
X276000Y262500D02*
Y267500D01*
Y262500D02*
X284000D01*
Y267500D01*
X316000D02*
X324000D01*
X316000Y262500D02*
Y267500D01*
Y262500D02*
X324000D01*
Y267500D01*
X356000D02*
X364000D01*
X356000Y262500D02*
Y267500D01*
Y262500D02*
X364000D01*
Y267500D01*
X476000Y120000D02*
X484000D01*
Y125000D01*
X476000D02*
X484000D01*
X476000Y120000D02*
Y125000D01*
X384000Y262500D02*
Y267500D01*
X376000Y262500D02*
X384000D01*
X376000D02*
Y267500D01*
X384000D01*
X493500Y125000D02*
X501500D01*
X493500Y120000D02*
Y125000D01*
Y120000D02*
X501500D01*
Y125000D01*
X578500Y142500D02*
X586500D01*
X578500Y137500D02*
Y142500D01*
Y137500D02*
X586500D01*
Y142500D01*
X256000Y267500D02*
X264000D01*
X256000Y262500D02*
Y267500D01*
Y262500D02*
X264000D01*
Y267500D01*
X296000D02*
X304000D01*
X296000Y262500D02*
Y267500D01*
Y262500D02*
X304000D01*
Y267500D01*
X336000D02*
X344000D01*
X336000Y262500D02*
Y267500D01*
Y262500D02*
X344000D01*
Y267500D01*
X424000Y262500D02*
Y267500D01*
X416000Y262500D02*
X424000D01*
X416000D02*
Y267500D01*
X424000D01*
X436000Y262500D02*
X444000D01*
Y267500D01*
X436000D02*
X444000D01*
X436000Y262500D02*
Y267500D01*
X112500Y5000D02*
Y225000D01*
Y5000D02*
X282500D01*
Y225000D01*
X112500D02*
X282500D01*
X196000Y237500D02*
X204000D01*
Y242500D01*
X196000D02*
X204000D01*
X196000Y237500D02*
Y242500D01*
X95500Y111000D02*
Y119000D01*
X90500D02*
X95500D01*
X90500Y111000D02*
Y119000D01*
Y111000D02*
X95500D01*
X90500Y48500D02*
Y61500D01*
X84500D02*
X90500D01*
X84500Y48500D02*
Y61500D01*
Y48500D02*
X90500D01*
X144690Y250250D02*
X165010D01*
Y239750D02*
Y250250D01*
X144690Y239750D02*
X165010D01*
X144690D02*
Y243500D01*
X146250D01*
Y246500D01*
X144690D02*
X146250D01*
X144690D02*
Y250250D01*
X108002Y244999D02*
Y248998D01*
Y265000D02*
Y268000D01*
X107000D02*
X108002D01*
Y261000D02*
Y265000D01*
Y242000D02*
Y244999D01*
X107000Y242000D02*
X108002D01*
X82002D02*
Y244999D01*
Y242000D02*
X83000D01*
X82002Y244999D02*
Y268000D01*
X83000D01*
X176000Y267500D02*
X184000D01*
X176000Y262500D02*
Y267500D01*
Y262500D02*
X184000D01*
Y267500D01*
X132500Y251000D02*
Y259000D01*
X127500D02*
X132500D01*
X127500Y251000D02*
Y259000D01*
Y251000D02*
X132500D01*
X106500Y189000D02*
X109832D01*
X108166D01*
Y198997D01*
X106500Y197331D01*
X303000Y56750D02*
Y54084D01*
Y55417D01*
X310997D01*
X309664Y56750D01*
X365500D02*
Y54084D01*
Y55417D01*
X373497D01*
X372164Y56750D01*
X0Y127250D02*
Y262975D01*
Y280000D01*
Y127250D02*
X30000D01*
Y77750D02*
Y127250D01*
X0Y77750D02*
X30000D01*
X0Y0D02*
Y77750D01*
Y280000D02*
X650000D01*
Y0D02*
Y280000D01*
X0Y0D02*
X650000D01*
D12*
X90500Y140250D02*
Y143250D01*
X84500Y128500D02*
X87500D01*
X150000Y268500D02*
Y271500D01*
X496000Y147500D02*
X499000D01*
D13*
X370000Y274998D02*
Y269000D01*
Y270999D01*
X373999Y274998D01*
X371000Y271999D01*
X373999Y269000D01*
X266250Y274998D02*
Y269000D01*
Y270999D01*
X270249Y274998D01*
X267250Y271999D01*
X270249Y269000D01*
X306250Y274998D02*
Y269000D01*
Y270999D01*
X310249Y274998D01*
X307250Y271999D01*
X310249Y269000D01*
X346250Y275248D02*
Y269250D01*
Y271249D01*
X350249Y275248D01*
X347250Y272249D01*
X350249Y269250D01*
X426250Y274998D02*
Y269000D01*
Y270999D01*
X430249Y274998D01*
X427250Y271999D01*
X430249Y269000D01*
X213420Y235538D02*
Y229540D01*
Y231539D01*
X217419Y235538D01*
X214420Y232539D01*
X217419Y229540D01*
X285501Y203499D02*
Y198501D01*
X286501Y197501D01*
X288500D01*
X289500Y198501D01*
Y203499D01*
X291499Y197501D02*
X293499D01*
X292499D01*
Y203499D01*
X291499Y202499D01*
D14*
X70417Y196499D02*
X68751D01*
X69584D01*
Y192334D01*
X68751Y191501D01*
X67918D01*
X67085Y192334D01*
X72083D02*
X72916Y191501D01*
X74582D01*
X75415Y192334D01*
Y195666D01*
X74582Y196499D01*
X72916D01*
X72083Y195666D01*
Y194833D01*
X72916Y194000D01*
X75415D01*
X99251Y139669D02*
X104249D01*
Y143001D01*
X100084Y147999D02*
X99251Y147166D01*
Y145500D01*
X100084Y144667D01*
X103416D01*
X104249Y145500D01*
Y147166D01*
X103416Y147999D01*
X104249Y149665D02*
Y151331D01*
Y150498D01*
X99251D01*
X100084Y149665D01*
X100084Y126834D02*
X99251Y126001D01*
Y124335D01*
X100084Y123502D01*
X103416D01*
X104249Y124335D01*
Y126001D01*
X103416Y126834D01*
X104249Y128500D02*
Y130167D01*
Y129333D01*
X99251D01*
X100084Y128500D01*
X104249Y135998D02*
Y132666D01*
X100917Y135998D01*
X100084D01*
X99251Y135165D01*
Y133499D01*
X100084Y132666D01*
X541335Y121999D02*
Y117834D01*
X542168Y117001D01*
X543834D01*
X544667Y117834D01*
Y121999D01*
X549665Y117001D02*
X546333D01*
X549665Y120333D01*
Y121166D01*
X548832Y121999D01*
X547166D01*
X546333Y121166D01*
X417418Y230751D02*
Y235749D01*
X419084Y234083D01*
X420750Y235749D01*
Y230751D01*
X422416D02*
X424082D01*
X423249D01*
Y235749D01*
X422416Y234916D01*
X451999Y258335D02*
X447001D01*
Y260835D01*
X447834Y261668D01*
X449500D01*
X450333Y260835D01*
Y258335D01*
Y260002D02*
X451999Y261668D01*
Y265833D02*
X447001D01*
X449500Y263334D01*
Y266666D01*
X451999Y271665D02*
Y268332D01*
X448667Y271665D01*
X447834D01*
X447001Y270831D01*
Y269165D01*
X447834Y268332D01*
X409001Y260835D02*
X413999D01*
Y263334D01*
X413166Y264167D01*
X409834D01*
X409001Y263334D01*
Y260835D01*
X413166Y265833D02*
X413999Y266666D01*
Y268332D01*
X413166Y269165D01*
X409834D01*
X409001Y268332D01*
Y266666D01*
X409834Y265833D01*
X410667D01*
X411500Y266666D01*
Y269165D01*
X328751Y260835D02*
X333749D01*
Y263334D01*
X332916Y264167D01*
X329584D01*
X328751Y263334D01*
Y260835D01*
X333749Y269165D02*
Y265833D01*
X330417Y269165D01*
X329584D01*
X328751Y268332D01*
Y266666D01*
X329584Y265833D01*
X248751Y261085D02*
X253749D01*
Y263584D01*
X252916Y264417D01*
X249584D01*
X248751Y263584D01*
Y261085D01*
X249584Y266083D02*
X248751Y266916D01*
Y268582D01*
X249584Y269415D01*
X250417D01*
X251250Y268582D01*
Y267749D01*
Y268582D01*
X252083Y269415D01*
X252916D01*
X253749Y268582D01*
Y266916D01*
X252916Y266083D01*
X288501Y261335D02*
X293499D01*
Y263834D01*
X292666Y264667D01*
X289334D01*
X288501Y263834D01*
Y261335D01*
X293499Y268832D02*
X288501D01*
X291000Y266333D01*
Y269665D01*
X206585Y242499D02*
Y237501D01*
X209084D01*
X209917Y238334D01*
Y241666D01*
X209084Y242499D01*
X206585D01*
X214915D02*
X213249Y241666D01*
X211583Y240000D01*
Y238334D01*
X212416Y237501D01*
X214082D01*
X214915Y238334D01*
Y239167D01*
X214082Y240000D01*
X211583D01*
X367250Y187499D02*
X365584D01*
X366417D01*
Y183334D01*
X365584Y182501D01*
X364751D01*
X363918Y183334D01*
X368916Y182501D02*
X370582D01*
X369749D01*
Y187499D01*
X368916Y186666D01*
X303417Y186749D02*
X301751D01*
X302584D01*
Y182584D01*
X301751Y181751D01*
X300918D01*
X300085Y182584D01*
X308415Y181751D02*
X305083D01*
X308415Y185083D01*
Y185916D01*
X307582Y186749D01*
X305916D01*
X305083Y185916D01*
X101445Y108849D02*
Y103851D01*
X104777D01*
X106443Y108016D02*
X107276Y108849D01*
X108942D01*
X109775Y108016D01*
Y107183D01*
X108942Y106350D01*
X108109D01*
X108942D01*
X109775Y105517D01*
Y104684D01*
X108942Y103851D01*
X107276D01*
X106443Y104684D01*
X75667Y38084D02*
Y41416D01*
X74834Y42249D01*
X73168D01*
X72335Y41416D01*
Y38084D01*
X73168Y37251D01*
X74834D01*
X74001Y38917D02*
X75667Y37251D01*
X74834D02*
X75667Y38084D01*
X80665Y37251D02*
X77333D01*
X80665Y40583D01*
Y41416D01*
X79832Y42249D01*
X78166D01*
X77333Y41416D01*
X80336Y64001D02*
Y68999D01*
X82835D01*
X83668Y68166D01*
Y66500D01*
X82835Y65667D01*
X80336D01*
X82002D02*
X83668Y64001D01*
X88666D02*
X85334D01*
X88666Y67333D01*
Y68166D01*
X87833Y68999D01*
X86167D01*
X85334Y68166D01*
X90332D02*
X91165Y68999D01*
X92831D01*
X93665Y68166D01*
Y67333D01*
X92831Y66500D01*
X91998D01*
X92831D01*
X93665Y65667D01*
Y64834D01*
X92831Y64001D01*
X91165D01*
X90332Y64834D01*
X136585Y236999D02*
Y232834D01*
X137418Y232001D01*
X139084D01*
X139917Y232834D01*
Y236999D01*
X144082Y232001D02*
Y236999D01*
X141583Y234500D01*
X144915D01*
X110585Y248499D02*
Y247666D01*
X112251Y246000D01*
X113917Y247666D01*
Y248499D01*
X112251Y246000D02*
Y243501D01*
X118915D02*
X115583D01*
X118915Y246833D01*
Y247666D01*
X118082Y248499D01*
X116416D01*
X115583Y247666D01*
X173079Y252505D02*
X168081D01*
Y255005D01*
X168914Y255838D01*
X170580D01*
X171413Y255005D01*
Y252505D01*
Y254172D02*
X173079Y255838D01*
X168914Y257504D02*
X168081Y258337D01*
Y260003D01*
X168914Y260836D01*
X169747D01*
X170580Y260003D01*
Y259170D01*
Y260003D01*
X171413Y260836D01*
X172246D01*
X173079Y260003D01*
Y258337D01*
X172246Y257504D01*
X168914Y262502D02*
X168081Y263335D01*
Y265001D01*
X168914Y265835D01*
X172246D01*
X173079Y265001D01*
Y263335D01*
X172246Y262502D01*
X168914D01*
X122836Y243001D02*
Y247999D01*
X125335D01*
X126168Y247166D01*
Y245500D01*
X125335Y244667D01*
X122836D01*
X124502D02*
X126168Y243001D01*
X131166D02*
X127834D01*
X131166Y246333D01*
Y247166D01*
X130333Y247999D01*
X128667D01*
X127834Y247166D01*
X132832Y243834D02*
X133665Y243001D01*
X135331D01*
X136165Y243834D01*
Y247166D01*
X135331Y247999D01*
X133665D01*
X132832Y247166D01*
Y246333D01*
X133665Y245500D01*
X136165D01*
X232999Y258335D02*
X228001D01*
Y260835D01*
X228834Y261668D01*
X230500D01*
X231333Y260835D01*
Y258335D01*
Y260002D02*
X232999Y261668D01*
Y266666D02*
Y263334D01*
X229667Y266666D01*
X228834D01*
X228001Y265833D01*
Y264167D01*
X228834Y263334D01*
Y268332D02*
X228001Y269165D01*
Y270831D01*
X228834Y271665D01*
X229667D01*
X230500Y270831D01*
X231333Y271665D01*
X232166D01*
X232999Y270831D01*
Y269165D01*
X232166Y268332D01*
X231333D01*
X230500Y269165D01*
X229667Y268332D01*
X228834D01*
X230500Y269165D02*
Y270831D01*
X192999Y258836D02*
X188001D01*
Y261335D01*
X188834Y262168D01*
X190500D01*
X191333Y261335D01*
Y258836D01*
Y260502D02*
X192999Y262168D01*
Y267166D02*
Y263834D01*
X189667Y267166D01*
X188834D01*
X188001Y266333D01*
Y264667D01*
X188834Y263834D01*
X188001Y268832D02*
Y272164D01*
X188834D01*
X192166Y268832D01*
X192999D01*
X212749Y261336D02*
X207751D01*
Y263835D01*
X208584Y264668D01*
X210250D01*
X211083Y263835D01*
Y261336D01*
Y263002D02*
X212749Y264668D01*
Y269666D02*
Y266334D01*
X209417Y269666D01*
X208584D01*
X207751Y268833D01*
Y267167D01*
X208584Y266334D01*
X207751Y274664D02*
X208584Y272998D01*
X210250Y271332D01*
X211916D01*
X212749Y272165D01*
Y273831D01*
X211916Y274664D01*
X211083D01*
X210250Y273831D01*
Y271332D01*
X187367Y248084D02*
Y251416D01*
X186534Y252249D01*
X184868D01*
X184035Y251416D01*
Y248084D01*
X184868Y247251D01*
X186534D01*
X185701Y248917D02*
X187367Y247251D01*
X186534D02*
X187367Y248084D01*
X189033Y251416D02*
X189866Y252249D01*
X191532D01*
X192365Y251416D01*
Y250583D01*
X191532Y249750D01*
X190699D01*
X191532D01*
X192365Y248917D01*
Y248084D01*
X191532Y247251D01*
X189866D01*
X189033Y248084D01*
X161667Y271916D02*
X160834Y272749D01*
X159168D01*
X158335Y271916D01*
Y268584D01*
X159168Y267751D01*
X160834D01*
X161667Y268584D01*
X163333Y267751D02*
X165000D01*
X164167D01*
Y272749D01*
X163333Y271916D01*
X167499Y267751D02*
X169165D01*
X168332D01*
Y272749D01*
X167499Y271916D01*
X90918Y90499D02*
X94250D01*
Y89666D01*
X90918Y86334D01*
Y85501D01*
X94250D01*
X95916D02*
X97582D01*
X96749D01*
Y90499D01*
X95916Y89666D01*
X69418Y82749D02*
Y81916D01*
X71084Y80250D01*
X72750Y81916D01*
Y82749D01*
X71084Y80250D02*
Y77751D01*
X74416D02*
X76082D01*
X75249D01*
Y82749D01*
X74416Y81916D01*
X88586Y213001D02*
Y217999D01*
X91085D01*
X91918Y217166D01*
Y215500D01*
X91085Y214667D01*
X88586D01*
X90252D02*
X91918Y213001D01*
X93584Y217166D02*
X94417Y217999D01*
X96083D01*
X96916Y217166D01*
Y216333D01*
X96083Y215500D01*
X95250D01*
X96083D01*
X96916Y214667D01*
Y213834D01*
X96083Y213001D01*
X94417D01*
X93584Y213834D01*
X98582D02*
X99415Y213001D01*
X101081D01*
X101915Y213834D01*
Y217166D01*
X101081Y217999D01*
X99415D01*
X98582Y217166D01*
Y216333D01*
X99415Y215500D01*
X101915D01*
X508084Y106180D02*
Y111178D01*
X510583D01*
X511416Y110345D01*
Y108679D01*
X510583Y107846D01*
X508084D01*
X509750D02*
X511416Y106180D01*
X516415D02*
X513082D01*
X516415Y109512D01*
Y110345D01*
X515582Y111178D01*
X513915D01*
X513082Y110345D01*
X521413Y106180D02*
X518081D01*
X521413Y109512D01*
Y110345D01*
X520580Y111178D01*
X518914D01*
X518081Y110345D01*
X509419Y158751D02*
Y163749D01*
X511918D01*
X512751Y162916D01*
Y161250D01*
X511918Y160417D01*
X509419D01*
X511085D02*
X512751Y158751D01*
X517749D02*
X514417D01*
X517749Y162083D01*
Y162916D01*
X516916Y163749D01*
X515250D01*
X514417Y162916D01*
X519415Y158751D02*
X521081D01*
X520248D01*
Y163749D01*
X519415Y162916D01*
X393249Y259252D02*
X388251D01*
Y261751D01*
X389084Y262584D01*
X390750D01*
X391583Y261751D01*
Y259252D01*
Y260918D02*
X393249Y262584D01*
Y264250D02*
Y265917D01*
Y265084D01*
X388251D01*
X389084Y264250D01*
Y268416D02*
X388251Y269249D01*
Y270915D01*
X389084Y271748D01*
X389917D01*
X390750Y270915D01*
X391583Y271748D01*
X392416D01*
X393249Y270915D01*
Y269249D01*
X392416Y268416D01*
X391583D01*
X390750Y269249D01*
X389917Y268416D01*
X389084D01*
X390750Y269249D02*
Y270915D01*
X272999Y253752D02*
X268001D01*
Y256251D01*
X268834Y257084D01*
X270500D01*
X271333Y256251D01*
Y253752D01*
Y255418D02*
X272999Y257084D01*
Y258750D02*
Y260417D01*
Y259583D01*
X268001D01*
X268834Y258750D01*
X268001Y266248D02*
X268834Y264582D01*
X270500Y262916D01*
X272166D01*
X272999Y263749D01*
Y265415D01*
X272166Y266248D01*
X271333D01*
X270500Y265415D01*
Y262916D01*
X312999Y254252D02*
X308001D01*
Y256751D01*
X308834Y257584D01*
X310500D01*
X311333Y256751D01*
Y254252D01*
Y255918D02*
X312999Y257584D01*
Y259250D02*
Y260917D01*
Y260084D01*
X308001D01*
X308834Y259250D01*
X312999Y265915D02*
X308001D01*
X310500Y263416D01*
Y266748D01*
X352999Y255002D02*
X348001D01*
Y257501D01*
X348834Y258334D01*
X350500D01*
X351333Y257501D01*
Y255002D01*
Y256668D02*
X352999Y258334D01*
Y260000D02*
Y261667D01*
Y260833D01*
X348001D01*
X348834Y260000D01*
X352999Y267498D02*
Y264166D01*
X349667Y267498D01*
X348834D01*
X348001Y266665D01*
Y264999D01*
X348834Y264166D01*
X476508Y106180D02*
Y111178D01*
X479007D01*
X479840Y110345D01*
Y108679D01*
X479007Y107846D01*
X476508D01*
X478174D02*
X479840Y106180D01*
X481506D02*
X483172D01*
X482339D01*
Y111178D01*
X481506Y110345D01*
X369001Y257585D02*
X373999D01*
Y260084D01*
X373166Y260917D01*
X369834D01*
X369001Y260084D01*
Y257585D01*
Y265915D02*
Y262583D01*
X371500D01*
X370667Y264249D01*
Y265082D01*
X371500Y265915D01*
X373166D01*
X373999Y265082D01*
Y263416D01*
X373166Y262583D01*
X496390Y110345D02*
X495557Y111178D01*
X493891D01*
X493058Y110345D01*
Y107013D01*
X493891Y106180D01*
X495557D01*
X496390Y107013D01*
X498056Y111178D02*
X501389D01*
Y110345D01*
X498056Y107013D01*
Y106180D01*
X581167Y155166D02*
X580334Y155999D01*
X578668D01*
X577835Y155166D01*
Y151834D01*
X578668Y151001D01*
X580334D01*
X581167Y151834D01*
X586165Y155999D02*
X584499Y155166D01*
X582833Y153500D01*
Y151834D01*
X583666Y151001D01*
X585332D01*
X586165Y151834D01*
Y152667D01*
X585332Y153500D01*
X582833D01*
X496667Y138416D02*
X495834Y139249D01*
X494168D01*
X493335Y138416D01*
Y135084D01*
X494168Y134251D01*
X495834D01*
X496667Y135084D01*
X500832Y134251D02*
Y139249D01*
X498333Y136750D01*
X501665D01*
D15*
X748227Y247330D02*
X1616684D01*
X748227Y277810D02*
X1616684D01*
X748227Y-87950D02*
Y277810D01*
Y-87950D02*
X852345D01*
X748227Y-57470D02*
X852345D01*
X748227Y-26990D02*
X852345D01*
X748227Y3490D02*
X852345D01*
X748227Y33970D02*
X852345D01*
X748227Y64450D02*
X852345D01*
X748227Y94930D02*
X852345D01*
X748227Y125410D02*
X852345D01*
X748227Y155890D02*
X852345D01*
X748227Y186370D02*
X852345D01*
X748227Y216850D02*
X852345D01*
Y-87950D02*
Y277810D01*
Y-87950D02*
X1088500D01*
X852345Y-57470D02*
X1088500D01*
X852345Y-26990D02*
X1088500D01*
X852345Y3490D02*
X1088500D01*
X852345Y33970D02*
X1088500D01*
X852345Y64450D02*
X1088500D01*
X852345Y94930D02*
X1088500D01*
X852345Y125410D02*
X1088500D01*
X852345Y155890D02*
X1088500D01*
X852345Y186370D02*
X1088500D01*
X852345Y216850D02*
X1088500D01*
Y-87950D02*
Y277810D01*
Y-87950D02*
X1306881D01*
X1088500Y-57470D02*
X1306881D01*
X1088500Y-26990D02*
X1306881D01*
X1088500Y3490D02*
X1306881D01*
X1088500Y33970D02*
X1306881D01*
X1088500Y64450D02*
X1306881D01*
X1088500Y94930D02*
X1306881D01*
X1088500Y125410D02*
X1306881D01*
X1088500Y155890D02*
X1306881D01*
X1088500Y186370D02*
X1306881D01*
X1088500Y216850D02*
X1306881D01*
Y-87950D02*
Y277810D01*
Y-87950D02*
X1471939D01*
X1306881Y-57470D02*
X1471939D01*
X1306881Y-26990D02*
X1471939D01*
X1306881Y3490D02*
X1471939D01*
X1306881Y33970D02*
X1471939D01*
X1306881Y64450D02*
X1471939D01*
X1306881Y94930D02*
X1471939D01*
X1306881Y125410D02*
X1471939D01*
X1306881Y155890D02*
X1471939D01*
X1306881Y186370D02*
X1471939D01*
X1306881Y216850D02*
X1471939D01*
Y-87950D02*
Y277810D01*
Y-87950D02*
X1616684D01*
X1471939Y-57470D02*
X1616684D01*
X1471939Y-26990D02*
X1616684D01*
X1471939Y3490D02*
X1616684D01*
X1471939Y33970D02*
X1616684D01*
X1471939Y64450D02*
X1616684D01*
X1471939Y94930D02*
X1616684D01*
X1471939Y125410D02*
X1616684D01*
X1471939Y155890D02*
X1616684D01*
X1471939Y186370D02*
X1616684D01*
X1471939Y216850D02*
X1616684D01*
Y-87950D02*
Y277810D01*
M02*
