G04*
G04 #@! TF.GenerationSoftware,Altium Limited,Altium Designer,23.10.1 (27)*
G04*
G04 Layer_Physical_Order=1*
G04 Layer_Color=1265191*
%FSLAX44Y44*%
%MOMM*%
G71*
G04*
G04 #@! TF.SameCoordinates,12E47488-CEE1-414F-AB97-9C1FAA11A261*
G04*
G04*
G04 #@! TF.FilePolarity,Positive*
G04*
G01*
G75*
%ADD10C,0.2540*%
%ADD11C,0.2000*%
%ADD12C,0.3000*%
%ADD15C,0.3810*%
%ADD16R,1.1500X0.3000*%
%ADD17R,1.1500X0.6000*%
%ADD18R,1.8000X0.7000*%
%ADD19R,2.2000X1.6000*%
%ADD20R,0.8500X0.3500*%
%ADD21R,0.6500X1.0000*%
%ADD22R,2.9200X1.3500*%
%ADD23R,0.5000X0.6500*%
%ADD24R,0.6500X0.5000*%
%ADD25R,0.6000X0.6000*%
%ADD26R,1.2000X0.5500*%
%ADD27R,0.7000X0.8000*%
%ADD28R,0.5500X1.2000*%
%ADD29R,1.0000X0.5500*%
%ADD30R,1.5000X0.8000*%
%ADD31R,0.8000X1.5000*%
%ADD32R,1.1000X1.1000*%
%ADD33R,0.5500X1.0000*%
%ADD34R,0.8000X1.0000*%
%ADD35R,0.9000X1.5000*%
%ADD36R,0.3500X0.8500*%
%ADD37R,1.0500X1.0000*%
%ADD38R,2.2000X1.0500*%
%ADD39R,1.6000X2.4000*%
%ADD40C,0.6500*%
%ADD41O,2.1000X1.0500*%
%ADD42O,1.8000X1.0000*%
%ADD43C,0.3000*%
%ADD44O,1.6000X1.7000*%
%ADD45R,1.6000X1.7000*%
%ADD46C,1.1000*%
%ADD47C,1.6000*%
%ADD48R,1.6000X1.6000*%
%ADD49R,1.8000X1.8000*%
%ADD50C,1.8000*%
%ADD51C,5.0000*%
%ADD52C,0.5500*%
%ADD53R,1.2700X0.6350*%
%ADD54C,0.5000*%
%ADD55C,0.4000*%
%ADD56C,0.3500*%
%ADD57C,0.6000*%
G36*
X172486Y276244D02*
X172466Y276078D01*
X172262Y275059D01*
X171500D01*
X170329Y274826D01*
X169337Y274163D01*
X169337Y274163D01*
X160492Y265318D01*
X158994Y265616D01*
X158815Y266049D01*
X158500Y266364D01*
Y274750D01*
X150770D01*
X150500Y274750D01*
X149500D01*
X149230Y274750D01*
X147000D01*
Y270000D01*
Y265250D01*
X149230D01*
X149500Y265250D01*
X149719Y265063D01*
X150500Y263980D01*
Y262605D01*
X149929Y261750D01*
X145250D01*
Y258059D01*
X141250D01*
Y262500D01*
X132750D01*
Y247500D01*
X141250D01*
Y251941D01*
X145250D01*
Y250250D01*
X148099D01*
X148625Y248980D01*
X146698Y247052D01*
X146145Y246225D01*
X145951Y245250D01*
Y239750D01*
X145250D01*
Y228559D01*
X144260D01*
X143285Y228365D01*
X142458Y227812D01*
X140698Y226052D01*
X140145Y225226D01*
X139951Y224250D01*
X139201Y223500D01*
X137000Y223500D01*
X135730Y223500D01*
X126000D01*
Y205500D01*
X135730D01*
X137000Y205500D01*
X138270Y205500D01*
X146730D01*
X148000Y205500D01*
Y205500D01*
X148000D01*
Y205500D01*
X159418D01*
X160124Y204444D01*
X160000Y204145D01*
Y202355D01*
X160685Y200701D01*
X161951Y199435D01*
X163605Y198750D01*
X165395D01*
X167049Y199435D01*
X168315Y200701D01*
X169000Y202355D01*
Y204145D01*
X169775Y205205D01*
X170329D01*
X171078Y204083D01*
X171000Y203895D01*
Y202105D01*
X171685Y200451D01*
X172951Y199185D01*
X174605Y198500D01*
X176395D01*
X178049Y199185D01*
X179315Y200451D01*
X180000Y202105D01*
Y203895D01*
X179940Y204039D01*
X180700Y205176D01*
X181529D01*
X182211Y204155D01*
X182000Y203645D01*
Y201855D01*
X182685Y200201D01*
X183951Y198935D01*
X185605Y198250D01*
X187395D01*
X189049Y198935D01*
X190315Y200201D01*
X191000Y201855D01*
Y203645D01*
X190758Y204230D01*
X191606Y205500D01*
X193270Y205500D01*
X196000D01*
Y214500D01*
Y223500D01*
X193270D01*
X192000Y223500D01*
X190730Y223500D01*
X182270D01*
X181000Y223500D01*
X179730Y223500D01*
X171651D01*
X171125Y224770D01*
X172605Y226250D01*
X178000D01*
Y235250D01*
X177701D01*
X177175Y236520D01*
X178106Y237451D01*
X192313D01*
X193500Y237250D01*
X193500Y236181D01*
Y234500D01*
X200000D01*
X206500D01*
Y237250D01*
X207687Y237451D01*
X215437D01*
X215923Y236278D01*
X206698Y227052D01*
X206145Y226225D01*
X205951Y225250D01*
Y224398D01*
X205053Y223500D01*
X203000Y223500D01*
X201730Y223500D01*
X199000D01*
Y214500D01*
Y205500D01*
X201730D01*
X203000Y205500D01*
X204270Y205500D01*
X212730D01*
X214000Y205500D01*
X215270Y205500D01*
X223730D01*
X225000Y205500D01*
X226270Y205500D01*
X245730D01*
X247000Y205500D01*
Y205500D01*
X247000D01*
Y205500D01*
X256730D01*
X258000Y205500D01*
Y205500D01*
X258000D01*
Y205500D01*
X269000D01*
Y223500D01*
X266549D01*
Y226935D01*
X266549Y226935D01*
X267815Y228201D01*
X268500Y229855D01*
Y231645D01*
X268071Y232681D01*
X268822Y233951D01*
X282244D01*
X286327Y229869D01*
X285544Y227980D01*
X285218Y225500D01*
Y224500D01*
X285544Y222020D01*
X286502Y219709D01*
X288025Y217725D01*
X290009Y216202D01*
X292320Y215245D01*
X294800Y214918D01*
X297280Y215245D01*
X298242Y215643D01*
X298962Y214566D01*
X280927Y196532D01*
X280375Y195705D01*
X280181Y194730D01*
Y192000D01*
X273500D01*
Y186500D01*
X272000D01*
Y185000D01*
X263000D01*
Y182270D01*
X263000Y181000D01*
X263000D01*
Y181000D01*
X263000D01*
Y178821D01*
X262145Y178250D01*
X260355D01*
X258701Y177565D01*
X257435Y176299D01*
X256750Y174645D01*
Y174500D01*
X251500D01*
Y167500D01*
Y160500D01*
X254977D01*
X255553Y159230D01*
X255000Y157895D01*
Y156105D01*
X255553Y154770D01*
X254977Y153500D01*
X251500D01*
Y148000D01*
X257000D01*
Y152036D01*
X258270Y152462D01*
X260116Y150616D01*
X260116Y150616D01*
X261439Y149732D01*
X263000Y149422D01*
X263000Y149422D01*
X263000Y148000D01*
X263000Y146730D01*
Y144000D01*
X272000D01*
Y141000D01*
X263000D01*
Y138270D01*
X263000Y137000D01*
X263000Y135730D01*
Y127270D01*
X263000Y126000D01*
X263000D01*
Y126000D01*
X263000D01*
Y114813D01*
X261730Y113965D01*
X261645Y114000D01*
X259855D01*
X258201Y113315D01*
X256935Y112049D01*
X256708Y111500D01*
X251500D01*
Y104500D01*
Y97500D01*
X257000D01*
X257575Y96468D01*
X257685Y96201D01*
X258951Y94935D01*
X260605Y94250D01*
X261897D01*
X263000Y93230D01*
X263000Y91730D01*
Y89000D01*
X272000D01*
Y86000D01*
X263000D01*
Y83270D01*
X263000Y82000D01*
X263000Y80730D01*
Y72270D01*
X263000Y71000D01*
X263000D01*
Y71000D01*
X263000D01*
Y61270D01*
X263000Y60000D01*
X263000Y58730D01*
Y50270D01*
X263000Y49000D01*
X263000Y47730D01*
Y38000D01*
X281000D01*
Y47730D01*
X281000Y49000D01*
X281000Y50270D01*
Y58730D01*
X281000Y60000D01*
X281000Y61270D01*
Y65015D01*
X282173Y65501D01*
X283441Y64233D01*
Y45500D01*
X283441Y45500D01*
X283674Y44330D01*
X284337Y43337D01*
X290474Y37200D01*
X289849Y36029D01*
X289750Y36049D01*
X257000D01*
Y40000D01*
X243000D01*
Y36049D01*
X236000D01*
Y40000D01*
X222000D01*
Y36049D01*
X215000D01*
Y40000D01*
X201000D01*
Y36049D01*
X194000D01*
Y40000D01*
X180000D01*
Y34500D01*
X180000Y34500D01*
X180000D01*
X179237Y33592D01*
X173698Y28052D01*
X173145Y27225D01*
X172951Y26250D01*
Y25398D01*
X172053Y24500D01*
X170000Y24500D01*
X168730Y24500D01*
X149270D01*
X148000Y24500D01*
X146730Y24500D01*
X138270D01*
X137000Y24500D01*
X135730Y24500D01*
X126000D01*
Y16273D01*
X124730Y15697D01*
X123395Y16250D01*
X121605D01*
X119951Y15565D01*
X118685Y14299D01*
X118000Y12645D01*
Y10855D01*
X118685Y9201D01*
X119951Y7935D01*
X121605Y7250D01*
X123395D01*
X124730Y7803D01*
X126000Y7227D01*
Y6500D01*
X135730D01*
X137000Y6500D01*
X138270Y6500D01*
X146730D01*
X148000Y6500D01*
X149270Y6500D01*
X168730D01*
X170000Y6500D01*
X171270Y6500D01*
X179730D01*
X181000Y6500D01*
Y6500D01*
X181000D01*
Y6500D01*
X190730D01*
X192000Y6500D01*
X193270Y6500D01*
X201730D01*
X203000Y6500D01*
X204270Y6500D01*
X212730D01*
X214000Y6500D01*
X215270Y6500D01*
X223730D01*
X225000Y6500D01*
X226270Y6500D01*
X245730D01*
X247000Y6500D01*
X248270Y6500D01*
X256730D01*
X258000Y6500D01*
Y6500D01*
X258000D01*
Y6500D01*
X269000D01*
Y12951D01*
X286944D01*
X296125Y3770D01*
X295599Y2500D01*
X107985D01*
X107499Y3673D01*
X108163Y4337D01*
X108163Y4337D01*
X108826Y5329D01*
X109059Y6500D01*
X109059Y6500D01*
Y34000D01*
X108826Y35171D01*
X108163Y36163D01*
X99596Y44730D01*
X99648Y46000D01*
X102500D01*
Y64000D01*
X90500D01*
Y46000D01*
X92238D01*
X92393Y45770D01*
X91717Y44500D01*
X82000D01*
Y34706D01*
X80827Y34220D01*
X70773Y44273D01*
X70090Y44730D01*
X70475Y46000D01*
X70895D01*
X71886Y46410D01*
X72500Y46000D01*
Y46000D01*
X84500D01*
Y64000D01*
X72500D01*
Y55478D01*
X71444Y54773D01*
X70895Y55000D01*
X69105D01*
X67451Y54315D01*
X66185Y53049D01*
X65500Y51395D01*
Y49605D01*
X66185Y47951D01*
X67451Y46685D01*
X67684Y46589D01*
X67431Y45319D01*
X65545D01*
X65299Y45565D01*
X63645Y46250D01*
X61855D01*
X60201Y45565D01*
X58935Y44299D01*
X58250Y42645D01*
Y40855D01*
X58935Y39201D01*
X60201Y37935D01*
X61855Y37250D01*
X63645D01*
X65299Y37935D01*
X65545Y38181D01*
X66772D01*
X87210Y17743D01*
X86657Y16500D01*
X85355D01*
X84770Y16258D01*
X83500Y17106D01*
Y18500D01*
X72500D01*
Y5500D01*
X83500D01*
X84030Y4922D01*
X84087Y4837D01*
X85251Y3673D01*
X84765Y2500D01*
X51171D01*
X50778Y3708D01*
X52264Y4787D01*
X55213Y7736D01*
X57665Y11111D01*
X59559Y14828D01*
X60848Y18795D01*
X61500Y22914D01*
Y27086D01*
X60848Y31205D01*
X59559Y35173D01*
X57665Y38889D01*
X55213Y42264D01*
X52264Y45213D01*
X48889Y47665D01*
X45173Y49559D01*
X41205Y50848D01*
X37086Y51500D01*
X32914D01*
X28795Y50848D01*
X24827Y49559D01*
X21111Y47665D01*
X17736Y45213D01*
X14787Y42264D01*
X12335Y38889D01*
X10441Y35173D01*
X9153Y31205D01*
X8500Y27086D01*
Y22914D01*
X9153Y18795D01*
X10441Y14828D01*
X12335Y11111D01*
X14787Y7736D01*
X17736Y4787D01*
X19222Y3708D01*
X18829Y2500D01*
X2500D01*
Y67150D01*
X-28400D01*
Y77750D01*
X31624D01*
Y92553D01*
X31800Y93750D01*
X32894Y93750D01*
X65000D01*
Y97407D01*
X80500D01*
Y96250D01*
X91500D01*
Y108250D01*
X90843D01*
Y115000D01*
X90843Y115000D01*
Y119500D01*
X91250D01*
Y128500D01*
Y137500D01*
X90843D01*
Y141750D01*
Y152729D01*
X90799Y152949D01*
X91174Y156752D01*
X92347Y160621D01*
X94253Y164186D01*
X96678Y167140D01*
X96864Y167265D01*
X97175Y167575D01*
X97271Y167721D01*
X99325Y169296D01*
X101876Y170353D01*
X104443Y170691D01*
X104614Y170657D01*
X113500D01*
Y169500D01*
X132500D01*
Y181500D01*
X113500D01*
Y180343D01*
X104614D01*
Y180347D01*
X100671Y179959D01*
X96880Y178809D01*
X93385Y176941D01*
X90942Y174936D01*
X90323Y174428D01*
D01*
X90017Y174117D01*
X90015Y174114D01*
X89492Y173502D01*
X86933Y170506D01*
X84453Y166459D01*
X82637Y162075D01*
X81529Y157460D01*
X81157Y152729D01*
X81157D01*
Y141750D01*
Y137500D01*
X80750D01*
Y128500D01*
Y119500D01*
X81157D01*
Y115000D01*
X81157Y115000D01*
Y108250D01*
X80500D01*
Y107093D01*
X65000D01*
Y111250D01*
X32894D01*
X31800Y111250D01*
X31624Y112447D01*
Y127250D01*
X-28400D01*
Y137850D01*
X2500D01*
Y160185D01*
X3770Y160895D01*
X4803Y160467D01*
X6500Y160244D01*
X14500D01*
X16197Y160467D01*
X17778Y161122D01*
X19136Y162164D01*
X20178Y163522D01*
X20833Y165103D01*
X21056Y166800D01*
X20833Y168497D01*
X20178Y170078D01*
X19136Y171436D01*
X17778Y172478D01*
X16197Y173133D01*
X14500Y173356D01*
X6500D01*
X4803Y173133D01*
X3770Y172705D01*
X2500Y173415D01*
Y246585D01*
X3770Y247295D01*
X4803Y246867D01*
X6500Y246644D01*
X14500D01*
X16197Y246867D01*
X17778Y247522D01*
X19136Y248564D01*
X20178Y249922D01*
X20833Y251503D01*
X21056Y253200D01*
X20833Y254897D01*
X20178Y256478D01*
X19136Y257836D01*
X17778Y258878D01*
X16197Y259533D01*
X14500Y259756D01*
X6500D01*
X4803Y259533D01*
X3770Y259105D01*
X2500Y259815D01*
Y277500D01*
X81848D01*
X82500Y276500D01*
X82500Y276230D01*
Y271250D01*
X95000D01*
X107500D01*
Y276230D01*
X107500Y276500D01*
X108152Y277500D01*
X172331D01*
X172486Y276244D01*
D02*
G37*
G36*
X253500Y276250D02*
X253500Y276230D01*
Y267750D01*
X266500D01*
Y268941D01*
X272500D01*
Y267750D01*
X279428D01*
X279756Y267209D01*
X279904Y266480D01*
X277837Y264413D01*
X277174Y263421D01*
X276941Y262250D01*
X276941Y262250D01*
X272500D01*
Y253750D01*
X287500D01*
Y261441D01*
X293500D01*
Y253750D01*
X297451D01*
Y251750D01*
X297645Y250774D01*
X298198Y249948D01*
X302698Y245448D01*
X303524Y244895D01*
X304500Y244701D01*
X321727D01*
X322575Y243431D01*
X322250Y242645D01*
Y240855D01*
X322935Y239201D01*
X324201Y237935D01*
X325855Y237250D01*
X327645D01*
X327645Y237250D01*
X330701Y234194D01*
Y217806D01*
X327194Y214299D01*
X307700D01*
X307174Y215569D01*
X309552Y217948D01*
X310105Y218775D01*
X310299Y219750D01*
Y234000D01*
X310105Y234975D01*
X309552Y235802D01*
X303552Y241802D01*
X302726Y242355D01*
X301750Y242549D01*
X262549D01*
Y253750D01*
X266500D01*
Y262250D01*
X253500D01*
Y253750D01*
X257451D01*
Y242549D01*
X207687D01*
X206500Y242750D01*
Y251250D01*
X194326D01*
X193096Y252480D01*
X193622Y253750D01*
X207500D01*
X207500Y253750D01*
X208605Y253500D01*
X208666Y253500D01*
X210395D01*
X211230Y253846D01*
X212500Y253750D01*
X212500Y253750D01*
X212500Y253750D01*
X215349D01*
X215846Y252480D01*
X215500Y251645D01*
Y249855D01*
X216185Y248201D01*
X217451Y246935D01*
X219105Y246250D01*
X220895D01*
X222549Y246935D01*
X223815Y248201D01*
X224500Y249855D01*
Y251645D01*
X224154Y252480D01*
X224651Y253750D01*
X227500D01*
Y262250D01*
X212500D01*
X212500Y262250D01*
Y262250D01*
X211230Y262154D01*
X210395Y262500D01*
X208666D01*
X208605Y262500D01*
X207500Y262250D01*
X207500Y262250D01*
X204273D01*
X203787Y263423D01*
X203815Y263451D01*
X204500Y265105D01*
Y266895D01*
X205071Y267750D01*
X207500D01*
Y268941D01*
X212500D01*
Y267750D01*
X227500D01*
Y268941D01*
X232500D01*
Y267750D01*
X247500D01*
Y276230D01*
X247500Y276250D01*
X247548Y277500D01*
X253452D01*
X253500Y276250D01*
D02*
G37*
G36*
X192500D02*
X192500Y276230D01*
Y267750D01*
X194929D01*
X195500Y266895D01*
Y265105D01*
X196185Y263451D01*
X196213Y263423D01*
X195727Y262250D01*
X192500D01*
Y254872D01*
X191230Y254346D01*
X187500Y258076D01*
Y262250D01*
X172500D01*
Y253750D01*
X174230D01*
X175500Y253750D01*
Y250217D01*
X174444Y249511D01*
X174205Y249610D01*
X172415D01*
X170761Y248925D01*
X169495Y247659D01*
X168503Y248326D01*
X167277Y249552D01*
X166451Y250105D01*
X165475Y250299D01*
X164750D01*
Y260924D01*
X171847Y268021D01*
X172500Y267750D01*
Y267750D01*
X187500D01*
Y276230D01*
X187500Y276250D01*
X187548Y277500D01*
X192452D01*
X192500Y276250D01*
D02*
G37*
G36*
X333500Y253750D02*
X337451D01*
Y248450D01*
X336181Y247924D01*
X335052Y249052D01*
X334226Y249605D01*
X333250Y249799D01*
X305556D01*
X302875Y252480D01*
X303335Y253750D01*
X306500D01*
Y261441D01*
X312500D01*
Y253750D01*
X327500D01*
Y261441D01*
X333500D01*
Y253750D01*
D02*
G37*
G36*
X352500D02*
X356941D01*
Y243017D01*
X352637Y238713D01*
X351974Y237721D01*
X351741Y236550D01*
X351741Y236550D01*
Y234516D01*
X350009Y233798D01*
X348025Y232276D01*
X347569Y231682D01*
X346299Y232113D01*
Y244000D01*
X346105Y244975D01*
X345552Y245802D01*
X342549Y248806D01*
Y253750D01*
X346500D01*
Y261441D01*
X352500D01*
Y253750D01*
D02*
G37*
G36*
X647500Y2500D02*
X425123D01*
X424597Y3770D01*
X444778Y23951D01*
X459278D01*
X460254Y24145D01*
X461081Y24698D01*
X478302Y41919D01*
X478855Y42746D01*
X479049Y43722D01*
Y53999D01*
X478855Y54974D01*
X478302Y55801D01*
X451801Y82302D01*
X450974Y82855D01*
X449999Y83049D01*
X409255D01*
X401799Y90506D01*
Y121397D01*
X402355Y122500D01*
X404145D01*
X405799Y123185D01*
X407065Y124451D01*
X407750Y126105D01*
Y127895D01*
X407065Y129549D01*
X405799Y130815D01*
X404145Y131500D01*
X402355D01*
X400701Y130815D01*
X399569Y129683D01*
X398941Y129776D01*
X398299Y130072D01*
Y133685D01*
X398299Y133685D01*
X399565Y134951D01*
X400250Y136605D01*
Y138395D01*
X399565Y140049D01*
X398299Y141315D01*
X396645Y142000D01*
X394855D01*
X393201Y141315D01*
X391935Y140049D01*
X391250Y138395D01*
Y136605D01*
X391935Y134951D01*
X393201Y133685D01*
X393201Y133685D01*
Y88000D01*
X393395Y87024D01*
X393948Y86198D01*
X404948Y75198D01*
X405775Y74645D01*
X406750Y74451D01*
X407979D01*
X408231Y73181D01*
X407951Y73065D01*
X406685Y71799D01*
X406000Y70145D01*
Y68355D01*
X406685Y66701D01*
X407951Y65435D01*
X409605Y64750D01*
X410674D01*
X414041Y61383D01*
Y58318D01*
X412771Y57792D01*
X412229Y58334D01*
X410023Y59248D01*
X407637D01*
X405431Y58334D01*
X403744Y56647D01*
X402830Y54441D01*
Y52055D01*
X402933Y51806D01*
X402228Y50750D01*
X383000D01*
Y31750D01*
X405651D01*
X406300Y30480D01*
X405969Y30022D01*
X383714D01*
X383713Y30022D01*
X382543Y29789D01*
X381551Y29126D01*
X376858Y24434D01*
X372457D01*
X371627Y25704D01*
X372000Y26605D01*
Y28395D01*
X371315Y30049D01*
X370049Y31315D01*
X370049Y31315D01*
Y58750D01*
X378000D01*
Y68750D01*
X357000D01*
Y63790D01*
X355827Y63279D01*
X355049Y63910D01*
Y73444D01*
X355306Y73701D01*
X357000D01*
Y71250D01*
X378000D01*
Y81250D01*
X357000D01*
Y78799D01*
X354250D01*
X353274Y78605D01*
X352448Y78052D01*
X350698Y76302D01*
X350145Y75476D01*
X349951Y74500D01*
Y64813D01*
X348778Y64327D01*
X343299Y69806D01*
Y141332D01*
X344569Y141585D01*
X344935Y140701D01*
X346201Y139435D01*
X347855Y138750D01*
X349645D01*
X349645Y138750D01*
X351448Y136948D01*
X352275Y136395D01*
X353250Y136201D01*
X357000D01*
Y133750D01*
X378000D01*
Y143750D01*
X357000D01*
Y141299D01*
X354306D01*
X353250Y142355D01*
X353250Y142355D01*
Y144145D01*
X352565Y145799D01*
X351299Y147065D01*
X349645Y147750D01*
X347855D01*
X346201Y147065D01*
X344935Y145799D01*
X344569Y144915D01*
X343299Y145168D01*
Y164694D01*
X355827Y177222D01*
X357000Y176736D01*
Y171250D01*
X366000D01*
Y176250D01*
Y181250D01*
X361484D01*
X361026Y182520D01*
X361380Y183050D01*
X361574Y184025D01*
Y203975D01*
X361380Y204950D01*
X360828Y205777D01*
X352690Y213915D01*
X353283Y215118D01*
X354800Y214918D01*
X357280Y215245D01*
X359591Y216202D01*
X361576Y217725D01*
X363098Y219709D01*
X364055Y222020D01*
X364382Y224500D01*
Y225500D01*
X364055Y227980D01*
X363098Y230291D01*
X361576Y232276D01*
X359591Y233798D01*
X358466Y234264D01*
X358265Y235689D01*
X362163Y239587D01*
X362163Y239587D01*
X362826Y240579D01*
X363059Y241750D01*
Y253750D01*
X367500D01*
Y261441D01*
X373500D01*
Y253750D01*
X375099D01*
X375742Y252480D01*
X375500Y251895D01*
Y250105D01*
X376185Y248451D01*
X377451Y247185D01*
X379105Y246500D01*
X380895D01*
X382549Y247185D01*
X383815Y248451D01*
X384500Y250105D01*
Y251895D01*
X384258Y252480D01*
X384901Y253750D01*
X386500D01*
Y261441D01*
X392500D01*
Y253750D01*
X395977D01*
X396463Y252577D01*
X396435Y252549D01*
X395750Y250895D01*
Y249105D01*
X396435Y247451D01*
X397701Y246185D01*
X399355Y245500D01*
X401145D01*
X402799Y246185D01*
X404065Y247451D01*
X404750Y249105D01*
Y250895D01*
X404065Y252549D01*
X404037Y252577D01*
X404523Y253750D01*
X407500D01*
Y262250D01*
X403059D01*
Y262500D01*
X402826Y263671D01*
X402163Y264663D01*
X400346Y266480D01*
X400494Y267210D01*
X400822Y267750D01*
X407500D01*
Y276230D01*
X407500Y276250D01*
X407548Y277500D01*
X413452D01*
X413500Y276250D01*
X413500Y276230D01*
Y267750D01*
X415022D01*
X415727Y266694D01*
X415500Y266145D01*
Y264355D01*
X415846Y263520D01*
X414997Y262250D01*
X413500D01*
Y253750D01*
X426500D01*
Y254047D01*
X427889D01*
X428605Y253750D01*
X430395D01*
X431230Y254096D01*
X432500Y253750D01*
Y253750D01*
X432500Y253750D01*
X434894D01*
X435742Y252480D01*
X435500Y251895D01*
Y250105D01*
X436185Y248451D01*
X437451Y247185D01*
X439105Y246500D01*
X440895D01*
X442549Y247185D01*
X443815Y248451D01*
X444500Y250105D01*
Y251895D01*
X444258Y252480D01*
X445106Y253750D01*
X447500D01*
Y262250D01*
X432500D01*
X432500Y262250D01*
X431284Y262382D01*
X430395Y262750D01*
X428605D01*
X427715Y262382D01*
X426500Y262250D01*
X426500Y262250D01*
X426500Y262250D01*
X425003D01*
X424154Y263520D01*
X424500Y264355D01*
Y266145D01*
X424273Y266694D01*
X424978Y267750D01*
X426500D01*
Y268941D01*
X432500D01*
Y267750D01*
X447500D01*
Y276230D01*
X447500Y276250D01*
X447548Y277500D01*
X598829D01*
X599222Y276292D01*
X597736Y275213D01*
X594787Y272264D01*
X592335Y268889D01*
X590442Y265173D01*
X589152Y261205D01*
X588500Y257086D01*
Y252914D01*
X589152Y248795D01*
X590442Y244827D01*
X592335Y241111D01*
X594787Y237736D01*
X597736Y234787D01*
X601111Y232335D01*
X604827Y230441D01*
X608795Y229153D01*
X612914Y228500D01*
X617086D01*
X621205Y229153D01*
X625173Y230441D01*
X628889Y232335D01*
X632264Y234787D01*
X635213Y237736D01*
X637665Y241111D01*
X639558Y244827D01*
X640847Y248795D01*
X641500Y252914D01*
Y257086D01*
X640847Y261205D01*
X639558Y265173D01*
X637665Y268889D01*
X635213Y272264D01*
X632264Y275213D01*
X630778Y276292D01*
X631171Y277500D01*
X647500D01*
Y2500D01*
D02*
G37*
G36*
X320500Y208250D02*
Y189250D01*
X339729D01*
X340435Y188194D01*
X340330Y187941D01*
Y185555D01*
X341244Y183349D01*
X342931Y181661D01*
X345137Y180748D01*
X345501D01*
X345987Y179575D01*
X335470Y169058D01*
X335373Y169061D01*
X334200Y169455D01*
Y176878D01*
X333890Y178439D01*
X333006Y179762D01*
X333006Y179762D01*
X328737Y184031D01*
X328315Y185049D01*
X327049Y186315D01*
X325395Y187000D01*
X323605D01*
X321951Y186315D01*
X320685Y185049D01*
X320000Y183395D01*
Y181605D01*
X320685Y179951D01*
X321951Y178685D01*
X322969Y178263D01*
X326044Y175189D01*
Y159541D01*
X325886Y159159D01*
X322055Y155328D01*
X315500D01*
Y156250D01*
X294500D01*
Y149123D01*
X293230Y148597D01*
X288779Y153048D01*
Y158698D01*
X290049Y159438D01*
X291105Y159000D01*
X292895D01*
X293230Y159139D01*
X294500Y158750D01*
Y158750D01*
X315500D01*
Y168750D01*
X294500D01*
Y168474D01*
X293230Y167861D01*
X292895Y168000D01*
X291105D01*
X290049Y167563D01*
X288779Y168302D01*
Y190924D01*
X307056Y209201D01*
X319730D01*
X320500Y208250D01*
D02*
G37*
G36*
X334701Y154047D02*
Y65056D01*
X331645Y62000D01*
X331645Y62000D01*
X329855D01*
X328201Y61315D01*
X326935Y60049D01*
X326250Y58395D01*
Y56605D01*
X326935Y54951D01*
X328201Y53685D01*
X329855Y53000D01*
X331645D01*
X333299Y53685D01*
X334565Y54951D01*
X335250Y56605D01*
Y58395D01*
X335250Y58395D01*
X339052Y62198D01*
X339605Y63025D01*
X339799Y64000D01*
Y64437D01*
X340972Y64923D01*
X345474Y60421D01*
X344935Y59164D01*
X342931Y58334D01*
X341244Y56647D01*
X340330Y54441D01*
Y52055D01*
X340433Y51806D01*
X339728Y50750D01*
X320500D01*
Y31750D01*
X319413Y31309D01*
X305017D01*
X289559Y46767D01*
Y65500D01*
X289559Y65500D01*
X289326Y66670D01*
X288663Y67663D01*
X288663Y67663D01*
X286417Y69909D01*
X286502Y70338D01*
X286709Y70522D01*
X287927Y70988D01*
X289105Y70500D01*
X290895D01*
X292549Y71185D01*
X293230Y71866D01*
X294500Y71340D01*
Y71250D01*
X311895D01*
X313222Y69923D01*
X312736Y68750D01*
X294500D01*
Y58750D01*
X302451D01*
Y46250D01*
X302645Y45275D01*
X303198Y44448D01*
X309250Y38395D01*
X309250Y38395D01*
Y36605D01*
X309935Y34951D01*
X311201Y33685D01*
X312855Y33000D01*
X314645D01*
X316299Y33685D01*
X317565Y34951D01*
X318250Y36605D01*
Y38395D01*
X317565Y40049D01*
X316299Y41315D01*
X314645Y42000D01*
X312855D01*
X312855Y42000D01*
X307549Y47306D01*
Y58750D01*
X311340D01*
X311866Y57480D01*
X311685Y57299D01*
X311000Y55645D01*
Y53855D01*
X311685Y52201D01*
X312951Y50935D01*
X314605Y50250D01*
X316395D01*
X318049Y50935D01*
X319315Y52201D01*
X320000Y53855D01*
Y55645D01*
X319808Y56108D01*
X319907Y56609D01*
Y69391D01*
X319713Y70367D01*
X319161Y71194D01*
X318625Y71730D01*
X319151Y73000D01*
X320395D01*
X322049Y73685D01*
X323315Y74951D01*
X324000Y76605D01*
Y78395D01*
X323315Y80049D01*
X322049Y81315D01*
X322049Y81315D01*
Y86500D01*
X321855Y87476D01*
X321302Y88302D01*
X319052Y90552D01*
X318225Y91105D01*
X317250Y91299D01*
X316398D01*
X315500Y92197D01*
X315500Y92753D01*
Y92768D01*
D01*
X315500Y93090D01*
X316701Y93685D01*
X318355Y93000D01*
X320145D01*
X321799Y93685D01*
X323065Y94951D01*
X323750Y96605D01*
Y98395D01*
X323065Y100049D01*
X321799Y101315D01*
X320145Y102000D01*
X318355D01*
X318355Y102000D01*
X317302Y103052D01*
X316476Y103605D01*
X315500Y103799D01*
Y106250D01*
X294500D01*
Y96250D01*
X314897D01*
X315435Y94951D01*
X314840Y93750D01*
X314519Y93750D01*
X314519Y93750D01*
X314503Y93750D01*
X294500D01*
X294500Y93750D01*
Y93750D01*
X293401Y94202D01*
X291049Y96554D01*
Y136437D01*
X292319Y136814D01*
X292946Y136395D01*
X293922Y136201D01*
X294500D01*
Y133750D01*
X315500D01*
Y143750D01*
X294549D01*
Y145218D01*
X294549Y146222D01*
X294572Y146250D01*
X315500Y146250D01*
Y147172D01*
X323744D01*
X323744Y147172D01*
X325305Y147482D01*
X326628Y148366D01*
X331653Y153392D01*
X332671Y153813D01*
X333431Y154573D01*
X334701Y154047D01*
D02*
G37*
G36*
X358951Y49935D02*
X360605Y49250D01*
X362395D01*
X363681Y49783D01*
X364951Y49178D01*
Y31315D01*
X364951Y31315D01*
X363685Y30049D01*
X363000Y28395D01*
Y26605D01*
X363373Y25704D01*
X362543Y24434D01*
X355142D01*
X349163Y30413D01*
X348171Y31076D01*
X347000Y31309D01*
X347000Y31309D01*
X346587D01*
X345500Y31750D01*
Y33590D01*
X346770Y34116D01*
X347201Y33685D01*
X348855Y33000D01*
X350645D01*
X352299Y33685D01*
X353565Y34951D01*
X354250Y36605D01*
Y38395D01*
X354250Y38395D01*
X355802Y39948D01*
X356355Y40775D01*
X356549Y41750D01*
Y50678D01*
X357191Y50974D01*
X357819Y51067D01*
X358951Y49935D01*
D02*
G37*
G36*
X417399Y69270D02*
X418375Y69076D01*
X452868D01*
X455749Y66195D01*
X455477Y65644D01*
X455082Y65066D01*
X452720Y64755D01*
X450409Y63798D01*
X448425Y62275D01*
X446902Y60291D01*
X445945Y57980D01*
X445618Y55500D01*
Y54500D01*
X445945Y52020D01*
X446902Y49709D01*
X448425Y47724D01*
X450409Y46202D01*
X452720Y45244D01*
X455082Y44934D01*
X455477Y44356D01*
X455749Y43805D01*
X451339Y39394D01*
X431681D01*
X430705Y39200D01*
X429878Y38647D01*
X402030Y10799D01*
X336709D01*
X336183Y12069D01*
X336565Y12451D01*
X337250Y14105D01*
Y14168D01*
X338306Y14874D01*
X338605Y14750D01*
X340395D01*
X342049Y15435D01*
X343315Y16701D01*
X344000Y18355D01*
Y20145D01*
X343315Y21799D01*
X342049Y23065D01*
X340395Y23750D01*
X338856D01*
X338651Y23921D01*
X339113Y25191D01*
X345733D01*
X351712Y19212D01*
X351712Y19212D01*
X352705Y18549D01*
X353875Y18316D01*
X353875Y18316D01*
X378125D01*
X378125Y18316D01*
X379296Y18549D01*
X380288Y19212D01*
X384981Y23905D01*
X407963D01*
X407963Y23905D01*
X409134Y24138D01*
X410126Y24801D01*
X419263Y33937D01*
X419263Y33937D01*
X419926Y34929D01*
X420159Y36100D01*
X420159Y36100D01*
Y43788D01*
X420300Y45000D01*
X421429Y45000D01*
X439300D01*
Y65000D01*
X420665D01*
X420300Y65000D01*
X419043Y65032D01*
X415602Y68474D01*
X415690Y68918D01*
X415808Y69039D01*
X417096Y69473D01*
X417399Y69270D01*
D02*
G37*
G36*
X473951Y52943D02*
Y44778D01*
X458222Y29049D01*
X443722D01*
X442746Y28855D01*
X441920Y28302D01*
X420916Y7299D01*
X407399D01*
X406913Y8472D01*
X432737Y34296D01*
X452394D01*
X453370Y34490D01*
X454197Y35043D01*
X467502Y48348D01*
X468055Y49175D01*
X468249Y50151D01*
Y56986D01*
X469422Y57472D01*
X473951Y52943D01*
D02*
G37*
%LPC*%
G36*
X144000Y274750D02*
X141500D01*
Y271500D01*
X144000D01*
Y274750D01*
D02*
G37*
G36*
Y268500D02*
X141500D01*
Y265250D01*
X144000D01*
Y268500D01*
D02*
G37*
G36*
X107500Y268250D02*
X95000D01*
X82500D01*
Y265000D01*
X82002D01*
Y244999D01*
X82500D01*
Y241750D01*
X95000D01*
X107500D01*
Y244999D01*
X108002D01*
Y248500D01*
X117000D01*
Y251941D01*
X118750D01*
Y247500D01*
X127250D01*
Y262500D01*
X118750D01*
Y258059D01*
X117000D01*
Y261500D01*
X108002D01*
Y265000D01*
X107500D01*
Y268250D01*
D02*
G37*
G36*
X57550Y260008D02*
X47050D01*
X45288Y259776D01*
X43646Y259096D01*
X42236Y258014D01*
X41154Y256604D01*
X40474Y254962D01*
X40242Y253200D01*
X40474Y251438D01*
X41154Y249796D01*
X42236Y248386D01*
X43646Y247304D01*
X45288Y246624D01*
X47050Y246392D01*
X57550D01*
X59312Y246624D01*
X60954Y247304D01*
X62364Y248386D01*
X63446Y249796D01*
X64126Y251438D01*
X64358Y253200D01*
X64126Y254962D01*
X63446Y256604D01*
X62364Y258014D01*
X60954Y259096D01*
X59312Y259776D01*
X57550Y260008D01*
D02*
G37*
G36*
X191000Y235250D02*
X188000D01*
Y232250D01*
X191000D01*
Y235250D01*
D02*
G37*
G36*
X185000D02*
X182000D01*
Y232250D01*
X185000D01*
Y235250D01*
D02*
G37*
G36*
X206500Y231500D02*
X201500D01*
Y228750D01*
X206500D01*
Y231500D01*
D02*
G37*
G36*
X198500D02*
X193500D01*
Y228750D01*
X198500D01*
Y231500D01*
D02*
G37*
G36*
X107500Y238750D02*
X96500D01*
Y233500D01*
X97098D01*
X97750Y232500D01*
X97750Y232230D01*
Y226500D01*
X106250D01*
Y232230D01*
X106250Y232500D01*
X106902Y233500D01*
X107500D01*
Y238750D01*
D02*
G37*
G36*
X191000Y229250D02*
X188000D01*
Y226250D01*
X191000D01*
Y229250D01*
D02*
G37*
G36*
X185000D02*
X182000D01*
Y226250D01*
X185000D01*
Y229250D01*
D02*
G37*
G36*
X106250Y223500D02*
X103500D01*
Y217500D01*
X106250D01*
Y223500D01*
D02*
G37*
G36*
X100500D02*
X97750D01*
Y217500D01*
X100500D01*
Y223500D01*
D02*
G37*
G36*
X48245Y243650D02*
X46355D01*
X44609Y242927D01*
X43273Y241591D01*
X42550Y239845D01*
Y237955D01*
X43273Y236209D01*
X44609Y234873D01*
X46355Y234150D01*
X48245D01*
X49530Y234682D01*
X50800Y234023D01*
Y224000D01*
X47300D01*
Y222463D01*
X46346Y221826D01*
X45174Y220654D01*
X43848Y218669D01*
X43383Y216328D01*
Y209250D01*
X43848Y206909D01*
X45174Y204924D01*
X46924Y203174D01*
X47300Y202923D01*
Y196000D01*
X46530Y195049D01*
X46250D01*
X45275Y194855D01*
X44448Y194302D01*
X33448Y183302D01*
X32895Y182475D01*
X32701Y181500D01*
Y159750D01*
X32895Y158775D01*
X33448Y157948D01*
X45698Y145698D01*
X46525Y145145D01*
X47500Y144951D01*
X54435D01*
X54435Y144951D01*
X55701Y143685D01*
X57355Y143000D01*
X59145D01*
X60799Y143685D01*
X62065Y144951D01*
X62750Y146605D01*
Y148395D01*
X62065Y150049D01*
X60799Y151315D01*
X59145Y152000D01*
X57355D01*
X55701Y151315D01*
X54435Y150049D01*
X54435Y150049D01*
X48556D01*
X37799Y160806D01*
Y180444D01*
X47306Y189951D01*
X50800D01*
Y185977D01*
X49530Y185318D01*
X48245Y185850D01*
X46355D01*
X44609Y185127D01*
X43273Y183791D01*
X42550Y182045D01*
Y180155D01*
X43273Y178409D01*
X44609Y177073D01*
X46355Y176350D01*
X48245D01*
X49991Y177073D01*
X51327Y178409D01*
X52050Y180155D01*
Y181500D01*
X65300D01*
Y181500D01*
X66570Y181722D01*
X67105Y181500D01*
X68895D01*
X70549Y182185D01*
X71815Y183451D01*
X72500Y185105D01*
Y186895D01*
X71815Y188549D01*
X70549Y189815D01*
X68895Y190500D01*
X67105D01*
X66570Y190278D01*
X65300Y190951D01*
Y193471D01*
X65972Y194632D01*
X70528D01*
X72869Y195098D01*
X74854Y196424D01*
X78076Y199646D01*
X79402Y201631D01*
X79868Y203972D01*
Y208528D01*
X79402Y210869D01*
X78076Y212854D01*
X76250Y214680D01*
Y214803D01*
X75705Y216838D01*
X74652Y218662D01*
X74465Y218848D01*
X74468Y219242D01*
X74769Y220341D01*
X75302Y220698D01*
X77467Y222863D01*
X83750D01*
Y217500D01*
X92250D01*
Y232230D01*
X92250Y232500D01*
X92902Y233500D01*
X93500D01*
Y238750D01*
X82500D01*
Y233500D01*
X83098D01*
X83750Y232500D01*
X83750Y232230D01*
Y227961D01*
X76412D01*
X75436Y227767D01*
X74609Y227214D01*
X72444Y225049D01*
X65300D01*
Y228873D01*
X66350Y229683D01*
X66570Y229722D01*
X67105Y229500D01*
X68895D01*
X70549Y230185D01*
X71815Y231451D01*
X72500Y233105D01*
Y234895D01*
X71815Y236549D01*
X70549Y237815D01*
X68895Y238500D01*
X67105D01*
X66570Y238278D01*
X65300Y238500D01*
Y238500D01*
X65300Y238500D01*
X52050D01*
Y239845D01*
X51327Y241591D01*
X49991Y242927D01*
X48245Y243650D01*
D02*
G37*
G36*
X257000Y195500D02*
X251500D01*
Y190000D01*
X257000D01*
Y195500D01*
D02*
G37*
G36*
X248500D02*
X243000D01*
Y190000D01*
X248500D01*
Y195500D01*
D02*
G37*
G36*
X236000D02*
X230500D01*
Y190000D01*
X236000D01*
Y195500D01*
D02*
G37*
G36*
X227500D02*
X222000D01*
Y190000D01*
X227500D01*
Y195500D01*
D02*
G37*
G36*
X215000D02*
X209500D01*
Y190000D01*
X215000D01*
Y195500D01*
D02*
G37*
G36*
X206500D02*
X201000D01*
Y190000D01*
X206500D01*
Y195500D01*
D02*
G37*
G36*
X194000D02*
X188500D01*
Y190000D01*
X194000D01*
Y195500D01*
D02*
G37*
G36*
X185500D02*
X180000D01*
Y190000D01*
X185500D01*
Y195500D01*
D02*
G37*
G36*
X173000D02*
X167500D01*
Y190000D01*
X173000D01*
Y195500D01*
D02*
G37*
G36*
X164500D02*
X159000D01*
Y190000D01*
X164500D01*
Y195500D01*
D02*
G37*
G36*
X152000D02*
X146500D01*
Y190000D01*
X152000D01*
Y195500D01*
D02*
G37*
G36*
X143500D02*
X138000D01*
Y190000D01*
X143500D01*
Y195500D01*
D02*
G37*
G36*
X270500Y192000D02*
X263000D01*
Y188000D01*
X270500D01*
Y192000D01*
D02*
G37*
G36*
X257000Y187000D02*
X251500D01*
Y181500D01*
X257000D01*
Y187000D01*
D02*
G37*
G36*
X248500D02*
X243000D01*
Y181500D01*
X248500D01*
Y187000D01*
D02*
G37*
G36*
X236000D02*
X230500D01*
Y181500D01*
X236000D01*
Y187000D01*
D02*
G37*
G36*
X227500D02*
X222000D01*
Y181500D01*
X227500D01*
Y187000D01*
D02*
G37*
G36*
X215000D02*
X209500D01*
Y181500D01*
X215000D01*
Y187000D01*
D02*
G37*
G36*
X206500D02*
X201000D01*
Y181500D01*
X206500D01*
Y187000D01*
D02*
G37*
G36*
X194000D02*
X188500D01*
Y181500D01*
X194000D01*
Y187000D01*
D02*
G37*
G36*
X185500D02*
X180000D01*
Y181500D01*
X185500D01*
Y187000D01*
D02*
G37*
G36*
X173000D02*
X167500D01*
Y181500D01*
X173000D01*
Y187000D01*
D02*
G37*
G36*
X164500D02*
X159000D01*
Y181500D01*
X164500D01*
Y187000D01*
D02*
G37*
G36*
X152000D02*
X146500D01*
Y181500D01*
X152000D01*
Y187000D01*
D02*
G37*
G36*
X143500D02*
X138000D01*
Y181500D01*
X143500D01*
Y187000D01*
D02*
G37*
G36*
X248500Y174500D02*
X243000D01*
Y169000D01*
X248500D01*
Y174500D01*
D02*
G37*
G36*
X236000D02*
X230500D01*
Y169000D01*
X236000D01*
Y174500D01*
D02*
G37*
G36*
X227500D02*
X222000D01*
Y169000D01*
X227500D01*
Y174500D01*
D02*
G37*
G36*
X215000D02*
X209500D01*
Y169000D01*
X215000D01*
Y174500D01*
D02*
G37*
G36*
X206500D02*
X201000D01*
Y169000D01*
X206500D01*
Y174500D01*
D02*
G37*
G36*
X194000D02*
X188500D01*
Y169000D01*
X194000D01*
Y174500D01*
D02*
G37*
G36*
X185500D02*
X180000D01*
Y169000D01*
X185500D01*
Y174500D01*
D02*
G37*
G36*
X173000D02*
X167500D01*
Y169000D01*
X173000D01*
Y174500D01*
D02*
G37*
G36*
X164500D02*
X159000D01*
Y169000D01*
X164500D01*
Y174500D01*
D02*
G37*
G36*
X152000D02*
X146500D01*
Y169000D01*
X152000D01*
Y174500D01*
D02*
G37*
G36*
X143500D02*
X138000D01*
Y169000D01*
X143500D01*
Y174500D01*
D02*
G37*
G36*
X248500Y166000D02*
X243000D01*
Y160500D01*
X248500D01*
Y166000D01*
D02*
G37*
G36*
X215000D02*
X209500D01*
Y160500D01*
X215000D01*
Y166000D01*
D02*
G37*
G36*
X206500D02*
X201000D01*
Y160500D01*
X206500D01*
Y166000D01*
D02*
G37*
G36*
X194000D02*
X188500D01*
Y160500D01*
X194000D01*
Y166000D01*
D02*
G37*
G36*
X185500D02*
X180000D01*
Y160500D01*
X185500D01*
Y166000D01*
D02*
G37*
G36*
X173000D02*
X167500D01*
Y160500D01*
X173000D01*
Y166000D01*
D02*
G37*
G36*
X164500D02*
X159000D01*
Y160500D01*
X164500D01*
Y166000D01*
D02*
G37*
G36*
X152000D02*
X146500D01*
Y160500D01*
X152000D01*
Y166000D01*
D02*
G37*
G36*
X143500D02*
X138000D01*
Y160500D01*
X143500D01*
Y166000D01*
D02*
G37*
G36*
X227500D02*
X222000D01*
Y160500D01*
X227500D01*
Y166000D01*
D02*
G37*
G36*
X57550Y173608D02*
X47050D01*
X45288Y173376D01*
X43646Y172696D01*
X42236Y171614D01*
X41154Y170204D01*
X40474Y168562D01*
X40242Y166800D01*
X40474Y165038D01*
X41154Y163396D01*
X42236Y161986D01*
X43646Y160904D01*
X45288Y160224D01*
X47050Y159992D01*
X57550D01*
X59312Y160224D01*
X60954Y160904D01*
X62364Y161986D01*
X63446Y163396D01*
X64126Y165038D01*
X64358Y166800D01*
X64126Y168562D01*
X63446Y170204D01*
X62364Y171614D01*
X60954Y172696D01*
X59312Y173376D01*
X57550Y173608D01*
D02*
G37*
G36*
X248500Y153500D02*
X243000D01*
Y148000D01*
X248500D01*
Y153500D01*
D02*
G37*
G36*
X236000Y166000D02*
X230500D01*
Y160500D01*
X234874D01*
X235012Y160500D01*
X235136Y159878D01*
X235136D01*
Y159878D01*
X234610Y158728D01*
X233737Y157856D01*
X233052Y156202D01*
Y154411D01*
X232443Y153500D01*
X230500D01*
Y148000D01*
X236000D01*
Y150367D01*
X236657Y150807D01*
X238447D01*
X240101Y151492D01*
X241367Y152758D01*
X242052Y154411D01*
Y156202D01*
X241367Y157856D01*
X240101Y159122D01*
X238447Y159807D01*
X237482D01*
X236339Y160340D01*
X236339D01*
X236339Y160340D01*
D01*
X236000Y160909D01*
X236000Y161182D01*
Y166000D01*
D02*
G37*
G36*
X227500Y153500D02*
X222000D01*
Y148000D01*
X227500D01*
Y153500D01*
D02*
G37*
G36*
X215000D02*
X209500D01*
Y148000D01*
X215000D01*
Y153500D01*
D02*
G37*
G36*
X206500D02*
X201000D01*
Y148000D01*
X206500D01*
Y153500D01*
D02*
G37*
G36*
X194000D02*
X188500D01*
Y148000D01*
X194000D01*
Y153500D01*
D02*
G37*
G36*
X185500D02*
X180000D01*
Y148000D01*
X185500D01*
Y153500D01*
D02*
G37*
G36*
X173000D02*
X167500D01*
Y148000D01*
X173000D01*
Y153500D01*
D02*
G37*
G36*
X164500D02*
X159000D01*
Y148000D01*
X164500D01*
Y153500D01*
D02*
G37*
G36*
X152000D02*
X146500D01*
Y148000D01*
X152000D01*
Y153500D01*
D02*
G37*
G36*
X257000Y145000D02*
X251500D01*
Y139500D01*
X257000D01*
Y145000D01*
D02*
G37*
G36*
X248500D02*
X243000D01*
Y139500D01*
X248500D01*
Y145000D01*
D02*
G37*
G36*
X236000D02*
X230500D01*
Y139500D01*
X236000D01*
Y145000D01*
D02*
G37*
G36*
X227500D02*
X222000D01*
Y139500D01*
X227500D01*
Y145000D01*
D02*
G37*
G36*
X215000D02*
X209500D01*
Y139500D01*
X215000D01*
Y145000D01*
D02*
G37*
G36*
X206500D02*
X201000D01*
Y139500D01*
X206500D01*
Y145000D01*
D02*
G37*
G36*
X194000D02*
X188500D01*
Y139500D01*
X194000D01*
Y145000D01*
D02*
G37*
G36*
X185500D02*
X180000D01*
Y139500D01*
X185500D01*
Y145000D01*
D02*
G37*
G36*
X173000D02*
X167500D01*
Y139500D01*
X173000D01*
Y145000D01*
D02*
G37*
G36*
X164500D02*
X159000D01*
Y139500D01*
X164500D01*
Y145000D01*
D02*
G37*
G36*
X152000D02*
X146500D01*
Y139500D01*
X152000D01*
Y145000D01*
D02*
G37*
G36*
X132000Y159000D02*
X114000D01*
Y149270D01*
X114000Y148000D01*
X114000D01*
Y148000D01*
X114000D01*
Y138270D01*
X114000Y137000D01*
X114000Y135730D01*
Y127270D01*
X114000Y126000D01*
X114000D01*
Y126000D01*
X114000D01*
Y115000D01*
Y105270D01*
X114000Y104000D01*
X114000Y102730D01*
Y94270D01*
X114000Y93000D01*
X114000Y91730D01*
Y83270D01*
X114000Y82000D01*
X114000Y80730D01*
Y72270D01*
X114000Y71000D01*
X114000Y69730D01*
Y67000D01*
X132000D01*
Y69730D01*
X132000Y71000D01*
X132000Y72270D01*
Y80730D01*
X132000Y82000D01*
X132000Y83270D01*
Y91730D01*
X132000Y93000D01*
X132000Y94270D01*
Y102730D01*
X132000Y104000D01*
X132000Y105270D01*
Y115429D01*
X132855Y116000D01*
X134645D01*
X136299Y116685D01*
X137565Y117951D01*
X137607Y118052D01*
X138000Y118500D01*
X143500D01*
Y125500D01*
Y132500D01*
X138707D01*
X138065Y134049D01*
X136799Y135315D01*
X135145Y136000D01*
X133711D01*
X132723Y136781D01*
X132576Y136963D01*
X133105Y138000D01*
X134895D01*
X136549Y138685D01*
X136916Y139052D01*
X138000Y139500D01*
X138000Y139500D01*
Y139500D01*
X138000Y139500D01*
X143500D01*
Y146500D01*
Y153500D01*
X138500D01*
Y154395D01*
X137815Y156049D01*
X136549Y157315D01*
X134895Y158000D01*
X133105D01*
X133056Y157980D01*
X132000Y158685D01*
Y159000D01*
D02*
G37*
G36*
X257000Y132500D02*
X251500D01*
Y127000D01*
X257000D01*
Y132500D01*
D02*
G37*
G36*
X248500D02*
X243000D01*
Y127000D01*
X248500D01*
Y132500D01*
D02*
G37*
G36*
X236000D02*
X230500D01*
Y127000D01*
X236000D01*
Y132500D01*
D02*
G37*
G36*
X227500D02*
X222000D01*
Y127000D01*
X227500D01*
Y132500D01*
D02*
G37*
G36*
X215000D02*
X209500D01*
Y127000D01*
X215000D01*
Y132500D01*
D02*
G37*
G36*
X206500D02*
X201000D01*
Y127000D01*
X206500D01*
Y132500D01*
D02*
G37*
G36*
X194000D02*
X188500D01*
Y127000D01*
X194000D01*
Y132500D01*
D02*
G37*
G36*
X185500D02*
X180000D01*
Y127000D01*
X185500D01*
Y132500D01*
D02*
G37*
G36*
X173000D02*
X167500D01*
Y127000D01*
X173000D01*
Y132500D01*
D02*
G37*
G36*
X164500D02*
X159000D01*
Y127000D01*
X164500D01*
Y132500D01*
D02*
G37*
G36*
X152000D02*
X146500D01*
Y127000D01*
X152000D01*
Y132500D01*
D02*
G37*
G36*
X257000Y124000D02*
X251500D01*
Y118500D01*
X257000D01*
Y124000D01*
D02*
G37*
G36*
X248500D02*
X243000D01*
Y118500D01*
X248500D01*
Y124000D01*
D02*
G37*
G36*
X236000D02*
X230500D01*
Y118500D01*
X236000D01*
Y124000D01*
D02*
G37*
G36*
X227500D02*
X222000D01*
Y118500D01*
X227500D01*
Y124000D01*
D02*
G37*
G36*
X215000D02*
X209500D01*
Y118500D01*
X215000D01*
Y124000D01*
D02*
G37*
G36*
X206500D02*
X201000D01*
Y118500D01*
X206500D01*
Y124000D01*
D02*
G37*
G36*
X194000D02*
X188500D01*
Y118500D01*
X194000D01*
Y124000D01*
D02*
G37*
G36*
X185500D02*
X180000D01*
Y118500D01*
X185500D01*
Y124000D01*
D02*
G37*
G36*
X173000D02*
X167500D01*
Y118500D01*
X173000D01*
Y124000D01*
D02*
G37*
G36*
X164500D02*
X159000D01*
Y118500D01*
X164500D01*
Y124000D01*
D02*
G37*
G36*
X152000D02*
X146500D01*
Y118500D01*
X152000D01*
Y124000D01*
D02*
G37*
G36*
X104250Y121500D02*
X95750D01*
Y108500D01*
X104250D01*
Y109929D01*
X105105Y110500D01*
X106895D01*
X108549Y111185D01*
X109815Y112451D01*
X110500Y114105D01*
Y115895D01*
X109815Y117549D01*
X108549Y118815D01*
X106895Y119500D01*
X105105D01*
X104250Y120071D01*
Y121500D01*
D02*
G37*
G36*
X248500Y111500D02*
X243000D01*
Y106000D01*
X248500D01*
Y111500D01*
D02*
G37*
G36*
X236000D02*
X230500D01*
Y106000D01*
X236000D01*
Y111500D01*
D02*
G37*
G36*
X227500D02*
X222000D01*
Y106000D01*
X227500D01*
Y111500D01*
D02*
G37*
G36*
X215000D02*
X209500D01*
Y106000D01*
X215000D01*
Y111500D01*
D02*
G37*
G36*
X206500D02*
X201000D01*
Y106000D01*
X206500D01*
Y111500D01*
D02*
G37*
G36*
X194000D02*
X188500D01*
Y106000D01*
X194000D01*
Y111500D01*
D02*
G37*
G36*
X185500D02*
X180000D01*
Y106000D01*
X185500D01*
Y111500D01*
D02*
G37*
G36*
X173000D02*
X167500D01*
Y106000D01*
X173000D01*
Y111500D01*
D02*
G37*
G36*
X164500D02*
X159000D01*
Y106000D01*
X164500D01*
Y111500D01*
D02*
G37*
G36*
X152000D02*
X146500D01*
Y106000D01*
X152000D01*
Y111500D01*
D02*
G37*
G36*
X143500D02*
X138000D01*
Y106000D01*
X143500D01*
Y111500D01*
D02*
G37*
G36*
X236000Y103000D02*
X230500D01*
Y97500D01*
X236000D01*
Y103000D01*
D02*
G37*
G36*
X227500D02*
X222000D01*
Y97500D01*
X227500D01*
Y103000D01*
D02*
G37*
G36*
X215000D02*
X209500D01*
Y97500D01*
X215000D01*
Y103000D01*
D02*
G37*
G36*
X206500D02*
X201000D01*
Y97500D01*
X206500D01*
Y103000D01*
D02*
G37*
G36*
X194000D02*
X188500D01*
Y97500D01*
X194000D01*
Y103000D01*
D02*
G37*
G36*
X185500D02*
X180000D01*
Y97500D01*
X185500D01*
Y103000D01*
D02*
G37*
G36*
X173000D02*
X167500D01*
Y97500D01*
X173000D01*
Y103000D01*
D02*
G37*
G36*
X164500D02*
X159000D01*
Y97500D01*
X164500D01*
Y103000D01*
D02*
G37*
G36*
X152000D02*
X146500D01*
Y97500D01*
X152000D01*
Y103000D01*
D02*
G37*
G36*
X143500D02*
X138000D01*
Y97500D01*
X143500D01*
Y103000D01*
D02*
G37*
G36*
X248500D02*
X243000D01*
Y97500D01*
X248500D01*
Y103000D01*
D02*
G37*
G36*
X257000Y90500D02*
X251500D01*
Y85000D01*
X257000D01*
Y90500D01*
D02*
G37*
G36*
X248500D02*
X243000D01*
Y85000D01*
X248500D01*
Y90500D01*
D02*
G37*
G36*
X236000D02*
X230500D01*
Y85000D01*
X236000D01*
Y90500D01*
D02*
G37*
G36*
X227500D02*
X222000D01*
Y85000D01*
X227500D01*
Y90500D01*
D02*
G37*
G36*
X215000D02*
X209500D01*
Y85000D01*
X215000D01*
Y90500D01*
D02*
G37*
G36*
X206500D02*
X201000D01*
Y85000D01*
X206500D01*
Y90500D01*
D02*
G37*
G36*
X194000D02*
X188500D01*
Y85000D01*
X194000D01*
Y90500D01*
D02*
G37*
G36*
X185500D02*
X180000D01*
Y85000D01*
X185500D01*
Y90500D01*
D02*
G37*
G36*
X173000D02*
X167500D01*
Y85000D01*
X173000D01*
Y90500D01*
D02*
G37*
G36*
X164500D02*
X159000D01*
Y85000D01*
X164500D01*
Y90500D01*
D02*
G37*
G36*
X152000D02*
X146500D01*
Y85000D01*
X152000D01*
Y90500D01*
D02*
G37*
G36*
X143500D02*
X138000D01*
Y85000D01*
X143500D01*
Y90500D01*
D02*
G37*
G36*
X257000Y82000D02*
X251500D01*
Y76500D01*
X257000D01*
Y82000D01*
D02*
G37*
G36*
X248500D02*
X243000D01*
Y76500D01*
X248500D01*
Y82000D01*
D02*
G37*
G36*
X236000D02*
X230500D01*
Y76500D01*
X236000D01*
Y82000D01*
D02*
G37*
G36*
X227500D02*
X222000D01*
Y76500D01*
X227500D01*
Y82000D01*
D02*
G37*
G36*
X215000D02*
X209500D01*
Y76500D01*
X215000D01*
Y82000D01*
D02*
G37*
G36*
X206500D02*
X201000D01*
Y76500D01*
X206500D01*
Y82000D01*
D02*
G37*
G36*
X194000D02*
X188500D01*
Y76500D01*
X194000D01*
Y82000D01*
D02*
G37*
G36*
X185500D02*
X180000D01*
Y76500D01*
X185500D01*
Y82000D01*
D02*
G37*
G36*
X173000D02*
X167500D01*
Y76500D01*
X173000D01*
Y82000D01*
D02*
G37*
G36*
X164500D02*
X159000D01*
Y76500D01*
X164500D01*
Y82000D01*
D02*
G37*
G36*
X152000D02*
X146500D01*
Y76500D01*
X152000D01*
Y82000D01*
D02*
G37*
G36*
X143500D02*
X138000D01*
Y76500D01*
X143500D01*
Y82000D01*
D02*
G37*
G36*
X257000Y69500D02*
X251500D01*
Y64000D01*
X257000D01*
Y69500D01*
D02*
G37*
G36*
X248500D02*
X243000D01*
Y64000D01*
X248500D01*
Y69500D01*
D02*
G37*
G36*
X236000D02*
X230500D01*
Y64000D01*
X236000D01*
Y69500D01*
D02*
G37*
G36*
X227500D02*
X222000D01*
Y64000D01*
X227500D01*
Y69500D01*
D02*
G37*
G36*
X215000D02*
X209500D01*
Y64000D01*
X215000D01*
Y69500D01*
D02*
G37*
G36*
X206500D02*
X201000D01*
Y64000D01*
X206500D01*
Y69500D01*
D02*
G37*
G36*
X194000D02*
X188500D01*
Y64000D01*
X194000D01*
Y69500D01*
D02*
G37*
G36*
X185500D02*
X180000D01*
Y64000D01*
X185500D01*
Y69500D01*
D02*
G37*
G36*
X173000D02*
X167500D01*
Y64000D01*
X173000D01*
Y69500D01*
D02*
G37*
G36*
X164500D02*
X159000D01*
Y64000D01*
X164500D01*
Y69500D01*
D02*
G37*
G36*
X152000D02*
X146500D01*
Y64000D01*
X152000D01*
Y69500D01*
D02*
G37*
G36*
X143500D02*
X138000D01*
Y64000D01*
X143500D01*
Y69500D01*
D02*
G37*
G36*
X257000Y61000D02*
X251500D01*
Y55500D01*
X257000D01*
Y61000D01*
D02*
G37*
G36*
X248500D02*
X243000D01*
Y55500D01*
X248500D01*
Y61000D01*
D02*
G37*
G36*
X236000D02*
X230500D01*
Y55500D01*
X236000D01*
Y61000D01*
D02*
G37*
G36*
X227500D02*
X222000D01*
Y55500D01*
X227500D01*
Y61000D01*
D02*
G37*
G36*
X215000D02*
X209500D01*
Y55500D01*
X215000D01*
Y61000D01*
D02*
G37*
G36*
X206500D02*
X201000D01*
Y55500D01*
X206500D01*
Y61000D01*
D02*
G37*
G36*
X194000D02*
X188500D01*
Y55500D01*
X194000D01*
Y61000D01*
D02*
G37*
G36*
X185500D02*
X180000D01*
Y55500D01*
X185500D01*
Y61000D01*
D02*
G37*
G36*
X173000D02*
X167500D01*
Y55500D01*
X173000D01*
Y61000D01*
D02*
G37*
G36*
X164500D02*
X159000D01*
Y55500D01*
X164500D01*
Y61000D01*
D02*
G37*
G36*
X152000D02*
X146500D01*
Y55500D01*
X152000D01*
Y61000D01*
D02*
G37*
G36*
X143500D02*
X138000D01*
Y55500D01*
X143500D01*
Y61000D01*
D02*
G37*
G36*
X132000Y64000D02*
X114000D01*
Y61270D01*
X114000Y60000D01*
X114000Y58730D01*
Y50270D01*
X114000Y49000D01*
X114000Y47730D01*
Y45000D01*
X132000D01*
Y47730D01*
X132000Y49000D01*
X132000Y50270D01*
Y58730D01*
X132000Y60000D01*
X132000Y61270D01*
Y64000D01*
D02*
G37*
G36*
X257000Y48500D02*
X251500D01*
Y43000D01*
X257000D01*
Y48500D01*
D02*
G37*
G36*
X248500D02*
X243000D01*
Y43000D01*
X248500D01*
Y48500D01*
D02*
G37*
G36*
X236000D02*
X230500D01*
Y43000D01*
X236000D01*
Y48500D01*
D02*
G37*
G36*
X227500D02*
X222000D01*
Y43000D01*
X227500D01*
Y48500D01*
D02*
G37*
G36*
X215000D02*
X209500D01*
Y43000D01*
X215000D01*
Y48500D01*
D02*
G37*
G36*
X206500D02*
X201000D01*
Y43000D01*
X206500D01*
Y48500D01*
D02*
G37*
G36*
X194000D02*
X188500D01*
Y43000D01*
X194000D01*
Y48500D01*
D02*
G37*
G36*
X185500D02*
X180000D01*
Y43000D01*
X185500D01*
Y48500D01*
D02*
G37*
G36*
X173000D02*
X167500D01*
Y43000D01*
X173000D01*
Y48500D01*
D02*
G37*
G36*
X164500D02*
X159000D01*
Y43000D01*
X164500D01*
Y48500D01*
D02*
G37*
G36*
X152000D02*
X146500D01*
Y43000D01*
X152000D01*
Y48500D01*
D02*
G37*
G36*
X143500D02*
X138000D01*
Y43000D01*
X143500D01*
Y48500D01*
D02*
G37*
G36*
X132000Y42000D02*
X124500D01*
Y38000D01*
X132000D01*
Y42000D01*
D02*
G37*
G36*
X121500D02*
X114000D01*
Y38000D01*
X121500D01*
Y42000D01*
D02*
G37*
G36*
X173000Y40000D02*
X167500D01*
Y34500D01*
X173000D01*
Y40000D01*
D02*
G37*
G36*
X164500D02*
X159000D01*
Y34500D01*
X164500D01*
Y40000D01*
D02*
G37*
G36*
X152000D02*
X146500D01*
Y34500D01*
X152000D01*
Y40000D01*
D02*
G37*
G36*
X143500D02*
X138000D01*
Y34500D01*
X143500D01*
Y40000D01*
D02*
G37*
G36*
X247500Y262250D02*
X232500D01*
Y253750D01*
X234918D01*
X235624Y252694D01*
X235500Y252395D01*
Y250605D01*
X236185Y248951D01*
X237451Y247685D01*
X239105Y247000D01*
X240895D01*
X242549Y247685D01*
X243815Y248951D01*
X244500Y250605D01*
Y252395D01*
X244376Y252694D01*
X245082Y253750D01*
X247500D01*
Y262250D01*
D02*
G37*
G36*
X523551Y271900D02*
X521049D01*
X518633Y271253D01*
X516467Y270002D01*
X514698Y268233D01*
X513447Y266067D01*
X512800Y263651D01*
Y261149D01*
X513447Y258733D01*
X514698Y256567D01*
X516467Y254798D01*
X518633Y253547D01*
X521049Y252900D01*
X523551D01*
X525967Y253547D01*
X528133Y254798D01*
X529902Y256567D01*
X531153Y258733D01*
X531800Y261149D01*
Y263651D01*
X531153Y266067D01*
X529902Y268233D01*
X528133Y270002D01*
X525967Y271253D01*
X523551Y271900D01*
D02*
G37*
G36*
X574022Y244000D02*
X572178D01*
X570398Y243523D01*
X568802Y242601D01*
X567499Y241298D01*
X566577Y239702D01*
X566100Y237922D01*
Y236078D01*
X566577Y234298D01*
X567499Y232702D01*
X568802Y231399D01*
X570398Y230477D01*
X572178Y230000D01*
X574022D01*
X575802Y230477D01*
X577398Y231399D01*
X578701Y232702D01*
X579623Y234298D01*
X580100Y236078D01*
Y237922D01*
X579623Y239702D01*
X578701Y241298D01*
X577398Y242601D01*
X575802Y243523D01*
X574022Y244000D01*
D02*
G37*
G36*
X548622D02*
X546778D01*
X544998Y243523D01*
X543402Y242601D01*
X542099Y241298D01*
X541177Y239702D01*
X540700Y237922D01*
Y236078D01*
X541177Y234298D01*
X542099Y232702D01*
X543402Y231399D01*
X544998Y230477D01*
X546778Y230000D01*
X548622D01*
X550402Y230477D01*
X551998Y231399D01*
X553301Y232702D01*
X554223Y234298D01*
X554700Y236078D01*
Y237922D01*
X554223Y239702D01*
X553301Y241298D01*
X551998Y242601D01*
X550402Y243523D01*
X548622Y244000D01*
D02*
G37*
G36*
X523222D02*
X521378D01*
X519598Y243523D01*
X518002Y242601D01*
X516699Y241298D01*
X515777Y239702D01*
X515300Y237922D01*
Y236078D01*
X515777Y234298D01*
X516699Y232702D01*
X518002Y231399D01*
X519598Y230477D01*
X521378Y230000D01*
X523222D01*
X525002Y230477D01*
X526598Y231399D01*
X527901Y232702D01*
X528823Y234298D01*
X529300Y236078D01*
Y237922D01*
X528823Y239702D01*
X527901Y241298D01*
X526598Y242601D01*
X525002Y243523D01*
X523222Y244000D01*
D02*
G37*
G36*
X497822D02*
X495978D01*
X494198Y243523D01*
X492602Y242601D01*
X491299Y241298D01*
X490377Y239702D01*
X489900Y237922D01*
Y236078D01*
X490377Y234298D01*
X491299Y232702D01*
X492602Y231399D01*
X494198Y230477D01*
X495978Y230000D01*
X497822D01*
X499602Y230477D01*
X501198Y231399D01*
X502501Y232702D01*
X503423Y234298D01*
X503900Y236078D01*
Y237922D01*
X503423Y239702D01*
X502501Y241298D01*
X501198Y242601D01*
X499602Y243523D01*
X497822Y244000D01*
D02*
G37*
G36*
X472422D02*
X470578D01*
X468798Y243523D01*
X467202Y242601D01*
X465899Y241298D01*
X464977Y239702D01*
X464500Y237922D01*
Y236078D01*
X464977Y234298D01*
X465899Y232702D01*
X467202Y231399D01*
X468798Y230477D01*
X470578Y230000D01*
X472422D01*
X474202Y230477D01*
X475798Y231399D01*
X477101Y232702D01*
X478023Y234298D01*
X478500Y236078D01*
Y237922D01*
X478023Y239702D01*
X477101Y241298D01*
X475798Y242601D01*
X474202Y243523D01*
X472422Y244000D01*
D02*
G37*
G36*
X548951Y221100D02*
X546449D01*
X544033Y220453D01*
X541867Y219202D01*
X540098Y217433D01*
X538847Y215267D01*
X538200Y212851D01*
Y210349D01*
X538847Y207933D01*
X540098Y205767D01*
X541867Y203998D01*
X544033Y202747D01*
X546449Y202100D01*
X548951D01*
X551367Y202747D01*
X553533Y203998D01*
X555302Y205767D01*
X556553Y207933D01*
X557200Y210349D01*
Y212851D01*
X556553Y215267D01*
X555302Y217433D01*
X553533Y219202D01*
X551367Y220453D01*
X548951Y221100D01*
D02*
G37*
G36*
X378000Y181250D02*
X369000D01*
Y177750D01*
X378000D01*
Y181250D01*
D02*
G37*
G36*
Y174750D02*
X369000D01*
Y171250D01*
X378000D01*
Y174750D01*
D02*
G37*
G36*
Y168750D02*
X369000D01*
Y165250D01*
X378000D01*
Y168750D01*
D02*
G37*
G36*
X366000D02*
X357000D01*
Y165250D01*
X366000D01*
Y168750D01*
D02*
G37*
G36*
X378000Y162250D02*
X369000D01*
Y158750D01*
X378000D01*
Y162250D01*
D02*
G37*
G36*
X366000D02*
X357000D01*
Y158750D01*
X366000D01*
Y162250D01*
D02*
G37*
G36*
X384145Y157750D02*
X382355D01*
X380701Y157065D01*
X379435Y155799D01*
X379240Y155328D01*
X378000D01*
Y156250D01*
X357000D01*
Y146250D01*
X378000D01*
Y147172D01*
X380979D01*
X380979Y147172D01*
X382540Y147482D01*
X383863Y148366D01*
X384319Y148822D01*
X385799Y149435D01*
X387065Y150701D01*
X387750Y152355D01*
Y154145D01*
X387065Y155799D01*
X385799Y157065D01*
X384145Y157750D01*
D02*
G37*
G36*
X408000Y208250D02*
X383000D01*
Y189250D01*
X402229D01*
X402935Y188194D01*
X402830Y187941D01*
Y185555D01*
X403744Y183349D01*
X405431Y181661D01*
X407637Y180748D01*
X410023D01*
X412229Y181661D01*
X413917Y183349D01*
X414106Y183807D01*
X415376Y183555D01*
Y147000D01*
X415852Y145852D01*
X420852Y140852D01*
X422000Y140376D01*
X468000D01*
X468106Y140421D01*
X469376Y139572D01*
Y124000D01*
X469852Y122852D01*
X471000Y122376D01*
X507452D01*
X507999Y122603D01*
X508555Y122809D01*
X508569Y122839D01*
X508600Y122852D01*
X508826Y123399D01*
X509074Y123938D01*
X509122Y125188D01*
X510299Y125250D01*
X522500D01*
Y133436D01*
X530250D01*
X530570Y133500D01*
X536000D01*
Y140000D01*
X530570D01*
X530250Y140064D01*
X522500D01*
Y144626D01*
X524500D01*
X525103Y144876D01*
X528814D01*
X529067Y144981D01*
X529201Y144955D01*
X530410Y145195D01*
X534750D01*
X535898Y145670D01*
X536374Y146819D01*
Y160000D01*
X536792Y160626D01*
X552876D01*
Y157624D01*
X553352Y156475D01*
X554500Y156000D01*
X556000D01*
Y153000D01*
X554000D01*
Y146500D01*
X556000D01*
Y146189D01*
X556220Y145969D01*
X556344Y145670D01*
X556642Y145547D01*
X556870Y145319D01*
X557193D01*
X557492Y145195D01*
X559590D01*
X560799Y144955D01*
X560933Y144981D01*
X561186Y144876D01*
X563876D01*
Y140000D01*
X563876Y140000D01*
X563876Y140000D01*
X563876Y138730D01*
Y135124D01*
X561186D01*
X560933Y135019D01*
X560799Y135045D01*
X559590Y134805D01*
X557492D01*
X557193Y134681D01*
X556870D01*
X556642Y134453D01*
X556344Y134330D01*
X556220Y134031D01*
X556000Y133811D01*
Y133500D01*
X554000D01*
Y127000D01*
X558000D01*
X558228Y126772D01*
X558527Y126648D01*
X558640D01*
X559296Y126376D01*
X572500D01*
X573648Y126852D01*
X574124Y128000D01*
Y135500D01*
X574412Y135500D01*
X574621Y135709D01*
X575000Y135866D01*
Y136000D01*
X613000D01*
X614148Y136475D01*
X614624Y137624D01*
Y184000D01*
X614148Y185148D01*
X613000Y185624D01*
X506673D01*
X489148Y203148D01*
X488000Y203624D01*
X432000D01*
X430852Y203148D01*
X416003Y188300D01*
X415161Y188328D01*
X414611Y188470D01*
X413917Y190147D01*
X412229Y191835D01*
X410023Y192748D01*
X408000D01*
Y208250D01*
D02*
G37*
G36*
X378000Y131250D02*
Y131250D01*
X357000D01*
Y121250D01*
X378000D01*
Y121418D01*
X379056Y122124D01*
X379355Y122000D01*
X381145D01*
X382799Y122685D01*
X384065Y123951D01*
X384750Y125605D01*
Y127395D01*
X384065Y129049D01*
X382799Y130315D01*
X381145Y131000D01*
X379355D01*
X378750Y130749D01*
X378000Y131250D01*
D02*
G37*
G36*
X432895Y129500D02*
X431105D01*
X429451Y128815D01*
X428185Y127549D01*
X427500Y125895D01*
Y124105D01*
X427500Y124105D01*
X425448Y122052D01*
X424895Y121226D01*
X424701Y120250D01*
Y104056D01*
X420444Y99799D01*
X411815D01*
X411815Y99799D01*
X410549Y101065D01*
X408895Y101750D01*
X407105D01*
X405451Y101065D01*
X404185Y99799D01*
X403500Y98145D01*
Y96355D01*
X404185Y94701D01*
X405451Y93435D01*
X407105Y92750D01*
X408895D01*
X410549Y93435D01*
X411815Y94701D01*
X411815Y94701D01*
X421500D01*
X422476Y94895D01*
X423302Y95448D01*
X429052Y101198D01*
X429605Y102024D01*
X429799Y103000D01*
Y119194D01*
X431105Y120500D01*
X431105Y120500D01*
X432895D01*
X434549Y121185D01*
X435815Y122451D01*
X436500Y124105D01*
Y125895D01*
X435815Y127549D01*
X434549Y128815D01*
X432895Y129500D01*
D02*
G37*
G36*
X378000Y118750D02*
Y118750D01*
X357000D01*
Y108750D01*
X378000D01*
Y108750D01*
X378885Y109341D01*
X379105Y109250D01*
X380895D01*
X382549Y109935D01*
X383815Y111201D01*
X384500Y112855D01*
Y114645D01*
X383815Y116299D01*
X382549Y117565D01*
X380895Y118250D01*
X379105D01*
X378885Y118159D01*
X378000Y118750D01*
D02*
G37*
G36*
Y106250D02*
Y106250D01*
X357000D01*
Y96250D01*
X378000D01*
Y96250D01*
X378789Y96777D01*
X378855Y96750D01*
X380645D01*
X382299Y97435D01*
X383565Y98701D01*
X384250Y100355D01*
Y102145D01*
X383565Y103799D01*
X382299Y105065D01*
X380645Y105750D01*
X378855D01*
X378789Y105723D01*
X378000Y106250D01*
D02*
G37*
G36*
Y93750D02*
X357000D01*
Y83750D01*
X378000D01*
Y83750D01*
X378654Y84187D01*
X379105Y84000D01*
X380895D01*
X382549Y84685D01*
X383815Y85951D01*
X384500Y87605D01*
Y89395D01*
X383815Y91049D01*
X382549Y92315D01*
X380895Y93000D01*
X379105D01*
X379056Y92980D01*
X378000Y93685D01*
Y93750D01*
D02*
G37*
G36*
X487500Y119750D02*
X472500D01*
Y111250D01*
X476941D01*
Y98017D01*
X470424Y91500D01*
X469355D01*
X467701Y90815D01*
X466435Y89549D01*
X465750Y87895D01*
Y86105D01*
X466435Y84451D01*
X467701Y83185D01*
X469355Y82500D01*
X471145D01*
X472799Y83185D01*
X474065Y84451D01*
X474750Y86105D01*
Y87174D01*
X482163Y94587D01*
X482163Y94587D01*
X482826Y95580D01*
X483059Y96750D01*
Y111250D01*
X487500D01*
Y119750D01*
D02*
G37*
G36*
X599422Y50000D02*
X597578D01*
X595798Y49523D01*
X594202Y48601D01*
X592899Y47298D01*
X591977Y45702D01*
X591500Y43922D01*
Y42078D01*
X591977Y40298D01*
X592899Y38702D01*
X594202Y37399D01*
X595798Y36477D01*
X597578Y36000D01*
X599422D01*
X601202Y36477D01*
X602798Y37399D01*
X604101Y38702D01*
X605023Y40298D01*
X605500Y42078D01*
Y43922D01*
X605023Y45702D01*
X604101Y47298D01*
X602798Y48601D01*
X601202Y49523D01*
X599422Y50000D01*
D02*
G37*
G36*
X574022D02*
X572178D01*
X570398Y49523D01*
X568802Y48601D01*
X567499Y47298D01*
X566577Y45702D01*
X566100Y43922D01*
Y42078D01*
X566577Y40298D01*
X567499Y38702D01*
X568802Y37399D01*
X570398Y36477D01*
X572178Y36000D01*
X574022D01*
X575802Y36477D01*
X577398Y37399D01*
X578701Y38702D01*
X579623Y40298D01*
X580100Y42078D01*
Y43922D01*
X579623Y45702D01*
X578701Y47298D01*
X577398Y48601D01*
X575802Y49523D01*
X574022Y50000D01*
D02*
G37*
G36*
X548622D02*
X546778D01*
X544998Y49523D01*
X543402Y48601D01*
X542099Y47298D01*
X541177Y45702D01*
X540700Y43922D01*
Y42078D01*
X541177Y40298D01*
X542099Y38702D01*
X543402Y37399D01*
X544998Y36477D01*
X546778Y36000D01*
X548622D01*
X550402Y36477D01*
X551998Y37399D01*
X553301Y38702D01*
X554223Y40298D01*
X554700Y42078D01*
Y43922D01*
X554223Y45702D01*
X553301Y47298D01*
X551998Y48601D01*
X550402Y49523D01*
X548622Y50000D01*
D02*
G37*
G36*
X523222D02*
X521378D01*
X519598Y49523D01*
X518002Y48601D01*
X516699Y47298D01*
X515777Y45702D01*
X515300Y43922D01*
Y42078D01*
X515777Y40298D01*
X516699Y38702D01*
X518002Y37399D01*
X519598Y36477D01*
X521378Y36000D01*
X523222D01*
X525002Y36477D01*
X526598Y37399D01*
X527901Y38702D01*
X528823Y40298D01*
X529300Y42078D01*
Y43922D01*
X528823Y45702D01*
X527901Y47298D01*
X526598Y48601D01*
X525002Y49523D01*
X523222Y50000D01*
D02*
G37*
G36*
X497822D02*
X495978D01*
X494198Y49523D01*
X492602Y48601D01*
X491299Y47298D01*
X490377Y45702D01*
X489900Y43922D01*
Y42078D01*
X490377Y40298D01*
X491299Y38702D01*
X492602Y37399D01*
X494198Y36477D01*
X495978Y36000D01*
X497822D01*
X499602Y36477D01*
X501198Y37399D01*
X502501Y38702D01*
X503423Y40298D01*
X503900Y42078D01*
Y43922D01*
X503423Y45702D01*
X502501Y47298D01*
X501198Y48601D01*
X499602Y49523D01*
X497822Y50000D01*
D02*
G37*
G36*
X574351Y27100D02*
X571849D01*
X569433Y26453D01*
X567267Y25202D01*
X565498Y23433D01*
X564247Y21267D01*
X563600Y18851D01*
Y16349D01*
X564247Y13933D01*
X565498Y11767D01*
X567267Y9998D01*
X569433Y8747D01*
X571849Y8100D01*
X574351D01*
X576767Y8747D01*
X578933Y9998D01*
X580702Y11767D01*
X581953Y13933D01*
X582600Y16349D01*
Y18851D01*
X581953Y21267D01*
X580702Y23433D01*
X578933Y25202D01*
X576767Y26453D01*
X574351Y27100D01*
D02*
G37*
%LPD*%
G36*
X534750Y146819D02*
X530250D01*
X528884Y146547D01*
X528814Y146500D01*
X524500D01*
Y146250D01*
X508000D01*
Y144750D01*
X507500D01*
Y144065D01*
X506230Y143539D01*
X504967Y144802D01*
X504140Y145355D01*
X503164Y145549D01*
X502250D01*
Y147000D01*
X492750D01*
Y139000D01*
X502250D01*
Y139000D01*
X503176Y139383D01*
X503862Y138698D01*
X504689Y138145D01*
X505664Y137951D01*
X507500D01*
Y136250D01*
X508000D01*
Y133750D01*
X507500D01*
Y125250D01*
X507500D01*
X507452Y124000D01*
X471000D01*
Y160000D01*
X534750D01*
Y146819D01*
D02*
G37*
G36*
X506000Y184000D02*
X613000D01*
Y137624D01*
X575000D01*
X573852Y137148D01*
X573791Y137000D01*
X572500D01*
Y128000D01*
X559296D01*
X559148Y128148D01*
X558000Y128624D01*
X555624D01*
Y131876D01*
X556000D01*
X557148Y132352D01*
X557492Y133181D01*
X559750D01*
X561116Y133453D01*
X561186Y133500D01*
X565500D01*
Y138730D01*
X565500Y140000D01*
X565500D01*
Y140000D01*
X565500D01*
Y146500D01*
X561186D01*
X561116Y146547D01*
X559750Y146819D01*
X557492D01*
X557148Y147648D01*
X556000Y148124D01*
X555624D01*
Y151376D01*
X556000D01*
X557148Y151852D01*
X557624Y153000D01*
Y156000D01*
X557148Y157148D01*
X556000Y157624D01*
X554500D01*
Y162250D01*
X468000D01*
Y142000D01*
X422000D01*
X417000Y147000D01*
Y187000D01*
X432000Y202000D01*
X488000D01*
X506000Y184000D01*
D02*
G37*
%LPC*%
G36*
X428395Y186250D02*
X426605D01*
X424951Y185565D01*
X423685Y184299D01*
X423000Y182645D01*
Y180855D01*
X423685Y179201D01*
X424951Y177935D01*
X426605Y177250D01*
X428395D01*
X430049Y177935D01*
X431315Y179201D01*
X432000Y180855D01*
Y182645D01*
X431315Y184299D01*
X430049Y185565D01*
X428395Y186250D01*
D02*
G37*
G36*
X470895Y181480D02*
X469105D01*
X467451Y180795D01*
X466185Y179529D01*
X465500Y177875D01*
Y176084D01*
X466185Y174431D01*
X467451Y173165D01*
X469105Y172480D01*
X470895D01*
X472549Y173165D01*
X473815Y174431D01*
X474500Y176084D01*
Y177875D01*
X473815Y179529D01*
X472549Y180795D01*
X470895Y181480D01*
D02*
G37*
G36*
X464700Y172500D02*
X445700D01*
Y152500D01*
X464700D01*
Y172500D01*
D02*
G37*
G36*
X315500Y181250D02*
X306500D01*
Y177750D01*
X315500D01*
Y181250D01*
D02*
G37*
G36*
X303500D02*
X294500D01*
Y177750D01*
X303500D01*
Y181250D01*
D02*
G37*
G36*
X315500Y174750D02*
X306500D01*
Y171250D01*
X315500D01*
Y174750D01*
D02*
G37*
G36*
X303500D02*
X294500D01*
Y171250D01*
X303500D01*
Y174750D01*
D02*
G37*
G36*
X315500Y131250D02*
Y131250D01*
X294500D01*
Y121250D01*
X315500D01*
Y121250D01*
X316289Y121777D01*
X316355Y121750D01*
X318145D01*
X319799Y122435D01*
X321065Y123701D01*
X321750Y125355D01*
Y127145D01*
X321065Y128799D01*
X319799Y130065D01*
X318145Y130750D01*
X316355D01*
X316289Y130723D01*
X315500Y131250D01*
D02*
G37*
G36*
Y118750D02*
Y118750D01*
X294500D01*
Y108750D01*
X315500D01*
Y108750D01*
X316289Y109277D01*
X316355Y109250D01*
X318145D01*
X319799Y109935D01*
X321065Y111201D01*
X321750Y112855D01*
Y114645D01*
X321065Y116299D01*
X319799Y117565D01*
X318145Y118250D01*
X316355D01*
X316289Y118223D01*
X315500Y118750D01*
D02*
G37*
%LPD*%
D10*
X766007Y270185D02*
Y254950D01*
X776164D01*
X783781Y265107D02*
X788860D01*
X791399Y262568D01*
Y254950D01*
X783781D01*
X781242Y257489D01*
X783781Y260028D01*
X791399D01*
X796477Y265107D02*
Y257489D01*
X799016Y254950D01*
X806634D01*
Y252411D01*
X804095Y249872D01*
X801556D01*
X806634Y254950D02*
Y265107D01*
X819330Y254950D02*
X814251D01*
X811712Y257489D01*
Y262568D01*
X814251Y265107D01*
X819330D01*
X821869Y262568D01*
Y260028D01*
X811712D01*
X826947Y265107D02*
Y254950D01*
Y260028D01*
X829487Y262568D01*
X832026Y265107D01*
X834565D01*
X773625Y-19370D02*
Y-4135D01*
X766007Y-11753D01*
X776164D01*
X766007Y54286D02*
X768546Y56825D01*
X773625D01*
X776164Y54286D01*
Y51747D01*
X773625Y49208D01*
X771085D01*
X773625D01*
X776164Y46668D01*
Y44129D01*
X773625Y41590D01*
X768546D01*
X766007Y44129D01*
X776164Y102550D02*
X766007D01*
X776164Y112707D01*
Y115246D01*
X773625Y117785D01*
X768546D01*
X766007Y115246D01*
Y163510D02*
X771085D01*
X768546D01*
Y178745D01*
X766007Y176206D01*
X870125Y254950D02*
Y270185D01*
X880282Y254950D01*
Y270185D01*
X887899Y265107D02*
X892978D01*
X895517Y262568D01*
Y254950D01*
X887899D01*
X885360Y257489D01*
X887899Y260028D01*
X895517D01*
X900595Y254950D02*
Y265107D01*
X903134D01*
X905673Y262568D01*
Y254950D01*
Y262568D01*
X908213Y265107D01*
X910752Y262568D01*
Y254950D01*
X923448D02*
X918369D01*
X915830Y257489D01*
Y262568D01*
X918369Y265107D01*
X923448D01*
X925987Y262568D01*
Y260028D01*
X915830D01*
X870125Y-65095D02*
Y-80330D01*
X877742D01*
X880282Y-77791D01*
Y-75252D01*
X877742Y-72712D01*
X870125D01*
X877742D01*
X880282Y-70173D01*
Y-67634D01*
X877742Y-65095D01*
X870125D01*
X887899Y-80330D02*
X892978D01*
X895517Y-77791D01*
Y-72712D01*
X892978Y-70173D01*
X887899D01*
X885360Y-72712D01*
Y-77791D01*
X887899Y-80330D01*
X903134Y-67634D02*
Y-70173D01*
X900595D01*
X905673D01*
X903134D01*
Y-77791D01*
X905673Y-80330D01*
X915830Y-67634D02*
Y-70173D01*
X913291D01*
X918369D01*
X915830D01*
Y-77791D01*
X918369Y-80330D01*
X928526D02*
X933604D01*
X936143Y-77791D01*
Y-72712D01*
X933604Y-70173D01*
X928526D01*
X925987Y-72712D01*
Y-77791D01*
X928526Y-80330D01*
X941222D02*
Y-70173D01*
X943761D01*
X946300Y-72712D01*
Y-80330D01*
Y-72712D01*
X948839Y-70173D01*
X951379Y-72712D01*
Y-80330D01*
X979310Y-65095D02*
X974231D01*
X971692Y-67634D01*
Y-77791D01*
X974231Y-80330D01*
X979310D01*
X981849Y-77791D01*
Y-67634D01*
X979310Y-65095D01*
X986927Y-70173D02*
X992005Y-80330D01*
X997084Y-70173D01*
X1009780Y-80330D02*
X1004701D01*
X1002162Y-77791D01*
Y-72712D01*
X1004701Y-70173D01*
X1009780D01*
X1012319Y-72712D01*
Y-75252D01*
X1002162D01*
X1017397Y-70173D02*
Y-80330D01*
Y-75252D01*
X1019936Y-72712D01*
X1022476Y-70173D01*
X1025015D01*
X1032632Y-80330D02*
X1037711D01*
X1035172D01*
Y-65095D01*
X1032632D01*
X1047867Y-70173D02*
X1052946D01*
X1055485Y-72712D01*
Y-80330D01*
X1047867D01*
X1045328Y-77791D01*
X1047867Y-75252D01*
X1055485D01*
X1060563Y-70173D02*
Y-77791D01*
X1063102Y-80330D01*
X1070720D01*
Y-82869D01*
X1068181Y-85408D01*
X1065642D01*
X1070720Y-80330D02*
Y-70173D01*
X870125Y-34615D02*
Y-49850D01*
X877742D01*
X880282Y-47311D01*
Y-44772D01*
X877742Y-42232D01*
X870125D01*
X877742D01*
X880282Y-39693D01*
Y-37154D01*
X877742Y-34615D01*
X870125D01*
X887899Y-49850D02*
X892978D01*
X895517Y-47311D01*
Y-42232D01*
X892978Y-39693D01*
X887899D01*
X885360Y-42232D01*
Y-47311D01*
X887899Y-49850D01*
X903134Y-37154D02*
Y-39693D01*
X900595D01*
X905673D01*
X903134D01*
Y-47311D01*
X905673Y-49850D01*
X915830Y-37154D02*
Y-39693D01*
X913291D01*
X918369D01*
X915830D01*
Y-47311D01*
X918369Y-49850D01*
X928526D02*
X933604D01*
X936143Y-47311D01*
Y-42232D01*
X933604Y-39693D01*
X928526D01*
X925987Y-42232D01*
Y-47311D01*
X928526Y-49850D01*
X941222D02*
Y-39693D01*
X943761D01*
X946300Y-42232D01*
Y-49850D01*
Y-42232D01*
X948839Y-39693D01*
X951379Y-42232D01*
Y-49850D01*
X981849Y-37154D02*
X979310Y-34615D01*
X974231D01*
X971692Y-37154D01*
Y-39693D01*
X974231Y-42232D01*
X979310D01*
X981849Y-44772D01*
Y-47311D01*
X979310Y-49850D01*
X974231D01*
X971692Y-47311D01*
X989466Y-49850D02*
X994545D01*
X997084Y-47311D01*
Y-42232D01*
X994545Y-39693D01*
X989466D01*
X986927Y-42232D01*
Y-47311D01*
X989466Y-49850D01*
X1002162D02*
X1007241D01*
X1004701D01*
Y-34615D01*
X1002162D01*
X1025015D02*
Y-49850D01*
X1017397D01*
X1014858Y-47311D01*
Y-42232D01*
X1017397Y-39693D01*
X1025015D01*
X1037711Y-49850D02*
X1032632D01*
X1030093Y-47311D01*
Y-42232D01*
X1032632Y-39693D01*
X1037711D01*
X1040250Y-42232D01*
Y-44772D01*
X1030093D01*
X1045328Y-39693D02*
Y-49850D01*
Y-44772D01*
X1047867Y-42232D01*
X1050407Y-39693D01*
X1052946D01*
X870125Y-4135D02*
Y-19370D01*
X877742D01*
X880282Y-16831D01*
Y-14292D01*
X877742Y-11753D01*
X870125D01*
X877742D01*
X880282Y-9213D01*
Y-6674D01*
X877742Y-4135D01*
X870125D01*
X887899Y-19370D02*
X892978D01*
X895517Y-16831D01*
Y-11753D01*
X892978Y-9213D01*
X887899D01*
X885360Y-11753D01*
Y-16831D01*
X887899Y-19370D01*
X903134Y-6674D02*
Y-9213D01*
X900595D01*
X905673D01*
X903134D01*
Y-16831D01*
X905673Y-19370D01*
X915830Y-6674D02*
Y-9213D01*
X913291D01*
X918369D01*
X915830D01*
Y-16831D01*
X918369Y-19370D01*
X928526D02*
X933604D01*
X936143Y-16831D01*
Y-11753D01*
X933604Y-9213D01*
X928526D01*
X925987Y-11753D01*
Y-16831D01*
X928526Y-19370D01*
X941222D02*
Y-9213D01*
X943761D01*
X946300Y-11753D01*
Y-19370D01*
Y-11753D01*
X948839Y-9213D01*
X951379Y-11753D01*
Y-19370D01*
X971692Y-4135D02*
Y-19370D01*
X981849D01*
X989466Y-9213D02*
X994545D01*
X997084Y-11753D01*
Y-19370D01*
X989466D01*
X986927Y-16831D01*
X989466Y-14292D01*
X997084D01*
X1002162Y-9213D02*
Y-16831D01*
X1004701Y-19370D01*
X1012319D01*
Y-21909D01*
X1009780Y-24448D01*
X1007241D01*
X1012319Y-19370D02*
Y-9213D01*
X1025015Y-19370D02*
X1019936D01*
X1017397Y-16831D01*
Y-11753D01*
X1019936Y-9213D01*
X1025015D01*
X1027554Y-11753D01*
Y-14292D01*
X1017397D01*
X1032632Y-9213D02*
Y-19370D01*
Y-14292D01*
X1035172Y-11753D01*
X1037711Y-9213D01*
X1040250D01*
X870125Y26345D02*
Y11110D01*
X877742D01*
X880282Y13649D01*
Y23806D01*
X877742Y26345D01*
X870125D01*
X885360Y11110D02*
X890438D01*
X887899D01*
Y21267D01*
X885360D01*
X905673Y11110D02*
X900595D01*
X898056Y13649D01*
Y18728D01*
X900595Y21267D01*
X905673D01*
X908213Y18728D01*
Y16188D01*
X898056D01*
X913291Y11110D02*
X918369D01*
X915830D01*
Y26345D01*
X913291D01*
X933604Y11110D02*
X928526D01*
X925987Y13649D01*
Y18728D01*
X928526Y21267D01*
X933604D01*
X936143Y18728D01*
Y16188D01*
X925987D01*
X951379Y21267D02*
X943761D01*
X941222Y18728D01*
Y13649D01*
X943761Y11110D01*
X951379D01*
X958996Y23806D02*
Y21267D01*
X956457D01*
X961535D01*
X958996D01*
Y13649D01*
X961535Y11110D01*
X969153Y21267D02*
Y11110D01*
Y16188D01*
X971692Y18728D01*
X974231Y21267D01*
X976770D01*
X984388Y11110D02*
X989466D01*
X986927D01*
Y21267D01*
X984388D01*
X1007241D02*
X999623D01*
X997084Y18728D01*
Y13649D01*
X999623Y11110D01*
X1007241D01*
X1027554Y23806D02*
X1030093Y26345D01*
X1035172D01*
X1037711Y23806D01*
Y21267D01*
X1035172Y18728D01*
X1032632D01*
X1035172D01*
X1037711Y16188D01*
Y13649D01*
X1035172Y11110D01*
X1030093D01*
X1027554Y13649D01*
X870125Y56825D02*
Y41590D01*
X880282D01*
X887899Y51747D02*
X892978D01*
X895517Y49208D01*
Y41590D01*
X887899D01*
X885360Y44129D01*
X887899Y46668D01*
X895517D01*
X900595Y51747D02*
Y44129D01*
X903134Y41590D01*
X910752D01*
Y39051D01*
X908213Y36512D01*
X905673D01*
X910752Y41590D02*
Y51747D01*
X923448Y41590D02*
X918369D01*
X915830Y44129D01*
Y49208D01*
X918369Y51747D01*
X923448D01*
X925987Y49208D01*
Y46668D01*
X915830D01*
X931065Y51747D02*
Y41590D01*
Y46668D01*
X933604Y49208D01*
X936143Y51747D01*
X938683D01*
X971692Y41590D02*
X961535D01*
X971692Y51747D01*
Y54286D01*
X969153Y56825D01*
X964074D01*
X961535Y54286D01*
X870125Y87305D02*
Y72070D01*
X877742D01*
X880282Y74609D01*
Y84766D01*
X877742Y87305D01*
X870125D01*
X885360Y72070D02*
X890438D01*
X887899D01*
Y82227D01*
X885360D01*
X905673Y72070D02*
X900595D01*
X898056Y74609D01*
Y79688D01*
X900595Y82227D01*
X905673D01*
X908213Y79688D01*
Y77148D01*
X898056D01*
X913291Y72070D02*
X918369D01*
X915830D01*
Y87305D01*
X913291D01*
X933604Y72070D02*
X928526D01*
X925987Y74609D01*
Y79688D01*
X928526Y82227D01*
X933604D01*
X936143Y79688D01*
Y77148D01*
X925987D01*
X951379Y82227D02*
X943761D01*
X941222Y79688D01*
Y74609D01*
X943761Y72070D01*
X951379D01*
X958996Y84766D02*
Y82227D01*
X956457D01*
X961535D01*
X958996D01*
Y74609D01*
X961535Y72070D01*
X969153Y82227D02*
Y72070D01*
Y77148D01*
X971692Y79688D01*
X974231Y82227D01*
X976770D01*
X984388Y72070D02*
X989466D01*
X986927D01*
Y82227D01*
X984388D01*
X1007241D02*
X999623D01*
X997084Y79688D01*
Y74609D01*
X999623Y72070D01*
X1007241D01*
X1027554D02*
X1032632D01*
X1030093D01*
Y87305D01*
X1027554Y84766D01*
X870125Y117785D02*
Y102550D01*
X880282D01*
X887899Y112707D02*
X892978D01*
X895517Y110168D01*
Y102550D01*
X887899D01*
X885360Y105089D01*
X887899Y107628D01*
X895517D01*
X900595Y112707D02*
Y105089D01*
X903134Y102550D01*
X910752D01*
Y100011D01*
X908213Y97472D01*
X905673D01*
X910752Y102550D02*
Y112707D01*
X923448Y102550D02*
X918369D01*
X915830Y105089D01*
Y110168D01*
X918369Y112707D01*
X923448D01*
X925987Y110168D01*
Y107628D01*
X915830D01*
X931065Y112707D02*
Y102550D01*
Y107628D01*
X933604Y110168D01*
X936143Y112707D01*
X938683D01*
X961535Y102550D02*
X966614D01*
X964074D01*
Y117785D01*
X961535Y115246D01*
X870125Y148265D02*
Y133030D01*
X877742D01*
X880282Y135569D01*
Y145726D01*
X877742Y148265D01*
X870125D01*
X885360Y133030D02*
X890438D01*
X887899D01*
Y143187D01*
X885360D01*
X905673Y133030D02*
X900595D01*
X898056Y135569D01*
Y140647D01*
X900595Y143187D01*
X905673D01*
X908213Y140647D01*
Y138108D01*
X898056D01*
X913291Y133030D02*
X918369D01*
X915830D01*
Y148265D01*
X913291D01*
X933604Y133030D02*
X928526D01*
X925987Y135569D01*
Y140647D01*
X928526Y143187D01*
X933604D01*
X936143Y140647D01*
Y138108D01*
X925987D01*
X951379Y143187D02*
X943761D01*
X941222Y140647D01*
Y135569D01*
X943761Y133030D01*
X951379D01*
X958996Y145726D02*
Y143187D01*
X956457D01*
X961535D01*
X958996D01*
Y135569D01*
X961535Y133030D01*
X969153Y143187D02*
Y133030D01*
Y138108D01*
X971692Y140647D01*
X974231Y143187D01*
X976770D01*
X984388Y133030D02*
X989466D01*
X986927D01*
Y143187D01*
X984388D01*
X1007241D02*
X999623D01*
X997084Y140647D01*
Y135569D01*
X999623Y133030D01*
X1007241D01*
X1037711D02*
X1027554D01*
X1037711Y143187D01*
Y145726D01*
X1035172Y148265D01*
X1030093D01*
X1027554Y145726D01*
X870125Y178745D02*
X880282D01*
X875203D01*
Y163510D01*
X887899D02*
X892978D01*
X895517Y166049D01*
Y171127D01*
X892978Y173667D01*
X887899D01*
X885360Y171127D01*
Y166049D01*
X887899Y163510D01*
X900595Y158432D02*
Y173667D01*
X908213D01*
X910752Y171127D01*
Y166049D01*
X908213Y163510D01*
X900595D01*
X931065Y178745D02*
Y163510D01*
X941222D01*
X948839Y173667D02*
X953918D01*
X956457Y171127D01*
Y163510D01*
X948839D01*
X946300Y166049D01*
X948839Y168588D01*
X956457D01*
X961535Y173667D02*
Y166049D01*
X964074Y163510D01*
X971692D01*
Y160971D01*
X969153Y158432D01*
X966614D01*
X971692Y163510D02*
Y173667D01*
X984388Y163510D02*
X979310D01*
X976770Y166049D01*
Y171127D01*
X979310Y173667D01*
X984388D01*
X986927Y171127D01*
Y168588D01*
X976770D01*
X992005Y173667D02*
Y163510D01*
Y168588D01*
X994545Y171127D01*
X997084Y173667D01*
X999623D01*
X870125Y209225D02*
X880282D01*
X875203D01*
Y193990D01*
X887899D02*
X892978D01*
X895517Y196529D01*
Y201607D01*
X892978Y204147D01*
X887899D01*
X885360Y201607D01*
Y196529D01*
X887899Y193990D01*
X900595Y188912D02*
Y204147D01*
X908213D01*
X910752Y201607D01*
Y196529D01*
X908213Y193990D01*
X900595D01*
X941222Y206686D02*
X938683Y209225D01*
X933604D01*
X931065Y206686D01*
Y204147D01*
X933604Y201607D01*
X938683D01*
X941222Y199068D01*
Y196529D01*
X938683Y193990D01*
X933604D01*
X931065Y196529D01*
X948839Y193990D02*
X953918D01*
X956457Y196529D01*
Y201607D01*
X953918Y204147D01*
X948839D01*
X946300Y201607D01*
Y196529D01*
X948839Y193990D01*
X961535D02*
X966614D01*
X964074D01*
Y209225D01*
X961535D01*
X984388D02*
Y193990D01*
X976770D01*
X974231Y196529D01*
Y201607D01*
X976770Y204147D01*
X984388D01*
X997084Y193990D02*
X992005D01*
X989466Y196529D01*
Y201607D01*
X992005Y204147D01*
X997084D01*
X999623Y201607D01*
Y199068D01*
X989466D01*
X1004701Y204147D02*
Y193990D01*
Y199068D01*
X1007241Y201607D01*
X1009780Y204147D01*
X1012319D01*
X870125Y239705D02*
X880282D01*
X875203D01*
Y224470D01*
X887899D02*
X892978D01*
X895517Y227009D01*
Y232087D01*
X892978Y234627D01*
X887899D01*
X885360Y232087D01*
Y227009D01*
X887899Y224470D01*
X900595Y219392D02*
Y234627D01*
X908213D01*
X910752Y232087D01*
Y227009D01*
X908213Y224470D01*
X900595D01*
X938683Y239705D02*
X933604D01*
X931065Y237166D01*
Y227009D01*
X933604Y224470D01*
X938683D01*
X941222Y227009D01*
Y237166D01*
X938683Y239705D01*
X946300Y234627D02*
X951379Y224470D01*
X956457Y234627D01*
X969153Y224470D02*
X964074D01*
X961535Y227009D01*
Y232087D01*
X964074Y234627D01*
X969153D01*
X971692Y232087D01*
Y229548D01*
X961535D01*
X976770Y234627D02*
Y224470D01*
Y229548D01*
X979310Y232087D01*
X981849Y234627D01*
X984388D01*
X992005Y224470D02*
X997084D01*
X994545D01*
Y239705D01*
X992005D01*
X1007241Y234627D02*
X1012319D01*
X1014858Y232087D01*
Y224470D01*
X1007241D01*
X1004701Y227009D01*
X1007241Y229548D01*
X1014858D01*
X1019936Y234627D02*
Y227009D01*
X1022476Y224470D01*
X1030093D01*
Y221931D01*
X1027554Y219392D01*
X1025015D01*
X1030093Y224470D02*
Y234627D01*
X1106280Y254950D02*
Y270185D01*
X1111358Y265107D01*
X1116437Y270185D01*
Y254950D01*
X1124054Y265107D02*
X1129133D01*
X1131672Y262568D01*
Y254950D01*
X1124054D01*
X1121515Y257489D01*
X1124054Y260028D01*
X1131672D01*
X1139289Y267646D02*
Y265107D01*
X1136750D01*
X1141829D01*
X1139289D01*
Y257489D01*
X1141829Y254950D01*
X1157064D02*
X1151985D01*
X1149446Y257489D01*
Y262568D01*
X1151985Y265107D01*
X1157064D01*
X1159603Y262568D01*
Y260028D01*
X1149446D01*
X1164681Y265107D02*
Y254950D01*
Y260028D01*
X1167220Y262568D01*
X1169760Y265107D01*
X1172299D01*
X1179916Y254950D02*
X1184995D01*
X1182455D01*
Y265107D01*
X1179916D01*
X1195151D02*
X1200230D01*
X1202769Y262568D01*
Y254950D01*
X1195151D01*
X1192612Y257489D01*
X1195151Y260028D01*
X1202769D01*
X1207847Y254950D02*
X1212925D01*
X1210386D01*
Y270185D01*
X1207847D01*
X1116437Y-37154D02*
X1113897Y-34615D01*
X1108819D01*
X1106280Y-37154D01*
Y-39693D01*
X1108819Y-42232D01*
X1113897D01*
X1116437Y-44772D01*
Y-47311D01*
X1113897Y-49850D01*
X1108819D01*
X1106280Y-47311D01*
X1124054Y-49850D02*
X1129133D01*
X1131672Y-47311D01*
Y-42232D01*
X1129133Y-39693D01*
X1124054D01*
X1121515Y-42232D01*
Y-47311D01*
X1124054Y-49850D01*
X1136750D02*
X1141829D01*
X1139289D01*
Y-34615D01*
X1136750D01*
X1159603D02*
Y-49850D01*
X1151985D01*
X1149446Y-47311D01*
Y-42232D01*
X1151985Y-39693D01*
X1159603D01*
X1172299Y-49850D02*
X1167220D01*
X1164681Y-47311D01*
Y-42232D01*
X1167220Y-39693D01*
X1172299D01*
X1174838Y-42232D01*
Y-44772D01*
X1164681D01*
X1179916Y-39693D02*
Y-49850D01*
Y-44772D01*
X1182455Y-42232D01*
X1184995Y-39693D01*
X1187534D01*
X1210386Y-49850D02*
Y-34615D01*
X1218004D01*
X1220543Y-37154D01*
Y-42232D01*
X1218004Y-44772D01*
X1210386D01*
X1215465D02*
X1220543Y-49850D01*
X1233239D02*
X1228161D01*
X1225621Y-47311D01*
Y-42232D01*
X1228161Y-39693D01*
X1233239D01*
X1235778Y-42232D01*
Y-44772D01*
X1225621D01*
X1240856Y-49850D02*
X1248474D01*
X1251013Y-47311D01*
X1248474Y-44772D01*
X1243396D01*
X1240856Y-42232D01*
X1243396Y-39693D01*
X1251013D01*
X1256092Y-49850D02*
X1261170D01*
X1258631D01*
Y-39693D01*
X1256092D01*
X1268787Y-49850D02*
X1276405D01*
X1278944Y-47311D01*
X1276405Y-44772D01*
X1271327D01*
X1268787Y-42232D01*
X1271327Y-39693D01*
X1278944D01*
X1286562Y-37154D02*
Y-39693D01*
X1284023D01*
X1289101D01*
X1286562D01*
Y-47311D01*
X1289101Y-49850D01*
X1106280Y11110D02*
Y26345D01*
X1113897D01*
X1116437Y23806D01*
Y18728D01*
X1113897Y16188D01*
X1106280D01*
X1121515Y11110D02*
Y26345D01*
X1129133D01*
X1131672Y23806D01*
Y18728D01*
X1129133Y16188D01*
X1121515D01*
X1136750Y18728D02*
X1146907D01*
X1151985Y23806D02*
X1154524Y26345D01*
X1159603D01*
X1162142Y23806D01*
Y13649D01*
X1159603Y11110D01*
X1154524D01*
X1151985Y13649D01*
Y23806D01*
X1167220D02*
X1169760Y26345D01*
X1174838D01*
X1177377Y23806D01*
Y13649D01*
X1174838Y11110D01*
X1169760D01*
X1167220Y13649D01*
Y23806D01*
X1192612Y26345D02*
X1187534Y23806D01*
X1182455Y18728D01*
Y13649D01*
X1184995Y11110D01*
X1190073D01*
X1192612Y13649D01*
Y16188D01*
X1190073Y18728D01*
X1182455D01*
X1116437Y54286D02*
X1113897Y56825D01*
X1108819D01*
X1106280Y54286D01*
Y44129D01*
X1108819Y41590D01*
X1113897D01*
X1116437Y44129D01*
X1131672Y56825D02*
X1121515D01*
Y49208D01*
X1126593D01*
X1121515D01*
Y41590D01*
X1136750Y49208D02*
X1146907D01*
X1151985Y54286D02*
X1154524Y56825D01*
X1159603D01*
X1162142Y54286D01*
Y44129D01*
X1159603Y41590D01*
X1154524D01*
X1151985Y44129D01*
Y54286D01*
X1167220D02*
X1169760Y56825D01*
X1174838D01*
X1177377Y54286D01*
Y44129D01*
X1174838Y41590D01*
X1169760D01*
X1167220Y44129D01*
Y54286D01*
X1190073Y41590D02*
Y56825D01*
X1182455Y49208D01*
X1192612D01*
X1116437Y87305D02*
X1106280D01*
Y79688D01*
X1111358D01*
X1106280D01*
Y72070D01*
X1121515D02*
Y87305D01*
X1129133D01*
X1131672Y84766D01*
Y79688D01*
X1129133Y77148D01*
X1121515D01*
X1126593D02*
X1131672Y72070D01*
X1136750Y79688D02*
X1146907D01*
X1159603Y72070D02*
Y87305D01*
X1151985Y79688D01*
X1162142D01*
X1116437Y115246D02*
X1113897Y117785D01*
X1108819D01*
X1106280Y115246D01*
Y105089D01*
X1108819Y102550D01*
X1113897D01*
X1116437Y105089D01*
X1131672Y117785D02*
X1121515D01*
Y110168D01*
X1126593D01*
X1121515D01*
Y102550D01*
X1136750Y110168D02*
X1146907D01*
X1151985Y115246D02*
X1154524Y117785D01*
X1159603D01*
X1162142Y115246D01*
Y105089D01*
X1159603Y102550D01*
X1154524D01*
X1151985Y105089D01*
Y115246D01*
X1167220D02*
X1169760Y117785D01*
X1174838D01*
X1177377Y115246D01*
Y105089D01*
X1174838Y102550D01*
X1169760D01*
X1167220Y105089D01*
Y115246D01*
X1190073Y102550D02*
Y117785D01*
X1182455Y110168D01*
X1192612D01*
X1106280Y133030D02*
Y148265D01*
X1113897D01*
X1116437Y145726D01*
Y140647D01*
X1113897Y138108D01*
X1106280D01*
X1121515Y133030D02*
Y148265D01*
X1129133D01*
X1131672Y145726D01*
Y140647D01*
X1129133Y138108D01*
X1121515D01*
X1136750Y140647D02*
X1146907D01*
X1151985Y145726D02*
X1154524Y148265D01*
X1159603D01*
X1162142Y145726D01*
Y135569D01*
X1159603Y133030D01*
X1154524D01*
X1151985Y135569D01*
Y145726D01*
X1167220D02*
X1169760Y148265D01*
X1174838D01*
X1177377Y145726D01*
Y135569D01*
X1174838Y133030D01*
X1169760D01*
X1167220Y135569D01*
Y145726D01*
X1192612Y148265D02*
X1187534Y145726D01*
X1182455Y140647D01*
Y135569D01*
X1184995Y133030D01*
X1190073D01*
X1192612Y135569D01*
Y138108D01*
X1190073Y140647D01*
X1182455D01*
X1116437Y206686D02*
X1113897Y209225D01*
X1108819D01*
X1106280Y206686D01*
Y204147D01*
X1108819Y201607D01*
X1113897D01*
X1116437Y199068D01*
Y196529D01*
X1113897Y193990D01*
X1108819D01*
X1106280Y196529D01*
X1124054Y193990D02*
X1129133D01*
X1131672Y196529D01*
Y201607D01*
X1129133Y204147D01*
X1124054D01*
X1121515Y201607D01*
Y196529D01*
X1124054Y193990D01*
X1136750D02*
X1141829D01*
X1139289D01*
Y209225D01*
X1136750D01*
X1159603D02*
Y193990D01*
X1151985D01*
X1149446Y196529D01*
Y201607D01*
X1151985Y204147D01*
X1159603D01*
X1172299Y193990D02*
X1167220D01*
X1164681Y196529D01*
Y201607D01*
X1167220Y204147D01*
X1172299D01*
X1174838Y201607D01*
Y199068D01*
X1164681D01*
X1179916Y204147D02*
Y193990D01*
Y199068D01*
X1182455Y201607D01*
X1184995Y204147D01*
X1187534D01*
X1210386Y193990D02*
Y209225D01*
X1218004D01*
X1220543Y206686D01*
Y201607D01*
X1218004Y199068D01*
X1210386D01*
X1215465D02*
X1220543Y193990D01*
X1233239D02*
X1228161D01*
X1225621Y196529D01*
Y201607D01*
X1228161Y204147D01*
X1233239D01*
X1235778Y201607D01*
Y199068D01*
X1225621D01*
X1240856Y193990D02*
X1248474D01*
X1251013Y196529D01*
X1248474Y199068D01*
X1243396D01*
X1240856Y201607D01*
X1243396Y204147D01*
X1251013D01*
X1256092Y193990D02*
X1261170D01*
X1258631D01*
Y204147D01*
X1256092D01*
X1268787Y193990D02*
X1276405D01*
X1278944Y196529D01*
X1276405Y199068D01*
X1271327D01*
X1268787Y201607D01*
X1271327Y204147D01*
X1278944D01*
X1286562Y206686D02*
Y204147D01*
X1284023D01*
X1289101D01*
X1286562D01*
Y196529D01*
X1289101Y193990D01*
X1324661Y270185D02*
X1334818D01*
X1329739D01*
Y254950D01*
X1339896Y270185D02*
Y254950D01*
Y262568D01*
X1342435Y265107D01*
X1347513D01*
X1350053Y262568D01*
Y254950D01*
X1355131D02*
X1360209D01*
X1357670D01*
Y265107D01*
X1355131D01*
X1377984D02*
X1370366D01*
X1367827Y262568D01*
Y257489D01*
X1370366Y254950D01*
X1377984D01*
X1383062D02*
Y270185D01*
Y260028D02*
X1390679Y265107D01*
X1383062Y260028D02*
X1390679Y254950D01*
X1398297D02*
Y265107D01*
X1405915D01*
X1408454Y262568D01*
Y254950D01*
X1421150D02*
X1416071D01*
X1413532Y257489D01*
Y262568D01*
X1416071Y265107D01*
X1421150D01*
X1423689Y262568D01*
Y260028D01*
X1413532D01*
X1428767Y254950D02*
X1436385D01*
X1438924Y257489D01*
X1436385Y260028D01*
X1431306D01*
X1428767Y262568D01*
X1431306Y265107D01*
X1438924D01*
X1444002Y254950D02*
X1451620D01*
X1454159Y257489D01*
X1451620Y260028D01*
X1446541D01*
X1444002Y262568D01*
X1446541Y265107D01*
X1454159D01*
X1324661Y-37154D02*
X1327200Y-34615D01*
X1332278D01*
X1334818Y-37154D01*
Y-47311D01*
X1332278Y-49850D01*
X1327200D01*
X1324661Y-47311D01*
Y-37154D01*
X1342435Y-52389D02*
X1344974Y-49850D01*
Y-47311D01*
X1342435D01*
Y-49850D01*
X1344974D01*
X1342435Y-52389D01*
X1339896Y-54928D01*
X1355131Y-37154D02*
X1357670Y-34615D01*
X1362749D01*
X1365288Y-37154D01*
Y-47311D01*
X1362749Y-49850D01*
X1357670D01*
X1355131Y-47311D01*
Y-37154D01*
X1370366Y-49850D02*
X1375444D01*
X1372905D01*
Y-34615D01*
X1370366Y-37154D01*
X1383062D02*
X1385601Y-34615D01*
X1390679D01*
X1393219Y-37154D01*
Y-47311D01*
X1390679Y-49850D01*
X1385601D01*
X1383062Y-47311D01*
Y-37154D01*
X1398297Y-49850D02*
Y-39693D01*
X1400836D01*
X1403375Y-42232D01*
Y-49850D01*
Y-42232D01*
X1405915Y-39693D01*
X1408454Y-42232D01*
Y-49850D01*
X1413532D02*
Y-39693D01*
X1416071D01*
X1418610Y-42232D01*
Y-49850D01*
Y-42232D01*
X1421150Y-39693D01*
X1423689Y-42232D01*
Y-49850D01*
X1324661Y-6674D02*
X1327200Y-4135D01*
X1332278D01*
X1334818Y-6674D01*
Y-16831D01*
X1332278Y-19370D01*
X1327200D01*
X1324661Y-16831D01*
Y-6674D01*
X1342435Y-21909D02*
X1344974Y-19370D01*
Y-16831D01*
X1342435D01*
Y-19370D01*
X1344974D01*
X1342435Y-21909D01*
X1339896Y-24448D01*
X1355131Y-6674D02*
X1357670Y-4135D01*
X1362749D01*
X1365288Y-6674D01*
Y-16831D01*
X1362749Y-19370D01*
X1357670D01*
X1355131Y-16831D01*
Y-6674D01*
X1380523Y-4135D02*
X1370366D01*
Y-11753D01*
X1375444Y-9213D01*
X1377984D01*
X1380523Y-11753D01*
Y-16831D01*
X1377984Y-19370D01*
X1372905D01*
X1370366Y-16831D01*
X1395758Y-4135D02*
X1385601D01*
Y-11753D01*
X1390679Y-9213D01*
X1393219D01*
X1395758Y-11753D01*
Y-16831D01*
X1393219Y-19370D01*
X1388140D01*
X1385601Y-16831D01*
X1400836Y-19370D02*
Y-9213D01*
X1403375D01*
X1405915Y-11753D01*
Y-19370D01*
Y-11753D01*
X1408454Y-9213D01*
X1410993Y-11753D01*
Y-19370D01*
X1416071D02*
Y-9213D01*
X1418611D01*
X1421150Y-11753D01*
Y-19370D01*
Y-11753D01*
X1423689Y-9213D01*
X1426228Y-11753D01*
Y-19370D01*
X1324661Y23806D02*
X1327200Y26345D01*
X1332278D01*
X1334818Y23806D01*
Y13649D01*
X1332278Y11110D01*
X1327200D01*
X1324661Y13649D01*
Y23806D01*
X1342435Y8571D02*
X1344974Y11110D01*
Y13649D01*
X1342435D01*
Y11110D01*
X1344974D01*
X1342435Y8571D01*
X1339896Y6032D01*
X1355131Y23806D02*
X1357670Y26345D01*
X1362749D01*
X1365288Y23806D01*
Y21267D01*
X1362749Y18728D01*
X1360209D01*
X1362749D01*
X1365288Y16188D01*
Y13649D01*
X1362749Y11110D01*
X1357670D01*
X1355131Y13649D01*
X1380523Y26345D02*
X1375444Y23806D01*
X1370366Y18728D01*
Y13649D01*
X1372905Y11110D01*
X1377984D01*
X1380523Y13649D01*
Y16188D01*
X1377984Y18728D01*
X1370366D01*
X1385601Y23806D02*
X1388140Y26345D01*
X1393219D01*
X1395758Y23806D01*
Y13649D01*
X1393219Y11110D01*
X1388140D01*
X1385601Y13649D01*
Y23806D01*
X1400836Y11110D02*
Y21267D01*
X1403375D01*
X1405915Y18728D01*
Y11110D01*
Y18728D01*
X1408454Y21267D01*
X1410993Y18728D01*
Y11110D01*
X1416071D02*
Y21267D01*
X1418611D01*
X1421150Y18728D01*
Y11110D01*
Y18728D01*
X1423689Y21267D01*
X1426228Y18728D01*
Y11110D01*
X1324661Y54286D02*
X1327200Y56825D01*
X1332278D01*
X1334818Y54286D01*
Y44129D01*
X1332278Y41590D01*
X1327200D01*
X1324661Y44129D01*
Y54286D01*
X1342435Y39051D02*
X1344974Y41590D01*
Y44129D01*
X1342435D01*
Y41590D01*
X1344974D01*
X1342435Y39051D01*
X1339896Y36512D01*
X1355131Y54286D02*
X1357670Y56825D01*
X1362749D01*
X1365288Y54286D01*
Y44129D01*
X1362749Y41590D01*
X1357670D01*
X1355131Y44129D01*
Y54286D01*
X1370366D02*
X1372905Y56825D01*
X1377984D01*
X1380523Y54286D01*
Y51747D01*
X1377984Y49208D01*
X1375444D01*
X1377984D01*
X1380523Y46668D01*
Y44129D01*
X1377984Y41590D01*
X1372905D01*
X1370366Y44129D01*
X1395758Y56825D02*
X1385601D01*
Y49208D01*
X1390679Y51747D01*
X1393219D01*
X1395758Y49208D01*
Y44129D01*
X1393219Y41590D01*
X1388140D01*
X1385601Y44129D01*
X1400836Y41590D02*
Y51747D01*
X1403375D01*
X1405915Y49208D01*
Y41590D01*
Y49208D01*
X1408454Y51747D01*
X1410993Y49208D01*
Y41590D01*
X1416071D02*
Y51747D01*
X1418611D01*
X1421150Y49208D01*
Y41590D01*
Y49208D01*
X1423689Y51747D01*
X1426228Y49208D01*
Y41590D01*
X1324661Y84766D02*
X1327200Y87305D01*
X1332278D01*
X1334818Y84766D01*
Y74609D01*
X1332278Y72070D01*
X1327200D01*
X1324661Y74609D01*
Y84766D01*
X1342435Y69531D02*
X1344974Y72070D01*
Y74609D01*
X1342435D01*
Y72070D01*
X1344974D01*
X1342435Y69531D01*
X1339896Y66992D01*
X1355131Y84766D02*
X1357670Y87305D01*
X1362749D01*
X1365288Y84766D01*
Y74609D01*
X1362749Y72070D01*
X1357670D01*
X1355131Y74609D01*
Y84766D01*
X1370366D02*
X1372905Y87305D01*
X1377984D01*
X1380523Y84766D01*
Y82227D01*
X1377984Y79688D01*
X1380523Y77148D01*
Y74609D01*
X1377984Y72070D01*
X1372905D01*
X1370366Y74609D01*
Y77148D01*
X1372905Y79688D01*
X1370366Y82227D01*
Y84766D01*
X1372905Y79688D02*
X1377984D01*
X1385601Y84766D02*
X1388140Y87305D01*
X1393219D01*
X1395758Y84766D01*
Y74609D01*
X1393219Y72070D01*
X1388140D01*
X1385601Y74609D01*
Y84766D01*
X1400836Y72070D02*
Y82227D01*
X1403375D01*
X1405915Y79688D01*
Y72070D01*
Y79688D01*
X1408454Y82227D01*
X1410993Y79688D01*
Y72070D01*
X1416071D02*
Y82227D01*
X1418611D01*
X1421150Y79688D01*
Y72070D01*
Y79688D01*
X1423689Y82227D01*
X1426228Y79688D01*
Y72070D01*
X1324661Y115246D02*
X1327200Y117785D01*
X1332278D01*
X1334818Y115246D01*
Y105089D01*
X1332278Y102550D01*
X1327200D01*
X1324661Y105089D01*
Y115246D01*
X1342435Y100011D02*
X1344974Y102550D01*
Y105089D01*
X1342435D01*
Y102550D01*
X1344974D01*
X1342435Y100011D01*
X1339896Y97472D01*
X1355131Y115246D02*
X1357670Y117785D01*
X1362749D01*
X1365288Y115246D01*
Y105089D01*
X1362749Y102550D01*
X1357670D01*
X1355131Y105089D01*
Y115246D01*
X1370366D02*
X1372905Y117785D01*
X1377984D01*
X1380523Y115246D01*
Y112707D01*
X1377984Y110168D01*
X1375444D01*
X1377984D01*
X1380523Y107628D01*
Y105089D01*
X1377984Y102550D01*
X1372905D01*
X1370366Y105089D01*
X1395758Y117785D02*
X1385601D01*
Y110168D01*
X1390679Y112707D01*
X1393219D01*
X1395758Y110168D01*
Y105089D01*
X1393219Y102550D01*
X1388140D01*
X1385601Y105089D01*
X1400836Y102550D02*
Y112707D01*
X1403375D01*
X1405915Y110168D01*
Y102550D01*
Y110168D01*
X1408454Y112707D01*
X1410993Y110168D01*
Y102550D01*
X1416071D02*
Y112707D01*
X1418611D01*
X1421150Y110168D01*
Y102550D01*
Y110168D01*
X1423689Y112707D01*
X1426228Y110168D01*
Y102550D01*
X1324661Y145726D02*
X1327200Y148265D01*
X1332278D01*
X1334818Y145726D01*
Y135569D01*
X1332278Y133030D01*
X1327200D01*
X1324661Y135569D01*
Y145726D01*
X1342435Y130491D02*
X1344974Y133030D01*
Y135569D01*
X1342435D01*
Y133030D01*
X1344974D01*
X1342435Y130491D01*
X1339896Y127952D01*
X1362749Y133030D02*
Y148265D01*
X1355131Y140647D01*
X1365288D01*
X1370366Y145726D02*
X1372905Y148265D01*
X1377984D01*
X1380523Y145726D01*
Y135569D01*
X1377984Y133030D01*
X1372905D01*
X1370366Y135569D01*
Y145726D01*
X1385601D02*
X1388140Y148265D01*
X1393219D01*
X1395758Y145726D01*
Y135569D01*
X1393219Y133030D01*
X1388140D01*
X1385601Y135569D01*
Y145726D01*
X1400836Y133030D02*
Y143187D01*
X1403375D01*
X1405915Y140647D01*
Y133030D01*
Y140647D01*
X1408454Y143187D01*
X1410993Y140647D01*
Y133030D01*
X1416071D02*
Y143187D01*
X1418611D01*
X1421150Y140647D01*
Y133030D01*
Y140647D01*
X1423689Y143187D01*
X1426228Y140647D01*
Y133030D01*
X1324661Y176206D02*
X1327200Y178745D01*
X1332278D01*
X1334818Y176206D01*
Y166049D01*
X1332278Y163510D01*
X1327200D01*
X1324661Y166049D01*
Y176206D01*
X1342435Y160971D02*
X1344974Y163510D01*
Y166049D01*
X1342435D01*
Y163510D01*
X1344974D01*
X1342435Y160971D01*
X1339896Y158432D01*
X1355131Y176206D02*
X1357670Y178745D01*
X1362749D01*
X1365288Y176206D01*
Y166049D01*
X1362749Y163510D01*
X1357670D01*
X1355131Y166049D01*
Y176206D01*
X1380523Y178745D02*
X1370366D01*
Y171127D01*
X1375444Y173667D01*
X1377984D01*
X1380523Y171127D01*
Y166049D01*
X1377984Y163510D01*
X1372905D01*
X1370366Y166049D01*
X1395758Y178745D02*
X1385601D01*
Y171127D01*
X1390679Y173667D01*
X1393219D01*
X1395758Y171127D01*
Y166049D01*
X1393219Y163510D01*
X1388140D01*
X1385601Y166049D01*
X1400836Y163510D02*
Y173667D01*
X1403375D01*
X1405915Y171127D01*
Y163510D01*
Y171127D01*
X1408454Y173667D01*
X1410993Y171127D01*
Y163510D01*
X1416071D02*
Y173667D01*
X1418611D01*
X1421150Y171127D01*
Y163510D01*
Y171127D01*
X1423689Y173667D01*
X1426228Y171127D01*
Y163510D01*
X1324661Y206686D02*
X1327200Y209225D01*
X1332278D01*
X1334818Y206686D01*
Y196529D01*
X1332278Y193990D01*
X1327200D01*
X1324661Y196529D01*
Y206686D01*
X1342435Y191451D02*
X1344974Y193990D01*
Y196529D01*
X1342435D01*
Y193990D01*
X1344974D01*
X1342435Y191451D01*
X1339896Y188912D01*
X1355131Y206686D02*
X1357670Y209225D01*
X1362749D01*
X1365288Y206686D01*
Y196529D01*
X1362749Y193990D01*
X1357670D01*
X1355131Y196529D01*
Y206686D01*
X1370366Y193990D02*
X1375444D01*
X1372905D01*
Y209225D01*
X1370366Y206686D01*
X1383062D02*
X1385601Y209225D01*
X1390679D01*
X1393219Y206686D01*
Y196529D01*
X1390679Y193990D01*
X1385601D01*
X1383062Y196529D01*
Y206686D01*
X1398297Y193990D02*
Y204147D01*
X1400836D01*
X1403375Y201607D01*
Y193990D01*
Y201607D01*
X1405915Y204147D01*
X1408454Y201607D01*
Y193990D01*
X1413532D02*
Y204147D01*
X1416071D01*
X1418610Y201607D01*
Y193990D01*
Y201607D01*
X1421150Y204147D01*
X1423689Y201607D01*
Y193990D01*
X1499876Y267646D02*
X1497336Y270185D01*
X1492258D01*
X1489719Y267646D01*
Y257489D01*
X1492258Y254950D01*
X1497336D01*
X1499876Y257489D01*
X1507493Y254950D02*
X1512572D01*
X1515111Y257489D01*
Y262568D01*
X1512572Y265107D01*
X1507493D01*
X1504954Y262568D01*
Y257489D01*
X1507493Y254950D01*
X1520189D02*
Y265107D01*
X1527807D01*
X1530346Y262568D01*
Y254950D01*
X1535424D02*
X1543042D01*
X1545581Y257489D01*
X1543042Y260028D01*
X1537963D01*
X1535424Y262568D01*
X1537963Y265107D01*
X1545581D01*
X1553198Y267646D02*
Y265107D01*
X1550659D01*
X1555738D01*
X1553198D01*
Y257489D01*
X1555738Y254950D01*
X1565894Y265107D02*
X1570973D01*
X1573512Y262568D01*
Y254950D01*
X1565894D01*
X1563355Y257489D01*
X1565894Y260028D01*
X1573512D01*
X1578590Y254950D02*
Y265107D01*
X1586208D01*
X1588747Y262568D01*
Y254950D01*
X1596364Y267646D02*
Y265107D01*
X1593825D01*
X1598904D01*
X1596364D01*
Y257489D01*
X1598904Y254950D01*
X1489719Y-37154D02*
X1492258Y-34615D01*
X1497336D01*
X1499876Y-37154D01*
Y-39693D01*
X1497336Y-42232D01*
X1494797D01*
X1497336D01*
X1499876Y-44772D01*
Y-47311D01*
X1497336Y-49850D01*
X1492258D01*
X1489719Y-47311D01*
X1504954Y-49850D02*
Y-47311D01*
X1507493D01*
Y-49850D01*
X1504954D01*
X1527807Y-34615D02*
X1517650D01*
Y-42232D01*
X1522728Y-39693D01*
X1525267D01*
X1527807Y-42232D01*
Y-47311D01*
X1525267Y-49850D01*
X1520189D01*
X1517650Y-47311D01*
X1497336Y11110D02*
Y26345D01*
X1489719Y18728D01*
X1499876D01*
X1504954Y11110D02*
Y13649D01*
X1507493D01*
Y11110D01*
X1504954D01*
X1517650Y23806D02*
X1520189Y26345D01*
X1525267D01*
X1527807Y23806D01*
Y21267D01*
X1525267Y18728D01*
X1522728D01*
X1525267D01*
X1527807Y16188D01*
Y13649D01*
X1525267Y11110D01*
X1520189D01*
X1517650Y13649D01*
X1497336Y72070D02*
Y87305D01*
X1489719Y79688D01*
X1499876D01*
X1504954Y72070D02*
Y74609D01*
X1507493D01*
Y72070D01*
X1504954D01*
X1527807D02*
X1517650D01*
X1527807Y82227D01*
Y84766D01*
X1525267Y87305D01*
X1520189D01*
X1517650Y84766D01*
X1497336Y133030D02*
Y148265D01*
X1489719Y140647D01*
X1499876D01*
X1504954Y133030D02*
Y135569D01*
X1507493D01*
Y133030D01*
X1504954D01*
X1517650Y145726D02*
X1520189Y148265D01*
X1525267D01*
X1527807Y145726D01*
Y143187D01*
X1525267Y140647D01*
X1522728D01*
X1525267D01*
X1527807Y138108D01*
Y135569D01*
X1525267Y133030D01*
X1520189D01*
X1517650Y135569D01*
X1489719Y206686D02*
X1492258Y209225D01*
X1497336D01*
X1499876Y206686D01*
Y204147D01*
X1497336Y201607D01*
X1494797D01*
X1497336D01*
X1499876Y199068D01*
Y196529D01*
X1497336Y193990D01*
X1492258D01*
X1489719Y196529D01*
X1504954Y193990D02*
Y196529D01*
X1507493D01*
Y193990D01*
X1504954D01*
X1527807Y209225D02*
X1517650D01*
Y201607D01*
X1522728Y204147D01*
X1525267D01*
X1527807Y201607D01*
Y196529D01*
X1525267Y193990D01*
X1520189D01*
X1517650Y196529D01*
D11*
X270250Y173750D02*
X272000Y175500D01*
X261250Y173750D02*
X270250D01*
Y166250D02*
X272000Y164500D01*
X261250Y166250D02*
X270250D01*
X67500Y213000D02*
X68250Y213750D01*
X68528D01*
X58375Y212500D02*
X58875Y213000D01*
X67500D01*
X73750Y203972D02*
Y208528D01*
X68528Y213750D02*
X73750Y208528D01*
X70528Y200750D02*
X73750Y203972D01*
X65972Y200750D02*
X70528D01*
X58375Y202500D02*
X64222D01*
X65972Y200750D01*
X50672Y217500D02*
X58375D01*
X51250Y207500D02*
X58375D01*
X49500Y209250D02*
Y216328D01*
X50672Y217500D01*
X49500Y209250D02*
X51250Y207500D01*
X67500Y207000D02*
X68250Y206250D01*
X58375Y207500D02*
X58875Y207000D01*
X67500D01*
X35250Y159750D02*
X47500Y147500D01*
X35250Y181500D02*
X46250Y192500D01*
X35250Y159750D02*
Y181500D01*
X46250Y192500D02*
X58375D01*
X73500Y222500D02*
X76412Y225412D01*
X87588D01*
X58375Y222500D02*
X73500D01*
X47500Y147500D02*
X58250D01*
X354000Y41750D02*
Y55500D01*
X349750Y37500D02*
X354000Y41750D01*
X357500Y57750D02*
X361500Y53750D01*
X352500Y62750D02*
Y74500D01*
Y62750D02*
X356000Y59250D01*
Y59215D02*
X357464Y57750D01*
X356000Y59215D02*
Y59250D01*
X357464Y57750D02*
X357500D01*
X354250Y76250D02*
X367500D01*
X352500Y74500D02*
X354250Y76250D01*
X340750Y68750D02*
Y165750D01*
X337250Y64000D02*
Y167233D01*
X330750Y57500D02*
X337250Y64000D01*
X310500Y76250D02*
X317358Y69391D01*
X315500Y54750D02*
X317358Y56609D01*
Y69391D01*
X298750Y4750D02*
X421972D01*
X408200Y80500D02*
X449999D01*
X403086Y8250D02*
X431681Y36845D01*
X418375Y71625D02*
X453924D01*
X465700Y59849D01*
X452394Y36845D02*
X465700Y50151D01*
X431681Y36845D02*
X452394D01*
X449999Y80500D02*
X476500Y53999D01*
Y43722D02*
Y53999D01*
X459278Y26500D02*
X476500Y43722D01*
X443722Y26500D02*
X459278D01*
X421972Y4750D02*
X443722Y26500D01*
X465700Y50151D02*
Y59849D01*
X340750Y68750D02*
X354000Y55500D01*
X367500Y76250D02*
X367500Y76250D01*
X339250Y217750D02*
X355525Y201475D01*
X337250Y167233D02*
X355525Y185508D01*
Y201475D01*
X359025Y184025D02*
Y203975D01*
X340750Y165750D02*
X359025Y184025D01*
X343750Y219250D02*
X359025Y203975D01*
X497500Y143000D02*
X503164D01*
X505664Y140500D02*
X515000D01*
X503164Y143000D02*
X505664Y140500D01*
X230500Y214500D02*
Y227750D01*
X233500Y230750D01*
X230500Y214500D02*
X230500Y214500D01*
X241500D02*
Y230750D01*
X252500Y214500D02*
Y230750D01*
X264000Y215000D02*
Y230750D01*
X263500Y214500D02*
X264000Y215000D01*
X208500Y214500D02*
Y225250D01*
X219750Y236500D02*
X283300D01*
X208500Y225250D02*
X219750Y236500D01*
X173500Y236450D02*
X177050Y240000D01*
X173500Y230750D02*
Y236450D01*
X142500Y224250D02*
X144260Y226010D01*
X168760D01*
X173500Y230750D01*
X177050Y240000D02*
X260000D01*
X174075Y245875D02*
X176625D01*
X180000Y249250D01*
X173310Y245110D02*
X174075Y245875D01*
X161500Y247750D02*
X165475D01*
X168115Y245110D01*
X173310D01*
X151000Y247750D02*
X161500D01*
X161500Y234000D02*
Y247750D01*
X161500Y247750D02*
X161500Y247750D01*
X348750Y143250D02*
X353250Y138750D01*
X367500D01*
X260000Y240000D02*
X301750D01*
X260000Y240000D02*
Y258000D01*
X260000Y240000D02*
X260000Y240000D01*
X123000Y120500D02*
X133750D01*
X123000Y142500D02*
X134000D01*
X123000Y153500D02*
X134000D01*
X427250Y103000D02*
Y120250D01*
X432000Y125000D01*
X421500Y97250D02*
X427250Y103000D01*
X408000Y97250D02*
X421500D01*
X399250Y123000D02*
X403250Y127000D01*
X399250Y89450D02*
Y123000D01*
Y89450D02*
X408200Y80500D01*
X395750Y88000D02*
X406750Y77000D01*
X413000D01*
X418375Y71625D01*
X395750Y88000D02*
Y137500D01*
X302500Y8250D02*
X403086D01*
X282750Y74750D02*
Y77000D01*
X367500Y27500D02*
Y63750D01*
Y88750D02*
X367750Y88500D01*
X380000D01*
X367500Y101250D02*
X379750D01*
X367500Y113750D02*
X380000D01*
X367750Y126500D02*
X380250D01*
X367500Y126250D02*
X367750Y126500D01*
X286230Y151992D02*
X292000Y146222D01*
Y140672D02*
Y146222D01*
X286230Y151992D02*
Y191980D01*
X282730Y150542D02*
Y194730D01*
Y150542D02*
X288500Y144772D01*
Y95498D02*
Y144772D01*
X284500Y26250D02*
X302500Y8250D01*
X288000Y15500D02*
X298750Y4750D01*
X263500Y15500D02*
X288000D01*
X300250Y17250D02*
X329578D01*
X331828Y15000D02*
X332750D01*
X329578Y17250D02*
X331828Y15000D01*
X301500Y21750D02*
X336343D01*
X338843Y19250D02*
X339500D01*
X336343Y21750D02*
X338843Y19250D01*
X343750Y219250D02*
Y244000D01*
X340000Y247750D02*
X343750Y244000D01*
X340000Y247750D02*
Y258000D01*
X339250Y217750D02*
Y241250D01*
X304500Y247250D02*
X333250D01*
X339250Y241250D01*
X300000Y251750D02*
X304500Y247250D01*
X300000Y251750D02*
Y258000D01*
X306000Y211750D02*
X328250D01*
X333250Y216750D01*
X326750Y241750D02*
X333250Y235250D01*
Y216750D02*
Y235250D01*
X293500Y78500D02*
Y90498D01*
X290000Y75000D02*
X293500Y78500D01*
X289500Y83750D02*
Y89548D01*
X282750Y77000D02*
X289500Y83750D01*
X289750Y33500D02*
X301500Y21750D01*
X182750Y33500D02*
X289750D01*
X287750Y29750D02*
X300250Y17250D01*
X192250Y29750D02*
X287750D01*
X288500Y95498D02*
X293500Y90498D01*
X283000Y96048D02*
X289500Y89548D01*
X420000Y265250D02*
Y272000D01*
X292000Y140672D02*
X293922Y138750D01*
X305000D01*
X281250Y131500D02*
X283000Y129750D01*
Y96048D02*
Y129750D01*
X286230Y191980D02*
X306000Y211750D01*
X282730Y194730D02*
X307750Y219750D01*
Y234000D01*
X301750Y240000D02*
X307750Y234000D01*
X240000Y251500D02*
Y258000D01*
X252500Y25000D02*
X253750Y26250D01*
X284500D01*
X252500Y15500D02*
Y25000D01*
X186500Y24000D02*
X192250Y29750D01*
X175500Y26250D02*
X182750Y33500D01*
X186500Y15500D02*
Y24000D01*
X175500Y15500D02*
Y26250D01*
X272000Y131500D02*
X281250D01*
X294800Y225000D02*
Y225000D01*
X283300Y236500D02*
X294800Y225000D01*
X219250Y214750D02*
Y225250D01*
Y214750D02*
X219500Y214500D01*
X186500Y202750D02*
Y214500D01*
X175500Y203000D02*
Y214500D01*
X148500Y234000D02*
Y245250D01*
X151000Y247750D01*
X142500Y214500D02*
Y224250D01*
X87588Y225412D02*
X88000Y225000D01*
X164500Y203250D02*
Y214500D01*
X305000Y46250D02*
X313750Y37500D01*
X305000Y46250D02*
Y63750D01*
Y76250D02*
X310500D01*
X319500Y77500D02*
Y86500D01*
X305000Y88750D02*
X317250D01*
X319500Y86500D01*
X305000Y101250D02*
X315500D01*
X319250Y97500D01*
X305000Y113750D02*
X317250D01*
X305000Y126250D02*
X317250D01*
X0Y127250D02*
Y262975D01*
Y280000D01*
Y127250D02*
X30000D01*
Y77750D02*
Y127250D01*
X0Y77750D02*
X30000D01*
X0Y0D02*
Y77750D01*
Y280000D02*
X650000D01*
Y0D02*
Y280000D01*
X0Y0D02*
X650000D01*
D12*
X55750Y240750D02*
X57625D01*
X353875Y21375D02*
X378125D01*
X407963Y26964D02*
X417100Y36100D01*
X378125Y21375D02*
X383713Y26964D01*
X407963D01*
X410500Y69250D02*
X417100Y62650D01*
Y36100D02*
Y62650D01*
X100000Y115000D02*
X106000D01*
X78500Y53500D02*
Y55000D01*
X75500Y50500D02*
X78500Y53500D01*
X70000Y50500D02*
X75500D01*
X87500Y37000D02*
Y38000D01*
Y37000D02*
X97000Y27500D01*
Y22250D02*
Y27500D01*
X86250Y7000D02*
X89750Y3500D01*
X86250Y7000D02*
Y12000D01*
X89750Y3500D02*
X103000D01*
X106000Y6500D01*
Y34000D01*
X96500Y43500D02*
X106000Y34000D01*
X96500Y43500D02*
Y55000D01*
X78000Y12000D02*
X86250D01*
X480000Y96750D02*
Y115500D01*
X470250Y87000D02*
X480000Y96750D01*
X282750Y69250D02*
X286500Y65500D01*
X282750Y69250D02*
Y74750D01*
X286500Y45500D02*
Y65500D01*
Y45500D02*
X303750Y28250D01*
X347000D01*
X353875Y21375D01*
X440000Y251000D02*
Y258000D01*
X420000Y272000D02*
X440000D01*
X380000D02*
X400000D01*
X354800Y225000D02*
Y236550D01*
X360000Y241750D01*
Y258000D01*
X320250Y264500D02*
X360000D01*
X282250D02*
X320250D01*
X320000Y258000D02*
Y264250D01*
X320250Y264500D01*
X360000D02*
X398000D01*
X360000Y258000D02*
Y264500D01*
X400000Y258000D02*
Y262500D01*
X398000Y264500D02*
X400000Y262500D01*
X280000Y262250D02*
X282250Y264500D01*
X280000Y258000D02*
Y262250D01*
X340000Y272000D02*
X360000D01*
X300000D02*
X320000D01*
X260000D02*
X280000D01*
X220000D02*
X240000D01*
X200000D02*
X220000D01*
X200000Y266000D02*
Y272000D01*
X154750Y263750D02*
Y269750D01*
X155000Y256000D02*
Y263500D01*
X154500Y270000D02*
X154750Y269750D01*
Y263750D02*
X155000Y263500D01*
X180000Y258000D02*
X183250D01*
X193500Y247750D01*
X199250D01*
X200000Y247000D01*
X137000Y255000D02*
X148250D01*
X148500Y255250D01*
Y256000D01*
X110250Y255000D02*
X123000D01*
X161500Y262000D02*
X171500Y272000D01*
X180000D01*
X161500Y256000D02*
Y262000D01*
X123000Y131500D02*
X134250D01*
D15*
X748227Y247330D02*
X1616684D01*
X748227Y277810D02*
X1616684D01*
X748227Y-87950D02*
Y277810D01*
Y-87950D02*
X852345D01*
X748227Y-57470D02*
X852345D01*
X748227Y-26990D02*
X852345D01*
X748227Y3490D02*
X852345D01*
X748227Y33970D02*
X852345D01*
X748227Y64450D02*
X852345D01*
X748227Y94930D02*
X852345D01*
X748227Y125410D02*
X852345D01*
X748227Y155890D02*
X852345D01*
X748227Y186370D02*
X852345D01*
X748227Y216850D02*
X852345D01*
Y-87950D02*
Y277810D01*
Y-87950D02*
X1088500D01*
X852345Y-57470D02*
X1088500D01*
X852345Y-26990D02*
X1088500D01*
X852345Y3490D02*
X1088500D01*
X852345Y33970D02*
X1088500D01*
X852345Y64450D02*
X1088500D01*
X852345Y94930D02*
X1088500D01*
X852345Y125410D02*
X1088500D01*
X852345Y155890D02*
X1088500D01*
X852345Y186370D02*
X1088500D01*
X852345Y216850D02*
X1088500D01*
Y-87950D02*
Y277810D01*
Y-87950D02*
X1306881D01*
X1088500Y-57470D02*
X1306881D01*
X1088500Y-26990D02*
X1306881D01*
X1088500Y3490D02*
X1306881D01*
X1088500Y33970D02*
X1306881D01*
X1088500Y64450D02*
X1306881D01*
X1088500Y94930D02*
X1306881D01*
X1088500Y125410D02*
X1306881D01*
X1088500Y155890D02*
X1306881D01*
X1088500Y186370D02*
X1306881D01*
X1088500Y216850D02*
X1306881D01*
Y-87950D02*
Y277810D01*
Y-87950D02*
X1471939D01*
X1306881Y-57470D02*
X1471939D01*
X1306881Y-26990D02*
X1471939D01*
X1306881Y3490D02*
X1471939D01*
X1306881Y33970D02*
X1471939D01*
X1306881Y64450D02*
X1471939D01*
X1306881Y94930D02*
X1471939D01*
X1306881Y125410D02*
X1471939D01*
X1306881Y155890D02*
X1471939D01*
X1306881Y186370D02*
X1471939D01*
X1306881Y216850D02*
X1471939D01*
Y-87950D02*
Y277810D01*
Y-87950D02*
X1616684D01*
X1471939Y-57470D02*
X1616684D01*
X1471939Y-26990D02*
X1616684D01*
X1471939Y3490D02*
X1616684D01*
X1471939Y33970D02*
X1616684D01*
X1471939Y64450D02*
X1616684D01*
X1471939Y94930D02*
X1616684D01*
X1471939Y125410D02*
X1616684D01*
X1471939Y155890D02*
X1616684D01*
X1471939Y186370D02*
X1616684D01*
X1471939Y216850D02*
X1616684D01*
Y-87950D02*
Y277810D01*
D16*
X58050Y227500D02*
D03*
Y222500D02*
D03*
Y217500D02*
D03*
Y192500D02*
D03*
Y197500D02*
D03*
Y202500D02*
D03*
Y212500D02*
D03*
Y207500D02*
D03*
D17*
Y186000D02*
D03*
Y234000D02*
D03*
Y178000D02*
D03*
Y242000D02*
D03*
D18*
X305000Y176250D02*
D03*
Y163750D02*
D03*
Y151250D02*
D03*
Y138750D02*
D03*
Y126250D02*
D03*
Y113750D02*
D03*
Y101250D02*
D03*
Y88750D02*
D03*
Y76250D02*
D03*
Y63750D02*
D03*
X367500Y176250D02*
D03*
Y163750D02*
D03*
Y151250D02*
D03*
Y138750D02*
D03*
Y126250D02*
D03*
Y113750D02*
D03*
Y101250D02*
D03*
Y88750D02*
D03*
Y76250D02*
D03*
Y63750D02*
D03*
D19*
X333000Y198750D02*
D03*
Y41250D02*
D03*
X395500Y198750D02*
D03*
Y41250D02*
D03*
D20*
X559750Y130250D02*
D03*
Y136750D02*
D03*
Y143250D02*
D03*
Y149750D02*
D03*
X530250Y130250D02*
D03*
Y136750D02*
D03*
Y143250D02*
D03*
Y149750D02*
D03*
D21*
X540500Y146125D02*
D03*
Y133875D02*
D03*
X549500D02*
D03*
Y146125D02*
D03*
D22*
X48400Y102500D02*
D03*
D23*
X86000Y141750D02*
D03*
X95000D02*
D03*
X145500Y270000D02*
D03*
X154500D02*
D03*
D24*
X86000Y124000D02*
D03*
Y133000D02*
D03*
X497500Y143000D02*
D03*
Y152000D02*
D03*
D25*
X173500Y230750D02*
D03*
X186500D02*
D03*
X180000Y249250D02*
D03*
D26*
X240000Y258000D02*
D03*
Y272000D02*
D03*
X200000D02*
D03*
Y258000D02*
D03*
X220000Y272000D02*
D03*
Y258000D02*
D03*
X515000Y115500D02*
D03*
Y129500D02*
D03*
Y140500D02*
D03*
Y154500D02*
D03*
X400000Y258000D02*
D03*
Y272000D02*
D03*
X280000Y258000D02*
D03*
Y272000D02*
D03*
X320000Y258000D02*
D03*
Y272000D02*
D03*
X360000Y258000D02*
D03*
Y272000D02*
D03*
X480000Y129500D02*
D03*
Y115500D02*
D03*
X497500D02*
D03*
Y129500D02*
D03*
X582500Y147000D02*
D03*
Y133000D02*
D03*
X440000Y272000D02*
D03*
Y258000D02*
D03*
X180000D02*
D03*
Y272000D02*
D03*
D27*
X86000Y89750D02*
D03*
Y102250D02*
D03*
D28*
X102000Y225000D02*
D03*
X88000D02*
D03*
X123000Y255000D02*
D03*
X137000D02*
D03*
D29*
X380000Y272000D02*
D03*
Y258000D02*
D03*
X260000D02*
D03*
Y272000D02*
D03*
X300000Y258000D02*
D03*
Y272000D02*
D03*
X340000Y258000D02*
D03*
Y272000D02*
D03*
X420000D02*
D03*
Y258000D02*
D03*
X200000Y247000D02*
D03*
Y233000D02*
D03*
D30*
X123000Y186500D02*
D03*
Y175500D02*
D03*
Y164500D02*
D03*
Y153500D02*
D03*
Y142500D02*
D03*
Y131500D02*
D03*
Y120500D02*
D03*
Y109500D02*
D03*
Y98500D02*
D03*
Y87500D02*
D03*
Y76500D02*
D03*
Y65500D02*
D03*
Y54500D02*
D03*
Y43500D02*
D03*
X272000D02*
D03*
Y54500D02*
D03*
Y65500D02*
D03*
Y76500D02*
D03*
Y87500D02*
D03*
Y98500D02*
D03*
Y109500D02*
D03*
Y120500D02*
D03*
Y131500D02*
D03*
Y142500D02*
D03*
Y153500D02*
D03*
Y164500D02*
D03*
Y175500D02*
D03*
Y186500D02*
D03*
D31*
X131500Y15500D02*
D03*
X142500D02*
D03*
X153500D02*
D03*
X164500D02*
D03*
X175500D02*
D03*
X186500D02*
D03*
X197500D02*
D03*
X208500D02*
D03*
X219500D02*
D03*
X230500D02*
D03*
X241500D02*
D03*
X252500D02*
D03*
X263500D02*
D03*
Y214500D02*
D03*
X252500D02*
D03*
X241500D02*
D03*
X230500D02*
D03*
X219500D02*
D03*
X208500D02*
D03*
X197500D02*
D03*
X186500D02*
D03*
X175500D02*
D03*
X164500D02*
D03*
X153500D02*
D03*
X142500D02*
D03*
X131500D02*
D03*
D32*
X145000Y188500D02*
D03*
X166000D02*
D03*
X187000D02*
D03*
X208000D02*
D03*
X229000D02*
D03*
X250000D02*
D03*
Y167500D02*
D03*
X229000D02*
D03*
X208000D02*
D03*
X187000D02*
D03*
X166000D02*
D03*
X145000D02*
D03*
Y146500D02*
D03*
X166000D02*
D03*
X187000D02*
D03*
X208000D02*
D03*
X229000D02*
D03*
X250000D02*
D03*
Y125500D02*
D03*
X229000D02*
D03*
X208000D02*
D03*
X187000D02*
D03*
X166000D02*
D03*
X145000D02*
D03*
Y104500D02*
D03*
X166000D02*
D03*
X187000D02*
D03*
X208000D02*
D03*
X229000D02*
D03*
X250000D02*
D03*
Y83500D02*
D03*
X229000D02*
D03*
X208000D02*
D03*
X187000D02*
D03*
X166000D02*
D03*
X145000D02*
D03*
Y62500D02*
D03*
X166000D02*
D03*
X187000D02*
D03*
X208000D02*
D03*
X229000D02*
D03*
X250000D02*
D03*
Y41500D02*
D03*
X229000D02*
D03*
X208000D02*
D03*
X187000D02*
D03*
X166000D02*
D03*
X145000D02*
D03*
D33*
X86000Y115000D02*
D03*
X100000D02*
D03*
D34*
X87500Y38000D02*
D03*
X97000Y12000D02*
D03*
X78000D02*
D03*
D35*
X78500Y55000D02*
D03*
X96500D02*
D03*
D36*
X161500Y256000D02*
D03*
X155000D02*
D03*
X148500D02*
D03*
X161500Y234000D02*
D03*
X155000D02*
D03*
X148500D02*
D03*
D37*
X110250Y255000D02*
D03*
D38*
X95000Y240250D02*
D03*
Y269750D02*
D03*
D39*
X544999Y139999D02*
D03*
D40*
X47300Y238900D02*
D03*
Y181100D02*
D03*
D41*
X52300Y166800D02*
D03*
Y253200D02*
D03*
D42*
X10500Y166800D02*
D03*
Y253200D02*
D03*
D43*
X346330Y53248D02*
D03*
Y186748D02*
D03*
X408830Y53248D02*
D03*
Y186748D02*
D03*
D44*
X354800Y225000D02*
D03*
X294800D02*
D03*
X455200Y55000D02*
D03*
X429800Y162500D02*
D03*
D45*
X380200Y225000D02*
D03*
X320200D02*
D03*
X429800Y55000D02*
D03*
X455200Y162500D02*
D03*
D46*
X471500Y237000D02*
D03*
X573100D02*
D03*
X547700D02*
D03*
X522300D02*
D03*
X496900D02*
D03*
Y43000D02*
D03*
X598500D02*
D03*
X573100D02*
D03*
X547700D02*
D03*
X522300D02*
D03*
D47*
X471500Y262400D02*
D03*
X522300D02*
D03*
X496900Y211600D02*
D03*
X547700D02*
D03*
X496900Y68400D02*
D03*
X547700D02*
D03*
X522300Y17600D02*
D03*
X573100D02*
D03*
D48*
Y262400D02*
D03*
X598500Y68400D02*
D03*
D49*
X601000Y122500D02*
D03*
D50*
Y157500D02*
D03*
D51*
X35000Y25000D02*
D03*
X615000Y255000D02*
D03*
D52*
X93440Y170690D02*
G03*
X86000Y152729I17960J-17960D01*
G01*
X104614Y175500D02*
G03*
X93750Y171000I0J-15364D01*
G01*
X48400Y102500D02*
G03*
X49004Y102250I604J604D01*
G01*
X93440Y170690D02*
X93750Y171000D01*
X86000Y141750D02*
Y152729D01*
X49004Y102250D02*
X86000D01*
X86000Y115000D02*
X86000Y115000D01*
Y124000D01*
Y133000D02*
Y141750D01*
X104614Y175500D02*
X123000D01*
X86000Y102250D02*
X86000Y102250D01*
X86000Y102250D02*
Y115000D01*
D53*
X48400Y130500D02*
D03*
Y74500D02*
D03*
D54*
X58125Y185750D02*
X58375Y186000D01*
X58050Y186000D02*
X68000D01*
X259500Y157000D02*
X263000Y153500D01*
X272000D01*
X582500Y120000D02*
Y133000D01*
X497500Y115500D02*
X505196D01*
X505196Y115500D02*
X507770D01*
X505196Y115500D02*
X505196Y115500D01*
X44691Y131175D02*
Y141059D01*
X48400Y130500D02*
X66500D01*
X44691Y131175D02*
X45366Y130500D01*
X48400D01*
X44500Y141250D02*
X44691Y141059D01*
X200000Y233000D02*
X208250D01*
X186500Y230750D02*
X190880Y226370D01*
X197070D01*
X102000Y225000D02*
X108750D01*
X200000Y258000D02*
X209500D01*
X420000D02*
X420125Y258125D01*
X429375D01*
X429500Y258250D01*
X36000Y140979D02*
Y141250D01*
X36250Y132750D02*
Y140729D01*
X36000Y140979D02*
X36250Y140729D01*
X220000Y250750D02*
Y258000D01*
X271875Y98625D02*
X272000Y98500D01*
X261500Y98750D02*
X261625Y98625D01*
X271875D01*
X260750Y109500D02*
X272000D01*
X373000Y176250D02*
X380059Y183309D01*
X380559D01*
X367500Y176250D02*
X373000D01*
X380559Y183309D02*
X380750Y183500D01*
X305000Y151250D02*
X323744D01*
X330122Y157628D02*
Y176878D01*
X324500Y182500D02*
X330122Y176878D01*
X323744Y151250D02*
X330122Y157628D01*
X145000Y167500D02*
X155750D01*
X380979Y151250D02*
X382979Y153250D01*
X383250D01*
X367500Y151250D02*
X380979D01*
X380000Y251000D02*
Y258000D01*
X260750Y189000D02*
X261021D01*
X263521Y186500D02*
X272000D01*
X261021Y189000D02*
X263521Y186500D01*
X282729Y142000D02*
X283000D01*
X272000Y142500D02*
X282229D01*
X282729Y142000D01*
X229000Y188500D02*
X240230D01*
X114229Y267250D02*
X114500D01*
X111729Y269750D02*
X114229Y267250D01*
X95000Y269750D02*
X111729D01*
X130771Y267500D02*
X133271Y270000D01*
X130500Y267500D02*
X130771D01*
X133271Y270000D02*
X145500D01*
X229000Y167500D02*
Y188500D01*
X250000Y146500D02*
Y167500D01*
X229000D02*
X250000D01*
X208000Y136730D02*
X208000Y136730D01*
X208000Y125500D02*
X208000Y125500D01*
Y136730D01*
X145000Y125500D02*
X166000D01*
X145000Y146500D02*
X166000D01*
X26250Y70750D02*
X26500Y71000D01*
X26250Y61750D02*
Y70750D01*
X11750Y72500D02*
X12000Y72250D01*
Y61500D02*
Y72250D01*
X197500Y203000D02*
Y214500D01*
X155000Y234000D02*
Y241750D01*
X304875Y163625D02*
X305000Y163750D01*
X292125Y163625D02*
X304875D01*
X292000Y163500D02*
X292125Y163625D01*
X123000Y164500D02*
X134000D01*
X79730Y240250D02*
X82304D01*
X82304Y240250D01*
X95000D01*
X378196Y163750D02*
X380770D01*
X378196Y163750D02*
X378196Y163750D01*
X367500Y163750D02*
X378196D01*
X522696Y115500D02*
X525270D01*
X522696Y115500D02*
X522696Y115500D01*
X515000Y115500D02*
X522696D01*
X86000Y81480D02*
Y84054D01*
X86000Y84054D01*
Y89750D01*
X291730Y176250D02*
X294304D01*
X294304Y176250D01*
X305000D01*
X123000Y186500D02*
X134770D01*
X111230Y65500D02*
X123000D01*
X111230Y43500D02*
X113804D01*
X113804Y43500D01*
X123000D01*
X281196Y87500D02*
X283770D01*
X281196Y87500D02*
X281196Y87500D01*
X272000Y87500D02*
X281196D01*
X145000Y178730D02*
Y181304D01*
X145000Y181304D01*
Y188500D01*
X240230D02*
X250000D01*
X208000Y157730D02*
Y160304D01*
X208000Y160304D02*
X208000Y160304D01*
X208000Y160304D02*
Y167500D01*
X187000Y157730D02*
Y160304D01*
X187000Y160304D01*
Y167500D01*
X166000Y157730D02*
Y160304D01*
X166000Y160304D02*
X166000Y160304D01*
X166000Y160304D02*
Y167500D01*
X166000Y136730D02*
Y139304D01*
X166000Y139304D02*
X166000Y139304D01*
X166000Y139304D02*
Y146500D01*
X187000Y136730D02*
Y139304D01*
X187000Y139304D01*
Y146500D01*
X208000Y136730D02*
Y139304D01*
X208000Y139304D02*
X208000Y139304D01*
X208000Y139304D02*
Y146500D01*
X219230Y146500D02*
X221804D01*
X221804Y146500D01*
X229000D01*
X240230Y125500D02*
X242804D01*
X242804Y125500D01*
X250000D01*
X219230Y125500D02*
X221804D01*
X221804Y125500D01*
X229000D01*
X194196Y125500D02*
X196770D01*
X194196Y125500D02*
X194196Y125500D01*
X187000Y125500D02*
X194196D01*
X173196Y125500D02*
X175770D01*
X173196Y125500D02*
X173196Y125500D01*
X166000Y125500D02*
X173196D01*
X152196Y104500D02*
X154770D01*
X152196Y104500D02*
X152196Y104500D01*
X145000Y104500D02*
X152196D01*
X166000Y111696D02*
Y114270D01*
X166000Y111696D02*
X166000Y111696D01*
X166000Y104500D02*
Y111696D01*
X187000Y111696D02*
Y114270D01*
Y111696D02*
X187000Y111696D01*
Y104500D02*
Y111696D01*
X208000Y111696D02*
Y114270D01*
X208000Y111696D02*
X208000Y111696D01*
X208000Y104500D02*
Y111696D01*
X229000Y111696D02*
Y114270D01*
Y111696D02*
X229000Y111696D01*
Y104500D02*
Y111696D01*
X240230Y104500D02*
X242804D01*
X242804Y104500D01*
X250000D01*
X240230Y83500D02*
X242804D01*
X242804Y83500D01*
X250000D01*
X229000Y90696D02*
Y93270D01*
Y90696D02*
X229000Y90696D01*
Y83500D02*
Y90696D01*
X208000Y90696D02*
Y93270D01*
X208000Y90696D02*
X208000Y90696D01*
X208000Y83500D02*
Y90696D01*
X187000Y90696D02*
Y93270D01*
Y90696D02*
X187000Y90696D01*
Y83500D02*
Y90696D01*
X166000Y90696D02*
Y93270D01*
X166000Y90696D02*
X166000Y90696D01*
X166000Y83500D02*
Y90696D01*
X145000Y90696D02*
Y93270D01*
Y90696D02*
X145000Y90696D01*
Y83500D02*
Y90696D01*
X145000Y69696D02*
Y72270D01*
Y69696D02*
X145000Y69696D01*
Y62500D02*
Y69696D01*
X166000Y69696D02*
Y72270D01*
X166000Y69696D02*
X166000Y69696D01*
X166000Y62500D02*
Y69696D01*
X187000Y69696D02*
Y72270D01*
Y69696D02*
X187000Y69696D01*
Y62500D02*
Y69696D01*
X208000Y69696D02*
Y72270D01*
X208000Y69696D02*
X208000Y69696D01*
X208000Y62500D02*
Y69696D01*
X229000Y69696D02*
Y72270D01*
Y69696D02*
X229000Y69696D01*
Y62500D02*
Y69696D01*
X250000Y62500D02*
Y72270D01*
Y41500D02*
Y51270D01*
X229000Y48696D02*
Y51270D01*
Y48696D02*
X229000Y48696D01*
Y41500D02*
Y48696D01*
X208000Y48696D02*
Y51270D01*
X208000Y48696D02*
X208000Y48696D01*
X208000Y41500D02*
Y48696D01*
X187000Y48696D02*
Y51270D01*
Y48696D02*
X187000Y48696D01*
Y41500D02*
Y48696D01*
X166000Y48696D02*
Y51270D01*
X166000Y48696D02*
X166000Y48696D01*
X166000Y41500D02*
Y48696D01*
X145000Y48696D02*
Y51270D01*
Y48696D02*
X145000Y48696D01*
Y41500D02*
Y48696D01*
D55*
X58050Y234000D02*
X58050Y234000D01*
X68000D01*
X530250Y143250D02*
X541209D01*
X540000Y132500D02*
X544250Y136750D01*
X559750D01*
X544250Y143250D02*
X559750D01*
X540000Y147500D02*
X544250Y143250D01*
X541209D02*
X544459Y140000D01*
X545000D01*
X62750Y41750D02*
X68250D01*
X97000Y13000D01*
Y12000D02*
Y13000D01*
D56*
X515000Y136750D02*
X530250D01*
X515000Y129500D02*
Y136750D01*
Y136750D02*
Y140500D01*
Y136750D02*
X515000Y136750D01*
D57*
X545000Y140000D02*
D03*
X540000Y132500D02*
D03*
X550000D02*
D03*
Y147500D02*
D03*
X540000D02*
D03*
X261250Y173750D02*
D03*
Y166250D02*
D03*
X68250Y213750D02*
D03*
Y206250D02*
D03*
X76000Y249000D02*
D03*
X68000Y186000D02*
D03*
X71250Y171500D02*
D03*
X68000Y234000D02*
D03*
X77652Y124096D02*
D03*
X78098Y117111D02*
D03*
X77341Y110152D02*
D03*
X70341D02*
D03*
X64250Y114250D02*
D03*
X57530Y114348D02*
D03*
X50530D02*
D03*
X43530D02*
D03*
X36530D02*
D03*
X37731Y90652D02*
D03*
X44731D02*
D03*
X51731D02*
D03*
X58731D02*
D03*
X65677Y91525D02*
D03*
X72082Y94348D02*
D03*
X79082D02*
D03*
X92853Y94477D02*
D03*
X94598Y101256D02*
D03*
X109616Y183402D02*
D03*
X102618Y183264D02*
D03*
X95809Y181638D02*
D03*
X89817Y178020D02*
D03*
X84966Y172973D02*
D03*
X81322Y166996D02*
D03*
X79044Y160378D02*
D03*
X78105Y153441D02*
D03*
X78098Y146441D02*
D03*
Y139441D02*
D03*
X77652Y132455D02*
D03*
X94500Y125250D02*
D03*
Y134250D02*
D03*
X93902Y149185D02*
D03*
X94237Y156177D02*
D03*
X96975Y162619D02*
D03*
X102292Y167172D02*
D03*
X109279Y167598D02*
D03*
X135490Y170958D02*
D03*
X135598Y177957D02*
D03*
X315500Y54750D02*
D03*
X361500Y53750D02*
D03*
X259500Y157000D02*
D03*
X237552Y155307D02*
D03*
X582500Y120000D02*
D03*
X507770Y115500D02*
D03*
X233500Y230750D02*
D03*
X241500D02*
D03*
X252500D02*
D03*
X264000D02*
D03*
X208250Y233000D02*
D03*
X7500Y7500D02*
D03*
Y50000D02*
D03*
X437500Y7500D02*
D03*
X460000D02*
D03*
X482500D02*
D03*
X505000D02*
D03*
X535000D02*
D03*
X557500D02*
D03*
X597500D02*
D03*
X615000D02*
D03*
X635000D02*
D03*
X642500Y17500D02*
D03*
Y37500D02*
D03*
Y57500D02*
D03*
Y75000D02*
D03*
Y92500D02*
D03*
Y127500D02*
D03*
Y145000D02*
D03*
Y200000D02*
D03*
Y217500D02*
D03*
Y235000D02*
D03*
Y272500D02*
D03*
X555000Y265000D02*
D03*
X540000D02*
D03*
X502500D02*
D03*
X487500D02*
D03*
X173310Y245110D02*
D03*
X197070Y226370D02*
D03*
X62750Y41750D02*
D03*
X89500Y191250D02*
D03*
X108750Y225000D02*
D03*
X121500Y237250D02*
D03*
X44500Y141250D02*
D03*
X58250Y147500D02*
D03*
X209500Y258000D02*
D03*
X429500Y258250D02*
D03*
X621000Y221000D02*
D03*
Y196000D02*
D03*
Y146000D02*
D03*
Y121000D02*
D03*
Y71000D02*
D03*
Y46000D02*
D03*
Y21000D02*
D03*
X596000Y221000D02*
D03*
Y196000D02*
D03*
Y96000D02*
D03*
Y21000D02*
D03*
X571000Y221000D02*
D03*
Y196000D02*
D03*
Y96000D02*
D03*
Y71000D02*
D03*
X546000Y196000D02*
D03*
Y121000D02*
D03*
Y96000D02*
D03*
Y21000D02*
D03*
X521000Y221000D02*
D03*
Y71000D02*
D03*
X496000Y21000D02*
D03*
X471000Y71000D02*
D03*
Y46000D02*
D03*
Y21000D02*
D03*
X446000Y96000D02*
D03*
Y21000D02*
D03*
X421000Y221000D02*
D03*
X371000Y246000D02*
D03*
X296000D02*
D03*
Y46000D02*
D03*
X271000Y246000D02*
D03*
X246000D02*
D03*
X196000Y96000D02*
D03*
Y71000D02*
D03*
X21000D02*
D03*
X36000Y141250D02*
D03*
X66500Y130500D02*
D03*
X106000Y115000D02*
D03*
X477500Y140000D02*
D03*
X485000D02*
D03*
X477500Y147500D02*
D03*
Y155000D02*
D03*
X220000Y250750D02*
D03*
X261500Y98750D02*
D03*
X260750Y109500D02*
D03*
X122500Y11750D02*
D03*
X380750Y183500D02*
D03*
X324500Y182500D02*
D03*
X330122Y157628D02*
D03*
X348750Y143250D02*
D03*
X70000Y50500D02*
D03*
X97000Y22250D02*
D03*
X86250Y12000D02*
D03*
X133750Y120500D02*
D03*
X134000Y142500D02*
D03*
X155750Y167500D02*
D03*
X134000Y153500D02*
D03*
X432000Y125000D02*
D03*
X408000Y97250D02*
D03*
X403250Y127000D02*
D03*
X470250Y87000D02*
D03*
X410500Y69250D02*
D03*
X367500Y27500D02*
D03*
X395750Y137500D02*
D03*
X383250Y153250D02*
D03*
X136000Y72000D02*
D03*
X440000Y251000D02*
D03*
X380000Y88500D02*
D03*
X379750Y101250D02*
D03*
X380000Y113750D02*
D03*
X380250Y126500D02*
D03*
X332750Y15000D02*
D03*
X330750Y57500D02*
D03*
X339500Y19250D02*
D03*
X349750Y37500D02*
D03*
X326750Y241750D02*
D03*
X290000Y75000D02*
D03*
X420000Y265250D02*
D03*
X380000Y251000D02*
D03*
X400250Y250000D02*
D03*
X260750Y189000D02*
D03*
X240000Y251500D02*
D03*
X219250Y225250D02*
D03*
X186500Y202750D02*
D03*
X175500Y203000D02*
D03*
X200000Y266000D02*
D03*
X155000Y263500D02*
D03*
X114500Y267250D02*
D03*
X130500Y267500D02*
D03*
X164500Y203250D02*
D03*
X313750Y37500D02*
D03*
X319500Y77500D02*
D03*
X319250Y97500D02*
D03*
X317250Y113750D02*
D03*
Y126250D02*
D03*
X427500Y181750D02*
D03*
X283000Y142000D02*
D03*
X134250Y131500D02*
D03*
X26250Y61750D02*
D03*
X12000Y61500D02*
D03*
X197500Y203000D02*
D03*
X155000Y241750D02*
D03*
X292000Y163500D02*
D03*
X134000Y164500D02*
D03*
X420500Y122770D02*
D03*
X237228Y115000D02*
D03*
X227230Y135500D02*
D03*
X515000Y78230D02*
D03*
X80270Y72000D02*
D03*
X94730D02*
D03*
X470000Y176980D02*
D03*
X433000Y235270D02*
D03*
X79730Y240250D02*
D03*
X380770Y163750D02*
D03*
X525270Y115500D02*
D03*
X86000Y81480D02*
D03*
X291730Y176250D02*
D03*
X134770Y186500D02*
D03*
X111230Y65500D02*
D03*
Y43500D02*
D03*
X283770Y87500D02*
D03*
X145000Y178730D02*
D03*
X240230Y188500D02*
D03*
X208000Y157730D02*
D03*
X187000D02*
D03*
X166000D02*
D03*
Y136730D02*
D03*
X187000D02*
D03*
X208000D02*
D03*
X219230Y146500D02*
D03*
X240230Y125500D02*
D03*
X219230D02*
D03*
X196770D02*
D03*
X175770D02*
D03*
X154770Y104500D02*
D03*
X166000Y114270D02*
D03*
X187000D02*
D03*
X208000D02*
D03*
X229000D02*
D03*
X240230Y104500D02*
D03*
Y83500D02*
D03*
X229000Y93270D02*
D03*
X208000D02*
D03*
X187000D02*
D03*
X166000D02*
D03*
X145000D02*
D03*
Y72270D02*
D03*
X166000D02*
D03*
X187000D02*
D03*
X208000D02*
D03*
X229000D02*
D03*
X250000D02*
D03*
Y51270D02*
D03*
X229000D02*
D03*
X208000D02*
D03*
X187000D02*
D03*
X166000D02*
D03*
X145000D02*
D03*
M02*
