G04*
G04 #@! TF.GenerationSoftware,Altium Limited,Altium Designer,23.10.1 (27)*
G04*
G04 Layer_Physical_Order=4*
G04 Layer_Color=255*
%FSLAX44Y44*%
%MOMM*%
G71*
G04*
G04 #@! TF.SameCoordinates,12E47488-CEE1-414F-AB97-9C1FAA11A261*
G04*
G04*
G04 #@! TF.FilePolarity,Positive*
G04*
G01*
G75*
%ADD10C,0.2540*%
%ADD11C,0.2000*%
%ADD12C,0.3000*%
%ADD15C,0.3810*%
%ADD23R,0.5000X0.6500*%
%ADD24R,0.6500X0.5000*%
%ADD26R,1.2000X0.5500*%
%ADD27R,0.7000X0.8000*%
%ADD28R,0.5500X1.2000*%
%ADD34R,0.8000X1.0000*%
%ADD40C,0.6500*%
%ADD41O,2.1000X1.0500*%
%ADD42O,1.8000X1.0000*%
%ADD43C,0.3000*%
%ADD44O,1.6000X1.7000*%
%ADD45R,1.6000X1.7000*%
%ADD46C,1.1000*%
%ADD47C,1.6000*%
%ADD48R,1.6000X1.6000*%
%ADD49R,1.8000X1.8000*%
%ADD50C,1.8000*%
%ADD51C,5.0000*%
%ADD54C,0.5000*%
%ADD55C,0.4000*%
%ADD57C,0.6000*%
%ADD58R,3.5000X1.0000*%
%ADD59R,3.4000X1.5000*%
%ADD60R,0.8000X0.7000*%
%ADD61R,0.8000X0.9000*%
%ADD62R,0.9000X0.8000*%
%ADD63C,1.2000*%
%ADD64R,0.6500X0.9500*%
%ADD65R,1.0000X2.5000*%
%ADD66R,5.5000X2.2500*%
G36*
X321212Y276230D02*
X311561Y266578D01*
X227000D01*
X227000Y266578D01*
X225439Y266268D01*
X224116Y265384D01*
X224116Y265384D01*
X220811Y262078D01*
X211413D01*
X210395Y262500D01*
X208605D01*
X207587Y262078D01*
X204238D01*
X203712Y263348D01*
X203815Y263451D01*
X204500Y265105D01*
Y266895D01*
X203815Y268549D01*
X202549Y269815D01*
X200895Y270500D01*
X199105D01*
X197451Y269815D01*
X196695Y269059D01*
X158258D01*
X158257Y269059D01*
X157087Y268826D01*
X156095Y268163D01*
X155921Y267989D01*
X155895Y268000D01*
X154105D01*
X152451Y267315D01*
X151185Y266049D01*
X150500Y264395D01*
Y262605D01*
X151185Y260951D01*
X152451Y259685D01*
X154039Y259027D01*
X154169Y258711D01*
X154384Y257730D01*
X153866Y257384D01*
X153866Y257384D01*
X138061Y241578D01*
X133750D01*
Y245000D01*
X125250D01*
Y237644D01*
X125172Y237250D01*
X125172Y237250D01*
Y230000D01*
X123250D01*
Y220226D01*
X123250Y220000D01*
X123216Y219936D01*
X121784D01*
X121750Y220000D01*
X121750Y220226D01*
Y223500D01*
X110750D01*
Y220226D01*
X110750Y220000D01*
X110204Y218956D01*
X91000D01*
Y225250D01*
X87500D01*
Y227250D01*
X82500D01*
X77500D01*
Y225250D01*
X74000D01*
Y220987D01*
X72730Y220401D01*
X71338Y221205D01*
X69303Y221750D01*
X67197D01*
X65162Y221205D01*
X63338Y220152D01*
X61848Y218662D01*
X60795Y216838D01*
X60250Y214803D01*
Y212697D01*
X60795Y210662D01*
X61178Y210000D01*
X60795Y209338D01*
X60250Y207303D01*
Y205197D01*
X60795Y203162D01*
X61848Y201338D01*
X63338Y199848D01*
X65162Y198795D01*
X67197Y198250D01*
X69303D01*
X71338Y198795D01*
X72730Y199599D01*
X74000Y199013D01*
Y194750D01*
X77500D01*
Y192750D01*
X82500D01*
X87500D01*
Y194750D01*
X91000D01*
Y201044D01*
X133026D01*
X171106Y162964D01*
X172464Y161922D01*
X174045Y161267D01*
X175742Y161044D01*
X214000D01*
Y158552D01*
X214750Y155754D01*
X216198Y153246D01*
X218246Y151198D01*
X220754Y149750D01*
X223552Y149000D01*
X226448D01*
X228730Y149611D01*
X230000Y148849D01*
Y145250D01*
X245000D01*
Y145422D01*
X247500D01*
Y145250D01*
X259982D01*
X260116Y145116D01*
X260116Y145116D01*
X261439Y144232D01*
X263000Y143922D01*
X267500D01*
X267894Y144000D01*
X272250D01*
Y152000D01*
X272250D01*
Y153000D01*
X272250D01*
Y161000D01*
X267894D01*
X267500Y161078D01*
X263842D01*
X263590Y162348D01*
X263799Y162435D01*
X265065Y163701D01*
X265750Y165355D01*
Y167145D01*
X265065Y168799D01*
X263864Y170000D01*
X265065Y171201D01*
X265750Y172855D01*
Y174645D01*
X265065Y176299D01*
X263799Y177565D01*
X262145Y178250D01*
X260355D01*
X259770Y178008D01*
X258500Y178856D01*
Y180250D01*
X253000D01*
Y183750D01*
X238000D01*
Y178956D01*
X236000D01*
Y181448D01*
X235250Y184246D01*
X233802Y186754D01*
X231754Y188802D01*
X229246Y190250D01*
X226448Y191000D01*
X223552D01*
X220754Y190250D01*
X218246Y188802D01*
X216198Y186754D01*
X214750Y184246D01*
X214000Y181448D01*
Y178956D01*
X180446D01*
X142366Y217036D01*
X141008Y218078D01*
X139427Y218733D01*
X137730Y218956D01*
X134796D01*
X134250Y220000D01*
X134250Y220226D01*
Y230000D01*
X133750Y230000D01*
Y233422D01*
X139750D01*
X139750Y233422D01*
X141311Y233732D01*
X142634Y234616D01*
X158439Y250422D01*
X171056D01*
X171308Y249152D01*
X170761Y248925D01*
X169495Y247659D01*
X168810Y246005D01*
Y244215D01*
X169495Y242561D01*
X170761Y241295D01*
X172415Y240610D01*
X174205D01*
X175859Y241295D01*
X177015Y242451D01*
X217866D01*
X218206Y241181D01*
X217895Y241001D01*
X216499Y239605D01*
X215511Y237895D01*
X215000Y235987D01*
Y234013D01*
X215511Y232105D01*
X216499Y230395D01*
X216888Y230005D01*
X216701Y229065D01*
X215435Y227799D01*
X214750Y226145D01*
Y224355D01*
X215075Y223569D01*
X214227Y222299D01*
X181000D01*
X180025Y222105D01*
X179198Y221552D01*
X165395Y207750D01*
X165395Y207750D01*
X163605D01*
X161951Y207065D01*
X160685Y205799D01*
X160000Y204145D01*
Y202355D01*
X160685Y200701D01*
X161951Y199435D01*
X163605Y198750D01*
X165395D01*
X167049Y199435D01*
X168315Y200701D01*
X169000Y202355D01*
Y204145D01*
X169000Y204145D01*
X170244Y205390D01*
X171321Y204670D01*
X171000Y203895D01*
Y202105D01*
X171685Y200451D01*
X172951Y199185D01*
X174605Y198500D01*
X176395D01*
X178049Y199185D01*
X179315Y200451D01*
X180000Y202105D01*
Y203895D01*
X180000Y203895D01*
X181245Y205140D01*
X182321Y204420D01*
X182000Y203645D01*
Y201855D01*
X182685Y200201D01*
X183951Y198935D01*
X185605Y198250D01*
X187395D01*
X189049Y198935D01*
X190315Y200201D01*
X191000Y201855D01*
Y203645D01*
X191000Y203645D01*
X197556Y210201D01*
X235595D01*
X239848Y205948D01*
X240675Y205395D01*
X241651Y205201D01*
X257696D01*
X280181Y182716D01*
Y150542D01*
X280375Y149567D01*
X280927Y148740D01*
X283812Y145855D01*
X283812Y145855D01*
X291701Y137966D01*
Y113800D01*
X291895Y112825D01*
X292448Y111998D01*
X310846Y93599D01*
X310948Y93448D01*
X318448Y85948D01*
X319275Y85395D01*
X320078Y85235D01*
X320251Y85201D01*
X321250Y84586D01*
X321250Y82916D01*
X320217Y82000D01*
X318605D01*
X316951Y81315D01*
X315685Y80049D01*
X315000Y78395D01*
Y76605D01*
X315685Y74951D01*
X316951Y73685D01*
X318605Y73000D01*
X320395D01*
X321250Y72429D01*
Y70049D01*
X298556D01*
X294500Y74105D01*
X294500Y74105D01*
Y75895D01*
X293815Y77549D01*
X292549Y78815D01*
X290895Y79500D01*
X289105D01*
X287451Y78815D01*
X286185Y77549D01*
X285500Y75895D01*
Y74105D01*
X286185Y72451D01*
X287451Y71185D01*
X289105Y70500D01*
X290895D01*
X290895Y70500D01*
X295698Y65698D01*
X296525Y65145D01*
X297500Y64951D01*
X318750D01*
Y60049D01*
X318407D01*
X317431Y59855D01*
X316604Y59302D01*
X316506Y59204D01*
X316395Y59250D01*
X314605D01*
X312951Y58565D01*
X311685Y57299D01*
X311000Y55645D01*
Y53855D01*
X311685Y52201D01*
X312951Y50935D01*
X314605Y50250D01*
X316395D01*
X317480Y50699D01*
X318750Y50000D01*
Y50000D01*
X327250D01*
Y52977D01*
X328520Y53553D01*
X329855Y53000D01*
X331645D01*
X331694Y53020D01*
X332750Y52315D01*
Y50000D01*
X334451D01*
Y48341D01*
X331020Y44910D01*
X329750Y45000D01*
X329529Y45000D01*
X321250D01*
Y40049D01*
X317565D01*
X317565Y40049D01*
X316299Y41315D01*
X314645Y42000D01*
X312855D01*
X311201Y41315D01*
X309935Y40049D01*
X309250Y38395D01*
Y36605D01*
X309935Y34951D01*
X311201Y33685D01*
X312855Y33000D01*
X314645D01*
X316299Y33685D01*
X317565Y34951D01*
X317565Y34951D01*
X321250D01*
Y30000D01*
X329750Y30000D01*
X330201Y28917D01*
Y18815D01*
X330201Y18815D01*
X328935Y17549D01*
X328250Y15895D01*
Y14105D01*
X328935Y12451D01*
X330201Y11185D01*
X331855Y10500D01*
X333645D01*
X335299Y11185D01*
X336565Y12451D01*
X337250Y14105D01*
Y14168D01*
X338306Y14874D01*
X338605Y14750D01*
X340395D01*
X342049Y15435D01*
X343315Y16701D01*
X344000Y18355D01*
Y20145D01*
X343315Y21799D01*
X342049Y23065D01*
X342049Y23065D01*
Y30000D01*
X343750D01*
Y34951D01*
X345935D01*
X345935Y34951D01*
X347201Y33685D01*
X348855Y33000D01*
X350645D01*
X352299Y33685D01*
X353565Y34951D01*
X354250Y36605D01*
Y38395D01*
X353565Y40049D01*
X352299Y41315D01*
X350645Y42000D01*
X348855D01*
X347201Y41315D01*
X345935Y40049D01*
X345935Y40049D01*
X343750D01*
Y45000D01*
X340007D01*
X339554Y45561D01*
X339328Y46270D01*
X339355Y46310D01*
X339549Y47285D01*
Y50000D01*
X341181D01*
X341244Y49849D01*
X342931Y48161D01*
X345137Y47248D01*
X347523D01*
X349729Y48161D01*
X351417Y49849D01*
X352330Y52055D01*
Y54441D01*
X351417Y56647D01*
X349729Y58334D01*
X347523Y59248D01*
X345137D01*
X342931Y58334D01*
X342423Y57826D01*
X341250Y58313D01*
Y65000D01*
X339901D01*
X339375Y66270D01*
X341302Y68198D01*
X341855Y69025D01*
X342049Y70000D01*
X343750D01*
Y85000D01*
X340581D01*
X340125Y86270D01*
X341302Y87448D01*
X341855Y88275D01*
X342049Y89250D01*
Y90000D01*
X343750D01*
Y105000D01*
X340831D01*
X340375Y106270D01*
X341302Y107198D01*
X341855Y108025D01*
X342049Y109000D01*
Y110000D01*
X343750D01*
Y125000D01*
X335250D01*
Y110299D01*
X329750D01*
Y125000D01*
X327264D01*
X326778Y126173D01*
X327302Y126698D01*
X327855Y127524D01*
X328049Y128500D01*
Y130000D01*
X329750D01*
Y137204D01*
X330712Y137600D01*
X331020Y137625D01*
X332948Y135698D01*
X333775Y135145D01*
X334750Y134951D01*
X335250D01*
Y130000D01*
X343750D01*
Y140243D01*
X344617Y140578D01*
X345020Y140616D01*
X346201Y139435D01*
X347855Y138750D01*
X349645D01*
X351299Y139435D01*
X352565Y140701D01*
X353250Y142355D01*
Y144145D01*
X352565Y145799D01*
X351299Y147065D01*
X349645Y147750D01*
X347855D01*
X347855Y147750D01*
X345299Y150306D01*
Y152000D01*
X349000D01*
Y161451D01*
X359595D01*
X360201Y160845D01*
Y70250D01*
X360395Y69275D01*
X360948Y68448D01*
X373698Y55698D01*
X374524Y55145D01*
X375500Y54951D01*
X381250D01*
Y50299D01*
X368556D01*
X366000Y52855D01*
X366000Y52855D01*
Y54645D01*
X365315Y56299D01*
X364049Y57565D01*
X362395Y58250D01*
X360605D01*
X358951Y57565D01*
X357685Y56299D01*
X357000Y54645D01*
Y52855D01*
X357685Y51201D01*
X358951Y49935D01*
X360605Y49250D01*
X362395D01*
X362395Y49250D01*
X365698Y45948D01*
X366525Y45395D01*
X367500Y45201D01*
X369063D01*
X370250Y45000D01*
Y32606D01*
X368980Y31758D01*
X368395Y32000D01*
X366605D01*
X366020Y31758D01*
X364750Y32606D01*
Y45000D01*
X356250D01*
Y30000D01*
X357951D01*
Y25000D01*
X356250D01*
Y10000D01*
X357951D01*
Y9500D01*
X358145Y8525D01*
X358698Y7698D01*
X361948Y4448D01*
X362775Y3895D01*
X363403Y3770D01*
X363278Y2500D01*
X108735D01*
X108249Y3673D01*
X110663Y6087D01*
X110663Y6087D01*
X111326Y7079D01*
X111559Y8250D01*
Y28483D01*
X112017Y28941D01*
X115000D01*
Y27750D01*
X130000D01*
Y36250D01*
X128417D01*
X127250Y36500D01*
Y44230D01*
X127250Y44500D01*
Y45500D01*
X127250Y45770D01*
Y53500D01*
X128209Y54250D01*
X130500D01*
Y55441D01*
X134250D01*
X134250Y55441D01*
X135421Y55674D01*
X136413Y56337D01*
X140017Y59941D01*
X149500D01*
X149500Y59941D01*
X150670Y60174D01*
X151663Y60837D01*
X154413Y63587D01*
X154413Y63587D01*
X155076Y64579D01*
X155309Y65750D01*
X155309Y65750D01*
Y76750D01*
X155076Y77921D01*
X154413Y78913D01*
X154413Y78913D01*
X150413Y82913D01*
X149420Y83576D01*
X148250Y83809D01*
X148250Y83809D01*
X141517D01*
X110500Y114826D01*
Y115895D01*
X109815Y117549D01*
X108549Y118815D01*
X106895Y119500D01*
X105105D01*
X103451Y118815D01*
X102185Y117549D01*
X101500Y115895D01*
Y114105D01*
X102185Y112451D01*
X103451Y111185D01*
X105105Y110500D01*
X106174D01*
X138087Y78587D01*
X139080Y77924D01*
X140250Y77691D01*
X140250Y77691D01*
X146983D01*
X149191Y75483D01*
Y67017D01*
X148233Y66059D01*
X138750D01*
X138750Y66059D01*
X137579Y65826D01*
X136587Y65163D01*
X136587Y65163D01*
X132983Y61559D01*
X130500D01*
Y62750D01*
X115500D01*
Y54754D01*
X115201Y54040D01*
X114516Y53559D01*
X113691D01*
X112500Y53750D01*
X112500Y54829D01*
Y62250D01*
X97500D01*
Y61059D01*
X89500D01*
X88329Y60826D01*
X87337Y60163D01*
X75337Y48163D01*
X75180Y47927D01*
X74054Y48529D01*
X74500Y49605D01*
Y51395D01*
X74051Y52480D01*
X74773Y53750D01*
X77500D01*
Y62250D01*
X62500D01*
Y62250D01*
X61250Y62298D01*
Y67702D01*
X62500Y67750D01*
X62520Y67750D01*
X68500D01*
Y70500D01*
X62500D01*
Y70048D01*
X61250Y70000D01*
X61230Y70000D01*
X52750D01*
Y55774D01*
X52500Y55569D01*
X47978D01*
X47250Y56297D01*
Y70000D01*
X38750D01*
Y55000D01*
X39531D01*
X39703Y54134D01*
X40477Y52977D01*
X41342Y52112D01*
X40735Y50922D01*
X37086Y51500D01*
X32914D01*
X28795Y50848D01*
X24827Y49559D01*
X21111Y47665D01*
X17736Y45213D01*
X14787Y42264D01*
X12335Y38889D01*
X10441Y35173D01*
X9153Y31205D01*
X8500Y27086D01*
Y22914D01*
X9153Y18795D01*
X10441Y14828D01*
X12335Y11111D01*
X14787Y7736D01*
X17736Y4787D01*
X19222Y3708D01*
X18829Y2500D01*
X2500D01*
Y76126D01*
X30000D01*
X31148Y76602D01*
X31624Y77750D01*
Y127250D01*
X31148Y128398D01*
X30000Y128874D01*
X2500D01*
Y160185D01*
X3770Y160895D01*
X4803Y160467D01*
X6500Y160244D01*
X14500D01*
X16197Y160467D01*
X17778Y161122D01*
X19136Y162164D01*
X20178Y163522D01*
X20833Y165103D01*
X21056Y166800D01*
X20833Y168497D01*
X20178Y170078D01*
X19136Y171436D01*
X17778Y172478D01*
X16197Y173133D01*
X14500Y173356D01*
X6500D01*
X4803Y173133D01*
X3770Y172705D01*
X2500Y173415D01*
Y246585D01*
X3770Y247295D01*
X4803Y246867D01*
X6500Y246644D01*
X14500D01*
X16197Y246867D01*
X17778Y247522D01*
X19136Y248564D01*
X20178Y249922D01*
X20833Y251503D01*
X21056Y253200D01*
X20833Y254897D01*
X20178Y256478D01*
X19136Y257836D01*
X17778Y258878D01*
X16197Y259533D01*
X14500Y259756D01*
X6500D01*
X4803Y259533D01*
X3770Y259105D01*
X2500Y259815D01*
Y277500D01*
X320686D01*
X321212Y276230D01*
D02*
G37*
G36*
X417660Y269152D02*
X417451Y269065D01*
X416185Y267799D01*
X416185Y267799D01*
X336500D01*
X335525Y267605D01*
X334698Y267052D01*
X324948Y257302D01*
X324395Y256475D01*
X324201Y255500D01*
Y245565D01*
X324201Y245565D01*
X322935Y244299D01*
X322250Y242645D01*
Y240855D01*
X322935Y239201D01*
X324201Y237935D01*
X325855Y237250D01*
X327645D01*
X329299Y237935D01*
X330565Y239201D01*
X331250Y240855D01*
Y242645D01*
X330565Y244299D01*
X329299Y245565D01*
X329299Y245565D01*
Y254444D01*
X337556Y262701D01*
X416185D01*
X416185Y262701D01*
X417451Y261435D01*
X419105Y260750D01*
X420895D01*
X422549Y261435D01*
X423815Y262701D01*
X424152Y263514D01*
X425422Y263261D01*
Y260163D01*
X425000Y259145D01*
Y257355D01*
X425422Y256337D01*
Y251689D01*
X407116Y233384D01*
X406232Y232061D01*
X405922Y230500D01*
X405922Y230500D01*
Y217624D01*
X402750D01*
X401602Y217148D01*
X401126Y216000D01*
Y213454D01*
X400189Y213268D01*
X398866Y212384D01*
X397759Y211276D01*
X396381Y211695D01*
X396353Y211835D01*
X397634Y213116D01*
X397634Y213116D01*
X398518Y214439D01*
X398828Y216000D01*
Y231311D01*
X403134Y235616D01*
X403134Y235616D01*
X404018Y236939D01*
X404328Y238500D01*
X404328Y238500D01*
Y248087D01*
X404750Y249105D01*
Y250895D01*
X404065Y252549D01*
X402799Y253815D01*
X401145Y254500D01*
X399355D01*
X397701Y253815D01*
X396435Y252549D01*
X395750Y250895D01*
Y249105D01*
X396172Y248087D01*
Y240189D01*
X391866Y235884D01*
X390982Y234561D01*
X390672Y233000D01*
X390672Y233000D01*
Y217689D01*
X387116Y214134D01*
X386232Y212811D01*
X385971Y211500D01*
X384500D01*
Y199578D01*
X337500D01*
X337500Y199578D01*
X335939Y199268D01*
X334616Y198384D01*
X322969Y186737D01*
X321951Y186315D01*
X320685Y185049D01*
X320000Y183395D01*
Y181651D01*
X319870Y181530D01*
X318891Y180964D01*
X283299Y216556D01*
Y225250D01*
X283105Y226225D01*
X282552Y227052D01*
X277052Y232552D01*
X276225Y233105D01*
X275250Y233299D01*
X267815D01*
X267815Y233299D01*
X266549Y234565D01*
X264895Y235250D01*
X263105D01*
X261451Y234565D01*
X260185Y233299D01*
X259500Y231645D01*
Y229855D01*
X259710Y229347D01*
X258634Y228628D01*
X257000Y230262D01*
Y231645D01*
X256315Y233299D01*
X255049Y234565D01*
X253395Y235250D01*
X251605D01*
X249951Y234565D01*
X248685Y233299D01*
X248000Y231645D01*
Y229855D01*
X248144Y229506D01*
X247068Y228787D01*
X246000Y229855D01*
X246000Y229855D01*
Y231645D01*
X245315Y233299D01*
X244049Y234565D01*
X242395Y235250D01*
X240605D01*
X238951Y234565D01*
X238330Y233944D01*
X237500Y233417D01*
X236670Y233944D01*
X236049Y234565D01*
X234395Y235250D01*
X232605D01*
X231270Y234697D01*
X230314Y235131D01*
X230000Y235410D01*
Y235987D01*
X229489Y237895D01*
X228501Y239605D01*
X227105Y241001D01*
X226794Y241181D01*
X227134Y242451D01*
X233500D01*
X234475Y242645D01*
X235302Y243198D01*
X239105Y247000D01*
X239105Y247000D01*
X240895D01*
X242549Y247685D01*
X243815Y248951D01*
X244500Y250605D01*
Y252395D01*
X243815Y254049D01*
X242549Y255315D01*
X240895Y256000D01*
X239105D01*
X237451Y255315D01*
X236185Y254049D01*
X235500Y252395D01*
Y250605D01*
X235500Y250605D01*
X232444Y247549D01*
X224822D01*
X224071Y248819D01*
X224500Y249855D01*
Y251645D01*
X223972Y252920D01*
X223962Y252997D01*
X224017Y253686D01*
X224431Y254479D01*
X225384Y255116D01*
X228689Y258422D01*
X313250D01*
X313250Y258422D01*
X314811Y258732D01*
X316134Y259616D01*
X326939Y270422D01*
X417408D01*
X417660Y269152D01*
D02*
G37*
G36*
X215917Y252652D02*
X215500Y251645D01*
Y249855D01*
X215929Y248819D01*
X215178Y247549D01*
X177171D01*
X177125Y247659D01*
X175859Y248925D01*
X175312Y249152D01*
X175564Y250422D01*
X178990D01*
X178990Y250422D01*
X180550Y250732D01*
X181873Y251616D01*
X184179Y253922D01*
X207587D01*
X208605Y253500D01*
X210395D01*
X211413Y253922D01*
X215148D01*
X215917Y252652D01*
D02*
G37*
G36*
X647500Y182500D02*
X611500D01*
Y169877D01*
X610230Y169028D01*
X610000Y169124D01*
X555000D01*
X553852Y168648D01*
X553376Y167500D01*
Y145000D01*
X553500Y144702D01*
Y143500D01*
X554702D01*
X555000Y143376D01*
X610000D01*
X611148Y143852D01*
X611624Y145000D01*
Y164500D01*
X647500D01*
Y115500D01*
X611500D01*
Y97500D01*
X647500D01*
Y2500D01*
X414972D01*
X414847Y3770D01*
X415476Y3895D01*
X416302Y4448D01*
X431602Y19748D01*
X432155Y20575D01*
X432349Y21550D01*
Y45000D01*
X439300D01*
Y65000D01*
X420300D01*
Y56997D01*
X419030Y56611D01*
X418902Y56802D01*
X412056Y63649D01*
X412354Y65147D01*
X413049Y65435D01*
X414315Y66701D01*
X415000Y68355D01*
Y69424D01*
X425163Y79587D01*
X425163Y79587D01*
X425826Y80580D01*
X426059Y81750D01*
Y89352D01*
X426957Y90250D01*
X428000D01*
X428270Y90250D01*
X436000D01*
Y99750D01*
X436000D01*
X435596Y101020D01*
X436663Y102087D01*
X436663Y102087D01*
X437326Y103079D01*
X437559Y104250D01*
Y105000D01*
X438750D01*
Y108922D01*
X445000D01*
Y106500D01*
X456000D01*
Y108922D01*
X464000D01*
Y106500D01*
X475000D01*
Y108922D01*
X479311D01*
X480922Y107311D01*
Y98750D01*
X480922Y98750D01*
X481232Y97189D01*
X482116Y95866D01*
X485866Y92116D01*
X485866Y92116D01*
X487189Y91232D01*
X488750Y90922D01*
X488750Y90922D01*
X493500D01*
Y81000D01*
X506500D01*
Y109000D01*
X493500D01*
Y99078D01*
X490439D01*
X489078Y100439D01*
Y109000D01*
X488768Y110561D01*
X487884Y111884D01*
X487884Y111884D01*
X483884Y115884D01*
X482561Y116768D01*
X481000Y117078D01*
X481000Y117078D01*
X475000D01*
Y119500D01*
X464000D01*
Y117078D01*
X456000D01*
Y119500D01*
X445000D01*
Y117078D01*
X438750D01*
Y120000D01*
X435007D01*
X434672Y120866D01*
X434634Y121270D01*
X435815Y122451D01*
X435815Y122451D01*
X452000D01*
X452976Y122645D01*
X453802Y123198D01*
X471427Y140823D01*
X471869Y141484D01*
X473000Y140895D01*
Y139105D01*
X473685Y137451D01*
X474951Y136185D01*
X476605Y135500D01*
X478395D01*
X480049Y136185D01*
X481250Y137386D01*
X482451Y136185D01*
X484105Y135500D01*
X485895D01*
X487549Y136185D01*
X488815Y137451D01*
X489500Y139105D01*
Y140895D01*
X488815Y142549D01*
X487549Y143815D01*
X485895Y144500D01*
X484105D01*
X482451Y143815D01*
X481250Y142614D01*
X480114Y143750D01*
X481315Y144951D01*
X482000Y146605D01*
Y148395D01*
X481315Y150049D01*
X480114Y151250D01*
X481315Y152451D01*
X482000Y154105D01*
Y155895D01*
X481315Y157549D01*
X480049Y158815D01*
X478395Y159500D01*
X476605D01*
X474951Y158815D01*
X474156Y158020D01*
X472737Y158325D01*
X472712Y158407D01*
X485505Y171201D01*
X522750D01*
X523725Y171395D01*
X524552Y171948D01*
X529302Y176698D01*
X529855Y177525D01*
X530049Y178500D01*
Y184000D01*
X532250D01*
Y191730D01*
X532250Y192000D01*
Y193000D01*
X532250Y193270D01*
Y201000D01*
X530559D01*
Y205233D01*
X533867Y208541D01*
X538685D01*
X538847Y207933D01*
X540098Y205767D01*
X541867Y203998D01*
X544033Y202747D01*
X546449Y202100D01*
X548951D01*
X551367Y202747D01*
X553533Y203998D01*
X555302Y205767D01*
X556553Y207933D01*
X557200Y210349D01*
Y212851D01*
X556553Y215267D01*
X555302Y217433D01*
X553533Y219202D01*
X551367Y220453D01*
X548951Y221100D01*
X546449D01*
X544033Y220453D01*
X541867Y219202D01*
X540098Y217433D01*
X538847Y215267D01*
X538685Y214659D01*
X532600D01*
X531429Y214426D01*
X530437Y213763D01*
X525337Y208663D01*
X524674Y207670D01*
X524441Y206500D01*
X524441Y206500D01*
Y201000D01*
X522750D01*
Y193270D01*
X522750Y193000D01*
Y192000D01*
X522750Y191730D01*
Y184000D01*
X524951D01*
Y179556D01*
X521694Y176299D01*
X515313D01*
X514827Y177472D01*
X516802Y179448D01*
X517355Y180275D01*
X517549Y181250D01*
Y184000D01*
X519750D01*
Y191730D01*
X519750Y192000D01*
Y193000D01*
X519750Y193270D01*
Y201000D01*
X518059D01*
Y218000D01*
X517826Y219170D01*
X517163Y220163D01*
X517163Y220163D01*
X513059Y224267D01*
Y248833D01*
X518088Y253862D01*
X518633Y253547D01*
X521049Y252900D01*
X523551D01*
X525967Y253547D01*
X528133Y254798D01*
X529902Y256567D01*
X531153Y258733D01*
X531800Y261149D01*
Y263651D01*
X531153Y266067D01*
X529902Y268233D01*
X528133Y270002D01*
X525967Y271253D01*
X523551Y271900D01*
X521049D01*
X518633Y271253D01*
X516467Y270002D01*
X514698Y268233D01*
X513447Y266067D01*
X512800Y263651D01*
Y261149D01*
X513447Y258733D01*
X513762Y258188D01*
X507837Y252263D01*
X507174Y251271D01*
X506941Y250100D01*
X506941Y250100D01*
Y223000D01*
X506941Y223000D01*
X507174Y221829D01*
X507837Y220837D01*
X511941Y216733D01*
Y201000D01*
X510250D01*
Y193270D01*
X510250Y193000D01*
Y192000D01*
X510250Y191730D01*
Y184000D01*
X512451D01*
Y182306D01*
X510194Y180049D01*
X484250D01*
Y192250D01*
X484250Y192250D01*
X484250D01*
X484685Y193360D01*
X487913Y196587D01*
X487913Y196587D01*
X488576Y197579D01*
X488809Y198750D01*
X488809Y198750D01*
Y235244D01*
X490079Y235411D01*
X490377Y234298D01*
X491299Y232702D01*
X492602Y231399D01*
X494198Y230477D01*
X495978Y230000D01*
X497822D01*
X499602Y230477D01*
X501198Y231399D01*
X502501Y232702D01*
X503423Y234298D01*
X503900Y236078D01*
Y237922D01*
X503423Y239702D01*
X502501Y241298D01*
X501198Y242601D01*
X499602Y243523D01*
X497822Y244000D01*
X495978D01*
X494198Y243523D01*
X492602Y242601D01*
X491299Y241298D01*
X490377Y239702D01*
X490079Y238589D01*
X488809Y238756D01*
Y241250D01*
X488576Y242421D01*
X487913Y243413D01*
X487913Y243413D01*
X478163Y253163D01*
X477170Y253826D01*
X476000Y254059D01*
X476000Y254059D01*
X443305D01*
X442549Y254815D01*
X440895Y255500D01*
X439105D01*
X437451Y254815D01*
X436185Y253549D01*
X435500Y251895D01*
Y250105D01*
X436185Y248451D01*
X437451Y247185D01*
X439105Y246500D01*
X440895D01*
X442549Y247185D01*
X443305Y247941D01*
X474733D01*
X482691Y239983D01*
Y220387D01*
X482368Y220159D01*
X481421Y219904D01*
X474163Y227163D01*
X473171Y227826D01*
X472000Y228059D01*
X472000Y228059D01*
X451250D01*
Y232500D01*
X442750D01*
Y217624D01*
X414078D01*
Y228811D01*
X432384Y247116D01*
X432384Y247116D01*
X433268Y248439D01*
X433578Y250000D01*
X433578Y250000D01*
Y256337D01*
X434000Y257355D01*
Y259145D01*
X433578Y260163D01*
Y269500D01*
X433268Y271061D01*
X432384Y272384D01*
X432384Y272384D01*
X428538Y276230D01*
X429064Y277500D01*
X598829D01*
X599222Y276292D01*
X597736Y275213D01*
X594787Y272264D01*
X592335Y268889D01*
X590442Y265173D01*
X589152Y261205D01*
X588500Y257086D01*
Y252914D01*
X589152Y248795D01*
X590442Y244827D01*
X592335Y241111D01*
X594787Y237736D01*
X597736Y234787D01*
X601111Y232335D01*
X604827Y230441D01*
X608795Y229153D01*
X612914Y228500D01*
X617086D01*
X621205Y229153D01*
X625173Y230441D01*
X628889Y232335D01*
X632264Y234787D01*
X635213Y237736D01*
X637665Y241111D01*
X639558Y244827D01*
X640847Y248795D01*
X641500Y252914D01*
Y257086D01*
X640847Y261205D01*
X639558Y265173D01*
X637665Y268889D01*
X635213Y272264D01*
X632264Y275213D01*
X630778Y276292D01*
X631171Y277500D01*
X647500D01*
Y182500D01*
D02*
G37*
G36*
X466000Y196000D02*
X417500D01*
Y200000D01*
X402750D01*
Y216000D01*
X466000D01*
Y196000D01*
D02*
G37*
G36*
X433420Y193106D02*
X433376Y193000D01*
Y183750D01*
Y178624D01*
X417000D01*
X415852Y178148D01*
X415376Y177000D01*
Y154051D01*
X414203Y153565D01*
X391884Y175884D01*
X390561Y176768D01*
X389000Y177078D01*
X389000Y177078D01*
X380439D01*
X372328Y185189D01*
Y191422D01*
X383659D01*
X384500Y190500D01*
Y178500D01*
X395500D01*
Y181581D01*
X395967Y181674D01*
X396959Y182337D01*
X401560Y186938D01*
X402830Y186412D01*
Y185555D01*
X403744Y183349D01*
X405431Y181661D01*
X407637Y180748D01*
X410023D01*
X412229Y181661D01*
X413917Y183349D01*
X414830Y185555D01*
Y187941D01*
X413986Y189980D01*
X414473Y191250D01*
X417500D01*
Y194376D01*
X417500Y194376D01*
X432572D01*
X433420Y193106D01*
D02*
G37*
G36*
X364172Y183500D02*
X364172Y183500D01*
X364482Y181939D01*
X365366Y180616D01*
X375866Y170116D01*
X375866Y170116D01*
X377189Y169232D01*
X378750Y168922D01*
X378750Y168922D01*
X387311D01*
X406010Y150222D01*
X405524Y149049D01*
X387209D01*
X386683Y150319D01*
X387065Y150701D01*
X387750Y152355D01*
Y154145D01*
X387065Y155799D01*
X385799Y157065D01*
X384145Y157750D01*
X382355D01*
X380701Y157065D01*
X379435Y155799D01*
X378750Y154145D01*
Y152415D01*
X378583Y152263D01*
X377631Y151737D01*
X375799Y153570D01*
Y166250D01*
X375605Y167225D01*
X375052Y168052D01*
X366802Y176302D01*
X365975Y176855D01*
X365000Y177049D01*
X326418D01*
X326165Y178319D01*
X327049Y178685D01*
X328315Y179951D01*
X328736Y180969D01*
X339189Y191422D01*
X340859D01*
X341345Y190248D01*
X341244Y190147D01*
X340330Y187941D01*
Y185555D01*
X341244Y183349D01*
X342931Y181661D01*
X345137Y180748D01*
X347523D01*
X349729Y181661D01*
X351417Y183349D01*
X352330Y185555D01*
Y187941D01*
X351417Y190147D01*
X351315Y190248D01*
X351801Y191422D01*
X364172D01*
Y183500D01*
D02*
G37*
G36*
X476154Y216520D02*
X475748Y215250D01*
X474750D01*
Y202750D01*
X482691D01*
Y200017D01*
X477337Y194663D01*
X476674Y193671D01*
X476441Y192500D01*
X475197Y192250D01*
X474750D01*
Y179750D01*
X480099D01*
X480625Y178480D01*
X465873Y163728D01*
X464700Y164214D01*
Y171376D01*
X465000D01*
X466148Y171852D01*
X466624Y173000D01*
Y193000D01*
X466148Y194148D01*
X467117Y194839D01*
X467148Y194852D01*
X467624Y196000D01*
Y216000D01*
X467148Y217148D01*
X466000Y217624D01*
X451250D01*
Y221941D01*
X470733D01*
X476154Y216520D01*
D02*
G37*
G36*
X309451Y163345D02*
Y154263D01*
X309645Y153287D01*
X310198Y152460D01*
X315961Y146698D01*
X316787Y146145D01*
X317763Y145951D01*
X320480D01*
X321250Y145000D01*
Y130410D01*
X320062Y129802D01*
X319799Y130065D01*
X318145Y130750D01*
X316355D01*
X314701Y130065D01*
X313435Y128799D01*
X312750Y127145D01*
Y125355D01*
X313435Y123701D01*
X314701Y122435D01*
X316355Y121750D01*
X318145D01*
X319799Y122435D01*
X319980Y122616D01*
X321250Y122090D01*
Y120049D01*
X321000D01*
X320025Y119855D01*
X319198Y119302D01*
X318145Y118250D01*
X318145Y118250D01*
X316355D01*
X314701Y117565D01*
X313435Y116299D01*
X312750Y114645D01*
Y112855D01*
X312827Y112669D01*
X312049Y111229D01*
X311717Y111166D01*
X300299Y122584D01*
Y140472D01*
X300105Y141447D01*
X299552Y142274D01*
X288779Y153048D01*
Y158698D01*
X290049Y159438D01*
X291105Y159000D01*
X292895D01*
X294549Y159685D01*
X295815Y160951D01*
X296500Y162605D01*
Y164395D01*
X295815Y166049D01*
X294549Y167315D01*
X292895Y168000D01*
X291105D01*
X290049Y167563D01*
X288779Y168302D01*
Y182358D01*
X289952Y182844D01*
X309451Y163345D01*
D02*
G37*
G36*
X465000Y173000D02*
X445000D01*
Y150000D01*
X417768D01*
X417000Y150768D01*
Y177000D01*
X435000D01*
Y183750D01*
Y192250D01*
Y193000D01*
X465000D01*
Y173000D01*
D02*
G37*
G36*
X463576Y146431D02*
X453944Y136799D01*
X417299D01*
Y138967D01*
X417453Y139378D01*
X418410Y140172D01*
X449750D01*
X449750Y140172D01*
X451311Y140482D01*
X452634Y141366D01*
X458084Y146816D01*
X458084Y146816D01*
X458968Y148139D01*
X459278Y149700D01*
X459278Y149700D01*
Y152500D01*
X463576D01*
Y146431D01*
D02*
G37*
G36*
X377461Y144698D02*
X378288Y144145D01*
X379264Y143951D01*
X383750D01*
Y131160D01*
X383436Y130881D01*
X382480Y130447D01*
X381145Y131000D01*
X379355D01*
X377701Y130315D01*
X376435Y129049D01*
X375750Y127395D01*
Y125605D01*
X376435Y123951D01*
X377701Y122685D01*
X379355Y122000D01*
X381145D01*
X382480Y122553D01*
X383750Y121977D01*
Y120049D01*
X382775Y119855D01*
X381948Y119302D01*
X380895Y118250D01*
X380895Y118250D01*
X379105D01*
X377451Y117565D01*
X376185Y116299D01*
X375500Y114645D01*
Y112855D01*
X376136Y111319D01*
X375678Y110049D01*
X373556D01*
X372299Y111306D01*
Y148201D01*
X373472Y148687D01*
X377461Y144698D01*
D02*
G37*
G36*
X453826Y130431D02*
X450944Y127549D01*
X435815D01*
X435815Y127549D01*
X434549Y128815D01*
X432895Y129500D01*
X431105D01*
X429451Y128815D01*
X428185Y127549D01*
X427500Y125895D01*
Y124105D01*
X428185Y122451D01*
X429451Y121185D01*
X429748Y121062D01*
X430250Y120000D01*
X430250Y119480D01*
Y105000D01*
X430250Y105000D01*
X429831Y103904D01*
X429174Y102921D01*
X428941Y101750D01*
X428941Y101750D01*
Y100648D01*
X428043Y99750D01*
X427000D01*
X426730Y99750D01*
X419000D01*
Y90250D01*
X419941D01*
Y83017D01*
X418525Y81601D01*
X418405Y81615D01*
X417299Y82171D01*
Y105000D01*
X419000D01*
Y112500D01*
Y120000D01*
X417299D01*
Y131701D01*
X453300D01*
X453826Y130431D01*
D02*
G37*
G36*
X412201Y138194D02*
Y134250D01*
Y101209D01*
X410931Y100683D01*
X410549Y101065D01*
X408895Y101750D01*
X407105D01*
X406250Y102321D01*
Y105000D01*
X404549D01*
X404355Y105976D01*
X403802Y106802D01*
X401875Y108730D01*
X402401Y110000D01*
X406250D01*
Y123636D01*
X407065Y124451D01*
X407750Y126105D01*
Y127895D01*
X407065Y129549D01*
X406250Y130364D01*
Y142349D01*
X407520Y142875D01*
X412201Y138194D01*
D02*
G37*
G36*
X370698Y105698D02*
X371525Y105145D01*
X372500Y104951D01*
X375428D01*
X375886Y103681D01*
X375250Y102145D01*
Y100355D01*
X375935Y98701D01*
X377201Y97435D01*
X378855Y96750D01*
X380645D01*
X380645Y96750D01*
X381698Y95698D01*
X382525Y95145D01*
X383500Y94951D01*
X383750D01*
Y92773D01*
X382577Y92287D01*
X382549Y92315D01*
X380895Y93000D01*
X379105D01*
X377451Y92315D01*
X376185Y91049D01*
X375500Y89395D01*
Y87605D01*
X376185Y85951D01*
X377451Y84685D01*
X379105Y84000D01*
X380895D01*
X382549Y84685D01*
X383750Y84090D01*
Y70299D01*
X376056D01*
X368799Y77556D01*
Y105937D01*
X369972Y106423D01*
X370698Y105698D01*
D02*
G37*
G36*
X397750Y90000D02*
X406250D01*
Y92179D01*
X407105Y92750D01*
X408895D01*
X410549Y93435D01*
X410931Y93817D01*
X412201Y93291D01*
Y82806D01*
X409444Y80049D01*
X406250D01*
Y85000D01*
X397750D01*
Y70299D01*
X392250D01*
Y85000D01*
X390549D01*
Y85250D01*
X390355Y86226D01*
X389802Y87052D01*
X388028Y88827D01*
X388514Y90000D01*
X392250D01*
Y104951D01*
X397750D01*
Y90000D01*
D02*
G37*
G36*
X97500Y53750D02*
X103928D01*
X104256Y53210D01*
X104404Y52480D01*
X99087Y47163D01*
X98424Y46171D01*
X98191Y45000D01*
X98191Y45000D01*
Y42767D01*
X96483Y41059D01*
X93000D01*
Y44500D01*
X82122D01*
X81310Y45484D01*
X90767Y54941D01*
X97500D01*
Y53750D01*
D02*
G37*
G36*
X113837Y47337D02*
X113837Y47337D01*
X114830Y46674D01*
X116000Y46441D01*
X116000Y46441D01*
X116852D01*
X117750Y45543D01*
Y44500D01*
X117750Y44230D01*
Y36500D01*
X116584Y36250D01*
X115000D01*
Y35059D01*
X110750D01*
X109579Y34826D01*
X108587Y34163D01*
X108587Y34163D01*
X106337Y31913D01*
X105674Y30921D01*
X105441Y29750D01*
X105441Y29750D01*
Y9517D01*
X103673Y7749D01*
X102500Y8235D01*
Y18500D01*
X101410D01*
X100815Y19701D01*
X101500Y21355D01*
Y23145D01*
X100815Y24799D01*
X99549Y26065D01*
X97895Y26750D01*
X96105D01*
X94451Y26065D01*
X93695Y25309D01*
X87017D01*
X82096Y30230D01*
X82622Y31500D01*
X93000D01*
Y34941D01*
X97750D01*
X97750Y34941D01*
X98920Y35174D01*
X99913Y35837D01*
X103413Y39337D01*
X103413Y39337D01*
X104076Y40329D01*
X104309Y41500D01*
X104309Y41500D01*
Y43733D01*
X108017Y47441D01*
X113733D01*
X113837Y47337D01*
D02*
G37*
G36*
X397750Y44167D02*
Y30000D01*
X406250D01*
Y34951D01*
X410000D01*
X410975Y35145D01*
X411802Y35698D01*
X418902Y42798D01*
X419455Y43625D01*
X419539Y44045D01*
X420300Y45000D01*
X427251D01*
Y22606D01*
X413444Y8799D01*
X378917D01*
X378750Y10000D01*
X378750D01*
Y14951D01*
X379750D01*
X380726Y15145D01*
X381552Y15698D01*
X389802Y23948D01*
X390355Y24774D01*
X390549Y25750D01*
Y30000D01*
X392250D01*
Y45000D01*
X393437Y45201D01*
X396500D01*
X396569Y45215D01*
X397750Y44167D01*
D02*
G37*
G36*
X58250Y41203D02*
Y40855D01*
X58935Y39201D01*
X60201Y37935D01*
X61855Y37250D01*
X63645D01*
X65299Y37935D01*
X65671Y38307D01*
X66941Y37781D01*
Y26017D01*
X64837Y23913D01*
X64174Y22920D01*
X63941Y21750D01*
X63941Y21750D01*
Y9758D01*
X63941Y9757D01*
X64174Y8587D01*
X64837Y7595D01*
X68758Y3673D01*
X68272Y2500D01*
X51171D01*
X50778Y3708D01*
X52264Y4787D01*
X55213Y7736D01*
X57665Y11111D01*
X59559Y14828D01*
X60848Y18795D01*
X61500Y22914D01*
Y27086D01*
X60848Y31205D01*
X59559Y35173D01*
X57665Y38889D01*
X55213Y42264D01*
X52264Y45213D01*
X50002Y46856D01*
X50363Y48164D01*
X51184Y48269D01*
X58250Y41203D01*
D02*
G37*
%LPC*%
G36*
X57550Y260008D02*
X47050D01*
X45288Y259776D01*
X43646Y259096D01*
X42236Y258014D01*
X41154Y256604D01*
X40474Y254962D01*
X40242Y253200D01*
X40474Y251438D01*
X41154Y249796D01*
X42236Y248386D01*
X43646Y247304D01*
X45288Y246624D01*
X47050Y246392D01*
X57550D01*
X59312Y246624D01*
X60954Y247304D01*
X62364Y248386D01*
X63446Y249796D01*
X64126Y251438D01*
X64358Y253200D01*
X64126Y254962D01*
X63446Y256604D01*
X62364Y258014D01*
X60954Y259096D01*
X59312Y259776D01*
X57550Y260008D01*
D02*
G37*
G36*
X108002Y265000D02*
X82002D01*
Y244999D01*
X108002D01*
Y265000D01*
D02*
G37*
G36*
X119750Y245000D02*
X117000D01*
Y239000D01*
X119750D01*
Y245000D01*
D02*
G37*
G36*
X114000D02*
X111250D01*
Y239000D01*
X114000D01*
Y245000D01*
D02*
G37*
G36*
X48245Y243650D02*
X46355D01*
X44609Y242927D01*
X43273Y241591D01*
X42550Y239845D01*
Y237955D01*
X43273Y236209D01*
X44609Y234873D01*
X46355Y234150D01*
X48245D01*
X49991Y234873D01*
X51327Y236209D01*
X52050Y237955D01*
Y239845D01*
X51327Y241591D01*
X49991Y242927D01*
X48245Y243650D01*
D02*
G37*
G36*
X87500Y234250D02*
X84000D01*
Y230250D01*
X87500D01*
Y234250D01*
D02*
G37*
G36*
X81000D02*
X77500D01*
Y230250D01*
X81000D01*
Y234250D01*
D02*
G37*
G36*
X68895Y238500D02*
X67105D01*
X65451Y237815D01*
X64185Y236549D01*
X63500Y234895D01*
Y233105D01*
X64185Y231451D01*
X65451Y230185D01*
X67105Y229500D01*
X68895D01*
X70549Y230185D01*
X71815Y231451D01*
X72500Y233105D01*
Y234895D01*
X71815Y236549D01*
X70549Y237815D01*
X68895Y238500D01*
D02*
G37*
G36*
X115500Y237500D02*
D01*
Y236000D01*
X111250D01*
Y231063D01*
X110750Y230000D01*
X110750Y228937D01*
Y226500D01*
X121750D01*
Y230000D01*
X121020D01*
X119750Y230000D01*
X119750Y231270D01*
Y236000D01*
X115500D01*
Y237500D01*
D02*
G37*
G36*
X87500Y189750D02*
X84000D01*
Y185750D01*
X87500D01*
Y189750D01*
D02*
G37*
G36*
X81000D02*
X77500D01*
Y185750D01*
X81000D01*
Y189750D01*
D02*
G37*
G36*
X68895Y190500D02*
X67105D01*
X65451Y189815D01*
X64185Y188549D01*
X63500Y186895D01*
Y185105D01*
X64185Y183451D01*
X65451Y182185D01*
X67105Y181500D01*
X68895D01*
X70549Y182185D01*
X71815Y183451D01*
X72500Y185105D01*
Y186895D01*
X71815Y188549D01*
X70549Y189815D01*
X68895Y190500D01*
D02*
G37*
G36*
X48245Y185850D02*
X46355D01*
X44609Y185127D01*
X43273Y183791D01*
X42550Y182045D01*
Y180155D01*
X43273Y178409D01*
X44609Y177073D01*
X46355Y176350D01*
X48245D01*
X49991Y177073D01*
X51327Y178409D01*
X52050Y180155D01*
Y182045D01*
X51327Y183791D01*
X49991Y185127D01*
X48245Y185850D01*
D02*
G37*
G36*
X57550Y173608D02*
X47050D01*
X45288Y173376D01*
X43646Y172696D01*
X42236Y171614D01*
X41154Y170204D01*
X40474Y168562D01*
X40242Y166800D01*
X40474Y165038D01*
X41154Y163396D01*
X42236Y161986D01*
X43646Y160904D01*
X45288Y160224D01*
X47050Y159992D01*
X57550D01*
X59312Y160224D01*
X60954Y160904D01*
X62364Y161986D01*
X63446Y163396D01*
X64126Y165038D01*
X64358Y166800D01*
X64126Y168562D01*
X63446Y170204D01*
X62364Y171614D01*
X60954Y172696D01*
X59312Y173376D01*
X57550Y173608D01*
D02*
G37*
G36*
X145987Y172500D02*
X144013D01*
X142105Y171989D01*
X140395Y171001D01*
X138998Y169605D01*
X138011Y167895D01*
X137500Y165987D01*
Y164013D01*
X138011Y162105D01*
X138282Y161637D01*
X134645Y158000D01*
X133105D01*
X131451Y157315D01*
X130185Y156049D01*
X129500Y154395D01*
Y152605D01*
X130185Y150951D01*
X131451Y149685D01*
X133105Y149000D01*
X134895D01*
X136549Y149685D01*
X136935Y150071D01*
X138011Y149395D01*
X137628Y147967D01*
X136918D01*
X135942Y147773D01*
X135115Y147220D01*
X134895Y147000D01*
X134895Y147000D01*
X133105D01*
X131451Y146315D01*
X130185Y145049D01*
X129500Y143395D01*
Y141605D01*
X130185Y139951D01*
X131451Y138685D01*
X133105Y138000D01*
X134895D01*
X136549Y138685D01*
X137815Y139951D01*
X138205Y140892D01*
X139673Y141220D01*
X140395Y140499D01*
X142105Y139511D01*
X144013Y139000D01*
X145987D01*
X147895Y139511D01*
X149605Y140499D01*
X151002Y141895D01*
X151989Y143605D01*
X152500Y145513D01*
Y147487D01*
X151989Y149395D01*
X151002Y151105D01*
X149605Y152501D01*
X147895Y153489D01*
X145987Y154000D01*
X144013D01*
X142105Y153489D01*
X140395Y152501D01*
X139434Y151540D01*
X138357Y152260D01*
X138500Y152605D01*
Y154395D01*
X138427Y154572D01*
X141953Y158099D01*
X142105Y158011D01*
X144013Y157500D01*
X145987D01*
X147895Y158011D01*
X149605Y158998D01*
X151002Y160395D01*
X151989Y162105D01*
X152500Y164013D01*
Y165987D01*
X151989Y167895D01*
X151002Y169605D01*
X149605Y171001D01*
X147895Y171989D01*
X145987Y172500D01*
D02*
G37*
G36*
X68750Y155000D02*
X60250D01*
Y152685D01*
X59194Y151980D01*
X59145Y152000D01*
X57355D01*
X56020Y151447D01*
X54750Y152023D01*
Y155000D01*
X52000D01*
Y147500D01*
Y140000D01*
X54750D01*
Y142977D01*
X56020Y143553D01*
X57355Y143000D01*
X59145D01*
X59194Y143020D01*
X60250Y142315D01*
Y140000D01*
X68750D01*
Y155000D01*
D02*
G37*
G36*
X49000D02*
X46250D01*
Y149000D01*
X49000D01*
Y155000D01*
D02*
G37*
G36*
Y146000D02*
X46250D01*
Y140000D01*
X49000D01*
Y146000D01*
D02*
G37*
G36*
X262500Y139750D02*
X256500D01*
Y137000D01*
X262500D01*
Y139750D01*
D02*
G37*
G36*
X245000D02*
X239000D01*
Y137000D01*
X245000D01*
Y139750D01*
D02*
G37*
G36*
X253500D02*
X247500D01*
Y137000D01*
X253500D01*
Y139750D01*
D02*
G37*
G36*
X236000D02*
X230000D01*
Y137000D01*
X236000D01*
Y139750D01*
D02*
G37*
G36*
X262500Y134000D02*
X256500D01*
Y131250D01*
X262500D01*
Y134000D01*
D02*
G37*
G36*
X253500D02*
X247500D01*
Y131250D01*
X253500D01*
Y134000D01*
D02*
G37*
G36*
X245000D02*
X239000D01*
Y131250D01*
X245000D01*
Y134000D01*
D02*
G37*
G36*
X236000D02*
X230000D01*
Y131250D01*
X236000D01*
Y134000D01*
D02*
G37*
G36*
X135145Y136000D02*
X133355D01*
X131701Y135315D01*
X130435Y134049D01*
X129750Y132395D01*
Y130605D01*
X130435Y128951D01*
X131701Y127685D01*
X133355Y127000D01*
X135145D01*
X135209Y127027D01*
X135337Y126899D01*
X135337Y126899D01*
X136329Y126236D01*
X137500Y126003D01*
X137636D01*
X137955Y124815D01*
X137632Y123610D01*
X137632Y123610D01*
X137632D01*
X137277Y123337D01*
X137240Y123374D01*
X136299Y124315D01*
X134645Y125000D01*
X132855D01*
X131201Y124315D01*
X129935Y123049D01*
X129250Y121395D01*
Y119605D01*
X129935Y117951D01*
X131201Y116685D01*
X132855Y116000D01*
X134645D01*
X134910Y116110D01*
X138053Y112967D01*
X138011Y112895D01*
X137500Y110987D01*
Y109013D01*
X138011Y107105D01*
X138998Y105395D01*
X140395Y103998D01*
X142105Y103011D01*
X144013Y102500D01*
X145987D01*
X147895Y103011D01*
X149605Y103998D01*
X151002Y105395D01*
X151989Y107105D01*
X152500Y109013D01*
Y110987D01*
X151989Y112895D01*
X151002Y114605D01*
X149605Y116002D01*
X147895Y116989D01*
X145987Y117500D01*
X144013D01*
X142105Y116989D01*
X141557Y116673D01*
X138250Y119980D01*
Y121395D01*
X137881Y122285D01*
X137874Y122302D01*
X138319Y122537D01*
X138319D01*
X138320Y122537D01*
X139545Y122348D01*
X140395Y121498D01*
X142105Y120511D01*
X144013Y120000D01*
X145987D01*
X147895Y120511D01*
X149605Y121498D01*
X151002Y122895D01*
X151989Y124605D01*
X152500Y126513D01*
Y128487D01*
X151989Y130395D01*
X151002Y132105D01*
X149605Y133502D01*
X147895Y134489D01*
X145987Y135000D01*
X144013D01*
X142105Y134489D01*
X140395Y133502D01*
X139880Y132986D01*
X138382Y133284D01*
X138065Y134049D01*
X136799Y135315D01*
X135145Y136000D01*
D02*
G37*
G36*
X257250Y123500D02*
X254000D01*
Y121000D01*
X257250D01*
Y123500D01*
D02*
G37*
G36*
X251000D02*
X247750D01*
Y121000D01*
X251000D01*
Y123500D01*
D02*
G37*
G36*
X257250Y118000D02*
X252500D01*
X247750D01*
Y115770D01*
X247750Y115500D01*
Y114500D01*
X247750Y114230D01*
Y106500D01*
X248422D01*
Y103750D01*
X245000D01*
Y95250D01*
X258636D01*
X258951Y94935D01*
X260605Y94250D01*
X262395D01*
X264049Y94935D01*
X265315Y96201D01*
X266000Y97855D01*
Y99645D01*
X265315Y101299D01*
X264049Y102565D01*
X262395Y103250D01*
X262067D01*
X262040Y103268D01*
X260974Y103480D01*
X260468Y103597D01*
X260390Y103732D01*
X261106Y105000D01*
X261645D01*
X263299Y105685D01*
X264565Y106951D01*
X265250Y108605D01*
Y110395D01*
X264565Y112049D01*
X263299Y113315D01*
X261645Y114000D01*
X259855D01*
X258520Y113447D01*
X257250Y114023D01*
X257250Y114500D01*
Y115500D01*
X257250Y115770D01*
Y118000D01*
D02*
G37*
G36*
X260000Y89750D02*
X254000D01*
Y87000D01*
X260000D01*
Y89750D01*
D02*
G37*
G36*
X251000D02*
X245000D01*
Y87000D01*
X251000D01*
Y89750D01*
D02*
G37*
G36*
X260000Y84000D02*
X254000D01*
Y81250D01*
X260000D01*
Y84000D01*
D02*
G37*
G36*
X251000D02*
X245000D01*
Y81250D01*
X251000D01*
Y84000D01*
D02*
G37*
G36*
X130500Y76750D02*
X124500D01*
Y74000D01*
X130500D01*
Y76750D01*
D02*
G37*
G36*
X121500D02*
X115500D01*
Y74000D01*
X121500D01*
Y76750D01*
D02*
G37*
G36*
X112500Y76250D02*
X106500D01*
Y73500D01*
X112500D01*
Y76250D01*
D02*
G37*
G36*
X77500D02*
X71500D01*
Y73500D01*
X77500D01*
Y76250D01*
D02*
G37*
G36*
X103500D02*
X97500D01*
Y73500D01*
X103500D01*
Y76250D01*
D02*
G37*
G36*
X68500D02*
X62500D01*
Y73500D01*
X68500D01*
Y76250D01*
D02*
G37*
G36*
X130500Y71000D02*
X124500D01*
Y68250D01*
X130500D01*
Y71000D01*
D02*
G37*
G36*
X121500D02*
X115500D01*
Y68250D01*
X121500D01*
Y71000D01*
D02*
G37*
G36*
X112500Y70500D02*
X106500D01*
Y67750D01*
X112500D01*
Y70500D01*
D02*
G37*
G36*
X103500D02*
X97500D01*
Y67750D01*
X103500D01*
Y70500D01*
D02*
G37*
G36*
X77500D02*
X71500D01*
Y67750D01*
X77500D01*
Y70500D01*
D02*
G37*
G36*
X130000Y22250D02*
X115000D01*
Y13750D01*
X117083D01*
X118000Y12645D01*
Y10855D01*
X118685Y9201D01*
X119951Y7935D01*
X121605Y7250D01*
X123395D01*
X125049Y7935D01*
X126315Y9201D01*
X127000Y10855D01*
Y12645D01*
X127917Y13750D01*
X130000D01*
Y22250D01*
D02*
G37*
G36*
X380895Y255500D02*
X379105D01*
X377451Y254815D01*
X376185Y253549D01*
X375500Y251895D01*
Y250105D01*
X376185Y248451D01*
X377451Y247185D01*
X379105Y246500D01*
X380895D01*
X382549Y247185D01*
X383815Y248451D01*
X384500Y250105D01*
Y251895D01*
X383815Y253549D01*
X382549Y254815D01*
X380895Y255500D01*
D02*
G37*
G36*
X354800Y235082D02*
X352320Y234755D01*
X350009Y233798D01*
X348025Y232276D01*
X346502Y230291D01*
X345545Y227980D01*
X345218Y225500D01*
Y224500D01*
X345545Y222020D01*
X346502Y219709D01*
X348025Y217725D01*
X350009Y216202D01*
X352320Y215245D01*
X354800Y214918D01*
X357280Y215245D01*
X359591Y216202D01*
X361576Y217725D01*
X363098Y219709D01*
X364055Y222020D01*
X364382Y224500D01*
Y225500D01*
X364055Y227980D01*
X363098Y230291D01*
X361576Y232276D01*
X359591Y233798D01*
X357280Y234755D01*
X354800Y235082D01*
D02*
G37*
G36*
X294800D02*
X292320Y234755D01*
X290009Y233798D01*
X288025Y232276D01*
X286502Y230291D01*
X285544Y227980D01*
X285218Y225500D01*
Y224500D01*
X285544Y222020D01*
X286502Y219709D01*
X288025Y217725D01*
X290009Y216202D01*
X292320Y215245D01*
X294800Y214918D01*
X297280Y215245D01*
X299591Y216202D01*
X301575Y217725D01*
X303098Y219709D01*
X304055Y222020D01*
X304382Y224500D01*
Y225500D01*
X304055Y227980D01*
X303098Y230291D01*
X301575Y232276D01*
X299591Y233798D01*
X297280Y234755D01*
X294800Y235082D01*
D02*
G37*
G36*
X574022Y244000D02*
X572178D01*
X570398Y243523D01*
X568802Y242601D01*
X567499Y241298D01*
X566577Y239702D01*
X566100Y237922D01*
Y236078D01*
X566577Y234298D01*
X567499Y232702D01*
X568802Y231399D01*
X570398Y230477D01*
X572178Y230000D01*
X574022D01*
X575802Y230477D01*
X577398Y231399D01*
X578701Y232702D01*
X579623Y234298D01*
X580100Y236078D01*
Y237922D01*
X579623Y239702D01*
X578701Y241298D01*
X577398Y242601D01*
X575802Y243523D01*
X574022Y244000D01*
D02*
G37*
G36*
X548622D02*
X546778D01*
X544998Y243523D01*
X543402Y242601D01*
X542099Y241298D01*
X541177Y239702D01*
X540700Y237922D01*
Y236078D01*
X541177Y234298D01*
X542099Y232702D01*
X543402Y231399D01*
X544998Y230477D01*
X546778Y230000D01*
X548622D01*
X550402Y230477D01*
X551998Y231399D01*
X553301Y232702D01*
X554223Y234298D01*
X554700Y236078D01*
Y237922D01*
X554223Y239702D01*
X553301Y241298D01*
X551998Y242601D01*
X550402Y243523D01*
X548622Y244000D01*
D02*
G37*
G36*
X523222D02*
X521378D01*
X519598Y243523D01*
X518002Y242601D01*
X516699Y241298D01*
X515777Y239702D01*
X515300Y237922D01*
Y236078D01*
X515777Y234298D01*
X516699Y232702D01*
X518002Y231399D01*
X519598Y230477D01*
X521378Y230000D01*
X523222D01*
X525002Y230477D01*
X526598Y231399D01*
X527901Y232702D01*
X528823Y234298D01*
X529300Y236078D01*
Y237922D01*
X528823Y239702D01*
X527901Y241298D01*
X526598Y242601D01*
X525002Y243523D01*
X523222Y244000D01*
D02*
G37*
G36*
X472422D02*
X470578D01*
X468798Y243523D01*
X467202Y242601D01*
X465899Y241298D01*
X464977Y239702D01*
X464500Y237922D01*
Y236078D01*
X464977Y234298D01*
X465899Y232702D01*
X467202Y231399D01*
X468798Y230477D01*
X470578Y230000D01*
X472422D01*
X474202Y230477D01*
X475798Y231399D01*
X477101Y232702D01*
X478023Y234298D01*
X478500Y236078D01*
Y237922D01*
X478023Y239702D01*
X477101Y241298D01*
X475798Y242601D01*
X474202Y243523D01*
X472422Y244000D01*
D02*
G37*
G36*
X465500Y93500D02*
X454500D01*
Y80500D01*
X465500D01*
Y83941D01*
X466945D01*
X467701Y83185D01*
X469355Y82500D01*
X471145D01*
X472799Y83185D01*
X474065Y84451D01*
X474750Y86105D01*
Y87895D01*
X474065Y89549D01*
X472799Y90815D01*
X471145Y91500D01*
X469355D01*
X467701Y90815D01*
X466945Y90059D01*
X465500D01*
Y93500D01*
D02*
G37*
G36*
X455200Y65082D02*
X452720Y64755D01*
X450409Y63798D01*
X448425Y62275D01*
X446902Y60291D01*
X445945Y57980D01*
X445618Y55500D01*
Y54500D01*
X445945Y52020D01*
X446902Y49709D01*
X448425Y47724D01*
X450409Y46202D01*
X452720Y45244D01*
X455200Y44918D01*
X457680Y45244D01*
X459991Y46202D01*
X461976Y47724D01*
X463498Y49709D01*
X464455Y52020D01*
X464782Y54500D01*
Y55500D01*
X464455Y57980D01*
X463498Y60291D01*
X461976Y62275D01*
X459991Y63798D01*
X457680Y64755D01*
X455200Y65082D01*
D02*
G37*
G36*
X599422Y50000D02*
X597578D01*
X595798Y49523D01*
X594202Y48601D01*
X592899Y47298D01*
X591977Y45702D01*
X591500Y43922D01*
Y42078D01*
X591977Y40298D01*
X592899Y38702D01*
X594202Y37399D01*
X595798Y36477D01*
X597578Y36000D01*
X599422D01*
X601202Y36477D01*
X602798Y37399D01*
X604101Y38702D01*
X605023Y40298D01*
X605500Y42078D01*
Y43922D01*
X605023Y45702D01*
X604101Y47298D01*
X602798Y48601D01*
X601202Y49523D01*
X599422Y50000D01*
D02*
G37*
G36*
X574022D02*
X572178D01*
X570398Y49523D01*
X568802Y48601D01*
X567499Y47298D01*
X566577Y45702D01*
X566100Y43922D01*
Y42078D01*
X566577Y40298D01*
X567499Y38702D01*
X568802Y37399D01*
X570398Y36477D01*
X572178Y36000D01*
X574022D01*
X575802Y36477D01*
X577398Y37399D01*
X578701Y38702D01*
X579623Y40298D01*
X580100Y42078D01*
Y43922D01*
X579623Y45702D01*
X578701Y47298D01*
X577398Y48601D01*
X575802Y49523D01*
X574022Y50000D01*
D02*
G37*
G36*
X548622D02*
X546778D01*
X544998Y49523D01*
X543402Y48601D01*
X542099Y47298D01*
X541177Y45702D01*
X540700Y43922D01*
Y42078D01*
X541177Y40298D01*
X542099Y38702D01*
X543402Y37399D01*
X544998Y36477D01*
X546778Y36000D01*
X548622D01*
X550402Y36477D01*
X551998Y37399D01*
X553301Y38702D01*
X554223Y40298D01*
X554700Y42078D01*
Y43922D01*
X554223Y45702D01*
X553301Y47298D01*
X551998Y48601D01*
X550402Y49523D01*
X548622Y50000D01*
D02*
G37*
G36*
X523222D02*
X521378D01*
X519598Y49523D01*
X518002Y48601D01*
X516699Y47298D01*
X515777Y45702D01*
X515300Y43922D01*
Y42078D01*
X515777Y40298D01*
X516699Y38702D01*
X518002Y37399D01*
X519598Y36477D01*
X521378Y36000D01*
X523222D01*
X525002Y36477D01*
X526598Y37399D01*
X527901Y38702D01*
X528823Y40298D01*
X529300Y42078D01*
Y43922D01*
X528823Y45702D01*
X527901Y47298D01*
X526598Y48601D01*
X525002Y49523D01*
X523222Y50000D01*
D02*
G37*
G36*
X497822D02*
X495978D01*
X494198Y49523D01*
X492602Y48601D01*
X491299Y47298D01*
X490377Y45702D01*
X489900Y43922D01*
Y42078D01*
X490377Y40298D01*
X491299Y38702D01*
X492602Y37399D01*
X494198Y36477D01*
X495978Y36000D01*
X497822D01*
X499602Y36477D01*
X501198Y37399D01*
X502501Y38702D01*
X503423Y40298D01*
X503900Y42078D01*
Y43922D01*
X503423Y45702D01*
X502501Y47298D01*
X501198Y48601D01*
X499602Y49523D01*
X497822Y50000D01*
D02*
G37*
G36*
X574351Y27100D02*
X571849D01*
X569433Y26453D01*
X567267Y25202D01*
X565498Y23433D01*
X564247Y21267D01*
X563600Y18851D01*
Y16349D01*
X564247Y13933D01*
X565498Y11767D01*
X567267Y9998D01*
X569433Y8747D01*
X571849Y8100D01*
X574351D01*
X576767Y8747D01*
X578933Y9998D01*
X580702Y11767D01*
X581953Y13933D01*
X582600Y16349D01*
Y18851D01*
X581953Y21267D01*
X580702Y23433D01*
X578933Y25202D01*
X576767Y26453D01*
X574351Y27100D01*
D02*
G37*
G36*
X424750Y120000D02*
X422000D01*
Y114000D01*
X424750D01*
Y120000D01*
D02*
G37*
G36*
Y111000D02*
X422000D01*
Y105000D01*
X424750D01*
Y111000D01*
D02*
G37*
%LPD*%
D10*
X766007Y270185D02*
Y254950D01*
X776164D01*
X783781Y265107D02*
X788860D01*
X791399Y262568D01*
Y254950D01*
X783781D01*
X781242Y257489D01*
X783781Y260028D01*
X791399D01*
X796477Y265107D02*
Y257489D01*
X799016Y254950D01*
X806634D01*
Y252411D01*
X804095Y249872D01*
X801556D01*
X806634Y254950D02*
Y265107D01*
X819330Y254950D02*
X814251D01*
X811712Y257489D01*
Y262568D01*
X814251Y265107D01*
X819330D01*
X821869Y262568D01*
Y260028D01*
X811712D01*
X826947Y265107D02*
Y254950D01*
Y260028D01*
X829487Y262568D01*
X832026Y265107D01*
X834565D01*
X773625Y-19370D02*
Y-4135D01*
X766007Y-11753D01*
X776164D01*
X766007Y54286D02*
X768546Y56825D01*
X773625D01*
X776164Y54286D01*
Y51747D01*
X773625Y49208D01*
X771085D01*
X773625D01*
X776164Y46668D01*
Y44129D01*
X773625Y41590D01*
X768546D01*
X766007Y44129D01*
X776164Y102550D02*
X766007D01*
X776164Y112707D01*
Y115246D01*
X773625Y117785D01*
X768546D01*
X766007Y115246D01*
Y163510D02*
X771085D01*
X768546D01*
Y178745D01*
X766007Y176206D01*
X870125Y254950D02*
Y270185D01*
X880282Y254950D01*
Y270185D01*
X887899Y265107D02*
X892978D01*
X895517Y262568D01*
Y254950D01*
X887899D01*
X885360Y257489D01*
X887899Y260028D01*
X895517D01*
X900595Y254950D02*
Y265107D01*
X903134D01*
X905673Y262568D01*
Y254950D01*
Y262568D01*
X908213Y265107D01*
X910752Y262568D01*
Y254950D01*
X923448D02*
X918369D01*
X915830Y257489D01*
Y262568D01*
X918369Y265107D01*
X923448D01*
X925987Y262568D01*
Y260028D01*
X915830D01*
X870125Y-65095D02*
Y-80330D01*
X877742D01*
X880282Y-77791D01*
Y-75252D01*
X877742Y-72712D01*
X870125D01*
X877742D01*
X880282Y-70173D01*
Y-67634D01*
X877742Y-65095D01*
X870125D01*
X887899Y-80330D02*
X892978D01*
X895517Y-77791D01*
Y-72712D01*
X892978Y-70173D01*
X887899D01*
X885360Y-72712D01*
Y-77791D01*
X887899Y-80330D01*
X903134Y-67634D02*
Y-70173D01*
X900595D01*
X905673D01*
X903134D01*
Y-77791D01*
X905673Y-80330D01*
X915830Y-67634D02*
Y-70173D01*
X913291D01*
X918369D01*
X915830D01*
Y-77791D01*
X918369Y-80330D01*
X928526D02*
X933604D01*
X936143Y-77791D01*
Y-72712D01*
X933604Y-70173D01*
X928526D01*
X925987Y-72712D01*
Y-77791D01*
X928526Y-80330D01*
X941222D02*
Y-70173D01*
X943761D01*
X946300Y-72712D01*
Y-80330D01*
Y-72712D01*
X948839Y-70173D01*
X951379Y-72712D01*
Y-80330D01*
X979310Y-65095D02*
X974231D01*
X971692Y-67634D01*
Y-77791D01*
X974231Y-80330D01*
X979310D01*
X981849Y-77791D01*
Y-67634D01*
X979310Y-65095D01*
X986927Y-70173D02*
X992005Y-80330D01*
X997084Y-70173D01*
X1009780Y-80330D02*
X1004701D01*
X1002162Y-77791D01*
Y-72712D01*
X1004701Y-70173D01*
X1009780D01*
X1012319Y-72712D01*
Y-75252D01*
X1002162D01*
X1017397Y-70173D02*
Y-80330D01*
Y-75252D01*
X1019936Y-72712D01*
X1022476Y-70173D01*
X1025015D01*
X1032632Y-80330D02*
X1037711D01*
X1035172D01*
Y-65095D01*
X1032632D01*
X1047867Y-70173D02*
X1052946D01*
X1055485Y-72712D01*
Y-80330D01*
X1047867D01*
X1045328Y-77791D01*
X1047867Y-75252D01*
X1055485D01*
X1060563Y-70173D02*
Y-77791D01*
X1063102Y-80330D01*
X1070720D01*
Y-82869D01*
X1068181Y-85408D01*
X1065642D01*
X1070720Y-80330D02*
Y-70173D01*
X870125Y-34615D02*
Y-49850D01*
X877742D01*
X880282Y-47311D01*
Y-44772D01*
X877742Y-42232D01*
X870125D01*
X877742D01*
X880282Y-39693D01*
Y-37154D01*
X877742Y-34615D01*
X870125D01*
X887899Y-49850D02*
X892978D01*
X895517Y-47311D01*
Y-42232D01*
X892978Y-39693D01*
X887899D01*
X885360Y-42232D01*
Y-47311D01*
X887899Y-49850D01*
X903134Y-37154D02*
Y-39693D01*
X900595D01*
X905673D01*
X903134D01*
Y-47311D01*
X905673Y-49850D01*
X915830Y-37154D02*
Y-39693D01*
X913291D01*
X918369D01*
X915830D01*
Y-47311D01*
X918369Y-49850D01*
X928526D02*
X933604D01*
X936143Y-47311D01*
Y-42232D01*
X933604Y-39693D01*
X928526D01*
X925987Y-42232D01*
Y-47311D01*
X928526Y-49850D01*
X941222D02*
Y-39693D01*
X943761D01*
X946300Y-42232D01*
Y-49850D01*
Y-42232D01*
X948839Y-39693D01*
X951379Y-42232D01*
Y-49850D01*
X981849Y-37154D02*
X979310Y-34615D01*
X974231D01*
X971692Y-37154D01*
Y-39693D01*
X974231Y-42232D01*
X979310D01*
X981849Y-44772D01*
Y-47311D01*
X979310Y-49850D01*
X974231D01*
X971692Y-47311D01*
X989466Y-49850D02*
X994545D01*
X997084Y-47311D01*
Y-42232D01*
X994545Y-39693D01*
X989466D01*
X986927Y-42232D01*
Y-47311D01*
X989466Y-49850D01*
X1002162D02*
X1007241D01*
X1004701D01*
Y-34615D01*
X1002162D01*
X1025015D02*
Y-49850D01*
X1017397D01*
X1014858Y-47311D01*
Y-42232D01*
X1017397Y-39693D01*
X1025015D01*
X1037711Y-49850D02*
X1032632D01*
X1030093Y-47311D01*
Y-42232D01*
X1032632Y-39693D01*
X1037711D01*
X1040250Y-42232D01*
Y-44772D01*
X1030093D01*
X1045328Y-39693D02*
Y-49850D01*
Y-44772D01*
X1047867Y-42232D01*
X1050407Y-39693D01*
X1052946D01*
X870125Y-4135D02*
Y-19370D01*
X877742D01*
X880282Y-16831D01*
Y-14292D01*
X877742Y-11753D01*
X870125D01*
X877742D01*
X880282Y-9213D01*
Y-6674D01*
X877742Y-4135D01*
X870125D01*
X887899Y-19370D02*
X892978D01*
X895517Y-16831D01*
Y-11753D01*
X892978Y-9213D01*
X887899D01*
X885360Y-11753D01*
Y-16831D01*
X887899Y-19370D01*
X903134Y-6674D02*
Y-9213D01*
X900595D01*
X905673D01*
X903134D01*
Y-16831D01*
X905673Y-19370D01*
X915830Y-6674D02*
Y-9213D01*
X913291D01*
X918369D01*
X915830D01*
Y-16831D01*
X918369Y-19370D01*
X928526D02*
X933604D01*
X936143Y-16831D01*
Y-11753D01*
X933604Y-9213D01*
X928526D01*
X925987Y-11753D01*
Y-16831D01*
X928526Y-19370D01*
X941222D02*
Y-9213D01*
X943761D01*
X946300Y-11753D01*
Y-19370D01*
Y-11753D01*
X948839Y-9213D01*
X951379Y-11753D01*
Y-19370D01*
X971692Y-4135D02*
Y-19370D01*
X981849D01*
X989466Y-9213D02*
X994545D01*
X997084Y-11753D01*
Y-19370D01*
X989466D01*
X986927Y-16831D01*
X989466Y-14292D01*
X997084D01*
X1002162Y-9213D02*
Y-16831D01*
X1004701Y-19370D01*
X1012319D01*
Y-21909D01*
X1009780Y-24448D01*
X1007241D01*
X1012319Y-19370D02*
Y-9213D01*
X1025015Y-19370D02*
X1019936D01*
X1017397Y-16831D01*
Y-11753D01*
X1019936Y-9213D01*
X1025015D01*
X1027554Y-11753D01*
Y-14292D01*
X1017397D01*
X1032632Y-9213D02*
Y-19370D01*
Y-14292D01*
X1035172Y-11753D01*
X1037711Y-9213D01*
X1040250D01*
X870125Y26345D02*
Y11110D01*
X877742D01*
X880282Y13649D01*
Y23806D01*
X877742Y26345D01*
X870125D01*
X885360Y11110D02*
X890438D01*
X887899D01*
Y21267D01*
X885360D01*
X905673Y11110D02*
X900595D01*
X898056Y13649D01*
Y18728D01*
X900595Y21267D01*
X905673D01*
X908213Y18728D01*
Y16188D01*
X898056D01*
X913291Y11110D02*
X918369D01*
X915830D01*
Y26345D01*
X913291D01*
X933604Y11110D02*
X928526D01*
X925987Y13649D01*
Y18728D01*
X928526Y21267D01*
X933604D01*
X936143Y18728D01*
Y16188D01*
X925987D01*
X951379Y21267D02*
X943761D01*
X941222Y18728D01*
Y13649D01*
X943761Y11110D01*
X951379D01*
X958996Y23806D02*
Y21267D01*
X956457D01*
X961535D01*
X958996D01*
Y13649D01*
X961535Y11110D01*
X969153Y21267D02*
Y11110D01*
Y16188D01*
X971692Y18728D01*
X974231Y21267D01*
X976770D01*
X984388Y11110D02*
X989466D01*
X986927D01*
Y21267D01*
X984388D01*
X1007241D02*
X999623D01*
X997084Y18728D01*
Y13649D01*
X999623Y11110D01*
X1007241D01*
X1027554Y23806D02*
X1030093Y26345D01*
X1035172D01*
X1037711Y23806D01*
Y21267D01*
X1035172Y18728D01*
X1032632D01*
X1035172D01*
X1037711Y16188D01*
Y13649D01*
X1035172Y11110D01*
X1030093D01*
X1027554Y13649D01*
X870125Y56825D02*
Y41590D01*
X880282D01*
X887899Y51747D02*
X892978D01*
X895517Y49208D01*
Y41590D01*
X887899D01*
X885360Y44129D01*
X887899Y46668D01*
X895517D01*
X900595Y51747D02*
Y44129D01*
X903134Y41590D01*
X910752D01*
Y39051D01*
X908213Y36512D01*
X905673D01*
X910752Y41590D02*
Y51747D01*
X923448Y41590D02*
X918369D01*
X915830Y44129D01*
Y49208D01*
X918369Y51747D01*
X923448D01*
X925987Y49208D01*
Y46668D01*
X915830D01*
X931065Y51747D02*
Y41590D01*
Y46668D01*
X933604Y49208D01*
X936143Y51747D01*
X938683D01*
X971692Y41590D02*
X961535D01*
X971692Y51747D01*
Y54286D01*
X969153Y56825D01*
X964074D01*
X961535Y54286D01*
X870125Y87305D02*
Y72070D01*
X877742D01*
X880282Y74609D01*
Y84766D01*
X877742Y87305D01*
X870125D01*
X885360Y72070D02*
X890438D01*
X887899D01*
Y82227D01*
X885360D01*
X905673Y72070D02*
X900595D01*
X898056Y74609D01*
Y79688D01*
X900595Y82227D01*
X905673D01*
X908213Y79688D01*
Y77148D01*
X898056D01*
X913291Y72070D02*
X918369D01*
X915830D01*
Y87305D01*
X913291D01*
X933604Y72070D02*
X928526D01*
X925987Y74609D01*
Y79688D01*
X928526Y82227D01*
X933604D01*
X936143Y79688D01*
Y77148D01*
X925987D01*
X951379Y82227D02*
X943761D01*
X941222Y79688D01*
Y74609D01*
X943761Y72070D01*
X951379D01*
X958996Y84766D02*
Y82227D01*
X956457D01*
X961535D01*
X958996D01*
Y74609D01*
X961535Y72070D01*
X969153Y82227D02*
Y72070D01*
Y77148D01*
X971692Y79688D01*
X974231Y82227D01*
X976770D01*
X984388Y72070D02*
X989466D01*
X986927D01*
Y82227D01*
X984388D01*
X1007241D02*
X999623D01*
X997084Y79688D01*
Y74609D01*
X999623Y72070D01*
X1007241D01*
X1027554D02*
X1032632D01*
X1030093D01*
Y87305D01*
X1027554Y84766D01*
X870125Y117785D02*
Y102550D01*
X880282D01*
X887899Y112707D02*
X892978D01*
X895517Y110168D01*
Y102550D01*
X887899D01*
X885360Y105089D01*
X887899Y107628D01*
X895517D01*
X900595Y112707D02*
Y105089D01*
X903134Y102550D01*
X910752D01*
Y100011D01*
X908213Y97472D01*
X905673D01*
X910752Y102550D02*
Y112707D01*
X923448Y102550D02*
X918369D01*
X915830Y105089D01*
Y110168D01*
X918369Y112707D01*
X923448D01*
X925987Y110168D01*
Y107628D01*
X915830D01*
X931065Y112707D02*
Y102550D01*
Y107628D01*
X933604Y110168D01*
X936143Y112707D01*
X938683D01*
X961535Y102550D02*
X966614D01*
X964074D01*
Y117785D01*
X961535Y115246D01*
X870125Y148265D02*
Y133030D01*
X877742D01*
X880282Y135569D01*
Y145726D01*
X877742Y148265D01*
X870125D01*
X885360Y133030D02*
X890438D01*
X887899D01*
Y143187D01*
X885360D01*
X905673Y133030D02*
X900595D01*
X898056Y135569D01*
Y140647D01*
X900595Y143187D01*
X905673D01*
X908213Y140647D01*
Y138108D01*
X898056D01*
X913291Y133030D02*
X918369D01*
X915830D01*
Y148265D01*
X913291D01*
X933604Y133030D02*
X928526D01*
X925987Y135569D01*
Y140647D01*
X928526Y143187D01*
X933604D01*
X936143Y140647D01*
Y138108D01*
X925987D01*
X951379Y143187D02*
X943761D01*
X941222Y140647D01*
Y135569D01*
X943761Y133030D01*
X951379D01*
X958996Y145726D02*
Y143187D01*
X956457D01*
X961535D01*
X958996D01*
Y135569D01*
X961535Y133030D01*
X969153Y143187D02*
Y133030D01*
Y138108D01*
X971692Y140647D01*
X974231Y143187D01*
X976770D01*
X984388Y133030D02*
X989466D01*
X986927D01*
Y143187D01*
X984388D01*
X1007241D02*
X999623D01*
X997084Y140647D01*
Y135569D01*
X999623Y133030D01*
X1007241D01*
X1037711D02*
X1027554D01*
X1037711Y143187D01*
Y145726D01*
X1035172Y148265D01*
X1030093D01*
X1027554Y145726D01*
X870125Y178745D02*
X880282D01*
X875203D01*
Y163510D01*
X887899D02*
X892978D01*
X895517Y166049D01*
Y171127D01*
X892978Y173667D01*
X887899D01*
X885360Y171127D01*
Y166049D01*
X887899Y163510D01*
X900595Y158432D02*
Y173667D01*
X908213D01*
X910752Y171127D01*
Y166049D01*
X908213Y163510D01*
X900595D01*
X931065Y178745D02*
Y163510D01*
X941222D01*
X948839Y173667D02*
X953918D01*
X956457Y171127D01*
Y163510D01*
X948839D01*
X946300Y166049D01*
X948839Y168588D01*
X956457D01*
X961535Y173667D02*
Y166049D01*
X964074Y163510D01*
X971692D01*
Y160971D01*
X969153Y158432D01*
X966614D01*
X971692Y163510D02*
Y173667D01*
X984388Y163510D02*
X979310D01*
X976770Y166049D01*
Y171127D01*
X979310Y173667D01*
X984388D01*
X986927Y171127D01*
Y168588D01*
X976770D01*
X992005Y173667D02*
Y163510D01*
Y168588D01*
X994545Y171127D01*
X997084Y173667D01*
X999623D01*
X870125Y209225D02*
X880282D01*
X875203D01*
Y193990D01*
X887899D02*
X892978D01*
X895517Y196529D01*
Y201607D01*
X892978Y204147D01*
X887899D01*
X885360Y201607D01*
Y196529D01*
X887899Y193990D01*
X900595Y188912D02*
Y204147D01*
X908213D01*
X910752Y201607D01*
Y196529D01*
X908213Y193990D01*
X900595D01*
X941222Y206686D02*
X938683Y209225D01*
X933604D01*
X931065Y206686D01*
Y204147D01*
X933604Y201607D01*
X938683D01*
X941222Y199068D01*
Y196529D01*
X938683Y193990D01*
X933604D01*
X931065Y196529D01*
X948839Y193990D02*
X953918D01*
X956457Y196529D01*
Y201607D01*
X953918Y204147D01*
X948839D01*
X946300Y201607D01*
Y196529D01*
X948839Y193990D01*
X961535D02*
X966614D01*
X964074D01*
Y209225D01*
X961535D01*
X984388D02*
Y193990D01*
X976770D01*
X974231Y196529D01*
Y201607D01*
X976770Y204147D01*
X984388D01*
X997084Y193990D02*
X992005D01*
X989466Y196529D01*
Y201607D01*
X992005Y204147D01*
X997084D01*
X999623Y201607D01*
Y199068D01*
X989466D01*
X1004701Y204147D02*
Y193990D01*
Y199068D01*
X1007241Y201607D01*
X1009780Y204147D01*
X1012319D01*
X870125Y239705D02*
X880282D01*
X875203D01*
Y224470D01*
X887899D02*
X892978D01*
X895517Y227009D01*
Y232087D01*
X892978Y234627D01*
X887899D01*
X885360Y232087D01*
Y227009D01*
X887899Y224470D01*
X900595Y219392D02*
Y234627D01*
X908213D01*
X910752Y232087D01*
Y227009D01*
X908213Y224470D01*
X900595D01*
X938683Y239705D02*
X933604D01*
X931065Y237166D01*
Y227009D01*
X933604Y224470D01*
X938683D01*
X941222Y227009D01*
Y237166D01*
X938683Y239705D01*
X946300Y234627D02*
X951379Y224470D01*
X956457Y234627D01*
X969153Y224470D02*
X964074D01*
X961535Y227009D01*
Y232087D01*
X964074Y234627D01*
X969153D01*
X971692Y232087D01*
Y229548D01*
X961535D01*
X976770Y234627D02*
Y224470D01*
Y229548D01*
X979310Y232087D01*
X981849Y234627D01*
X984388D01*
X992005Y224470D02*
X997084D01*
X994545D01*
Y239705D01*
X992005D01*
X1007241Y234627D02*
X1012319D01*
X1014858Y232087D01*
Y224470D01*
X1007241D01*
X1004701Y227009D01*
X1007241Y229548D01*
X1014858D01*
X1019936Y234627D02*
Y227009D01*
X1022476Y224470D01*
X1030093D01*
Y221931D01*
X1027554Y219392D01*
X1025015D01*
X1030093Y224470D02*
Y234627D01*
X1106280Y254950D02*
Y270185D01*
X1111358Y265107D01*
X1116437Y270185D01*
Y254950D01*
X1124054Y265107D02*
X1129133D01*
X1131672Y262568D01*
Y254950D01*
X1124054D01*
X1121515Y257489D01*
X1124054Y260028D01*
X1131672D01*
X1139289Y267646D02*
Y265107D01*
X1136750D01*
X1141829D01*
X1139289D01*
Y257489D01*
X1141829Y254950D01*
X1157064D02*
X1151985D01*
X1149446Y257489D01*
Y262568D01*
X1151985Y265107D01*
X1157064D01*
X1159603Y262568D01*
Y260028D01*
X1149446D01*
X1164681Y265107D02*
Y254950D01*
Y260028D01*
X1167220Y262568D01*
X1169760Y265107D01*
X1172299D01*
X1179916Y254950D02*
X1184995D01*
X1182455D01*
Y265107D01*
X1179916D01*
X1195151D02*
X1200230D01*
X1202769Y262568D01*
Y254950D01*
X1195151D01*
X1192612Y257489D01*
X1195151Y260028D01*
X1202769D01*
X1207847Y254950D02*
X1212925D01*
X1210386D01*
Y270185D01*
X1207847D01*
X1116437Y-37154D02*
X1113897Y-34615D01*
X1108819D01*
X1106280Y-37154D01*
Y-39693D01*
X1108819Y-42232D01*
X1113897D01*
X1116437Y-44772D01*
Y-47311D01*
X1113897Y-49850D01*
X1108819D01*
X1106280Y-47311D01*
X1124054Y-49850D02*
X1129133D01*
X1131672Y-47311D01*
Y-42232D01*
X1129133Y-39693D01*
X1124054D01*
X1121515Y-42232D01*
Y-47311D01*
X1124054Y-49850D01*
X1136750D02*
X1141829D01*
X1139289D01*
Y-34615D01*
X1136750D01*
X1159603D02*
Y-49850D01*
X1151985D01*
X1149446Y-47311D01*
Y-42232D01*
X1151985Y-39693D01*
X1159603D01*
X1172299Y-49850D02*
X1167220D01*
X1164681Y-47311D01*
Y-42232D01*
X1167220Y-39693D01*
X1172299D01*
X1174838Y-42232D01*
Y-44772D01*
X1164681D01*
X1179916Y-39693D02*
Y-49850D01*
Y-44772D01*
X1182455Y-42232D01*
X1184995Y-39693D01*
X1187534D01*
X1210386Y-49850D02*
Y-34615D01*
X1218004D01*
X1220543Y-37154D01*
Y-42232D01*
X1218004Y-44772D01*
X1210386D01*
X1215465D02*
X1220543Y-49850D01*
X1233239D02*
X1228161D01*
X1225621Y-47311D01*
Y-42232D01*
X1228161Y-39693D01*
X1233239D01*
X1235778Y-42232D01*
Y-44772D01*
X1225621D01*
X1240856Y-49850D02*
X1248474D01*
X1251013Y-47311D01*
X1248474Y-44772D01*
X1243396D01*
X1240856Y-42232D01*
X1243396Y-39693D01*
X1251013D01*
X1256092Y-49850D02*
X1261170D01*
X1258631D01*
Y-39693D01*
X1256092D01*
X1268787Y-49850D02*
X1276405D01*
X1278944Y-47311D01*
X1276405Y-44772D01*
X1271327D01*
X1268787Y-42232D01*
X1271327Y-39693D01*
X1278944D01*
X1286562Y-37154D02*
Y-39693D01*
X1284023D01*
X1289101D01*
X1286562D01*
Y-47311D01*
X1289101Y-49850D01*
X1106280Y11110D02*
Y26345D01*
X1113897D01*
X1116437Y23806D01*
Y18728D01*
X1113897Y16188D01*
X1106280D01*
X1121515Y11110D02*
Y26345D01*
X1129133D01*
X1131672Y23806D01*
Y18728D01*
X1129133Y16188D01*
X1121515D01*
X1136750Y18728D02*
X1146907D01*
X1151985Y23806D02*
X1154524Y26345D01*
X1159603D01*
X1162142Y23806D01*
Y13649D01*
X1159603Y11110D01*
X1154524D01*
X1151985Y13649D01*
Y23806D01*
X1167220D02*
X1169760Y26345D01*
X1174838D01*
X1177377Y23806D01*
Y13649D01*
X1174838Y11110D01*
X1169760D01*
X1167220Y13649D01*
Y23806D01*
X1192612Y26345D02*
X1187534Y23806D01*
X1182455Y18728D01*
Y13649D01*
X1184995Y11110D01*
X1190073D01*
X1192612Y13649D01*
Y16188D01*
X1190073Y18728D01*
X1182455D01*
X1116437Y54286D02*
X1113897Y56825D01*
X1108819D01*
X1106280Y54286D01*
Y44129D01*
X1108819Y41590D01*
X1113897D01*
X1116437Y44129D01*
X1131672Y56825D02*
X1121515D01*
Y49208D01*
X1126593D01*
X1121515D01*
Y41590D01*
X1136750Y49208D02*
X1146907D01*
X1151985Y54286D02*
X1154524Y56825D01*
X1159603D01*
X1162142Y54286D01*
Y44129D01*
X1159603Y41590D01*
X1154524D01*
X1151985Y44129D01*
Y54286D01*
X1167220D02*
X1169760Y56825D01*
X1174838D01*
X1177377Y54286D01*
Y44129D01*
X1174838Y41590D01*
X1169760D01*
X1167220Y44129D01*
Y54286D01*
X1190073Y41590D02*
Y56825D01*
X1182455Y49208D01*
X1192612D01*
X1116437Y87305D02*
X1106280D01*
Y79688D01*
X1111358D01*
X1106280D01*
Y72070D01*
X1121515D02*
Y87305D01*
X1129133D01*
X1131672Y84766D01*
Y79688D01*
X1129133Y77148D01*
X1121515D01*
X1126593D02*
X1131672Y72070D01*
X1136750Y79688D02*
X1146907D01*
X1159603Y72070D02*
Y87305D01*
X1151985Y79688D01*
X1162142D01*
X1116437Y115246D02*
X1113897Y117785D01*
X1108819D01*
X1106280Y115246D01*
Y105089D01*
X1108819Y102550D01*
X1113897D01*
X1116437Y105089D01*
X1131672Y117785D02*
X1121515D01*
Y110168D01*
X1126593D01*
X1121515D01*
Y102550D01*
X1136750Y110168D02*
X1146907D01*
X1151985Y115246D02*
X1154524Y117785D01*
X1159603D01*
X1162142Y115246D01*
Y105089D01*
X1159603Y102550D01*
X1154524D01*
X1151985Y105089D01*
Y115246D01*
X1167220D02*
X1169760Y117785D01*
X1174838D01*
X1177377Y115246D01*
Y105089D01*
X1174838Y102550D01*
X1169760D01*
X1167220Y105089D01*
Y115246D01*
X1190073Y102550D02*
Y117785D01*
X1182455Y110168D01*
X1192612D01*
X1106280Y133030D02*
Y148265D01*
X1113897D01*
X1116437Y145726D01*
Y140647D01*
X1113897Y138108D01*
X1106280D01*
X1121515Y133030D02*
Y148265D01*
X1129133D01*
X1131672Y145726D01*
Y140647D01*
X1129133Y138108D01*
X1121515D01*
X1136750Y140647D02*
X1146907D01*
X1151985Y145726D02*
X1154524Y148265D01*
X1159603D01*
X1162142Y145726D01*
Y135569D01*
X1159603Y133030D01*
X1154524D01*
X1151985Y135569D01*
Y145726D01*
X1167220D02*
X1169760Y148265D01*
X1174838D01*
X1177377Y145726D01*
Y135569D01*
X1174838Y133030D01*
X1169760D01*
X1167220Y135569D01*
Y145726D01*
X1192612Y148265D02*
X1187534Y145726D01*
X1182455Y140647D01*
Y135569D01*
X1184995Y133030D01*
X1190073D01*
X1192612Y135569D01*
Y138108D01*
X1190073Y140647D01*
X1182455D01*
X1116437Y206686D02*
X1113897Y209225D01*
X1108819D01*
X1106280Y206686D01*
Y204147D01*
X1108819Y201607D01*
X1113897D01*
X1116437Y199068D01*
Y196529D01*
X1113897Y193990D01*
X1108819D01*
X1106280Y196529D01*
X1124054Y193990D02*
X1129133D01*
X1131672Y196529D01*
Y201607D01*
X1129133Y204147D01*
X1124054D01*
X1121515Y201607D01*
Y196529D01*
X1124054Y193990D01*
X1136750D02*
X1141829D01*
X1139289D01*
Y209225D01*
X1136750D01*
X1159603D02*
Y193990D01*
X1151985D01*
X1149446Y196529D01*
Y201607D01*
X1151985Y204147D01*
X1159603D01*
X1172299Y193990D02*
X1167220D01*
X1164681Y196529D01*
Y201607D01*
X1167220Y204147D01*
X1172299D01*
X1174838Y201607D01*
Y199068D01*
X1164681D01*
X1179916Y204147D02*
Y193990D01*
Y199068D01*
X1182455Y201607D01*
X1184995Y204147D01*
X1187534D01*
X1210386Y193990D02*
Y209225D01*
X1218004D01*
X1220543Y206686D01*
Y201607D01*
X1218004Y199068D01*
X1210386D01*
X1215465D02*
X1220543Y193990D01*
X1233239D02*
X1228161D01*
X1225621Y196529D01*
Y201607D01*
X1228161Y204147D01*
X1233239D01*
X1235778Y201607D01*
Y199068D01*
X1225621D01*
X1240856Y193990D02*
X1248474D01*
X1251013Y196529D01*
X1248474Y199068D01*
X1243396D01*
X1240856Y201607D01*
X1243396Y204147D01*
X1251013D01*
X1256092Y193990D02*
X1261170D01*
X1258631D01*
Y204147D01*
X1256092D01*
X1268787Y193990D02*
X1276405D01*
X1278944Y196529D01*
X1276405Y199068D01*
X1271327D01*
X1268787Y201607D01*
X1271327Y204147D01*
X1278944D01*
X1286562Y206686D02*
Y204147D01*
X1284023D01*
X1289101D01*
X1286562D01*
Y196529D01*
X1289101Y193990D01*
X1324661Y270185D02*
X1334818D01*
X1329739D01*
Y254950D01*
X1339896Y270185D02*
Y254950D01*
Y262568D01*
X1342435Y265107D01*
X1347513D01*
X1350053Y262568D01*
Y254950D01*
X1355131D02*
X1360209D01*
X1357670D01*
Y265107D01*
X1355131D01*
X1377984D02*
X1370366D01*
X1367827Y262568D01*
Y257489D01*
X1370366Y254950D01*
X1377984D01*
X1383062D02*
Y270185D01*
Y260028D02*
X1390679Y265107D01*
X1383062Y260028D02*
X1390679Y254950D01*
X1398297D02*
Y265107D01*
X1405915D01*
X1408454Y262568D01*
Y254950D01*
X1421150D02*
X1416071D01*
X1413532Y257489D01*
Y262568D01*
X1416071Y265107D01*
X1421150D01*
X1423689Y262568D01*
Y260028D01*
X1413532D01*
X1428767Y254950D02*
X1436385D01*
X1438924Y257489D01*
X1436385Y260028D01*
X1431306D01*
X1428767Y262568D01*
X1431306Y265107D01*
X1438924D01*
X1444002Y254950D02*
X1451620D01*
X1454159Y257489D01*
X1451620Y260028D01*
X1446541D01*
X1444002Y262568D01*
X1446541Y265107D01*
X1454159D01*
X1324661Y-37154D02*
X1327200Y-34615D01*
X1332278D01*
X1334818Y-37154D01*
Y-47311D01*
X1332278Y-49850D01*
X1327200D01*
X1324661Y-47311D01*
Y-37154D01*
X1342435Y-52389D02*
X1344974Y-49850D01*
Y-47311D01*
X1342435D01*
Y-49850D01*
X1344974D01*
X1342435Y-52389D01*
X1339896Y-54928D01*
X1355131Y-37154D02*
X1357670Y-34615D01*
X1362749D01*
X1365288Y-37154D01*
Y-47311D01*
X1362749Y-49850D01*
X1357670D01*
X1355131Y-47311D01*
Y-37154D01*
X1370366Y-49850D02*
X1375444D01*
X1372905D01*
Y-34615D01*
X1370366Y-37154D01*
X1383062D02*
X1385601Y-34615D01*
X1390679D01*
X1393219Y-37154D01*
Y-47311D01*
X1390679Y-49850D01*
X1385601D01*
X1383062Y-47311D01*
Y-37154D01*
X1398297Y-49850D02*
Y-39693D01*
X1400836D01*
X1403375Y-42232D01*
Y-49850D01*
Y-42232D01*
X1405915Y-39693D01*
X1408454Y-42232D01*
Y-49850D01*
X1413532D02*
Y-39693D01*
X1416071D01*
X1418610Y-42232D01*
Y-49850D01*
Y-42232D01*
X1421150Y-39693D01*
X1423689Y-42232D01*
Y-49850D01*
X1324661Y-6674D02*
X1327200Y-4135D01*
X1332278D01*
X1334818Y-6674D01*
Y-16831D01*
X1332278Y-19370D01*
X1327200D01*
X1324661Y-16831D01*
Y-6674D01*
X1342435Y-21909D02*
X1344974Y-19370D01*
Y-16831D01*
X1342435D01*
Y-19370D01*
X1344974D01*
X1342435Y-21909D01*
X1339896Y-24448D01*
X1355131Y-6674D02*
X1357670Y-4135D01*
X1362749D01*
X1365288Y-6674D01*
Y-16831D01*
X1362749Y-19370D01*
X1357670D01*
X1355131Y-16831D01*
Y-6674D01*
X1380523Y-4135D02*
X1370366D01*
Y-11753D01*
X1375444Y-9213D01*
X1377984D01*
X1380523Y-11753D01*
Y-16831D01*
X1377984Y-19370D01*
X1372905D01*
X1370366Y-16831D01*
X1395758Y-4135D02*
X1385601D01*
Y-11753D01*
X1390679Y-9213D01*
X1393219D01*
X1395758Y-11753D01*
Y-16831D01*
X1393219Y-19370D01*
X1388140D01*
X1385601Y-16831D01*
X1400836Y-19370D02*
Y-9213D01*
X1403375D01*
X1405915Y-11753D01*
Y-19370D01*
Y-11753D01*
X1408454Y-9213D01*
X1410993Y-11753D01*
Y-19370D01*
X1416071D02*
Y-9213D01*
X1418611D01*
X1421150Y-11753D01*
Y-19370D01*
Y-11753D01*
X1423689Y-9213D01*
X1426228Y-11753D01*
Y-19370D01*
X1324661Y23806D02*
X1327200Y26345D01*
X1332278D01*
X1334818Y23806D01*
Y13649D01*
X1332278Y11110D01*
X1327200D01*
X1324661Y13649D01*
Y23806D01*
X1342435Y8571D02*
X1344974Y11110D01*
Y13649D01*
X1342435D01*
Y11110D01*
X1344974D01*
X1342435Y8571D01*
X1339896Y6032D01*
X1355131Y23806D02*
X1357670Y26345D01*
X1362749D01*
X1365288Y23806D01*
Y21267D01*
X1362749Y18728D01*
X1360209D01*
X1362749D01*
X1365288Y16188D01*
Y13649D01*
X1362749Y11110D01*
X1357670D01*
X1355131Y13649D01*
X1380523Y26345D02*
X1375444Y23806D01*
X1370366Y18728D01*
Y13649D01*
X1372905Y11110D01*
X1377984D01*
X1380523Y13649D01*
Y16188D01*
X1377984Y18728D01*
X1370366D01*
X1385601Y23806D02*
X1388140Y26345D01*
X1393219D01*
X1395758Y23806D01*
Y13649D01*
X1393219Y11110D01*
X1388140D01*
X1385601Y13649D01*
Y23806D01*
X1400836Y11110D02*
Y21267D01*
X1403375D01*
X1405915Y18728D01*
Y11110D01*
Y18728D01*
X1408454Y21267D01*
X1410993Y18728D01*
Y11110D01*
X1416071D02*
Y21267D01*
X1418611D01*
X1421150Y18728D01*
Y11110D01*
Y18728D01*
X1423689Y21267D01*
X1426228Y18728D01*
Y11110D01*
X1324661Y54286D02*
X1327200Y56825D01*
X1332278D01*
X1334818Y54286D01*
Y44129D01*
X1332278Y41590D01*
X1327200D01*
X1324661Y44129D01*
Y54286D01*
X1342435Y39051D02*
X1344974Y41590D01*
Y44129D01*
X1342435D01*
Y41590D01*
X1344974D01*
X1342435Y39051D01*
X1339896Y36512D01*
X1355131Y54286D02*
X1357670Y56825D01*
X1362749D01*
X1365288Y54286D01*
Y44129D01*
X1362749Y41590D01*
X1357670D01*
X1355131Y44129D01*
Y54286D01*
X1370366D02*
X1372905Y56825D01*
X1377984D01*
X1380523Y54286D01*
Y51747D01*
X1377984Y49208D01*
X1375444D01*
X1377984D01*
X1380523Y46668D01*
Y44129D01*
X1377984Y41590D01*
X1372905D01*
X1370366Y44129D01*
X1395758Y56825D02*
X1385601D01*
Y49208D01*
X1390679Y51747D01*
X1393219D01*
X1395758Y49208D01*
Y44129D01*
X1393219Y41590D01*
X1388140D01*
X1385601Y44129D01*
X1400836Y41590D02*
Y51747D01*
X1403375D01*
X1405915Y49208D01*
Y41590D01*
Y49208D01*
X1408454Y51747D01*
X1410993Y49208D01*
Y41590D01*
X1416071D02*
Y51747D01*
X1418611D01*
X1421150Y49208D01*
Y41590D01*
Y49208D01*
X1423689Y51747D01*
X1426228Y49208D01*
Y41590D01*
X1324661Y84766D02*
X1327200Y87305D01*
X1332278D01*
X1334818Y84766D01*
Y74609D01*
X1332278Y72070D01*
X1327200D01*
X1324661Y74609D01*
Y84766D01*
X1342435Y69531D02*
X1344974Y72070D01*
Y74609D01*
X1342435D01*
Y72070D01*
X1344974D01*
X1342435Y69531D01*
X1339896Y66992D01*
X1355131Y84766D02*
X1357670Y87305D01*
X1362749D01*
X1365288Y84766D01*
Y74609D01*
X1362749Y72070D01*
X1357670D01*
X1355131Y74609D01*
Y84766D01*
X1370366D02*
X1372905Y87305D01*
X1377984D01*
X1380523Y84766D01*
Y82227D01*
X1377984Y79688D01*
X1380523Y77148D01*
Y74609D01*
X1377984Y72070D01*
X1372905D01*
X1370366Y74609D01*
Y77148D01*
X1372905Y79688D01*
X1370366Y82227D01*
Y84766D01*
X1372905Y79688D02*
X1377984D01*
X1385601Y84766D02*
X1388140Y87305D01*
X1393219D01*
X1395758Y84766D01*
Y74609D01*
X1393219Y72070D01*
X1388140D01*
X1385601Y74609D01*
Y84766D01*
X1400836Y72070D02*
Y82227D01*
X1403375D01*
X1405915Y79688D01*
Y72070D01*
Y79688D01*
X1408454Y82227D01*
X1410993Y79688D01*
Y72070D01*
X1416071D02*
Y82227D01*
X1418611D01*
X1421150Y79688D01*
Y72070D01*
Y79688D01*
X1423689Y82227D01*
X1426228Y79688D01*
Y72070D01*
X1324661Y115246D02*
X1327200Y117785D01*
X1332278D01*
X1334818Y115246D01*
Y105089D01*
X1332278Y102550D01*
X1327200D01*
X1324661Y105089D01*
Y115246D01*
X1342435Y100011D02*
X1344974Y102550D01*
Y105089D01*
X1342435D01*
Y102550D01*
X1344974D01*
X1342435Y100011D01*
X1339896Y97472D01*
X1355131Y115246D02*
X1357670Y117785D01*
X1362749D01*
X1365288Y115246D01*
Y105089D01*
X1362749Y102550D01*
X1357670D01*
X1355131Y105089D01*
Y115246D01*
X1370366D02*
X1372905Y117785D01*
X1377984D01*
X1380523Y115246D01*
Y112707D01*
X1377984Y110168D01*
X1375444D01*
X1377984D01*
X1380523Y107628D01*
Y105089D01*
X1377984Y102550D01*
X1372905D01*
X1370366Y105089D01*
X1395758Y117785D02*
X1385601D01*
Y110168D01*
X1390679Y112707D01*
X1393219D01*
X1395758Y110168D01*
Y105089D01*
X1393219Y102550D01*
X1388140D01*
X1385601Y105089D01*
X1400836Y102550D02*
Y112707D01*
X1403375D01*
X1405915Y110168D01*
Y102550D01*
Y110168D01*
X1408454Y112707D01*
X1410993Y110168D01*
Y102550D01*
X1416071D02*
Y112707D01*
X1418611D01*
X1421150Y110168D01*
Y102550D01*
Y110168D01*
X1423689Y112707D01*
X1426228Y110168D01*
Y102550D01*
X1324661Y145726D02*
X1327200Y148265D01*
X1332278D01*
X1334818Y145726D01*
Y135569D01*
X1332278Y133030D01*
X1327200D01*
X1324661Y135569D01*
Y145726D01*
X1342435Y130491D02*
X1344974Y133030D01*
Y135569D01*
X1342435D01*
Y133030D01*
X1344974D01*
X1342435Y130491D01*
X1339896Y127952D01*
X1362749Y133030D02*
Y148265D01*
X1355131Y140647D01*
X1365288D01*
X1370366Y145726D02*
X1372905Y148265D01*
X1377984D01*
X1380523Y145726D01*
Y135569D01*
X1377984Y133030D01*
X1372905D01*
X1370366Y135569D01*
Y145726D01*
X1385601D02*
X1388140Y148265D01*
X1393219D01*
X1395758Y145726D01*
Y135569D01*
X1393219Y133030D01*
X1388140D01*
X1385601Y135569D01*
Y145726D01*
X1400836Y133030D02*
Y143187D01*
X1403375D01*
X1405915Y140647D01*
Y133030D01*
Y140647D01*
X1408454Y143187D01*
X1410993Y140647D01*
Y133030D01*
X1416071D02*
Y143187D01*
X1418611D01*
X1421150Y140647D01*
Y133030D01*
Y140647D01*
X1423689Y143187D01*
X1426228Y140647D01*
Y133030D01*
X1324661Y176206D02*
X1327200Y178745D01*
X1332278D01*
X1334818Y176206D01*
Y166049D01*
X1332278Y163510D01*
X1327200D01*
X1324661Y166049D01*
Y176206D01*
X1342435Y160971D02*
X1344974Y163510D01*
Y166049D01*
X1342435D01*
Y163510D01*
X1344974D01*
X1342435Y160971D01*
X1339896Y158432D01*
X1355131Y176206D02*
X1357670Y178745D01*
X1362749D01*
X1365288Y176206D01*
Y166049D01*
X1362749Y163510D01*
X1357670D01*
X1355131Y166049D01*
Y176206D01*
X1380523Y178745D02*
X1370366D01*
Y171127D01*
X1375444Y173667D01*
X1377984D01*
X1380523Y171127D01*
Y166049D01*
X1377984Y163510D01*
X1372905D01*
X1370366Y166049D01*
X1395758Y178745D02*
X1385601D01*
Y171127D01*
X1390679Y173667D01*
X1393219D01*
X1395758Y171127D01*
Y166049D01*
X1393219Y163510D01*
X1388140D01*
X1385601Y166049D01*
X1400836Y163510D02*
Y173667D01*
X1403375D01*
X1405915Y171127D01*
Y163510D01*
Y171127D01*
X1408454Y173667D01*
X1410993Y171127D01*
Y163510D01*
X1416071D02*
Y173667D01*
X1418611D01*
X1421150Y171127D01*
Y163510D01*
Y171127D01*
X1423689Y173667D01*
X1426228Y171127D01*
Y163510D01*
X1324661Y206686D02*
X1327200Y209225D01*
X1332278D01*
X1334818Y206686D01*
Y196529D01*
X1332278Y193990D01*
X1327200D01*
X1324661Y196529D01*
Y206686D01*
X1342435Y191451D02*
X1344974Y193990D01*
Y196529D01*
X1342435D01*
Y193990D01*
X1344974D01*
X1342435Y191451D01*
X1339896Y188912D01*
X1355131Y206686D02*
X1357670Y209225D01*
X1362749D01*
X1365288Y206686D01*
Y196529D01*
X1362749Y193990D01*
X1357670D01*
X1355131Y196529D01*
Y206686D01*
X1370366Y193990D02*
X1375444D01*
X1372905D01*
Y209225D01*
X1370366Y206686D01*
X1383062D02*
X1385601Y209225D01*
X1390679D01*
X1393219Y206686D01*
Y196529D01*
X1390679Y193990D01*
X1385601D01*
X1383062Y196529D01*
Y206686D01*
X1398297Y193990D02*
Y204147D01*
X1400836D01*
X1403375Y201607D01*
Y193990D01*
Y201607D01*
X1405915Y204147D01*
X1408454Y201607D01*
Y193990D01*
X1413532D02*
Y204147D01*
X1416071D01*
X1418610Y201607D01*
Y193990D01*
Y201607D01*
X1421150Y204147D01*
X1423689Y201607D01*
Y193990D01*
X1499876Y267646D02*
X1497336Y270185D01*
X1492258D01*
X1489719Y267646D01*
Y257489D01*
X1492258Y254950D01*
X1497336D01*
X1499876Y257489D01*
X1507493Y254950D02*
X1512572D01*
X1515111Y257489D01*
Y262568D01*
X1512572Y265107D01*
X1507493D01*
X1504954Y262568D01*
Y257489D01*
X1507493Y254950D01*
X1520189D02*
Y265107D01*
X1527807D01*
X1530346Y262568D01*
Y254950D01*
X1535424D02*
X1543042D01*
X1545581Y257489D01*
X1543042Y260028D01*
X1537963D01*
X1535424Y262568D01*
X1537963Y265107D01*
X1545581D01*
X1553198Y267646D02*
Y265107D01*
X1550659D01*
X1555738D01*
X1553198D01*
Y257489D01*
X1555738Y254950D01*
X1565894Y265107D02*
X1570973D01*
X1573512Y262568D01*
Y254950D01*
X1565894D01*
X1563355Y257489D01*
X1565894Y260028D01*
X1573512D01*
X1578590Y254950D02*
Y265107D01*
X1586208D01*
X1588747Y262568D01*
Y254950D01*
X1596364Y267646D02*
Y265107D01*
X1593825D01*
X1598904D01*
X1596364D01*
Y257489D01*
X1598904Y254950D01*
X1489719Y-37154D02*
X1492258Y-34615D01*
X1497336D01*
X1499876Y-37154D01*
Y-39693D01*
X1497336Y-42232D01*
X1494797D01*
X1497336D01*
X1499876Y-44772D01*
Y-47311D01*
X1497336Y-49850D01*
X1492258D01*
X1489719Y-47311D01*
X1504954Y-49850D02*
Y-47311D01*
X1507493D01*
Y-49850D01*
X1504954D01*
X1527807Y-34615D02*
X1517650D01*
Y-42232D01*
X1522728Y-39693D01*
X1525267D01*
X1527807Y-42232D01*
Y-47311D01*
X1525267Y-49850D01*
X1520189D01*
X1517650Y-47311D01*
X1497336Y11110D02*
Y26345D01*
X1489719Y18728D01*
X1499876D01*
X1504954Y11110D02*
Y13649D01*
X1507493D01*
Y11110D01*
X1504954D01*
X1517650Y23806D02*
X1520189Y26345D01*
X1525267D01*
X1527807Y23806D01*
Y21267D01*
X1525267Y18728D01*
X1522728D01*
X1525267D01*
X1527807Y16188D01*
Y13649D01*
X1525267Y11110D01*
X1520189D01*
X1517650Y13649D01*
X1497336Y72070D02*
Y87305D01*
X1489719Y79688D01*
X1499876D01*
X1504954Y72070D02*
Y74609D01*
X1507493D01*
Y72070D01*
X1504954D01*
X1527807D02*
X1517650D01*
X1527807Y82227D01*
Y84766D01*
X1525267Y87305D01*
X1520189D01*
X1517650Y84766D01*
X1497336Y133030D02*
Y148265D01*
X1489719Y140647D01*
X1499876D01*
X1504954Y133030D02*
Y135569D01*
X1507493D01*
Y133030D01*
X1504954D01*
X1517650Y145726D02*
X1520189Y148265D01*
X1525267D01*
X1527807Y145726D01*
Y143187D01*
X1525267Y140647D01*
X1522728D01*
X1525267D01*
X1527807Y138108D01*
Y135569D01*
X1525267Y133030D01*
X1520189D01*
X1517650Y135569D01*
X1489719Y206686D02*
X1492258Y209225D01*
X1497336D01*
X1499876Y206686D01*
Y204147D01*
X1497336Y201607D01*
X1494797D01*
X1497336D01*
X1499876Y199068D01*
Y196529D01*
X1497336Y193990D01*
X1492258D01*
X1489719Y196529D01*
X1504954Y193990D02*
Y196529D01*
X1507493D01*
Y193990D01*
X1504954D01*
X1527807Y209225D02*
X1517650D01*
Y201607D01*
X1522728Y204147D01*
X1525267D01*
X1527807Y201607D01*
Y196529D01*
X1525267Y193990D01*
X1520189D01*
X1517650Y196529D01*
D11*
X294250Y139022D02*
Y139022D01*
Y113800D02*
Y139022D01*
X258751Y207750D02*
X282730Y183772D01*
X294250Y113800D02*
X312775Y95275D01*
X285615Y147657D02*
X285615Y147657D01*
X285615Y147657D02*
X294250Y139022D01*
X282730Y150542D02*
X285615Y147657D01*
X282730Y150542D02*
Y183772D01*
X311528Y107750D02*
X338250D01*
X286230Y151992D02*
X297750Y140472D01*
Y121528D02*
X311528Y107750D01*
X297750Y121528D02*
Y140472D01*
X286230Y151992D02*
Y185221D01*
X260201Y211250D02*
X286230Y185221D01*
X317763Y148500D02*
X330250D01*
X261651Y214750D02*
X312000Y164401D01*
Y154263D02*
X317763Y148500D01*
X312000Y154263D02*
Y164401D01*
X372500Y107500D02*
X399500D01*
X369750Y110250D02*
Y164800D01*
Y110250D02*
X372500Y107500D01*
X366250Y76500D02*
Y163351D01*
X375000Y67750D02*
X404222D01*
X366250Y76500D02*
X375000Y67750D01*
X375500Y57500D02*
X385500D01*
X362750Y70250D02*
Y161901D01*
Y70250D02*
X375500Y57500D01*
X404222Y67750D02*
X409007Y62965D01*
X409135D01*
X417100Y55000D01*
Y44600D02*
Y55000D01*
X410000Y37500D02*
X417100Y44600D01*
X402000Y37500D02*
X410000D01*
X374500D02*
Y47750D01*
X396500D01*
X367500D02*
X374500D01*
X361500Y53750D02*
X367500Y47750D01*
X396500D02*
X399500Y50750D01*
Y57500D01*
X317351Y164000D02*
X360651D01*
X362750Y161901D01*
X263100Y218250D02*
X317351Y164000D01*
X246000Y218250D02*
X263100D01*
X233500Y230750D02*
X246000Y218250D01*
X318851Y167500D02*
X362101D01*
X366250Y163351D01*
X363550Y171000D02*
X369750Y164800D01*
X320300Y171000D02*
X363550D01*
X379264Y146500D02*
X407500D01*
X373250Y152514D02*
X379264Y146500D01*
X373250Y152514D02*
Y166250D01*
X365000Y174500D02*
X373250Y166250D01*
X321750Y174500D02*
X365000D01*
X318407Y57500D02*
X323000D01*
X315500Y54750D02*
X315657D01*
X318407Y57500D01*
X332750Y15000D02*
Y43035D01*
X337000Y47285D01*
Y57500D01*
X220918Y233668D02*
X222375Y235125D01*
X219250Y226332D02*
X220918Y228000D01*
X219250Y225250D02*
Y226332D01*
X220918Y228000D02*
Y233668D01*
X484450Y173750D02*
X522750D01*
X452000Y125000D02*
X469625Y142625D01*
Y158925D01*
X484450Y173750D01*
X483250Y177500D02*
X511250D01*
X455000Y134250D02*
X466125Y145375D01*
Y160375D02*
X483250Y177500D01*
X466125Y145375D02*
Y160375D01*
X320250Y87750D02*
X338000D01*
X312750Y95250D02*
X320250Y87750D01*
X186500Y202750D02*
X196500Y212750D01*
X241651Y207750D02*
X258751D01*
X236651Y212750D02*
X241651Y207750D01*
X196500Y212750D02*
X236651D01*
X175500Y203000D02*
X188750Y216250D01*
X243100Y211250D02*
X260201D01*
X238100Y216250D02*
X243100Y211250D01*
X188750Y216250D02*
X238100D01*
X244550Y214750D02*
X261651D01*
X181000Y219750D02*
X239550D01*
X241650Y217650D02*
X244550Y214750D01*
X239550Y219750D02*
X241650Y217650D01*
X164500Y203250D02*
X181000Y219750D01*
X250500Y221750D02*
X264550D01*
X241500Y230750D02*
X250500Y221750D01*
X264550D02*
X313800Y172500D01*
X279875Y211375D02*
X315250Y176000D01*
X266000Y225250D02*
X279875Y211375D01*
Y211375D02*
Y211375D01*
X252500Y230750D02*
X252907D01*
X258407Y225250D01*
X266000D01*
X264000Y230750D02*
X264250Y230500D01*
X280750Y215500D02*
X321750Y174500D01*
X265000Y231250D02*
X265500Y230750D01*
X275250D01*
X280750Y225250D01*
Y215500D02*
Y225250D01*
X173420Y245000D02*
X233500D01*
X173310Y245110D02*
X173420Y245000D01*
X58250Y147500D02*
X64500D01*
X432000Y125000D02*
X452000D01*
X414750Y81750D02*
Y134250D01*
X455000D01*
X414750D02*
Y139250D01*
X407500Y146500D02*
X414750Y139250D01*
X342750Y149250D02*
X348750Y143250D01*
X342750Y149250D02*
Y157250D01*
X343000Y157500D01*
X134125Y120500D02*
X144625Y110000D01*
X145000D01*
X133750Y120500D02*
X134125D01*
X143918Y145418D02*
X145000Y146500D01*
X136918Y145418D02*
X143918D01*
X134000Y142500D02*
X136918Y145418D01*
X134000Y153750D02*
X145000Y164750D01*
X134000Y153500D02*
Y153750D01*
X145000Y164750D02*
Y165000D01*
X511250Y177500D02*
X515000Y181250D01*
Y188000D01*
X522750Y173750D02*
X527500Y178500D01*
Y188000D01*
X402000Y97500D02*
X402250Y97250D01*
X408000D01*
X402000Y77500D02*
X410500D01*
X414750Y81750D01*
X402625Y118125D02*
Y126375D01*
X402000Y117500D02*
X402625Y118125D01*
Y126375D02*
X403250Y127000D01*
X367500Y27500D02*
X372250D01*
X374500Y25250D01*
Y17500D02*
Y25250D01*
X423000Y95000D02*
X423000Y95000D01*
X395750Y137500D02*
X402000D01*
X402000Y137500D01*
X414500Y6250D02*
X429800Y21550D01*
Y55000D01*
X402000Y97500D02*
Y105000D01*
X399500Y107500D02*
X402000Y105000D01*
X363750Y6250D02*
X414500D01*
X360500Y9500D02*
Y17500D01*
Y9500D02*
X363750Y6250D01*
X360500Y17500D02*
Y37500D01*
X379750Y17500D02*
X388000Y25750D01*
Y37500D01*
X374500Y17500D02*
X379750D01*
X388000Y77500D02*
Y85250D01*
X384750Y88500D02*
X388000Y85250D01*
X380000Y88500D02*
X384750D01*
X383500Y97500D02*
X388000D01*
X379750Y101250D02*
X383500Y97500D01*
X380000Y113750D02*
X383750Y117500D01*
X388000D01*
X386000Y126500D02*
X388000Y128500D01*
Y137500D01*
X380250Y126500D02*
X386000D01*
X337000Y57500D02*
X337000Y57500D01*
X330750Y57500D02*
X337000D01*
X339500Y19250D02*
Y37500D01*
X349750D02*
X350000D01*
X339500D02*
X349750D01*
X336500Y265250D02*
X420000D01*
X326750Y241750D02*
Y255500D01*
X336500Y265250D01*
X297500Y67500D02*
X337000D01*
X290000Y75000D02*
X297500Y67500D01*
X339500Y70000D02*
Y77500D01*
X337000Y67500D02*
X339500Y70000D01*
X313800Y172500D02*
X313851D01*
X315250Y176000D02*
X315300D01*
X313851Y172500D02*
X318851Y167500D01*
X315300Y176000D02*
X320300Y171000D01*
X330250Y148500D02*
X332750Y146000D01*
Y139500D02*
Y146000D01*
Y139500D02*
X334750Y137500D01*
X339500D01*
X233500Y245000D02*
X240000Y251500D01*
X338250Y107750D02*
X339500Y109000D01*
Y117500D01*
X338000Y87750D02*
X339500Y89250D01*
Y97500D01*
X313750Y37500D02*
X325500D01*
X323000Y57500D02*
X323000Y57500D01*
X319500Y77500D02*
X325500D01*
X325500Y97500D02*
X325500Y97500D01*
X319250Y97500D02*
X325500D01*
X317250Y113750D02*
X321000Y117500D01*
X325500D01*
X323250Y126250D02*
X325500Y128500D01*
Y137500D01*
X317250Y126250D02*
X323250D01*
X0Y127250D02*
Y262975D01*
Y280000D01*
Y127250D02*
X30000D01*
Y77750D02*
Y127250D01*
X0Y77750D02*
X30000D01*
X0Y0D02*
Y77750D01*
Y280000D02*
X650000D01*
Y0D02*
Y280000D01*
X0Y0D02*
X650000D01*
D12*
X254500Y174750D02*
X256850Y172400D01*
X254500Y174750D02*
Y175500D01*
X256850Y172400D02*
X259640D01*
X254500Y164500D02*
Y165250D01*
X256850Y167600D01*
X259640D01*
X224719Y167600D02*
X243150D01*
X175742D02*
X224719D01*
X225000Y160000D02*
Y167319D01*
X224719Y167600D02*
X225000Y167319D01*
X224947Y172400D02*
X243150D01*
X177730D02*
X224947D01*
X225000Y172453D01*
Y180000D01*
X243150Y167600D02*
X245500Y165250D01*
X135742Y207600D02*
X175742Y167600D01*
X137730Y212400D02*
X177730Y172400D01*
X243150D02*
X245500Y174750D01*
X85850Y212400D02*
X137730D01*
X82500Y215750D02*
Y216250D01*
Y215750D02*
X85850Y212400D01*
X79150D02*
X82500Y215750D01*
X245500Y174750D02*
Y175500D01*
X67390Y212400D02*
X79150D01*
X85850Y207600D02*
X135742D01*
X82500Y204250D02*
X85850Y207600D01*
X82500Y203750D02*
Y204250D01*
X245500Y164500D02*
Y165250D01*
X67390Y207600D02*
X79150D01*
X82500Y204250D01*
X390000Y184500D02*
X394796D01*
X405796Y195500D02*
X410000D01*
X394796Y184500D02*
X405796Y195500D01*
X134250Y58500D02*
X138750Y63000D01*
X122500Y58000D02*
X123000Y58500D01*
X134250D01*
X138750Y63000D02*
X149500D01*
X152250Y65750D01*
Y76750D01*
X140250Y80750D02*
X148250D01*
X152250Y76750D01*
X106000Y115000D02*
X140250Y80750D01*
X58250Y58000D02*
X70000D01*
X57000Y59250D02*
Y62500D01*
Y59250D02*
X58250Y58000D01*
X70000Y50500D02*
Y58000D01*
Y24750D02*
Y50500D01*
X67000Y21750D02*
X70000Y24750D01*
X67000Y9757D02*
Y21750D01*
Y9757D02*
X73257Y3500D01*
X103750D01*
X108500Y8250D02*
Y29750D01*
X103750Y3500D02*
X108500Y8250D01*
X110750Y32000D02*
X122500D01*
X108500Y29750D02*
X110750Y32000D01*
X122500D02*
Y40500D01*
Y49500D02*
Y58000D01*
X116000Y49500D02*
X122500D01*
X106750Y50500D02*
X115000D01*
X116000Y49500D01*
X101250Y41500D02*
Y45000D01*
X106750Y50500D01*
X97750Y38000D02*
X101250Y41500D01*
X87500Y38000D02*
X97750D01*
X77500Y30500D02*
X85750Y22250D01*
X97000D01*
X77500Y30500D02*
Y46000D01*
X89500Y58000D02*
X105000D01*
X77500Y46000D02*
X89500Y58000D01*
X97000Y12000D02*
Y22250D01*
X78000Y12000D02*
X86250D01*
X460000Y87000D02*
X470250D01*
X410500Y69250D02*
X423000Y81750D01*
Y95000D01*
X432000Y95000D02*
Y101750D01*
X434500Y104250D01*
Y112500D01*
X485750Y198750D02*
Y241250D01*
X479500Y192500D02*
X485750Y198750D01*
X440000Y251000D02*
X476000D01*
X485750Y241250D01*
X479500Y186000D02*
Y192500D01*
X527500Y197000D02*
Y206500D01*
X532600Y211600D01*
X547700D01*
X510000Y223000D02*
X515000Y218000D01*
Y197000D02*
Y218000D01*
X510000Y223000D02*
Y250100D01*
X522300Y262400D01*
X472000Y225000D02*
X479500Y217500D01*
Y209000D02*
Y217500D01*
X447000Y225000D02*
X472000D01*
X155000Y263500D02*
X155757D01*
X158257Y266000D01*
X200000D01*
X134250Y131500D02*
X135062D01*
X137500Y129062D02*
X143438D01*
X135062Y131500D02*
X137500Y129062D01*
X143438D02*
X145000Y127500D01*
D15*
X748227Y247330D02*
X1616684D01*
X748227Y277810D02*
X1616684D01*
X748227Y-87950D02*
Y277810D01*
Y-87950D02*
X852345D01*
X748227Y-57470D02*
X852345D01*
X748227Y-26990D02*
X852345D01*
X748227Y3490D02*
X852345D01*
X748227Y33970D02*
X852345D01*
X748227Y64450D02*
X852345D01*
X748227Y94930D02*
X852345D01*
X748227Y125410D02*
X852345D01*
X748227Y155890D02*
X852345D01*
X748227Y186370D02*
X852345D01*
X748227Y216850D02*
X852345D01*
Y-87950D02*
Y277810D01*
Y-87950D02*
X1088500D01*
X852345Y-57470D02*
X1088500D01*
X852345Y-26990D02*
X1088500D01*
X852345Y3490D02*
X1088500D01*
X852345Y33970D02*
X1088500D01*
X852345Y64450D02*
X1088500D01*
X852345Y94930D02*
X1088500D01*
X852345Y125410D02*
X1088500D01*
X852345Y155890D02*
X1088500D01*
X852345Y186370D02*
X1088500D01*
X852345Y216850D02*
X1088500D01*
Y-87950D02*
Y277810D01*
Y-87950D02*
X1306881D01*
X1088500Y-57470D02*
X1306881D01*
X1088500Y-26990D02*
X1306881D01*
X1088500Y3490D02*
X1306881D01*
X1088500Y33970D02*
X1306881D01*
X1088500Y64450D02*
X1306881D01*
X1088500Y94930D02*
X1306881D01*
X1088500Y125410D02*
X1306881D01*
X1088500Y155890D02*
X1306881D01*
X1088500Y186370D02*
X1306881D01*
X1088500Y216850D02*
X1306881D01*
Y-87950D02*
Y277810D01*
Y-87950D02*
X1471939D01*
X1306881Y-57470D02*
X1471939D01*
X1306881Y-26990D02*
X1471939D01*
X1306881Y3490D02*
X1471939D01*
X1306881Y33970D02*
X1471939D01*
X1306881Y64450D02*
X1471939D01*
X1306881Y94930D02*
X1471939D01*
X1306881Y125410D02*
X1471939D01*
X1306881Y155890D02*
X1471939D01*
X1306881Y186370D02*
X1471939D01*
X1306881Y216850D02*
X1471939D01*
Y-87950D02*
Y277810D01*
Y-87950D02*
X1616684D01*
X1471939Y-57470D02*
X1616684D01*
X1471939Y-26990D02*
X1616684D01*
X1471939Y3490D02*
X1616684D01*
X1471939Y33970D02*
X1616684D01*
X1471939Y64450D02*
X1616684D01*
X1471939Y94930D02*
X1616684D01*
X1471939Y125410D02*
X1616684D01*
X1471939Y155890D02*
X1616684D01*
X1471939Y186370D02*
X1616684D01*
X1471939Y216850D02*
X1616684D01*
Y-87950D02*
Y277810D01*
D23*
X254500Y175500D02*
D03*
X245500D02*
D03*
X254500Y164500D02*
D03*
X245500D02*
D03*
X432000Y95000D02*
D03*
X423000D02*
D03*
D24*
X267500Y157000D02*
D03*
Y148000D02*
D03*
X252500Y110500D02*
D03*
Y119500D02*
D03*
X515000Y188000D02*
D03*
Y197000D02*
D03*
X527500Y188000D02*
D03*
Y197000D02*
D03*
X122500Y40500D02*
D03*
Y49500D02*
D03*
D26*
X255000Y149500D02*
D03*
Y135500D02*
D03*
X123000Y58500D02*
D03*
Y72500D02*
D03*
X70000Y58000D02*
D03*
Y72000D02*
D03*
X427500Y202000D02*
D03*
Y188000D02*
D03*
X252500Y99500D02*
D03*
Y85500D02*
D03*
X410000Y195500D02*
D03*
Y209500D02*
D03*
X122500Y18000D02*
D03*
Y32000D02*
D03*
X237500Y149500D02*
D03*
Y135500D02*
D03*
X105000Y58000D02*
D03*
Y72000D02*
D03*
X445000Y202000D02*
D03*
Y188000D02*
D03*
D27*
X82500Y191250D02*
D03*
Y203750D02*
D03*
Y228750D02*
D03*
Y216250D02*
D03*
D28*
X129500Y237500D02*
D03*
X115500D02*
D03*
X385500Y57500D02*
D03*
X399500D02*
D03*
X402000Y37500D02*
D03*
X388000D02*
D03*
X374500Y17500D02*
D03*
X360500D02*
D03*
X374500Y37500D02*
D03*
X360500D02*
D03*
X434500Y112500D02*
D03*
X420500D02*
D03*
X50500Y147500D02*
D03*
X64500D02*
D03*
X57000Y62500D02*
D03*
X43000D02*
D03*
X325500Y137500D02*
D03*
X339500D02*
D03*
X325500Y117500D02*
D03*
X339500D02*
D03*
X325500Y97500D02*
D03*
X339500D02*
D03*
X325500Y77500D02*
D03*
X339500D02*
D03*
X323000Y57500D02*
D03*
X337000D02*
D03*
X325500Y37500D02*
D03*
X339500D02*
D03*
X402000Y137500D02*
D03*
X388000D02*
D03*
X402000Y117500D02*
D03*
X388000D02*
D03*
X402000Y97500D02*
D03*
X388000D02*
D03*
X402000Y77500D02*
D03*
X388000D02*
D03*
X447000Y225000D02*
D03*
X433000D02*
D03*
D34*
X450500Y113000D02*
D03*
X469500D02*
D03*
X460000Y87000D02*
D03*
X97000Y12000D02*
D03*
X78000D02*
D03*
X87500Y38000D02*
D03*
D40*
X47300Y238900D02*
D03*
Y181100D02*
D03*
D41*
X52300Y166800D02*
D03*
Y253200D02*
D03*
D42*
X10500Y166800D02*
D03*
Y253200D02*
D03*
D43*
X346330Y53248D02*
D03*
Y186748D02*
D03*
X408830Y53248D02*
D03*
Y186748D02*
D03*
D44*
X354800Y225000D02*
D03*
X294800D02*
D03*
X455200Y55000D02*
D03*
X429800Y162500D02*
D03*
D45*
X380200Y225000D02*
D03*
X320200D02*
D03*
X429800Y55000D02*
D03*
X455200Y162500D02*
D03*
D46*
X471500Y237000D02*
D03*
X573100D02*
D03*
X547700D02*
D03*
X522300D02*
D03*
X496900D02*
D03*
Y43000D02*
D03*
X598500D02*
D03*
X573100D02*
D03*
X547700D02*
D03*
X522300D02*
D03*
D47*
X471500Y262400D02*
D03*
X522300D02*
D03*
X496900Y211600D02*
D03*
X547700D02*
D03*
X496900Y68400D02*
D03*
X547700D02*
D03*
X522300Y17600D02*
D03*
X573100D02*
D03*
D48*
Y262400D02*
D03*
X598500Y68400D02*
D03*
D49*
X601000Y122500D02*
D03*
D50*
Y157500D02*
D03*
D51*
X35000Y25000D02*
D03*
X615000Y255000D02*
D03*
D54*
X410000Y230500D02*
X429500Y250000D01*
X410000Y209500D02*
Y230500D01*
X368250Y195500D02*
X395750D01*
X401750Y209500D02*
X410000D01*
X399000Y206750D02*
X401750Y209500D01*
X399000Y198750D02*
Y206750D01*
X395750Y195500D02*
X399000Y198750D01*
X259500Y157000D02*
X267500D01*
X237526Y155281D02*
X237552Y155307D01*
X237526Y149526D02*
Y155281D01*
X237500Y149500D02*
X237526Y149526D01*
X261500Y149500D02*
X263000Y148000D01*
X267500D01*
X255000Y149500D02*
X261500D01*
X139750Y237500D02*
X156750Y254500D01*
X178990D01*
X182490Y258000D01*
X82500Y191250D02*
X89500D01*
X79730Y239979D02*
Y240250D01*
X82500Y228750D02*
Y237209D01*
X79730Y239979D02*
X82500Y237209D01*
X108750Y225000D02*
X116250D01*
X115500Y237500D02*
X115625Y237375D01*
X121375D01*
X121500Y237250D01*
X129250Y225500D02*
Y237250D01*
X128750Y225000D02*
X129250Y225500D01*
Y237250D02*
X129500Y237500D01*
X139750D01*
X50500Y145250D02*
Y147500D01*
Y144250D02*
Y145250D01*
X47691Y141441D02*
X50500Y144250D01*
X44500Y141250D02*
X44691Y141441D01*
X47691D01*
X50250Y145000D02*
X50500Y145250D01*
X115500Y237500D02*
Y240521D01*
X115750Y240771D01*
X182490Y258000D02*
X209500D01*
X222500D01*
X227000Y262500D01*
X313250D02*
X325250Y274500D01*
X227000Y262500D02*
X313250D01*
X325250Y274500D02*
X424500D01*
X429500Y250000D02*
Y258250D01*
X424500Y274500D02*
X429500Y269500D01*
Y258250D02*
Y269500D01*
X252500Y99500D02*
X260479D01*
X261229Y98750D01*
X261500D01*
X252500Y99500D02*
Y110500D01*
X122500Y11750D02*
Y18000D01*
X368250Y183500D02*
Y195500D01*
X449750Y144250D02*
X455200Y149700D01*
Y162500D01*
X417750Y144250D02*
X449750D01*
X389000Y173000D02*
X417750Y144250D01*
X378750Y173000D02*
X389000D01*
X368250Y183500D02*
X378750Y173000D01*
X337500Y195500D02*
X368250D01*
X324500Y182500D02*
X337500Y195500D01*
X322000Y157500D02*
X322064Y157564D01*
X330058D02*
X330122Y157628D01*
X322064Y157564D02*
X330058D01*
X240230Y83500D02*
X240500D01*
X242500Y85500D02*
X252500D01*
X240500Y83500D02*
X242500Y85500D01*
X434500Y112750D02*
X434750Y113000D01*
X450500D01*
X434500Y112500D02*
Y112750D01*
X450500Y113000D02*
X469500D01*
X481000D01*
X485000Y109000D01*
Y98750D02*
Y109000D01*
Y98750D02*
X488750Y95000D01*
X500000D01*
X123000Y72500D02*
X135229D01*
X135729Y72000D02*
X136000D01*
X135229Y72500D02*
X135729Y72000D01*
X394750Y216000D02*
Y233000D01*
X400250Y238500D01*
Y250000D01*
X237500Y149500D02*
X255000D01*
X237500Y135500D02*
X255000D01*
X390000Y211250D02*
X394750Y216000D01*
X390000Y205500D02*
Y211250D01*
X427500Y181750D02*
Y188000D01*
X420500Y120196D02*
Y122770D01*
X420500Y120196D02*
X420500Y120196D01*
X420500Y112500D02*
Y120196D01*
X237228Y115000D02*
X241428D01*
X245929Y119500D01*
X252500D01*
X227230Y135500D02*
X229804D01*
X229804Y135500D01*
X237500D01*
X515000Y78230D02*
Y80804D01*
X515000Y80804D02*
X515000Y80804D01*
X515000Y80804D02*
Y95000D01*
X77696Y72000D02*
X80270D01*
X77696Y72000D02*
X77696Y72000D01*
X70000Y72000D02*
X77696D01*
X94730Y72000D02*
X97304D01*
X97304Y72000D01*
X105000D01*
X470000Y176980D02*
Y179554D01*
X470000Y179554D02*
X470000Y179554D01*
X470000Y179554D02*
Y186000D01*
X433000Y232696D02*
Y235270D01*
X433000Y232696D02*
X433000Y232696D01*
X433000Y225000D02*
Y232696D01*
D55*
X52500Y52000D02*
X62750Y41750D01*
X46500Y52000D02*
X52500D01*
X43000Y55500D02*
X46500Y52000D01*
X43000Y55500D02*
Y62500D01*
D57*
X545000Y140000D02*
D03*
X540000Y132500D02*
D03*
X550000D02*
D03*
Y147500D02*
D03*
X540000D02*
D03*
X261250Y173750D02*
D03*
Y166250D02*
D03*
X68250Y213750D02*
D03*
Y206250D02*
D03*
X76000Y249000D02*
D03*
X68000Y186000D02*
D03*
X71250Y171500D02*
D03*
X68000Y234000D02*
D03*
X77652Y124096D02*
D03*
X78098Y117111D02*
D03*
X77341Y110152D02*
D03*
X70341D02*
D03*
X64250Y114250D02*
D03*
X57530Y114348D02*
D03*
X50530D02*
D03*
X43530D02*
D03*
X36530D02*
D03*
X37731Y90652D02*
D03*
X44731D02*
D03*
X51731D02*
D03*
X58731D02*
D03*
X65677Y91525D02*
D03*
X72082Y94348D02*
D03*
X79082D02*
D03*
X92853Y94477D02*
D03*
X94598Y101256D02*
D03*
X109616Y183402D02*
D03*
X102618Y183264D02*
D03*
X95809Y181638D02*
D03*
X89817Y178020D02*
D03*
X84966Y172973D02*
D03*
X81322Y166996D02*
D03*
X79044Y160378D02*
D03*
X78105Y153441D02*
D03*
X78098Y146441D02*
D03*
Y139441D02*
D03*
X77652Y132455D02*
D03*
X94500Y125250D02*
D03*
Y134250D02*
D03*
X93902Y149185D02*
D03*
X94237Y156177D02*
D03*
X96975Y162619D02*
D03*
X102292Y167172D02*
D03*
X109279Y167598D02*
D03*
X135490Y170958D02*
D03*
X135598Y177957D02*
D03*
X315500Y54750D02*
D03*
X361500Y53750D02*
D03*
X259500Y157000D02*
D03*
X237552Y155307D02*
D03*
X582500Y120000D02*
D03*
X507770Y115500D02*
D03*
X233500Y230750D02*
D03*
X241500D02*
D03*
X252500D02*
D03*
X264000D02*
D03*
X208250Y233000D02*
D03*
X7500Y7500D02*
D03*
Y50000D02*
D03*
X437500Y7500D02*
D03*
X460000D02*
D03*
X482500D02*
D03*
X505000D02*
D03*
X535000D02*
D03*
X557500D02*
D03*
X597500D02*
D03*
X615000D02*
D03*
X635000D02*
D03*
X642500Y17500D02*
D03*
Y37500D02*
D03*
Y57500D02*
D03*
Y75000D02*
D03*
Y92500D02*
D03*
Y127500D02*
D03*
Y145000D02*
D03*
Y200000D02*
D03*
Y217500D02*
D03*
Y235000D02*
D03*
Y272500D02*
D03*
X555000Y265000D02*
D03*
X540000D02*
D03*
X502500D02*
D03*
X487500D02*
D03*
X173310Y245110D02*
D03*
X197070Y226370D02*
D03*
X62750Y41750D02*
D03*
X89500Y191250D02*
D03*
X108750Y225000D02*
D03*
X121500Y237250D02*
D03*
X44500Y141250D02*
D03*
X58250Y147500D02*
D03*
X209500Y258000D02*
D03*
X429500Y258250D02*
D03*
X621000Y221000D02*
D03*
Y196000D02*
D03*
Y146000D02*
D03*
Y121000D02*
D03*
Y71000D02*
D03*
Y46000D02*
D03*
Y21000D02*
D03*
X596000Y221000D02*
D03*
Y196000D02*
D03*
Y96000D02*
D03*
Y21000D02*
D03*
X571000Y221000D02*
D03*
Y196000D02*
D03*
Y96000D02*
D03*
Y71000D02*
D03*
X546000Y196000D02*
D03*
Y121000D02*
D03*
Y96000D02*
D03*
Y21000D02*
D03*
X521000Y221000D02*
D03*
Y71000D02*
D03*
X496000Y21000D02*
D03*
X471000Y71000D02*
D03*
Y46000D02*
D03*
Y21000D02*
D03*
X446000Y96000D02*
D03*
Y21000D02*
D03*
X421000Y221000D02*
D03*
X371000Y246000D02*
D03*
X296000D02*
D03*
Y46000D02*
D03*
X271000Y246000D02*
D03*
X246000D02*
D03*
X196000Y96000D02*
D03*
Y71000D02*
D03*
X21000D02*
D03*
X36000Y141250D02*
D03*
X66500Y130500D02*
D03*
X106000Y115000D02*
D03*
X477500Y140000D02*
D03*
X485000D02*
D03*
X477500Y147500D02*
D03*
Y155000D02*
D03*
X220000Y250750D02*
D03*
X261500Y98750D02*
D03*
X260750Y109500D02*
D03*
X122500Y11750D02*
D03*
X380750Y183500D02*
D03*
X324500Y182500D02*
D03*
X330122Y157628D02*
D03*
X348750Y143250D02*
D03*
X70000Y50500D02*
D03*
X97000Y22250D02*
D03*
X86250Y12000D02*
D03*
X133750Y120500D02*
D03*
X134000Y142500D02*
D03*
X155750Y167500D02*
D03*
X134000Y153500D02*
D03*
X432000Y125000D02*
D03*
X408000Y97250D02*
D03*
X403250Y127000D02*
D03*
X470250Y87000D02*
D03*
X410500Y69250D02*
D03*
X367500Y27500D02*
D03*
X395750Y137500D02*
D03*
X383250Y153250D02*
D03*
X136000Y72000D02*
D03*
X440000Y251000D02*
D03*
X380000Y88500D02*
D03*
X379750Y101250D02*
D03*
X380000Y113750D02*
D03*
X380250Y126500D02*
D03*
X332750Y15000D02*
D03*
X330750Y57500D02*
D03*
X339500Y19250D02*
D03*
X349750Y37500D02*
D03*
X326750Y241750D02*
D03*
X290000Y75000D02*
D03*
X420000Y265250D02*
D03*
X380000Y251000D02*
D03*
X400250Y250000D02*
D03*
X260750Y189000D02*
D03*
X240000Y251500D02*
D03*
X219250Y225250D02*
D03*
X186500Y202750D02*
D03*
X175500Y203000D02*
D03*
X200000Y266000D02*
D03*
X155000Y263500D02*
D03*
X114500Y267250D02*
D03*
X130500Y267500D02*
D03*
X164500Y203250D02*
D03*
X313750Y37500D02*
D03*
X319500Y77500D02*
D03*
X319250Y97500D02*
D03*
X317250Y113750D02*
D03*
Y126250D02*
D03*
X427500Y181750D02*
D03*
X283000Y142000D02*
D03*
X134250Y131500D02*
D03*
X26250Y61750D02*
D03*
X12000Y61500D02*
D03*
X197500Y203000D02*
D03*
X155000Y241750D02*
D03*
X292000Y163500D02*
D03*
X134000Y164500D02*
D03*
X420500Y122770D02*
D03*
X237228Y115000D02*
D03*
X227230Y135500D02*
D03*
X515000Y78230D02*
D03*
X80270Y72000D02*
D03*
X94730D02*
D03*
X470000Y176980D02*
D03*
X433000Y235270D02*
D03*
X79730Y240250D02*
D03*
X380770Y163750D02*
D03*
X525270Y115500D02*
D03*
X86000Y81480D02*
D03*
X291730Y176250D02*
D03*
X134770Y186500D02*
D03*
X111230Y65500D02*
D03*
Y43500D02*
D03*
X283770Y87500D02*
D03*
X145000Y178730D02*
D03*
X240230Y188500D02*
D03*
X208000Y157730D02*
D03*
X187000D02*
D03*
X166000D02*
D03*
Y136730D02*
D03*
X187000D02*
D03*
X208000D02*
D03*
X219230Y146500D02*
D03*
X240230Y125500D02*
D03*
X219230D02*
D03*
X196770D02*
D03*
X175770D02*
D03*
X154770Y104500D02*
D03*
X166000Y114270D02*
D03*
X187000D02*
D03*
X208000D02*
D03*
X229000D02*
D03*
X240230Y104500D02*
D03*
Y83500D02*
D03*
X229000Y93270D02*
D03*
X208000D02*
D03*
X187000D02*
D03*
X166000D02*
D03*
X145000D02*
D03*
Y72270D02*
D03*
X166000D02*
D03*
X187000D02*
D03*
X208000D02*
D03*
X229000D02*
D03*
X250000D02*
D03*
Y51270D02*
D03*
X229000D02*
D03*
X208000D02*
D03*
X187000D02*
D03*
X166000D02*
D03*
X145000D02*
D03*
D58*
X572500Y130000D02*
D03*
Y150000D02*
D03*
D59*
X630000Y106500D02*
D03*
Y173500D02*
D03*
D60*
X128750Y225000D02*
D03*
X116250D02*
D03*
D61*
X390000Y184500D02*
D03*
Y205500D02*
D03*
D62*
X322000Y157500D02*
D03*
X343000D02*
D03*
D63*
X145000Y110000D02*
D03*
Y127500D02*
D03*
X145000Y146500D02*
D03*
X145000Y165000D02*
D03*
X222500Y235000D02*
D03*
X225000Y160000D02*
D03*
Y180000D02*
D03*
D64*
X479500Y186000D02*
D03*
X470000D02*
D03*
X460500D02*
D03*
X479500Y209000D02*
D03*
X460500D02*
D03*
D65*
X500000Y95000D02*
D03*
X515000D02*
D03*
D66*
X582500Y156250D02*
D03*
M02*
