G75*
%MOIN*%
%OFA0B0*%
%FSLAX24Y24*%
%IPPOS*%
%LPD*%
%AMOC8*
5,1,8,0,0,1.08239X$1,22.5*
%
%ADD10C,0.1339*%
%ADD11R,0.0512X0.0591*%
%ADD12R,0.0748X0.0827*%
%ADD13R,0.0827X0.0748*%
%ADD14R,0.0630X0.0787*%
%ADD15R,0.0827X0.0394*%
%ADD16R,0.0512X0.0354*%
%ADD17R,0.0551X0.0780*%
%ADD18R,0.0591X0.0512*%
%ADD19R,0.1004X0.1220*%
%ADD20C,0.0736*%
%ADD21C,0.0896*%
%ADD22C,0.0996*%
%ADD23C,0.1236*%
%ADD24R,0.0394X0.0512*%
%ADD25R,0.0945X0.0866*%
%ADD26C,0.0768*%
%ADD27C,0.1004*%
%ADD28OC8,0.0827*%
%ADD29C,0.0827*%
%ADD30R,0.0925X0.0807*%
%ADD31R,0.0630X0.0354*%
%ADD32R,0.0433X0.0354*%
%ADD33R,0.0925X0.1614*%
%ADD34R,0.0626X0.0356*%
%ADD35R,0.3189X0.0945*%
%ADD36R,0.0787X0.0787*%
%ADD37R,0.0591X0.1024*%
%ADD38OC8,0.0709*%
%ADD39C,0.0709*%
%ADD40C,0.0531*%
%ADD41C,0.0591*%
%ADD42C,0.0796*%
D10*
X026285Y011832D03*
X026763Y007905D03*
X035340Y011832D03*
X009441Y021289D03*
X026763Y032706D03*
X026285Y034667D03*
X026285Y034667D03*
X035340Y034667D03*
D11*
X020671Y037326D03*
X020159Y037326D03*
X016448Y031939D03*
X015937Y031939D03*
X011275Y032358D03*
X010763Y032358D03*
X010901Y034484D03*
X011413Y034484D03*
X011415Y028691D03*
X010903Y028691D03*
X012118Y027588D03*
X012630Y027588D03*
X012630Y023651D03*
X012118Y023651D03*
X015815Y019198D03*
X016326Y019198D03*
X026169Y016362D03*
X026681Y016362D03*
X029023Y016362D03*
X029535Y016362D03*
X029368Y018454D03*
X028856Y018454D03*
X028856Y019045D03*
X029368Y019045D03*
X029368Y019635D03*
X028856Y019635D03*
X033409Y019724D03*
X033921Y019724D03*
X033921Y019133D03*
X033409Y019133D03*
X033409Y020905D03*
X033921Y020905D03*
X034013Y015608D03*
X033502Y015608D03*
X031529Y012736D03*
X031017Y012736D03*
X024909Y011712D03*
X024397Y011712D03*
X023854Y011712D03*
X023342Y011712D03*
X024397Y011161D03*
X024909Y011161D03*
D12*
X014244Y030041D03*
X013574Y030041D03*
D13*
X013218Y031029D03*
X013218Y031698D03*
D14*
X011649Y030305D03*
X010901Y030305D03*
X011275Y029439D03*
X011275Y032929D03*
X010901Y033795D03*
X011649Y033795D03*
X012435Y033795D03*
X013183Y033795D03*
X012809Y032929D03*
X033383Y014748D03*
X034131Y014748D03*
X033757Y013881D03*
D15*
X029023Y013931D03*
X029023Y014187D03*
X029023Y014443D03*
X029023Y014698D03*
X029023Y014954D03*
X029023Y015210D03*
X029023Y015466D03*
X029023Y013675D03*
X029023Y013419D03*
X029023Y013163D03*
X026169Y013163D03*
X026169Y013419D03*
X026169Y013675D03*
X026169Y013931D03*
X026169Y014187D03*
X026169Y014443D03*
X026169Y014698D03*
X026169Y014954D03*
X026169Y015210D03*
X026169Y015466D03*
D16*
X024576Y031293D03*
X024576Y031490D03*
X024576Y031687D03*
X024576Y031883D03*
X023797Y031883D03*
X023797Y031687D03*
X023797Y031490D03*
X023797Y031293D03*
D17*
X024187Y031588D03*
D18*
X022923Y031490D03*
X022923Y032002D03*
X020673Y036380D03*
X020673Y036891D03*
X017531Y020029D03*
X017531Y019517D03*
X018063Y019458D03*
X018063Y018946D03*
X019441Y018946D03*
X019441Y019458D03*
X020149Y019009D03*
X020149Y018498D03*
X019380Y010498D03*
X018870Y010496D03*
X018870Y009984D03*
X019380Y009986D03*
X019913Y009734D03*
X020425Y009734D03*
X020425Y009222D03*
X019913Y009222D03*
D19*
X018602Y034275D03*
X017401Y034275D03*
X017401Y038088D03*
X018602Y038088D03*
D20*
X019653Y037326D03*
X018602Y036183D03*
X019815Y035244D03*
X020254Y035683D03*
X021437Y036858D03*
X017401Y038948D03*
X015856Y038817D03*
X011988Y034476D03*
X013492Y032929D03*
X012380Y031730D03*
X012555Y031029D03*
X012055Y031029D03*
X012635Y030193D03*
X009880Y030187D03*
X009880Y031029D03*
X012630Y027049D03*
X017112Y029608D03*
X017992Y029878D03*
X017401Y033415D03*
X015460Y033704D03*
X018486Y024693D03*
X013226Y023651D03*
X015395Y020846D03*
X015907Y020492D03*
X016222Y019960D03*
X016324Y018470D03*
X015159Y018651D03*
X015159Y018139D03*
X017472Y018070D03*
X018468Y018070D03*
X018895Y018946D03*
X019519Y018015D03*
X023122Y016954D03*
X024452Y017954D03*
X025387Y015210D03*
X024452Y014954D03*
X024452Y013954D03*
X023563Y012978D03*
X022868Y012551D03*
X020834Y011257D03*
X020169Y010502D03*
X018870Y009478D03*
X019380Y009051D03*
X023147Y009860D03*
X023854Y011049D03*
X027328Y011159D03*
X027757Y010712D03*
X028563Y011021D03*
X029283Y011598D03*
X029732Y012025D03*
X030061Y012992D03*
X031273Y013754D03*
X031720Y014181D03*
X031273Y014608D03*
X030177Y017067D03*
X028856Y017909D03*
X029368Y020362D03*
X031657Y021519D03*
X031669Y022137D03*
X032901Y020905D03*
X034118Y023250D03*
X034840Y024750D03*
X034120Y025027D03*
X023811Y007691D03*
D21*
X030346Y010307D03*
X033346Y010307D03*
X032998Y012795D03*
X011515Y023651D03*
X010515Y023651D03*
X010515Y027588D03*
X011515Y027588D03*
D22*
X020257Y027943D03*
X021242Y027943D03*
X019883Y021535D03*
X018899Y021535D03*
X017915Y021535D03*
D23*
X014736Y021407D03*
X013732Y020403D03*
X014736Y019399D03*
X012728Y019399D03*
X012728Y021407D03*
D24*
X018476Y020088D03*
X018732Y020088D03*
X018988Y020088D03*
X018988Y019458D03*
X018732Y019458D03*
X018476Y019458D03*
D25*
X021114Y010502D03*
X021114Y009399D03*
D26*
X014824Y024517D03*
X014824Y026722D03*
D27*
X015691Y025620D03*
D28*
X023787Y017954D03*
D29*
X023787Y016954D03*
X023787Y015954D03*
X023787Y014954D03*
X023787Y013954D03*
D30*
X015326Y030832D03*
D31*
X014696Y030734D03*
X014696Y030931D03*
X014696Y031128D03*
X014696Y030537D03*
X015956Y030537D03*
X015956Y030734D03*
X015956Y030931D03*
X015956Y031128D03*
D32*
X018080Y035789D03*
X018080Y035986D03*
X018080Y036183D03*
X018080Y036380D03*
X018080Y036616D03*
X019124Y036616D03*
X019124Y036380D03*
X019124Y036183D03*
X019124Y035986D03*
X019124Y035789D03*
D33*
X018602Y036183D03*
D34*
X030323Y020069D03*
X030323Y019813D03*
X030323Y019557D03*
X030323Y019301D03*
X030323Y019045D03*
X030323Y018789D03*
X030323Y018533D03*
X030323Y018277D03*
X032621Y018277D03*
X032621Y018533D03*
X032621Y018789D03*
X032621Y019045D03*
X032621Y019301D03*
X032621Y019557D03*
X032621Y019813D03*
X032621Y020069D03*
D35*
X015198Y035080D03*
X015198Y037285D03*
D36*
X011275Y031669D03*
X009779Y031669D03*
D37*
X015307Y012293D03*
X019086Y012293D03*
X019519Y012293D03*
X019952Y012293D03*
X020385Y012293D03*
X020819Y012293D03*
X019519Y017096D03*
X018220Y017096D03*
X017039Y017096D03*
X016606Y017096D03*
X016173Y017096D03*
X015740Y017096D03*
X015307Y017096D03*
D38*
X034840Y032750D03*
D39*
X035840Y032750D03*
X035840Y031750D03*
X034840Y031750D03*
X034840Y030750D03*
X035840Y030750D03*
X035840Y029750D03*
X035840Y028750D03*
X035840Y027750D03*
X034840Y027750D03*
X034840Y026750D03*
X034840Y023750D03*
X034840Y022750D03*
X035840Y015750D03*
X035840Y014750D03*
D40*
X015492Y030710D03*
X015492Y030952D03*
X015161Y030952D03*
X015161Y030710D03*
D41*
X015326Y030287D03*
X014984Y030088D03*
X015326Y029889D03*
X015669Y029691D03*
X015326Y029492D03*
X014982Y029691D03*
X015669Y030088D03*
X015326Y031374D03*
X014984Y031572D03*
X015326Y031771D03*
X014984Y031970D03*
X015326Y032169D03*
D42*
X013817Y026131D03*
X013254Y026131D03*
M02*
