%
M48
M72
T01C0.0197
T02C0.0236
T03C0.0276
T04C0.0315
T05C0.0354
T06C0.0394
T07C0.0433
T08C0.0512
T09C0.0591
T10C0.0630
T11C0.1102
%
T01
X15161Y30710
X15161Y30952
X15492Y30952
X15492Y30710
T02
X18870Y9478
X19380Y9051
X20834Y11257
X22868Y12551
X23563Y12978
X24452Y13954
X24452Y14954
X25387Y15210
X23122Y16954
X24452Y17954
X28856Y17909
X30177Y17067
X31273Y14608
X31720Y14181
X31273Y13754
X29732Y12025
X29283Y11598
X28563Y11021
X27757Y10712
X27328Y11159
X23854Y11049
X23147Y9860
X23811Y7691
X18468Y18070
X17472Y18070
X16324Y18470
X15159Y18651
X15159Y18139
X16222Y19960
X15907Y20492
X15395Y20846
X18895Y18946
X13226Y23651
X12630Y27049
X14982Y29691
X14984Y30088
X15326Y29889
X15669Y29691
X15326Y29492
X15669Y30088
X15326Y30287
X15326Y31374
X14984Y31572
X15326Y31771
X14984Y31970
X15326Y32169
X17401Y33415
X15460Y33704
X12380Y31730
X12555Y31029
X12055Y31029
X12635Y30193
X9880Y30187
X9880Y31029
X11988Y34476
X15856Y38817
X18602Y36183
X19815Y35244
X20254Y35683
X21437Y36858
X19653Y37326
X17112Y29608
X29368Y20362
X31657Y21519
X31669Y22137
X32901Y20905
X34118Y23250
X34120Y25027
T03
X18486Y24693
X13817Y26131
X13254Y26131
X11515Y27588
X10515Y27588
X10515Y23651
X11515Y23651
X17992Y29878
X13492Y32929
X17401Y38948
X32998Y12795
X20169Y10502
T04
X35840Y14750
X35840Y15750
X34840Y22750
X34840Y23750
X34840Y24750
X34840Y26750
X34840Y27750
X35840Y27750
X35840Y28750
X35840Y29750
X35840Y30750
X34840Y30750
X34840Y31750
X35840Y31750
X35840Y32750
X34840Y32750
T05
X14824Y26722
X14824Y24517
X30346Y10307
X33346Y10307
T06
X23787Y13954
X23787Y14954
X23787Y15954
X23787Y16954
X23787Y17954
T07
X19883Y21535
X18899Y21535
X17915Y21535
X20257Y27943
X21242Y27943
T08
X15691Y25620
T09
X13732Y20403
T10
X14736Y19399
X12728Y19399
X12728Y21407
X14736Y21407
T11
X9441Y21289
X26285Y11832
X26763Y7905
X35340Y11832
X26763Y32706
X26285Y34667
X26285Y34667
X35340Y34667
M30
