G04*
G04 #@! TF.GenerationSoftware,Altium Limited,Altium Designer,22.5.1 (42)*
G04*
G04 Layer_Physical_Order=1*
G04 Layer_Color=1265191*
%FSLAX44Y44*%
%MOMM*%
G71*
G04*
G04 #@! TF.SameCoordinates,D327534F-E779-4237-818F-575770AB304D*
G04*
G04*
G04 #@! TF.FilePolarity,Positive*
G04*
G01*
G75*
%ADD10C,0.2000*%
%ADD11C,0.3000*%
%ADD13R,0.5500X1.2000*%
%ADD14R,2.0000X1.0000*%
%ADD15R,1.0000X2.0000*%
%ADD16R,0.5500X1.0000*%
%ADD17R,0.5000X0.6500*%
%ADD18R,0.6500X0.5000*%
%ADD19R,1.6500X1.6500*%
%ADD20C,1.6500*%
%ADD21C,0.5000*%
%ADD22C,0.7000*%
D10*
X-110000Y168250D02*
X110000D01*
Y-118000D02*
Y168250D01*
X-110000Y-118000D02*
X110000D01*
X-110000D02*
Y168250D01*
D11*
X65000Y-51250D02*
X75000D01*
X79250Y-55500D01*
Y-85993D02*
Y-55500D01*
X99500Y-67500D02*
Y-62749D01*
Y-107500D02*
Y-87500D01*
X85250Y-87750D02*
X85500Y-87500D01*
X81007Y-87750D02*
X85250D01*
X79250Y-85993D02*
X81007Y-87750D01*
X-106000Y64500D02*
X-84750Y43250D01*
X-106000Y64500D02*
Y85250D01*
X-97000Y-22700D02*
X-79950Y-5650D01*
Y45450D01*
X-97000Y62500D02*
Y70000D01*
Y62500D02*
X-79950Y45450D01*
X-84750Y14950D02*
Y43250D01*
X-97000Y2700D02*
X-84750Y14950D01*
X-106000Y85250D02*
X-103750Y87500D01*
X-97000D01*
X-84250Y70000D02*
X-81750Y72500D01*
X-88000Y70000D02*
X-84250D01*
X-81750Y72500D02*
Y80000D01*
X-78000Y83750D02*
X-65000D01*
X-81750Y80000D02*
X-78000Y83750D01*
X-82000Y89257D02*
Y96993D01*
X-88000Y87500D02*
X-83757D01*
X-82000Y89257D01*
X-80243Y98750D02*
X-65000D01*
X-82000Y96993D02*
X-80243Y98750D01*
D13*
X-89500Y-97500D02*
D03*
X-75500D02*
D03*
X85500Y-67500D02*
D03*
X99500D02*
D03*
X85500Y-87500D02*
D03*
X99500D02*
D03*
D14*
X65000Y98750D02*
D03*
Y83750D02*
D03*
X-65000Y98750D02*
D03*
Y83750D02*
D03*
Y68750D02*
D03*
Y53750D02*
D03*
Y38750D02*
D03*
Y23750D02*
D03*
Y8750D02*
D03*
Y-6250D02*
D03*
Y-21250D02*
D03*
Y-36250D02*
D03*
Y-51250D02*
D03*
Y-66250D02*
D03*
Y-81250D02*
D03*
X65000D02*
D03*
Y-66250D02*
D03*
Y-51250D02*
D03*
Y-36250D02*
D03*
Y-21250D02*
D03*
Y-6250D02*
D03*
Y8750D02*
D03*
Y23750D02*
D03*
Y38750D02*
D03*
Y53750D02*
D03*
Y68750D02*
D03*
D15*
X-52500Y-98750D02*
D03*
X-37500D02*
D03*
X-22500D02*
D03*
X-7500D02*
D03*
X7500D02*
D03*
X22500D02*
D03*
X37500D02*
D03*
X52500D02*
D03*
D16*
X85500Y-107500D02*
D03*
X99500D02*
D03*
D17*
X-88000Y87500D02*
D03*
X-97000D02*
D03*
X-88000Y70000D02*
D03*
X-97000D02*
D03*
D18*
X82500Y-5500D02*
D03*
Y-14500D02*
D03*
X-82500Y-77000D02*
D03*
Y-68000D02*
D03*
D19*
X-97000Y28100D02*
D03*
X97000Y53500D02*
D03*
D20*
X-97000Y2700D02*
D03*
Y-22700D02*
D03*
Y-48100D02*
D03*
Y-73500D02*
D03*
X97000Y28100D02*
D03*
Y2700D02*
D03*
Y-22700D02*
D03*
Y-48100D02*
D03*
D21*
X79000Y-107500D02*
X85500D01*
X58000Y-98750D02*
X62500Y-103250D01*
X52500Y-98750D02*
X58000D01*
X65000Y-92625D02*
Y-81250D01*
X85500Y-67500D02*
Y-53500D01*
X82500Y-50500D02*
Y-21250D01*
Y-50500D02*
X85500Y-53500D01*
X79673Y709D02*
X82500Y-2118D01*
X79673Y709D02*
Y1250D01*
X82500Y-5500D02*
Y-2118D01*
Y-21250D02*
Y-14500D01*
X-82331Y-87427D02*
X-82323D01*
X-75500Y-94250D01*
X-82375Y-68000D02*
Y-60875D01*
X-82250Y-60750D01*
X-75500Y-97500D02*
Y-94250D01*
X65000Y-21250D02*
X82500D01*
X-97000Y-83000D02*
Y-73500D01*
Y-83000D02*
X-89500Y-90500D01*
Y-97500D02*
Y-90500D01*
X83750Y40250D02*
X97000Y53500D01*
X83750Y15950D02*
Y40250D01*
Y15950D02*
X97000Y2700D01*
X99500Y-62749D02*
Y-53712D01*
X97000Y-51212D02*
X99500Y-53712D01*
X97000Y-51212D02*
Y-48100D01*
X-82375Y-68000D02*
X-66750D01*
X-82500D02*
X-82375D01*
X-77500Y-79000D02*
X-67250D01*
X-65000Y-81250D01*
X-79500Y-77000D02*
X-77500Y-79000D01*
X-82500Y-77000D02*
X-79500D01*
X-88250Y-75000D02*
X-86250Y-77000D01*
X-82500D01*
X-95500Y-75000D02*
X-88250D01*
X-97000Y-73500D02*
X-95500Y-75000D01*
X-66750Y-68000D02*
X-65000Y-66250D01*
D22*
X79000Y-107500D02*
D03*
X62500Y-103250D02*
D03*
X65000Y-92625D02*
D03*
X79673Y1250D02*
D03*
X-82331Y-87427D02*
D03*
X-82250Y-60750D02*
D03*
M02*
