G04*
G04 #@! TF.GenerationSoftware,Altium Limited,Altium Designer,22.5.1 (42)*
G04*
G04 Layer_Physical_Order=2*
G04 Layer_Color=255*
%FSLAX44Y44*%
%MOMM*%
G71*
G04*
G04 #@! TF.SameCoordinates,D327534F-E779-4237-818F-575770AB304D*
G04*
G04*
G04 #@! TF.FilePolarity,Positive*
G04*
G01*
G75*
%ADD10C,0.2000*%
%ADD19R,1.6500X1.6500*%
%ADD20C,1.6500*%
%ADD21C,0.5000*%
%ADD22C,0.7000*%
%ADD23C,1.0000*%
G36*
X107500Y33354D02*
X106230Y33013D01*
X105362Y34516D01*
X103417Y36462D01*
X101034Y37838D01*
X98376Y38550D01*
X95624D01*
X92966Y37838D01*
X90584Y36462D01*
X88995Y34874D01*
X84608D01*
X82728Y34626D01*
X80977Y33901D01*
X79473Y32747D01*
X73615Y26889D01*
X72461Y25385D01*
X71735Y23633D01*
X71488Y21754D01*
Y1250D01*
X71735Y-630D01*
X72411Y-2261D01*
Y-54319D01*
X39492Y-87238D01*
X-72250D01*
X-77196Y-82292D01*
X-77498Y-82060D01*
Y-64059D01*
X-77418Y-63979D01*
X-76550Y-61884D01*
Y-59616D01*
X-77418Y-57521D01*
X-79021Y-55918D01*
X-81116Y-55050D01*
X-83384D01*
X-85479Y-55918D01*
X-87082Y-57521D01*
X-87950Y-59616D01*
Y-61884D01*
X-87082Y-63978D01*
Y-81998D01*
X-87466Y-82292D01*
X-88620Y-83796D01*
X-89345Y-85548D01*
X-89593Y-87427D01*
X-89345Y-89307D01*
X-88620Y-91059D01*
X-87466Y-92563D01*
X-80393Y-99635D01*
X-78889Y-100789D01*
X-77138Y-101515D01*
X-75258Y-101762D01*
X42500D01*
X44380Y-101515D01*
X46131Y-100789D01*
X47635Y-99635D01*
X84808Y-62462D01*
X85962Y-60958D01*
X86688Y-59206D01*
X86936Y-57327D01*
Y1250D01*
X86688Y3130D01*
X86012Y4761D01*
Y18746D01*
X87616Y20350D01*
X89972D01*
X90584Y19738D01*
X92966Y18362D01*
X95624Y17650D01*
X98376D01*
X101034Y18362D01*
X103417Y19738D01*
X105362Y21683D01*
X106230Y23187D01*
X107500Y22847D01*
Y-115250D01*
X-108250D01*
Y-25997D01*
X-106980Y-25830D01*
X-106738Y-26734D01*
X-105362Y-29116D01*
X-103417Y-31062D01*
X-101034Y-32438D01*
X-98376Y-33150D01*
X-95624D01*
X-92966Y-32438D01*
X-90584Y-31062D01*
X-88638Y-29116D01*
X-87262Y-26734D01*
X-86550Y-24076D01*
Y-21324D01*
X-87262Y-18666D01*
X-88638Y-16284D01*
X-90584Y-14338D01*
X-92966Y-12962D01*
X-95624Y-12250D01*
X-98376D01*
X-101034Y-12962D01*
X-103417Y-14338D01*
X-105362Y-16284D01*
X-106738Y-18666D01*
X-106980Y-19570D01*
X-108250Y-19403D01*
Y-597D01*
X-106980Y-430D01*
X-106738Y-1334D01*
X-105362Y-3717D01*
X-103417Y-5662D01*
X-101034Y-7038D01*
X-98376Y-7750D01*
X-95624D01*
X-92966Y-7038D01*
X-90584Y-5662D01*
X-88638Y-3717D01*
X-87262Y-1334D01*
X-86550Y1324D01*
Y4076D01*
X-87262Y6733D01*
X-88638Y9116D01*
X-90584Y11062D01*
X-92966Y12438D01*
X-95624Y13150D01*
X-98376D01*
X-101034Y12438D01*
X-103417Y11062D01*
X-105362Y9116D01*
X-106738Y6733D01*
X-106980Y5830D01*
X-108250Y5997D01*
Y105250D01*
X107500D01*
Y33354D01*
D02*
G37*
D10*
X-110000Y168250D02*
X110000D01*
Y-118000D02*
Y168250D01*
X-110000Y-118000D02*
X110000D01*
X-110000D02*
Y168250D01*
D19*
X-97000Y28100D02*
D03*
X97000Y53500D02*
D03*
D20*
X-97000Y2700D02*
D03*
Y-22700D02*
D03*
Y-48100D02*
D03*
Y-73500D02*
D03*
X97000Y28100D02*
D03*
Y2700D02*
D03*
Y-22700D02*
D03*
Y-48100D02*
D03*
D21*
X-82331Y-87427D02*
X-82290Y-87387D01*
Y-60790D01*
X-82250Y-60750D01*
X96600Y28500D02*
X97000Y28100D01*
D22*
X79000Y-107500D02*
D03*
X62500Y-103250D02*
D03*
X65000Y-92625D02*
D03*
X79673Y1250D02*
D03*
X-82331Y-87427D02*
D03*
X-82250Y-60750D02*
D03*
D23*
X-75258Y-94500D02*
X42500D01*
X79673Y-57327D01*
Y1250D01*
X78750Y1250D02*
Y21754D01*
X95712Y27612D02*
X96600Y28500D01*
X78750Y21754D02*
X84608Y27612D01*
X95712D01*
X-82331Y-87427D02*
X-75258Y-94500D01*
M02*
